%TF.GenerationSoftware,KiCad,Pcbnew,8.0.5*%
%TF.CreationDate,2024-10-12T15:51:15+02:00*%
%TF.ProjectId,DCDC_converter,44434443-5f63-46f6-9e76-65727465722e,rev?*%
%TF.SameCoordinates,Original*%
%TF.FileFunction,Soldermask,Top*%
%TF.FilePolarity,Negative*%
%FSLAX46Y46*%
G04 Gerber Fmt 4.6, Leading zero omitted, Abs format (unit mm)*
G04 Created by KiCad (PCBNEW 8.0.5) date 2024-10-12 15:51:15*
%MOMM*%
%LPD*%
G01*
G04 APERTURE LIST*
G04 Aperture macros list*
%AMRoundRect*
0 Rectangle with rounded corners*
0 $1 Rounding radius*
0 $2 $3 $4 $5 $6 $7 $8 $9 X,Y pos of 4 corners*
0 Add a 4 corners polygon primitive as box body*
4,1,4,$2,$3,$4,$5,$6,$7,$8,$9,$2,$3,0*
0 Add four circle primitives for the rounded corners*
1,1,$1+$1,$2,$3*
1,1,$1+$1,$4,$5*
1,1,$1+$1,$6,$7*
1,1,$1+$1,$8,$9*
0 Add four rect primitives between the rounded corners*
20,1,$1+$1,$2,$3,$4,$5,0*
20,1,$1+$1,$4,$5,$6,$7,0*
20,1,$1+$1,$6,$7,$8,$9,0*
20,1,$1+$1,$8,$9,$2,$3,0*%
G04 Aperture macros list end*
%ADD10RoundRect,0.250000X0.250000X0.475000X-0.250000X0.475000X-0.250000X-0.475000X0.250000X-0.475000X0*%
%ADD11RoundRect,0.200000X-0.200000X-0.275000X0.200000X-0.275000X0.200000X0.275000X-0.200000X0.275000X0*%
%ADD12RoundRect,0.250000X-0.475000X0.250000X-0.475000X-0.250000X0.475000X-0.250000X0.475000X0.250000X0*%
%ADD13RoundRect,0.200000X-0.275000X0.200000X-0.275000X-0.200000X0.275000X-0.200000X0.275000X0.200000X0*%
%ADD14RoundRect,0.200000X0.275000X-0.200000X0.275000X0.200000X-0.275000X0.200000X-0.275000X-0.200000X0*%
%ADD15RoundRect,0.225000X0.225000X0.250000X-0.225000X0.250000X-0.225000X-0.250000X0.225000X-0.250000X0*%
%ADD16R,1.700000X1.700000*%
%ADD17O,1.700000X1.700000*%
%ADD18R,2.600000X8.200000*%
%ADD19RoundRect,0.200000X0.200000X0.275000X-0.200000X0.275000X-0.200000X-0.275000X0.200000X-0.275000X0*%
%ADD20R,1.600000X1.600000*%
%ADD21C,1.600000*%
%ADD22RoundRect,0.218750X-0.218750X-0.256250X0.218750X-0.256250X0.218750X0.256250X-0.218750X0.256250X0*%
%ADD23RoundRect,0.225000X0.250000X-0.225000X0.250000X0.225000X-0.250000X0.225000X-0.250000X-0.225000X0*%
%ADD24RoundRect,0.225000X-0.250000X0.225000X-0.250000X-0.225000X0.250000X-0.225000X0.250000X0.225000X0*%
%ADD25R,1.500000X0.300000*%
%ADD26R,0.250000X0.700000*%
%ADD27R,0.700000X0.300000*%
G04 APERTURE END LIST*
D10*
%TO.C,C13*%
X89654998Y-53640000D03*
X87755000Y-53640000D03*
%TD*%
D11*
%TO.C,R11*%
X67312500Y-51275000D03*
X68962500Y-51275000D03*
%TD*%
D12*
%TO.C,C4*%
X68772500Y-57735000D03*
X68772500Y-59634998D03*
%TD*%
D10*
%TO.C,C11*%
X89704998Y-68460000D03*
X87805000Y-68460000D03*
%TD*%
D13*
%TO.C,R8*%
X77537500Y-52820000D03*
X77537500Y-54470000D03*
%TD*%
D14*
%TO.C,R4*%
X73732500Y-54475000D03*
X73732500Y-52825000D03*
%TD*%
D15*
%TO.C,C6*%
X68922500Y-53050000D03*
X67372500Y-53050000D03*
%TD*%
D11*
%TO.C,R2*%
X71242500Y-64655000D03*
X72892500Y-64655000D03*
%TD*%
%TO.C,R1*%
X67327500Y-54660000D03*
X68977500Y-54660000D03*
%TD*%
D16*
%TO.C,J4*%
X94037500Y-64830000D03*
D17*
X96577500Y-64830000D03*
%TD*%
D16*
%TO.C,J3*%
X94037500Y-54670000D03*
D17*
X96577500Y-54670000D03*
%TD*%
D18*
%TO.C,L1*%
X84037500Y-60000000D03*
X89637500Y-60000000D03*
%TD*%
D19*
%TO.C,R10*%
X76722500Y-63125000D03*
X75072500Y-63125000D03*
%TD*%
D20*
%TO.C,C1*%
X61317500Y-64440000D03*
D21*
X63817500Y-64440000D03*
%TD*%
D22*
%TO.C,D1*%
X70850000Y-51275000D03*
X72425000Y-51275000D03*
%TD*%
D23*
%TO.C,C8*%
X79182500Y-58095000D03*
X79182500Y-56545000D03*
%TD*%
D16*
%TO.C,J2*%
X55937500Y-67370000D03*
D17*
X53397500Y-67370000D03*
%TD*%
D11*
%TO.C,R3*%
X71242500Y-66115000D03*
X72892500Y-66115000D03*
%TD*%
%TO.C,R7*%
X75072500Y-61665000D03*
X76722500Y-61665000D03*
%TD*%
D14*
%TO.C,R6*%
X71605000Y-54475000D03*
X71605000Y-52825000D03*
%TD*%
D15*
%TO.C,C9*%
X76672500Y-64655000D03*
X75122500Y-64655000D03*
%TD*%
D12*
%TO.C,C3*%
X66812500Y-57735002D03*
X66812500Y-59635000D03*
%TD*%
D16*
%TO.C,J1*%
X55937500Y-52130000D03*
D17*
X53397500Y-52130000D03*
%TD*%
D10*
%TO.C,C10*%
X89704998Y-66500000D03*
X87805000Y-66500000D03*
%TD*%
%TO.C,C12*%
X89654999Y-51680000D03*
X87755001Y-51680000D03*
%TD*%
D24*
%TO.C,C5*%
X70482500Y-57925000D03*
X70482500Y-59475000D03*
%TD*%
D12*
%TO.C,C2*%
X64852500Y-57735002D03*
X64852500Y-59635000D03*
%TD*%
D11*
%TO.C,R5*%
X76142500Y-56565000D03*
X77792500Y-56565000D03*
%TD*%
D25*
%TO.C,U1*%
X73012500Y-57755000D03*
X73012500Y-59055000D03*
D26*
X73062500Y-59855000D03*
X73562500Y-59855000D03*
X74062500Y-59855000D03*
X74562500Y-59855000D03*
D27*
X75012500Y-59055000D03*
D25*
X74612500Y-58405000D03*
D27*
X75012500Y-57755000D03*
D26*
X74562500Y-56955000D03*
X74062500Y-56955000D03*
X73562500Y-56955000D03*
X73062500Y-56955000D03*
%TD*%
D15*
%TO.C,C7*%
X72742500Y-61395000D03*
X71192500Y-61395000D03*
%TD*%
D14*
%TO.C,R9*%
X75637500Y-54470000D03*
X75637500Y-52820000D03*
%TD*%
M02*
