%TF.GenerationSoftware,KiCad,Pcbnew,8.0.5*%
%TF.CreationDate,2024-10-12T15:51:15+02:00*%
%TF.ProjectId,DCDC_converter,44434443-5f63-46f6-9e76-65727465722e,rev?*%
%TF.SameCoordinates,Original*%
%TF.FileFunction,Copper,L4,Bot*%
%TF.FilePolarity,Positive*%
%FSLAX46Y46*%
G04 Gerber Fmt 4.6, Leading zero omitted, Abs format (unit mm)*
G04 Created by KiCad (PCBNEW 8.0.5) date 2024-10-12 15:51:15*
%MOMM*%
%LPD*%
G01*
G04 APERTURE LIST*
%TA.AperFunction,ComponentPad*%
%ADD10R,1.700000X1.700000*%
%TD*%
%TA.AperFunction,ComponentPad*%
%ADD11O,1.700000X1.700000*%
%TD*%
%TA.AperFunction,ComponentPad*%
%ADD12R,1.600000X1.600000*%
%TD*%
%TA.AperFunction,ComponentPad*%
%ADD13C,1.600000*%
%TD*%
%TA.AperFunction,ViaPad*%
%ADD14C,0.600000*%
%TD*%
%TA.AperFunction,ViaPad*%
%ADD15C,0.400000*%
%TD*%
%TA.AperFunction,ViaPad*%
%ADD16C,0.800000*%
%TD*%
%TA.AperFunction,Conductor*%
%ADD17C,0.400000*%
%TD*%
%TA.AperFunction,Conductor*%
%ADD18C,0.250000*%
%TD*%
%TA.AperFunction,Conductor*%
%ADD19C,0.300000*%
%TD*%
G04 APERTURE END LIST*
D10*
%TO.P,J4,1,Pin_1*%
%TO.N,GND*%
X94037500Y-64830000D03*
D11*
%TO.P,J4,2,Pin_2*%
X96577500Y-64830000D03*
%TD*%
D10*
%TO.P,J3,1,Pin_1*%
%TO.N,+5V*%
X94037500Y-54670000D03*
D11*
%TO.P,J3,2,Pin_2*%
X96577500Y-54670000D03*
%TD*%
D12*
%TO.P,C1,1*%
%TO.N,+24V*%
X61317500Y-64440000D03*
D13*
%TO.P,C1,2*%
%TO.N,GND*%
X63817500Y-64440000D03*
%TD*%
D10*
%TO.P,J2,1,Pin_1*%
%TO.N,GND*%
X55937500Y-67370000D03*
D11*
%TO.P,J2,2,Pin_2*%
X53397500Y-67370000D03*
%TD*%
D10*
%TO.P,J1,1,Pin_1*%
%TO.N,+24V*%
X55937500Y-52130000D03*
D11*
%TO.P,J1,2,Pin_2*%
X53397500Y-52130000D03*
%TD*%
D14*
%TO.N,GND*%
X67750000Y-64250000D03*
X51550000Y-61150000D03*
X65100000Y-53000000D03*
X70125000Y-60725000D03*
X75700000Y-51250000D03*
X56350000Y-62450000D03*
X62250000Y-68500000D03*
X56800000Y-64900000D03*
X68950000Y-61400000D03*
X71675000Y-60150000D03*
X64650000Y-68500000D03*
X69550000Y-62600000D03*
X92975000Y-59350000D03*
X67750000Y-66650000D03*
X60300000Y-53000000D03*
X84550000Y-68500000D03*
X63900000Y-51800000D03*
X53950000Y-63700000D03*
X57550000Y-61150000D03*
X75825000Y-60025000D03*
X96550000Y-59350000D03*
X81300000Y-66500000D03*
X94425000Y-61750000D03*
X81700000Y-51250000D03*
X85750000Y-68500000D03*
X57550000Y-63700000D03*
X71675000Y-59250000D03*
X66300000Y-66650000D03*
X94425000Y-59350000D03*
X83050000Y-52650000D03*
X52000000Y-64900000D03*
X55150000Y-61150000D03*
X79650000Y-54800000D03*
X98000000Y-59350000D03*
X98000000Y-61750000D03*
X62700000Y-53000000D03*
X71750000Y-68500000D03*
X94450000Y-68025000D03*
X81700000Y-54050000D03*
X61500000Y-51800000D03*
X65850000Y-68500000D03*
X85750000Y-66500000D03*
X52775000Y-62450000D03*
X76937500Y-60800000D03*
X61500000Y-54200000D03*
X63900000Y-54200000D03*
X67750000Y-61400000D03*
X80250000Y-52650000D03*
X84550000Y-66500000D03*
X66550000Y-61400000D03*
X96850000Y-68025000D03*
X67150000Y-62600000D03*
X76187500Y-61950000D03*
X85900000Y-54050000D03*
X51550000Y-63700000D03*
X66300000Y-64250000D03*
X85900000Y-51250000D03*
X68350000Y-62600000D03*
X74150000Y-68500000D03*
X67750000Y-65450000D03*
X53950000Y-61150000D03*
X80100000Y-66500000D03*
X66300000Y-65450000D03*
X81300000Y-68500000D03*
X96550000Y-61750000D03*
X78100000Y-51250000D03*
X55150000Y-63700000D03*
X61050000Y-68500000D03*
X70550000Y-68500000D03*
X80100000Y-68500000D03*
X92975000Y-61750000D03*
X75350000Y-68500000D03*
%TO.N,+24V*%
X59800000Y-63650000D03*
X60400000Y-56850000D03*
X61000000Y-61250000D03*
D15*
X72300000Y-58150000D03*
D14*
X71650000Y-57850000D03*
X52200000Y-55850000D03*
X69700000Y-58300000D03*
X65900000Y-56150000D03*
X69500000Y-56150000D03*
X68900000Y-56900000D03*
X67800000Y-58300000D03*
X70100000Y-56900000D03*
X60400000Y-58550000D03*
X67100000Y-56150000D03*
X53400000Y-58250000D03*
X58200000Y-55850000D03*
X55200000Y-54600000D03*
X52800000Y-54600000D03*
X57000000Y-55850000D03*
X57000000Y-58250000D03*
X71350000Y-56900000D03*
X67700000Y-56900000D03*
X54000000Y-54600000D03*
X65300000Y-56900000D03*
D15*
X73300000Y-58150000D03*
D14*
X52200000Y-58250000D03*
X68300000Y-56150000D03*
X70800000Y-56150000D03*
X59800000Y-62450000D03*
X58200000Y-58250000D03*
X53400000Y-55850000D03*
X64700000Y-56150000D03*
X56400000Y-54600000D03*
X65850000Y-58300000D03*
X54600000Y-57050000D03*
X62000000Y-57650000D03*
X66500000Y-56900000D03*
D15*
X72800000Y-58150000D03*
D14*
X59800000Y-60050000D03*
X59800000Y-64850000D03*
X61000000Y-62450000D03*
X55800000Y-57050000D03*
D16*
%TO.N,Net-(U1-EN)*%
X69950000Y-54650000D03*
X74287500Y-55837500D03*
%TO.N,VCC*%
X72850000Y-62950000D03*
X72587500Y-53450000D03*
X76737500Y-55050000D03*
D14*
%TO.N,+5V*%
X98700000Y-56650000D03*
X97650000Y-52450000D03*
X91450000Y-53900000D03*
X94275000Y-51900000D03*
X96150000Y-51250000D03*
X92075000Y-57250000D03*
D16*
X77037500Y-65700000D03*
D14*
X89550000Y-64925000D03*
X97650000Y-51250000D03*
X92775000Y-51900000D03*
X96150000Y-52450000D03*
X90925000Y-64925000D03*
D16*
X90650000Y-67500000D03*
%TO.N,Net-(D1-K)*%
X70337500Y-51912500D03*
X66450000Y-51850000D03*
%TD*%
D17*
%TO.N,Net-(U1-EN)*%
X70580000Y-55280000D02*
X69950000Y-54650000D01*
X73730000Y-55280000D02*
X70580000Y-55280000D01*
X74287500Y-55837500D02*
X73730000Y-55280000D01*
D18*
%TO.N,Net-(D1-K)*%
X70100000Y-52150000D02*
X66750000Y-52150000D01*
X66750000Y-52150000D02*
X66600000Y-52000000D01*
X70337500Y-51912500D02*
X70100000Y-52150000D01*
D19*
X66600000Y-52000000D02*
X66450000Y-51850000D01*
%TD*%
%TA.AperFunction,Conductor*%
%TO.N,GND*%
G36*
X99442539Y-57619685D02*
G01*
X99488294Y-57672489D01*
X99499500Y-57724000D01*
X99499500Y-68799138D01*
X99479815Y-68866177D01*
X99463181Y-68886819D01*
X98886819Y-69463181D01*
X98825496Y-69496666D01*
X98799138Y-69499500D01*
X91974000Y-69499500D01*
X91906961Y-69479815D01*
X91861206Y-69427011D01*
X91850000Y-69375500D01*
X91850000Y-59301362D01*
X91869685Y-59234323D01*
X91886319Y-59213681D01*
X93463681Y-57636319D01*
X93525004Y-57602834D01*
X93551362Y-57600000D01*
X99375500Y-57600000D01*
X99442539Y-57619685D01*
G37*
%TD.AperFunction*%
%TD*%
%TA.AperFunction,Conductor*%
%TO.N,+5V*%
G36*
X98866177Y-50520185D02*
G01*
X98886819Y-50536819D01*
X99463181Y-51113181D01*
X99496666Y-51174504D01*
X99499500Y-51200862D01*
X99499500Y-57270500D01*
X99479815Y-57337539D01*
X99427011Y-57383294D01*
X99375500Y-57394500D01*
X93551361Y-57394500D01*
X93529381Y-57395678D01*
X93503034Y-57398511D01*
X93503032Y-57398512D01*
X93426521Y-57422470D01*
X93426516Y-57422471D01*
X93365188Y-57455960D01*
X93318384Y-57490998D01*
X93318363Y-57491016D01*
X91741013Y-59068365D01*
X91741012Y-59068366D01*
X91726325Y-59084716D01*
X91726313Y-59084730D01*
X91709672Y-59105379D01*
X91672509Y-59176424D01*
X91652826Y-59243456D01*
X91644500Y-59301365D01*
X91644500Y-69375500D01*
X91624815Y-69442539D01*
X91572011Y-69488294D01*
X91520500Y-69499500D01*
X88979500Y-69499500D01*
X88912461Y-69479815D01*
X88866706Y-69427011D01*
X88855500Y-69375500D01*
X88855500Y-65151361D01*
X88854321Y-65129381D01*
X88851488Y-65103035D01*
X88843165Y-65076453D01*
X88840068Y-65056201D01*
X88837500Y-65050001D01*
X88837500Y-65050000D01*
X88837499Y-65049999D01*
X88828679Y-65028706D01*
X88828083Y-65027822D01*
X88827531Y-65026522D01*
X88827529Y-65026518D01*
X88794044Y-64965195D01*
X88758991Y-64918371D01*
X87691819Y-63851199D01*
X87658334Y-63789876D01*
X87655500Y-63763518D01*
X87655500Y-56286482D01*
X87675185Y-56219443D01*
X87691819Y-56198801D01*
X88185121Y-55705500D01*
X88708991Y-55181630D01*
X88723693Y-55165262D01*
X88725552Y-55162954D01*
X88734412Y-55153087D01*
X88837500Y-55050000D01*
X88848347Y-50624195D01*
X88868196Y-50557205D01*
X88921112Y-50511580D01*
X88972347Y-50500500D01*
X98799138Y-50500500D01*
X98866177Y-50520185D01*
G37*
%TD.AperFunction*%
%TD*%
%TA.AperFunction,Conductor*%
%TO.N,GND*%
G36*
X88543039Y-50520185D02*
G01*
X88588794Y-50572989D01*
X88600000Y-50624500D01*
X88600000Y-54948638D01*
X88580315Y-55015677D01*
X88563681Y-55036319D01*
X87450000Y-56149999D01*
X87450000Y-63900000D01*
X88613681Y-65063681D01*
X88647166Y-65125004D01*
X88650000Y-65151362D01*
X88650000Y-69375500D01*
X88630315Y-69442539D01*
X88577511Y-69488294D01*
X88526000Y-69499500D01*
X51000862Y-69499500D01*
X50933823Y-69479815D01*
X50913181Y-69463181D01*
X50536819Y-69086819D01*
X50503334Y-69025496D01*
X50500500Y-68999138D01*
X50500500Y-58999862D01*
X50520185Y-58932823D01*
X50572989Y-58887068D01*
X50642147Y-58877124D01*
X50705703Y-58906149D01*
X50712181Y-58912181D01*
X51400000Y-59600000D01*
X57448638Y-59600000D01*
X57515677Y-59619685D01*
X57536319Y-59636319D01*
X58263681Y-60363681D01*
X58297166Y-60425004D01*
X58300000Y-60451362D01*
X58300000Y-64900000D01*
X59250000Y-65850000D01*
X62450000Y-65850000D01*
X62450000Y-65699998D01*
X76431818Y-65699998D01*
X76431818Y-65700001D01*
X76452455Y-65856760D01*
X76452456Y-65856762D01*
X76512964Y-66002841D01*
X76609218Y-66128282D01*
X76734659Y-66224536D01*
X76880738Y-66285044D01*
X76959119Y-66295363D01*
X77037499Y-66305682D01*
X77037500Y-66305682D01*
X77037501Y-66305682D01*
X77089754Y-66298802D01*
X77194262Y-66285044D01*
X77340341Y-66224536D01*
X77465782Y-66128282D01*
X77562036Y-66002841D01*
X77622544Y-65856762D01*
X77643182Y-65700000D01*
X77622544Y-65543238D01*
X77562036Y-65397159D01*
X77465782Y-65271718D01*
X77340341Y-65175464D01*
X77194262Y-65114956D01*
X77194260Y-65114955D01*
X77037501Y-65094318D01*
X77037499Y-65094318D01*
X76880739Y-65114955D01*
X76880737Y-65114956D01*
X76734660Y-65175463D01*
X76609218Y-65271718D01*
X76512963Y-65397160D01*
X76452456Y-65543237D01*
X76452455Y-65543239D01*
X76431818Y-65699998D01*
X62450000Y-65699998D01*
X62450000Y-62949998D01*
X72244318Y-62949998D01*
X72244318Y-62950001D01*
X72264955Y-63106760D01*
X72264956Y-63106762D01*
X72325464Y-63252841D01*
X72421718Y-63378282D01*
X72547159Y-63474536D01*
X72693238Y-63535044D01*
X72771619Y-63545363D01*
X72849999Y-63555682D01*
X72850000Y-63555682D01*
X72850001Y-63555682D01*
X72902254Y-63548802D01*
X73006762Y-63535044D01*
X73152841Y-63474536D01*
X73278282Y-63378282D01*
X73374536Y-63252841D01*
X73435044Y-63106762D01*
X73455682Y-62950000D01*
X73435044Y-62793238D01*
X73374536Y-62647159D01*
X73278282Y-62521718D01*
X73152841Y-62425464D01*
X73006762Y-62364956D01*
X73006760Y-62364955D01*
X72850001Y-62344318D01*
X72849999Y-62344318D01*
X72693239Y-62364955D01*
X72693237Y-62364956D01*
X72547160Y-62425463D01*
X72421718Y-62521718D01*
X72325463Y-62647160D01*
X72264956Y-62793237D01*
X72264955Y-62793239D01*
X72244318Y-62949998D01*
X62450000Y-62949998D01*
X62450000Y-59951362D01*
X62469685Y-59884323D01*
X62486319Y-59863681D01*
X63513681Y-58836319D01*
X63575004Y-58802834D01*
X63601362Y-58800000D01*
X65765693Y-58800000D01*
X65772684Y-58800500D01*
X65778039Y-58800500D01*
X65927316Y-58800500D01*
X65934307Y-58800000D01*
X67715693Y-58800000D01*
X67722684Y-58800500D01*
X67728039Y-58800500D01*
X67877316Y-58800500D01*
X67884307Y-58800000D01*
X69615693Y-58800000D01*
X69622684Y-58800500D01*
X69628039Y-58800500D01*
X69777316Y-58800500D01*
X69784307Y-58800000D01*
X73800000Y-58800000D01*
X73800000Y-56470197D01*
X73819685Y-56403158D01*
X73872489Y-56357403D01*
X73941647Y-56347459D01*
X73976853Y-56359644D01*
X73977151Y-56358926D01*
X73984658Y-56362035D01*
X73984659Y-56362036D01*
X74130738Y-56422544D01*
X74200916Y-56431783D01*
X74287499Y-56443182D01*
X74287500Y-56443182D01*
X74287501Y-56443182D01*
X74374084Y-56431783D01*
X74444262Y-56422544D01*
X74590341Y-56362036D01*
X74715782Y-56265782D01*
X74812036Y-56140341D01*
X74872544Y-55994262D01*
X74893182Y-55837500D01*
X74872544Y-55680738D01*
X74812036Y-55534659D01*
X74715782Y-55409218D01*
X74590341Y-55312964D01*
X74444262Y-55252456D01*
X74388077Y-55245059D01*
X74283985Y-55231355D01*
X74220089Y-55203088D01*
X74212490Y-55196097D01*
X74066391Y-55049998D01*
X76131818Y-55049998D01*
X76131818Y-55050001D01*
X76152455Y-55206760D01*
X76152456Y-55206762D01*
X76164727Y-55236388D01*
X76212964Y-55352841D01*
X76309218Y-55478282D01*
X76434659Y-55574536D01*
X76580738Y-55635044D01*
X76659119Y-55645363D01*
X76737499Y-55655682D01*
X76737500Y-55655682D01*
X76737501Y-55655682D01*
X76789754Y-55648802D01*
X76894262Y-55635044D01*
X77040341Y-55574536D01*
X77165782Y-55478282D01*
X77262036Y-55352841D01*
X77322544Y-55206762D01*
X77343182Y-55050000D01*
X77322544Y-54893238D01*
X77262036Y-54747159D01*
X77165782Y-54621718D01*
X77040341Y-54525464D01*
X76894262Y-54464956D01*
X76894260Y-54464955D01*
X76737501Y-54444318D01*
X76737499Y-54444318D01*
X76580739Y-54464955D01*
X76580737Y-54464956D01*
X76434660Y-54525463D01*
X76309218Y-54621718D01*
X76212963Y-54747160D01*
X76152456Y-54893237D01*
X76152455Y-54893239D01*
X76131818Y-55049998D01*
X74066391Y-55049998D01*
X73975915Y-54959522D01*
X73975913Y-54959520D01*
X73930250Y-54933156D01*
X73884589Y-54906793D01*
X73833657Y-54893146D01*
X73782727Y-54879500D01*
X73782726Y-54879500D01*
X70797254Y-54879500D01*
X70730215Y-54859815D01*
X70709578Y-54843185D01*
X70591400Y-54725007D01*
X70557917Y-54663686D01*
X70556144Y-54653513D01*
X70555681Y-54649998D01*
X70535044Y-54493238D01*
X70474536Y-54347159D01*
X70378282Y-54221718D01*
X70252841Y-54125464D01*
X70190158Y-54099500D01*
X70106762Y-54064956D01*
X70106760Y-54064955D01*
X69950001Y-54044318D01*
X69949999Y-54044318D01*
X69793239Y-54064955D01*
X69793237Y-54064956D01*
X69647160Y-54125463D01*
X69521718Y-54221718D01*
X69425463Y-54347160D01*
X69364956Y-54493237D01*
X69364955Y-54493239D01*
X69344318Y-54649998D01*
X69344318Y-54650001D01*
X69364955Y-54806760D01*
X69364956Y-54806762D01*
X69400775Y-54893238D01*
X69425464Y-54952841D01*
X69521718Y-55078282D01*
X69647159Y-55174536D01*
X69793238Y-55235044D01*
X69889377Y-55247700D01*
X69930091Y-55253061D01*
X69993988Y-55281327D01*
X70032459Y-55339652D01*
X70033290Y-55409517D01*
X69996218Y-55468740D01*
X69933012Y-55498519D01*
X69913906Y-55500000D01*
X59851362Y-55500000D01*
X59784323Y-55480315D01*
X59763681Y-55463681D01*
X58836319Y-54536319D01*
X58802834Y-54474996D01*
X58800000Y-54448638D01*
X58800000Y-53449998D01*
X71981818Y-53449998D01*
X71981818Y-53450001D01*
X72002455Y-53606760D01*
X72002456Y-53606762D01*
X72062964Y-53752841D01*
X72159218Y-53878282D01*
X72284659Y-53974536D01*
X72430738Y-54035044D01*
X72501181Y-54044318D01*
X72587499Y-54055682D01*
X72587500Y-54055682D01*
X72587501Y-54055682D01*
X72639754Y-54048802D01*
X72744262Y-54035044D01*
X72890341Y-53974536D01*
X73015782Y-53878282D01*
X73112036Y-53752841D01*
X73172544Y-53606762D01*
X73193182Y-53450000D01*
X73172544Y-53293238D01*
X73112036Y-53147159D01*
X73015782Y-53021718D01*
X72890341Y-52925464D01*
X72744262Y-52864956D01*
X72744260Y-52864955D01*
X72587501Y-52844318D01*
X72587499Y-52844318D01*
X72430739Y-52864955D01*
X72430737Y-52864956D01*
X72284660Y-52925463D01*
X72159218Y-53021718D01*
X72062963Y-53147160D01*
X72002456Y-53293237D01*
X72002455Y-53293239D01*
X71981818Y-53449998D01*
X58800000Y-53449998D01*
X58800000Y-51849998D01*
X65844318Y-51849998D01*
X65844318Y-51850001D01*
X65864955Y-52006760D01*
X65864956Y-52006762D01*
X65890843Y-52069260D01*
X65925464Y-52152841D01*
X66021718Y-52278282D01*
X66147159Y-52374536D01*
X66293238Y-52435044D01*
X66346295Y-52442029D01*
X66449999Y-52455682D01*
X66449999Y-52455681D01*
X66450000Y-52455682D01*
X66553698Y-52442029D01*
X66617337Y-52450408D01*
X66624357Y-52453315D01*
X66624361Y-52453318D01*
X66707147Y-52475500D01*
X66792853Y-52475500D01*
X70057147Y-52475500D01*
X70102854Y-52475500D01*
X70150306Y-52484939D01*
X70165201Y-52491108D01*
X70180738Y-52497544D01*
X70259119Y-52507863D01*
X70337499Y-52518182D01*
X70337500Y-52518182D01*
X70337501Y-52518182D01*
X70389754Y-52511302D01*
X70494262Y-52497544D01*
X70640341Y-52437036D01*
X70765782Y-52340782D01*
X70862036Y-52215341D01*
X70922544Y-52069262D01*
X70943182Y-51912500D01*
X70934953Y-51849998D01*
X70922544Y-51755739D01*
X70922544Y-51755738D01*
X70862036Y-51609659D01*
X70765782Y-51484218D01*
X70640341Y-51387964D01*
X70629781Y-51383590D01*
X70494262Y-51327456D01*
X70494260Y-51327455D01*
X70337501Y-51306818D01*
X70337499Y-51306818D01*
X70180739Y-51327455D01*
X70180737Y-51327456D01*
X70034660Y-51387963D01*
X69909218Y-51484218D01*
X69812963Y-51609660D01*
X69755681Y-51747953D01*
X69711840Y-51802356D01*
X69645546Y-51824421D01*
X69641120Y-51824500D01*
X67161070Y-51824500D01*
X67094031Y-51804815D01*
X67048276Y-51752011D01*
X67038131Y-51716686D01*
X67038112Y-51716543D01*
X67035044Y-51693238D01*
X66974536Y-51547159D01*
X66878282Y-51421718D01*
X66752841Y-51325464D01*
X66606762Y-51264956D01*
X66606760Y-51264955D01*
X66450001Y-51244318D01*
X66449999Y-51244318D01*
X66293239Y-51264955D01*
X66293237Y-51264956D01*
X66147160Y-51325463D01*
X66021718Y-51421718D01*
X65925463Y-51547160D01*
X65864956Y-51693237D01*
X65864955Y-51693239D01*
X65844318Y-51849998D01*
X58800000Y-51849998D01*
X58800000Y-51400000D01*
X58112181Y-50712181D01*
X58078696Y-50650858D01*
X58083680Y-50581166D01*
X58125552Y-50525233D01*
X58191016Y-50500816D01*
X58199862Y-50500500D01*
X88476000Y-50500500D01*
X88543039Y-50520185D01*
G37*
%TD.AperFunction*%
%TD*%
%TA.AperFunction,Conductor*%
%TO.N,+24V*%
G36*
X57658303Y-50520185D02*
G01*
X57678565Y-50536440D01*
X57891416Y-50747472D01*
X57912943Y-50776101D01*
X57931816Y-50810664D01*
X57931820Y-50810670D01*
X57966860Y-50857477D01*
X57966864Y-50857481D01*
X57966871Y-50857491D01*
X57966878Y-50857498D01*
X58558181Y-51448801D01*
X58591666Y-51510124D01*
X58594500Y-51536482D01*
X58594500Y-54448638D01*
X58595678Y-54470618D01*
X58598511Y-54496965D01*
X58598512Y-54496967D01*
X58622470Y-54573478D01*
X58622471Y-54573483D01*
X58636872Y-54599855D01*
X58655956Y-54634805D01*
X58655958Y-54634808D01*
X58655960Y-54634811D01*
X58690998Y-54681615D01*
X58691002Y-54681619D01*
X58691009Y-54681629D01*
X58691016Y-54681636D01*
X59618365Y-55608986D01*
X59618366Y-55608987D01*
X59634716Y-55623674D01*
X59634730Y-55623686D01*
X59634738Y-55623693D01*
X59643136Y-55630460D01*
X59655379Y-55640327D01*
X59726424Y-55677490D01*
X59793456Y-55697173D01*
X59793458Y-55697173D01*
X59793464Y-55697175D01*
X59851362Y-55705500D01*
X59851366Y-55705500D01*
X69913906Y-55705500D01*
X69929788Y-55704885D01*
X69948894Y-55703404D01*
X70020598Y-55684420D01*
X70083804Y-55654641D01*
X70085040Y-55653963D01*
X70085227Y-55653915D01*
X70085464Y-55653795D01*
X70085490Y-55653846D01*
X70085522Y-55653832D01*
X70085525Y-55653839D01*
X70145122Y-55638685D01*
X70368932Y-55639514D01*
X70416920Y-55652474D01*
X70417905Y-55650097D01*
X70425410Y-55653206D01*
X70425412Y-55653206D01*
X70425413Y-55653207D01*
X70527273Y-55680501D01*
X70527275Y-55680501D01*
X70640323Y-55680501D01*
X70640339Y-55680500D01*
X73179138Y-55680500D01*
X73246177Y-55700185D01*
X73266819Y-55716819D01*
X73563428Y-56013428D01*
X73596913Y-56074751D01*
X73599746Y-56101717D01*
X73598102Y-56436870D01*
X73596842Y-56453900D01*
X73594500Y-56470191D01*
X73594500Y-57171596D01*
X73594499Y-57172204D01*
X73591177Y-57850000D01*
X73588132Y-58471108D01*
X73568119Y-58538050D01*
X73515091Y-58583546D01*
X73464133Y-58594500D01*
X69784307Y-58594500D01*
X69773892Y-58594872D01*
X69772528Y-58594921D01*
X69768100Y-58595000D01*
X69631900Y-58595000D01*
X69627472Y-58594921D01*
X69626107Y-58594872D01*
X69615693Y-58594500D01*
X67884307Y-58594500D01*
X67873892Y-58594872D01*
X67872528Y-58594921D01*
X67868100Y-58595000D01*
X67731900Y-58595000D01*
X67727472Y-58594921D01*
X67726107Y-58594872D01*
X67715693Y-58594500D01*
X65934307Y-58594500D01*
X65923892Y-58594872D01*
X65922528Y-58594921D01*
X65918100Y-58595000D01*
X65781900Y-58595000D01*
X65777472Y-58594921D01*
X65776107Y-58594872D01*
X65765693Y-58594500D01*
X63601362Y-58594500D01*
X63601361Y-58594500D01*
X63579381Y-58595678D01*
X63546979Y-58599163D01*
X63546916Y-58598578D01*
X63533117Y-58600000D01*
X63437500Y-58600000D01*
X62913244Y-59146099D01*
X62911473Y-59147906D01*
X62341014Y-59718365D01*
X62341012Y-59718366D01*
X62326325Y-59734716D01*
X62326302Y-59734743D01*
X62309675Y-59755376D01*
X62309669Y-59755386D01*
X62295516Y-59782442D01*
X62275095Y-59810837D01*
X62237501Y-59849998D01*
X62237500Y-59850001D01*
X62237500Y-65520500D01*
X62217815Y-65587539D01*
X62165011Y-65633294D01*
X62113500Y-65644500D01*
X59433362Y-65644500D01*
X59366323Y-65624815D01*
X59345681Y-65608181D01*
X58573819Y-64836319D01*
X58540334Y-64774996D01*
X58537500Y-64748638D01*
X58537500Y-60290000D01*
X58537499Y-60289999D01*
X58092817Y-59849998D01*
X57587500Y-59350000D01*
X57587499Y-59350000D01*
X51551362Y-59350000D01*
X51484323Y-59330315D01*
X51463681Y-59313681D01*
X50536819Y-58386819D01*
X50503334Y-58325496D01*
X50500500Y-58299138D01*
X50500500Y-50996195D01*
X50520185Y-50929156D01*
X50536434Y-50908900D01*
X50904932Y-50537198D01*
X50966110Y-50503449D01*
X50992992Y-50500500D01*
X57591264Y-50500500D01*
X57658303Y-50520185D01*
G37*
%TD.AperFunction*%
%TD*%
M02*
