M48
; DRILL file {KiCad 8.0.5} date 2024-10-13T03:13:25+0200
; FORMAT={-:-/ absolute / metric / decimal}
; #@! TF.CreationDate,2024-10-13T03:13:25+02:00
; #@! TF.GenerationSoftware,Kicad,Pcbnew,8.0.5
; #@! TF.FileFunction,Plated,1,4,PTH
FMAT,2
METRIC
; #@! TA.AperFunction,Plated,PTH,ViaDrill
T1C0.300
; #@! TA.AperFunction,Plated,PTH,ViaDrill
T2C0.400
; #@! TA.AperFunction,Plated,PTH,ComponentDrill
T3C0.800
; #@! TA.AperFunction,Plated,PTH,ComponentDrill
T4C1.000
%
G90
G05
T1
X51.55Y-61.15
X51.55Y-63.7
X52.0Y-64.9
X52.2Y-55.625
X52.2Y-58.25
X52.775Y-62.45
X53.4Y-55.625
X53.4Y-58.25
X53.95Y-61.15
X53.95Y-63.7
X54.6Y-57.05
X55.15Y-61.15
X55.15Y-63.7
X55.8Y-57.05
X56.35Y-62.45
X56.8Y-64.9
X57.0Y-55.625
X57.0Y-58.25
X57.55Y-61.15
X57.55Y-63.7
X58.2Y-55.625
X58.2Y-58.25
X59.8Y-60.05
X59.8Y-62.45
X59.8Y-63.65
X59.8Y-64.85
X60.3Y-53.0
X60.4Y-56.85
X60.4Y-58.55
X61.0Y-61.25
X61.0Y-62.45
X61.05Y-68.5
X61.5Y-51.8
X61.5Y-54.2
X62.0Y-57.65
X62.25Y-68.5
X62.7Y-53.0
X63.9Y-51.8
X63.9Y-54.2
X64.65Y-68.5
X64.7Y-56.15
X65.1Y-53.0
X65.3Y-56.9
X65.85Y-58.3
X65.85Y-68.5
X65.9Y-56.15
X66.3Y-64.25
X66.3Y-65.45
X66.3Y-66.65
X66.5Y-56.9
X66.55Y-61.4
X67.1Y-56.15
X67.15Y-62.6
X67.7Y-56.9
X67.75Y-61.4
X67.75Y-64.25
X67.75Y-65.45
X67.75Y-66.65
X67.8Y-58.3
X68.3Y-56.15
X68.35Y-62.6
X68.9Y-56.9
X68.95Y-61.4
X69.5Y-56.15
X69.55Y-62.6
X69.7Y-58.3
X70.1Y-56.9
X70.125Y-60.725
X70.55Y-68.5
X70.8Y-56.15
X71.35Y-56.9
X71.65Y-57.85
X71.675Y-59.25
X71.675Y-60.15
X71.75Y-68.5
X72.225Y-58.125
X72.775Y-58.125
X73.325Y-58.125
X74.15Y-68.5
X75.35Y-68.5
X75.7Y-51.25
X75.825Y-60.025
X76.188Y-61.95
X76.938Y-60.8
X78.1Y-51.25
X79.65Y-54.8
X80.1Y-66.5
X80.1Y-68.5
X80.325Y-52.65
X81.3Y-66.5
X81.3Y-68.5
X81.775Y-51.25
X81.775Y-54.05
X83.125Y-52.65
X84.55Y-66.5
X84.55Y-68.5
X85.75Y-66.5
X85.75Y-68.5
X85.9Y-51.25
X85.9Y-54.05
X89.55Y-64.925
X90.925Y-64.925
X91.45Y-53.9
X92.075Y-57.25
X92.575Y-51.85
X92.975Y-59.35
X92.975Y-61.75
X93.25Y-68.025
X94.425Y-59.35
X94.425Y-61.75
X96.55Y-59.35
X96.55Y-61.75
X97.4Y-68.025
X97.65Y-51.25
X97.65Y-52.45
X98.0Y-59.35
X98.0Y-61.75
X98.7Y-56.65
T2
X66.45Y-51.85
X69.95Y-54.65
X70.337Y-51.912
X72.587Y-53.45
X72.85Y-62.95
X74.287Y-55.837
X76.737Y-55.05
X77.037Y-65.7
X90.65Y-67.5
T3
X61.317Y-64.44
X63.817Y-64.44
T4
X53.398Y-52.13
X53.398Y-67.37
X55.938Y-52.13
X55.938Y-67.37
X94.037Y-54.67
X94.037Y-64.83
X96.578Y-54.67
X96.578Y-64.83
M30
