%TF.GenerationSoftware,KiCad,Pcbnew,8.0.5*%
%TF.CreationDate,2024-10-12T15:51:15+02:00*%
%TF.ProjectId,DCDC_converter,44434443-5f63-46f6-9e76-65727465722e,rev?*%
%TF.SameCoordinates,Original*%
%TF.FileFunction,Legend,Top*%
%TF.FilePolarity,Positive*%
%FSLAX46Y46*%
G04 Gerber Fmt 4.6, Leading zero omitted, Abs format (unit mm)*
G04 Created by KiCad (PCBNEW 8.0.5) date 2024-10-12 15:51:15*
%MOMM*%
%LPD*%
G01*
G04 APERTURE LIST*
%ADD10C,0.150000*%
%ADD11C,0.120000*%
%ADD12C,0.100000*%
G04 APERTURE END LIST*
D10*
X90307142Y-55459580D02*
X90259523Y-55507200D01*
X90259523Y-55507200D02*
X90116666Y-55554819D01*
X90116666Y-55554819D02*
X90021428Y-55554819D01*
X90021428Y-55554819D02*
X89878571Y-55507200D01*
X89878571Y-55507200D02*
X89783333Y-55411961D01*
X89783333Y-55411961D02*
X89735714Y-55316723D01*
X89735714Y-55316723D02*
X89688095Y-55126247D01*
X89688095Y-55126247D02*
X89688095Y-54983390D01*
X89688095Y-54983390D02*
X89735714Y-54792914D01*
X89735714Y-54792914D02*
X89783333Y-54697676D01*
X89783333Y-54697676D02*
X89878571Y-54602438D01*
X89878571Y-54602438D02*
X90021428Y-54554819D01*
X90021428Y-54554819D02*
X90116666Y-54554819D01*
X90116666Y-54554819D02*
X90259523Y-54602438D01*
X90259523Y-54602438D02*
X90307142Y-54650057D01*
X91259523Y-55554819D02*
X90688095Y-55554819D01*
X90973809Y-55554819D02*
X90973809Y-54554819D01*
X90973809Y-54554819D02*
X90878571Y-54697676D01*
X90878571Y-54697676D02*
X90783333Y-54792914D01*
X90783333Y-54792914D02*
X90688095Y-54840533D01*
X91592857Y-54554819D02*
X92211904Y-54554819D01*
X92211904Y-54554819D02*
X91878571Y-54935771D01*
X91878571Y-54935771D02*
X92021428Y-54935771D01*
X92021428Y-54935771D02*
X92116666Y-54983390D01*
X92116666Y-54983390D02*
X92164285Y-55031009D01*
X92164285Y-55031009D02*
X92211904Y-55126247D01*
X92211904Y-55126247D02*
X92211904Y-55364342D01*
X92211904Y-55364342D02*
X92164285Y-55459580D01*
X92164285Y-55459580D02*
X92116666Y-55507200D01*
X92116666Y-55507200D02*
X92021428Y-55554819D01*
X92021428Y-55554819D02*
X91735714Y-55554819D01*
X91735714Y-55554819D02*
X91640476Y-55507200D01*
X91640476Y-55507200D02*
X91592857Y-55459580D01*
X64494642Y-51729819D02*
X64161309Y-51253628D01*
X63923214Y-51729819D02*
X63923214Y-50729819D01*
X63923214Y-50729819D02*
X64304166Y-50729819D01*
X64304166Y-50729819D02*
X64399404Y-50777438D01*
X64399404Y-50777438D02*
X64447023Y-50825057D01*
X64447023Y-50825057D02*
X64494642Y-50920295D01*
X64494642Y-50920295D02*
X64494642Y-51063152D01*
X64494642Y-51063152D02*
X64447023Y-51158390D01*
X64447023Y-51158390D02*
X64399404Y-51206009D01*
X64399404Y-51206009D02*
X64304166Y-51253628D01*
X64304166Y-51253628D02*
X63923214Y-51253628D01*
X65447023Y-51729819D02*
X64875595Y-51729819D01*
X65161309Y-51729819D02*
X65161309Y-50729819D01*
X65161309Y-50729819D02*
X65066071Y-50872676D01*
X65066071Y-50872676D02*
X64970833Y-50967914D01*
X64970833Y-50967914D02*
X64875595Y-51015533D01*
X66399404Y-51729819D02*
X65827976Y-51729819D01*
X66113690Y-51729819D02*
X66113690Y-50729819D01*
X66113690Y-50729819D02*
X66018452Y-50872676D01*
X66018452Y-50872676D02*
X65923214Y-50967914D01*
X65923214Y-50967914D02*
X65827976Y-51015533D01*
X68570833Y-56609580D02*
X68523214Y-56657200D01*
X68523214Y-56657200D02*
X68380357Y-56704819D01*
X68380357Y-56704819D02*
X68285119Y-56704819D01*
X68285119Y-56704819D02*
X68142262Y-56657200D01*
X68142262Y-56657200D02*
X68047024Y-56561961D01*
X68047024Y-56561961D02*
X67999405Y-56466723D01*
X67999405Y-56466723D02*
X67951786Y-56276247D01*
X67951786Y-56276247D02*
X67951786Y-56133390D01*
X67951786Y-56133390D02*
X67999405Y-55942914D01*
X67999405Y-55942914D02*
X68047024Y-55847676D01*
X68047024Y-55847676D02*
X68142262Y-55752438D01*
X68142262Y-55752438D02*
X68285119Y-55704819D01*
X68285119Y-55704819D02*
X68380357Y-55704819D01*
X68380357Y-55704819D02*
X68523214Y-55752438D01*
X68523214Y-55752438D02*
X68570833Y-55800057D01*
X69427976Y-56038152D02*
X69427976Y-56704819D01*
X69189881Y-55657200D02*
X68951786Y-56371485D01*
X68951786Y-56371485D02*
X69570833Y-56371485D01*
X84762142Y-68839580D02*
X84714523Y-68887200D01*
X84714523Y-68887200D02*
X84571666Y-68934819D01*
X84571666Y-68934819D02*
X84476428Y-68934819D01*
X84476428Y-68934819D02*
X84333571Y-68887200D01*
X84333571Y-68887200D02*
X84238333Y-68791961D01*
X84238333Y-68791961D02*
X84190714Y-68696723D01*
X84190714Y-68696723D02*
X84143095Y-68506247D01*
X84143095Y-68506247D02*
X84143095Y-68363390D01*
X84143095Y-68363390D02*
X84190714Y-68172914D01*
X84190714Y-68172914D02*
X84238333Y-68077676D01*
X84238333Y-68077676D02*
X84333571Y-67982438D01*
X84333571Y-67982438D02*
X84476428Y-67934819D01*
X84476428Y-67934819D02*
X84571666Y-67934819D01*
X84571666Y-67934819D02*
X84714523Y-67982438D01*
X84714523Y-67982438D02*
X84762142Y-68030057D01*
X85714523Y-68934819D02*
X85143095Y-68934819D01*
X85428809Y-68934819D02*
X85428809Y-67934819D01*
X85428809Y-67934819D02*
X85333571Y-68077676D01*
X85333571Y-68077676D02*
X85238333Y-68172914D01*
X85238333Y-68172914D02*
X85143095Y-68220533D01*
X86666904Y-68934819D02*
X86095476Y-68934819D01*
X86381190Y-68934819D02*
X86381190Y-67934819D01*
X86381190Y-67934819D02*
X86285952Y-68077676D01*
X86285952Y-68077676D02*
X86190714Y-68172914D01*
X86190714Y-68172914D02*
X86095476Y-68220533D01*
X85020833Y-53204819D02*
X84687500Y-52728628D01*
X84449405Y-53204819D02*
X84449405Y-52204819D01*
X84449405Y-52204819D02*
X84830357Y-52204819D01*
X84830357Y-52204819D02*
X84925595Y-52252438D01*
X84925595Y-52252438D02*
X84973214Y-52300057D01*
X84973214Y-52300057D02*
X85020833Y-52395295D01*
X85020833Y-52395295D02*
X85020833Y-52538152D01*
X85020833Y-52538152D02*
X84973214Y-52633390D01*
X84973214Y-52633390D02*
X84925595Y-52681009D01*
X84925595Y-52681009D02*
X84830357Y-52728628D01*
X84830357Y-52728628D02*
X84449405Y-52728628D01*
X85592262Y-52633390D02*
X85497024Y-52585771D01*
X85497024Y-52585771D02*
X85449405Y-52538152D01*
X85449405Y-52538152D02*
X85401786Y-52442914D01*
X85401786Y-52442914D02*
X85401786Y-52395295D01*
X85401786Y-52395295D02*
X85449405Y-52300057D01*
X85449405Y-52300057D02*
X85497024Y-52252438D01*
X85497024Y-52252438D02*
X85592262Y-52204819D01*
X85592262Y-52204819D02*
X85782738Y-52204819D01*
X85782738Y-52204819D02*
X85877976Y-52252438D01*
X85877976Y-52252438D02*
X85925595Y-52300057D01*
X85925595Y-52300057D02*
X85973214Y-52395295D01*
X85973214Y-52395295D02*
X85973214Y-52442914D01*
X85973214Y-52442914D02*
X85925595Y-52538152D01*
X85925595Y-52538152D02*
X85877976Y-52585771D01*
X85877976Y-52585771D02*
X85782738Y-52633390D01*
X85782738Y-52633390D02*
X85592262Y-52633390D01*
X85592262Y-52633390D02*
X85497024Y-52681009D01*
X85497024Y-52681009D02*
X85449405Y-52728628D01*
X85449405Y-52728628D02*
X85401786Y-52823866D01*
X85401786Y-52823866D02*
X85401786Y-53014342D01*
X85401786Y-53014342D02*
X85449405Y-53109580D01*
X85449405Y-53109580D02*
X85497024Y-53157200D01*
X85497024Y-53157200D02*
X85592262Y-53204819D01*
X85592262Y-53204819D02*
X85782738Y-53204819D01*
X85782738Y-53204819D02*
X85877976Y-53157200D01*
X85877976Y-53157200D02*
X85925595Y-53109580D01*
X85925595Y-53109580D02*
X85973214Y-53014342D01*
X85973214Y-53014342D02*
X85973214Y-52823866D01*
X85973214Y-52823866D02*
X85925595Y-52728628D01*
X85925595Y-52728628D02*
X85877976Y-52681009D01*
X85877976Y-52681009D02*
X85782738Y-52633390D01*
X81120833Y-53204819D02*
X80787500Y-52728628D01*
X80549405Y-53204819D02*
X80549405Y-52204819D01*
X80549405Y-52204819D02*
X80930357Y-52204819D01*
X80930357Y-52204819D02*
X81025595Y-52252438D01*
X81025595Y-52252438D02*
X81073214Y-52300057D01*
X81073214Y-52300057D02*
X81120833Y-52395295D01*
X81120833Y-52395295D02*
X81120833Y-52538152D01*
X81120833Y-52538152D02*
X81073214Y-52633390D01*
X81073214Y-52633390D02*
X81025595Y-52681009D01*
X81025595Y-52681009D02*
X80930357Y-52728628D01*
X80930357Y-52728628D02*
X80549405Y-52728628D01*
X81977976Y-52538152D02*
X81977976Y-53204819D01*
X81739881Y-52157200D02*
X81501786Y-52871485D01*
X81501786Y-52871485D02*
X82120833Y-52871485D01*
X65305833Y-53419580D02*
X65258214Y-53467200D01*
X65258214Y-53467200D02*
X65115357Y-53514819D01*
X65115357Y-53514819D02*
X65020119Y-53514819D01*
X65020119Y-53514819D02*
X64877262Y-53467200D01*
X64877262Y-53467200D02*
X64782024Y-53371961D01*
X64782024Y-53371961D02*
X64734405Y-53276723D01*
X64734405Y-53276723D02*
X64686786Y-53086247D01*
X64686786Y-53086247D02*
X64686786Y-52943390D01*
X64686786Y-52943390D02*
X64734405Y-52752914D01*
X64734405Y-52752914D02*
X64782024Y-52657676D01*
X64782024Y-52657676D02*
X64877262Y-52562438D01*
X64877262Y-52562438D02*
X65020119Y-52514819D01*
X65020119Y-52514819D02*
X65115357Y-52514819D01*
X65115357Y-52514819D02*
X65258214Y-52562438D01*
X65258214Y-52562438D02*
X65305833Y-52610057D01*
X66162976Y-52514819D02*
X65972500Y-52514819D01*
X65972500Y-52514819D02*
X65877262Y-52562438D01*
X65877262Y-52562438D02*
X65829643Y-52610057D01*
X65829643Y-52610057D02*
X65734405Y-52752914D01*
X65734405Y-52752914D02*
X65686786Y-52943390D01*
X65686786Y-52943390D02*
X65686786Y-53324342D01*
X65686786Y-53324342D02*
X65734405Y-53419580D01*
X65734405Y-53419580D02*
X65782024Y-53467200D01*
X65782024Y-53467200D02*
X65877262Y-53514819D01*
X65877262Y-53514819D02*
X66067738Y-53514819D01*
X66067738Y-53514819D02*
X66162976Y-53467200D01*
X66162976Y-53467200D02*
X66210595Y-53419580D01*
X66210595Y-53419580D02*
X66258214Y-53324342D01*
X66258214Y-53324342D02*
X66258214Y-53086247D01*
X66258214Y-53086247D02*
X66210595Y-52991009D01*
X66210595Y-52991009D02*
X66162976Y-52943390D01*
X66162976Y-52943390D02*
X66067738Y-52895771D01*
X66067738Y-52895771D02*
X65877262Y-52895771D01*
X65877262Y-52895771D02*
X65782024Y-52943390D01*
X65782024Y-52943390D02*
X65734405Y-52991009D01*
X65734405Y-52991009D02*
X65686786Y-53086247D01*
X69205833Y-65089819D02*
X68872500Y-64613628D01*
X68634405Y-65089819D02*
X68634405Y-64089819D01*
X68634405Y-64089819D02*
X69015357Y-64089819D01*
X69015357Y-64089819D02*
X69110595Y-64137438D01*
X69110595Y-64137438D02*
X69158214Y-64185057D01*
X69158214Y-64185057D02*
X69205833Y-64280295D01*
X69205833Y-64280295D02*
X69205833Y-64423152D01*
X69205833Y-64423152D02*
X69158214Y-64518390D01*
X69158214Y-64518390D02*
X69110595Y-64566009D01*
X69110595Y-64566009D02*
X69015357Y-64613628D01*
X69015357Y-64613628D02*
X68634405Y-64613628D01*
X69586786Y-64185057D02*
X69634405Y-64137438D01*
X69634405Y-64137438D02*
X69729643Y-64089819D01*
X69729643Y-64089819D02*
X69967738Y-64089819D01*
X69967738Y-64089819D02*
X70062976Y-64137438D01*
X70062976Y-64137438D02*
X70110595Y-64185057D01*
X70110595Y-64185057D02*
X70158214Y-64280295D01*
X70158214Y-64280295D02*
X70158214Y-64375533D01*
X70158214Y-64375533D02*
X70110595Y-64518390D01*
X70110595Y-64518390D02*
X69539167Y-65089819D01*
X69539167Y-65089819D02*
X70158214Y-65089819D01*
X65405833Y-55114819D02*
X65072500Y-54638628D01*
X64834405Y-55114819D02*
X64834405Y-54114819D01*
X64834405Y-54114819D02*
X65215357Y-54114819D01*
X65215357Y-54114819D02*
X65310595Y-54162438D01*
X65310595Y-54162438D02*
X65358214Y-54210057D01*
X65358214Y-54210057D02*
X65405833Y-54305295D01*
X65405833Y-54305295D02*
X65405833Y-54448152D01*
X65405833Y-54448152D02*
X65358214Y-54543390D01*
X65358214Y-54543390D02*
X65310595Y-54591009D01*
X65310595Y-54591009D02*
X65215357Y-54638628D01*
X65215357Y-54638628D02*
X64834405Y-54638628D01*
X66358214Y-55114819D02*
X65786786Y-55114819D01*
X66072500Y-55114819D02*
X66072500Y-54114819D01*
X66072500Y-54114819D02*
X65977262Y-54257676D01*
X65977262Y-54257676D02*
X65882024Y-54352914D01*
X65882024Y-54352914D02*
X65786786Y-54400533D01*
X94829166Y-67004819D02*
X94829166Y-67719104D01*
X94829166Y-67719104D02*
X94781547Y-67861961D01*
X94781547Y-67861961D02*
X94686309Y-67957200D01*
X94686309Y-67957200D02*
X94543452Y-68004819D01*
X94543452Y-68004819D02*
X94448214Y-68004819D01*
X95733928Y-67338152D02*
X95733928Y-68004819D01*
X95495833Y-66957200D02*
X95257738Y-67671485D01*
X95257738Y-67671485D02*
X95876785Y-67671485D01*
X94879166Y-51524819D02*
X94879166Y-52239104D01*
X94879166Y-52239104D02*
X94831547Y-52381961D01*
X94831547Y-52381961D02*
X94736309Y-52477200D01*
X94736309Y-52477200D02*
X94593452Y-52524819D01*
X94593452Y-52524819D02*
X94498214Y-52524819D01*
X95260119Y-51524819D02*
X95879166Y-51524819D01*
X95879166Y-51524819D02*
X95545833Y-51905771D01*
X95545833Y-51905771D02*
X95688690Y-51905771D01*
X95688690Y-51905771D02*
X95783928Y-51953390D01*
X95783928Y-51953390D02*
X95831547Y-52001009D01*
X95831547Y-52001009D02*
X95879166Y-52096247D01*
X95879166Y-52096247D02*
X95879166Y-52334342D01*
X95879166Y-52334342D02*
X95831547Y-52429580D01*
X95831547Y-52429580D02*
X95783928Y-52477200D01*
X95783928Y-52477200D02*
X95688690Y-52524819D01*
X95688690Y-52524819D02*
X95402976Y-52524819D01*
X95402976Y-52524819D02*
X95307738Y-52477200D01*
X95307738Y-52477200D02*
X95260119Y-52429580D01*
X83970833Y-55204819D02*
X83494643Y-55204819D01*
X83494643Y-55204819D02*
X83494643Y-54204819D01*
X84827976Y-55204819D02*
X84256548Y-55204819D01*
X84542262Y-55204819D02*
X84542262Y-54204819D01*
X84542262Y-54204819D02*
X84447024Y-54347676D01*
X84447024Y-54347676D02*
X84351786Y-54442914D01*
X84351786Y-54442914D02*
X84256548Y-54490533D01*
X78394642Y-63569819D02*
X78061309Y-63093628D01*
X77823214Y-63569819D02*
X77823214Y-62569819D01*
X77823214Y-62569819D02*
X78204166Y-62569819D01*
X78204166Y-62569819D02*
X78299404Y-62617438D01*
X78299404Y-62617438D02*
X78347023Y-62665057D01*
X78347023Y-62665057D02*
X78394642Y-62760295D01*
X78394642Y-62760295D02*
X78394642Y-62903152D01*
X78394642Y-62903152D02*
X78347023Y-62998390D01*
X78347023Y-62998390D02*
X78299404Y-63046009D01*
X78299404Y-63046009D02*
X78204166Y-63093628D01*
X78204166Y-63093628D02*
X77823214Y-63093628D01*
X79347023Y-63569819D02*
X78775595Y-63569819D01*
X79061309Y-63569819D02*
X79061309Y-62569819D01*
X79061309Y-62569819D02*
X78966071Y-62712676D01*
X78966071Y-62712676D02*
X78870833Y-62807914D01*
X78870833Y-62807914D02*
X78775595Y-62855533D01*
X79966071Y-62569819D02*
X80061309Y-62569819D01*
X80061309Y-62569819D02*
X80156547Y-62617438D01*
X80156547Y-62617438D02*
X80204166Y-62665057D01*
X80204166Y-62665057D02*
X80251785Y-62760295D01*
X80251785Y-62760295D02*
X80299404Y-62950771D01*
X80299404Y-62950771D02*
X80299404Y-63188866D01*
X80299404Y-63188866D02*
X80251785Y-63379342D01*
X80251785Y-63379342D02*
X80204166Y-63474580D01*
X80204166Y-63474580D02*
X80156547Y-63522200D01*
X80156547Y-63522200D02*
X80061309Y-63569819D01*
X80061309Y-63569819D02*
X79966071Y-63569819D01*
X79966071Y-63569819D02*
X79870833Y-63522200D01*
X79870833Y-63522200D02*
X79823214Y-63474580D01*
X79823214Y-63474580D02*
X79775595Y-63379342D01*
X79775595Y-63379342D02*
X79727976Y-63188866D01*
X79727976Y-63188866D02*
X79727976Y-62950771D01*
X79727976Y-62950771D02*
X79775595Y-62760295D01*
X79775595Y-62760295D02*
X79823214Y-62665057D01*
X79823214Y-62665057D02*
X79870833Y-62617438D01*
X79870833Y-62617438D02*
X79966071Y-62569819D01*
X65533333Y-67959580D02*
X65485714Y-68007200D01*
X65485714Y-68007200D02*
X65342857Y-68054819D01*
X65342857Y-68054819D02*
X65247619Y-68054819D01*
X65247619Y-68054819D02*
X65104762Y-68007200D01*
X65104762Y-68007200D02*
X65009524Y-67911961D01*
X65009524Y-67911961D02*
X64961905Y-67816723D01*
X64961905Y-67816723D02*
X64914286Y-67626247D01*
X64914286Y-67626247D02*
X64914286Y-67483390D01*
X64914286Y-67483390D02*
X64961905Y-67292914D01*
X64961905Y-67292914D02*
X65009524Y-67197676D01*
X65009524Y-67197676D02*
X65104762Y-67102438D01*
X65104762Y-67102438D02*
X65247619Y-67054819D01*
X65247619Y-67054819D02*
X65342857Y-67054819D01*
X65342857Y-67054819D02*
X65485714Y-67102438D01*
X65485714Y-67102438D02*
X65533333Y-67150057D01*
X66485714Y-68054819D02*
X65914286Y-68054819D01*
X66200000Y-68054819D02*
X66200000Y-67054819D01*
X66200000Y-67054819D02*
X66104762Y-67197676D01*
X66104762Y-67197676D02*
X66009524Y-67292914D01*
X66009524Y-67292914D02*
X65914286Y-67340533D01*
X73499405Y-51729819D02*
X73499405Y-50729819D01*
X73499405Y-50729819D02*
X73737500Y-50729819D01*
X73737500Y-50729819D02*
X73880357Y-50777438D01*
X73880357Y-50777438D02*
X73975595Y-50872676D01*
X73975595Y-50872676D02*
X74023214Y-50967914D01*
X74023214Y-50967914D02*
X74070833Y-51158390D01*
X74070833Y-51158390D02*
X74070833Y-51301247D01*
X74070833Y-51301247D02*
X74023214Y-51491723D01*
X74023214Y-51491723D02*
X73975595Y-51586961D01*
X73975595Y-51586961D02*
X73880357Y-51682200D01*
X73880357Y-51682200D02*
X73737500Y-51729819D01*
X73737500Y-51729819D02*
X73499405Y-51729819D01*
X75023214Y-51729819D02*
X74451786Y-51729819D01*
X74737500Y-51729819D02*
X74737500Y-50729819D01*
X74737500Y-50729819D02*
X74642262Y-50872676D01*
X74642262Y-50872676D02*
X74547024Y-50967914D01*
X74547024Y-50967914D02*
X74451786Y-51015533D01*
X80805833Y-56894580D02*
X80758214Y-56942200D01*
X80758214Y-56942200D02*
X80615357Y-56989819D01*
X80615357Y-56989819D02*
X80520119Y-56989819D01*
X80520119Y-56989819D02*
X80377262Y-56942200D01*
X80377262Y-56942200D02*
X80282024Y-56846961D01*
X80282024Y-56846961D02*
X80234405Y-56751723D01*
X80234405Y-56751723D02*
X80186786Y-56561247D01*
X80186786Y-56561247D02*
X80186786Y-56418390D01*
X80186786Y-56418390D02*
X80234405Y-56227914D01*
X80234405Y-56227914D02*
X80282024Y-56132676D01*
X80282024Y-56132676D02*
X80377262Y-56037438D01*
X80377262Y-56037438D02*
X80520119Y-55989819D01*
X80520119Y-55989819D02*
X80615357Y-55989819D01*
X80615357Y-55989819D02*
X80758214Y-56037438D01*
X80758214Y-56037438D02*
X80805833Y-56085057D01*
X81377262Y-56418390D02*
X81282024Y-56370771D01*
X81282024Y-56370771D02*
X81234405Y-56323152D01*
X81234405Y-56323152D02*
X81186786Y-56227914D01*
X81186786Y-56227914D02*
X81186786Y-56180295D01*
X81186786Y-56180295D02*
X81234405Y-56085057D01*
X81234405Y-56085057D02*
X81282024Y-56037438D01*
X81282024Y-56037438D02*
X81377262Y-55989819D01*
X81377262Y-55989819D02*
X81567738Y-55989819D01*
X81567738Y-55989819D02*
X81662976Y-56037438D01*
X81662976Y-56037438D02*
X81710595Y-56085057D01*
X81710595Y-56085057D02*
X81758214Y-56180295D01*
X81758214Y-56180295D02*
X81758214Y-56227914D01*
X81758214Y-56227914D02*
X81710595Y-56323152D01*
X81710595Y-56323152D02*
X81662976Y-56370771D01*
X81662976Y-56370771D02*
X81567738Y-56418390D01*
X81567738Y-56418390D02*
X81377262Y-56418390D01*
X81377262Y-56418390D02*
X81282024Y-56466009D01*
X81282024Y-56466009D02*
X81234405Y-56513628D01*
X81234405Y-56513628D02*
X81186786Y-56608866D01*
X81186786Y-56608866D02*
X81186786Y-56799342D01*
X81186786Y-56799342D02*
X81234405Y-56894580D01*
X81234405Y-56894580D02*
X81282024Y-56942200D01*
X81282024Y-56942200D02*
X81377262Y-56989819D01*
X81377262Y-56989819D02*
X81567738Y-56989819D01*
X81567738Y-56989819D02*
X81662976Y-56942200D01*
X81662976Y-56942200D02*
X81710595Y-56894580D01*
X81710595Y-56894580D02*
X81758214Y-56799342D01*
X81758214Y-56799342D02*
X81758214Y-56608866D01*
X81758214Y-56608866D02*
X81710595Y-56513628D01*
X81710595Y-56513628D02*
X81662976Y-56466009D01*
X81662976Y-56466009D02*
X81567738Y-56418390D01*
X54466666Y-64254819D02*
X54466666Y-64969104D01*
X54466666Y-64969104D02*
X54419047Y-65111961D01*
X54419047Y-65111961D02*
X54323809Y-65207200D01*
X54323809Y-65207200D02*
X54180952Y-65254819D01*
X54180952Y-65254819D02*
X54085714Y-65254819D01*
X54895238Y-64350057D02*
X54942857Y-64302438D01*
X54942857Y-64302438D02*
X55038095Y-64254819D01*
X55038095Y-64254819D02*
X55276190Y-64254819D01*
X55276190Y-64254819D02*
X55371428Y-64302438D01*
X55371428Y-64302438D02*
X55419047Y-64350057D01*
X55419047Y-64350057D02*
X55466666Y-64445295D01*
X55466666Y-64445295D02*
X55466666Y-64540533D01*
X55466666Y-64540533D02*
X55419047Y-64683390D01*
X55419047Y-64683390D02*
X54847619Y-65254819D01*
X54847619Y-65254819D02*
X55466666Y-65254819D01*
X69205833Y-66689819D02*
X68872500Y-66213628D01*
X68634405Y-66689819D02*
X68634405Y-65689819D01*
X68634405Y-65689819D02*
X69015357Y-65689819D01*
X69015357Y-65689819D02*
X69110595Y-65737438D01*
X69110595Y-65737438D02*
X69158214Y-65785057D01*
X69158214Y-65785057D02*
X69205833Y-65880295D01*
X69205833Y-65880295D02*
X69205833Y-66023152D01*
X69205833Y-66023152D02*
X69158214Y-66118390D01*
X69158214Y-66118390D02*
X69110595Y-66166009D01*
X69110595Y-66166009D02*
X69015357Y-66213628D01*
X69015357Y-66213628D02*
X68634405Y-66213628D01*
X69539167Y-65689819D02*
X70158214Y-65689819D01*
X70158214Y-65689819D02*
X69824881Y-66070771D01*
X69824881Y-66070771D02*
X69967738Y-66070771D01*
X69967738Y-66070771D02*
X70062976Y-66118390D01*
X70062976Y-66118390D02*
X70110595Y-66166009D01*
X70110595Y-66166009D02*
X70158214Y-66261247D01*
X70158214Y-66261247D02*
X70158214Y-66499342D01*
X70158214Y-66499342D02*
X70110595Y-66594580D01*
X70110595Y-66594580D02*
X70062976Y-66642200D01*
X70062976Y-66642200D02*
X69967738Y-66689819D01*
X69967738Y-66689819D02*
X69682024Y-66689819D01*
X69682024Y-66689819D02*
X69586786Y-66642200D01*
X69586786Y-66642200D02*
X69539167Y-66594580D01*
X78405833Y-62089819D02*
X78072500Y-61613628D01*
X77834405Y-62089819D02*
X77834405Y-61089819D01*
X77834405Y-61089819D02*
X78215357Y-61089819D01*
X78215357Y-61089819D02*
X78310595Y-61137438D01*
X78310595Y-61137438D02*
X78358214Y-61185057D01*
X78358214Y-61185057D02*
X78405833Y-61280295D01*
X78405833Y-61280295D02*
X78405833Y-61423152D01*
X78405833Y-61423152D02*
X78358214Y-61518390D01*
X78358214Y-61518390D02*
X78310595Y-61566009D01*
X78310595Y-61566009D02*
X78215357Y-61613628D01*
X78215357Y-61613628D02*
X77834405Y-61613628D01*
X78739167Y-61089819D02*
X79405833Y-61089819D01*
X79405833Y-61089819D02*
X78977262Y-62089819D01*
X79120833Y-53204819D02*
X78787500Y-52728628D01*
X78549405Y-53204819D02*
X78549405Y-52204819D01*
X78549405Y-52204819D02*
X78930357Y-52204819D01*
X78930357Y-52204819D02*
X79025595Y-52252438D01*
X79025595Y-52252438D02*
X79073214Y-52300057D01*
X79073214Y-52300057D02*
X79120833Y-52395295D01*
X79120833Y-52395295D02*
X79120833Y-52538152D01*
X79120833Y-52538152D02*
X79073214Y-52633390D01*
X79073214Y-52633390D02*
X79025595Y-52681009D01*
X79025595Y-52681009D02*
X78930357Y-52728628D01*
X78930357Y-52728628D02*
X78549405Y-52728628D01*
X79977976Y-52204819D02*
X79787500Y-52204819D01*
X79787500Y-52204819D02*
X79692262Y-52252438D01*
X79692262Y-52252438D02*
X79644643Y-52300057D01*
X79644643Y-52300057D02*
X79549405Y-52442914D01*
X79549405Y-52442914D02*
X79501786Y-52633390D01*
X79501786Y-52633390D02*
X79501786Y-53014342D01*
X79501786Y-53014342D02*
X79549405Y-53109580D01*
X79549405Y-53109580D02*
X79597024Y-53157200D01*
X79597024Y-53157200D02*
X79692262Y-53204819D01*
X79692262Y-53204819D02*
X79882738Y-53204819D01*
X79882738Y-53204819D02*
X79977976Y-53157200D01*
X79977976Y-53157200D02*
X80025595Y-53109580D01*
X80025595Y-53109580D02*
X80073214Y-53014342D01*
X80073214Y-53014342D02*
X80073214Y-52776247D01*
X80073214Y-52776247D02*
X80025595Y-52681009D01*
X80025595Y-52681009D02*
X79977976Y-52633390D01*
X79977976Y-52633390D02*
X79882738Y-52585771D01*
X79882738Y-52585771D02*
X79692262Y-52585771D01*
X79692262Y-52585771D02*
X79597024Y-52633390D01*
X79597024Y-52633390D02*
X79549405Y-52681009D01*
X79549405Y-52681009D02*
X79501786Y-52776247D01*
X78420833Y-65009580D02*
X78373214Y-65057200D01*
X78373214Y-65057200D02*
X78230357Y-65104819D01*
X78230357Y-65104819D02*
X78135119Y-65104819D01*
X78135119Y-65104819D02*
X77992262Y-65057200D01*
X77992262Y-65057200D02*
X77897024Y-64961961D01*
X77897024Y-64961961D02*
X77849405Y-64866723D01*
X77849405Y-64866723D02*
X77801786Y-64676247D01*
X77801786Y-64676247D02*
X77801786Y-64533390D01*
X77801786Y-64533390D02*
X77849405Y-64342914D01*
X77849405Y-64342914D02*
X77897024Y-64247676D01*
X77897024Y-64247676D02*
X77992262Y-64152438D01*
X77992262Y-64152438D02*
X78135119Y-64104819D01*
X78135119Y-64104819D02*
X78230357Y-64104819D01*
X78230357Y-64104819D02*
X78373214Y-64152438D01*
X78373214Y-64152438D02*
X78420833Y-64200057D01*
X78897024Y-65104819D02*
X79087500Y-65104819D01*
X79087500Y-65104819D02*
X79182738Y-65057200D01*
X79182738Y-65057200D02*
X79230357Y-65009580D01*
X79230357Y-65009580D02*
X79325595Y-64866723D01*
X79325595Y-64866723D02*
X79373214Y-64676247D01*
X79373214Y-64676247D02*
X79373214Y-64295295D01*
X79373214Y-64295295D02*
X79325595Y-64200057D01*
X79325595Y-64200057D02*
X79277976Y-64152438D01*
X79277976Y-64152438D02*
X79182738Y-64104819D01*
X79182738Y-64104819D02*
X78992262Y-64104819D01*
X78992262Y-64104819D02*
X78897024Y-64152438D01*
X78897024Y-64152438D02*
X78849405Y-64200057D01*
X78849405Y-64200057D02*
X78801786Y-64295295D01*
X78801786Y-64295295D02*
X78801786Y-64533390D01*
X78801786Y-64533390D02*
X78849405Y-64628628D01*
X78849405Y-64628628D02*
X78897024Y-64676247D01*
X78897024Y-64676247D02*
X78992262Y-64723866D01*
X78992262Y-64723866D02*
X79182738Y-64723866D01*
X79182738Y-64723866D02*
X79277976Y-64676247D01*
X79277976Y-64676247D02*
X79325595Y-64628628D01*
X79325595Y-64628628D02*
X79373214Y-64533390D01*
X66570833Y-56609580D02*
X66523214Y-56657200D01*
X66523214Y-56657200D02*
X66380357Y-56704819D01*
X66380357Y-56704819D02*
X66285119Y-56704819D01*
X66285119Y-56704819D02*
X66142262Y-56657200D01*
X66142262Y-56657200D02*
X66047024Y-56561961D01*
X66047024Y-56561961D02*
X65999405Y-56466723D01*
X65999405Y-56466723D02*
X65951786Y-56276247D01*
X65951786Y-56276247D02*
X65951786Y-56133390D01*
X65951786Y-56133390D02*
X65999405Y-55942914D01*
X65999405Y-55942914D02*
X66047024Y-55847676D01*
X66047024Y-55847676D02*
X66142262Y-55752438D01*
X66142262Y-55752438D02*
X66285119Y-55704819D01*
X66285119Y-55704819D02*
X66380357Y-55704819D01*
X66380357Y-55704819D02*
X66523214Y-55752438D01*
X66523214Y-55752438D02*
X66570833Y-55800057D01*
X66904167Y-55704819D02*
X67523214Y-55704819D01*
X67523214Y-55704819D02*
X67189881Y-56085771D01*
X67189881Y-56085771D02*
X67332738Y-56085771D01*
X67332738Y-56085771D02*
X67427976Y-56133390D01*
X67427976Y-56133390D02*
X67475595Y-56181009D01*
X67475595Y-56181009D02*
X67523214Y-56276247D01*
X67523214Y-56276247D02*
X67523214Y-56514342D01*
X67523214Y-56514342D02*
X67475595Y-56609580D01*
X67475595Y-56609580D02*
X67427976Y-56657200D01*
X67427976Y-56657200D02*
X67332738Y-56704819D01*
X67332738Y-56704819D02*
X67047024Y-56704819D01*
X67047024Y-56704819D02*
X66951786Y-56657200D01*
X66951786Y-56657200D02*
X66904167Y-56609580D01*
X54416666Y-54154819D02*
X54416666Y-54869104D01*
X54416666Y-54869104D02*
X54369047Y-55011961D01*
X54369047Y-55011961D02*
X54273809Y-55107200D01*
X54273809Y-55107200D02*
X54130952Y-55154819D01*
X54130952Y-55154819D02*
X54035714Y-55154819D01*
X55416666Y-55154819D02*
X54845238Y-55154819D01*
X55130952Y-55154819D02*
X55130952Y-54154819D01*
X55130952Y-54154819D02*
X55035714Y-54297676D01*
X55035714Y-54297676D02*
X54940476Y-54392914D01*
X54940476Y-54392914D02*
X54845238Y-54440533D01*
X84762142Y-66839580D02*
X84714523Y-66887200D01*
X84714523Y-66887200D02*
X84571666Y-66934819D01*
X84571666Y-66934819D02*
X84476428Y-66934819D01*
X84476428Y-66934819D02*
X84333571Y-66887200D01*
X84333571Y-66887200D02*
X84238333Y-66791961D01*
X84238333Y-66791961D02*
X84190714Y-66696723D01*
X84190714Y-66696723D02*
X84143095Y-66506247D01*
X84143095Y-66506247D02*
X84143095Y-66363390D01*
X84143095Y-66363390D02*
X84190714Y-66172914D01*
X84190714Y-66172914D02*
X84238333Y-66077676D01*
X84238333Y-66077676D02*
X84333571Y-65982438D01*
X84333571Y-65982438D02*
X84476428Y-65934819D01*
X84476428Y-65934819D02*
X84571666Y-65934819D01*
X84571666Y-65934819D02*
X84714523Y-65982438D01*
X84714523Y-65982438D02*
X84762142Y-66030057D01*
X85714523Y-66934819D02*
X85143095Y-66934819D01*
X85428809Y-66934819D02*
X85428809Y-65934819D01*
X85428809Y-65934819D02*
X85333571Y-66077676D01*
X85333571Y-66077676D02*
X85238333Y-66172914D01*
X85238333Y-66172914D02*
X85143095Y-66220533D01*
X86333571Y-65934819D02*
X86428809Y-65934819D01*
X86428809Y-65934819D02*
X86524047Y-65982438D01*
X86524047Y-65982438D02*
X86571666Y-66030057D01*
X86571666Y-66030057D02*
X86619285Y-66125295D01*
X86619285Y-66125295D02*
X86666904Y-66315771D01*
X86666904Y-66315771D02*
X86666904Y-66553866D01*
X86666904Y-66553866D02*
X86619285Y-66744342D01*
X86619285Y-66744342D02*
X86571666Y-66839580D01*
X86571666Y-66839580D02*
X86524047Y-66887200D01*
X86524047Y-66887200D02*
X86428809Y-66934819D01*
X86428809Y-66934819D02*
X86333571Y-66934819D01*
X86333571Y-66934819D02*
X86238333Y-66887200D01*
X86238333Y-66887200D02*
X86190714Y-66839580D01*
X86190714Y-66839580D02*
X86143095Y-66744342D01*
X86143095Y-66744342D02*
X86095476Y-66553866D01*
X86095476Y-66553866D02*
X86095476Y-66315771D01*
X86095476Y-66315771D02*
X86143095Y-66125295D01*
X86143095Y-66125295D02*
X86190714Y-66030057D01*
X86190714Y-66030057D02*
X86238333Y-65982438D01*
X86238333Y-65982438D02*
X86333571Y-65934819D01*
X91357142Y-52039580D02*
X91309523Y-52087200D01*
X91309523Y-52087200D02*
X91166666Y-52134819D01*
X91166666Y-52134819D02*
X91071428Y-52134819D01*
X91071428Y-52134819D02*
X90928571Y-52087200D01*
X90928571Y-52087200D02*
X90833333Y-51991961D01*
X90833333Y-51991961D02*
X90785714Y-51896723D01*
X90785714Y-51896723D02*
X90738095Y-51706247D01*
X90738095Y-51706247D02*
X90738095Y-51563390D01*
X90738095Y-51563390D02*
X90785714Y-51372914D01*
X90785714Y-51372914D02*
X90833333Y-51277676D01*
X90833333Y-51277676D02*
X90928571Y-51182438D01*
X90928571Y-51182438D02*
X91071428Y-51134819D01*
X91071428Y-51134819D02*
X91166666Y-51134819D01*
X91166666Y-51134819D02*
X91309523Y-51182438D01*
X91309523Y-51182438D02*
X91357142Y-51230057D01*
X92309523Y-52134819D02*
X91738095Y-52134819D01*
X92023809Y-52134819D02*
X92023809Y-51134819D01*
X92023809Y-51134819D02*
X91928571Y-51277676D01*
X91928571Y-51277676D02*
X91833333Y-51372914D01*
X91833333Y-51372914D02*
X91738095Y-51420533D01*
X92690476Y-51230057D02*
X92738095Y-51182438D01*
X92738095Y-51182438D02*
X92833333Y-51134819D01*
X92833333Y-51134819D02*
X93071428Y-51134819D01*
X93071428Y-51134819D02*
X93166666Y-51182438D01*
X93166666Y-51182438D02*
X93214285Y-51230057D01*
X93214285Y-51230057D02*
X93261904Y-51325295D01*
X93261904Y-51325295D02*
X93261904Y-51420533D01*
X93261904Y-51420533D02*
X93214285Y-51563390D01*
X93214285Y-51563390D02*
X92642857Y-52134819D01*
X92642857Y-52134819D02*
X93261904Y-52134819D01*
X70570833Y-56609580D02*
X70523214Y-56657200D01*
X70523214Y-56657200D02*
X70380357Y-56704819D01*
X70380357Y-56704819D02*
X70285119Y-56704819D01*
X70285119Y-56704819D02*
X70142262Y-56657200D01*
X70142262Y-56657200D02*
X70047024Y-56561961D01*
X70047024Y-56561961D02*
X69999405Y-56466723D01*
X69999405Y-56466723D02*
X69951786Y-56276247D01*
X69951786Y-56276247D02*
X69951786Y-56133390D01*
X69951786Y-56133390D02*
X69999405Y-55942914D01*
X69999405Y-55942914D02*
X70047024Y-55847676D01*
X70047024Y-55847676D02*
X70142262Y-55752438D01*
X70142262Y-55752438D02*
X70285119Y-55704819D01*
X70285119Y-55704819D02*
X70380357Y-55704819D01*
X70380357Y-55704819D02*
X70523214Y-55752438D01*
X70523214Y-55752438D02*
X70570833Y-55800057D01*
X71475595Y-55704819D02*
X70999405Y-55704819D01*
X70999405Y-55704819D02*
X70951786Y-56181009D01*
X70951786Y-56181009D02*
X70999405Y-56133390D01*
X70999405Y-56133390D02*
X71094643Y-56085771D01*
X71094643Y-56085771D02*
X71332738Y-56085771D01*
X71332738Y-56085771D02*
X71427976Y-56133390D01*
X71427976Y-56133390D02*
X71475595Y-56181009D01*
X71475595Y-56181009D02*
X71523214Y-56276247D01*
X71523214Y-56276247D02*
X71523214Y-56514342D01*
X71523214Y-56514342D02*
X71475595Y-56609580D01*
X71475595Y-56609580D02*
X71427976Y-56657200D01*
X71427976Y-56657200D02*
X71332738Y-56704819D01*
X71332738Y-56704819D02*
X71094643Y-56704819D01*
X71094643Y-56704819D02*
X70999405Y-56657200D01*
X70999405Y-56657200D02*
X70951786Y-56609580D01*
X64570833Y-56609580D02*
X64523214Y-56657200D01*
X64523214Y-56657200D02*
X64380357Y-56704819D01*
X64380357Y-56704819D02*
X64285119Y-56704819D01*
X64285119Y-56704819D02*
X64142262Y-56657200D01*
X64142262Y-56657200D02*
X64047024Y-56561961D01*
X64047024Y-56561961D02*
X63999405Y-56466723D01*
X63999405Y-56466723D02*
X63951786Y-56276247D01*
X63951786Y-56276247D02*
X63951786Y-56133390D01*
X63951786Y-56133390D02*
X63999405Y-55942914D01*
X63999405Y-55942914D02*
X64047024Y-55847676D01*
X64047024Y-55847676D02*
X64142262Y-55752438D01*
X64142262Y-55752438D02*
X64285119Y-55704819D01*
X64285119Y-55704819D02*
X64380357Y-55704819D01*
X64380357Y-55704819D02*
X64523214Y-55752438D01*
X64523214Y-55752438D02*
X64570833Y-55800057D01*
X64951786Y-55800057D02*
X64999405Y-55752438D01*
X64999405Y-55752438D02*
X65094643Y-55704819D01*
X65094643Y-55704819D02*
X65332738Y-55704819D01*
X65332738Y-55704819D02*
X65427976Y-55752438D01*
X65427976Y-55752438D02*
X65475595Y-55800057D01*
X65475595Y-55800057D02*
X65523214Y-55895295D01*
X65523214Y-55895295D02*
X65523214Y-55990533D01*
X65523214Y-55990533D02*
X65475595Y-56133390D01*
X65475595Y-56133390D02*
X64904167Y-56704819D01*
X64904167Y-56704819D02*
X65523214Y-56704819D01*
X77205833Y-58589819D02*
X76872500Y-58113628D01*
X76634405Y-58589819D02*
X76634405Y-57589819D01*
X76634405Y-57589819D02*
X77015357Y-57589819D01*
X77015357Y-57589819D02*
X77110595Y-57637438D01*
X77110595Y-57637438D02*
X77158214Y-57685057D01*
X77158214Y-57685057D02*
X77205833Y-57780295D01*
X77205833Y-57780295D02*
X77205833Y-57923152D01*
X77205833Y-57923152D02*
X77158214Y-58018390D01*
X77158214Y-58018390D02*
X77110595Y-58066009D01*
X77110595Y-58066009D02*
X77015357Y-58113628D01*
X77015357Y-58113628D02*
X76634405Y-58113628D01*
X78110595Y-57589819D02*
X77634405Y-57589819D01*
X77634405Y-57589819D02*
X77586786Y-58066009D01*
X77586786Y-58066009D02*
X77634405Y-58018390D01*
X77634405Y-58018390D02*
X77729643Y-57970771D01*
X77729643Y-57970771D02*
X77967738Y-57970771D01*
X77967738Y-57970771D02*
X78062976Y-58018390D01*
X78062976Y-58018390D02*
X78110595Y-58066009D01*
X78110595Y-58066009D02*
X78158214Y-58161247D01*
X78158214Y-58161247D02*
X78158214Y-58399342D01*
X78158214Y-58399342D02*
X78110595Y-58494580D01*
X78110595Y-58494580D02*
X78062976Y-58542200D01*
X78062976Y-58542200D02*
X77967738Y-58589819D01*
X77967738Y-58589819D02*
X77729643Y-58589819D01*
X77729643Y-58589819D02*
X77634405Y-58542200D01*
X77634405Y-58542200D02*
X77586786Y-58494580D01*
X73388095Y-55254819D02*
X73388095Y-56064342D01*
X73388095Y-56064342D02*
X73435714Y-56159580D01*
X73435714Y-56159580D02*
X73483333Y-56207200D01*
X73483333Y-56207200D02*
X73578571Y-56254819D01*
X73578571Y-56254819D02*
X73769047Y-56254819D01*
X73769047Y-56254819D02*
X73864285Y-56207200D01*
X73864285Y-56207200D02*
X73911904Y-56159580D01*
X73911904Y-56159580D02*
X73959523Y-56064342D01*
X73959523Y-56064342D02*
X73959523Y-55254819D01*
X74959523Y-56254819D02*
X74388095Y-56254819D01*
X74673809Y-56254819D02*
X74673809Y-55254819D01*
X74673809Y-55254819D02*
X74578571Y-55397676D01*
X74578571Y-55397676D02*
X74483333Y-55492914D01*
X74483333Y-55492914D02*
X74388095Y-55540533D01*
X69065833Y-61794580D02*
X69018214Y-61842200D01*
X69018214Y-61842200D02*
X68875357Y-61889819D01*
X68875357Y-61889819D02*
X68780119Y-61889819D01*
X68780119Y-61889819D02*
X68637262Y-61842200D01*
X68637262Y-61842200D02*
X68542024Y-61746961D01*
X68542024Y-61746961D02*
X68494405Y-61651723D01*
X68494405Y-61651723D02*
X68446786Y-61461247D01*
X68446786Y-61461247D02*
X68446786Y-61318390D01*
X68446786Y-61318390D02*
X68494405Y-61127914D01*
X68494405Y-61127914D02*
X68542024Y-61032676D01*
X68542024Y-61032676D02*
X68637262Y-60937438D01*
X68637262Y-60937438D02*
X68780119Y-60889819D01*
X68780119Y-60889819D02*
X68875357Y-60889819D01*
X68875357Y-60889819D02*
X69018214Y-60937438D01*
X69018214Y-60937438D02*
X69065833Y-60985057D01*
X69399167Y-60889819D02*
X70065833Y-60889819D01*
X70065833Y-60889819D02*
X69637262Y-61889819D01*
X83120833Y-53204819D02*
X82787500Y-52728628D01*
X82549405Y-53204819D02*
X82549405Y-52204819D01*
X82549405Y-52204819D02*
X82930357Y-52204819D01*
X82930357Y-52204819D02*
X83025595Y-52252438D01*
X83025595Y-52252438D02*
X83073214Y-52300057D01*
X83073214Y-52300057D02*
X83120833Y-52395295D01*
X83120833Y-52395295D02*
X83120833Y-52538152D01*
X83120833Y-52538152D02*
X83073214Y-52633390D01*
X83073214Y-52633390D02*
X83025595Y-52681009D01*
X83025595Y-52681009D02*
X82930357Y-52728628D01*
X82930357Y-52728628D02*
X82549405Y-52728628D01*
X83597024Y-53204819D02*
X83787500Y-53204819D01*
X83787500Y-53204819D02*
X83882738Y-53157200D01*
X83882738Y-53157200D02*
X83930357Y-53109580D01*
X83930357Y-53109580D02*
X84025595Y-52966723D01*
X84025595Y-52966723D02*
X84073214Y-52776247D01*
X84073214Y-52776247D02*
X84073214Y-52395295D01*
X84073214Y-52395295D02*
X84025595Y-52300057D01*
X84025595Y-52300057D02*
X83977976Y-52252438D01*
X83977976Y-52252438D02*
X83882738Y-52204819D01*
X83882738Y-52204819D02*
X83692262Y-52204819D01*
X83692262Y-52204819D02*
X83597024Y-52252438D01*
X83597024Y-52252438D02*
X83549405Y-52300057D01*
X83549405Y-52300057D02*
X83501786Y-52395295D01*
X83501786Y-52395295D02*
X83501786Y-52633390D01*
X83501786Y-52633390D02*
X83549405Y-52728628D01*
X83549405Y-52728628D02*
X83597024Y-52776247D01*
X83597024Y-52776247D02*
X83692262Y-52823866D01*
X83692262Y-52823866D02*
X83882738Y-52823866D01*
X83882738Y-52823866D02*
X83977976Y-52776247D01*
X83977976Y-52776247D02*
X84025595Y-52728628D01*
X84025595Y-52728628D02*
X84073214Y-52633390D01*
D11*
%TO.C,C13*%
X88966252Y-52905000D02*
X88443746Y-52905000D01*
X88966252Y-54375000D02*
X88443746Y-54375000D01*
%TO.C,R11*%
X67900242Y-50752500D02*
X68374758Y-50752500D01*
X67900242Y-51797500D02*
X68374758Y-51797500D01*
%TO.C,C4*%
X68037500Y-58423746D02*
X68037500Y-58946252D01*
X69507500Y-58423746D02*
X69507500Y-58946252D01*
%TO.C,C11*%
X89016252Y-67725000D02*
X88493746Y-67725000D01*
X89016252Y-69195000D02*
X88493746Y-69195000D01*
%TO.C,R8*%
X77015000Y-53407742D02*
X77015000Y-53882258D01*
X78060000Y-53407742D02*
X78060000Y-53882258D01*
%TO.C,R4*%
X73210000Y-53887258D02*
X73210000Y-53412742D01*
X74255000Y-53887258D02*
X74255000Y-53412742D01*
%TO.C,C6*%
X68288081Y-52540000D02*
X68006919Y-52540000D01*
X68288081Y-53560000D02*
X68006919Y-53560000D01*
%TO.C,R2*%
X71830242Y-64132500D02*
X72304758Y-64132500D01*
X71830242Y-65177500D02*
X72304758Y-65177500D01*
%TO.C,R1*%
X67915242Y-54137500D02*
X68389758Y-54137500D01*
X67915242Y-55182500D02*
X68389758Y-55182500D01*
%TO.C,J4*%
X92707500Y-66160000D02*
X92707500Y-64830000D01*
X94037500Y-66160000D02*
X92707500Y-66160000D01*
X95307501Y-63500000D02*
X97907500Y-63500000D01*
X95307501Y-66160000D02*
X95307501Y-63500000D01*
X95307501Y-66160000D02*
X97907500Y-66160000D01*
X97907500Y-66160000D02*
X97907500Y-63500000D01*
%TO.C,J3*%
X92707500Y-56000000D02*
X92707500Y-54670000D01*
X94037500Y-56000000D02*
X92707500Y-56000000D01*
X95307501Y-53340000D02*
X97907500Y-53340000D01*
X95307501Y-56000000D02*
X95307501Y-53340000D01*
X95307501Y-56000000D02*
X97907500Y-56000000D01*
X97907500Y-56000000D02*
X97907500Y-53340000D01*
%TO.C,L1*%
X85587500Y-64200000D02*
X88087500Y-64200000D01*
X88087500Y-55800000D02*
X85587500Y-55800000D01*
%TO.C,R10*%
X76134758Y-62602500D02*
X75660242Y-62602500D01*
X76134758Y-63647500D02*
X75660242Y-63647500D01*
%TO.C,C1*%
X59067259Y-62601000D02*
X59697259Y-62601000D01*
X59382259Y-62286000D02*
X59382259Y-62916000D01*
X62567500Y-61210000D02*
X62567500Y-67670000D01*
X62607500Y-61210000D02*
X62607500Y-67670000D01*
X62647500Y-61210000D02*
X62647500Y-67670000D01*
X62687500Y-61212000D02*
X62687500Y-67668000D01*
X62727500Y-61213000D02*
X62727500Y-67667000D01*
X62767500Y-61216000D02*
X62767500Y-67664000D01*
X62807500Y-61218000D02*
X62807500Y-63400000D01*
X62807500Y-65480000D02*
X62807500Y-67662000D01*
X62847500Y-61222000D02*
X62847500Y-63400000D01*
X62847500Y-65480000D02*
X62847500Y-67658000D01*
X62887500Y-61225000D02*
X62887500Y-63400000D01*
X62887500Y-65480000D02*
X62887500Y-67655000D01*
X62927500Y-61229000D02*
X62927500Y-63400000D01*
X62927500Y-65480000D02*
X62927500Y-67651000D01*
X62967500Y-61234000D02*
X62967500Y-63400000D01*
X62967500Y-65480000D02*
X62967500Y-67646000D01*
X63007500Y-61239000D02*
X63007500Y-63400000D01*
X63007500Y-65480000D02*
X63007500Y-67641000D01*
X63047500Y-61245000D02*
X63047500Y-63400000D01*
X63047500Y-65480000D02*
X63047500Y-67635000D01*
X63087500Y-61251000D02*
X63087500Y-63400000D01*
X63087500Y-65480000D02*
X63087500Y-67629000D01*
X63127500Y-61258000D02*
X63127500Y-63400000D01*
X63127500Y-65480000D02*
X63127500Y-67622000D01*
X63167500Y-61265000D02*
X63167500Y-63400000D01*
X63167500Y-65480000D02*
X63167500Y-67615000D01*
X63207500Y-61273000D02*
X63207500Y-63400000D01*
X63207500Y-65480000D02*
X63207500Y-67607000D01*
X63247500Y-61281000D02*
X63247500Y-63400000D01*
X63247500Y-65480000D02*
X63247500Y-67599000D01*
X63288500Y-61290000D02*
X63288500Y-63400000D01*
X63288500Y-65480000D02*
X63288500Y-67590000D01*
X63328500Y-61299000D02*
X63328500Y-63400000D01*
X63328500Y-65480000D02*
X63328500Y-67581000D01*
X63368500Y-61309000D02*
X63368500Y-63400000D01*
X63368500Y-65480000D02*
X63368500Y-67571000D01*
X63408500Y-61319000D02*
X63408500Y-63400000D01*
X63408500Y-65480000D02*
X63408500Y-67561000D01*
X63448500Y-61330000D02*
X63448500Y-63400000D01*
X63448500Y-65480000D02*
X63448500Y-67550000D01*
X63488500Y-61342000D02*
X63488500Y-63400000D01*
X63488500Y-65480000D02*
X63488500Y-67538000D01*
X63528500Y-61354000D02*
X63528500Y-63400000D01*
X63528500Y-65480000D02*
X63528500Y-67526000D01*
X63568500Y-61366000D02*
X63568500Y-63400000D01*
X63568500Y-65480000D02*
X63568500Y-67514000D01*
X63608500Y-61379000D02*
X63608500Y-63400000D01*
X63608500Y-65480000D02*
X63608500Y-67501000D01*
X63648500Y-61393000D02*
X63648500Y-63400000D01*
X63648500Y-65480000D02*
X63648500Y-67487000D01*
X63688500Y-61407000D02*
X63688500Y-63400000D01*
X63688500Y-65480000D02*
X63688500Y-67473000D01*
X63728500Y-61422000D02*
X63728500Y-63400000D01*
X63728500Y-65480000D02*
X63728500Y-67458000D01*
X63768500Y-61438000D02*
X63768500Y-63400000D01*
X63768500Y-65480000D02*
X63768500Y-67442000D01*
X63808500Y-61454000D02*
X63808500Y-63400000D01*
X63808500Y-65480000D02*
X63808500Y-67426000D01*
X63848500Y-61470000D02*
X63848500Y-63400000D01*
X63848500Y-65480000D02*
X63848500Y-67410000D01*
X63888500Y-61488000D02*
X63888500Y-63400000D01*
X63888500Y-65480000D02*
X63888500Y-67392000D01*
X63928500Y-61506000D02*
X63928500Y-63400000D01*
X63928500Y-65480000D02*
X63928500Y-67374000D01*
X63968500Y-61524000D02*
X63968500Y-63400000D01*
X63968500Y-65480000D02*
X63968500Y-67356000D01*
X64008500Y-61544000D02*
X64008500Y-63400000D01*
X64008500Y-65480000D02*
X64008500Y-67336000D01*
X64048500Y-61564000D02*
X64048500Y-63400000D01*
X64048500Y-65480000D02*
X64048500Y-67316000D01*
X64088500Y-61584000D02*
X64088500Y-63400000D01*
X64088500Y-65480000D02*
X64088500Y-67296000D01*
X64128500Y-61606000D02*
X64128500Y-63400000D01*
X64128500Y-65480000D02*
X64128500Y-67274000D01*
X64168500Y-61628000D02*
X64168500Y-63400000D01*
X64168500Y-65480000D02*
X64168500Y-67252000D01*
X64208500Y-61650000D02*
X64208500Y-63400000D01*
X64208500Y-65480000D02*
X64208500Y-67230000D01*
X64248500Y-61674000D02*
X64248500Y-63400000D01*
X64248500Y-65480000D02*
X64248500Y-67206000D01*
X64288500Y-61698000D02*
X64288500Y-63400000D01*
X64288500Y-65480000D02*
X64288500Y-67182000D01*
X64328500Y-61724000D02*
X64328500Y-63400000D01*
X64328500Y-65480000D02*
X64328500Y-67156000D01*
X64368500Y-61750000D02*
X64368500Y-63400000D01*
X64368500Y-65480000D02*
X64368500Y-67130000D01*
X64408500Y-61776000D02*
X64408500Y-63400000D01*
X64408500Y-65480000D02*
X64408500Y-67104000D01*
X64448500Y-61804000D02*
X64448500Y-63400000D01*
X64448500Y-65480000D02*
X64448500Y-67076000D01*
X64488500Y-61833000D02*
X64488500Y-63400000D01*
X64488500Y-65480000D02*
X64488500Y-67047000D01*
X64528500Y-61862000D02*
X64528500Y-63400000D01*
X64528500Y-65480000D02*
X64528500Y-67018000D01*
X64568500Y-61892000D02*
X64568500Y-63400000D01*
X64568500Y-65480000D02*
X64568500Y-66988000D01*
X64608500Y-61924000D02*
X64608500Y-63400000D01*
X64608500Y-65480000D02*
X64608500Y-66956000D01*
X64648500Y-61956000D02*
X64648500Y-63400000D01*
X64648500Y-65480000D02*
X64648500Y-66924000D01*
X64688500Y-61990000D02*
X64688500Y-63400000D01*
X64688500Y-65480000D02*
X64688500Y-66890000D01*
X64728500Y-62024000D02*
X64728500Y-63400000D01*
X64728500Y-65480000D02*
X64728500Y-66856000D01*
X64768500Y-62060000D02*
X64768500Y-63400000D01*
X64768500Y-65480000D02*
X64768500Y-66820000D01*
X64808500Y-62097000D02*
X64808500Y-63400000D01*
X64808500Y-65480000D02*
X64808500Y-66783000D01*
X64848500Y-62135000D02*
X64848500Y-63400000D01*
X64848500Y-65480000D02*
X64848500Y-66745000D01*
X64888500Y-62175000D02*
X64888500Y-66705000D01*
X64928500Y-62216000D02*
X64928500Y-66664000D01*
X64968500Y-62258000D02*
X64968500Y-66622000D01*
X65008500Y-62303000D02*
X65008500Y-66577000D01*
X65048500Y-62348000D02*
X65048500Y-66532000D01*
X65088500Y-62396000D02*
X65088500Y-66484000D01*
X65128500Y-62445000D02*
X65128500Y-66435000D01*
X65168500Y-62496000D02*
X65168500Y-66384000D01*
X65208500Y-62550000D02*
X65208500Y-66330000D01*
X65248500Y-62606000D02*
X65248500Y-66274000D01*
X65288500Y-62664000D02*
X65288500Y-66216000D01*
X65328500Y-62726000D02*
X65328500Y-66154000D01*
X65368500Y-62790000D02*
X65368500Y-66090000D01*
X65408500Y-62859000D02*
X65408500Y-66021000D01*
X65448500Y-62931000D02*
X65448500Y-65949000D01*
X65488500Y-63008000D02*
X65488500Y-65872000D01*
X65528500Y-63090000D02*
X65528500Y-65790000D01*
X65568500Y-63178000D02*
X65568500Y-65702000D01*
X65608500Y-63275000D02*
X65608500Y-65605000D01*
X65648500Y-63381000D02*
X65648500Y-65499000D01*
X65688500Y-63500000D02*
X65688500Y-65380000D01*
X65728500Y-63638000D02*
X65728500Y-65242000D01*
X65768500Y-63807000D02*
X65768500Y-65073000D01*
X65808500Y-64038000D02*
X65808500Y-64842000D01*
X65837500Y-64440000D02*
G75*
G02*
X59297500Y-64440000I-3270000J0D01*
G01*
X59297500Y-64440000D02*
G75*
G02*
X65837500Y-64440000I3270000J0D01*
G01*
%TO.C,D1*%
X70152500Y-50540000D02*
X70152500Y-52010000D01*
X70152500Y-52010000D02*
X72437500Y-52010000D01*
X72437500Y-50540000D02*
X70152500Y-50540000D01*
%TO.C,C8*%
X78672500Y-57460581D02*
X78672500Y-57179419D01*
X79692500Y-57460581D02*
X79692500Y-57179419D01*
%TO.C,J2*%
X52067500Y-66040000D02*
X52067500Y-68700000D01*
X54667499Y-66040000D02*
X52067500Y-66040000D01*
X54667499Y-66040000D02*
X54667499Y-68700000D01*
X54667499Y-68700000D02*
X52067500Y-68700000D01*
X55937500Y-66040000D02*
X57267500Y-66040000D01*
X57267500Y-66040000D02*
X57267500Y-67370000D01*
%TO.C,R3*%
X71830242Y-65592500D02*
X72304758Y-65592500D01*
X71830242Y-66637500D02*
X72304758Y-66637500D01*
%TO.C,R7*%
X75660242Y-61142500D02*
X76134758Y-61142500D01*
X75660242Y-62187500D02*
X76134758Y-62187500D01*
%TO.C,R6*%
X71082500Y-53887258D02*
X71082500Y-53412742D01*
X72127500Y-53887258D02*
X72127500Y-53412742D01*
%TO.C,C9*%
X76038081Y-64145000D02*
X75756919Y-64145000D01*
X76038081Y-65165000D02*
X75756919Y-65165000D01*
%TO.C,C3*%
X66077500Y-58423748D02*
X66077500Y-58946254D01*
X67547500Y-58423748D02*
X67547500Y-58946254D01*
%TO.C,J1*%
X52067500Y-50800000D02*
X52067500Y-53460000D01*
X54667499Y-50800000D02*
X52067500Y-50800000D01*
X54667499Y-50800000D02*
X54667499Y-53460000D01*
X54667499Y-53460000D02*
X52067500Y-53460000D01*
X55937500Y-50800000D02*
X57267500Y-50800000D01*
X57267500Y-50800000D02*
X57267500Y-52130000D01*
%TO.C,C10*%
X89016252Y-65765000D02*
X88493746Y-65765000D01*
X89016252Y-67235000D02*
X88493746Y-67235000D01*
%TO.C,C12*%
X88966253Y-50945000D02*
X88443747Y-50945000D01*
X88966253Y-52415000D02*
X88443747Y-52415000D01*
%TO.C,C5*%
X69972500Y-58559419D02*
X69972500Y-58840581D01*
X70992500Y-58559419D02*
X70992500Y-58840581D01*
%TO.C,C2*%
X64117500Y-58423748D02*
X64117500Y-58946254D01*
X65587500Y-58423748D02*
X65587500Y-58946254D01*
%TO.C,R5*%
X76730242Y-56042500D02*
X77204758Y-56042500D01*
X76730242Y-57087500D02*
X77204758Y-57087500D01*
D12*
%TO.C,U1*%
X72562500Y-56905000D02*
X72562500Y-57455000D01*
X72562500Y-56905000D02*
X72762500Y-56905000D01*
X72562500Y-58055000D02*
X72562500Y-58755000D01*
X72562500Y-59355000D02*
X72562500Y-59905000D01*
X72562500Y-59905000D02*
X72762500Y-59905000D01*
X74862500Y-56905000D02*
X75062500Y-56905000D01*
X74862500Y-59905000D02*
X75062500Y-59905000D01*
X75062500Y-56905000D02*
X75062500Y-57455000D01*
X75062500Y-59355000D02*
X75062500Y-59905000D01*
X72412500Y-57405000D02*
G75*
G02*
X72312500Y-57405000I-50000J0D01*
G01*
X72312500Y-57405000D02*
G75*
G02*
X72412500Y-57405000I50000J0D01*
G01*
D11*
%TO.C,C7*%
X72108081Y-60885000D02*
X71826919Y-60885000D01*
X72108081Y-61905000D02*
X71826919Y-61905000D01*
%TO.C,R9*%
X75115000Y-53882258D02*
X75115000Y-53407742D01*
X76160000Y-53882258D02*
X76160000Y-53407742D01*
%TD*%
M02*
