M48
; DRILL file {KiCad 8.0.5} date 2024-10-13T23:37:33+0200
; FORMAT={-:-/ absolute / metric / decimal}
; #@! TF.CreationDate,2024-10-13T23:37:33+02:00
; #@! TF.GenerationSoftware,Kicad,Pcbnew,8.0.5
; #@! TF.FileFunction,Plated,1,4,PTH
FMAT,2
METRIC
; #@! TA.AperFunction,Plated,PTH,ViaDrill
T1C0.300
; #@! TA.AperFunction,Plated,PTH,ViaDrill
T2C0.400
; #@! TA.AperFunction,Plated,PTH,ComponentDrill
T3C0.800
; #@! TA.AperFunction,Plated,PTH,ComponentDrill
T4C1.000
%
G90
G05
T1
X51.55Y-61.15
X51.55Y-63.7
X51.55Y-83.15
X51.55Y-85.7
X51.55Y-105.15
X51.55Y-107.7
X51.55Y-127.15
X51.55Y-129.7
X51.55Y-149.15
X51.55Y-151.7
X52.0Y-64.9
X52.0Y-86.9
X52.0Y-108.9
X52.0Y-130.9
X52.0Y-152.9
X52.2Y-55.175
X52.2Y-57.8
X52.2Y-77.175
X52.2Y-79.8
X52.2Y-99.175
X52.2Y-101.8
X52.2Y-121.175
X52.2Y-123.8
X52.2Y-143.175
X52.2Y-145.8
X52.775Y-62.45
X52.775Y-84.45
X52.775Y-106.45
X52.775Y-128.45
X52.775Y-150.45
X53.4Y-55.175
X53.4Y-57.8
X53.4Y-77.175
X53.4Y-79.8
X53.4Y-99.175
X53.4Y-101.8
X53.4Y-121.175
X53.4Y-123.8
X53.4Y-143.175
X53.4Y-145.8
X53.95Y-61.15
X53.95Y-63.7
X53.95Y-83.15
X53.95Y-85.7
X53.95Y-105.15
X53.95Y-107.7
X53.95Y-127.15
X53.95Y-129.7
X53.95Y-149.15
X53.95Y-151.7
X54.6Y-56.6
X54.6Y-78.6
X54.6Y-100.6
X54.6Y-122.6
X54.6Y-144.6
X55.15Y-61.15
X55.15Y-63.7
X55.15Y-83.15
X55.15Y-85.7
X55.15Y-105.15
X55.15Y-107.7
X55.15Y-127.15
X55.15Y-129.7
X55.15Y-149.15
X55.15Y-151.7
X55.8Y-56.6
X55.8Y-78.6
X55.8Y-100.6
X55.8Y-122.6
X55.8Y-144.6
X56.35Y-62.45
X56.35Y-84.45
X56.35Y-106.45
X56.35Y-128.45
X56.35Y-150.45
X56.8Y-64.9
X56.8Y-86.9
X56.8Y-108.9
X56.8Y-130.9
X56.8Y-152.9
X57.0Y-55.175
X57.0Y-57.8
X57.0Y-77.175
X57.0Y-79.8
X57.0Y-99.175
X57.0Y-101.8
X57.0Y-121.175
X57.0Y-123.8
X57.0Y-143.175
X57.0Y-145.8
X57.55Y-61.15
X57.55Y-63.7
X57.55Y-83.15
X57.55Y-85.7
X57.55Y-105.15
X57.55Y-107.7
X57.55Y-127.15
X57.55Y-129.7
X57.55Y-149.15
X57.55Y-151.7
X58.2Y-55.175
X58.2Y-57.8
X58.2Y-77.175
X58.2Y-79.8
X58.2Y-99.175
X58.2Y-101.8
X58.2Y-121.175
X58.2Y-123.8
X58.2Y-143.175
X58.2Y-145.8
X59.8Y-60.05
X59.8Y-62.45
X59.8Y-63.65
X59.8Y-64.85
X59.8Y-82.05
X59.8Y-84.45
X59.8Y-85.65
X59.8Y-86.85
X59.8Y-104.05
X59.8Y-106.45
X59.8Y-107.65
X59.8Y-108.85
X59.8Y-126.05
X59.8Y-128.45
X59.8Y-129.65
X59.8Y-130.85
X59.8Y-148.05
X59.8Y-150.45
X59.8Y-151.65
X59.8Y-152.85
X60.3Y-53.0
X60.3Y-75.0
X60.3Y-97.0
X60.3Y-119.0
X60.3Y-141.0
X60.4Y-56.85
X60.4Y-58.55
X60.4Y-78.85
X60.4Y-80.55
X60.4Y-100.85
X60.4Y-102.55
X60.4Y-122.85
X60.4Y-124.55
X60.4Y-144.85
X60.4Y-146.55
X61.0Y-61.25
X61.0Y-62.45
X61.0Y-83.25
X61.0Y-84.45
X61.0Y-105.25
X61.0Y-106.45
X61.0Y-127.25
X61.0Y-128.45
X61.0Y-149.25
X61.0Y-150.45
X61.05Y-68.5
X61.05Y-90.5
X61.05Y-112.5
X61.05Y-134.5
X61.05Y-156.5
X61.5Y-51.8
X61.5Y-54.2
X61.5Y-73.8
X61.5Y-76.2
X61.5Y-95.8
X61.5Y-98.2
X61.5Y-117.8
X61.5Y-120.2
X61.5Y-139.8
X61.5Y-142.2
X62.0Y-57.65
X62.0Y-79.65
X62.0Y-101.65
X62.0Y-123.65
X62.0Y-145.65
X62.25Y-68.5
X62.25Y-90.5
X62.25Y-112.5
X62.25Y-134.5
X62.25Y-156.5
X62.7Y-53.0
X62.7Y-75.0
X62.7Y-97.0
X62.7Y-119.0
X62.7Y-141.0
X63.9Y-51.8
X63.9Y-54.2
X63.9Y-73.8
X63.9Y-76.2
X63.9Y-95.8
X63.9Y-98.2
X63.9Y-117.8
X63.9Y-120.2
X63.9Y-139.8
X63.9Y-142.2
X64.65Y-68.5
X64.65Y-90.5
X64.65Y-112.5
X64.65Y-134.5
X64.65Y-156.5
X64.7Y-56.15
X64.7Y-78.15
X64.7Y-100.15
X64.7Y-122.15
X64.7Y-144.15
X65.1Y-53.0
X65.1Y-75.0
X65.1Y-97.0
X65.1Y-119.0
X65.1Y-141.0
X65.3Y-56.9
X65.3Y-78.9
X65.3Y-100.9
X65.3Y-122.9
X65.3Y-144.9
X65.85Y-58.3
X65.85Y-68.5
X65.85Y-80.3
X65.85Y-90.5
X65.85Y-102.3
X65.85Y-112.5
X65.85Y-124.3
X65.85Y-134.5
X65.85Y-146.3
X65.85Y-156.5
X65.9Y-56.15
X65.9Y-78.15
X65.9Y-100.15
X65.9Y-122.15
X65.9Y-144.15
X66.3Y-64.25
X66.3Y-66.65
X66.3Y-86.25
X66.3Y-88.65
X66.3Y-108.25
X66.3Y-110.65
X66.3Y-130.25
X66.3Y-132.65
X66.3Y-152.25
X66.3Y-154.65
X66.5Y-56.9
X66.5Y-78.9
X66.5Y-100.9
X66.5Y-122.9
X66.5Y-144.9
X66.55Y-61.4
X66.55Y-83.4
X66.55Y-105.4
X66.55Y-127.4
X66.55Y-149.4
X67.1Y-56.15
X67.1Y-78.15
X67.1Y-100.15
X67.1Y-122.15
X67.1Y-144.15
X67.15Y-62.6
X67.15Y-84.6
X67.15Y-106.6
X67.15Y-128.6
X67.15Y-150.6
X67.7Y-56.9
X67.7Y-78.9
X67.7Y-100.9
X67.7Y-122.9
X67.7Y-144.9
X67.75Y-64.25
X67.75Y-66.65
X67.75Y-86.25
X67.75Y-88.65
X67.75Y-108.25
X67.75Y-110.65
X67.75Y-130.25
X67.75Y-132.65
X67.75Y-152.25
X67.75Y-154.65
X67.8Y-58.3
X67.8Y-80.3
X67.8Y-102.3
X67.8Y-124.3
X67.8Y-146.3
X68.3Y-56.15
X68.3Y-78.15
X68.3Y-100.15
X68.3Y-122.15
X68.3Y-144.15
X68.9Y-56.9
X68.9Y-78.9
X68.9Y-100.9
X68.9Y-122.9
X68.9Y-144.9
X68.95Y-61.4
X68.95Y-83.4
X68.95Y-105.4
X68.95Y-127.4
X68.95Y-149.4
X69.5Y-56.15
X69.5Y-78.15
X69.5Y-100.15
X69.5Y-122.15
X69.5Y-144.15
X69.55Y-62.6
X69.55Y-84.6
X69.55Y-106.6
X69.55Y-128.6
X69.55Y-150.6
X69.7Y-58.3
X69.7Y-80.3
X69.7Y-102.3
X69.7Y-124.3
X69.7Y-146.3
X70.1Y-56.9
X70.1Y-78.9
X70.1Y-100.9
X70.1Y-122.9
X70.1Y-144.9
X70.125Y-60.725
X70.125Y-82.725
X70.125Y-104.725
X70.125Y-126.725
X70.125Y-148.725
X70.55Y-68.5
X70.55Y-90.5
X70.55Y-112.5
X70.55Y-134.5
X70.55Y-156.5
X70.8Y-56.15
X70.8Y-78.15
X70.8Y-100.15
X70.8Y-122.15
X70.8Y-144.15
X71.35Y-56.9
X71.35Y-78.9
X71.35Y-100.9
X71.35Y-122.9
X71.35Y-144.9
X71.65Y-57.85
X71.65Y-79.85
X71.65Y-101.85
X71.65Y-123.85
X71.65Y-145.85
X71.675Y-59.25
X71.675Y-60.15
X71.675Y-81.25
X71.675Y-82.15
X71.675Y-103.25
X71.675Y-104.15
X71.675Y-125.25
X71.675Y-126.15
X71.675Y-147.25
X71.675Y-148.15
X71.75Y-68.5
X71.75Y-90.5
X71.75Y-112.5
X71.75Y-134.5
X71.75Y-156.5
X72.575Y-58.125
X72.575Y-80.125
X72.575Y-102.125
X72.575Y-124.125
X72.575Y-146.125
X73.3Y-58.125
X73.3Y-80.125
X73.3Y-102.125
X73.3Y-124.125
X73.3Y-146.125
X74.15Y-68.5
X74.15Y-90.5
X74.15Y-112.5
X74.15Y-134.5
X74.15Y-156.5
X75.35Y-68.5
X75.35Y-90.5
X75.35Y-112.5
X75.35Y-134.5
X75.35Y-156.5
X75.7Y-51.25
X75.7Y-73.25
X75.7Y-95.25
X75.7Y-117.25
X75.7Y-139.25
X75.825Y-60.025
X75.825Y-82.025
X75.825Y-104.025
X75.825Y-126.025
X75.825Y-148.025
X76.188Y-61.95
X76.188Y-83.95
X76.188Y-105.95
X76.188Y-127.95
X76.188Y-149.95
X76.938Y-60.8
X76.938Y-82.8
X76.938Y-104.8
X76.938Y-126.8
X76.938Y-148.8
X78.1Y-51.25
X78.1Y-73.25
X78.1Y-95.25
X78.1Y-117.25
X78.1Y-139.25
X79.65Y-54.8
X79.65Y-76.8
X79.65Y-98.8
X79.65Y-120.8
X79.65Y-142.8
X80.1Y-66.5
X80.1Y-68.5
X80.1Y-88.5
X80.1Y-90.5
X80.1Y-110.5
X80.1Y-112.5
X80.1Y-132.5
X80.1Y-134.5
X80.1Y-154.5
X80.1Y-156.5
X80.325Y-52.65
X80.325Y-74.65
X80.325Y-96.65
X80.325Y-118.65
X80.325Y-140.65
X81.3Y-66.5
X81.3Y-68.5
X81.3Y-88.5
X81.3Y-90.5
X81.3Y-110.5
X81.3Y-112.5
X81.3Y-132.5
X81.3Y-134.5
X81.3Y-154.5
X81.3Y-156.5
X81.775Y-51.25
X81.775Y-54.05
X81.775Y-73.25
X81.775Y-76.05
X81.775Y-95.25
X81.775Y-98.05
X81.775Y-117.25
X81.775Y-120.05
X81.775Y-139.25
X81.775Y-142.05
X83.125Y-52.65
X83.125Y-74.65
X83.125Y-96.65
X83.125Y-118.65
X83.125Y-140.65
X84.55Y-66.5
X84.55Y-68.5
X84.55Y-88.5
X84.55Y-90.5
X84.55Y-110.5
X84.55Y-112.5
X84.55Y-132.5
X84.55Y-134.5
X84.55Y-154.5
X84.55Y-156.5
X85.75Y-66.5
X85.75Y-68.5
X85.75Y-88.5
X85.75Y-90.5
X85.75Y-110.5
X85.75Y-112.5
X85.75Y-132.5
X85.75Y-134.5
X85.75Y-154.5
X85.75Y-156.5
X85.9Y-51.25
X85.9Y-54.05
X85.9Y-73.25
X85.9Y-76.05
X85.9Y-95.25
X85.9Y-98.05
X85.9Y-117.25
X85.9Y-120.05
X85.9Y-139.25
X85.9Y-142.05
X89.55Y-64.925
X89.55Y-86.925
X89.55Y-108.925
X89.55Y-130.925
X89.55Y-152.925
X90.925Y-64.925
X90.925Y-86.925
X90.925Y-108.925
X90.925Y-130.925
X90.925Y-152.925
X91.45Y-53.9
X91.45Y-75.9
X91.45Y-97.9
X91.45Y-119.9
X91.45Y-141.9
X92.075Y-57.25
X92.075Y-79.25
X92.075Y-101.25
X92.075Y-123.25
X92.075Y-145.25
X92.575Y-51.75
X92.575Y-73.75
X92.575Y-95.75
X92.575Y-117.75
X92.575Y-139.75
X92.975Y-59.35
X92.975Y-61.75
X92.975Y-81.35
X92.975Y-83.75
X92.975Y-103.35
X92.975Y-105.75
X92.975Y-125.35
X92.975Y-127.75
X92.975Y-147.35
X92.975Y-149.75
X93.25Y-68.025
X93.25Y-90.025
X93.25Y-112.025
X93.25Y-134.025
X93.25Y-156.025
X94.75Y-51.75
X94.75Y-73.75
X94.75Y-95.75
X94.75Y-117.75
X94.75Y-139.75
X95.95Y-51.75
X95.95Y-73.75
X95.95Y-95.75
X95.95Y-117.75
X95.95Y-139.75
X97.4Y-68.025
X97.4Y-90.025
X97.4Y-112.025
X97.4Y-134.025
X97.4Y-156.025
X98.0Y-59.35
X98.0Y-61.75
X98.0Y-81.35
X98.0Y-83.75
X98.0Y-103.35
X98.0Y-105.75
X98.0Y-125.35
X98.0Y-127.75
X98.0Y-147.35
X98.0Y-149.75
X98.7Y-56.65
X98.7Y-78.65
X98.7Y-100.65
X98.7Y-122.65
X98.7Y-144.65
X103.55Y-61.15
X103.55Y-63.7
X103.55Y-83.15
X103.55Y-85.7
X103.55Y-105.15
X103.55Y-107.7
X103.55Y-127.15
X103.55Y-129.7
X103.55Y-149.15
X103.55Y-151.7
X104.0Y-64.9
X104.0Y-86.9
X104.0Y-108.9
X104.0Y-130.9
X104.0Y-152.9
X104.2Y-55.175
X104.2Y-57.8
X104.2Y-77.175
X104.2Y-79.8
X104.2Y-99.175
X104.2Y-101.8
X104.2Y-121.175
X104.2Y-123.8
X104.2Y-143.175
X104.2Y-145.8
X104.775Y-62.45
X104.775Y-84.45
X104.775Y-106.45
X104.775Y-128.45
X104.775Y-150.45
X105.4Y-55.175
X105.4Y-57.8
X105.4Y-77.175
X105.4Y-79.8
X105.4Y-99.175
X105.4Y-101.8
X105.4Y-121.175
X105.4Y-123.8
X105.4Y-143.175
X105.4Y-145.8
X105.95Y-61.15
X105.95Y-63.7
X105.95Y-83.15
X105.95Y-85.7
X105.95Y-105.15
X105.95Y-107.7
X105.95Y-127.15
X105.95Y-129.7
X105.95Y-149.15
X105.95Y-151.7
X106.6Y-56.6
X106.6Y-78.6
X106.6Y-100.6
X106.6Y-122.6
X106.6Y-144.6
X107.15Y-61.15
X107.15Y-63.7
X107.15Y-83.15
X107.15Y-85.7
X107.15Y-105.15
X107.15Y-107.7
X107.15Y-127.15
X107.15Y-129.7
X107.15Y-149.15
X107.15Y-151.7
X107.8Y-56.6
X107.8Y-78.6
X107.8Y-100.6
X107.8Y-122.6
X107.8Y-144.6
X108.35Y-62.45
X108.35Y-84.45
X108.35Y-106.45
X108.35Y-128.45
X108.35Y-150.45
X108.8Y-64.9
X108.8Y-86.9
X108.8Y-108.9
X108.8Y-130.9
X108.8Y-152.9
X109.0Y-55.175
X109.0Y-57.8
X109.0Y-77.175
X109.0Y-79.8
X109.0Y-99.175
X109.0Y-101.8
X109.0Y-121.175
X109.0Y-123.8
X109.0Y-143.175
X109.0Y-145.8
X109.55Y-61.15
X109.55Y-63.7
X109.55Y-83.15
X109.55Y-85.7
X109.55Y-105.15
X109.55Y-107.7
X109.55Y-127.15
X109.55Y-129.7
X109.55Y-149.15
X109.55Y-151.7
X110.2Y-55.175
X110.2Y-57.8
X110.2Y-77.175
X110.2Y-79.8
X110.2Y-99.175
X110.2Y-101.8
X110.2Y-121.175
X110.2Y-123.8
X110.2Y-143.175
X110.2Y-145.8
X111.8Y-60.05
X111.8Y-62.45
X111.8Y-63.65
X111.8Y-64.85
X111.8Y-82.05
X111.8Y-84.45
X111.8Y-85.65
X111.8Y-86.85
X111.8Y-104.05
X111.8Y-106.45
X111.8Y-107.65
X111.8Y-108.85
X111.8Y-126.05
X111.8Y-128.45
X111.8Y-129.65
X111.8Y-130.85
X111.8Y-148.05
X111.8Y-150.45
X111.8Y-151.65
X111.8Y-152.85
X112.3Y-53.0
X112.3Y-75.0
X112.3Y-97.0
X112.3Y-119.0
X112.3Y-141.0
X112.4Y-56.85
X112.4Y-58.55
X112.4Y-78.85
X112.4Y-80.55
X112.4Y-100.85
X112.4Y-102.55
X112.4Y-122.85
X112.4Y-124.55
X112.4Y-144.85
X112.4Y-146.55
X113.0Y-61.25
X113.0Y-62.45
X113.0Y-83.25
X113.0Y-84.45
X113.0Y-105.25
X113.0Y-106.45
X113.0Y-127.25
X113.0Y-128.45
X113.0Y-149.25
X113.0Y-150.45
X113.05Y-68.5
X113.05Y-90.5
X113.05Y-112.5
X113.05Y-134.5
X113.05Y-156.5
X113.5Y-51.8
X113.5Y-54.2
X113.5Y-73.8
X113.5Y-76.2
X113.5Y-95.8
X113.5Y-98.2
X113.5Y-117.8
X113.5Y-120.2
X113.5Y-139.8
X113.5Y-142.2
X114.0Y-57.65
X114.0Y-79.65
X114.0Y-101.65
X114.0Y-123.65
X114.0Y-145.65
X114.25Y-68.5
X114.25Y-90.5
X114.25Y-112.5
X114.25Y-134.5
X114.25Y-156.5
X114.7Y-53.0
X114.7Y-75.0
X114.7Y-97.0
X114.7Y-119.0
X114.7Y-141.0
X115.9Y-51.8
X115.9Y-54.2
X115.9Y-73.8
X115.9Y-76.2
X115.9Y-95.8
X115.9Y-98.2
X115.9Y-117.8
X115.9Y-120.2
X115.9Y-139.8
X115.9Y-142.2
X116.65Y-68.5
X116.65Y-90.5
X116.65Y-112.5
X116.65Y-134.5
X116.65Y-156.5
X116.7Y-56.15
X116.7Y-78.15
X116.7Y-100.15
X116.7Y-122.15
X116.7Y-144.15
X117.1Y-53.0
X117.1Y-75.0
X117.1Y-97.0
X117.1Y-119.0
X117.1Y-141.0
X117.3Y-56.9
X117.3Y-78.9
X117.3Y-100.9
X117.3Y-122.9
X117.3Y-144.9
X117.85Y-58.3
X117.85Y-68.5
X117.85Y-80.3
X117.85Y-90.5
X117.85Y-102.3
X117.85Y-112.5
X117.85Y-124.3
X117.85Y-134.5
X117.85Y-146.3
X117.85Y-156.5
X117.9Y-56.15
X117.9Y-78.15
X117.9Y-100.15
X117.9Y-122.15
X117.9Y-144.15
X118.3Y-64.25
X118.3Y-66.65
X118.3Y-86.25
X118.3Y-88.65
X118.3Y-108.25
X118.3Y-110.65
X118.3Y-130.25
X118.3Y-132.65
X118.3Y-152.25
X118.3Y-154.65
X118.5Y-56.9
X118.5Y-78.9
X118.5Y-100.9
X118.5Y-122.9
X118.5Y-144.9
X118.55Y-61.4
X118.55Y-83.4
X118.55Y-105.4
X118.55Y-127.4
X118.55Y-149.4
X119.1Y-56.15
X119.1Y-78.15
X119.1Y-100.15
X119.1Y-122.15
X119.1Y-144.15
X119.15Y-62.6
X119.15Y-84.6
X119.15Y-106.6
X119.15Y-128.6
X119.15Y-150.6
X119.7Y-56.9
X119.7Y-78.9
X119.7Y-100.9
X119.7Y-122.9
X119.7Y-144.9
X119.75Y-64.25
X119.75Y-66.65
X119.75Y-86.25
X119.75Y-88.65
X119.75Y-108.25
X119.75Y-110.65
X119.75Y-130.25
X119.75Y-132.65
X119.75Y-152.25
X119.75Y-154.65
X119.8Y-58.3
X119.8Y-80.3
X119.8Y-102.3
X119.8Y-124.3
X119.8Y-146.3
X120.3Y-56.15
X120.3Y-78.15
X120.3Y-100.15
X120.3Y-122.15
X120.3Y-144.15
X120.9Y-56.9
X120.9Y-78.9
X120.9Y-100.9
X120.9Y-122.9
X120.9Y-144.9
X120.95Y-61.4
X120.95Y-83.4
X120.95Y-105.4
X120.95Y-127.4
X120.95Y-149.4
X121.5Y-56.15
X121.5Y-78.15
X121.5Y-100.15
X121.5Y-122.15
X121.5Y-144.15
X121.55Y-62.6
X121.55Y-84.6
X121.55Y-106.6
X121.55Y-128.6
X121.55Y-150.6
X121.7Y-58.3
X121.7Y-80.3
X121.7Y-102.3
X121.7Y-124.3
X121.7Y-146.3
X122.1Y-56.9
X122.1Y-78.9
X122.1Y-100.9
X122.1Y-122.9
X122.1Y-144.9
X122.125Y-60.725
X122.125Y-82.725
X122.125Y-104.725
X122.125Y-126.725
X122.125Y-148.725
X122.55Y-68.5
X122.55Y-90.5
X122.55Y-112.5
X122.55Y-134.5
X122.55Y-156.5
X122.8Y-56.15
X122.8Y-78.15
X122.8Y-100.15
X122.8Y-122.15
X122.8Y-144.15
X123.35Y-56.9
X123.35Y-78.9
X123.35Y-100.9
X123.35Y-122.9
X123.35Y-144.9
X123.65Y-57.85
X123.65Y-79.85
X123.65Y-101.85
X123.65Y-123.85
X123.65Y-145.85
X123.675Y-59.25
X123.675Y-60.15
X123.675Y-81.25
X123.675Y-82.15
X123.675Y-103.25
X123.675Y-104.15
X123.675Y-125.25
X123.675Y-126.15
X123.675Y-147.25
X123.675Y-148.15
X123.75Y-68.5
X123.75Y-90.5
X123.75Y-112.5
X123.75Y-134.5
X123.75Y-156.5
X124.575Y-58.125
X124.575Y-80.125
X124.575Y-102.125
X124.575Y-124.125
X124.575Y-146.125
X125.3Y-58.125
X125.3Y-80.125
X125.3Y-102.125
X125.3Y-124.125
X125.3Y-146.125
X126.15Y-68.5
X126.15Y-90.5
X126.15Y-112.5
X126.15Y-134.5
X126.15Y-156.5
X127.35Y-68.5
X127.35Y-90.5
X127.35Y-112.5
X127.35Y-134.5
X127.35Y-156.5
X127.7Y-51.25
X127.7Y-73.25
X127.7Y-95.25
X127.7Y-117.25
X127.7Y-139.25
X127.825Y-60.025
X127.825Y-82.025
X127.825Y-104.025
X127.825Y-126.025
X127.825Y-148.025
X128.188Y-61.95
X128.188Y-83.95
X128.188Y-105.95
X128.188Y-127.95
X128.188Y-149.95
X128.938Y-60.8
X128.938Y-82.8
X128.938Y-104.8
X128.938Y-126.8
X128.938Y-148.8
X130.1Y-51.25
X130.1Y-73.25
X130.1Y-95.25
X130.1Y-117.25
X130.1Y-139.25
X131.65Y-54.8
X131.65Y-76.8
X131.65Y-98.8
X131.65Y-120.8
X131.65Y-142.8
X132.1Y-66.5
X132.1Y-68.5
X132.1Y-88.5
X132.1Y-90.5
X132.1Y-110.5
X132.1Y-112.5
X132.1Y-132.5
X132.1Y-134.5
X132.1Y-154.5
X132.1Y-156.5
X132.325Y-52.65
X132.325Y-74.65
X132.325Y-96.65
X132.325Y-118.65
X132.325Y-140.65
X133.3Y-66.5
X133.3Y-68.5
X133.3Y-88.5
X133.3Y-90.5
X133.3Y-110.5
X133.3Y-112.5
X133.3Y-132.5
X133.3Y-134.5
X133.3Y-154.5
X133.3Y-156.5
X133.775Y-51.25
X133.775Y-54.05
X133.775Y-73.25
X133.775Y-76.05
X133.775Y-95.25
X133.775Y-98.05
X133.775Y-117.25
X133.775Y-120.05
X133.775Y-139.25
X133.775Y-142.05
X135.125Y-52.65
X135.125Y-74.65
X135.125Y-96.65
X135.125Y-118.65
X135.125Y-140.65
X136.55Y-66.5
X136.55Y-68.5
X136.55Y-88.5
X136.55Y-90.5
X136.55Y-110.5
X136.55Y-112.5
X136.55Y-132.5
X136.55Y-134.5
X136.55Y-154.5
X136.55Y-156.5
X137.75Y-66.5
X137.75Y-68.5
X137.75Y-88.5
X137.75Y-90.5
X137.75Y-110.5
X137.75Y-112.5
X137.75Y-132.5
X137.75Y-134.5
X137.75Y-154.5
X137.75Y-156.5
X137.9Y-51.25
X137.9Y-54.05
X137.9Y-73.25
X137.9Y-76.05
X137.9Y-95.25
X137.9Y-98.05
X137.9Y-117.25
X137.9Y-120.05
X137.9Y-139.25
X137.9Y-142.05
X141.55Y-64.925
X141.55Y-86.925
X141.55Y-108.925
X141.55Y-130.925
X141.55Y-152.925
X142.925Y-64.925
X142.925Y-86.925
X142.925Y-108.925
X142.925Y-130.925
X142.925Y-152.925
X143.45Y-53.9
X143.45Y-75.9
X143.45Y-97.9
X143.45Y-119.9
X143.45Y-141.9
X144.075Y-57.25
X144.075Y-79.25
X144.075Y-101.25
X144.075Y-123.25
X144.075Y-145.25
X144.575Y-51.75
X144.575Y-73.75
X144.575Y-95.75
X144.575Y-117.75
X144.575Y-139.75
X144.975Y-59.35
X144.975Y-61.75
X144.975Y-81.35
X144.975Y-83.75
X144.975Y-103.35
X144.975Y-105.75
X144.975Y-125.35
X144.975Y-127.75
X144.975Y-147.35
X144.975Y-149.75
X145.25Y-68.025
X145.25Y-90.025
X145.25Y-112.025
X145.25Y-134.025
X145.25Y-156.025
X146.75Y-51.75
X146.75Y-73.75
X146.75Y-95.75
X146.75Y-117.75
X146.75Y-139.75
X147.95Y-51.75
X147.95Y-73.75
X147.95Y-95.75
X147.95Y-117.75
X147.95Y-139.75
X149.4Y-68.025
X149.4Y-90.025
X149.4Y-112.025
X149.4Y-134.025
X149.4Y-156.025
X150.0Y-59.35
X150.0Y-61.75
X150.0Y-81.35
X150.0Y-83.75
X150.0Y-103.35
X150.0Y-105.75
X150.0Y-125.35
X150.0Y-127.75
X150.0Y-147.35
X150.0Y-149.75
X150.7Y-56.65
X150.7Y-78.65
X150.7Y-100.65
X150.7Y-122.65
X150.7Y-144.65
T2
X66.45Y-51.85
X66.45Y-73.85
X66.45Y-95.85
X66.45Y-117.85
X66.45Y-139.85
X69.95Y-54.65
X69.95Y-76.65
X69.95Y-98.65
X69.95Y-120.65
X69.95Y-142.65
X70.337Y-51.912
X70.337Y-73.912
X70.337Y-95.912
X70.337Y-117.912
X70.337Y-139.912
X72.587Y-53.45
X72.587Y-75.45
X72.587Y-97.45
X72.587Y-119.45
X72.587Y-141.45
X72.85Y-62.95
X72.85Y-84.95
X72.85Y-106.95
X72.85Y-128.95
X72.85Y-150.95
X74.287Y-55.837
X74.287Y-77.837
X74.287Y-99.837
X74.287Y-121.837
X74.287Y-143.838
X76.737Y-55.05
X76.737Y-77.05
X76.737Y-99.05
X76.737Y-121.05
X76.737Y-143.05
X77.037Y-65.7
X77.037Y-87.7
X77.037Y-109.7
X77.037Y-131.7
X77.037Y-153.7
X90.65Y-67.5
X90.65Y-89.5
X90.65Y-111.5
X90.65Y-133.5
X90.65Y-155.5
X118.45Y-51.85
X118.45Y-73.85
X118.45Y-95.85
X118.45Y-117.85
X118.45Y-139.85
X121.95Y-54.65
X121.95Y-76.65
X121.95Y-98.65
X121.95Y-120.65
X121.95Y-142.65
X122.337Y-51.912
X122.337Y-73.912
X122.337Y-95.912
X122.337Y-117.912
X122.337Y-139.912
X124.587Y-53.45
X124.587Y-75.45
X124.587Y-97.45
X124.587Y-119.45
X124.587Y-141.45
X124.85Y-62.95
X124.85Y-84.95
X124.85Y-106.95
X124.85Y-128.95
X124.85Y-150.95
X126.287Y-55.837
X126.287Y-77.837
X126.287Y-99.837
X126.287Y-121.837
X126.287Y-143.838
X128.737Y-55.05
X128.737Y-77.05
X128.737Y-99.05
X128.737Y-121.05
X128.737Y-143.05
X129.037Y-65.7
X129.037Y-87.7
X129.037Y-109.7
X129.037Y-131.7
X129.037Y-153.7
X142.65Y-67.5
X142.65Y-89.5
X142.65Y-111.5
X142.65Y-133.5
X142.65Y-155.5
T3
X61.317Y-64.44
X61.317Y-86.44
X61.317Y-108.44
X61.317Y-130.44
X61.317Y-152.44
X63.817Y-64.44
X63.817Y-86.44
X63.817Y-108.44
X63.817Y-130.44
X63.817Y-152.44
X113.317Y-64.44
X113.317Y-86.44
X113.317Y-108.44
X113.317Y-130.44
X113.317Y-152.44
X115.817Y-64.44
X115.817Y-86.44
X115.817Y-108.44
X115.817Y-130.44
X115.817Y-152.44
T4
X53.398Y-52.13
X53.398Y-67.37
X53.398Y-74.13
X53.398Y-89.37
X53.398Y-96.13
X53.398Y-111.37
X53.398Y-118.13
X53.398Y-133.37
X53.398Y-140.13
X53.398Y-155.37
X55.938Y-52.13
X55.938Y-67.37
X55.938Y-74.13
X55.938Y-89.37
X55.938Y-96.13
X55.938Y-111.37
X55.938Y-118.13
X55.938Y-133.37
X55.938Y-140.13
X55.938Y-155.37
X94.037Y-54.67
X94.037Y-64.83
X94.037Y-76.67
X94.037Y-86.83
X94.037Y-98.67
X94.037Y-108.83
X94.037Y-120.67
X94.037Y-130.83
X94.037Y-142.67
X94.037Y-152.83
X96.578Y-54.67
X96.578Y-64.83
X96.578Y-76.67
X96.578Y-86.83
X96.578Y-98.67
X96.578Y-108.83
X96.578Y-120.67
X96.578Y-130.83
X96.578Y-142.67
X96.578Y-152.83
X105.397Y-52.13
X105.397Y-67.37
X105.397Y-74.13
X105.397Y-89.37
X105.397Y-96.13
X105.397Y-111.37
X105.397Y-118.13
X105.397Y-133.37
X105.397Y-140.13
X105.397Y-155.37
X107.938Y-52.13
X107.938Y-67.37
X107.938Y-74.13
X107.938Y-89.37
X107.938Y-96.13
X107.938Y-111.37
X107.938Y-118.13
X107.938Y-133.37
X107.938Y-140.13
X107.938Y-155.37
X146.037Y-54.67
X146.037Y-64.83
X146.037Y-76.67
X146.037Y-86.83
X146.037Y-98.67
X146.037Y-108.83
X146.037Y-120.67
X146.037Y-130.83
X146.037Y-142.67
X146.037Y-152.83
X148.577Y-54.67
X148.577Y-64.83
X148.577Y-76.67
X148.577Y-86.83
X148.577Y-98.67
X148.577Y-108.83
X148.577Y-120.67
X148.577Y-130.83
X148.577Y-142.67
X148.577Y-152.83
M30
