G04 #@! TF.GenerationSoftware,KiCad,Pcbnew,8.0.5*
G04 #@! TF.CreationDate,2024-10-13T18:51:58+02:00*
G04 #@! TF.ProjectId,DCDC_converter,44434443-5f63-46f6-9e76-65727465722e,rev?*
G04 #@! TF.SameCoordinates,Original*
G04 #@! TF.FileFunction,Copper,L1,Top*
G04 #@! TF.FilePolarity,Positive*
%FSLAX46Y46*%
G04 Gerber Fmt 4.6, Leading zero omitted, Abs format (unit mm)*
G04 Created by KiCad (PCBNEW 8.0.5) date 2024-10-13 18:51:58*
%MOMM*%
%LPD*%
G01*
G04 APERTURE LIST*
G04 Aperture macros list*
%AMRoundRect*
0 Rectangle with rounded corners*
0 $1 Rounding radius*
0 $2 $3 $4 $5 $6 $7 $8 $9 X,Y pos of 4 corners*
0 Add a 4 corners polygon primitive as box body*
4,1,4,$2,$3,$4,$5,$6,$7,$8,$9,$2,$3,0*
0 Add four circle primitives for the rounded corners*
1,1,$1+$1,$2,$3*
1,1,$1+$1,$4,$5*
1,1,$1+$1,$6,$7*
1,1,$1+$1,$8,$9*
0 Add four rect primitives between the rounded corners*
20,1,$1+$1,$2,$3,$4,$5,0*
20,1,$1+$1,$4,$5,$6,$7,0*
20,1,$1+$1,$6,$7,$8,$9,0*
20,1,$1+$1,$8,$9,$2,$3,0*%
G04 Aperture macros list end*
G04 #@! TA.AperFunction,SMDPad,CuDef*
%ADD10R,2.413000X5.334000*%
G04 #@! TD*
G04 #@! TA.AperFunction,SMDPad,CuDef*
%ADD11C,0.500000*%
G04 #@! TD*
G04 #@! TA.AperFunction,SMDPad,CuDef*
%ADD12RoundRect,0.250000X0.250000X0.475000X-0.250000X0.475000X-0.250000X-0.475000X0.250000X-0.475000X0*%
G04 #@! TD*
G04 #@! TA.AperFunction,SMDPad,CuDef*
%ADD13RoundRect,0.200000X-0.200000X-0.275000X0.200000X-0.275000X0.200000X0.275000X-0.200000X0.275000X0*%
G04 #@! TD*
G04 #@! TA.AperFunction,SMDPad,CuDef*
%ADD14RoundRect,0.250000X-0.475000X0.250000X-0.475000X-0.250000X0.475000X-0.250000X0.475000X0.250000X0*%
G04 #@! TD*
G04 #@! TA.AperFunction,SMDPad,CuDef*
%ADD15RoundRect,0.200000X-0.275000X0.200000X-0.275000X-0.200000X0.275000X-0.200000X0.275000X0.200000X0*%
G04 #@! TD*
G04 #@! TA.AperFunction,SMDPad,CuDef*
%ADD16RoundRect,0.200000X0.275000X-0.200000X0.275000X0.200000X-0.275000X0.200000X-0.275000X-0.200000X0*%
G04 #@! TD*
G04 #@! TA.AperFunction,SMDPad,CuDef*
%ADD17RoundRect,0.225000X0.225000X0.250000X-0.225000X0.250000X-0.225000X-0.250000X0.225000X-0.250000X0*%
G04 #@! TD*
G04 #@! TA.AperFunction,ComponentPad*
%ADD18O,1.700000X1.700000*%
G04 #@! TD*
G04 #@! TA.AperFunction,ComponentPad*
%ADD19R,1.700000X1.700000*%
G04 #@! TD*
G04 #@! TA.AperFunction,SMDPad,CuDef*
%ADD20RoundRect,0.200000X0.200000X0.275000X-0.200000X0.275000X-0.200000X-0.275000X0.200000X-0.275000X0*%
G04 #@! TD*
G04 #@! TA.AperFunction,ComponentPad*
%ADD21R,1.600000X1.600000*%
G04 #@! TD*
G04 #@! TA.AperFunction,ComponentPad*
%ADD22C,1.600000*%
G04 #@! TD*
G04 #@! TA.AperFunction,SMDPad,CuDef*
%ADD23RoundRect,0.218750X-0.218750X-0.256250X0.218750X-0.256250X0.218750X0.256250X-0.218750X0.256250X0*%
G04 #@! TD*
G04 #@! TA.AperFunction,SMDPad,CuDef*
%ADD24RoundRect,0.225000X0.250000X-0.225000X0.250000X0.225000X-0.250000X0.225000X-0.250000X-0.225000X0*%
G04 #@! TD*
G04 #@! TA.AperFunction,SMDPad,CuDef*
%ADD25RoundRect,0.225000X-0.250000X0.225000X-0.250000X-0.225000X0.250000X-0.225000X0.250000X0.225000X0*%
G04 #@! TD*
G04 #@! TA.AperFunction,SMDPad,CuDef*
%ADD26R,1.500000X0.300000*%
G04 #@! TD*
G04 #@! TA.AperFunction,SMDPad,CuDef*
%ADD27R,0.250000X0.700000*%
G04 #@! TD*
G04 #@! TA.AperFunction,SMDPad,CuDef*
%ADD28R,0.700000X0.300000*%
G04 #@! TD*
G04 #@! TA.AperFunction,ViaPad*
%ADD29C,0.600000*%
G04 #@! TD*
G04 #@! TA.AperFunction,ViaPad*
%ADD30C,0.450000*%
G04 #@! TD*
G04 #@! TA.AperFunction,ViaPad*
%ADD31C,0.800000*%
G04 #@! TD*
G04 #@! TA.AperFunction,Conductor*
%ADD32C,0.400000*%
G04 #@! TD*
G04 #@! TA.AperFunction,Conductor*
%ADD33C,0.500000*%
G04 #@! TD*
G04 #@! TA.AperFunction,Conductor*
%ADD34C,0.300000*%
G04 #@! TD*
G04 #@! TA.AperFunction,Conductor*
%ADD35C,0.250000*%
G04 #@! TD*
G04 #@! TA.AperFunction,Conductor*
%ADD36C,1.000000*%
G04 #@! TD*
G04 #@! TA.AperFunction,Conductor*
%ADD37C,0.200000*%
G04 #@! TD*
G04 APERTURE END LIST*
D10*
X82561000Y-60000000D03*
X89800000Y-60000000D03*
D11*
X59000000Y-68500000D03*
X98000000Y-51500000D03*
D12*
X89654998Y-53640000D03*
X87755000Y-53640000D03*
D13*
X67312500Y-51275000D03*
X68962500Y-51275000D03*
D14*
X68772500Y-57735000D03*
X68772500Y-59634998D03*
D12*
X89704998Y-68460000D03*
X87805000Y-68460000D03*
D15*
X77537500Y-52820000D03*
X77537500Y-54470000D03*
D16*
X73732500Y-54475000D03*
X73732500Y-52825000D03*
D17*
X68922500Y-53050000D03*
X67372500Y-53050000D03*
D13*
X71242500Y-64655000D03*
X72892500Y-64655000D03*
X67327500Y-54660000D03*
X68977500Y-54660000D03*
D18*
X96577500Y-64830000D03*
D19*
X94037500Y-64830000D03*
D18*
X96577500Y-54670000D03*
D19*
X94037500Y-54670000D03*
D20*
X76722500Y-63125000D03*
X75072500Y-63125000D03*
D21*
X61317500Y-64440000D03*
D22*
X63817500Y-64440000D03*
D23*
X70850000Y-51275000D03*
X72425000Y-51275000D03*
D24*
X79182500Y-58095000D03*
X79182500Y-56545000D03*
D18*
X53397500Y-67370000D03*
D19*
X55937500Y-67370000D03*
D13*
X71242500Y-66115000D03*
X72892500Y-66115000D03*
X75072500Y-61665000D03*
X76722500Y-61665000D03*
D16*
X71605000Y-54475000D03*
X71605000Y-52825000D03*
D17*
X76672500Y-64655000D03*
X75122500Y-64655000D03*
D14*
X66812500Y-57735002D03*
X66812500Y-59635000D03*
D18*
X53397500Y-52130000D03*
D19*
X55937500Y-52130000D03*
D12*
X89704998Y-66500000D03*
X87805000Y-66500000D03*
X89654999Y-51680000D03*
X87755001Y-51680000D03*
D25*
X70482500Y-57925000D03*
X70482500Y-59475000D03*
D14*
X64852500Y-57735002D03*
X64852500Y-59635000D03*
D13*
X76142500Y-56565000D03*
X77792500Y-56565000D03*
D26*
X73012500Y-57755000D03*
X73012500Y-59055000D03*
D27*
X73062500Y-59855000D03*
X73562500Y-59855000D03*
X74062500Y-59855000D03*
X74562500Y-59855000D03*
D28*
X75012500Y-59055000D03*
D26*
X74612500Y-58405000D03*
D28*
X75012500Y-57755000D03*
D27*
X74562500Y-56955000D03*
X74062500Y-56955000D03*
X73562500Y-56955000D03*
X73062500Y-56955000D03*
D17*
X72742500Y-61395000D03*
X71192500Y-61395000D03*
D16*
X75637500Y-54470000D03*
X75637500Y-52820000D03*
D29*
X67750000Y-64250000D03*
X51550000Y-61150000D03*
X65100000Y-53000000D03*
X70125000Y-60725000D03*
X75700000Y-51250000D03*
X56350000Y-62450000D03*
X62250000Y-68500000D03*
X56800000Y-64900000D03*
X68950000Y-61400000D03*
X71675000Y-60150000D03*
X64650000Y-68500000D03*
X69550000Y-62600000D03*
X92975000Y-59350000D03*
X67750000Y-66650000D03*
X60300000Y-53000000D03*
X84550000Y-68500000D03*
X63900000Y-51800000D03*
X53950000Y-63700000D03*
X57550000Y-61150000D03*
X75825000Y-60025000D03*
X81300000Y-66500000D03*
X81775000Y-51250000D03*
X85750000Y-68500000D03*
X57550000Y-63700000D03*
X71675000Y-59250000D03*
X66300000Y-66650000D03*
X83125000Y-52650000D03*
X52000000Y-64900000D03*
X55150000Y-61150000D03*
X79650000Y-54800000D03*
X98000000Y-59350000D03*
X98000000Y-61750000D03*
X62700000Y-53000000D03*
X71750000Y-68500000D03*
X93250000Y-68025000D03*
X81775000Y-54050000D03*
X61500000Y-51800000D03*
X65850000Y-68500000D03*
X85750000Y-66500000D03*
X52775000Y-62450000D03*
X76937500Y-60800000D03*
X61500000Y-54200000D03*
X63900000Y-54200000D03*
X80325000Y-52650000D03*
X84550000Y-66500000D03*
X66550000Y-61400000D03*
X97400000Y-68025000D03*
X67150000Y-62600000D03*
X76187500Y-61950000D03*
X85900000Y-54050000D03*
X51550000Y-63700000D03*
X66300000Y-64250000D03*
X85900000Y-51250000D03*
X74150000Y-68500000D03*
X53950000Y-61150000D03*
X80100000Y-66500000D03*
X81300000Y-68500000D03*
X78100000Y-51250000D03*
X55150000Y-63700000D03*
X61050000Y-68500000D03*
X70550000Y-68500000D03*
X80100000Y-68500000D03*
X92975000Y-61750000D03*
X75350000Y-68500000D03*
X59800000Y-63650000D03*
X60400000Y-56850000D03*
X61000000Y-61250000D03*
X71650000Y-57850000D03*
X52200000Y-55175000D03*
X69700000Y-58300000D03*
X65900000Y-56150000D03*
X69500000Y-56150000D03*
X68900000Y-56900000D03*
X67800000Y-58300000D03*
X70100000Y-56900000D03*
X60400000Y-58550000D03*
X67100000Y-56150000D03*
X53400000Y-57800000D03*
X58200000Y-55175000D03*
X57000000Y-55175000D03*
X57000000Y-57800000D03*
X71350000Y-56900000D03*
X67700000Y-56900000D03*
X65300000Y-56900000D03*
D30*
X73300000Y-58125000D03*
D29*
X52200000Y-57800000D03*
X68300000Y-56150000D03*
X70800000Y-56150000D03*
X59800000Y-62450000D03*
X58200000Y-57800000D03*
X53400000Y-55175000D03*
X64700000Y-56150000D03*
X65850000Y-58300000D03*
X54600000Y-56600000D03*
X62000000Y-57650000D03*
X66500000Y-56900000D03*
D30*
X72575000Y-58125000D03*
D29*
X59800000Y-60050000D03*
X59800000Y-64850000D03*
X61000000Y-62450000D03*
X55800000Y-56600000D03*
D31*
X69950000Y-54650000D03*
X74287500Y-55837500D03*
X72850000Y-62950000D03*
X72587500Y-53450000D03*
X76737500Y-55050000D03*
D29*
X98700000Y-56650000D03*
X95950000Y-51750000D03*
X91450000Y-53900000D03*
X92075000Y-57250000D03*
D31*
X77037500Y-65700000D03*
D29*
X89550000Y-64925000D03*
X94750000Y-51750000D03*
X92575000Y-51750000D03*
X90925000Y-64925000D03*
D31*
X90650000Y-67500000D03*
X70337500Y-51912500D03*
X66450000Y-51850000D03*
D32*
X67327500Y-54660000D02*
X67327500Y-55960000D01*
D33*
X68922500Y-53050000D02*
X68922500Y-54605000D01*
D32*
X69940000Y-54660000D02*
X68977500Y-54660000D01*
D33*
X68922500Y-54605000D02*
X68977500Y-54660000D01*
D34*
X74062500Y-56062500D02*
X74062500Y-56955000D01*
D32*
X69950000Y-54650000D02*
X69940000Y-54660000D01*
D35*
X69950000Y-54650000D02*
X69630000Y-54650000D01*
D34*
X74287500Y-55837500D02*
X74062500Y-56062500D01*
D33*
X72737500Y-62800000D02*
X72887500Y-62950000D01*
D34*
X76737500Y-55050000D02*
X77317500Y-54470000D01*
D32*
X72850000Y-63047500D02*
X71242500Y-64655000D01*
D34*
X71962500Y-52825000D02*
X72587500Y-53450000D01*
D32*
X72687500Y-62845000D02*
X72687500Y-63155000D01*
D33*
X72737500Y-61400000D02*
X72737500Y-62800000D01*
D32*
X72425000Y-52005000D02*
X71605000Y-52825000D01*
D33*
X72742500Y-61395000D02*
X72737500Y-61400000D01*
D35*
X73062500Y-59855000D02*
X73062500Y-61045000D01*
D34*
X77317500Y-54470000D02*
X77537500Y-54470000D01*
D35*
X73062500Y-61045000D02*
X72712500Y-61395000D01*
D34*
X71605000Y-52825000D02*
X71962500Y-52825000D01*
D32*
X72425000Y-51275000D02*
X72425000Y-52005000D01*
X71242500Y-66115000D02*
X71242500Y-64655000D01*
X72850000Y-62950000D02*
X72850000Y-63047500D01*
D36*
X77937500Y-56500000D02*
X79137500Y-56500000D01*
D33*
X79122500Y-56565000D02*
X79137500Y-56550000D01*
D34*
X74667500Y-58350000D02*
X74612500Y-58405000D01*
D32*
X75218750Y-58350000D02*
X76181250Y-58350000D01*
D34*
X75218750Y-58350000D02*
X74667500Y-58350000D01*
D32*
X76687500Y-64650000D02*
X77037500Y-65000000D01*
X77037500Y-65000000D02*
X77037500Y-65700000D01*
X76722500Y-64615000D02*
X76687500Y-64650000D01*
X76722500Y-63125000D02*
X76722500Y-64615000D01*
D34*
X75072500Y-63135000D02*
X75087500Y-63150000D01*
X75072500Y-61665000D02*
X75072500Y-63135000D01*
D37*
X74562500Y-59855000D02*
X74562500Y-60525000D01*
X75337500Y-61350000D02*
X75087500Y-61600000D01*
X74562500Y-60525000D02*
X75337500Y-61300000D01*
X75087500Y-61600000D02*
X75087500Y-61650000D01*
D34*
X75122500Y-64655000D02*
X75122500Y-63135000D01*
X75122500Y-63135000D02*
X75087500Y-63100000D01*
D37*
X75337500Y-61300000D02*
X75337500Y-61350000D01*
D35*
X73687500Y-63900000D02*
X72937500Y-64650000D01*
X73687500Y-60887437D02*
X73687500Y-63900000D01*
X73562500Y-59855000D02*
X73562500Y-60762437D01*
X73562500Y-60762437D02*
X73687500Y-60887437D01*
X74062500Y-60626041D02*
X74187500Y-60751041D01*
X74187500Y-60751041D02*
X74187500Y-64800000D01*
X74062500Y-59855000D02*
X74062500Y-60626041D01*
X74187500Y-64800000D02*
X72887500Y-66100000D01*
X73562500Y-54645000D02*
X73732500Y-54475000D01*
X73562500Y-56955000D02*
X73562500Y-54645000D01*
X76142500Y-56565000D02*
X76142500Y-56625000D01*
X76142500Y-56625000D02*
X75012500Y-57755000D01*
D34*
X68962500Y-51275000D02*
X68962500Y-51631739D01*
D35*
X71605000Y-54475000D02*
X71745000Y-54475000D01*
D34*
X71745000Y-54475000D02*
X73062500Y-55792500D01*
X68962500Y-51631739D02*
X71745000Y-54414239D01*
X73062500Y-55792500D02*
X73062500Y-56955000D01*
X71745000Y-54414239D02*
X71745000Y-54475000D01*
X74562500Y-56747500D02*
X74562500Y-56955000D01*
X75637500Y-54470000D02*
X75637500Y-55672500D01*
D35*
X75637500Y-54470000D02*
X75562500Y-54395000D01*
D34*
X75637500Y-55672500D02*
X74562500Y-56747500D01*
D35*
X77537500Y-52820000D02*
X77287500Y-52820000D01*
X75562500Y-54395000D02*
X75562500Y-54385000D01*
X77287500Y-52820000D02*
X75637500Y-54470000D01*
X70850000Y-51400000D02*
X70337500Y-51912500D01*
X66450000Y-51850000D02*
X67025000Y-51275000D01*
D34*
X70850000Y-51275000D02*
X70850000Y-51400000D01*
X67025000Y-51275000D02*
X67312500Y-51275000D01*
G04 #@! TA.AperFunction,Conductor*
G36*
X57658303Y-50520185D02*
G01*
X57678565Y-50536440D01*
X57891416Y-50747472D01*
X57912943Y-50776101D01*
X57931816Y-50810664D01*
X57931820Y-50810670D01*
X57966860Y-50857477D01*
X57966864Y-50857481D01*
X57966871Y-50857491D01*
X57966878Y-50857498D01*
X58558181Y-51448801D01*
X58591666Y-51510124D01*
X58594500Y-51536482D01*
X58594500Y-54448638D01*
X58595678Y-54470618D01*
X58598511Y-54496965D01*
X58598512Y-54496967D01*
X58622470Y-54573478D01*
X58622471Y-54573483D01*
X58636872Y-54599855D01*
X58655956Y-54634805D01*
X58655958Y-54634808D01*
X58655960Y-54634811D01*
X58690998Y-54681615D01*
X58691002Y-54681619D01*
X58691009Y-54681629D01*
X58691016Y-54681636D01*
X59618365Y-55608986D01*
X59618366Y-55608987D01*
X59634716Y-55623674D01*
X59634730Y-55623686D01*
X59634738Y-55623693D01*
X59643136Y-55630460D01*
X59655379Y-55640327D01*
X59726424Y-55677490D01*
X59793456Y-55697173D01*
X59793458Y-55697173D01*
X59793464Y-55697175D01*
X59851362Y-55705500D01*
X59851366Y-55705500D01*
X66802991Y-55705500D01*
X66803000Y-55705500D01*
X66846684Y-55700803D01*
X66884488Y-55692579D01*
X66898174Y-55689602D01*
X66898190Y-55689598D01*
X66898195Y-55689597D01*
X66908373Y-55687110D01*
X66987305Y-55645048D01*
X67046129Y-55630481D01*
X71698285Y-55649785D01*
X71765241Y-55669748D01*
X71786236Y-55686896D01*
X72401967Y-56313821D01*
X72434899Y-56375443D01*
X72437500Y-56400709D01*
X72437500Y-57525000D01*
X73413500Y-57525000D01*
X73480539Y-57544685D01*
X73526294Y-57597489D01*
X73537500Y-57649000D01*
X73537500Y-58220500D01*
X73517815Y-58287539D01*
X73465011Y-58333294D01*
X73413500Y-58344500D01*
X73346389Y-58344500D01*
X73330292Y-58345132D01*
X73309725Y-58346750D01*
X73290278Y-58346750D01*
X73269710Y-58345132D01*
X73253611Y-58344500D01*
X73253598Y-58344500D01*
X72621402Y-58344500D01*
X72621389Y-58344500D01*
X72605292Y-58345132D01*
X72584725Y-58346750D01*
X72565278Y-58346750D01*
X72544710Y-58345132D01*
X72528611Y-58344500D01*
X72528598Y-58344500D01*
X71801362Y-58344500D01*
X71801361Y-58344500D01*
X71779381Y-58345678D01*
X71753034Y-58348511D01*
X71753032Y-58348512D01*
X71676521Y-58372470D01*
X71676516Y-58372471D01*
X71615188Y-58405960D01*
X71568384Y-58440998D01*
X71568363Y-58441016D01*
X71451199Y-58558181D01*
X71389876Y-58591666D01*
X71363518Y-58594500D01*
X69784307Y-58594500D01*
X69773892Y-58594872D01*
X69772528Y-58594921D01*
X69768100Y-58595000D01*
X69631900Y-58595000D01*
X69627472Y-58594921D01*
X69626107Y-58594872D01*
X69615693Y-58594500D01*
X67884307Y-58594500D01*
X67873892Y-58594872D01*
X67872528Y-58594921D01*
X67868100Y-58595000D01*
X67731900Y-58595000D01*
X67727472Y-58594921D01*
X67726107Y-58594872D01*
X67715693Y-58594500D01*
X65934307Y-58594500D01*
X65923892Y-58594872D01*
X65922528Y-58594921D01*
X65918100Y-58595000D01*
X65781900Y-58595000D01*
X65777472Y-58594921D01*
X65776107Y-58594872D01*
X65765693Y-58594500D01*
X63601362Y-58594500D01*
X63601361Y-58594500D01*
X63579381Y-58595678D01*
X63546979Y-58599163D01*
X63546916Y-58598578D01*
X63533117Y-58600000D01*
X63437500Y-58600000D01*
X62913244Y-59146099D01*
X62911473Y-59147906D01*
X62341014Y-59718365D01*
X62341012Y-59718366D01*
X62326325Y-59734716D01*
X62326302Y-59734743D01*
X62309675Y-59755376D01*
X62309669Y-59755386D01*
X62295516Y-59782442D01*
X62275095Y-59810837D01*
X62237501Y-59849998D01*
X62237500Y-59850001D01*
X62237500Y-65520500D01*
X62217815Y-65587539D01*
X62165011Y-65633294D01*
X62113500Y-65644500D01*
X59433362Y-65644500D01*
X59366323Y-65624815D01*
X59345681Y-65608181D01*
X58573819Y-64836319D01*
X58540334Y-64774996D01*
X58537500Y-64748638D01*
X58537500Y-60290000D01*
X58537499Y-60289999D01*
X58224313Y-59980110D01*
X58190504Y-59918965D01*
X58188058Y-59880525D01*
X58190887Y-59850001D01*
X58204786Y-59700000D01*
X58187678Y-59515371D01*
X58136935Y-59337029D01*
X58134684Y-59332509D01*
X58096649Y-59256124D01*
X58054286Y-59171048D01*
X57942546Y-59023080D01*
X57942544Y-59023077D01*
X57805519Y-58898163D01*
X57805517Y-58898161D01*
X57647875Y-58800553D01*
X57647869Y-58800551D01*
X57474973Y-58733571D01*
X57292710Y-58699500D01*
X57265892Y-58699500D01*
X52865892Y-58699500D01*
X52800000Y-58699500D01*
X52707290Y-58699500D01*
X52525027Y-58733571D01*
X52525024Y-58733571D01*
X52525024Y-58733572D01*
X52352130Y-58800551D01*
X52352124Y-58800553D01*
X52194482Y-58898161D01*
X52194480Y-58898163D01*
X52057455Y-59023077D01*
X51945714Y-59171047D01*
X51890829Y-59281272D01*
X51843326Y-59332509D01*
X51779829Y-59350000D01*
X51551362Y-59350000D01*
X51484323Y-59330315D01*
X51463681Y-59313681D01*
X50536819Y-58386819D01*
X50503334Y-58325496D01*
X50500500Y-58299138D01*
X50500500Y-50996195D01*
X50520185Y-50929156D01*
X50536434Y-50908900D01*
X50904932Y-50537198D01*
X50966110Y-50503449D01*
X50992992Y-50500500D01*
X57591264Y-50500500D01*
X57658303Y-50520185D01*
G37*
G04 #@! TD.AperFunction*
G04 #@! TA.AperFunction,Conductor*
G36*
X88543039Y-50520185D02*
G01*
X88588794Y-50572989D01*
X88600000Y-50624500D01*
X88600000Y-54848638D01*
X88580315Y-54915677D01*
X88563681Y-54936319D01*
X88386319Y-55113681D01*
X88324996Y-55147166D01*
X88298638Y-55150000D01*
X82149999Y-55150000D01*
X80186319Y-57113681D01*
X80124996Y-57147166D01*
X80098638Y-57150000D01*
X79918780Y-57150000D01*
X79851741Y-57130315D01*
X79805986Y-57077511D01*
X79796042Y-57008353D01*
X79808295Y-56969706D01*
X79818659Y-56949364D01*
X79842219Y-56903126D01*
X79842219Y-56903124D01*
X79842220Y-56903123D01*
X79858000Y-56803493D01*
X79858000Y-56286506D01*
X79842220Y-56186878D01*
X79842219Y-56186876D01*
X79842219Y-56186874D01*
X79781028Y-56066780D01*
X79781026Y-56066778D01*
X79781023Y-56066774D01*
X79685725Y-55971476D01*
X79685722Y-55971474D01*
X79685720Y-55971472D01*
X79604100Y-55929884D01*
X79565623Y-55910279D01*
X79527176Y-55904190D01*
X79477688Y-55884822D01*
X79469308Y-55879223D01*
X79341832Y-55826421D01*
X79341822Y-55826418D01*
X79206495Y-55799500D01*
X79206493Y-55799500D01*
X77868507Y-55799500D01*
X77868505Y-55799500D01*
X77733178Y-55826418D01*
X77733174Y-55826419D01*
X77699013Y-55840569D01*
X77649223Y-55849985D01*
X77024789Y-55838203D01*
X76958133Y-55817257D01*
X76913382Y-55763599D01*
X76904745Y-55694266D01*
X76934964Y-55631269D01*
X76979674Y-55599664D01*
X77040341Y-55574536D01*
X77165782Y-55478282D01*
X77262036Y-55352841D01*
X77322544Y-55206762D01*
X77326289Y-55178313D01*
X77354555Y-55114417D01*
X77412880Y-55075946D01*
X77449228Y-55070499D01*
X77844017Y-55070499D01*
X77844018Y-55070499D01*
X77937804Y-55055646D01*
X78050842Y-54998050D01*
X78140550Y-54908342D01*
X78198146Y-54795304D01*
X78198146Y-54795302D01*
X78198147Y-54795301D01*
X78212999Y-54701524D01*
X78213000Y-54701519D01*
X78212999Y-54238482D01*
X78201526Y-54166037D01*
X78200000Y-54146641D01*
X78200000Y-53147728D01*
X78201624Y-53147728D01*
X78200927Y-53127744D01*
X78212999Y-53051523D01*
X78213000Y-53051519D01*
X78212999Y-52588482D01*
X78198146Y-52494696D01*
X78140550Y-52381658D01*
X78140546Y-52381654D01*
X78140545Y-52381652D01*
X78050847Y-52291954D01*
X78050844Y-52291952D01*
X78050842Y-52291950D01*
X77970303Y-52250913D01*
X77937801Y-52234352D01*
X77844024Y-52219500D01*
X77230982Y-52219500D01*
X77150019Y-52232323D01*
X77137196Y-52234354D01*
X77024158Y-52291950D01*
X77024157Y-52291951D01*
X77024152Y-52291954D01*
X76934454Y-52381652D01*
X76934451Y-52381657D01*
X76934450Y-52381658D01*
X76915251Y-52419337D01*
X76876852Y-52494698D01*
X76862000Y-52588475D01*
X76862000Y-52733810D01*
X76842315Y-52800849D01*
X76825681Y-52821491D01*
X76437269Y-53209902D01*
X76375946Y-53243387D01*
X76352688Y-53246182D01*
X76200000Y-53249999D01*
X76200000Y-53395810D01*
X76180315Y-53462849D01*
X76163681Y-53483491D01*
X75813990Y-53833181D01*
X75752667Y-53866666D01*
X75726309Y-53869500D01*
X75330982Y-53869500D01*
X75250019Y-53882323D01*
X75237196Y-53884354D01*
X75124158Y-53941950D01*
X75124157Y-53941951D01*
X75124152Y-53941954D01*
X75034454Y-54031652D01*
X75034451Y-54031657D01*
X75034450Y-54031658D01*
X75022209Y-54055682D01*
X74976852Y-54144698D01*
X74962000Y-54238475D01*
X74962000Y-54701517D01*
X74972792Y-54769657D01*
X74976854Y-54795304D01*
X75034450Y-54908342D01*
X75034452Y-54908344D01*
X75034454Y-54908347D01*
X75124152Y-54998045D01*
X75124156Y-54998048D01*
X75124158Y-54998050D01*
X75219297Y-55046526D01*
X75270091Y-55094499D01*
X75287000Y-55157009D01*
X75287000Y-55475955D01*
X75267315Y-55542994D01*
X75250681Y-55563636D01*
X75079575Y-55734742D01*
X75018252Y-55768227D01*
X74948560Y-55763243D01*
X74892627Y-55721371D01*
X74876389Y-55687942D01*
X74875654Y-55688247D01*
X74838962Y-55599664D01*
X74812036Y-55534659D01*
X74715782Y-55409218D01*
X74590341Y-55312964D01*
X74444262Y-55252456D01*
X74421196Y-55249419D01*
X74293529Y-55232611D01*
X74229633Y-55204344D01*
X74191162Y-55146019D01*
X74190331Y-55076155D01*
X74227403Y-55016932D01*
X74238417Y-55009426D01*
X74237950Y-55008783D01*
X74245835Y-55003053D01*
X74245842Y-55003050D01*
X74335550Y-54913342D01*
X74393146Y-54800304D01*
X74393146Y-54800302D01*
X74393147Y-54800301D01*
X74407999Y-54706524D01*
X74408000Y-54706519D01*
X74407999Y-54243482D01*
X74393146Y-54149696D01*
X74335550Y-54036658D01*
X74335546Y-54036654D01*
X74335545Y-54036652D01*
X74245847Y-53946954D01*
X74245844Y-53946952D01*
X74245842Y-53946950D01*
X74132804Y-53889354D01*
X74132802Y-53889353D01*
X74132801Y-53889353D01*
X74104600Y-53884886D01*
X74041466Y-53854956D01*
X74004536Y-53795644D01*
X74000000Y-53762413D01*
X74000000Y-53400000D01*
X73295344Y-53400000D01*
X73228305Y-53380315D01*
X73182550Y-53327511D01*
X73174939Y-53301009D01*
X73174647Y-53301088D01*
X73172544Y-53293243D01*
X73172544Y-53293238D01*
X73112036Y-53147159D01*
X73015782Y-53021718D01*
X72890341Y-52925464D01*
X72744262Y-52864956D01*
X72723851Y-52862268D01*
X72637082Y-52850845D01*
X72573186Y-52822578D01*
X72565587Y-52815587D01*
X72537681Y-52787681D01*
X72504196Y-52726358D01*
X72509180Y-52656666D01*
X72537681Y-52612319D01*
X72655303Y-52494697D01*
X72850000Y-52300000D01*
X72850000Y-51969262D01*
X72869685Y-51902223D01*
X72887920Y-51883128D01*
X72886350Y-51881558D01*
X72893248Y-51874659D01*
X72893251Y-51874658D01*
X72987158Y-51780751D01*
X73047451Y-51662420D01*
X73047451Y-51662418D01*
X73047452Y-51662417D01*
X73063000Y-51564251D01*
X73063000Y-50985748D01*
X73047452Y-50887582D01*
X73047451Y-50887580D01*
X72987158Y-50769249D01*
X72987154Y-50769245D01*
X72987153Y-50769243D01*
X72930091Y-50712181D01*
X72896606Y-50650858D01*
X72901590Y-50581166D01*
X72943462Y-50525233D01*
X73008926Y-50500816D01*
X73017772Y-50500500D01*
X88476000Y-50500500D01*
X88543039Y-50520185D01*
G37*
G04 #@! TD.AperFunction*
G04 #@! TA.AperFunction,Conductor*
G36*
X66813284Y-50520185D02*
G01*
X66859039Y-50572989D01*
X66868983Y-50642147D01*
X66839958Y-50705703D01*
X66833926Y-50712181D01*
X66784454Y-50761652D01*
X66784451Y-50761657D01*
X66726852Y-50874698D01*
X66712000Y-50968475D01*
X66712000Y-51076311D01*
X66692315Y-51143350D01*
X66675680Y-51163993D01*
X66621683Y-51217989D01*
X66560360Y-51251473D01*
X66517818Y-51253246D01*
X66450001Y-51244318D01*
X66449999Y-51244318D01*
X66293239Y-51264955D01*
X66293237Y-51264956D01*
X66147160Y-51325463D01*
X66021718Y-51421718D01*
X65925463Y-51547160D01*
X65864956Y-51693237D01*
X65864955Y-51693239D01*
X65844318Y-51849998D01*
X65844318Y-51850001D01*
X65864955Y-52006760D01*
X65864956Y-52006762D01*
X65925464Y-52152841D01*
X66021718Y-52278282D01*
X66147159Y-52374536D01*
X66293238Y-52435044D01*
X66371619Y-52445363D01*
X66449999Y-52455682D01*
X66450000Y-52455682D01*
X66450001Y-52455682D01*
X66502254Y-52448802D01*
X66606762Y-52435044D01*
X66752841Y-52374536D01*
X66878282Y-52278282D01*
X66974536Y-52152841D01*
X67026642Y-52027045D01*
X67070481Y-51972643D01*
X67136775Y-51950578D01*
X67141153Y-51950499D01*
X67544018Y-51950499D01*
X67637804Y-51935646D01*
X67750842Y-51878050D01*
X67750847Y-51878045D01*
X67788319Y-51840574D01*
X67849642Y-51807089D01*
X67919334Y-51812073D01*
X67975267Y-51853945D01*
X67999684Y-51919409D01*
X68000000Y-51928255D01*
X68000000Y-53991745D01*
X67980315Y-54058784D01*
X67927511Y-54104539D01*
X67858353Y-54114483D01*
X67794797Y-54085458D01*
X67788319Y-54079426D01*
X67765847Y-54056954D01*
X67765844Y-54056952D01*
X67765842Y-54056950D01*
X67689017Y-54017805D01*
X67652801Y-53999352D01*
X67559024Y-53984500D01*
X67095982Y-53984500D01*
X67015019Y-53997323D01*
X67002196Y-53999354D01*
X66889158Y-54056950D01*
X66889157Y-54056951D01*
X66889152Y-54056954D01*
X66799454Y-54146652D01*
X66799451Y-54146657D01*
X66741852Y-54259698D01*
X66727000Y-54353475D01*
X66727000Y-54966517D01*
X66737457Y-55032543D01*
X66741854Y-55060304D01*
X66799450Y-55173342D01*
X66889158Y-55263050D01*
X66889160Y-55263051D01*
X66890681Y-55264572D01*
X66924166Y-55325895D01*
X66927000Y-55352254D01*
X66927000Y-55376000D01*
X66907315Y-55443039D01*
X66854511Y-55488794D01*
X66803000Y-55500000D01*
X59851362Y-55500000D01*
X59784323Y-55480315D01*
X59763681Y-55463681D01*
X58836319Y-54536319D01*
X58802834Y-54474996D01*
X58800000Y-54448638D01*
X58800000Y-51400000D01*
X58112181Y-50712181D01*
X58078696Y-50650858D01*
X58083680Y-50581166D01*
X58125552Y-50525233D01*
X58191016Y-50500816D01*
X58199862Y-50500500D01*
X66746245Y-50500500D01*
X66813284Y-50520185D01*
G37*
G04 #@! TD.AperFunction*
G04 #@! TA.AperFunction,Conductor*
G36*
X73180539Y-64319685D02*
G01*
X73226294Y-64372489D01*
X73237500Y-64424000D01*
X73237500Y-65238311D01*
X73217815Y-65305350D01*
X73201184Y-65325988D01*
X73127398Y-65399774D01*
X73123991Y-65403182D01*
X73062667Y-65436666D01*
X73036310Y-65439500D01*
X72660982Y-65439500D01*
X72580019Y-65452323D01*
X72567196Y-65454354D01*
X72454158Y-65511950D01*
X72454157Y-65511951D01*
X72454152Y-65511954D01*
X72364454Y-65601652D01*
X72364451Y-65601657D01*
X72306852Y-65714698D01*
X72292000Y-65808475D01*
X72292001Y-66376000D01*
X72272317Y-66443039D01*
X72219513Y-66488794D01*
X72168001Y-66500000D01*
X72061500Y-66500000D01*
X71994461Y-66480315D01*
X71948706Y-66427511D01*
X71937500Y-66376000D01*
X71937500Y-64861057D01*
X71957185Y-64794018D01*
X71985896Y-64762772D01*
X72554070Y-64325715D01*
X72619209Y-64300442D01*
X72629674Y-64300000D01*
X73113500Y-64300000D01*
X73180539Y-64319685D01*
G37*
G04 #@! TD.AperFunction*
G04 #@! TA.AperFunction,Conductor*
G36*
X84108485Y-55375185D02*
G01*
X84127970Y-55390678D01*
X84962528Y-56203708D01*
X84996811Y-56264587D01*
X85000000Y-56292526D01*
X85000000Y-63431716D01*
X84980315Y-63498755D01*
X84963407Y-63519671D01*
X83817488Y-64658455D01*
X83756061Y-64691748D01*
X83730081Y-64694500D01*
X77674000Y-64694500D01*
X77673992Y-64694500D01*
X77670692Y-64694678D01*
X77670682Y-64694500D01*
X77670679Y-64694500D01*
X77670679Y-64694435D01*
X77670638Y-64693684D01*
X77605964Y-64681997D01*
X77554840Y-64634373D01*
X77537500Y-64571129D01*
X77537500Y-60650000D01*
X75473819Y-58586319D01*
X75440334Y-58524996D01*
X75437500Y-58498638D01*
X75437500Y-58301362D01*
X75457185Y-58234323D01*
X75473819Y-58213681D01*
X76301181Y-57386319D01*
X76362504Y-57352834D01*
X76388862Y-57350000D01*
X79871658Y-57350000D01*
X79889305Y-57351262D01*
X79892745Y-57351756D01*
X79918780Y-57355500D01*
X79918781Y-57355500D01*
X80098639Y-57355500D01*
X80101180Y-57355363D01*
X80120607Y-57354322D01*
X80120614Y-57354321D01*
X80120618Y-57354321D01*
X80153021Y-57350837D01*
X80153083Y-57351421D01*
X80166883Y-57350000D01*
X80287500Y-57350000D01*
X82245681Y-55391819D01*
X82307004Y-55358334D01*
X82333362Y-55355500D01*
X84041446Y-55355500D01*
X84108485Y-55375185D01*
G37*
G04 #@! TD.AperFunction*
G04 #@! TA.AperFunction,Conductor*
G36*
X72547994Y-58551526D02*
G01*
X72556248Y-58552834D01*
X72574999Y-58555804D01*
X72575000Y-58555804D01*
X72575001Y-58555804D01*
X72593752Y-58552834D01*
X72602005Y-58551526D01*
X72621402Y-58550000D01*
X73253598Y-58550000D01*
X73272994Y-58551526D01*
X73281248Y-58552834D01*
X73299999Y-58555804D01*
X73300000Y-58555804D01*
X73300001Y-58555804D01*
X73318752Y-58552834D01*
X73327005Y-58551526D01*
X73346402Y-58550000D01*
X73548638Y-58550000D01*
X73615677Y-58569685D01*
X73636319Y-58586319D01*
X73649405Y-58599405D01*
X73665725Y-58623828D01*
X73666849Y-58623078D01*
X73717947Y-58699552D01*
X73762262Y-58729162D01*
X73784269Y-58743867D01*
X73784271Y-58743867D01*
X73793880Y-58747847D01*
X73797335Y-58748895D01*
X73799997Y-58749997D01*
X73800000Y-58750000D01*
X73802889Y-58750000D01*
X73827082Y-58752383D01*
X73842751Y-58755500D01*
X75291638Y-58755500D01*
X75358677Y-58775185D01*
X75379319Y-58791819D01*
X77201181Y-60613681D01*
X77234666Y-60675004D01*
X77237500Y-60701362D01*
X77237500Y-62126000D01*
X77217815Y-62193039D01*
X77165011Y-62238794D01*
X77113500Y-62250000D01*
X76011500Y-62250000D01*
X75944461Y-62230315D01*
X75898706Y-62177511D01*
X75887500Y-62126000D01*
X75887500Y-61400000D01*
X75073819Y-60586319D01*
X75040334Y-60524996D01*
X75037500Y-60498638D01*
X75037500Y-59500000D01*
X74787500Y-59250000D01*
X72650000Y-59250000D01*
X72650000Y-60198638D01*
X72630315Y-60265677D01*
X72613681Y-60286319D01*
X71950000Y-60949999D01*
X71950000Y-63098638D01*
X71930315Y-63165677D01*
X71913681Y-63186319D01*
X71336319Y-63763681D01*
X71274996Y-63797166D01*
X71248638Y-63800000D01*
X70749999Y-63800000D01*
X70400000Y-64149999D01*
X70400000Y-64150000D01*
X70400000Y-66650000D01*
X70750000Y-67000000D01*
X73350000Y-67000000D01*
X73750000Y-66600000D01*
X73750000Y-65749187D01*
X73769685Y-65682148D01*
X73786316Y-65661509D01*
X74111506Y-65336318D01*
X74172829Y-65302834D01*
X74199187Y-65300000D01*
X74705717Y-65300000D01*
X74755050Y-65311843D01*
X74755096Y-65311704D01*
X74756867Y-65312279D01*
X74762009Y-65313514D01*
X74764374Y-65314719D01*
X74764376Y-65314719D01*
X74764378Y-65314720D01*
X74864007Y-65330500D01*
X74864012Y-65330500D01*
X75380993Y-65330500D01*
X75480621Y-65314720D01*
X75480621Y-65314719D01*
X75480626Y-65314719D01*
X75482991Y-65313514D01*
X75488132Y-65312279D01*
X75489904Y-65311704D01*
X75489949Y-65311843D01*
X75539283Y-65300000D01*
X76255717Y-65300000D01*
X76305050Y-65311843D01*
X76305096Y-65311704D01*
X76306867Y-65312279D01*
X76312009Y-65313514D01*
X76314374Y-65314719D01*
X76314375Y-65314719D01*
X76314377Y-65314720D01*
X76377426Y-65324706D01*
X76440561Y-65354635D01*
X76477492Y-65413947D01*
X76476494Y-65483809D01*
X76472589Y-65494631D01*
X76452457Y-65543234D01*
X76452455Y-65543239D01*
X76431818Y-65699998D01*
X76431818Y-65700001D01*
X76452455Y-65856760D01*
X76452456Y-65856762D01*
X76512964Y-66002841D01*
X76609218Y-66128282D01*
X76734659Y-66224536D01*
X76880738Y-66285044D01*
X76959119Y-66295363D01*
X77037499Y-66305682D01*
X77037500Y-66305682D01*
X77037501Y-66305682D01*
X77089754Y-66298802D01*
X77194262Y-66285044D01*
X77340341Y-66224536D01*
X77465782Y-66128282D01*
X77562036Y-66002841D01*
X77622544Y-65856762D01*
X77643182Y-65700000D01*
X77622544Y-65543238D01*
X77562036Y-65397159D01*
X77559439Y-65390889D01*
X77550000Y-65343436D01*
X77550000Y-65024000D01*
X77569685Y-64956961D01*
X77622489Y-64911206D01*
X77674000Y-64900000D01*
X88348638Y-64900000D01*
X88415677Y-64919685D01*
X88436319Y-64936319D01*
X88613681Y-65113681D01*
X88647166Y-65175004D01*
X88650000Y-65201362D01*
X88650000Y-69375500D01*
X88630315Y-69442539D01*
X88577511Y-69488294D01*
X88526000Y-69499500D01*
X51000862Y-69499500D01*
X50933823Y-69479815D01*
X50913181Y-69463181D01*
X50536819Y-69086819D01*
X50503334Y-69025496D01*
X50500500Y-68999138D01*
X50500500Y-68500000D01*
X58494353Y-68500000D01*
X58514834Y-68642456D01*
X58574622Y-68773371D01*
X58574623Y-68773373D01*
X58668872Y-68882143D01*
X58789947Y-68959953D01*
X58789950Y-68959954D01*
X58789949Y-68959954D01*
X58897107Y-68991417D01*
X58923400Y-68999138D01*
X58928036Y-69000499D01*
X58928038Y-69000500D01*
X58928039Y-69000500D01*
X59071962Y-69000500D01*
X59071962Y-69000499D01*
X59210053Y-68959953D01*
X59331128Y-68882143D01*
X59425377Y-68773373D01*
X59485165Y-68642457D01*
X59505647Y-68500000D01*
X59485165Y-68357543D01*
X59425377Y-68226627D01*
X59331128Y-68117857D01*
X59210053Y-68040047D01*
X59210051Y-68040046D01*
X59210049Y-68040045D01*
X59210050Y-68040045D01*
X59071963Y-67999500D01*
X59071961Y-67999500D01*
X58928039Y-67999500D01*
X58928036Y-67999500D01*
X58789949Y-68040045D01*
X58668873Y-68117856D01*
X58574623Y-68226626D01*
X58574622Y-68226628D01*
X58514834Y-68357543D01*
X58494353Y-68500000D01*
X50500500Y-68500000D01*
X50500500Y-58999862D01*
X50520185Y-58932823D01*
X50572989Y-58887068D01*
X50642147Y-58877124D01*
X50705703Y-58906149D01*
X50712181Y-58912181D01*
X51400000Y-59600000D01*
X51672907Y-59600000D01*
X51739946Y-59619685D01*
X51785701Y-59672489D01*
X51796378Y-59712559D01*
X51812321Y-59884628D01*
X51863064Y-60062968D01*
X51863069Y-60062981D01*
X51945714Y-60228952D01*
X52057455Y-60376922D01*
X52194480Y-60501836D01*
X52194482Y-60501838D01*
X52352124Y-60599446D01*
X52352125Y-60599446D01*
X52352128Y-60599448D01*
X52525027Y-60666429D01*
X52707290Y-60700500D01*
X52707292Y-60700500D01*
X57292708Y-60700500D01*
X57292710Y-60700500D01*
X57474973Y-60666429D01*
X57647872Y-60599448D01*
X57805519Y-60501837D01*
X57942546Y-60376920D01*
X58000538Y-60300124D01*
X58056645Y-60258491D01*
X58126357Y-60253798D01*
X58187172Y-60287172D01*
X58263681Y-60363681D01*
X58297166Y-60425004D01*
X58300000Y-60451362D01*
X58300000Y-64900000D01*
X59250000Y-65850000D01*
X62450000Y-65850000D01*
X62450000Y-59951362D01*
X62469685Y-59884323D01*
X62486319Y-59863681D01*
X63513681Y-58836319D01*
X63575004Y-58802834D01*
X63601362Y-58800000D01*
X65765693Y-58800000D01*
X65772684Y-58800500D01*
X65778039Y-58800500D01*
X65927316Y-58800500D01*
X65934307Y-58800000D01*
X67715693Y-58800000D01*
X67722684Y-58800500D01*
X67728039Y-58800500D01*
X67877316Y-58800500D01*
X67884307Y-58800000D01*
X69615693Y-58800000D01*
X69622684Y-58800500D01*
X69628039Y-58800500D01*
X69777316Y-58800500D01*
X69784307Y-58800000D01*
X71500000Y-58800000D01*
X71713681Y-58586319D01*
X71775004Y-58552834D01*
X71801362Y-58550000D01*
X72528598Y-58550000D01*
X72547994Y-58551526D01*
G37*
G04 #@! TD.AperFunction*
G04 #@! TA.AperFunction,Conductor*
G36*
X99442539Y-57619685D02*
G01*
X99488294Y-57672489D01*
X99499500Y-57724000D01*
X99499500Y-68799138D01*
X99479815Y-68866177D01*
X99463181Y-68886819D01*
X98886819Y-69463181D01*
X98825496Y-69496666D01*
X98799138Y-69499500D01*
X91974000Y-69499500D01*
X91906961Y-69479815D01*
X91861206Y-69427011D01*
X91850000Y-69375500D01*
X91850000Y-59999994D01*
X93994357Y-59999994D01*
X93994357Y-60000005D01*
X94014890Y-60247812D01*
X94014892Y-60247824D01*
X94075936Y-60488881D01*
X94175826Y-60716606D01*
X94311833Y-60924782D01*
X94311836Y-60924785D01*
X94480256Y-61107738D01*
X94676491Y-61260474D01*
X94895190Y-61378828D01*
X95130386Y-61459571D01*
X95375665Y-61500500D01*
X95624335Y-61500500D01*
X95869614Y-61459571D01*
X96104810Y-61378828D01*
X96323509Y-61260474D01*
X96519744Y-61107738D01*
X96688164Y-60924785D01*
X96824173Y-60716607D01*
X96924063Y-60488881D01*
X96985108Y-60247821D01*
X96985109Y-60247812D01*
X97005643Y-60000005D01*
X97005643Y-59999994D01*
X96985109Y-59752187D01*
X96985107Y-59752175D01*
X96924063Y-59511118D01*
X96824173Y-59283393D01*
X96688166Y-59075217D01*
X96666557Y-59051744D01*
X96519744Y-58892262D01*
X96323509Y-58739526D01*
X96323507Y-58739525D01*
X96323506Y-58739524D01*
X96104811Y-58621172D01*
X96104802Y-58621169D01*
X95869616Y-58540429D01*
X95624335Y-58499500D01*
X95375665Y-58499500D01*
X95130383Y-58540429D01*
X94895197Y-58621169D01*
X94895188Y-58621172D01*
X94676493Y-58739524D01*
X94480257Y-58892261D01*
X94311833Y-59075217D01*
X94175826Y-59283393D01*
X94075936Y-59511118D01*
X94014892Y-59752175D01*
X94014890Y-59752187D01*
X93994357Y-59999994D01*
X91850000Y-59999994D01*
X91850000Y-59301362D01*
X91869685Y-59234323D01*
X91886319Y-59213681D01*
X93463681Y-57636319D01*
X93525004Y-57602834D01*
X93551362Y-57600000D01*
X99375500Y-57600000D01*
X99442539Y-57619685D01*
G37*
G04 #@! TD.AperFunction*
G04 #@! TA.AperFunction,Conductor*
G36*
X98866177Y-50520185D02*
G01*
X98886819Y-50536819D01*
X99463181Y-51113181D01*
X99496666Y-51174504D01*
X99499500Y-51200862D01*
X99499500Y-57270500D01*
X99479815Y-57337539D01*
X99427011Y-57383294D01*
X99375500Y-57394500D01*
X93551361Y-57394500D01*
X93529381Y-57395678D01*
X93503034Y-57398511D01*
X93503032Y-57398512D01*
X93426521Y-57422470D01*
X93426516Y-57422471D01*
X93365188Y-57455960D01*
X93318384Y-57490998D01*
X93318363Y-57491016D01*
X91741013Y-59068365D01*
X91741012Y-59068366D01*
X91726325Y-59084716D01*
X91726313Y-59084730D01*
X91709672Y-59105379D01*
X91672509Y-59176424D01*
X91652826Y-59243456D01*
X91644500Y-59301365D01*
X91644500Y-69375500D01*
X91624815Y-69442539D01*
X91572011Y-69488294D01*
X91520500Y-69499500D01*
X88979500Y-69499500D01*
X88912461Y-69479815D01*
X88866706Y-69427011D01*
X88855500Y-69375500D01*
X88855500Y-65201361D01*
X88854321Y-65179381D01*
X88851488Y-65153035D01*
X88843165Y-65126453D01*
X88837500Y-65089401D01*
X88837500Y-65050000D01*
X88774554Y-64987054D01*
X88762969Y-64973685D01*
X88758993Y-64968374D01*
X88758991Y-64968371D01*
X88758986Y-64968366D01*
X88758980Y-64968359D01*
X88581637Y-64791016D01*
X88578176Y-64787907D01*
X88565262Y-64776307D01*
X88565254Y-64776301D01*
X88565249Y-64776296D01*
X88562938Y-64774434D01*
X88553064Y-64765564D01*
X87673819Y-63886319D01*
X87640334Y-63824996D01*
X87637500Y-63798638D01*
X87637500Y-56301362D01*
X87657185Y-56234323D01*
X87673819Y-56213681D01*
X88837500Y-55050000D01*
X88846201Y-51500000D01*
X97494353Y-51500000D01*
X97514834Y-51642456D01*
X97554522Y-51729359D01*
X97574623Y-51773373D01*
X97668872Y-51882143D01*
X97789947Y-51959953D01*
X97789950Y-51959954D01*
X97789949Y-51959954D01*
X97928036Y-52000499D01*
X97928038Y-52000500D01*
X97928039Y-52000500D01*
X98071962Y-52000500D01*
X98071962Y-52000499D01*
X98210053Y-51959953D01*
X98331128Y-51882143D01*
X98425377Y-51773373D01*
X98485165Y-51642457D01*
X98505647Y-51500000D01*
X98485165Y-51357543D01*
X98425377Y-51226627D01*
X98331128Y-51117857D01*
X98210053Y-51040047D01*
X98210051Y-51040046D01*
X98210049Y-51040045D01*
X98210050Y-51040045D01*
X98071963Y-50999500D01*
X98071961Y-50999500D01*
X97928039Y-50999500D01*
X97928036Y-50999500D01*
X97789949Y-51040045D01*
X97668873Y-51117856D01*
X97574623Y-51226626D01*
X97574622Y-51226628D01*
X97514834Y-51357543D01*
X97494353Y-51500000D01*
X88846201Y-51500000D01*
X88848347Y-50624195D01*
X88868196Y-50557205D01*
X88921112Y-50511580D01*
X88972347Y-50500500D01*
X98799138Y-50500500D01*
X98866177Y-50520185D01*
G37*
G04 #@! TD.AperFunction*
M02*
