G04 #@! TF.GenerationSoftware,KiCad,Pcbnew,8.0.5*
G04 #@! TF.CreationDate,2024-10-13T18:51:58+02:00*
G04 #@! TF.ProjectId,DCDC_converter,44434443-5f63-46f6-9e76-65727465722e,rev?*
G04 #@! TF.SameCoordinates,Original*
G04 #@! TF.FileFunction,Legend,Top*
G04 #@! TF.FilePolarity,Positive*
%FSLAX46Y46*%
G04 Gerber Fmt 4.6, Leading zero omitted, Abs format (unit mm)*
G04 Created by KiCad (PCBNEW 8.0.5) date 2024-10-13 18:51:58*
%MOMM*%
%LPD*%
G01*
G04 APERTURE LIST*
G04 Aperture macros list*
%AMRoundRect*
0 Rectangle with rounded corners*
0 $1 Rounding radius*
0 $2 $3 $4 $5 $6 $7 $8 $9 X,Y pos of 4 corners*
0 Add a 4 corners polygon primitive as box body*
4,1,4,$2,$3,$4,$5,$6,$7,$8,$9,$2,$3,0*
0 Add four circle primitives for the rounded corners*
1,1,$1+$1,$2,$3*
1,1,$1+$1,$4,$5*
1,1,$1+$1,$6,$7*
1,1,$1+$1,$8,$9*
0 Add four rect primitives between the rounded corners*
20,1,$1+$1,$2,$3,$4,$5,0*
20,1,$1+$1,$4,$5,$6,$7,0*
20,1,$1+$1,$6,$7,$8,$9,0*
20,1,$1+$1,$8,$9,$2,$3,0*%
G04 Aperture macros list end*
%ADD10C,0.150000*%
%ADD11C,0.100000*%
%ADD12C,0.120000*%
%ADD13C,0.049999*%
%ADD14R,2.413000X5.334000*%
%ADD15C,1.000000*%
%ADD16RoundRect,0.250000X0.250000X0.475000X-0.250000X0.475000X-0.250000X-0.475000X0.250000X-0.475000X0*%
%ADD17RoundRect,0.200000X-0.200000X-0.275000X0.200000X-0.275000X0.200000X0.275000X-0.200000X0.275000X0*%
%ADD18RoundRect,0.250000X-0.475000X0.250000X-0.475000X-0.250000X0.475000X-0.250000X0.475000X0.250000X0*%
%ADD19RoundRect,0.200000X-0.275000X0.200000X-0.275000X-0.200000X0.275000X-0.200000X0.275000X0.200000X0*%
%ADD20RoundRect,0.200000X0.275000X-0.200000X0.275000X0.200000X-0.275000X0.200000X-0.275000X-0.200000X0*%
%ADD21RoundRect,0.225000X0.225000X0.250000X-0.225000X0.250000X-0.225000X-0.250000X0.225000X-0.250000X0*%
%ADD22O,1.700000X1.700000*%
%ADD23R,1.700000X1.700000*%
%ADD24RoundRect,0.200000X0.200000X0.275000X-0.200000X0.275000X-0.200000X-0.275000X0.200000X-0.275000X0*%
%ADD25R,1.600000X1.600000*%
%ADD26C,1.600000*%
%ADD27RoundRect,0.218750X-0.218750X-0.256250X0.218750X-0.256250X0.218750X0.256250X-0.218750X0.256250X0*%
%ADD28RoundRect,0.225000X0.250000X-0.225000X0.250000X0.225000X-0.250000X0.225000X-0.250000X-0.225000X0*%
%ADD29RoundRect,0.225000X-0.250000X0.225000X-0.250000X-0.225000X0.250000X-0.225000X0.250000X0.225000X0*%
%ADD30R,1.500000X0.300000*%
%ADD31R,0.250000X0.700000*%
%ADD32R,0.700000X0.300000*%
G04 APERTURE END LIST*
D10*
X94635588Y-66842438D02*
X94540350Y-66794819D01*
X94540350Y-66794819D02*
X94397493Y-66794819D01*
X94397493Y-66794819D02*
X94254636Y-66842438D01*
X94254636Y-66842438D02*
X94159398Y-66937676D01*
X94159398Y-66937676D02*
X94111779Y-67032914D01*
X94111779Y-67032914D02*
X94064160Y-67223390D01*
X94064160Y-67223390D02*
X94064160Y-67366247D01*
X94064160Y-67366247D02*
X94111779Y-67556723D01*
X94111779Y-67556723D02*
X94159398Y-67651961D01*
X94159398Y-67651961D02*
X94254636Y-67747200D01*
X94254636Y-67747200D02*
X94397493Y-67794819D01*
X94397493Y-67794819D02*
X94492731Y-67794819D01*
X94492731Y-67794819D02*
X94635588Y-67747200D01*
X94635588Y-67747200D02*
X94683207Y-67699580D01*
X94683207Y-67699580D02*
X94683207Y-67366247D01*
X94683207Y-67366247D02*
X94492731Y-67366247D01*
X95111779Y-67794819D02*
X95111779Y-66794819D01*
X95111779Y-66794819D02*
X95683207Y-67794819D01*
X95683207Y-67794819D02*
X95683207Y-66794819D01*
X96159398Y-67794819D02*
X96159398Y-66794819D01*
X96159398Y-66794819D02*
X96397493Y-66794819D01*
X96397493Y-66794819D02*
X96540350Y-66842438D01*
X96540350Y-66842438D02*
X96635588Y-66937676D01*
X96635588Y-66937676D02*
X96683207Y-67032914D01*
X96683207Y-67032914D02*
X96730826Y-67223390D01*
X96730826Y-67223390D02*
X96730826Y-67366247D01*
X96730826Y-67366247D02*
X96683207Y-67556723D01*
X96683207Y-67556723D02*
X96635588Y-67651961D01*
X96635588Y-67651961D02*
X96540350Y-67747200D01*
X96540350Y-67747200D02*
X96397493Y-67794819D01*
X96397493Y-67794819D02*
X96159398Y-67794819D01*
X53985588Y-64492438D02*
X53890350Y-64444819D01*
X53890350Y-64444819D02*
X53747493Y-64444819D01*
X53747493Y-64444819D02*
X53604636Y-64492438D01*
X53604636Y-64492438D02*
X53509398Y-64587676D01*
X53509398Y-64587676D02*
X53461779Y-64682914D01*
X53461779Y-64682914D02*
X53414160Y-64873390D01*
X53414160Y-64873390D02*
X53414160Y-65016247D01*
X53414160Y-65016247D02*
X53461779Y-65206723D01*
X53461779Y-65206723D02*
X53509398Y-65301961D01*
X53509398Y-65301961D02*
X53604636Y-65397200D01*
X53604636Y-65397200D02*
X53747493Y-65444819D01*
X53747493Y-65444819D02*
X53842731Y-65444819D01*
X53842731Y-65444819D02*
X53985588Y-65397200D01*
X53985588Y-65397200D02*
X54033207Y-65349580D01*
X54033207Y-65349580D02*
X54033207Y-65016247D01*
X54033207Y-65016247D02*
X53842731Y-65016247D01*
X54461779Y-65444819D02*
X54461779Y-64444819D01*
X54461779Y-64444819D02*
X55033207Y-65444819D01*
X55033207Y-65444819D02*
X55033207Y-64444819D01*
X55509398Y-65444819D02*
X55509398Y-64444819D01*
X55509398Y-64444819D02*
X55747493Y-64444819D01*
X55747493Y-64444819D02*
X55890350Y-64492438D01*
X55890350Y-64492438D02*
X55985588Y-64587676D01*
X55985588Y-64587676D02*
X56033207Y-64682914D01*
X56033207Y-64682914D02*
X56080826Y-64873390D01*
X56080826Y-64873390D02*
X56080826Y-65016247D01*
X56080826Y-65016247D02*
X56033207Y-65206723D01*
X56033207Y-65206723D02*
X55985588Y-65301961D01*
X55985588Y-65301961D02*
X55890350Y-65397200D01*
X55890350Y-65397200D02*
X55747493Y-65444819D01*
X55747493Y-65444819D02*
X55509398Y-65444819D01*
X94152255Y-51519819D02*
X94342731Y-51519819D01*
X94342731Y-51519819D02*
X94437969Y-51567438D01*
X94437969Y-51567438D02*
X94533207Y-51662676D01*
X94533207Y-51662676D02*
X94580826Y-51853152D01*
X94580826Y-51853152D02*
X94580826Y-52186485D01*
X94580826Y-52186485D02*
X94533207Y-52376961D01*
X94533207Y-52376961D02*
X94437969Y-52472200D01*
X94437969Y-52472200D02*
X94342731Y-52519819D01*
X94342731Y-52519819D02*
X94152255Y-52519819D01*
X94152255Y-52519819D02*
X94057017Y-52472200D01*
X94057017Y-52472200D02*
X93961779Y-52376961D01*
X93961779Y-52376961D02*
X93914160Y-52186485D01*
X93914160Y-52186485D02*
X93914160Y-51853152D01*
X93914160Y-51853152D02*
X93961779Y-51662676D01*
X93961779Y-51662676D02*
X94057017Y-51567438D01*
X94057017Y-51567438D02*
X94152255Y-51519819D01*
X95009398Y-51519819D02*
X95009398Y-52329342D01*
X95009398Y-52329342D02*
X95057017Y-52424580D01*
X95057017Y-52424580D02*
X95104636Y-52472200D01*
X95104636Y-52472200D02*
X95199874Y-52519819D01*
X95199874Y-52519819D02*
X95390350Y-52519819D01*
X95390350Y-52519819D02*
X95485588Y-52472200D01*
X95485588Y-52472200D02*
X95533207Y-52424580D01*
X95533207Y-52424580D02*
X95580826Y-52329342D01*
X95580826Y-52329342D02*
X95580826Y-51519819D01*
X95914160Y-51519819D02*
X96485588Y-51519819D01*
X96199874Y-52519819D02*
X96199874Y-51519819D01*
X54286779Y-54819819D02*
X54286779Y-53819819D01*
X54762969Y-54819819D02*
X54762969Y-53819819D01*
X54762969Y-53819819D02*
X55334397Y-54819819D01*
X55334397Y-54819819D02*
X55334397Y-53819819D01*
D11*
X82833333Y-66057419D02*
X82357143Y-66057419D01*
X82357143Y-66057419D02*
X82357143Y-65057419D01*
X83690476Y-66057419D02*
X83119048Y-66057419D01*
X83404762Y-66057419D02*
X83404762Y-65057419D01*
X83404762Y-65057419D02*
X83309524Y-65200276D01*
X83309524Y-65200276D02*
X83214286Y-65295514D01*
X83214286Y-65295514D02*
X83119048Y-65343133D01*
D10*
X84757142Y-54559580D02*
X84709523Y-54607200D01*
X84709523Y-54607200D02*
X84566666Y-54654819D01*
X84566666Y-54654819D02*
X84471428Y-54654819D01*
X84471428Y-54654819D02*
X84328571Y-54607200D01*
X84328571Y-54607200D02*
X84233333Y-54511961D01*
X84233333Y-54511961D02*
X84185714Y-54416723D01*
X84185714Y-54416723D02*
X84138095Y-54226247D01*
X84138095Y-54226247D02*
X84138095Y-54083390D01*
X84138095Y-54083390D02*
X84185714Y-53892914D01*
X84185714Y-53892914D02*
X84233333Y-53797676D01*
X84233333Y-53797676D02*
X84328571Y-53702438D01*
X84328571Y-53702438D02*
X84471428Y-53654819D01*
X84471428Y-53654819D02*
X84566666Y-53654819D01*
X84566666Y-53654819D02*
X84709523Y-53702438D01*
X84709523Y-53702438D02*
X84757142Y-53750057D01*
X85709523Y-54654819D02*
X85138095Y-54654819D01*
X85423809Y-54654819D02*
X85423809Y-53654819D01*
X85423809Y-53654819D02*
X85328571Y-53797676D01*
X85328571Y-53797676D02*
X85233333Y-53892914D01*
X85233333Y-53892914D02*
X85138095Y-53940533D01*
X86042857Y-53654819D02*
X86661904Y-53654819D01*
X86661904Y-53654819D02*
X86328571Y-54035771D01*
X86328571Y-54035771D02*
X86471428Y-54035771D01*
X86471428Y-54035771D02*
X86566666Y-54083390D01*
X86566666Y-54083390D02*
X86614285Y-54131009D01*
X86614285Y-54131009D02*
X86661904Y-54226247D01*
X86661904Y-54226247D02*
X86661904Y-54464342D01*
X86661904Y-54464342D02*
X86614285Y-54559580D01*
X86614285Y-54559580D02*
X86566666Y-54607200D01*
X86566666Y-54607200D02*
X86471428Y-54654819D01*
X86471428Y-54654819D02*
X86185714Y-54654819D01*
X86185714Y-54654819D02*
X86090476Y-54607200D01*
X86090476Y-54607200D02*
X86042857Y-54559580D01*
X64494642Y-51729819D02*
X64161309Y-51253628D01*
X63923214Y-51729819D02*
X63923214Y-50729819D01*
X63923214Y-50729819D02*
X64304166Y-50729819D01*
X64304166Y-50729819D02*
X64399404Y-50777438D01*
X64399404Y-50777438D02*
X64447023Y-50825057D01*
X64447023Y-50825057D02*
X64494642Y-50920295D01*
X64494642Y-50920295D02*
X64494642Y-51063152D01*
X64494642Y-51063152D02*
X64447023Y-51158390D01*
X64447023Y-51158390D02*
X64399404Y-51206009D01*
X64399404Y-51206009D02*
X64304166Y-51253628D01*
X64304166Y-51253628D02*
X63923214Y-51253628D01*
X65447023Y-51729819D02*
X64875595Y-51729819D01*
X65161309Y-51729819D02*
X65161309Y-50729819D01*
X65161309Y-50729819D02*
X65066071Y-50872676D01*
X65066071Y-50872676D02*
X64970833Y-50967914D01*
X64970833Y-50967914D02*
X64875595Y-51015533D01*
X66399404Y-51729819D02*
X65827976Y-51729819D01*
X66113690Y-51729819D02*
X66113690Y-50729819D01*
X66113690Y-50729819D02*
X66018452Y-50872676D01*
X66018452Y-50872676D02*
X65923214Y-50967914D01*
X65923214Y-50967914D02*
X65827976Y-51015533D01*
X68570833Y-56609580D02*
X68523214Y-56657200D01*
X68523214Y-56657200D02*
X68380357Y-56704819D01*
X68380357Y-56704819D02*
X68285119Y-56704819D01*
X68285119Y-56704819D02*
X68142262Y-56657200D01*
X68142262Y-56657200D02*
X68047024Y-56561961D01*
X68047024Y-56561961D02*
X67999405Y-56466723D01*
X67999405Y-56466723D02*
X67951786Y-56276247D01*
X67951786Y-56276247D02*
X67951786Y-56133390D01*
X67951786Y-56133390D02*
X67999405Y-55942914D01*
X67999405Y-55942914D02*
X68047024Y-55847676D01*
X68047024Y-55847676D02*
X68142262Y-55752438D01*
X68142262Y-55752438D02*
X68285119Y-55704819D01*
X68285119Y-55704819D02*
X68380357Y-55704819D01*
X68380357Y-55704819D02*
X68523214Y-55752438D01*
X68523214Y-55752438D02*
X68570833Y-55800057D01*
X69427976Y-56038152D02*
X69427976Y-56704819D01*
X69189881Y-55657200D02*
X68951786Y-56371485D01*
X68951786Y-56371485D02*
X69570833Y-56371485D01*
X84762142Y-68839580D02*
X84714523Y-68887200D01*
X84714523Y-68887200D02*
X84571666Y-68934819D01*
X84571666Y-68934819D02*
X84476428Y-68934819D01*
X84476428Y-68934819D02*
X84333571Y-68887200D01*
X84333571Y-68887200D02*
X84238333Y-68791961D01*
X84238333Y-68791961D02*
X84190714Y-68696723D01*
X84190714Y-68696723D02*
X84143095Y-68506247D01*
X84143095Y-68506247D02*
X84143095Y-68363390D01*
X84143095Y-68363390D02*
X84190714Y-68172914D01*
X84190714Y-68172914D02*
X84238333Y-68077676D01*
X84238333Y-68077676D02*
X84333571Y-67982438D01*
X84333571Y-67982438D02*
X84476428Y-67934819D01*
X84476428Y-67934819D02*
X84571666Y-67934819D01*
X84571666Y-67934819D02*
X84714523Y-67982438D01*
X84714523Y-67982438D02*
X84762142Y-68030057D01*
X85714523Y-68934819D02*
X85143095Y-68934819D01*
X85428809Y-68934819D02*
X85428809Y-67934819D01*
X85428809Y-67934819D02*
X85333571Y-68077676D01*
X85333571Y-68077676D02*
X85238333Y-68172914D01*
X85238333Y-68172914D02*
X85143095Y-68220533D01*
X86666904Y-68934819D02*
X86095476Y-68934819D01*
X86381190Y-68934819D02*
X86381190Y-67934819D01*
X86381190Y-67934819D02*
X86285952Y-68077676D01*
X86285952Y-68077676D02*
X86190714Y-68172914D01*
X86190714Y-68172914D02*
X86095476Y-68220533D01*
X85020833Y-53204819D02*
X84687500Y-52728628D01*
X84449405Y-53204819D02*
X84449405Y-52204819D01*
X84449405Y-52204819D02*
X84830357Y-52204819D01*
X84830357Y-52204819D02*
X84925595Y-52252438D01*
X84925595Y-52252438D02*
X84973214Y-52300057D01*
X84973214Y-52300057D02*
X85020833Y-52395295D01*
X85020833Y-52395295D02*
X85020833Y-52538152D01*
X85020833Y-52538152D02*
X84973214Y-52633390D01*
X84973214Y-52633390D02*
X84925595Y-52681009D01*
X84925595Y-52681009D02*
X84830357Y-52728628D01*
X84830357Y-52728628D02*
X84449405Y-52728628D01*
X85592262Y-52633390D02*
X85497024Y-52585771D01*
X85497024Y-52585771D02*
X85449405Y-52538152D01*
X85449405Y-52538152D02*
X85401786Y-52442914D01*
X85401786Y-52442914D02*
X85401786Y-52395295D01*
X85401786Y-52395295D02*
X85449405Y-52300057D01*
X85449405Y-52300057D02*
X85497024Y-52252438D01*
X85497024Y-52252438D02*
X85592262Y-52204819D01*
X85592262Y-52204819D02*
X85782738Y-52204819D01*
X85782738Y-52204819D02*
X85877976Y-52252438D01*
X85877976Y-52252438D02*
X85925595Y-52300057D01*
X85925595Y-52300057D02*
X85973214Y-52395295D01*
X85973214Y-52395295D02*
X85973214Y-52442914D01*
X85973214Y-52442914D02*
X85925595Y-52538152D01*
X85925595Y-52538152D02*
X85877976Y-52585771D01*
X85877976Y-52585771D02*
X85782738Y-52633390D01*
X85782738Y-52633390D02*
X85592262Y-52633390D01*
X85592262Y-52633390D02*
X85497024Y-52681009D01*
X85497024Y-52681009D02*
X85449405Y-52728628D01*
X85449405Y-52728628D02*
X85401786Y-52823866D01*
X85401786Y-52823866D02*
X85401786Y-53014342D01*
X85401786Y-53014342D02*
X85449405Y-53109580D01*
X85449405Y-53109580D02*
X85497024Y-53157200D01*
X85497024Y-53157200D02*
X85592262Y-53204819D01*
X85592262Y-53204819D02*
X85782738Y-53204819D01*
X85782738Y-53204819D02*
X85877976Y-53157200D01*
X85877976Y-53157200D02*
X85925595Y-53109580D01*
X85925595Y-53109580D02*
X85973214Y-53014342D01*
X85973214Y-53014342D02*
X85973214Y-52823866D01*
X85973214Y-52823866D02*
X85925595Y-52728628D01*
X85925595Y-52728628D02*
X85877976Y-52681009D01*
X85877976Y-52681009D02*
X85782738Y-52633390D01*
X81120833Y-53204819D02*
X80787500Y-52728628D01*
X80549405Y-53204819D02*
X80549405Y-52204819D01*
X80549405Y-52204819D02*
X80930357Y-52204819D01*
X80930357Y-52204819D02*
X81025595Y-52252438D01*
X81025595Y-52252438D02*
X81073214Y-52300057D01*
X81073214Y-52300057D02*
X81120833Y-52395295D01*
X81120833Y-52395295D02*
X81120833Y-52538152D01*
X81120833Y-52538152D02*
X81073214Y-52633390D01*
X81073214Y-52633390D02*
X81025595Y-52681009D01*
X81025595Y-52681009D02*
X80930357Y-52728628D01*
X80930357Y-52728628D02*
X80549405Y-52728628D01*
X81977976Y-52538152D02*
X81977976Y-53204819D01*
X81739881Y-52157200D02*
X81501786Y-52871485D01*
X81501786Y-52871485D02*
X82120833Y-52871485D01*
X65305833Y-53419580D02*
X65258214Y-53467200D01*
X65258214Y-53467200D02*
X65115357Y-53514819D01*
X65115357Y-53514819D02*
X65020119Y-53514819D01*
X65020119Y-53514819D02*
X64877262Y-53467200D01*
X64877262Y-53467200D02*
X64782024Y-53371961D01*
X64782024Y-53371961D02*
X64734405Y-53276723D01*
X64734405Y-53276723D02*
X64686786Y-53086247D01*
X64686786Y-53086247D02*
X64686786Y-52943390D01*
X64686786Y-52943390D02*
X64734405Y-52752914D01*
X64734405Y-52752914D02*
X64782024Y-52657676D01*
X64782024Y-52657676D02*
X64877262Y-52562438D01*
X64877262Y-52562438D02*
X65020119Y-52514819D01*
X65020119Y-52514819D02*
X65115357Y-52514819D01*
X65115357Y-52514819D02*
X65258214Y-52562438D01*
X65258214Y-52562438D02*
X65305833Y-52610057D01*
X66162976Y-52514819D02*
X65972500Y-52514819D01*
X65972500Y-52514819D02*
X65877262Y-52562438D01*
X65877262Y-52562438D02*
X65829643Y-52610057D01*
X65829643Y-52610057D02*
X65734405Y-52752914D01*
X65734405Y-52752914D02*
X65686786Y-52943390D01*
X65686786Y-52943390D02*
X65686786Y-53324342D01*
X65686786Y-53324342D02*
X65734405Y-53419580D01*
X65734405Y-53419580D02*
X65782024Y-53467200D01*
X65782024Y-53467200D02*
X65877262Y-53514819D01*
X65877262Y-53514819D02*
X66067738Y-53514819D01*
X66067738Y-53514819D02*
X66162976Y-53467200D01*
X66162976Y-53467200D02*
X66210595Y-53419580D01*
X66210595Y-53419580D02*
X66258214Y-53324342D01*
X66258214Y-53324342D02*
X66258214Y-53086247D01*
X66258214Y-53086247D02*
X66210595Y-52991009D01*
X66210595Y-52991009D02*
X66162976Y-52943390D01*
X66162976Y-52943390D02*
X66067738Y-52895771D01*
X66067738Y-52895771D02*
X65877262Y-52895771D01*
X65877262Y-52895771D02*
X65782024Y-52943390D01*
X65782024Y-52943390D02*
X65734405Y-52991009D01*
X65734405Y-52991009D02*
X65686786Y-53086247D01*
X69205833Y-65089819D02*
X68872500Y-64613628D01*
X68634405Y-65089819D02*
X68634405Y-64089819D01*
X68634405Y-64089819D02*
X69015357Y-64089819D01*
X69015357Y-64089819D02*
X69110595Y-64137438D01*
X69110595Y-64137438D02*
X69158214Y-64185057D01*
X69158214Y-64185057D02*
X69205833Y-64280295D01*
X69205833Y-64280295D02*
X69205833Y-64423152D01*
X69205833Y-64423152D02*
X69158214Y-64518390D01*
X69158214Y-64518390D02*
X69110595Y-64566009D01*
X69110595Y-64566009D02*
X69015357Y-64613628D01*
X69015357Y-64613628D02*
X68634405Y-64613628D01*
X69586786Y-64185057D02*
X69634405Y-64137438D01*
X69634405Y-64137438D02*
X69729643Y-64089819D01*
X69729643Y-64089819D02*
X69967738Y-64089819D01*
X69967738Y-64089819D02*
X70062976Y-64137438D01*
X70062976Y-64137438D02*
X70110595Y-64185057D01*
X70110595Y-64185057D02*
X70158214Y-64280295D01*
X70158214Y-64280295D02*
X70158214Y-64375533D01*
X70158214Y-64375533D02*
X70110595Y-64518390D01*
X70110595Y-64518390D02*
X69539167Y-65089819D01*
X69539167Y-65089819D02*
X70158214Y-65089819D01*
X65405833Y-55114819D02*
X65072500Y-54638628D01*
X64834405Y-55114819D02*
X64834405Y-54114819D01*
X64834405Y-54114819D02*
X65215357Y-54114819D01*
X65215357Y-54114819D02*
X65310595Y-54162438D01*
X65310595Y-54162438D02*
X65358214Y-54210057D01*
X65358214Y-54210057D02*
X65405833Y-54305295D01*
X65405833Y-54305295D02*
X65405833Y-54448152D01*
X65405833Y-54448152D02*
X65358214Y-54543390D01*
X65358214Y-54543390D02*
X65310595Y-54591009D01*
X65310595Y-54591009D02*
X65215357Y-54638628D01*
X65215357Y-54638628D02*
X64834405Y-54638628D01*
X66358214Y-55114819D02*
X65786786Y-55114819D01*
X66072500Y-55114819D02*
X66072500Y-54114819D01*
X66072500Y-54114819D02*
X65977262Y-54257676D01*
X65977262Y-54257676D02*
X65882024Y-54352914D01*
X65882024Y-54352914D02*
X65786786Y-54400533D01*
X78394642Y-63569819D02*
X78061309Y-63093628D01*
X77823214Y-63569819D02*
X77823214Y-62569819D01*
X77823214Y-62569819D02*
X78204166Y-62569819D01*
X78204166Y-62569819D02*
X78299404Y-62617438D01*
X78299404Y-62617438D02*
X78347023Y-62665057D01*
X78347023Y-62665057D02*
X78394642Y-62760295D01*
X78394642Y-62760295D02*
X78394642Y-62903152D01*
X78394642Y-62903152D02*
X78347023Y-62998390D01*
X78347023Y-62998390D02*
X78299404Y-63046009D01*
X78299404Y-63046009D02*
X78204166Y-63093628D01*
X78204166Y-63093628D02*
X77823214Y-63093628D01*
X79347023Y-63569819D02*
X78775595Y-63569819D01*
X79061309Y-63569819D02*
X79061309Y-62569819D01*
X79061309Y-62569819D02*
X78966071Y-62712676D01*
X78966071Y-62712676D02*
X78870833Y-62807914D01*
X78870833Y-62807914D02*
X78775595Y-62855533D01*
X79966071Y-62569819D02*
X80061309Y-62569819D01*
X80061309Y-62569819D02*
X80156547Y-62617438D01*
X80156547Y-62617438D02*
X80204166Y-62665057D01*
X80204166Y-62665057D02*
X80251785Y-62760295D01*
X80251785Y-62760295D02*
X80299404Y-62950771D01*
X80299404Y-62950771D02*
X80299404Y-63188866D01*
X80299404Y-63188866D02*
X80251785Y-63379342D01*
X80251785Y-63379342D02*
X80204166Y-63474580D01*
X80204166Y-63474580D02*
X80156547Y-63522200D01*
X80156547Y-63522200D02*
X80061309Y-63569819D01*
X80061309Y-63569819D02*
X79966071Y-63569819D01*
X79966071Y-63569819D02*
X79870833Y-63522200D01*
X79870833Y-63522200D02*
X79823214Y-63474580D01*
X79823214Y-63474580D02*
X79775595Y-63379342D01*
X79775595Y-63379342D02*
X79727976Y-63188866D01*
X79727976Y-63188866D02*
X79727976Y-62950771D01*
X79727976Y-62950771D02*
X79775595Y-62760295D01*
X79775595Y-62760295D02*
X79823214Y-62665057D01*
X79823214Y-62665057D02*
X79870833Y-62617438D01*
X79870833Y-62617438D02*
X79966071Y-62569819D01*
X65533333Y-67959580D02*
X65485714Y-68007200D01*
X65485714Y-68007200D02*
X65342857Y-68054819D01*
X65342857Y-68054819D02*
X65247619Y-68054819D01*
X65247619Y-68054819D02*
X65104762Y-68007200D01*
X65104762Y-68007200D02*
X65009524Y-67911961D01*
X65009524Y-67911961D02*
X64961905Y-67816723D01*
X64961905Y-67816723D02*
X64914286Y-67626247D01*
X64914286Y-67626247D02*
X64914286Y-67483390D01*
X64914286Y-67483390D02*
X64961905Y-67292914D01*
X64961905Y-67292914D02*
X65009524Y-67197676D01*
X65009524Y-67197676D02*
X65104762Y-67102438D01*
X65104762Y-67102438D02*
X65247619Y-67054819D01*
X65247619Y-67054819D02*
X65342857Y-67054819D01*
X65342857Y-67054819D02*
X65485714Y-67102438D01*
X65485714Y-67102438D02*
X65533333Y-67150057D01*
X66485714Y-68054819D02*
X65914286Y-68054819D01*
X66200000Y-68054819D02*
X66200000Y-67054819D01*
X66200000Y-67054819D02*
X66104762Y-67197676D01*
X66104762Y-67197676D02*
X66009524Y-67292914D01*
X66009524Y-67292914D02*
X65914286Y-67340533D01*
X73499405Y-51729819D02*
X73499405Y-50729819D01*
X73499405Y-50729819D02*
X73737500Y-50729819D01*
X73737500Y-50729819D02*
X73880357Y-50777438D01*
X73880357Y-50777438D02*
X73975595Y-50872676D01*
X73975595Y-50872676D02*
X74023214Y-50967914D01*
X74023214Y-50967914D02*
X74070833Y-51158390D01*
X74070833Y-51158390D02*
X74070833Y-51301247D01*
X74070833Y-51301247D02*
X74023214Y-51491723D01*
X74023214Y-51491723D02*
X73975595Y-51586961D01*
X73975595Y-51586961D02*
X73880357Y-51682200D01*
X73880357Y-51682200D02*
X73737500Y-51729819D01*
X73737500Y-51729819D02*
X73499405Y-51729819D01*
X75023214Y-51729819D02*
X74451786Y-51729819D01*
X74737500Y-51729819D02*
X74737500Y-50729819D01*
X74737500Y-50729819D02*
X74642262Y-50872676D01*
X74642262Y-50872676D02*
X74547024Y-50967914D01*
X74547024Y-50967914D02*
X74451786Y-51015533D01*
X78933333Y-60059580D02*
X78885714Y-60107200D01*
X78885714Y-60107200D02*
X78742857Y-60154819D01*
X78742857Y-60154819D02*
X78647619Y-60154819D01*
X78647619Y-60154819D02*
X78504762Y-60107200D01*
X78504762Y-60107200D02*
X78409524Y-60011961D01*
X78409524Y-60011961D02*
X78361905Y-59916723D01*
X78361905Y-59916723D02*
X78314286Y-59726247D01*
X78314286Y-59726247D02*
X78314286Y-59583390D01*
X78314286Y-59583390D02*
X78361905Y-59392914D01*
X78361905Y-59392914D02*
X78409524Y-59297676D01*
X78409524Y-59297676D02*
X78504762Y-59202438D01*
X78504762Y-59202438D02*
X78647619Y-59154819D01*
X78647619Y-59154819D02*
X78742857Y-59154819D01*
X78742857Y-59154819D02*
X78885714Y-59202438D01*
X78885714Y-59202438D02*
X78933333Y-59250057D01*
X79504762Y-59583390D02*
X79409524Y-59535771D01*
X79409524Y-59535771D02*
X79361905Y-59488152D01*
X79361905Y-59488152D02*
X79314286Y-59392914D01*
X79314286Y-59392914D02*
X79314286Y-59345295D01*
X79314286Y-59345295D02*
X79361905Y-59250057D01*
X79361905Y-59250057D02*
X79409524Y-59202438D01*
X79409524Y-59202438D02*
X79504762Y-59154819D01*
X79504762Y-59154819D02*
X79695238Y-59154819D01*
X79695238Y-59154819D02*
X79790476Y-59202438D01*
X79790476Y-59202438D02*
X79838095Y-59250057D01*
X79838095Y-59250057D02*
X79885714Y-59345295D01*
X79885714Y-59345295D02*
X79885714Y-59392914D01*
X79885714Y-59392914D02*
X79838095Y-59488152D01*
X79838095Y-59488152D02*
X79790476Y-59535771D01*
X79790476Y-59535771D02*
X79695238Y-59583390D01*
X79695238Y-59583390D02*
X79504762Y-59583390D01*
X79504762Y-59583390D02*
X79409524Y-59631009D01*
X79409524Y-59631009D02*
X79361905Y-59678628D01*
X79361905Y-59678628D02*
X79314286Y-59773866D01*
X79314286Y-59773866D02*
X79314286Y-59964342D01*
X79314286Y-59964342D02*
X79361905Y-60059580D01*
X79361905Y-60059580D02*
X79409524Y-60107200D01*
X79409524Y-60107200D02*
X79504762Y-60154819D01*
X79504762Y-60154819D02*
X79695238Y-60154819D01*
X79695238Y-60154819D02*
X79790476Y-60107200D01*
X79790476Y-60107200D02*
X79838095Y-60059580D01*
X79838095Y-60059580D02*
X79885714Y-59964342D01*
X79885714Y-59964342D02*
X79885714Y-59773866D01*
X79885714Y-59773866D02*
X79838095Y-59678628D01*
X79838095Y-59678628D02*
X79790476Y-59631009D01*
X79790476Y-59631009D02*
X79695238Y-59583390D01*
X69205833Y-66689819D02*
X68872500Y-66213628D01*
X68634405Y-66689819D02*
X68634405Y-65689819D01*
X68634405Y-65689819D02*
X69015357Y-65689819D01*
X69015357Y-65689819D02*
X69110595Y-65737438D01*
X69110595Y-65737438D02*
X69158214Y-65785057D01*
X69158214Y-65785057D02*
X69205833Y-65880295D01*
X69205833Y-65880295D02*
X69205833Y-66023152D01*
X69205833Y-66023152D02*
X69158214Y-66118390D01*
X69158214Y-66118390D02*
X69110595Y-66166009D01*
X69110595Y-66166009D02*
X69015357Y-66213628D01*
X69015357Y-66213628D02*
X68634405Y-66213628D01*
X69539167Y-65689819D02*
X70158214Y-65689819D01*
X70158214Y-65689819D02*
X69824881Y-66070771D01*
X69824881Y-66070771D02*
X69967738Y-66070771D01*
X69967738Y-66070771D02*
X70062976Y-66118390D01*
X70062976Y-66118390D02*
X70110595Y-66166009D01*
X70110595Y-66166009D02*
X70158214Y-66261247D01*
X70158214Y-66261247D02*
X70158214Y-66499342D01*
X70158214Y-66499342D02*
X70110595Y-66594580D01*
X70110595Y-66594580D02*
X70062976Y-66642200D01*
X70062976Y-66642200D02*
X69967738Y-66689819D01*
X69967738Y-66689819D02*
X69682024Y-66689819D01*
X69682024Y-66689819D02*
X69586786Y-66642200D01*
X69586786Y-66642200D02*
X69539167Y-66594580D01*
X78405833Y-62089819D02*
X78072500Y-61613628D01*
X77834405Y-62089819D02*
X77834405Y-61089819D01*
X77834405Y-61089819D02*
X78215357Y-61089819D01*
X78215357Y-61089819D02*
X78310595Y-61137438D01*
X78310595Y-61137438D02*
X78358214Y-61185057D01*
X78358214Y-61185057D02*
X78405833Y-61280295D01*
X78405833Y-61280295D02*
X78405833Y-61423152D01*
X78405833Y-61423152D02*
X78358214Y-61518390D01*
X78358214Y-61518390D02*
X78310595Y-61566009D01*
X78310595Y-61566009D02*
X78215357Y-61613628D01*
X78215357Y-61613628D02*
X77834405Y-61613628D01*
X78739167Y-61089819D02*
X79405833Y-61089819D01*
X79405833Y-61089819D02*
X78977262Y-62089819D01*
X79120833Y-53204819D02*
X78787500Y-52728628D01*
X78549405Y-53204819D02*
X78549405Y-52204819D01*
X78549405Y-52204819D02*
X78930357Y-52204819D01*
X78930357Y-52204819D02*
X79025595Y-52252438D01*
X79025595Y-52252438D02*
X79073214Y-52300057D01*
X79073214Y-52300057D02*
X79120833Y-52395295D01*
X79120833Y-52395295D02*
X79120833Y-52538152D01*
X79120833Y-52538152D02*
X79073214Y-52633390D01*
X79073214Y-52633390D02*
X79025595Y-52681009D01*
X79025595Y-52681009D02*
X78930357Y-52728628D01*
X78930357Y-52728628D02*
X78549405Y-52728628D01*
X79977976Y-52204819D02*
X79787500Y-52204819D01*
X79787500Y-52204819D02*
X79692262Y-52252438D01*
X79692262Y-52252438D02*
X79644643Y-52300057D01*
X79644643Y-52300057D02*
X79549405Y-52442914D01*
X79549405Y-52442914D02*
X79501786Y-52633390D01*
X79501786Y-52633390D02*
X79501786Y-53014342D01*
X79501786Y-53014342D02*
X79549405Y-53109580D01*
X79549405Y-53109580D02*
X79597024Y-53157200D01*
X79597024Y-53157200D02*
X79692262Y-53204819D01*
X79692262Y-53204819D02*
X79882738Y-53204819D01*
X79882738Y-53204819D02*
X79977976Y-53157200D01*
X79977976Y-53157200D02*
X80025595Y-53109580D01*
X80025595Y-53109580D02*
X80073214Y-53014342D01*
X80073214Y-53014342D02*
X80073214Y-52776247D01*
X80073214Y-52776247D02*
X80025595Y-52681009D01*
X80025595Y-52681009D02*
X79977976Y-52633390D01*
X79977976Y-52633390D02*
X79882738Y-52585771D01*
X79882738Y-52585771D02*
X79692262Y-52585771D01*
X79692262Y-52585771D02*
X79597024Y-52633390D01*
X79597024Y-52633390D02*
X79549405Y-52681009D01*
X79549405Y-52681009D02*
X79501786Y-52776247D01*
X78420833Y-65009580D02*
X78373214Y-65057200D01*
X78373214Y-65057200D02*
X78230357Y-65104819D01*
X78230357Y-65104819D02*
X78135119Y-65104819D01*
X78135119Y-65104819D02*
X77992262Y-65057200D01*
X77992262Y-65057200D02*
X77897024Y-64961961D01*
X77897024Y-64961961D02*
X77849405Y-64866723D01*
X77849405Y-64866723D02*
X77801786Y-64676247D01*
X77801786Y-64676247D02*
X77801786Y-64533390D01*
X77801786Y-64533390D02*
X77849405Y-64342914D01*
X77849405Y-64342914D02*
X77897024Y-64247676D01*
X77897024Y-64247676D02*
X77992262Y-64152438D01*
X77992262Y-64152438D02*
X78135119Y-64104819D01*
X78135119Y-64104819D02*
X78230357Y-64104819D01*
X78230357Y-64104819D02*
X78373214Y-64152438D01*
X78373214Y-64152438D02*
X78420833Y-64200057D01*
X78897024Y-65104819D02*
X79087500Y-65104819D01*
X79087500Y-65104819D02*
X79182738Y-65057200D01*
X79182738Y-65057200D02*
X79230357Y-65009580D01*
X79230357Y-65009580D02*
X79325595Y-64866723D01*
X79325595Y-64866723D02*
X79373214Y-64676247D01*
X79373214Y-64676247D02*
X79373214Y-64295295D01*
X79373214Y-64295295D02*
X79325595Y-64200057D01*
X79325595Y-64200057D02*
X79277976Y-64152438D01*
X79277976Y-64152438D02*
X79182738Y-64104819D01*
X79182738Y-64104819D02*
X78992262Y-64104819D01*
X78992262Y-64104819D02*
X78897024Y-64152438D01*
X78897024Y-64152438D02*
X78849405Y-64200057D01*
X78849405Y-64200057D02*
X78801786Y-64295295D01*
X78801786Y-64295295D02*
X78801786Y-64533390D01*
X78801786Y-64533390D02*
X78849405Y-64628628D01*
X78849405Y-64628628D02*
X78897024Y-64676247D01*
X78897024Y-64676247D02*
X78992262Y-64723866D01*
X78992262Y-64723866D02*
X79182738Y-64723866D01*
X79182738Y-64723866D02*
X79277976Y-64676247D01*
X79277976Y-64676247D02*
X79325595Y-64628628D01*
X79325595Y-64628628D02*
X79373214Y-64533390D01*
X66570833Y-56609580D02*
X66523214Y-56657200D01*
X66523214Y-56657200D02*
X66380357Y-56704819D01*
X66380357Y-56704819D02*
X66285119Y-56704819D01*
X66285119Y-56704819D02*
X66142262Y-56657200D01*
X66142262Y-56657200D02*
X66047024Y-56561961D01*
X66047024Y-56561961D02*
X65999405Y-56466723D01*
X65999405Y-56466723D02*
X65951786Y-56276247D01*
X65951786Y-56276247D02*
X65951786Y-56133390D01*
X65951786Y-56133390D02*
X65999405Y-55942914D01*
X65999405Y-55942914D02*
X66047024Y-55847676D01*
X66047024Y-55847676D02*
X66142262Y-55752438D01*
X66142262Y-55752438D02*
X66285119Y-55704819D01*
X66285119Y-55704819D02*
X66380357Y-55704819D01*
X66380357Y-55704819D02*
X66523214Y-55752438D01*
X66523214Y-55752438D02*
X66570833Y-55800057D01*
X66904167Y-55704819D02*
X67523214Y-55704819D01*
X67523214Y-55704819D02*
X67189881Y-56085771D01*
X67189881Y-56085771D02*
X67332738Y-56085771D01*
X67332738Y-56085771D02*
X67427976Y-56133390D01*
X67427976Y-56133390D02*
X67475595Y-56181009D01*
X67475595Y-56181009D02*
X67523214Y-56276247D01*
X67523214Y-56276247D02*
X67523214Y-56514342D01*
X67523214Y-56514342D02*
X67475595Y-56609580D01*
X67475595Y-56609580D02*
X67427976Y-56657200D01*
X67427976Y-56657200D02*
X67332738Y-56704819D01*
X67332738Y-56704819D02*
X67047024Y-56704819D01*
X67047024Y-56704819D02*
X66951786Y-56657200D01*
X66951786Y-56657200D02*
X66904167Y-56609580D01*
X84762142Y-66839580D02*
X84714523Y-66887200D01*
X84714523Y-66887200D02*
X84571666Y-66934819D01*
X84571666Y-66934819D02*
X84476428Y-66934819D01*
X84476428Y-66934819D02*
X84333571Y-66887200D01*
X84333571Y-66887200D02*
X84238333Y-66791961D01*
X84238333Y-66791961D02*
X84190714Y-66696723D01*
X84190714Y-66696723D02*
X84143095Y-66506247D01*
X84143095Y-66506247D02*
X84143095Y-66363390D01*
X84143095Y-66363390D02*
X84190714Y-66172914D01*
X84190714Y-66172914D02*
X84238333Y-66077676D01*
X84238333Y-66077676D02*
X84333571Y-65982438D01*
X84333571Y-65982438D02*
X84476428Y-65934819D01*
X84476428Y-65934819D02*
X84571666Y-65934819D01*
X84571666Y-65934819D02*
X84714523Y-65982438D01*
X84714523Y-65982438D02*
X84762142Y-66030057D01*
X85714523Y-66934819D02*
X85143095Y-66934819D01*
X85428809Y-66934819D02*
X85428809Y-65934819D01*
X85428809Y-65934819D02*
X85333571Y-66077676D01*
X85333571Y-66077676D02*
X85238333Y-66172914D01*
X85238333Y-66172914D02*
X85143095Y-66220533D01*
X86333571Y-65934819D02*
X86428809Y-65934819D01*
X86428809Y-65934819D02*
X86524047Y-65982438D01*
X86524047Y-65982438D02*
X86571666Y-66030057D01*
X86571666Y-66030057D02*
X86619285Y-66125295D01*
X86619285Y-66125295D02*
X86666904Y-66315771D01*
X86666904Y-66315771D02*
X86666904Y-66553866D01*
X86666904Y-66553866D02*
X86619285Y-66744342D01*
X86619285Y-66744342D02*
X86571666Y-66839580D01*
X86571666Y-66839580D02*
X86524047Y-66887200D01*
X86524047Y-66887200D02*
X86428809Y-66934819D01*
X86428809Y-66934819D02*
X86333571Y-66934819D01*
X86333571Y-66934819D02*
X86238333Y-66887200D01*
X86238333Y-66887200D02*
X86190714Y-66839580D01*
X86190714Y-66839580D02*
X86143095Y-66744342D01*
X86143095Y-66744342D02*
X86095476Y-66553866D01*
X86095476Y-66553866D02*
X86095476Y-66315771D01*
X86095476Y-66315771D02*
X86143095Y-66125295D01*
X86143095Y-66125295D02*
X86190714Y-66030057D01*
X86190714Y-66030057D02*
X86238333Y-65982438D01*
X86238333Y-65982438D02*
X86333571Y-65934819D01*
X91357142Y-52234580D02*
X91309523Y-52282200D01*
X91309523Y-52282200D02*
X91166666Y-52329819D01*
X91166666Y-52329819D02*
X91071428Y-52329819D01*
X91071428Y-52329819D02*
X90928571Y-52282200D01*
X90928571Y-52282200D02*
X90833333Y-52186961D01*
X90833333Y-52186961D02*
X90785714Y-52091723D01*
X90785714Y-52091723D02*
X90738095Y-51901247D01*
X90738095Y-51901247D02*
X90738095Y-51758390D01*
X90738095Y-51758390D02*
X90785714Y-51567914D01*
X90785714Y-51567914D02*
X90833333Y-51472676D01*
X90833333Y-51472676D02*
X90928571Y-51377438D01*
X90928571Y-51377438D02*
X91071428Y-51329819D01*
X91071428Y-51329819D02*
X91166666Y-51329819D01*
X91166666Y-51329819D02*
X91309523Y-51377438D01*
X91309523Y-51377438D02*
X91357142Y-51425057D01*
X92309523Y-52329819D02*
X91738095Y-52329819D01*
X92023809Y-52329819D02*
X92023809Y-51329819D01*
X92023809Y-51329819D02*
X91928571Y-51472676D01*
X91928571Y-51472676D02*
X91833333Y-51567914D01*
X91833333Y-51567914D02*
X91738095Y-51615533D01*
X92690476Y-51425057D02*
X92738095Y-51377438D01*
X92738095Y-51377438D02*
X92833333Y-51329819D01*
X92833333Y-51329819D02*
X93071428Y-51329819D01*
X93071428Y-51329819D02*
X93166666Y-51377438D01*
X93166666Y-51377438D02*
X93214285Y-51425057D01*
X93214285Y-51425057D02*
X93261904Y-51520295D01*
X93261904Y-51520295D02*
X93261904Y-51615533D01*
X93261904Y-51615533D02*
X93214285Y-51758390D01*
X93214285Y-51758390D02*
X92642857Y-52329819D01*
X92642857Y-52329819D02*
X93261904Y-52329819D01*
X70570833Y-56609580D02*
X70523214Y-56657200D01*
X70523214Y-56657200D02*
X70380357Y-56704819D01*
X70380357Y-56704819D02*
X70285119Y-56704819D01*
X70285119Y-56704819D02*
X70142262Y-56657200D01*
X70142262Y-56657200D02*
X70047024Y-56561961D01*
X70047024Y-56561961D02*
X69999405Y-56466723D01*
X69999405Y-56466723D02*
X69951786Y-56276247D01*
X69951786Y-56276247D02*
X69951786Y-56133390D01*
X69951786Y-56133390D02*
X69999405Y-55942914D01*
X69999405Y-55942914D02*
X70047024Y-55847676D01*
X70047024Y-55847676D02*
X70142262Y-55752438D01*
X70142262Y-55752438D02*
X70285119Y-55704819D01*
X70285119Y-55704819D02*
X70380357Y-55704819D01*
X70380357Y-55704819D02*
X70523214Y-55752438D01*
X70523214Y-55752438D02*
X70570833Y-55800057D01*
X71475595Y-55704819D02*
X70999405Y-55704819D01*
X70999405Y-55704819D02*
X70951786Y-56181009D01*
X70951786Y-56181009D02*
X70999405Y-56133390D01*
X70999405Y-56133390D02*
X71094643Y-56085771D01*
X71094643Y-56085771D02*
X71332738Y-56085771D01*
X71332738Y-56085771D02*
X71427976Y-56133390D01*
X71427976Y-56133390D02*
X71475595Y-56181009D01*
X71475595Y-56181009D02*
X71523214Y-56276247D01*
X71523214Y-56276247D02*
X71523214Y-56514342D01*
X71523214Y-56514342D02*
X71475595Y-56609580D01*
X71475595Y-56609580D02*
X71427976Y-56657200D01*
X71427976Y-56657200D02*
X71332738Y-56704819D01*
X71332738Y-56704819D02*
X71094643Y-56704819D01*
X71094643Y-56704819D02*
X70999405Y-56657200D01*
X70999405Y-56657200D02*
X70951786Y-56609580D01*
X64570833Y-56609580D02*
X64523214Y-56657200D01*
X64523214Y-56657200D02*
X64380357Y-56704819D01*
X64380357Y-56704819D02*
X64285119Y-56704819D01*
X64285119Y-56704819D02*
X64142262Y-56657200D01*
X64142262Y-56657200D02*
X64047024Y-56561961D01*
X64047024Y-56561961D02*
X63999405Y-56466723D01*
X63999405Y-56466723D02*
X63951786Y-56276247D01*
X63951786Y-56276247D02*
X63951786Y-56133390D01*
X63951786Y-56133390D02*
X63999405Y-55942914D01*
X63999405Y-55942914D02*
X64047024Y-55847676D01*
X64047024Y-55847676D02*
X64142262Y-55752438D01*
X64142262Y-55752438D02*
X64285119Y-55704819D01*
X64285119Y-55704819D02*
X64380357Y-55704819D01*
X64380357Y-55704819D02*
X64523214Y-55752438D01*
X64523214Y-55752438D02*
X64570833Y-55800057D01*
X64951786Y-55800057D02*
X64999405Y-55752438D01*
X64999405Y-55752438D02*
X65094643Y-55704819D01*
X65094643Y-55704819D02*
X65332738Y-55704819D01*
X65332738Y-55704819D02*
X65427976Y-55752438D01*
X65427976Y-55752438D02*
X65475595Y-55800057D01*
X65475595Y-55800057D02*
X65523214Y-55895295D01*
X65523214Y-55895295D02*
X65523214Y-55990533D01*
X65523214Y-55990533D02*
X65475595Y-56133390D01*
X65475595Y-56133390D02*
X64904167Y-56704819D01*
X64904167Y-56704819D02*
X65523214Y-56704819D01*
X77205833Y-58589819D02*
X76872500Y-58113628D01*
X76634405Y-58589819D02*
X76634405Y-57589819D01*
X76634405Y-57589819D02*
X77015357Y-57589819D01*
X77015357Y-57589819D02*
X77110595Y-57637438D01*
X77110595Y-57637438D02*
X77158214Y-57685057D01*
X77158214Y-57685057D02*
X77205833Y-57780295D01*
X77205833Y-57780295D02*
X77205833Y-57923152D01*
X77205833Y-57923152D02*
X77158214Y-58018390D01*
X77158214Y-58018390D02*
X77110595Y-58066009D01*
X77110595Y-58066009D02*
X77015357Y-58113628D01*
X77015357Y-58113628D02*
X76634405Y-58113628D01*
X78110595Y-57589819D02*
X77634405Y-57589819D01*
X77634405Y-57589819D02*
X77586786Y-58066009D01*
X77586786Y-58066009D02*
X77634405Y-58018390D01*
X77634405Y-58018390D02*
X77729643Y-57970771D01*
X77729643Y-57970771D02*
X77967738Y-57970771D01*
X77967738Y-57970771D02*
X78062976Y-58018390D01*
X78062976Y-58018390D02*
X78110595Y-58066009D01*
X78110595Y-58066009D02*
X78158214Y-58161247D01*
X78158214Y-58161247D02*
X78158214Y-58399342D01*
X78158214Y-58399342D02*
X78110595Y-58494580D01*
X78110595Y-58494580D02*
X78062976Y-58542200D01*
X78062976Y-58542200D02*
X77967738Y-58589819D01*
X77967738Y-58589819D02*
X77729643Y-58589819D01*
X77729643Y-58589819D02*
X77634405Y-58542200D01*
X77634405Y-58542200D02*
X77586786Y-58494580D01*
X73388095Y-55254819D02*
X73388095Y-56064342D01*
X73388095Y-56064342D02*
X73435714Y-56159580D01*
X73435714Y-56159580D02*
X73483333Y-56207200D01*
X73483333Y-56207200D02*
X73578571Y-56254819D01*
X73578571Y-56254819D02*
X73769047Y-56254819D01*
X73769047Y-56254819D02*
X73864285Y-56207200D01*
X73864285Y-56207200D02*
X73911904Y-56159580D01*
X73911904Y-56159580D02*
X73959523Y-56064342D01*
X73959523Y-56064342D02*
X73959523Y-55254819D01*
X74959523Y-56254819D02*
X74388095Y-56254819D01*
X74673809Y-56254819D02*
X74673809Y-55254819D01*
X74673809Y-55254819D02*
X74578571Y-55397676D01*
X74578571Y-55397676D02*
X74483333Y-55492914D01*
X74483333Y-55492914D02*
X74388095Y-55540533D01*
X69065833Y-61794580D02*
X69018214Y-61842200D01*
X69018214Y-61842200D02*
X68875357Y-61889819D01*
X68875357Y-61889819D02*
X68780119Y-61889819D01*
X68780119Y-61889819D02*
X68637262Y-61842200D01*
X68637262Y-61842200D02*
X68542024Y-61746961D01*
X68542024Y-61746961D02*
X68494405Y-61651723D01*
X68494405Y-61651723D02*
X68446786Y-61461247D01*
X68446786Y-61461247D02*
X68446786Y-61318390D01*
X68446786Y-61318390D02*
X68494405Y-61127914D01*
X68494405Y-61127914D02*
X68542024Y-61032676D01*
X68542024Y-61032676D02*
X68637262Y-60937438D01*
X68637262Y-60937438D02*
X68780119Y-60889819D01*
X68780119Y-60889819D02*
X68875357Y-60889819D01*
X68875357Y-60889819D02*
X69018214Y-60937438D01*
X69018214Y-60937438D02*
X69065833Y-60985057D01*
X69399167Y-60889819D02*
X70065833Y-60889819D01*
X70065833Y-60889819D02*
X69637262Y-61889819D01*
X83120833Y-53204819D02*
X82787500Y-52728628D01*
X82549405Y-53204819D02*
X82549405Y-52204819D01*
X82549405Y-52204819D02*
X82930357Y-52204819D01*
X82930357Y-52204819D02*
X83025595Y-52252438D01*
X83025595Y-52252438D02*
X83073214Y-52300057D01*
X83073214Y-52300057D02*
X83120833Y-52395295D01*
X83120833Y-52395295D02*
X83120833Y-52538152D01*
X83120833Y-52538152D02*
X83073214Y-52633390D01*
X83073214Y-52633390D02*
X83025595Y-52681009D01*
X83025595Y-52681009D02*
X82930357Y-52728628D01*
X82930357Y-52728628D02*
X82549405Y-52728628D01*
X83597024Y-53204819D02*
X83787500Y-53204819D01*
X83787500Y-53204819D02*
X83882738Y-53157200D01*
X83882738Y-53157200D02*
X83930357Y-53109580D01*
X83930357Y-53109580D02*
X84025595Y-52966723D01*
X84025595Y-52966723D02*
X84073214Y-52776247D01*
X84073214Y-52776247D02*
X84073214Y-52395295D01*
X84073214Y-52395295D02*
X84025595Y-52300057D01*
X84025595Y-52300057D02*
X83977976Y-52252438D01*
X83977976Y-52252438D02*
X83882738Y-52204819D01*
X83882738Y-52204819D02*
X83692262Y-52204819D01*
X83692262Y-52204819D02*
X83597024Y-52252438D01*
X83597024Y-52252438D02*
X83549405Y-52300057D01*
X83549405Y-52300057D02*
X83501786Y-52395295D01*
X83501786Y-52395295D02*
X83501786Y-52633390D01*
X83501786Y-52633390D02*
X83549405Y-52728628D01*
X83549405Y-52728628D02*
X83597024Y-52776247D01*
X83597024Y-52776247D02*
X83692262Y-52823866D01*
X83692262Y-52823866D02*
X83882738Y-52823866D01*
X83882738Y-52823866D02*
X83977976Y-52776247D01*
X83977976Y-52776247D02*
X84025595Y-52728628D01*
X84025595Y-52728628D02*
X84073214Y-52633390D01*
D11*
X81680500Y-55700000D02*
X81680500Y-57000000D01*
X81680500Y-55700000D02*
X90680500Y-55700000D01*
X81680500Y-63000000D02*
X81680500Y-64300000D01*
X90680500Y-55700000D02*
X90680500Y-57000000D01*
X90680500Y-63000000D02*
X90680500Y-64300000D01*
X90680500Y-64300000D02*
X81680500Y-64300000D01*
D12*
X88966252Y-52905000D02*
X88443746Y-52905000D01*
X88966252Y-54375000D02*
X88443746Y-54375000D01*
X67900242Y-50752500D02*
X68374758Y-50752500D01*
X67900242Y-51797500D02*
X68374758Y-51797500D01*
X68037500Y-58423746D02*
X68037500Y-58946252D01*
X69507500Y-58423746D02*
X69507500Y-58946252D01*
X89016252Y-67725000D02*
X88493746Y-67725000D01*
X89016252Y-69195000D02*
X88493746Y-69195000D01*
X77015000Y-53407742D02*
X77015000Y-53882258D01*
X78060000Y-53407742D02*
X78060000Y-53882258D01*
X73210000Y-53887258D02*
X73210000Y-53412742D01*
X74255000Y-53887258D02*
X74255000Y-53412742D01*
X68288081Y-52540000D02*
X68006919Y-52540000D01*
X68288081Y-53560000D02*
X68006919Y-53560000D01*
X71830242Y-64132500D02*
X72304758Y-64132500D01*
X71830242Y-65177500D02*
X72304758Y-65177500D01*
X67915242Y-54137500D02*
X68389758Y-54137500D01*
X67915242Y-55182500D02*
X68389758Y-55182500D01*
X97907500Y-66160000D02*
X97907500Y-63500000D01*
X95307501Y-66160000D02*
X97907500Y-66160000D01*
X95307501Y-66160000D02*
X95307501Y-63500000D01*
X95307501Y-63500000D02*
X97907500Y-63500000D01*
X94037500Y-66160000D02*
X92707500Y-66160000D01*
X92707500Y-66160000D02*
X92707500Y-64830000D01*
X97907500Y-56000000D02*
X97907500Y-53340000D01*
X95307501Y-56000000D02*
X97907500Y-56000000D01*
X95307501Y-56000000D02*
X95307501Y-53340000D01*
X95307501Y-53340000D02*
X97907500Y-53340000D01*
X94037500Y-56000000D02*
X92707500Y-56000000D01*
X92707500Y-56000000D02*
X92707500Y-54670000D01*
X76134758Y-62602500D02*
X75660242Y-62602500D01*
X76134758Y-63647500D02*
X75660242Y-63647500D01*
X59067259Y-62601000D02*
X59697259Y-62601000D01*
X59382259Y-62286000D02*
X59382259Y-62916000D01*
X62567500Y-61210000D02*
X62567500Y-67670000D01*
X62607500Y-61210000D02*
X62607500Y-67670000D01*
X62647500Y-61210000D02*
X62647500Y-67670000D01*
X62687500Y-61212000D02*
X62687500Y-67668000D01*
X62727500Y-61213000D02*
X62727500Y-67667000D01*
X62767500Y-61216000D02*
X62767500Y-67664000D01*
X62807500Y-61218000D02*
X62807500Y-63400000D01*
X62807500Y-65480000D02*
X62807500Y-67662000D01*
X62847500Y-61222000D02*
X62847500Y-63400000D01*
X62847500Y-65480000D02*
X62847500Y-67658000D01*
X62887500Y-61225000D02*
X62887500Y-63400000D01*
X62887500Y-65480000D02*
X62887500Y-67655000D01*
X62927500Y-61229000D02*
X62927500Y-63400000D01*
X62927500Y-65480000D02*
X62927500Y-67651000D01*
X62967500Y-61234000D02*
X62967500Y-63400000D01*
X62967500Y-65480000D02*
X62967500Y-67646000D01*
X63007500Y-61239000D02*
X63007500Y-63400000D01*
X63007500Y-65480000D02*
X63007500Y-67641000D01*
X63047500Y-61245000D02*
X63047500Y-63400000D01*
X63047500Y-65480000D02*
X63047500Y-67635000D01*
X63087500Y-61251000D02*
X63087500Y-63400000D01*
X63087500Y-65480000D02*
X63087500Y-67629000D01*
X63127500Y-61258000D02*
X63127500Y-63400000D01*
X63127500Y-65480000D02*
X63127500Y-67622000D01*
X63167500Y-61265000D02*
X63167500Y-63400000D01*
X63167500Y-65480000D02*
X63167500Y-67615000D01*
X63207500Y-61273000D02*
X63207500Y-63400000D01*
X63207500Y-65480000D02*
X63207500Y-67607000D01*
X63247500Y-61281000D02*
X63247500Y-63400000D01*
X63247500Y-65480000D02*
X63247500Y-67599000D01*
X63288500Y-61290000D02*
X63288500Y-63400000D01*
X63288500Y-65480000D02*
X63288500Y-67590000D01*
X63328500Y-61299000D02*
X63328500Y-63400000D01*
X63328500Y-65480000D02*
X63328500Y-67581000D01*
X63368500Y-61309000D02*
X63368500Y-63400000D01*
X63368500Y-65480000D02*
X63368500Y-67571000D01*
X63408500Y-61319000D02*
X63408500Y-63400000D01*
X63408500Y-65480000D02*
X63408500Y-67561000D01*
X63448500Y-61330000D02*
X63448500Y-63400000D01*
X63448500Y-65480000D02*
X63448500Y-67550000D01*
X63488500Y-61342000D02*
X63488500Y-63400000D01*
X63488500Y-65480000D02*
X63488500Y-67538000D01*
X63528500Y-61354000D02*
X63528500Y-63400000D01*
X63528500Y-65480000D02*
X63528500Y-67526000D01*
X63568500Y-61366000D02*
X63568500Y-63400000D01*
X63568500Y-65480000D02*
X63568500Y-67514000D01*
X63608500Y-61379000D02*
X63608500Y-63400000D01*
X63608500Y-65480000D02*
X63608500Y-67501000D01*
X63648500Y-61393000D02*
X63648500Y-63400000D01*
X63648500Y-65480000D02*
X63648500Y-67487000D01*
X63688500Y-61407000D02*
X63688500Y-63400000D01*
X63688500Y-65480000D02*
X63688500Y-67473000D01*
X63728500Y-61422000D02*
X63728500Y-63400000D01*
X63728500Y-65480000D02*
X63728500Y-67458000D01*
X63768500Y-61438000D02*
X63768500Y-63400000D01*
X63768500Y-65480000D02*
X63768500Y-67442000D01*
X63808500Y-61454000D02*
X63808500Y-63400000D01*
X63808500Y-65480000D02*
X63808500Y-67426000D01*
X63848500Y-61470000D02*
X63848500Y-63400000D01*
X63848500Y-65480000D02*
X63848500Y-67410000D01*
X63888500Y-61488000D02*
X63888500Y-63400000D01*
X63888500Y-65480000D02*
X63888500Y-67392000D01*
X63928500Y-61506000D02*
X63928500Y-63400000D01*
X63928500Y-65480000D02*
X63928500Y-67374000D01*
X63968500Y-61524000D02*
X63968500Y-63400000D01*
X63968500Y-65480000D02*
X63968500Y-67356000D01*
X64008500Y-61544000D02*
X64008500Y-63400000D01*
X64008500Y-65480000D02*
X64008500Y-67336000D01*
X64048500Y-61564000D02*
X64048500Y-63400000D01*
X64048500Y-65480000D02*
X64048500Y-67316000D01*
X64088500Y-61584000D02*
X64088500Y-63400000D01*
X64088500Y-65480000D02*
X64088500Y-67296000D01*
X64128500Y-61606000D02*
X64128500Y-63400000D01*
X64128500Y-65480000D02*
X64128500Y-67274000D01*
X64168500Y-61628000D02*
X64168500Y-63400000D01*
X64168500Y-65480000D02*
X64168500Y-67252000D01*
X64208500Y-61650000D02*
X64208500Y-63400000D01*
X64208500Y-65480000D02*
X64208500Y-67230000D01*
X64248500Y-61674000D02*
X64248500Y-63400000D01*
X64248500Y-65480000D02*
X64248500Y-67206000D01*
X64288500Y-61698000D02*
X64288500Y-63400000D01*
X64288500Y-65480000D02*
X64288500Y-67182000D01*
X64328500Y-61724000D02*
X64328500Y-63400000D01*
X64328500Y-65480000D02*
X64328500Y-67156000D01*
X64368500Y-61750000D02*
X64368500Y-63400000D01*
X64368500Y-65480000D02*
X64368500Y-67130000D01*
X64408500Y-61776000D02*
X64408500Y-63400000D01*
X64408500Y-65480000D02*
X64408500Y-67104000D01*
X64448500Y-61804000D02*
X64448500Y-63400000D01*
X64448500Y-65480000D02*
X64448500Y-67076000D01*
X64488500Y-61833000D02*
X64488500Y-63400000D01*
X64488500Y-65480000D02*
X64488500Y-67047000D01*
X64528500Y-61862000D02*
X64528500Y-63400000D01*
X64528500Y-65480000D02*
X64528500Y-67018000D01*
X64568500Y-61892000D02*
X64568500Y-63400000D01*
X64568500Y-65480000D02*
X64568500Y-66988000D01*
X64608500Y-61924000D02*
X64608500Y-63400000D01*
X64608500Y-65480000D02*
X64608500Y-66956000D01*
X64648500Y-61956000D02*
X64648500Y-63400000D01*
X64648500Y-65480000D02*
X64648500Y-66924000D01*
X64688500Y-61990000D02*
X64688500Y-63400000D01*
X64688500Y-65480000D02*
X64688500Y-66890000D01*
X64728500Y-62024000D02*
X64728500Y-63400000D01*
X64728500Y-65480000D02*
X64728500Y-66856000D01*
X64768500Y-62060000D02*
X64768500Y-63400000D01*
X64768500Y-65480000D02*
X64768500Y-66820000D01*
X64808500Y-62097000D02*
X64808500Y-63400000D01*
X64808500Y-65480000D02*
X64808500Y-66783000D01*
X64848500Y-62135000D02*
X64848500Y-63400000D01*
X64848500Y-65480000D02*
X64848500Y-66745000D01*
X64888500Y-62175000D02*
X64888500Y-66705000D01*
X64928500Y-62216000D02*
X64928500Y-66664000D01*
X64968500Y-62258000D02*
X64968500Y-66622000D01*
X65008500Y-62303000D02*
X65008500Y-66577000D01*
X65048500Y-62348000D02*
X65048500Y-66532000D01*
X65088500Y-62396000D02*
X65088500Y-66484000D01*
X65128500Y-62445000D02*
X65128500Y-66435000D01*
X65168500Y-62496000D02*
X65168500Y-66384000D01*
X65208500Y-62550000D02*
X65208500Y-66330000D01*
X65248500Y-62606000D02*
X65248500Y-66274000D01*
X65288500Y-62664000D02*
X65288500Y-66216000D01*
X65328500Y-62726000D02*
X65328500Y-66154000D01*
X65368500Y-62790000D02*
X65368500Y-66090000D01*
X65408500Y-62859000D02*
X65408500Y-66021000D01*
X65448500Y-62931000D02*
X65448500Y-65949000D01*
X65488500Y-63008000D02*
X65488500Y-65872000D01*
X65528500Y-63090000D02*
X65528500Y-65790000D01*
X65568500Y-63178000D02*
X65568500Y-65702000D01*
X65608500Y-63275000D02*
X65608500Y-65605000D01*
X65648500Y-63381000D02*
X65648500Y-65499000D01*
X65688500Y-63500000D02*
X65688500Y-65380000D01*
X65728500Y-63638000D02*
X65728500Y-65242000D01*
X65768500Y-63807000D02*
X65768500Y-65073000D01*
X65808500Y-64038000D02*
X65808500Y-64842000D01*
X65837500Y-64440000D02*
G75*
G02*
X59297500Y-64440000I-3270000J0D01*
G01*
X59297500Y-64440000D02*
G75*
G02*
X65837500Y-64440000I3270000J0D01*
G01*
X70152500Y-50540000D02*
X70152500Y-52010000D01*
X70152500Y-52010000D02*
X72437500Y-52010000D01*
X72437500Y-50540000D02*
X70152500Y-50540000D01*
X78672500Y-57460581D02*
X78672500Y-57179419D01*
X79692500Y-57460581D02*
X79692500Y-57179419D01*
X57267500Y-66040000D02*
X57267500Y-67370000D01*
X55937500Y-66040000D02*
X57267500Y-66040000D01*
X54667499Y-68700000D02*
X52067500Y-68700000D01*
X54667499Y-66040000D02*
X54667499Y-68700000D01*
X54667499Y-66040000D02*
X52067500Y-66040000D01*
X52067500Y-66040000D02*
X52067500Y-68700000D01*
X71830242Y-65592500D02*
X72304758Y-65592500D01*
X71830242Y-66637500D02*
X72304758Y-66637500D01*
X75660242Y-61142500D02*
X76134758Y-61142500D01*
X75660242Y-62187500D02*
X76134758Y-62187500D01*
X71082500Y-53887258D02*
X71082500Y-53412742D01*
X72127500Y-53887258D02*
X72127500Y-53412742D01*
X76038081Y-64145000D02*
X75756919Y-64145000D01*
X76038081Y-65165000D02*
X75756919Y-65165000D01*
X66077500Y-58423748D02*
X66077500Y-58946254D01*
X67547500Y-58423748D02*
X67547500Y-58946254D01*
X57267500Y-50800000D02*
X57267500Y-52130000D01*
X55937500Y-50800000D02*
X57267500Y-50800000D01*
X54667499Y-53460000D02*
X52067500Y-53460000D01*
X54667499Y-50800000D02*
X54667499Y-53460000D01*
X54667499Y-50800000D02*
X52067500Y-50800000D01*
X52067500Y-50800000D02*
X52067500Y-53460000D01*
X89016252Y-65765000D02*
X88493746Y-65765000D01*
X89016252Y-67235000D02*
X88493746Y-67235000D01*
X88966253Y-50945000D02*
X88443747Y-50945000D01*
X88966253Y-52415000D02*
X88443747Y-52415000D01*
X69972500Y-58559419D02*
X69972500Y-58840581D01*
X70992500Y-58559419D02*
X70992500Y-58840581D01*
X64117500Y-58423748D02*
X64117500Y-58946254D01*
X65587500Y-58423748D02*
X65587500Y-58946254D01*
X76730242Y-56042500D02*
X77204758Y-56042500D01*
X76730242Y-57087500D02*
X77204758Y-57087500D01*
D11*
X72562500Y-56905000D02*
X72562500Y-57455000D01*
X72562500Y-56905000D02*
X72762500Y-56905000D01*
X72562500Y-58055000D02*
X72562500Y-58755000D01*
X72562500Y-59355000D02*
X72562500Y-59905000D01*
X72562500Y-59905000D02*
X72762500Y-59905000D01*
X74862500Y-56905000D02*
X75062500Y-56905000D01*
X74862500Y-59905000D02*
X75062500Y-59905000D01*
X75062500Y-56905000D02*
X75062500Y-57455000D01*
X75062500Y-59355000D02*
X75062500Y-59905000D01*
X72412500Y-57405000D02*
G75*
G02*
X72312500Y-57405000I-50000J0D01*
G01*
X72312500Y-57405000D02*
G75*
G02*
X72412500Y-57405000I50000J0D01*
G01*
D12*
X72108081Y-60885000D02*
X71826919Y-60885000D01*
X72108081Y-61905000D02*
X71826919Y-61905000D01*
X75115000Y-53882258D02*
X75115000Y-53407742D01*
X76160000Y-53882258D02*
X76160000Y-53407742D01*
%LPC*%
D13*
X80835892Y-66310750D02*
X80957811Y-66315070D01*
X81078695Y-66322233D01*
X81198341Y-66332201D01*
X81316548Y-66344931D01*
X81433110Y-66360385D01*
X81547827Y-66378523D01*
X81660493Y-66399303D01*
X81770908Y-66422686D01*
X81878866Y-66448632D01*
X81984167Y-66477100D01*
X82086606Y-66508050D01*
X82185980Y-66541442D01*
X82282087Y-66577236D01*
X82374723Y-66615392D01*
X82463687Y-66655869D01*
X82548347Y-66698404D01*
X82628155Y-66742698D01*
X82703027Y-66788653D01*
X82772877Y-66836174D01*
X82837623Y-66885162D01*
X82897180Y-66935522D01*
X82951464Y-66987157D01*
X83000391Y-67039969D01*
X83043877Y-67093863D01*
X83063553Y-67121186D01*
X83081837Y-67148742D01*
X83098719Y-67176521D01*
X83114188Y-67204509D01*
X83128234Y-67232695D01*
X83140846Y-67261067D01*
X83152014Y-67289613D01*
X83161726Y-67318320D01*
X83169974Y-67347176D01*
X83176745Y-67376170D01*
X83182030Y-67405290D01*
X83185818Y-67434522D01*
X83188098Y-67463856D01*
X83188861Y-67493278D01*
X83188095Y-67522671D01*
X83185813Y-67551977D01*
X83182024Y-67581183D01*
X83176738Y-67610277D01*
X83169966Y-67639248D01*
X83161719Y-67668082D01*
X83140841Y-67725294D01*
X83114187Y-67781817D01*
X83081841Y-67837553D01*
X83043889Y-67892405D01*
X83000413Y-67946276D01*
X82951497Y-67999070D01*
X82897226Y-68050689D01*
X82837684Y-68101036D01*
X82772955Y-68150014D01*
X82703123Y-68197526D01*
X82628271Y-68243475D01*
X82548484Y-68287763D01*
X82463847Y-68330295D01*
X82374908Y-68370769D01*
X82282295Y-68408923D01*
X82186213Y-68444715D01*
X82086862Y-68478107D01*
X81984447Y-68509059D01*
X81879170Y-68537528D01*
X81771234Y-68563477D01*
X81660840Y-68586864D01*
X81548193Y-68607649D01*
X81433495Y-68625793D01*
X81316948Y-68641254D01*
X81198756Y-68653993D01*
X81079121Y-68663969D01*
X80958245Y-68671143D01*
X80836332Y-68675474D01*
X80713584Y-68676921D01*
X80586233Y-68675378D01*
X80460554Y-68670804D01*
X80336703Y-68663273D01*
X80214834Y-68652861D01*
X80095104Y-68639641D01*
X79977668Y-68623689D01*
X79862682Y-68605077D01*
X79750300Y-68583881D01*
X79640679Y-68560176D01*
X79533974Y-68534035D01*
X79430340Y-68505532D01*
X79329932Y-68474743D01*
X79232908Y-68441742D01*
X79139421Y-68406602D01*
X79049627Y-68369399D01*
X78963682Y-68330207D01*
X78881741Y-68289099D01*
X78803960Y-68246151D01*
X78730494Y-68201437D01*
X78724263Y-68197246D01*
X78661498Y-68155031D01*
X78597129Y-68107008D01*
X78581191Y-68093750D01*
X78873981Y-68093750D01*
X78873981Y-68197246D01*
X79600154Y-68197246D01*
X79600154Y-68093750D01*
X81798293Y-68093750D01*
X81798293Y-68197246D01*
X82524787Y-68197246D01*
X82524787Y-68093750D01*
X81798293Y-68093750D01*
X79600154Y-68093750D01*
X78873981Y-68093750D01*
X78581191Y-68093750D01*
X78537542Y-68057442D01*
X78482891Y-68006407D01*
X78433333Y-67953978D01*
X78428369Y-67947956D01*
X78389024Y-67900229D01*
X78350117Y-67845235D01*
X78316770Y-67789069D01*
X78289137Y-67731807D01*
X78267375Y-67673523D01*
X78251637Y-67614290D01*
X78242081Y-67554184D01*
X78238861Y-67493278D01*
X78239609Y-67463882D01*
X78241875Y-67434574D01*
X78245649Y-67405364D01*
X78250919Y-67376267D01*
X78257675Y-67347293D01*
X78265908Y-67318455D01*
X78286757Y-67261235D01*
X78313384Y-67204704D01*
X78345703Y-67148959D01*
X78383631Y-67094098D01*
X78427085Y-67040217D01*
X78475979Y-66987413D01*
X78530229Y-66935784D01*
X78589753Y-66885426D01*
X78654466Y-66836437D01*
X78718057Y-66793152D01*
X79754264Y-66793152D01*
X79754264Y-67947956D01*
X79900336Y-67947956D01*
X79900336Y-67409645D01*
X80493629Y-67409645D01*
X80493629Y-67947956D01*
X80639377Y-67947956D01*
X80639377Y-67947952D01*
X80955646Y-67947952D01*
X81101394Y-67947952D01*
X81101394Y-67500000D01*
X81219794Y-67396503D01*
X81629695Y-67947952D01*
X81801822Y-67947952D01*
X81325000Y-67296211D01*
X81783805Y-66793148D01*
X81613604Y-66793148D01*
X81300872Y-67142731D01*
X81200168Y-67252636D01*
X81175161Y-67280122D01*
X81150378Y-67307591D01*
X81101398Y-67362541D01*
X81101398Y-66793152D01*
X80955649Y-66793152D01*
X80955646Y-67947952D01*
X80639377Y-67947952D01*
X80639377Y-66793152D01*
X80493629Y-66793152D01*
X80493629Y-67281795D01*
X79900336Y-67281795D01*
X79900336Y-66793152D01*
X79754264Y-66793152D01*
X78718057Y-66793152D01*
X78724283Y-66788914D01*
X78799121Y-66742953D01*
X78878896Y-66698653D01*
X78963523Y-66656109D01*
X79052454Y-66615623D01*
X79145059Y-66577457D01*
X79241136Y-66541653D01*
X79340481Y-66508249D01*
X79442891Y-66477286D01*
X79548165Y-66448805D01*
X79656098Y-66422845D01*
X79766487Y-66399447D01*
X79879131Y-66378652D01*
X79993826Y-66360498D01*
X80110368Y-66345027D01*
X80228556Y-66332278D01*
X80348186Y-66322293D01*
X80469055Y-66315110D01*
X80590960Y-66310771D01*
X80713422Y-66309318D01*
X80835892Y-66310750D01*
G36*
X80835892Y-66310750D02*
G01*
X80957811Y-66315070D01*
X81078695Y-66322233D01*
X81198341Y-66332201D01*
X81316548Y-66344931D01*
X81433110Y-66360385D01*
X81547827Y-66378523D01*
X81660493Y-66399303D01*
X81770908Y-66422686D01*
X81878866Y-66448632D01*
X81984167Y-66477100D01*
X82086606Y-66508050D01*
X82185980Y-66541442D01*
X82282087Y-66577236D01*
X82374723Y-66615392D01*
X82463687Y-66655869D01*
X82548347Y-66698404D01*
X82628155Y-66742698D01*
X82703027Y-66788653D01*
X82772877Y-66836174D01*
X82837623Y-66885162D01*
X82897180Y-66935522D01*
X82951464Y-66987157D01*
X83000391Y-67039969D01*
X83043877Y-67093863D01*
X83063553Y-67121186D01*
X83081837Y-67148742D01*
X83098719Y-67176521D01*
X83114188Y-67204509D01*
X83128234Y-67232695D01*
X83140846Y-67261067D01*
X83152014Y-67289613D01*
X83161726Y-67318320D01*
X83169974Y-67347176D01*
X83176745Y-67376170D01*
X83182030Y-67405290D01*
X83185818Y-67434522D01*
X83188098Y-67463856D01*
X83188861Y-67493278D01*
X83188095Y-67522671D01*
X83185813Y-67551977D01*
X83182024Y-67581183D01*
X83176738Y-67610277D01*
X83169966Y-67639248D01*
X83161719Y-67668082D01*
X83140841Y-67725294D01*
X83114187Y-67781817D01*
X83081841Y-67837553D01*
X83043889Y-67892405D01*
X83000413Y-67946276D01*
X82951497Y-67999070D01*
X82897226Y-68050689D01*
X82837684Y-68101036D01*
X82772955Y-68150014D01*
X82703123Y-68197526D01*
X82628271Y-68243475D01*
X82548484Y-68287763D01*
X82463847Y-68330295D01*
X82374908Y-68370769D01*
X82282295Y-68408923D01*
X82186213Y-68444715D01*
X82086862Y-68478107D01*
X81984447Y-68509059D01*
X81879170Y-68537528D01*
X81771234Y-68563477D01*
X81660840Y-68586864D01*
X81548193Y-68607649D01*
X81433495Y-68625793D01*
X81316948Y-68641254D01*
X81198756Y-68653993D01*
X81079121Y-68663969D01*
X80958245Y-68671143D01*
X80836332Y-68675474D01*
X80713584Y-68676921D01*
X80586233Y-68675378D01*
X80460554Y-68670804D01*
X80336703Y-68663273D01*
X80214834Y-68652861D01*
X80095104Y-68639641D01*
X79977668Y-68623689D01*
X79862682Y-68605077D01*
X79750300Y-68583881D01*
X79640679Y-68560176D01*
X79533974Y-68534035D01*
X79430340Y-68505532D01*
X79329932Y-68474743D01*
X79232908Y-68441742D01*
X79139421Y-68406602D01*
X79049627Y-68369399D01*
X78963682Y-68330207D01*
X78881741Y-68289099D01*
X78803960Y-68246151D01*
X78730494Y-68201437D01*
X78724263Y-68197246D01*
X78661498Y-68155031D01*
X78597129Y-68107008D01*
X78581191Y-68093750D01*
X78873981Y-68093750D01*
X78873981Y-68197246D01*
X79600154Y-68197246D01*
X79600154Y-68093750D01*
X81798293Y-68093750D01*
X81798293Y-68197246D01*
X82524787Y-68197246D01*
X82524787Y-68093750D01*
X81798293Y-68093750D01*
X79600154Y-68093750D01*
X78873981Y-68093750D01*
X78581191Y-68093750D01*
X78537542Y-68057442D01*
X78482891Y-68006407D01*
X78433333Y-67953978D01*
X78428369Y-67947956D01*
X78389024Y-67900229D01*
X78350117Y-67845235D01*
X78316770Y-67789069D01*
X78289137Y-67731807D01*
X78267375Y-67673523D01*
X78251637Y-67614290D01*
X78242081Y-67554184D01*
X78238861Y-67493278D01*
X78239609Y-67463882D01*
X78241875Y-67434574D01*
X78245649Y-67405364D01*
X78250919Y-67376267D01*
X78257675Y-67347293D01*
X78265908Y-67318455D01*
X78286757Y-67261235D01*
X78313384Y-67204704D01*
X78345703Y-67148959D01*
X78383631Y-67094098D01*
X78427085Y-67040217D01*
X78475979Y-66987413D01*
X78530229Y-66935784D01*
X78589753Y-66885426D01*
X78654466Y-66836437D01*
X78718057Y-66793152D01*
X79754264Y-66793152D01*
X79754264Y-67947956D01*
X79900336Y-67947956D01*
X79900336Y-67409645D01*
X80493629Y-67409645D01*
X80493629Y-67947956D01*
X80639377Y-67947956D01*
X80639377Y-67947952D01*
X80955646Y-67947952D01*
X81101394Y-67947952D01*
X81101394Y-67500000D01*
X81219794Y-67396503D01*
X81629695Y-67947952D01*
X81801822Y-67947952D01*
X81325000Y-67296211D01*
X81783805Y-66793148D01*
X81613604Y-66793148D01*
X81300872Y-67142731D01*
X81200168Y-67252636D01*
X81175161Y-67280122D01*
X81150378Y-67307591D01*
X81101398Y-67362541D01*
X81101398Y-66793152D01*
X80955649Y-66793152D01*
X80955646Y-67947952D01*
X80639377Y-67947952D01*
X80639377Y-66793152D01*
X80493629Y-66793152D01*
X80493629Y-67281795D01*
X79900336Y-67281795D01*
X79900336Y-66793152D01*
X79754264Y-66793152D01*
X78718057Y-66793152D01*
X78724283Y-66788914D01*
X78799121Y-66742953D01*
X78878896Y-66698653D01*
X78963523Y-66656109D01*
X79052454Y-66615623D01*
X79145059Y-66577457D01*
X79241136Y-66541653D01*
X79340481Y-66508249D01*
X79442891Y-66477286D01*
X79548165Y-66448805D01*
X79656098Y-66422845D01*
X79766487Y-66399447D01*
X79879131Y-66378652D01*
X79993826Y-66360498D01*
X80110368Y-66345027D01*
X80228556Y-66332278D01*
X80348186Y-66322293D01*
X80469055Y-66315110D01*
X80590960Y-66310771D01*
X80713422Y-66309318D01*
X80835892Y-66310750D01*
G37*
X80713422Y-66309318D02*
X80713142Y-66309315D01*
X80713698Y-66309315D01*
X80713422Y-66309318D01*
G36*
X80713422Y-66309318D02*
G01*
X80713142Y-66309315D01*
X80713698Y-66309315D01*
X80713422Y-66309318D01*
G37*
D14*
X82561000Y-60000000D03*
X89800000Y-60000000D03*
D15*
X59000000Y-68500000D03*
X98000000Y-51500000D03*
D16*
X89654998Y-53640000D03*
X87755000Y-53640000D03*
D17*
X67312500Y-51275000D03*
X68962500Y-51275000D03*
D18*
X68772500Y-57735000D03*
X68772500Y-59634998D03*
D16*
X89704998Y-68460000D03*
X87805000Y-68460000D03*
D19*
X77537500Y-52820000D03*
X77537500Y-54470000D03*
D20*
X73732500Y-54475000D03*
X73732500Y-52825000D03*
D21*
X68922500Y-53050000D03*
X67372500Y-53050000D03*
D17*
X71242500Y-64655000D03*
X72892500Y-64655000D03*
X67327500Y-54660000D03*
X68977500Y-54660000D03*
D22*
X96577500Y-64830000D03*
D23*
X94037500Y-64830000D03*
D22*
X96577500Y-54670000D03*
D23*
X94037500Y-54670000D03*
D24*
X76722500Y-63125000D03*
X75072500Y-63125000D03*
D25*
X61317500Y-64440000D03*
D26*
X63817500Y-64440000D03*
D27*
X70850000Y-51275000D03*
X72425000Y-51275000D03*
D28*
X79182500Y-58095000D03*
X79182500Y-56545000D03*
D22*
X53397500Y-67370000D03*
D23*
X55937500Y-67370000D03*
D17*
X71242500Y-66115000D03*
X72892500Y-66115000D03*
X75072500Y-61665000D03*
X76722500Y-61665000D03*
D20*
X71605000Y-54475000D03*
X71605000Y-52825000D03*
D21*
X76672500Y-64655000D03*
X75122500Y-64655000D03*
D18*
X66812500Y-57735002D03*
X66812500Y-59635000D03*
D22*
X53397500Y-52130000D03*
D23*
X55937500Y-52130000D03*
D16*
X89704998Y-66500000D03*
X87805000Y-66500000D03*
X89654999Y-51680000D03*
X87755001Y-51680000D03*
D29*
X70482500Y-57925000D03*
X70482500Y-59475000D03*
D18*
X64852500Y-57735002D03*
X64852500Y-59635000D03*
D17*
X76142500Y-56565000D03*
X77792500Y-56565000D03*
D30*
X73012500Y-57755000D03*
X73012500Y-59055000D03*
D31*
X73062500Y-59855000D03*
X73562500Y-59855000D03*
X74062500Y-59855000D03*
X74562500Y-59855000D03*
D32*
X75012500Y-59055000D03*
D30*
X74612500Y-58405000D03*
D32*
X75012500Y-57755000D03*
D31*
X74562500Y-56955000D03*
X74062500Y-56955000D03*
X73562500Y-56955000D03*
X73062500Y-56955000D03*
D21*
X72742500Y-61395000D03*
X71192500Y-61395000D03*
D20*
X75637500Y-54470000D03*
X75637500Y-52820000D03*
%LPD*%
M02*
