%TF.GenerationSoftware,KiCad,Pcbnew,8.0.5*%
%TF.CreationDate,2024-10-13T23:37:33+02:00*%
%TF.ProjectId,DCDC_converter,44434443-5f63-46f6-9e76-65727465722e,rev?*%
%TF.SameCoordinates,Original*%
%TF.FileFunction,Drillmap*%
%TF.FilePolarity,Positive*%
%FSLAX45Y45*%
G04 Gerber Fmt 4.5, Leading zero omitted, Abs format (unit mm)*
G04 Created by KiCad (PCBNEW 8.0.5) date 2024-10-13 23:37:33*
%MOMM*%
%LPD*%
G01*
G04 APERTURE LIST*
%ADD10C,0.050000*%
%ADD11C,0.200000*%
%ADD12C,0.100000*%
%ADD13C,0.115200*%
G04 APERTURE END LIST*
D10*
X5800000Y-15800000D02*
G75*
G02*
X5800000Y-16000000I0J-100000D01*
G01*
X15200000Y-13800000D02*
X15200000Y-14600000D01*
X11400000Y-4800000D02*
X12500000Y-4800000D01*
X14000000Y-15800000D02*
G75*
G02*
X14000000Y-16000000I0J-100000D01*
G01*
X8800000Y-9200000D02*
G75*
G02*
X8800000Y-9400000I0J-100000D01*
G01*
X14400000Y-11600000D02*
X15200000Y-11600000D01*
X11000000Y-7000000D02*
G75*
G02*
X11000000Y-7200000I0J-100000D01*
G01*
X5800000Y-13800000D02*
X5000000Y-13800000D01*
X7700000Y-11400000D02*
X8800000Y-11400000D01*
X15200000Y-9400000D02*
X14400000Y-9400000D01*
X11400000Y-13600000D02*
X12500000Y-13600000D01*
X9200000Y-7200000D02*
X10000000Y-7200000D01*
X10920000Y-8120000D02*
G75*
G02*
X10920000Y-8220000I0J-50000D01*
G01*
X10000000Y-7000000D02*
X10000000Y-6200000D01*
X10200000Y-6200000D02*
X10200000Y-7000000D01*
X5720000Y-12520000D02*
G75*
G02*
X5720000Y-12620000I0J-50000D01*
G01*
X5280000Y-12620000D02*
G75*
G02*
X5280000Y-12520000I0J50000D01*
G01*
X7300000Y-15800000D02*
G75*
G02*
X7300000Y-16000000I0J-100000D01*
G01*
X5000000Y-9200000D02*
X5000000Y-7200000D01*
X14850000Y-6000000D02*
G75*
G02*
X14650000Y-6000000I-100000J0D01*
G01*
X14650000Y-6000000D02*
G75*
G02*
X14850000Y-6000000I100000J0D01*
G01*
X10920000Y-12520000D02*
G75*
G02*
X10920000Y-12620000I0J-50000D01*
G01*
X14850000Y-8200000D02*
G75*
G02*
X14650000Y-8200000I-100000J0D01*
G01*
X14650000Y-8200000D02*
G75*
G02*
X14850000Y-8200000I100000J0D01*
G01*
X14850000Y-14800000D02*
G75*
G02*
X14650000Y-14800000I-100000J0D01*
G01*
X14650000Y-14800000D02*
G75*
G02*
X14850000Y-14800000I100000J0D01*
G01*
X12900000Y-9400000D02*
G75*
G02*
X12900000Y-9200000I0J100000D01*
G01*
X11400000Y-7200000D02*
X12500000Y-7200000D01*
X8800000Y-7000000D02*
G75*
G02*
X8800000Y-7200000I0J-100000D01*
G01*
X7700000Y-9200000D02*
X8800000Y-9200000D01*
X14000000Y-11400000D02*
G75*
G02*
X14000000Y-11600000I0J-100000D01*
G01*
X11000000Y-13600000D02*
G75*
G02*
X11000000Y-13800000I0J-100000D01*
G01*
X10000000Y-8400000D02*
G75*
G02*
X10200000Y-8400000I100000J0D01*
G01*
X5280000Y-8220000D02*
G75*
G02*
X5280000Y-8120000I0J50000D01*
G01*
X10000000Y-13800000D02*
X9200000Y-13800000D01*
X5800000Y-4800000D02*
G75*
G02*
X5800000Y-5000000I0J-100000D01*
G01*
X10200000Y-13600000D02*
X11000000Y-13600000D01*
X9200000Y-7000000D02*
X10000000Y-7000000D01*
X5000000Y-7000000D02*
X5800000Y-7000000D01*
X5000000Y-11400000D02*
X5800000Y-11400000D01*
X5720000Y-10420000D02*
X5280000Y-10420000D01*
X7300000Y-13800000D02*
X6200000Y-13800000D01*
X9200000Y-11600000D02*
G75*
G02*
X9200000Y-11400000I0J100000D01*
G01*
X10480000Y-6020000D02*
G75*
G02*
X10480000Y-5920000I0J50000D01*
G01*
X6200000Y-7200000D02*
X7300000Y-7200000D01*
X10920000Y-10320000D02*
G75*
G02*
X10920000Y-10420000I0J-50000D01*
G01*
X7300000Y-4800000D02*
G75*
G02*
X7300000Y-5000000I0J-100000D01*
G01*
X5720000Y-8220000D02*
X5280000Y-8220000D01*
X10480000Y-10320000D02*
X10920000Y-10320000D01*
X15200000Y-7000000D02*
X15200000Y-6200000D01*
X5000000Y-13600000D02*
X5000000Y-11600000D01*
X5280000Y-14820000D02*
G75*
G02*
X5280000Y-14720000I0J50000D01*
G01*
X12900000Y-11400000D02*
X14000000Y-11400000D01*
X5280000Y-14720000D02*
X5720000Y-14720000D01*
X10000000Y-13600000D02*
X10000000Y-12800000D01*
X8800000Y-15800000D02*
G75*
G02*
X8800000Y-16000000I0J-100000D01*
G01*
X15200000Y-16800000D02*
X5000000Y-16800000D01*
X6200000Y-11600000D02*
G75*
G02*
X6200000Y-11400000I0J100000D01*
G01*
X11400000Y-9400000D02*
G75*
G02*
X11400000Y-9200000I0J100000D01*
G01*
X5800000Y-9400000D02*
X5000000Y-9400000D01*
X14000000Y-13600000D02*
G75*
G02*
X14000000Y-13800000I0J-100000D01*
G01*
X7300000Y-13600000D02*
G75*
G02*
X7300000Y-13800000I0J-100000D01*
G01*
X8800000Y-9400000D02*
X7700000Y-9400000D01*
X15200000Y-5000000D02*
X15200000Y-5800000D01*
X10000000Y-15000000D02*
G75*
G02*
X10200000Y-15000000I100000J0D01*
G01*
X15200000Y-13800000D02*
X14400000Y-13800000D01*
X10200000Y-13600000D02*
X10200000Y-12800000D01*
X6200000Y-9200000D02*
X7300000Y-9200000D01*
X7300000Y-7000000D02*
G75*
G02*
X7300000Y-7200000I0J-100000D01*
G01*
X10480000Y-8220000D02*
G75*
G02*
X10480000Y-8120000I0J50000D01*
G01*
X6200000Y-15800000D02*
X7300000Y-15800000D01*
X10200000Y-10200000D02*
G75*
G02*
X10000000Y-10200000I-100000J0D01*
G01*
X11400000Y-11600000D02*
X12500000Y-11600000D01*
X10000000Y-15800000D02*
X10000000Y-15000000D01*
X14400000Y-15800000D02*
X15200000Y-15800000D01*
X15200000Y-15000000D02*
X15200000Y-14600000D01*
X12900000Y-15800000D02*
X14000000Y-15800000D01*
X9650000Y-10400000D02*
G75*
G02*
X9450000Y-10400000I-100000J0D01*
G01*
X9450000Y-10400000D02*
G75*
G02*
X9650000Y-10400000I100000J0D01*
G01*
X12900000Y-16000000D02*
G75*
G02*
X12900000Y-15800000I0J100000D01*
G01*
X6200000Y-11600000D02*
X7300000Y-11600000D01*
X5000000Y-13600000D02*
X5800000Y-13600000D01*
X14400000Y-9200000D02*
X15200000Y-9200000D01*
X10480000Y-12620000D02*
G75*
G02*
X10480000Y-12520000I0J50000D01*
G01*
X15200000Y-12800000D02*
X15200000Y-12400000D01*
X5000000Y-15800000D02*
X5000000Y-13800000D01*
X12900000Y-7200000D02*
G75*
G02*
X12900000Y-7000000I0J100000D01*
G01*
X9200000Y-16000000D02*
G75*
G02*
X9200000Y-15800000I0J100000D01*
G01*
X10920000Y-5920000D02*
G75*
G02*
X10920000Y-6020000I0J-50000D01*
G01*
X10200000Y-5800000D02*
G75*
G02*
X10000000Y-5800000I-100000J0D01*
G01*
X12900000Y-13800000D02*
G75*
G02*
X12900000Y-13600000I0J100000D01*
G01*
X11400000Y-11600000D02*
G75*
G02*
X11400000Y-11400000I0J100000D01*
G01*
X10200000Y-7200000D02*
X11000000Y-7200000D01*
X5280000Y-10420000D02*
G75*
G02*
X5280000Y-10320000I0J50000D01*
G01*
X10200000Y-10600000D02*
X10200000Y-11400000D01*
X11400000Y-16000000D02*
G75*
G02*
X11400000Y-15800000I0J100000D01*
G01*
X11400000Y-16000000D02*
X12500000Y-16000000D01*
X9200000Y-15800000D02*
X10000000Y-15800000D01*
X5000000Y-15800000D02*
X5800000Y-15800000D01*
X14400000Y-5000000D02*
G75*
G02*
X14400000Y-4800000I0J100000D01*
G01*
X7700000Y-16000000D02*
X8800000Y-16000000D01*
X6200000Y-13600000D02*
X7300000Y-13600000D01*
X7700000Y-5000000D02*
X8800000Y-5000000D01*
X5800000Y-7000000D02*
G75*
G02*
X5800000Y-7200000I0J-100000D01*
G01*
X12900000Y-5000000D02*
G75*
G02*
X12900000Y-4800000I0J100000D01*
G01*
X7300000Y-9400000D02*
X6200000Y-9400000D01*
X9200000Y-11600000D02*
X10000000Y-11600000D01*
X15200000Y-15800000D02*
X15200000Y-15000000D01*
X14400000Y-7200000D02*
X15200000Y-7200000D01*
X12900000Y-7200000D02*
X14000000Y-7200000D01*
X5720000Y-5920000D02*
G75*
G02*
X5720000Y-6020000I0J-50000D01*
G01*
X12900000Y-7000000D02*
X14000000Y-7000000D01*
X5800000Y-9200000D02*
G75*
G02*
X5800000Y-9400000I0J-100000D01*
G01*
X15200000Y-9200000D02*
X15200000Y-8400000D01*
X14400000Y-16000000D02*
G75*
G02*
X14400000Y-15800000I0J100000D01*
G01*
X5000000Y-4000000D02*
X5000000Y-4800000D01*
X5000000Y-11600000D02*
X5800000Y-11600000D01*
X10200000Y-7200000D02*
X10200000Y-8000000D01*
X8800000Y-4800000D02*
G75*
G02*
X8800000Y-5000000I0J-100000D01*
G01*
X5280000Y-6020000D02*
G75*
G02*
X5280000Y-5920000I0J50000D01*
G01*
X5280000Y-12520000D02*
X5720000Y-12520000D01*
X9200000Y-11400000D02*
X10000000Y-11400000D01*
X14400000Y-4800000D02*
X15200000Y-4800000D01*
X9650000Y-8200000D02*
G75*
G02*
X9450000Y-8200000I-100000J0D01*
G01*
X9450000Y-8200000D02*
G75*
G02*
X9650000Y-8200000I100000J0D01*
G01*
X10200000Y-12400000D02*
G75*
G02*
X10000000Y-12400000I-100000J0D01*
G01*
X9650000Y-6000000D02*
G75*
G02*
X9450000Y-6000000I-100000J0D01*
G01*
X9450000Y-6000000D02*
G75*
G02*
X9650000Y-6000000I100000J0D01*
G01*
X10920000Y-10420000D02*
X10480000Y-10420000D01*
X10200000Y-7000000D02*
X11000000Y-7000000D01*
X12900000Y-13600000D02*
X14000000Y-13600000D01*
X7300000Y-11400000D02*
G75*
G02*
X7300000Y-11600000I0J-100000D01*
G01*
X10000000Y-9200000D02*
X10000000Y-8400000D01*
X6200000Y-16000000D02*
X7300000Y-16000000D01*
X15200000Y-11600000D02*
X15200000Y-12400000D01*
X12500000Y-9400000D02*
X11400000Y-9400000D01*
X10920000Y-6020000D02*
X10480000Y-6020000D01*
X8800000Y-13600000D02*
G75*
G02*
X8800000Y-13800000I0J-100000D01*
G01*
X11000000Y-13800000D02*
X10200000Y-13800000D01*
X10000000Y-7200000D02*
X10000000Y-8000000D01*
X9200000Y-9200000D02*
X10000000Y-9200000D01*
X5000000Y-4800000D02*
X5800000Y-4800000D01*
X12900000Y-11600000D02*
G75*
G02*
X12900000Y-11400000I0J100000D01*
G01*
X5800000Y-11400000D02*
G75*
G02*
X5800000Y-11600000I0J-100000D01*
G01*
X9650000Y-14800000D02*
G75*
G02*
X9450000Y-14800000I-100000J0D01*
G01*
X9450000Y-14800000D02*
G75*
G02*
X9650000Y-14800000I100000J0D01*
G01*
X15200000Y-13600000D02*
X15200000Y-12800000D01*
X9200000Y-7200000D02*
G75*
G02*
X9200000Y-7000000I0J100000D01*
G01*
X7700000Y-5000000D02*
G75*
G02*
X7700000Y-4800000I0J100000D01*
G01*
X5000000Y-11400000D02*
X5000000Y-9400000D01*
X7700000Y-11600000D02*
G75*
G02*
X7700000Y-11400000I0J100000D01*
G01*
X14400000Y-16000000D02*
X15200000Y-16000000D01*
X10200000Y-9200000D02*
X10200000Y-8400000D01*
X10000000Y-9400000D02*
X9200000Y-9400000D01*
X10200000Y-8000000D02*
G75*
G02*
X10000000Y-8000000I-100000J0D01*
G01*
X10200000Y-5000000D02*
X11000000Y-5000000D01*
X14000000Y-13800000D02*
X12900000Y-13800000D01*
X6200000Y-11400000D02*
X7300000Y-11400000D01*
X10200000Y-9200000D02*
X11000000Y-9200000D01*
X6200000Y-5000000D02*
G75*
G02*
X6200000Y-4800000I0J100000D01*
G01*
X7700000Y-13800000D02*
G75*
G02*
X7700000Y-13600000I0J100000D01*
G01*
X10480000Y-12520000D02*
X10920000Y-12520000D01*
X10480000Y-8120000D02*
X10920000Y-8120000D01*
X10000000Y-12800000D02*
G75*
G02*
X10200000Y-12800000I100000J0D01*
G01*
X10000000Y-10600000D02*
G75*
G02*
X10200000Y-10600000I100000J0D01*
G01*
X11400000Y-5000000D02*
G75*
G02*
X11400000Y-4800000I0J100000D01*
G01*
X9200000Y-13800000D02*
G75*
G02*
X9200000Y-13600000I0J100000D01*
G01*
X7700000Y-7000000D02*
X8800000Y-7000000D01*
X10000000Y-9400000D02*
X10000000Y-10200000D01*
X10200000Y-12400000D02*
X10200000Y-11600000D01*
X10920000Y-8220000D02*
X10480000Y-8220000D01*
X10200000Y-13800000D02*
X10200000Y-14600000D01*
X14400000Y-5000000D02*
X15200000Y-5000000D01*
X14400000Y-7200000D02*
G75*
G02*
X14400000Y-7000000I0J100000D01*
G01*
X10000000Y-11400000D02*
X10000000Y-10600000D01*
X14000000Y-4800000D02*
G75*
G02*
X14000000Y-5000000I0J-100000D01*
G01*
X15200000Y-11400000D02*
X15200000Y-10600000D01*
X14400000Y-13600000D02*
X15200000Y-13600000D01*
X12500000Y-15800000D02*
G75*
G02*
X12500000Y-16000000I0J-100000D01*
G01*
X12500000Y-13600000D02*
G75*
G02*
X12500000Y-13800000I0J-100000D01*
G01*
X10000000Y-11600000D02*
X10000000Y-12400000D01*
X12500000Y-9200000D02*
G75*
G02*
X12500000Y-9400000I0J-100000D01*
G01*
X10480000Y-14720000D02*
X10920000Y-14720000D01*
X14850000Y-10400000D02*
G75*
G02*
X14650000Y-10400000I-100000J0D01*
G01*
X14650000Y-10400000D02*
G75*
G02*
X14850000Y-10400000I100000J0D01*
G01*
X10000000Y-6200000D02*
G75*
G02*
X10200000Y-6200000I100000J0D01*
G01*
X11000000Y-9200000D02*
G75*
G02*
X11000000Y-9400000I0J-100000D01*
G01*
X11400000Y-5000000D02*
X12500000Y-5000000D01*
X12900000Y-9200000D02*
X14000000Y-9200000D01*
X10000000Y-13800000D02*
X10000000Y-14600000D01*
X15200000Y-16000000D02*
X15200000Y-16800000D01*
X10920000Y-12620000D02*
X10480000Y-12620000D01*
X9200000Y-4800000D02*
X11000000Y-4800000D01*
X7700000Y-7200000D02*
X8800000Y-7200000D01*
X15200000Y-10600000D02*
X15200000Y-10200000D01*
X10000000Y-5000000D02*
X10000000Y-5800000D01*
X5000000Y-9200000D02*
X5800000Y-9200000D01*
X6200000Y-7200000D02*
G75*
G02*
X6200000Y-7000000I0J100000D01*
G01*
X12500000Y-13800000D02*
X11400000Y-13800000D01*
X14400000Y-9400000D02*
G75*
G02*
X14400000Y-9200000I0J100000D01*
G01*
X14400000Y-11600000D02*
G75*
G02*
X14400000Y-11400000I0J100000D01*
G01*
X14400000Y-7000000D02*
X15200000Y-7000000D01*
X12500000Y-7000000D02*
G75*
G02*
X12500000Y-7200000I0J-100000D01*
G01*
X10200000Y-15800000D02*
X11000000Y-15800000D01*
X11400000Y-11400000D02*
X12500000Y-11400000D01*
X11000000Y-15800000D02*
G75*
G02*
X11000000Y-16000000I0J-100000D01*
G01*
X15200000Y-8400000D02*
X15200000Y-8000000D01*
X12900000Y-4800000D02*
X14000000Y-4800000D01*
X8800000Y-13800000D02*
X7700000Y-13800000D01*
X7700000Y-16000000D02*
G75*
G02*
X7700000Y-15800000I0J100000D01*
G01*
X5000000Y-16800000D02*
X5000000Y-16000000D01*
X5720000Y-14820000D02*
X5280000Y-14820000D01*
X7700000Y-4800000D02*
X8800000Y-4800000D01*
X8800000Y-11400000D02*
G75*
G02*
X8800000Y-11600000I0J-100000D01*
G01*
X5720000Y-10320000D02*
G75*
G02*
X5720000Y-10420000I0J-50000D01*
G01*
X12900000Y-11600000D02*
X14000000Y-11600000D01*
X5720000Y-6020000D02*
X5280000Y-6020000D01*
X9650000Y-12600000D02*
G75*
G02*
X9450000Y-12600000I-100000J0D01*
G01*
X9450000Y-12600000D02*
G75*
G02*
X9650000Y-12600000I100000J0D01*
G01*
X5280000Y-5920000D02*
X5720000Y-5920000D01*
X7700000Y-15800000D02*
X8800000Y-15800000D01*
X5800000Y-13600000D02*
G75*
G02*
X5800000Y-13800000I0J-100000D01*
G01*
X5280000Y-10320000D02*
X5720000Y-10320000D01*
X15200000Y-7200000D02*
X15200000Y-8000000D01*
X9200000Y-13600000D02*
X10000000Y-13600000D01*
X7700000Y-13600000D02*
X8800000Y-13600000D01*
X10200000Y-11400000D02*
X11000000Y-11400000D01*
X5720000Y-14720000D02*
G75*
G02*
X5720000Y-14820000I0J-50000D01*
G01*
X11400000Y-7200000D02*
G75*
G02*
X11400000Y-7000000I0J100000D01*
G01*
X5000000Y-7000000D02*
X5000000Y-5000000D01*
X6200000Y-13800000D02*
G75*
G02*
X6200000Y-13600000I0J100000D01*
G01*
X5280000Y-8120000D02*
X5720000Y-8120000D01*
X10480000Y-5920000D02*
X10920000Y-5920000D01*
X14000000Y-7000000D02*
G75*
G02*
X14000000Y-7200000I0J-100000D01*
G01*
X14000000Y-9400000D02*
X12900000Y-9400000D01*
X11400000Y-7000000D02*
X12500000Y-7000000D01*
X7700000Y-11600000D02*
X8800000Y-11600000D01*
X15200000Y-9400000D02*
X15200000Y-10200000D01*
X10480000Y-10420000D02*
G75*
G02*
X10480000Y-10320000I0J50000D01*
G01*
X12900000Y-5000000D02*
X14000000Y-5000000D01*
X5720000Y-8120000D02*
G75*
G02*
X5720000Y-8220000I0J-50000D01*
G01*
X7700000Y-9400000D02*
G75*
G02*
X7700000Y-9200000I0J100000D01*
G01*
X6200000Y-7000000D02*
X7300000Y-7000000D01*
X10200000Y-15000000D02*
X10200000Y-15800000D01*
X11000000Y-9400000D02*
X10200000Y-9400000D01*
X14400000Y-13800000D02*
G75*
G02*
X14400000Y-13600000I0J100000D01*
G01*
X10200000Y-14600000D02*
G75*
G02*
X10000000Y-14600000I-100000J0D01*
G01*
X11000000Y-4800000D02*
G75*
G02*
X11000000Y-5000000I0J-100000D01*
G01*
X10200000Y-11600000D02*
X11000000Y-11600000D01*
X11400000Y-15800000D02*
X12500000Y-15800000D01*
X9200000Y-5000000D02*
G75*
G02*
X9200000Y-4800000I0J100000D01*
G01*
X5000000Y-16000000D02*
X5800000Y-16000000D01*
X6200000Y-9400000D02*
G75*
G02*
X6200000Y-9200000I0J100000D01*
G01*
X6200000Y-4800000D02*
X7300000Y-4800000D01*
X6200000Y-5000000D02*
X7300000Y-5000000D01*
X7300000Y-9200000D02*
G75*
G02*
X7300000Y-9400000I0J-100000D01*
G01*
X12500000Y-11400000D02*
G75*
G02*
X12500000Y-11600000I0J-100000D01*
G01*
X5720000Y-12620000D02*
X5280000Y-12620000D01*
X11000000Y-11400000D02*
G75*
G02*
X11000000Y-11600000I0J-100000D01*
G01*
X11400000Y-13800000D02*
G75*
G02*
X11400000Y-13600000I0J100000D01*
G01*
X9200000Y-5000000D02*
X10000000Y-5000000D01*
X5000000Y-5000000D02*
X5800000Y-5000000D01*
X5000000Y-7200000D02*
X5800000Y-7200000D01*
X10920000Y-14820000D02*
X10480000Y-14820000D01*
X14400000Y-11400000D02*
X15200000Y-11400000D01*
X9200000Y-16000000D02*
X11000000Y-16000000D01*
X10200000Y-5000000D02*
X10200000Y-5800000D01*
X6200000Y-16000000D02*
G75*
G02*
X6200000Y-15800000I0J100000D01*
G01*
X10200000Y-9400000D02*
X10200000Y-10200000D01*
X11400000Y-9200000D02*
X12500000Y-9200000D01*
X14000000Y-9200000D02*
G75*
G02*
X14000000Y-9400000I0J-100000D01*
G01*
X12900000Y-16000000D02*
X14000000Y-16000000D01*
X15200000Y-4800000D02*
X15200000Y-4000000D01*
X15200000Y-4000000D02*
X5000000Y-4000000D01*
X10920000Y-14720000D02*
G75*
G02*
X10920000Y-14820000I0J-50000D01*
G01*
X12500000Y-4800000D02*
G75*
G02*
X12500000Y-5000000I0J-100000D01*
G01*
X10480000Y-14820000D02*
G75*
G02*
X10480000Y-14720000I0J50000D01*
G01*
X15200000Y-6200000D02*
X15200000Y-5800000D01*
X7700000Y-7200000D02*
G75*
G02*
X7700000Y-7000000I0J100000D01*
G01*
X9200000Y-9400000D02*
G75*
G02*
X9200000Y-9200000I0J100000D01*
G01*
X14850000Y-12600000D02*
G75*
G02*
X14650000Y-12600000I-100000J0D01*
G01*
X14650000Y-12600000D02*
G75*
G02*
X14850000Y-12600000I100000J0D01*
G01*
D11*
D12*
X5900000Y-4800000D02*
X5950000Y-4850000D01*
X5950000Y-4800000D02*
X5900000Y-4850000D01*
X5900000Y-4950000D02*
X5950000Y-5000000D01*
X5950000Y-4950000D02*
X5900000Y-5000000D01*
X5900000Y-7000000D02*
X5950000Y-7050000D01*
X5950000Y-7000000D02*
X5900000Y-7050000D01*
X5900000Y-7150000D02*
X5950000Y-7200000D01*
X5950000Y-7150000D02*
X5900000Y-7200000D01*
X5900000Y-9200000D02*
X5950000Y-9250000D01*
X5950000Y-9200000D02*
X5900000Y-9250000D01*
X5900000Y-9350000D02*
X5950000Y-9400000D01*
X5950000Y-9350000D02*
X5900000Y-9400000D01*
X5900000Y-11400000D02*
X5950000Y-11450000D01*
X5950000Y-11400000D02*
X5900000Y-11450000D01*
X5900000Y-11550000D02*
X5950000Y-11600000D01*
X5950000Y-11550000D02*
X5900000Y-11600000D01*
X5900000Y-13600000D02*
X5950000Y-13650000D01*
X5950000Y-13600000D02*
X5900000Y-13650000D01*
X5900000Y-13750000D02*
X5950000Y-13800000D01*
X5950000Y-13750000D02*
X5900000Y-13800000D01*
X5900000Y-15800000D02*
X5950000Y-15850000D01*
X5950000Y-15800000D02*
X5900000Y-15850000D01*
X5900000Y-15950000D02*
X5950000Y-16000000D01*
X5950000Y-15950000D02*
X5900000Y-16000000D01*
X5975000Y-4800000D02*
X6025000Y-4850000D01*
X6025000Y-4800000D02*
X5975000Y-4850000D01*
X5975000Y-4950000D02*
X6025000Y-5000000D01*
X6025000Y-4950000D02*
X5975000Y-5000000D01*
X5975000Y-7000000D02*
X6025000Y-7050000D01*
X6025000Y-7000000D02*
X5975000Y-7050000D01*
X5975000Y-7150000D02*
X6025000Y-7200000D01*
X6025000Y-7150000D02*
X5975000Y-7200000D01*
X5975000Y-9200000D02*
X6025000Y-9250000D01*
X6025000Y-9200000D02*
X5975000Y-9250000D01*
X5975000Y-9350000D02*
X6025000Y-9400000D01*
X6025000Y-9350000D02*
X5975000Y-9400000D01*
X5975000Y-11400000D02*
X6025000Y-11450000D01*
X6025000Y-11400000D02*
X5975000Y-11450000D01*
X5975000Y-11550000D02*
X6025000Y-11600000D01*
X6025000Y-11550000D02*
X5975000Y-11600000D01*
X5975000Y-13600000D02*
X6025000Y-13650000D01*
X6025000Y-13600000D02*
X5975000Y-13650000D01*
X5975000Y-13750000D02*
X6025000Y-13800000D01*
X6025000Y-13750000D02*
X5975000Y-13800000D01*
X5975000Y-15800000D02*
X6025000Y-15850000D01*
X6025000Y-15800000D02*
X5975000Y-15850000D01*
X5975000Y-15950000D02*
X6025000Y-16000000D01*
X6025000Y-15950000D02*
X5975000Y-16000000D01*
X6050000Y-4800000D02*
X6100000Y-4850000D01*
X6100000Y-4800000D02*
X6050000Y-4850000D01*
X6050000Y-4950000D02*
X6100000Y-5000000D01*
X6100000Y-4950000D02*
X6050000Y-5000000D01*
X6050000Y-7000000D02*
X6100000Y-7050000D01*
X6100000Y-7000000D02*
X6050000Y-7050000D01*
X6050000Y-7150000D02*
X6100000Y-7200000D01*
X6100000Y-7150000D02*
X6050000Y-7200000D01*
X6050000Y-9200000D02*
X6100000Y-9250000D01*
X6100000Y-9200000D02*
X6050000Y-9250000D01*
X6050000Y-9350000D02*
X6100000Y-9400000D01*
X6100000Y-9350000D02*
X6050000Y-9400000D01*
X6050000Y-11400000D02*
X6100000Y-11450000D01*
X6100000Y-11400000D02*
X6050000Y-11450000D01*
X6050000Y-11550000D02*
X6100000Y-11600000D01*
X6100000Y-11550000D02*
X6050000Y-11600000D01*
X6050000Y-13600000D02*
X6100000Y-13650000D01*
X6100000Y-13600000D02*
X6050000Y-13650000D01*
X6050000Y-13750000D02*
X6100000Y-13800000D01*
X6100000Y-13750000D02*
X6050000Y-13800000D01*
X6050000Y-15800000D02*
X6100000Y-15850000D01*
X6100000Y-15800000D02*
X6050000Y-15850000D01*
X6050000Y-15950000D02*
X6100000Y-16000000D01*
X6100000Y-15950000D02*
X6050000Y-16000000D01*
X7400000Y-4800000D02*
X7450000Y-4850000D01*
X7450000Y-4800000D02*
X7400000Y-4850000D01*
X7400000Y-4950000D02*
X7450000Y-5000000D01*
X7450000Y-4950000D02*
X7400000Y-5000000D01*
X7400000Y-7000000D02*
X7450000Y-7050000D01*
X7450000Y-7000000D02*
X7400000Y-7050000D01*
X7400000Y-7150000D02*
X7450000Y-7200000D01*
X7450000Y-7150000D02*
X7400000Y-7200000D01*
X7400000Y-9200000D02*
X7450000Y-9250000D01*
X7450000Y-9200000D02*
X7400000Y-9250000D01*
X7400000Y-9350000D02*
X7450000Y-9400000D01*
X7450000Y-9350000D02*
X7400000Y-9400000D01*
X7400000Y-11400000D02*
X7450000Y-11450000D01*
X7450000Y-11400000D02*
X7400000Y-11450000D01*
X7400000Y-11550000D02*
X7450000Y-11600000D01*
X7450000Y-11550000D02*
X7400000Y-11600000D01*
X7400000Y-13600000D02*
X7450000Y-13650000D01*
X7450000Y-13600000D02*
X7400000Y-13650000D01*
X7400000Y-13750000D02*
X7450000Y-13800000D01*
X7450000Y-13750000D02*
X7400000Y-13800000D01*
X7400000Y-15800000D02*
X7450000Y-15850000D01*
X7450000Y-15800000D02*
X7400000Y-15850000D01*
X7400000Y-15950000D02*
X7450000Y-16000000D01*
X7450000Y-15950000D02*
X7400000Y-16000000D01*
X7475000Y-4800000D02*
X7525000Y-4850000D01*
X7525000Y-4800000D02*
X7475000Y-4850000D01*
X7475000Y-4950000D02*
X7525000Y-5000000D01*
X7525000Y-4950000D02*
X7475000Y-5000000D01*
X7475000Y-7000000D02*
X7525000Y-7050000D01*
X7525000Y-7000000D02*
X7475000Y-7050000D01*
X7475000Y-7150000D02*
X7525000Y-7200000D01*
X7525000Y-7150000D02*
X7475000Y-7200000D01*
X7475000Y-9200000D02*
X7525000Y-9250000D01*
X7525000Y-9200000D02*
X7475000Y-9250000D01*
X7475000Y-9350000D02*
X7525000Y-9400000D01*
X7525000Y-9350000D02*
X7475000Y-9400000D01*
X7475000Y-11400000D02*
X7525000Y-11450000D01*
X7525000Y-11400000D02*
X7475000Y-11450000D01*
X7475000Y-11550000D02*
X7525000Y-11600000D01*
X7525000Y-11550000D02*
X7475000Y-11600000D01*
X7475000Y-13600000D02*
X7525000Y-13650000D01*
X7525000Y-13600000D02*
X7475000Y-13650000D01*
X7475000Y-13750000D02*
X7525000Y-13800000D01*
X7525000Y-13750000D02*
X7475000Y-13800000D01*
X7475000Y-15800000D02*
X7525000Y-15850000D01*
X7525000Y-15800000D02*
X7475000Y-15850000D01*
X7475000Y-15950000D02*
X7525000Y-16000000D01*
X7525000Y-15950000D02*
X7475000Y-16000000D01*
X7550000Y-4800000D02*
X7600000Y-4850000D01*
X7600000Y-4800000D02*
X7550000Y-4850000D01*
X7550000Y-4950000D02*
X7600000Y-5000000D01*
X7600000Y-4950000D02*
X7550000Y-5000000D01*
X7550000Y-7000000D02*
X7600000Y-7050000D01*
X7600000Y-7000000D02*
X7550000Y-7050000D01*
X7550000Y-7150000D02*
X7600000Y-7200000D01*
X7600000Y-7150000D02*
X7550000Y-7200000D01*
X7550000Y-9200000D02*
X7600000Y-9250000D01*
X7600000Y-9200000D02*
X7550000Y-9250000D01*
X7550000Y-9350000D02*
X7600000Y-9400000D01*
X7600000Y-9350000D02*
X7550000Y-9400000D01*
X7550000Y-11400000D02*
X7600000Y-11450000D01*
X7600000Y-11400000D02*
X7550000Y-11450000D01*
X7550000Y-11550000D02*
X7600000Y-11600000D01*
X7600000Y-11550000D02*
X7550000Y-11600000D01*
X7550000Y-13600000D02*
X7600000Y-13650000D01*
X7600000Y-13600000D02*
X7550000Y-13650000D01*
X7550000Y-13750000D02*
X7600000Y-13800000D01*
X7600000Y-13750000D02*
X7550000Y-13800000D01*
X7550000Y-15800000D02*
X7600000Y-15850000D01*
X7600000Y-15800000D02*
X7550000Y-15850000D01*
X7550000Y-15950000D02*
X7600000Y-16000000D01*
X7600000Y-15950000D02*
X7550000Y-16000000D01*
X8900000Y-4800000D02*
X8950000Y-4850000D01*
X8950000Y-4800000D02*
X8900000Y-4850000D01*
X8900000Y-4950000D02*
X8950000Y-5000000D01*
X8950000Y-4950000D02*
X8900000Y-5000000D01*
X8900000Y-7000000D02*
X8950000Y-7050000D01*
X8950000Y-7000000D02*
X8900000Y-7050000D01*
X8900000Y-7150000D02*
X8950000Y-7200000D01*
X8950000Y-7150000D02*
X8900000Y-7200000D01*
X8900000Y-9200000D02*
X8950000Y-9250000D01*
X8950000Y-9200000D02*
X8900000Y-9250000D01*
X8900000Y-9350000D02*
X8950000Y-9400000D01*
X8950000Y-9350000D02*
X8900000Y-9400000D01*
X8900000Y-11400000D02*
X8950000Y-11450000D01*
X8950000Y-11400000D02*
X8900000Y-11450000D01*
X8900000Y-11550000D02*
X8950000Y-11600000D01*
X8950000Y-11550000D02*
X8900000Y-11600000D01*
X8900000Y-13600000D02*
X8950000Y-13650000D01*
X8950000Y-13600000D02*
X8900000Y-13650000D01*
X8900000Y-13750000D02*
X8950000Y-13800000D01*
X8950000Y-13750000D02*
X8900000Y-13800000D01*
X8900000Y-15800000D02*
X8950000Y-15850000D01*
X8950000Y-15800000D02*
X8900000Y-15850000D01*
X8900000Y-15950000D02*
X8950000Y-16000000D01*
X8950000Y-15950000D02*
X8900000Y-16000000D01*
X8975000Y-4800000D02*
X9025000Y-4850000D01*
X9025000Y-4800000D02*
X8975000Y-4850000D01*
X8975000Y-4950000D02*
X9025000Y-5000000D01*
X9025000Y-4950000D02*
X8975000Y-5000000D01*
X8975000Y-7000000D02*
X9025000Y-7050000D01*
X9025000Y-7000000D02*
X8975000Y-7050000D01*
X8975000Y-7150000D02*
X9025000Y-7200000D01*
X9025000Y-7150000D02*
X8975000Y-7200000D01*
X8975000Y-9200000D02*
X9025000Y-9250000D01*
X9025000Y-9200000D02*
X8975000Y-9250000D01*
X8975000Y-9350000D02*
X9025000Y-9400000D01*
X9025000Y-9350000D02*
X8975000Y-9400000D01*
X8975000Y-11400000D02*
X9025000Y-11450000D01*
X9025000Y-11400000D02*
X8975000Y-11450000D01*
X8975000Y-11550000D02*
X9025000Y-11600000D01*
X9025000Y-11550000D02*
X8975000Y-11600000D01*
X8975000Y-13600000D02*
X9025000Y-13650000D01*
X9025000Y-13600000D02*
X8975000Y-13650000D01*
X8975000Y-13750000D02*
X9025000Y-13800000D01*
X9025000Y-13750000D02*
X8975000Y-13800000D01*
X8975000Y-15800000D02*
X9025000Y-15850000D01*
X9025000Y-15800000D02*
X8975000Y-15850000D01*
X8975000Y-15950000D02*
X9025000Y-16000000D01*
X9025000Y-15950000D02*
X8975000Y-16000000D01*
X9050000Y-4800000D02*
X9100000Y-4850000D01*
X9100000Y-4800000D02*
X9050000Y-4850000D01*
X9050000Y-4950000D02*
X9100000Y-5000000D01*
X9100000Y-4950000D02*
X9050000Y-5000000D01*
X9050000Y-7000000D02*
X9100000Y-7050000D01*
X9100000Y-7000000D02*
X9050000Y-7050000D01*
X9050000Y-7150000D02*
X9100000Y-7200000D01*
X9100000Y-7150000D02*
X9050000Y-7200000D01*
X9050000Y-9200000D02*
X9100000Y-9250000D01*
X9100000Y-9200000D02*
X9050000Y-9250000D01*
X9050000Y-9350000D02*
X9100000Y-9400000D01*
X9100000Y-9350000D02*
X9050000Y-9400000D01*
X9050000Y-11400000D02*
X9100000Y-11450000D01*
X9100000Y-11400000D02*
X9050000Y-11450000D01*
X9050000Y-11550000D02*
X9100000Y-11600000D01*
X9100000Y-11550000D02*
X9050000Y-11600000D01*
X9050000Y-13600000D02*
X9100000Y-13650000D01*
X9100000Y-13600000D02*
X9050000Y-13650000D01*
X9050000Y-13750000D02*
X9100000Y-13800000D01*
X9100000Y-13750000D02*
X9050000Y-13800000D01*
X9050000Y-15800000D02*
X9100000Y-15850000D01*
X9100000Y-15800000D02*
X9050000Y-15850000D01*
X9050000Y-15950000D02*
X9100000Y-16000000D01*
X9100000Y-15950000D02*
X9050000Y-16000000D01*
X10000000Y-5900000D02*
X10050000Y-5950000D01*
X10050000Y-5900000D02*
X10000000Y-5950000D01*
X10000000Y-5975000D02*
X10050000Y-6025000D01*
X10050000Y-5975000D02*
X10000000Y-6025000D01*
X10000000Y-6050000D02*
X10050000Y-6100000D01*
X10050000Y-6050000D02*
X10000000Y-6100000D01*
X10000000Y-8100000D02*
X10050000Y-8150000D01*
X10050000Y-8100000D02*
X10000000Y-8150000D01*
X10000000Y-8175000D02*
X10050000Y-8225000D01*
X10050000Y-8175000D02*
X10000000Y-8225000D01*
X10000000Y-8250000D02*
X10050000Y-8300000D01*
X10050000Y-8250000D02*
X10000000Y-8300000D01*
X10000000Y-10300000D02*
X10050000Y-10350000D01*
X10050000Y-10300000D02*
X10000000Y-10350000D01*
X10000000Y-10375000D02*
X10050000Y-10425000D01*
X10050000Y-10375000D02*
X10000000Y-10425000D01*
X10000000Y-10450000D02*
X10050000Y-10500000D01*
X10050000Y-10450000D02*
X10000000Y-10500000D01*
X10000000Y-12500000D02*
X10050000Y-12550000D01*
X10050000Y-12500000D02*
X10000000Y-12550000D01*
X10000000Y-12575000D02*
X10050000Y-12625000D01*
X10050000Y-12575000D02*
X10000000Y-12625000D01*
X10000000Y-12650000D02*
X10050000Y-12700000D01*
X10050000Y-12650000D02*
X10000000Y-12700000D01*
X10000000Y-14700000D02*
X10050000Y-14750000D01*
X10050000Y-14700000D02*
X10000000Y-14750000D01*
X10000000Y-14775000D02*
X10050000Y-14825000D01*
X10050000Y-14775000D02*
X10000000Y-14825000D01*
X10000000Y-14850000D02*
X10050000Y-14900000D01*
X10050000Y-14850000D02*
X10000000Y-14900000D01*
X10150000Y-5900000D02*
X10200000Y-5950000D01*
X10200000Y-5900000D02*
X10150000Y-5950000D01*
X10150000Y-5975000D02*
X10200000Y-6025000D01*
X10200000Y-5975000D02*
X10150000Y-6025000D01*
X10150000Y-6050000D02*
X10200000Y-6100000D01*
X10200000Y-6050000D02*
X10150000Y-6100000D01*
X10150000Y-8100000D02*
X10200000Y-8150000D01*
X10200000Y-8100000D02*
X10150000Y-8150000D01*
X10150000Y-8175000D02*
X10200000Y-8225000D01*
X10200000Y-8175000D02*
X10150000Y-8225000D01*
X10150000Y-8250000D02*
X10200000Y-8300000D01*
X10200000Y-8250000D02*
X10150000Y-8300000D01*
X10150000Y-10300000D02*
X10200000Y-10350000D01*
X10200000Y-10300000D02*
X10150000Y-10350000D01*
X10150000Y-10375000D02*
X10200000Y-10425000D01*
X10200000Y-10375000D02*
X10150000Y-10425000D01*
X10150000Y-10450000D02*
X10200000Y-10500000D01*
X10200000Y-10450000D02*
X10150000Y-10500000D01*
X10150000Y-12500000D02*
X10200000Y-12550000D01*
X10200000Y-12500000D02*
X10150000Y-12550000D01*
X10150000Y-12575000D02*
X10200000Y-12625000D01*
X10200000Y-12575000D02*
X10150000Y-12625000D01*
X10150000Y-12650000D02*
X10200000Y-12700000D01*
X10200000Y-12650000D02*
X10150000Y-12700000D01*
X10150000Y-14700000D02*
X10200000Y-14750000D01*
X10200000Y-14700000D02*
X10150000Y-14750000D01*
X10150000Y-14775000D02*
X10200000Y-14825000D01*
X10200000Y-14775000D02*
X10150000Y-14825000D01*
X10150000Y-14850000D02*
X10200000Y-14900000D01*
X10200000Y-14850000D02*
X10150000Y-14900000D01*
X11100000Y-4800000D02*
X11150000Y-4850000D01*
X11150000Y-4800000D02*
X11100000Y-4850000D01*
X11100000Y-4950000D02*
X11150000Y-5000000D01*
X11150000Y-4950000D02*
X11100000Y-5000000D01*
X11100000Y-7000000D02*
X11150000Y-7050000D01*
X11150000Y-7000000D02*
X11100000Y-7050000D01*
X11100000Y-7150000D02*
X11150000Y-7200000D01*
X11150000Y-7150000D02*
X11100000Y-7200000D01*
X11100000Y-9200000D02*
X11150000Y-9250000D01*
X11150000Y-9200000D02*
X11100000Y-9250000D01*
X11100000Y-9350000D02*
X11150000Y-9400000D01*
X11150000Y-9350000D02*
X11100000Y-9400000D01*
X11100000Y-11400000D02*
X11150000Y-11450000D01*
X11150000Y-11400000D02*
X11100000Y-11450000D01*
X11100000Y-11550000D02*
X11150000Y-11600000D01*
X11150000Y-11550000D02*
X11100000Y-11600000D01*
X11100000Y-13600000D02*
X11150000Y-13650000D01*
X11150000Y-13600000D02*
X11100000Y-13650000D01*
X11100000Y-13750000D02*
X11150000Y-13800000D01*
X11150000Y-13750000D02*
X11100000Y-13800000D01*
X11100000Y-15800000D02*
X11150000Y-15850000D01*
X11150000Y-15800000D02*
X11100000Y-15850000D01*
X11100000Y-15950000D02*
X11150000Y-16000000D01*
X11150000Y-15950000D02*
X11100000Y-16000000D01*
X11175000Y-4800000D02*
X11225000Y-4850000D01*
X11225000Y-4800000D02*
X11175000Y-4850000D01*
X11175000Y-4950000D02*
X11225000Y-5000000D01*
X11225000Y-4950000D02*
X11175000Y-5000000D01*
X11175000Y-7000000D02*
X11225000Y-7050000D01*
X11225000Y-7000000D02*
X11175000Y-7050000D01*
X11175000Y-7150000D02*
X11225000Y-7200000D01*
X11225000Y-7150000D02*
X11175000Y-7200000D01*
X11175000Y-9200000D02*
X11225000Y-9250000D01*
X11225000Y-9200000D02*
X11175000Y-9250000D01*
X11175000Y-9350000D02*
X11225000Y-9400000D01*
X11225000Y-9350000D02*
X11175000Y-9400000D01*
X11175000Y-11400000D02*
X11225000Y-11450000D01*
X11225000Y-11400000D02*
X11175000Y-11450000D01*
X11175000Y-11550000D02*
X11225000Y-11600000D01*
X11225000Y-11550000D02*
X11175000Y-11600000D01*
X11175000Y-13600000D02*
X11225000Y-13650000D01*
X11225000Y-13600000D02*
X11175000Y-13650000D01*
X11175000Y-13750000D02*
X11225000Y-13800000D01*
X11225000Y-13750000D02*
X11175000Y-13800000D01*
X11175000Y-15800000D02*
X11225000Y-15850000D01*
X11225000Y-15800000D02*
X11175000Y-15850000D01*
X11175000Y-15950000D02*
X11225000Y-16000000D01*
X11225000Y-15950000D02*
X11175000Y-16000000D01*
X11250000Y-4800000D02*
X11300000Y-4850000D01*
X11300000Y-4800000D02*
X11250000Y-4850000D01*
X11250000Y-4950000D02*
X11300000Y-5000000D01*
X11300000Y-4950000D02*
X11250000Y-5000000D01*
X11250000Y-7000000D02*
X11300000Y-7050000D01*
X11300000Y-7000000D02*
X11250000Y-7050000D01*
X11250000Y-7150000D02*
X11300000Y-7200000D01*
X11300000Y-7150000D02*
X11250000Y-7200000D01*
X11250000Y-9200000D02*
X11300000Y-9250000D01*
X11300000Y-9200000D02*
X11250000Y-9250000D01*
X11250000Y-9350000D02*
X11300000Y-9400000D01*
X11300000Y-9350000D02*
X11250000Y-9400000D01*
X11250000Y-11400000D02*
X11300000Y-11450000D01*
X11300000Y-11400000D02*
X11250000Y-11450000D01*
X11250000Y-11550000D02*
X11300000Y-11600000D01*
X11300000Y-11550000D02*
X11250000Y-11600000D01*
X11250000Y-13600000D02*
X11300000Y-13650000D01*
X11300000Y-13600000D02*
X11250000Y-13650000D01*
X11250000Y-13750000D02*
X11300000Y-13800000D01*
X11300000Y-13750000D02*
X11250000Y-13800000D01*
X11250000Y-15800000D02*
X11300000Y-15850000D01*
X11300000Y-15800000D02*
X11250000Y-15850000D01*
X11250000Y-15950000D02*
X11300000Y-16000000D01*
X11300000Y-15950000D02*
X11250000Y-16000000D01*
X12600000Y-4800000D02*
X12650000Y-4850000D01*
X12650000Y-4800000D02*
X12600000Y-4850000D01*
X12600000Y-4950000D02*
X12650000Y-5000000D01*
X12650000Y-4950000D02*
X12600000Y-5000000D01*
X12600000Y-7000000D02*
X12650000Y-7050000D01*
X12650000Y-7000000D02*
X12600000Y-7050000D01*
X12600000Y-7150000D02*
X12650000Y-7200000D01*
X12650000Y-7150000D02*
X12600000Y-7200000D01*
X12600000Y-9200000D02*
X12650000Y-9250000D01*
X12650000Y-9200000D02*
X12600000Y-9250000D01*
X12600000Y-9350000D02*
X12650000Y-9400000D01*
X12650000Y-9350000D02*
X12600000Y-9400000D01*
X12600000Y-11400000D02*
X12650000Y-11450000D01*
X12650000Y-11400000D02*
X12600000Y-11450000D01*
X12600000Y-11550000D02*
X12650000Y-11600000D01*
X12650000Y-11550000D02*
X12600000Y-11600000D01*
X12600000Y-13600000D02*
X12650000Y-13650000D01*
X12650000Y-13600000D02*
X12600000Y-13650000D01*
X12600000Y-13750000D02*
X12650000Y-13800000D01*
X12650000Y-13750000D02*
X12600000Y-13800000D01*
X12600000Y-15800000D02*
X12650000Y-15850000D01*
X12650000Y-15800000D02*
X12600000Y-15850000D01*
X12600000Y-15950000D02*
X12650000Y-16000000D01*
X12650000Y-15950000D02*
X12600000Y-16000000D01*
X12675000Y-4800000D02*
X12725000Y-4850000D01*
X12725000Y-4800000D02*
X12675000Y-4850000D01*
X12675000Y-4950000D02*
X12725000Y-5000000D01*
X12725000Y-4950000D02*
X12675000Y-5000000D01*
X12675000Y-7000000D02*
X12725000Y-7050000D01*
X12725000Y-7000000D02*
X12675000Y-7050000D01*
X12675000Y-7150000D02*
X12725000Y-7200000D01*
X12725000Y-7150000D02*
X12675000Y-7200000D01*
X12675000Y-9200000D02*
X12725000Y-9250000D01*
X12725000Y-9200000D02*
X12675000Y-9250000D01*
X12675000Y-9350000D02*
X12725000Y-9400000D01*
X12725000Y-9350000D02*
X12675000Y-9400000D01*
X12675000Y-11400000D02*
X12725000Y-11450000D01*
X12725000Y-11400000D02*
X12675000Y-11450000D01*
X12675000Y-11550000D02*
X12725000Y-11600000D01*
X12725000Y-11550000D02*
X12675000Y-11600000D01*
X12675000Y-13600000D02*
X12725000Y-13650000D01*
X12725000Y-13600000D02*
X12675000Y-13650000D01*
X12675000Y-13750000D02*
X12725000Y-13800000D01*
X12725000Y-13750000D02*
X12675000Y-13800000D01*
X12675000Y-15800000D02*
X12725000Y-15850000D01*
X12725000Y-15800000D02*
X12675000Y-15850000D01*
X12675000Y-15950000D02*
X12725000Y-16000000D01*
X12725000Y-15950000D02*
X12675000Y-16000000D01*
X12750000Y-4800000D02*
X12800000Y-4850000D01*
X12800000Y-4800000D02*
X12750000Y-4850000D01*
X12750000Y-4950000D02*
X12800000Y-5000000D01*
X12800000Y-4950000D02*
X12750000Y-5000000D01*
X12750000Y-7000000D02*
X12800000Y-7050000D01*
X12800000Y-7000000D02*
X12750000Y-7050000D01*
X12750000Y-7150000D02*
X12800000Y-7200000D01*
X12800000Y-7150000D02*
X12750000Y-7200000D01*
X12750000Y-9200000D02*
X12800000Y-9250000D01*
X12800000Y-9200000D02*
X12750000Y-9250000D01*
X12750000Y-9350000D02*
X12800000Y-9400000D01*
X12800000Y-9350000D02*
X12750000Y-9400000D01*
X12750000Y-11400000D02*
X12800000Y-11450000D01*
X12800000Y-11400000D02*
X12750000Y-11450000D01*
X12750000Y-11550000D02*
X12800000Y-11600000D01*
X12800000Y-11550000D02*
X12750000Y-11600000D01*
X12750000Y-13600000D02*
X12800000Y-13650000D01*
X12800000Y-13600000D02*
X12750000Y-13650000D01*
X12750000Y-13750000D02*
X12800000Y-13800000D01*
X12800000Y-13750000D02*
X12750000Y-13800000D01*
X12750000Y-15800000D02*
X12800000Y-15850000D01*
X12800000Y-15800000D02*
X12750000Y-15850000D01*
X12750000Y-15950000D02*
X12800000Y-16000000D01*
X12800000Y-15950000D02*
X12750000Y-16000000D01*
X14100000Y-4800000D02*
X14150000Y-4850000D01*
X14150000Y-4800000D02*
X14100000Y-4850000D01*
X14100000Y-4950000D02*
X14150000Y-5000000D01*
X14150000Y-4950000D02*
X14100000Y-5000000D01*
X14100000Y-7000000D02*
X14150000Y-7050000D01*
X14150000Y-7000000D02*
X14100000Y-7050000D01*
X14100000Y-7150000D02*
X14150000Y-7200000D01*
X14150000Y-7150000D02*
X14100000Y-7200000D01*
X14100000Y-9200000D02*
X14150000Y-9250000D01*
X14150000Y-9200000D02*
X14100000Y-9250000D01*
X14100000Y-9350000D02*
X14150000Y-9400000D01*
X14150000Y-9350000D02*
X14100000Y-9400000D01*
X14100000Y-11400000D02*
X14150000Y-11450000D01*
X14150000Y-11400000D02*
X14100000Y-11450000D01*
X14100000Y-11550000D02*
X14150000Y-11600000D01*
X14150000Y-11550000D02*
X14100000Y-11600000D01*
X14100000Y-13600000D02*
X14150000Y-13650000D01*
X14150000Y-13600000D02*
X14100000Y-13650000D01*
X14100000Y-13750000D02*
X14150000Y-13800000D01*
X14150000Y-13750000D02*
X14100000Y-13800000D01*
X14100000Y-15800000D02*
X14150000Y-15850000D01*
X14150000Y-15800000D02*
X14100000Y-15850000D01*
X14100000Y-15950000D02*
X14150000Y-16000000D01*
X14150000Y-15950000D02*
X14100000Y-16000000D01*
X14175000Y-4800000D02*
X14225000Y-4850000D01*
X14225000Y-4800000D02*
X14175000Y-4850000D01*
X14175000Y-4950000D02*
X14225000Y-5000000D01*
X14225000Y-4950000D02*
X14175000Y-5000000D01*
X14175000Y-7000000D02*
X14225000Y-7050000D01*
X14225000Y-7000000D02*
X14175000Y-7050000D01*
X14175000Y-7150000D02*
X14225000Y-7200000D01*
X14225000Y-7150000D02*
X14175000Y-7200000D01*
X14175000Y-9200000D02*
X14225000Y-9250000D01*
X14225000Y-9200000D02*
X14175000Y-9250000D01*
X14175000Y-9350000D02*
X14225000Y-9400000D01*
X14225000Y-9350000D02*
X14175000Y-9400000D01*
X14175000Y-11400000D02*
X14225000Y-11450000D01*
X14225000Y-11400000D02*
X14175000Y-11450000D01*
X14175000Y-11550000D02*
X14225000Y-11600000D01*
X14225000Y-11550000D02*
X14175000Y-11600000D01*
X14175000Y-13600000D02*
X14225000Y-13650000D01*
X14225000Y-13600000D02*
X14175000Y-13650000D01*
X14175000Y-13750000D02*
X14225000Y-13800000D01*
X14225000Y-13750000D02*
X14175000Y-13800000D01*
X14175000Y-15800000D02*
X14225000Y-15850000D01*
X14225000Y-15800000D02*
X14175000Y-15850000D01*
X14175000Y-15950000D02*
X14225000Y-16000000D01*
X14225000Y-15950000D02*
X14175000Y-16000000D01*
X14250000Y-4800000D02*
X14300000Y-4850000D01*
X14300000Y-4800000D02*
X14250000Y-4850000D01*
X14250000Y-4950000D02*
X14300000Y-5000000D01*
X14300000Y-4950000D02*
X14250000Y-5000000D01*
X14250000Y-7000000D02*
X14300000Y-7050000D01*
X14300000Y-7000000D02*
X14250000Y-7050000D01*
X14250000Y-7150000D02*
X14300000Y-7200000D01*
X14300000Y-7150000D02*
X14250000Y-7200000D01*
X14250000Y-9200000D02*
X14300000Y-9250000D01*
X14300000Y-9200000D02*
X14250000Y-9250000D01*
X14250000Y-9350000D02*
X14300000Y-9400000D01*
X14300000Y-9350000D02*
X14250000Y-9400000D01*
X14250000Y-11400000D02*
X14300000Y-11450000D01*
X14300000Y-11400000D02*
X14250000Y-11450000D01*
X14250000Y-11550000D02*
X14300000Y-11600000D01*
X14300000Y-11550000D02*
X14250000Y-11600000D01*
X14250000Y-13600000D02*
X14300000Y-13650000D01*
X14300000Y-13600000D02*
X14250000Y-13650000D01*
X14250000Y-13750000D02*
X14300000Y-13800000D01*
X14300000Y-13750000D02*
X14250000Y-13800000D01*
X14250000Y-15800000D02*
X14300000Y-15850000D01*
X14300000Y-15800000D02*
X14250000Y-15850000D01*
X14250000Y-15950000D02*
X14300000Y-16000000D01*
X14300000Y-15950000D02*
X14250000Y-16000000D01*
D13*
X5257600Y-4200000D02*
G75*
G02*
X5142400Y-4200000I-57600J0D01*
G01*
X5142400Y-4200000D02*
G75*
G02*
X5257600Y-4200000I57600J0D01*
G01*
X5257600Y-16600000D02*
G75*
G02*
X5142400Y-16600000I-57600J0D01*
G01*
X5142400Y-16600000D02*
G75*
G02*
X5257600Y-16600000I57600J0D01*
G01*
X15057600Y-4200000D02*
G75*
G02*
X14942400Y-4200000I-57600J0D01*
G01*
X14942400Y-4200000D02*
G75*
G02*
X15057600Y-4200000I57600J0D01*
G01*
X15057600Y-16600000D02*
G75*
G02*
X14942400Y-16600000I-57600J0D01*
G01*
X14942400Y-16600000D02*
G75*
G02*
X15057600Y-16600000I57600J0D01*
G01*
D11*
X5258277Y-17113984D02*
X5258277Y-16913984D01*
X5258277Y-16913984D02*
X5305896Y-16913984D01*
X5305896Y-16913984D02*
X5334467Y-16923508D01*
X5334467Y-16923508D02*
X5353515Y-16942555D01*
X5353515Y-16942555D02*
X5363039Y-16961603D01*
X5363039Y-16961603D02*
X5372563Y-16999698D01*
X5372563Y-16999698D02*
X5372563Y-17028270D01*
X5372563Y-17028270D02*
X5363039Y-17066365D01*
X5363039Y-17066365D02*
X5353515Y-17085412D01*
X5353515Y-17085412D02*
X5334467Y-17104460D01*
X5334467Y-17104460D02*
X5305896Y-17113984D01*
X5305896Y-17113984D02*
X5258277Y-17113984D01*
X5458277Y-17113984D02*
X5458277Y-16980650D01*
X5458277Y-17018746D02*
X5467801Y-16999698D01*
X5467801Y-16999698D02*
X5477324Y-16990174D01*
X5477324Y-16990174D02*
X5496372Y-16980650D01*
X5496372Y-16980650D02*
X5515420Y-16980650D01*
X5582086Y-17113984D02*
X5582086Y-16980650D01*
X5582086Y-16913984D02*
X5572563Y-16923508D01*
X5572563Y-16923508D02*
X5582086Y-16933031D01*
X5582086Y-16933031D02*
X5591610Y-16923508D01*
X5591610Y-16923508D02*
X5582086Y-16913984D01*
X5582086Y-16913984D02*
X5582086Y-16933031D01*
X5705896Y-17113984D02*
X5686848Y-17104460D01*
X5686848Y-17104460D02*
X5677324Y-17085412D01*
X5677324Y-17085412D02*
X5677324Y-16913984D01*
X5810658Y-17113984D02*
X5791610Y-17104460D01*
X5791610Y-17104460D02*
X5782086Y-17085412D01*
X5782086Y-17085412D02*
X5782086Y-16913984D01*
X6039229Y-17113984D02*
X6039229Y-16913984D01*
X6039229Y-16913984D02*
X6105896Y-17056841D01*
X6105896Y-17056841D02*
X6172562Y-16913984D01*
X6172562Y-16913984D02*
X6172562Y-17113984D01*
X6353515Y-17113984D02*
X6353515Y-17009222D01*
X6353515Y-17009222D02*
X6343991Y-16990174D01*
X6343991Y-16990174D02*
X6324943Y-16980650D01*
X6324943Y-16980650D02*
X6286848Y-16980650D01*
X6286848Y-16980650D02*
X6267801Y-16990174D01*
X6353515Y-17104460D02*
X6334467Y-17113984D01*
X6334467Y-17113984D02*
X6286848Y-17113984D01*
X6286848Y-17113984D02*
X6267801Y-17104460D01*
X6267801Y-17104460D02*
X6258277Y-17085412D01*
X6258277Y-17085412D02*
X6258277Y-17066365D01*
X6258277Y-17066365D02*
X6267801Y-17047317D01*
X6267801Y-17047317D02*
X6286848Y-17037793D01*
X6286848Y-17037793D02*
X6334467Y-17037793D01*
X6334467Y-17037793D02*
X6353515Y-17028270D01*
X6448753Y-16980650D02*
X6448753Y-17180650D01*
X6448753Y-16990174D02*
X6467801Y-16980650D01*
X6467801Y-16980650D02*
X6505896Y-16980650D01*
X6505896Y-16980650D02*
X6524943Y-16990174D01*
X6524943Y-16990174D02*
X6534467Y-16999698D01*
X6534467Y-16999698D02*
X6543991Y-17018746D01*
X6543991Y-17018746D02*
X6543991Y-17075889D01*
X6543991Y-17075889D02*
X6534467Y-17094936D01*
X6534467Y-17094936D02*
X6524943Y-17104460D01*
X6524943Y-17104460D02*
X6505896Y-17113984D01*
X6505896Y-17113984D02*
X6467801Y-17113984D01*
X6467801Y-17113984D02*
X6448753Y-17104460D01*
X6629705Y-17094936D02*
X6639229Y-17104460D01*
X6639229Y-17104460D02*
X6629705Y-17113984D01*
X6629705Y-17113984D02*
X6620182Y-17104460D01*
X6620182Y-17104460D02*
X6629705Y-17094936D01*
X6629705Y-17094936D02*
X6629705Y-17113984D01*
X6629705Y-16990174D02*
X6639229Y-16999698D01*
X6639229Y-16999698D02*
X6629705Y-17009222D01*
X6629705Y-17009222D02*
X6620182Y-16999698D01*
X6620182Y-16999698D02*
X6629705Y-16990174D01*
X6629705Y-16990174D02*
X6629705Y-17009222D01*
D12*
X4947500Y-17417500D02*
X4997500Y-17467500D01*
X4997500Y-17417500D02*
X4947500Y-17467500D01*
D11*
X5296372Y-17333984D02*
X5315420Y-17333984D01*
X5315420Y-17333984D02*
X5334467Y-17343508D01*
X5334467Y-17343508D02*
X5343991Y-17353031D01*
X5343991Y-17353031D02*
X5353515Y-17372079D01*
X5353515Y-17372079D02*
X5363039Y-17410174D01*
X5363039Y-17410174D02*
X5363039Y-17457793D01*
X5363039Y-17457793D02*
X5353515Y-17495889D01*
X5353515Y-17495889D02*
X5343991Y-17514936D01*
X5343991Y-17514936D02*
X5334467Y-17524460D01*
X5334467Y-17524460D02*
X5315420Y-17533984D01*
X5315420Y-17533984D02*
X5296372Y-17533984D01*
X5296372Y-17533984D02*
X5277324Y-17524460D01*
X5277324Y-17524460D02*
X5267801Y-17514936D01*
X5267801Y-17514936D02*
X5258277Y-17495889D01*
X5258277Y-17495889D02*
X5248753Y-17457793D01*
X5248753Y-17457793D02*
X5248753Y-17410174D01*
X5248753Y-17410174D02*
X5258277Y-17372079D01*
X5258277Y-17372079D02*
X5267801Y-17353031D01*
X5267801Y-17353031D02*
X5277324Y-17343508D01*
X5277324Y-17343508D02*
X5296372Y-17333984D01*
X5448753Y-17514936D02*
X5458277Y-17524460D01*
X5458277Y-17524460D02*
X5448753Y-17533984D01*
X5448753Y-17533984D02*
X5439229Y-17524460D01*
X5439229Y-17524460D02*
X5448753Y-17514936D01*
X5448753Y-17514936D02*
X5448753Y-17533984D01*
X5639229Y-17333984D02*
X5543991Y-17333984D01*
X5543991Y-17333984D02*
X5534467Y-17429222D01*
X5534467Y-17429222D02*
X5543991Y-17419698D01*
X5543991Y-17419698D02*
X5563039Y-17410174D01*
X5563039Y-17410174D02*
X5610658Y-17410174D01*
X5610658Y-17410174D02*
X5629705Y-17419698D01*
X5629705Y-17419698D02*
X5639229Y-17429222D01*
X5639229Y-17429222D02*
X5648753Y-17448270D01*
X5648753Y-17448270D02*
X5648753Y-17495889D01*
X5648753Y-17495889D02*
X5639229Y-17514936D01*
X5639229Y-17514936D02*
X5629705Y-17524460D01*
X5629705Y-17524460D02*
X5610658Y-17533984D01*
X5610658Y-17533984D02*
X5563039Y-17533984D01*
X5563039Y-17533984D02*
X5543991Y-17524460D01*
X5543991Y-17524460D02*
X5534467Y-17514936D01*
X5772562Y-17333984D02*
X5791610Y-17333984D01*
X5791610Y-17333984D02*
X5810658Y-17343508D01*
X5810658Y-17343508D02*
X5820182Y-17353031D01*
X5820182Y-17353031D02*
X5829705Y-17372079D01*
X5829705Y-17372079D02*
X5839229Y-17410174D01*
X5839229Y-17410174D02*
X5839229Y-17457793D01*
X5839229Y-17457793D02*
X5829705Y-17495889D01*
X5829705Y-17495889D02*
X5820182Y-17514936D01*
X5820182Y-17514936D02*
X5810658Y-17524460D01*
X5810658Y-17524460D02*
X5791610Y-17533984D01*
X5791610Y-17533984D02*
X5772562Y-17533984D01*
X5772562Y-17533984D02*
X5753515Y-17524460D01*
X5753515Y-17524460D02*
X5743991Y-17514936D01*
X5743991Y-17514936D02*
X5734467Y-17495889D01*
X5734467Y-17495889D02*
X5724943Y-17457793D01*
X5724943Y-17457793D02*
X5724943Y-17410174D01*
X5724943Y-17410174D02*
X5734467Y-17372079D01*
X5734467Y-17372079D02*
X5743991Y-17353031D01*
X5743991Y-17353031D02*
X5753515Y-17343508D01*
X5753515Y-17343508D02*
X5772562Y-17333984D01*
X5963039Y-17333984D02*
X5982086Y-17333984D01*
X5982086Y-17333984D02*
X6001134Y-17343508D01*
X6001134Y-17343508D02*
X6010658Y-17353031D01*
X6010658Y-17353031D02*
X6020182Y-17372079D01*
X6020182Y-17372079D02*
X6029705Y-17410174D01*
X6029705Y-17410174D02*
X6029705Y-17457793D01*
X6029705Y-17457793D02*
X6020182Y-17495889D01*
X6020182Y-17495889D02*
X6010658Y-17514936D01*
X6010658Y-17514936D02*
X6001134Y-17524460D01*
X6001134Y-17524460D02*
X5982086Y-17533984D01*
X5982086Y-17533984D02*
X5963039Y-17533984D01*
X5963039Y-17533984D02*
X5943991Y-17524460D01*
X5943991Y-17524460D02*
X5934467Y-17514936D01*
X5934467Y-17514936D02*
X5924943Y-17495889D01*
X5924943Y-17495889D02*
X5915420Y-17457793D01*
X5915420Y-17457793D02*
X5915420Y-17410174D01*
X5915420Y-17410174D02*
X5924943Y-17372079D01*
X5924943Y-17372079D02*
X5934467Y-17353031D01*
X5934467Y-17353031D02*
X5943991Y-17343508D01*
X5943991Y-17343508D02*
X5963039Y-17333984D01*
X6115420Y-17533984D02*
X6115420Y-17400650D01*
X6115420Y-17419698D02*
X6124943Y-17410174D01*
X6124943Y-17410174D02*
X6143991Y-17400650D01*
X6143991Y-17400650D02*
X6172563Y-17400650D01*
X6172563Y-17400650D02*
X6191610Y-17410174D01*
X6191610Y-17410174D02*
X6201134Y-17429222D01*
X6201134Y-17429222D02*
X6201134Y-17533984D01*
X6201134Y-17429222D02*
X6210658Y-17410174D01*
X6210658Y-17410174D02*
X6229705Y-17400650D01*
X6229705Y-17400650D02*
X6258277Y-17400650D01*
X6258277Y-17400650D02*
X6277324Y-17410174D01*
X6277324Y-17410174D02*
X6286848Y-17429222D01*
X6286848Y-17429222D02*
X6286848Y-17533984D01*
X6382086Y-17533984D02*
X6382086Y-17400650D01*
X6382086Y-17419698D02*
X6391610Y-17410174D01*
X6391610Y-17410174D02*
X6410658Y-17400650D01*
X6410658Y-17400650D02*
X6439229Y-17400650D01*
X6439229Y-17400650D02*
X6458277Y-17410174D01*
X6458277Y-17410174D02*
X6467801Y-17429222D01*
X6467801Y-17429222D02*
X6467801Y-17533984D01*
X6467801Y-17429222D02*
X6477324Y-17410174D01*
X6477324Y-17410174D02*
X6496372Y-17400650D01*
X6496372Y-17400650D02*
X6524943Y-17400650D01*
X6524943Y-17400650D02*
X6543991Y-17410174D01*
X6543991Y-17410174D02*
X6553515Y-17429222D01*
X6553515Y-17429222D02*
X6553515Y-17533984D01*
X6943991Y-17324460D02*
X6772563Y-17581603D01*
X7201134Y-17333984D02*
X7220182Y-17333984D01*
X7220182Y-17333984D02*
X7239229Y-17343508D01*
X7239229Y-17343508D02*
X7248753Y-17353031D01*
X7248753Y-17353031D02*
X7258277Y-17372079D01*
X7258277Y-17372079D02*
X7267801Y-17410174D01*
X7267801Y-17410174D02*
X7267801Y-17457793D01*
X7267801Y-17457793D02*
X7258277Y-17495889D01*
X7258277Y-17495889D02*
X7248753Y-17514936D01*
X7248753Y-17514936D02*
X7239229Y-17524460D01*
X7239229Y-17524460D02*
X7220182Y-17533984D01*
X7220182Y-17533984D02*
X7201134Y-17533984D01*
X7201134Y-17533984D02*
X7182086Y-17524460D01*
X7182086Y-17524460D02*
X7172563Y-17514936D01*
X7172563Y-17514936D02*
X7163039Y-17495889D01*
X7163039Y-17495889D02*
X7153515Y-17457793D01*
X7153515Y-17457793D02*
X7153515Y-17410174D01*
X7153515Y-17410174D02*
X7163039Y-17372079D01*
X7163039Y-17372079D02*
X7172563Y-17353031D01*
X7172563Y-17353031D02*
X7182086Y-17343508D01*
X7182086Y-17343508D02*
X7201134Y-17333984D01*
X7353515Y-17514936D02*
X7363039Y-17524460D01*
X7363039Y-17524460D02*
X7353515Y-17533984D01*
X7353515Y-17533984D02*
X7343991Y-17524460D01*
X7343991Y-17524460D02*
X7353515Y-17514936D01*
X7353515Y-17514936D02*
X7353515Y-17533984D01*
X7486848Y-17333984D02*
X7505896Y-17333984D01*
X7505896Y-17333984D02*
X7524944Y-17343508D01*
X7524944Y-17343508D02*
X7534467Y-17353031D01*
X7534467Y-17353031D02*
X7543991Y-17372079D01*
X7543991Y-17372079D02*
X7553515Y-17410174D01*
X7553515Y-17410174D02*
X7553515Y-17457793D01*
X7553515Y-17457793D02*
X7543991Y-17495889D01*
X7543991Y-17495889D02*
X7534467Y-17514936D01*
X7534467Y-17514936D02*
X7524944Y-17524460D01*
X7524944Y-17524460D02*
X7505896Y-17533984D01*
X7505896Y-17533984D02*
X7486848Y-17533984D01*
X7486848Y-17533984D02*
X7467801Y-17524460D01*
X7467801Y-17524460D02*
X7458277Y-17514936D01*
X7458277Y-17514936D02*
X7448753Y-17495889D01*
X7448753Y-17495889D02*
X7439229Y-17457793D01*
X7439229Y-17457793D02*
X7439229Y-17410174D01*
X7439229Y-17410174D02*
X7448753Y-17372079D01*
X7448753Y-17372079D02*
X7458277Y-17353031D01*
X7458277Y-17353031D02*
X7467801Y-17343508D01*
X7467801Y-17343508D02*
X7486848Y-17333984D01*
X7743991Y-17533984D02*
X7629706Y-17533984D01*
X7686848Y-17533984D02*
X7686848Y-17333984D01*
X7686848Y-17333984D02*
X7667801Y-17362555D01*
X7667801Y-17362555D02*
X7648753Y-17381603D01*
X7648753Y-17381603D02*
X7629706Y-17391127D01*
X7839229Y-17533984D02*
X7877325Y-17533984D01*
X7877325Y-17533984D02*
X7896372Y-17524460D01*
X7896372Y-17524460D02*
X7905896Y-17514936D01*
X7905896Y-17514936D02*
X7924944Y-17486365D01*
X7924944Y-17486365D02*
X7934467Y-17448270D01*
X7934467Y-17448270D02*
X7934467Y-17372079D01*
X7934467Y-17372079D02*
X7924944Y-17353031D01*
X7924944Y-17353031D02*
X7915420Y-17343508D01*
X7915420Y-17343508D02*
X7896372Y-17333984D01*
X7896372Y-17333984D02*
X7858277Y-17333984D01*
X7858277Y-17333984D02*
X7839229Y-17343508D01*
X7839229Y-17343508D02*
X7829706Y-17353031D01*
X7829706Y-17353031D02*
X7820182Y-17372079D01*
X7820182Y-17372079D02*
X7820182Y-17419698D01*
X7820182Y-17419698D02*
X7829706Y-17438746D01*
X7829706Y-17438746D02*
X7839229Y-17448270D01*
X7839229Y-17448270D02*
X7858277Y-17457793D01*
X7858277Y-17457793D02*
X7896372Y-17457793D01*
X7896372Y-17457793D02*
X7915420Y-17448270D01*
X7915420Y-17448270D02*
X7924944Y-17438746D01*
X7924944Y-17438746D02*
X7934467Y-17419698D01*
X8001134Y-17333984D02*
X8134467Y-17333984D01*
X8134467Y-17333984D02*
X8048753Y-17533984D01*
X8201134Y-17333984D02*
X8201134Y-17372079D01*
X8277325Y-17333984D02*
X8277325Y-17372079D01*
X8572563Y-17610174D02*
X8563039Y-17600650D01*
X8563039Y-17600650D02*
X8543991Y-17572079D01*
X8543991Y-17572079D02*
X8534468Y-17553031D01*
X8534468Y-17553031D02*
X8524944Y-17524460D01*
X8524944Y-17524460D02*
X8515420Y-17476841D01*
X8515420Y-17476841D02*
X8515420Y-17438746D01*
X8515420Y-17438746D02*
X8524944Y-17391127D01*
X8524944Y-17391127D02*
X8534468Y-17362555D01*
X8534468Y-17362555D02*
X8543991Y-17343508D01*
X8543991Y-17343508D02*
X8563039Y-17314936D01*
X8563039Y-17314936D02*
X8572563Y-17305412D01*
X8639230Y-17353031D02*
X8648753Y-17343508D01*
X8648753Y-17343508D02*
X8667801Y-17333984D01*
X8667801Y-17333984D02*
X8715420Y-17333984D01*
X8715420Y-17333984D02*
X8734468Y-17343508D01*
X8734468Y-17343508D02*
X8743991Y-17353031D01*
X8743991Y-17353031D02*
X8753515Y-17372079D01*
X8753515Y-17372079D02*
X8753515Y-17391127D01*
X8753515Y-17391127D02*
X8743991Y-17419698D01*
X8743991Y-17419698D02*
X8629706Y-17533984D01*
X8629706Y-17533984D02*
X8753515Y-17533984D01*
X8924944Y-17400650D02*
X8924944Y-17533984D01*
X8877325Y-17324460D02*
X8829706Y-17467317D01*
X8829706Y-17467317D02*
X8953515Y-17467317D01*
X9115420Y-17333984D02*
X9077325Y-17333984D01*
X9077325Y-17333984D02*
X9058277Y-17343508D01*
X9058277Y-17343508D02*
X9048753Y-17353031D01*
X9048753Y-17353031D02*
X9029706Y-17381603D01*
X9029706Y-17381603D02*
X9020182Y-17419698D01*
X9020182Y-17419698D02*
X9020182Y-17495889D01*
X9020182Y-17495889D02*
X9029706Y-17514936D01*
X9029706Y-17514936D02*
X9039230Y-17524460D01*
X9039230Y-17524460D02*
X9058277Y-17533984D01*
X9058277Y-17533984D02*
X9096372Y-17533984D01*
X9096372Y-17533984D02*
X9115420Y-17524460D01*
X9115420Y-17524460D02*
X9124944Y-17514936D01*
X9124944Y-17514936D02*
X9134468Y-17495889D01*
X9134468Y-17495889D02*
X9134468Y-17448270D01*
X9134468Y-17448270D02*
X9124944Y-17429222D01*
X9124944Y-17429222D02*
X9115420Y-17419698D01*
X9115420Y-17419698D02*
X9096372Y-17410174D01*
X9096372Y-17410174D02*
X9058277Y-17410174D01*
X9058277Y-17410174D02*
X9039230Y-17419698D01*
X9039230Y-17419698D02*
X9029706Y-17429222D01*
X9029706Y-17429222D02*
X9020182Y-17448270D01*
X9372563Y-17533984D02*
X9372563Y-17333984D01*
X9458277Y-17533984D02*
X9458277Y-17429222D01*
X9458277Y-17429222D02*
X9448753Y-17410174D01*
X9448753Y-17410174D02*
X9429706Y-17400650D01*
X9429706Y-17400650D02*
X9401134Y-17400650D01*
X9401134Y-17400650D02*
X9382087Y-17410174D01*
X9382087Y-17410174D02*
X9372563Y-17419698D01*
X9582087Y-17533984D02*
X9563039Y-17524460D01*
X9563039Y-17524460D02*
X9553515Y-17514936D01*
X9553515Y-17514936D02*
X9543992Y-17495889D01*
X9543992Y-17495889D02*
X9543992Y-17438746D01*
X9543992Y-17438746D02*
X9553515Y-17419698D01*
X9553515Y-17419698D02*
X9563039Y-17410174D01*
X9563039Y-17410174D02*
X9582087Y-17400650D01*
X9582087Y-17400650D02*
X9610658Y-17400650D01*
X9610658Y-17400650D02*
X9629706Y-17410174D01*
X9629706Y-17410174D02*
X9639230Y-17419698D01*
X9639230Y-17419698D02*
X9648753Y-17438746D01*
X9648753Y-17438746D02*
X9648753Y-17495889D01*
X9648753Y-17495889D02*
X9639230Y-17514936D01*
X9639230Y-17514936D02*
X9629706Y-17524460D01*
X9629706Y-17524460D02*
X9610658Y-17533984D01*
X9610658Y-17533984D02*
X9582087Y-17533984D01*
X9763039Y-17533984D02*
X9743992Y-17524460D01*
X9743992Y-17524460D02*
X9734468Y-17505412D01*
X9734468Y-17505412D02*
X9734468Y-17333984D01*
X9915420Y-17524460D02*
X9896373Y-17533984D01*
X9896373Y-17533984D02*
X9858277Y-17533984D01*
X9858277Y-17533984D02*
X9839230Y-17524460D01*
X9839230Y-17524460D02*
X9829706Y-17505412D01*
X9829706Y-17505412D02*
X9829706Y-17429222D01*
X9829706Y-17429222D02*
X9839230Y-17410174D01*
X9839230Y-17410174D02*
X9858277Y-17400650D01*
X9858277Y-17400650D02*
X9896373Y-17400650D01*
X9896373Y-17400650D02*
X9915420Y-17410174D01*
X9915420Y-17410174D02*
X9924944Y-17429222D01*
X9924944Y-17429222D02*
X9924944Y-17448270D01*
X9924944Y-17448270D02*
X9829706Y-17467317D01*
X10001134Y-17524460D02*
X10020182Y-17533984D01*
X10020182Y-17533984D02*
X10058277Y-17533984D01*
X10058277Y-17533984D02*
X10077325Y-17524460D01*
X10077325Y-17524460D02*
X10086849Y-17505412D01*
X10086849Y-17505412D02*
X10086849Y-17495889D01*
X10086849Y-17495889D02*
X10077325Y-17476841D01*
X10077325Y-17476841D02*
X10058277Y-17467317D01*
X10058277Y-17467317D02*
X10029706Y-17467317D01*
X10029706Y-17467317D02*
X10010658Y-17457793D01*
X10010658Y-17457793D02*
X10001134Y-17438746D01*
X10001134Y-17438746D02*
X10001134Y-17429222D01*
X10001134Y-17429222D02*
X10010658Y-17410174D01*
X10010658Y-17410174D02*
X10029706Y-17400650D01*
X10029706Y-17400650D02*
X10058277Y-17400650D01*
X10058277Y-17400650D02*
X10077325Y-17410174D01*
X10153515Y-17610174D02*
X10163039Y-17600650D01*
X10163039Y-17600650D02*
X10182087Y-17572079D01*
X10182087Y-17572079D02*
X10191611Y-17553031D01*
X10191611Y-17553031D02*
X10201134Y-17524460D01*
X10201134Y-17524460D02*
X10210658Y-17476841D01*
X10210658Y-17476841D02*
X10210658Y-17438746D01*
X10210658Y-17438746D02*
X10201134Y-17391127D01*
X10201134Y-17391127D02*
X10191611Y-17362555D01*
X10191611Y-17362555D02*
X10182087Y-17343508D01*
X10182087Y-17343508D02*
X10163039Y-17314936D01*
X10163039Y-17314936D02*
X10153515Y-17305412D01*
X10515420Y-17610174D02*
X10505896Y-17600650D01*
X10505896Y-17600650D02*
X10486849Y-17572079D01*
X10486849Y-17572079D02*
X10477325Y-17553031D01*
X10477325Y-17553031D02*
X10467801Y-17524460D01*
X10467801Y-17524460D02*
X10458277Y-17476841D01*
X10458277Y-17476841D02*
X10458277Y-17438746D01*
X10458277Y-17438746D02*
X10467801Y-17391127D01*
X10467801Y-17391127D02*
X10477325Y-17362555D01*
X10477325Y-17362555D02*
X10486849Y-17343508D01*
X10486849Y-17343508D02*
X10505896Y-17314936D01*
X10505896Y-17314936D02*
X10515420Y-17305412D01*
X10591611Y-17400650D02*
X10591611Y-17533984D01*
X10591611Y-17419698D02*
X10601134Y-17410174D01*
X10601134Y-17410174D02*
X10620182Y-17400650D01*
X10620182Y-17400650D02*
X10648754Y-17400650D01*
X10648754Y-17400650D02*
X10667801Y-17410174D01*
X10667801Y-17410174D02*
X10677325Y-17429222D01*
X10677325Y-17429222D02*
X10677325Y-17533984D01*
X10801134Y-17533984D02*
X10782087Y-17524460D01*
X10782087Y-17524460D02*
X10772563Y-17514936D01*
X10772563Y-17514936D02*
X10763039Y-17495889D01*
X10763039Y-17495889D02*
X10763039Y-17438746D01*
X10763039Y-17438746D02*
X10772563Y-17419698D01*
X10772563Y-17419698D02*
X10782087Y-17410174D01*
X10782087Y-17410174D02*
X10801134Y-17400650D01*
X10801134Y-17400650D02*
X10829706Y-17400650D01*
X10829706Y-17400650D02*
X10848754Y-17410174D01*
X10848754Y-17410174D02*
X10858277Y-17419698D01*
X10858277Y-17419698D02*
X10867801Y-17438746D01*
X10867801Y-17438746D02*
X10867801Y-17495889D01*
X10867801Y-17495889D02*
X10858277Y-17514936D01*
X10858277Y-17514936D02*
X10848754Y-17524460D01*
X10848754Y-17524460D02*
X10829706Y-17533984D01*
X10829706Y-17533984D02*
X10801134Y-17533984D01*
X10924944Y-17400650D02*
X11001134Y-17400650D01*
X10953515Y-17333984D02*
X10953515Y-17505412D01*
X10953515Y-17505412D02*
X10963039Y-17524460D01*
X10963039Y-17524460D02*
X10982087Y-17533984D01*
X10982087Y-17533984D02*
X11001134Y-17533984D01*
X11220182Y-17400650D02*
X11220182Y-17600650D01*
X11220182Y-17410174D02*
X11239230Y-17400650D01*
X11239230Y-17400650D02*
X11277325Y-17400650D01*
X11277325Y-17400650D02*
X11296373Y-17410174D01*
X11296373Y-17410174D02*
X11305896Y-17419698D01*
X11305896Y-17419698D02*
X11315420Y-17438746D01*
X11315420Y-17438746D02*
X11315420Y-17495889D01*
X11315420Y-17495889D02*
X11305896Y-17514936D01*
X11305896Y-17514936D02*
X11296373Y-17524460D01*
X11296373Y-17524460D02*
X11277325Y-17533984D01*
X11277325Y-17533984D02*
X11239230Y-17533984D01*
X11239230Y-17533984D02*
X11220182Y-17524460D01*
X11429706Y-17533984D02*
X11410658Y-17524460D01*
X11410658Y-17524460D02*
X11401134Y-17505412D01*
X11401134Y-17505412D02*
X11401134Y-17333984D01*
X11591611Y-17533984D02*
X11591611Y-17429222D01*
X11591611Y-17429222D02*
X11582087Y-17410174D01*
X11582087Y-17410174D02*
X11563039Y-17400650D01*
X11563039Y-17400650D02*
X11524944Y-17400650D01*
X11524944Y-17400650D02*
X11505896Y-17410174D01*
X11591611Y-17524460D02*
X11572563Y-17533984D01*
X11572563Y-17533984D02*
X11524944Y-17533984D01*
X11524944Y-17533984D02*
X11505896Y-17524460D01*
X11505896Y-17524460D02*
X11496373Y-17505412D01*
X11496373Y-17505412D02*
X11496373Y-17486365D01*
X11496373Y-17486365D02*
X11505896Y-17467317D01*
X11505896Y-17467317D02*
X11524944Y-17457793D01*
X11524944Y-17457793D02*
X11572563Y-17457793D01*
X11572563Y-17457793D02*
X11591611Y-17448270D01*
X11658277Y-17400650D02*
X11734468Y-17400650D01*
X11686849Y-17333984D02*
X11686849Y-17505412D01*
X11686849Y-17505412D02*
X11696373Y-17524460D01*
X11696373Y-17524460D02*
X11715420Y-17533984D01*
X11715420Y-17533984D02*
X11734468Y-17533984D01*
X11877325Y-17524460D02*
X11858277Y-17533984D01*
X11858277Y-17533984D02*
X11820182Y-17533984D01*
X11820182Y-17533984D02*
X11801134Y-17524460D01*
X11801134Y-17524460D02*
X11791611Y-17505412D01*
X11791611Y-17505412D02*
X11791611Y-17429222D01*
X11791611Y-17429222D02*
X11801134Y-17410174D01*
X11801134Y-17410174D02*
X11820182Y-17400650D01*
X11820182Y-17400650D02*
X11858277Y-17400650D01*
X11858277Y-17400650D02*
X11877325Y-17410174D01*
X11877325Y-17410174D02*
X11886849Y-17429222D01*
X11886849Y-17429222D02*
X11886849Y-17448270D01*
X11886849Y-17448270D02*
X11791611Y-17467317D01*
X12058277Y-17533984D02*
X12058277Y-17333984D01*
X12058277Y-17524460D02*
X12039230Y-17533984D01*
X12039230Y-17533984D02*
X12001134Y-17533984D01*
X12001134Y-17533984D02*
X11982087Y-17524460D01*
X11982087Y-17524460D02*
X11972563Y-17514936D01*
X11972563Y-17514936D02*
X11963039Y-17495889D01*
X11963039Y-17495889D02*
X11963039Y-17438746D01*
X11963039Y-17438746D02*
X11972563Y-17419698D01*
X11972563Y-17419698D02*
X11982087Y-17410174D01*
X11982087Y-17410174D02*
X12001134Y-17400650D01*
X12001134Y-17400650D02*
X12039230Y-17400650D01*
X12039230Y-17400650D02*
X12058277Y-17410174D01*
X12134468Y-17610174D02*
X12143992Y-17600650D01*
X12143992Y-17600650D02*
X12163039Y-17572079D01*
X12163039Y-17572079D02*
X12172563Y-17553031D01*
X12172563Y-17553031D02*
X12182087Y-17524460D01*
X12182087Y-17524460D02*
X12191611Y-17476841D01*
X12191611Y-17476841D02*
X12191611Y-17438746D01*
X12191611Y-17438746D02*
X12182087Y-17391127D01*
X12182087Y-17391127D02*
X12172563Y-17362555D01*
X12172563Y-17362555D02*
X12163039Y-17343508D01*
X12163039Y-17343508D02*
X12143992Y-17314936D01*
X12143992Y-17314936D02*
X12134468Y-17305412D01*
D13*
X4997500Y-17706500D02*
G75*
G02*
X4882300Y-17706500I-57600J0D01*
G01*
X4882300Y-17706500D02*
G75*
G02*
X4997500Y-17706500I57600J0D01*
G01*
D11*
X5363039Y-17797984D02*
X5248753Y-17797984D01*
X5305896Y-17797984D02*
X5305896Y-17597984D01*
X5305896Y-17597984D02*
X5286848Y-17626555D01*
X5286848Y-17626555D02*
X5267801Y-17645603D01*
X5267801Y-17645603D02*
X5248753Y-17655127D01*
X5448753Y-17778936D02*
X5458277Y-17788460D01*
X5458277Y-17788460D02*
X5448753Y-17797984D01*
X5448753Y-17797984D02*
X5439229Y-17788460D01*
X5439229Y-17788460D02*
X5448753Y-17778936D01*
X5448753Y-17778936D02*
X5448753Y-17797984D01*
X5648753Y-17797984D02*
X5534467Y-17797984D01*
X5591610Y-17797984D02*
X5591610Y-17597984D01*
X5591610Y-17597984D02*
X5572563Y-17626555D01*
X5572563Y-17626555D02*
X5553515Y-17645603D01*
X5553515Y-17645603D02*
X5534467Y-17655127D01*
X5829705Y-17597984D02*
X5734467Y-17597984D01*
X5734467Y-17597984D02*
X5724943Y-17693222D01*
X5724943Y-17693222D02*
X5734467Y-17683698D01*
X5734467Y-17683698D02*
X5753515Y-17674174D01*
X5753515Y-17674174D02*
X5801134Y-17674174D01*
X5801134Y-17674174D02*
X5820182Y-17683698D01*
X5820182Y-17683698D02*
X5829705Y-17693222D01*
X5829705Y-17693222D02*
X5839229Y-17712270D01*
X5839229Y-17712270D02*
X5839229Y-17759889D01*
X5839229Y-17759889D02*
X5829705Y-17778936D01*
X5829705Y-17778936D02*
X5820182Y-17788460D01*
X5820182Y-17788460D02*
X5801134Y-17797984D01*
X5801134Y-17797984D02*
X5753515Y-17797984D01*
X5753515Y-17797984D02*
X5734467Y-17788460D01*
X5734467Y-17788460D02*
X5724943Y-17778936D01*
X5915420Y-17617031D02*
X5924943Y-17607508D01*
X5924943Y-17607508D02*
X5943991Y-17597984D01*
X5943991Y-17597984D02*
X5991610Y-17597984D01*
X5991610Y-17597984D02*
X6010658Y-17607508D01*
X6010658Y-17607508D02*
X6020182Y-17617031D01*
X6020182Y-17617031D02*
X6029705Y-17636079D01*
X6029705Y-17636079D02*
X6029705Y-17655127D01*
X6029705Y-17655127D02*
X6020182Y-17683698D01*
X6020182Y-17683698D02*
X5905896Y-17797984D01*
X5905896Y-17797984D02*
X6029705Y-17797984D01*
X6115420Y-17797984D02*
X6115420Y-17664650D01*
X6115420Y-17683698D02*
X6124943Y-17674174D01*
X6124943Y-17674174D02*
X6143991Y-17664650D01*
X6143991Y-17664650D02*
X6172563Y-17664650D01*
X6172563Y-17664650D02*
X6191610Y-17674174D01*
X6191610Y-17674174D02*
X6201134Y-17693222D01*
X6201134Y-17693222D02*
X6201134Y-17797984D01*
X6201134Y-17693222D02*
X6210658Y-17674174D01*
X6210658Y-17674174D02*
X6229705Y-17664650D01*
X6229705Y-17664650D02*
X6258277Y-17664650D01*
X6258277Y-17664650D02*
X6277324Y-17674174D01*
X6277324Y-17674174D02*
X6286848Y-17693222D01*
X6286848Y-17693222D02*
X6286848Y-17797984D01*
X6382086Y-17797984D02*
X6382086Y-17664650D01*
X6382086Y-17683698D02*
X6391610Y-17674174D01*
X6391610Y-17674174D02*
X6410658Y-17664650D01*
X6410658Y-17664650D02*
X6439229Y-17664650D01*
X6439229Y-17664650D02*
X6458277Y-17674174D01*
X6458277Y-17674174D02*
X6467801Y-17693222D01*
X6467801Y-17693222D02*
X6467801Y-17797984D01*
X6467801Y-17693222D02*
X6477324Y-17674174D01*
X6477324Y-17674174D02*
X6496372Y-17664650D01*
X6496372Y-17664650D02*
X6524943Y-17664650D01*
X6524943Y-17664650D02*
X6543991Y-17674174D01*
X6543991Y-17674174D02*
X6553515Y-17693222D01*
X6553515Y-17693222D02*
X6553515Y-17797984D01*
X6943991Y-17588460D02*
X6772563Y-17845603D01*
X7201134Y-17597984D02*
X7220182Y-17597984D01*
X7220182Y-17597984D02*
X7239229Y-17607508D01*
X7239229Y-17607508D02*
X7248753Y-17617031D01*
X7248753Y-17617031D02*
X7258277Y-17636079D01*
X7258277Y-17636079D02*
X7267801Y-17674174D01*
X7267801Y-17674174D02*
X7267801Y-17721793D01*
X7267801Y-17721793D02*
X7258277Y-17759889D01*
X7258277Y-17759889D02*
X7248753Y-17778936D01*
X7248753Y-17778936D02*
X7239229Y-17788460D01*
X7239229Y-17788460D02*
X7220182Y-17797984D01*
X7220182Y-17797984D02*
X7201134Y-17797984D01*
X7201134Y-17797984D02*
X7182086Y-17788460D01*
X7182086Y-17788460D02*
X7172563Y-17778936D01*
X7172563Y-17778936D02*
X7163039Y-17759889D01*
X7163039Y-17759889D02*
X7153515Y-17721793D01*
X7153515Y-17721793D02*
X7153515Y-17674174D01*
X7153515Y-17674174D02*
X7163039Y-17636079D01*
X7163039Y-17636079D02*
X7172563Y-17617031D01*
X7172563Y-17617031D02*
X7182086Y-17607508D01*
X7182086Y-17607508D02*
X7201134Y-17597984D01*
X7353515Y-17778936D02*
X7363039Y-17788460D01*
X7363039Y-17788460D02*
X7353515Y-17797984D01*
X7353515Y-17797984D02*
X7343991Y-17788460D01*
X7343991Y-17788460D02*
X7353515Y-17778936D01*
X7353515Y-17778936D02*
X7353515Y-17797984D01*
X7486848Y-17597984D02*
X7505896Y-17597984D01*
X7505896Y-17597984D02*
X7524944Y-17607508D01*
X7524944Y-17607508D02*
X7534467Y-17617031D01*
X7534467Y-17617031D02*
X7543991Y-17636079D01*
X7543991Y-17636079D02*
X7553515Y-17674174D01*
X7553515Y-17674174D02*
X7553515Y-17721793D01*
X7553515Y-17721793D02*
X7543991Y-17759889D01*
X7543991Y-17759889D02*
X7534467Y-17778936D01*
X7534467Y-17778936D02*
X7524944Y-17788460D01*
X7524944Y-17788460D02*
X7505896Y-17797984D01*
X7505896Y-17797984D02*
X7486848Y-17797984D01*
X7486848Y-17797984D02*
X7467801Y-17788460D01*
X7467801Y-17788460D02*
X7458277Y-17778936D01*
X7458277Y-17778936D02*
X7448753Y-17759889D01*
X7448753Y-17759889D02*
X7439229Y-17721793D01*
X7439229Y-17721793D02*
X7439229Y-17674174D01*
X7439229Y-17674174D02*
X7448753Y-17636079D01*
X7448753Y-17636079D02*
X7458277Y-17617031D01*
X7458277Y-17617031D02*
X7467801Y-17607508D01*
X7467801Y-17607508D02*
X7486848Y-17597984D01*
X7724944Y-17664650D02*
X7724944Y-17797984D01*
X7677325Y-17588460D02*
X7629706Y-17731317D01*
X7629706Y-17731317D02*
X7753515Y-17731317D01*
X7924944Y-17597984D02*
X7829706Y-17597984D01*
X7829706Y-17597984D02*
X7820182Y-17693222D01*
X7820182Y-17693222D02*
X7829706Y-17683698D01*
X7829706Y-17683698D02*
X7848753Y-17674174D01*
X7848753Y-17674174D02*
X7896372Y-17674174D01*
X7896372Y-17674174D02*
X7915420Y-17683698D01*
X7915420Y-17683698D02*
X7924944Y-17693222D01*
X7924944Y-17693222D02*
X7934467Y-17712270D01*
X7934467Y-17712270D02*
X7934467Y-17759889D01*
X7934467Y-17759889D02*
X7924944Y-17778936D01*
X7924944Y-17778936D02*
X7915420Y-17788460D01*
X7915420Y-17788460D02*
X7896372Y-17797984D01*
X7896372Y-17797984D02*
X7848753Y-17797984D01*
X7848753Y-17797984D02*
X7829706Y-17788460D01*
X7829706Y-17788460D02*
X7820182Y-17778936D01*
X8105896Y-17664650D02*
X8105896Y-17797984D01*
X8058277Y-17588460D02*
X8010658Y-17731317D01*
X8010658Y-17731317D02*
X8134467Y-17731317D01*
X8201134Y-17597984D02*
X8201134Y-17636079D01*
X8277325Y-17597984D02*
X8277325Y-17636079D01*
X8572563Y-17874174D02*
X8563039Y-17864650D01*
X8563039Y-17864650D02*
X8543991Y-17836079D01*
X8543991Y-17836079D02*
X8534468Y-17817031D01*
X8534468Y-17817031D02*
X8524944Y-17788460D01*
X8524944Y-17788460D02*
X8515420Y-17740841D01*
X8515420Y-17740841D02*
X8515420Y-17702746D01*
X8515420Y-17702746D02*
X8524944Y-17655127D01*
X8524944Y-17655127D02*
X8534468Y-17626555D01*
X8534468Y-17626555D02*
X8543991Y-17607508D01*
X8543991Y-17607508D02*
X8563039Y-17578936D01*
X8563039Y-17578936D02*
X8572563Y-17569412D01*
X8734468Y-17664650D02*
X8734468Y-17797984D01*
X8686849Y-17588460D02*
X8639230Y-17731317D01*
X8639230Y-17731317D02*
X8763039Y-17731317D01*
X8991611Y-17797984D02*
X8991611Y-17597984D01*
X9077325Y-17797984D02*
X9077325Y-17693222D01*
X9077325Y-17693222D02*
X9067801Y-17674174D01*
X9067801Y-17674174D02*
X9048753Y-17664650D01*
X9048753Y-17664650D02*
X9020182Y-17664650D01*
X9020182Y-17664650D02*
X9001134Y-17674174D01*
X9001134Y-17674174D02*
X8991611Y-17683698D01*
X9201134Y-17797984D02*
X9182087Y-17788460D01*
X9182087Y-17788460D02*
X9172563Y-17778936D01*
X9172563Y-17778936D02*
X9163039Y-17759889D01*
X9163039Y-17759889D02*
X9163039Y-17702746D01*
X9163039Y-17702746D02*
X9172563Y-17683698D01*
X9172563Y-17683698D02*
X9182087Y-17674174D01*
X9182087Y-17674174D02*
X9201134Y-17664650D01*
X9201134Y-17664650D02*
X9229706Y-17664650D01*
X9229706Y-17664650D02*
X9248753Y-17674174D01*
X9248753Y-17674174D02*
X9258277Y-17683698D01*
X9258277Y-17683698D02*
X9267801Y-17702746D01*
X9267801Y-17702746D02*
X9267801Y-17759889D01*
X9267801Y-17759889D02*
X9258277Y-17778936D01*
X9258277Y-17778936D02*
X9248753Y-17788460D01*
X9248753Y-17788460D02*
X9229706Y-17797984D01*
X9229706Y-17797984D02*
X9201134Y-17797984D01*
X9382087Y-17797984D02*
X9363039Y-17788460D01*
X9363039Y-17788460D02*
X9353515Y-17769412D01*
X9353515Y-17769412D02*
X9353515Y-17597984D01*
X9534468Y-17788460D02*
X9515420Y-17797984D01*
X9515420Y-17797984D02*
X9477325Y-17797984D01*
X9477325Y-17797984D02*
X9458277Y-17788460D01*
X9458277Y-17788460D02*
X9448753Y-17769412D01*
X9448753Y-17769412D02*
X9448753Y-17693222D01*
X9448753Y-17693222D02*
X9458277Y-17674174D01*
X9458277Y-17674174D02*
X9477325Y-17664650D01*
X9477325Y-17664650D02*
X9515420Y-17664650D01*
X9515420Y-17664650D02*
X9534468Y-17674174D01*
X9534468Y-17674174D02*
X9543992Y-17693222D01*
X9543992Y-17693222D02*
X9543992Y-17712270D01*
X9543992Y-17712270D02*
X9448753Y-17731317D01*
X9620182Y-17788460D02*
X9639230Y-17797984D01*
X9639230Y-17797984D02*
X9677325Y-17797984D01*
X9677325Y-17797984D02*
X9696373Y-17788460D01*
X9696373Y-17788460D02*
X9705896Y-17769412D01*
X9705896Y-17769412D02*
X9705896Y-17759889D01*
X9705896Y-17759889D02*
X9696373Y-17740841D01*
X9696373Y-17740841D02*
X9677325Y-17731317D01*
X9677325Y-17731317D02*
X9648753Y-17731317D01*
X9648753Y-17731317D02*
X9629706Y-17721793D01*
X9629706Y-17721793D02*
X9620182Y-17702746D01*
X9620182Y-17702746D02*
X9620182Y-17693222D01*
X9620182Y-17693222D02*
X9629706Y-17674174D01*
X9629706Y-17674174D02*
X9648753Y-17664650D01*
X9648753Y-17664650D02*
X9677325Y-17664650D01*
X9677325Y-17664650D02*
X9696373Y-17674174D01*
X9772563Y-17874174D02*
X9782087Y-17864650D01*
X9782087Y-17864650D02*
X9801134Y-17836079D01*
X9801134Y-17836079D02*
X9810658Y-17817031D01*
X9810658Y-17817031D02*
X9820182Y-17788460D01*
X9820182Y-17788460D02*
X9829706Y-17740841D01*
X9829706Y-17740841D02*
X9829706Y-17702746D01*
X9829706Y-17702746D02*
X9820182Y-17655127D01*
X9820182Y-17655127D02*
X9810658Y-17626555D01*
X9810658Y-17626555D02*
X9801134Y-17607508D01*
X9801134Y-17607508D02*
X9782087Y-17578936D01*
X9782087Y-17578936D02*
X9772563Y-17569412D01*
X10134468Y-17874174D02*
X10124944Y-17864650D01*
X10124944Y-17864650D02*
X10105896Y-17836079D01*
X10105896Y-17836079D02*
X10096373Y-17817031D01*
X10096373Y-17817031D02*
X10086849Y-17788460D01*
X10086849Y-17788460D02*
X10077325Y-17740841D01*
X10077325Y-17740841D02*
X10077325Y-17702746D01*
X10077325Y-17702746D02*
X10086849Y-17655127D01*
X10086849Y-17655127D02*
X10096373Y-17626555D01*
X10096373Y-17626555D02*
X10105896Y-17607508D01*
X10105896Y-17607508D02*
X10124944Y-17578936D01*
X10124944Y-17578936D02*
X10134468Y-17569412D01*
X10210658Y-17664650D02*
X10210658Y-17797984D01*
X10210658Y-17683698D02*
X10220182Y-17674174D01*
X10220182Y-17674174D02*
X10239230Y-17664650D01*
X10239230Y-17664650D02*
X10267801Y-17664650D01*
X10267801Y-17664650D02*
X10286849Y-17674174D01*
X10286849Y-17674174D02*
X10296373Y-17693222D01*
X10296373Y-17693222D02*
X10296373Y-17797984D01*
X10420182Y-17797984D02*
X10401134Y-17788460D01*
X10401134Y-17788460D02*
X10391611Y-17778936D01*
X10391611Y-17778936D02*
X10382087Y-17759889D01*
X10382087Y-17759889D02*
X10382087Y-17702746D01*
X10382087Y-17702746D02*
X10391611Y-17683698D01*
X10391611Y-17683698D02*
X10401134Y-17674174D01*
X10401134Y-17674174D02*
X10420182Y-17664650D01*
X10420182Y-17664650D02*
X10448754Y-17664650D01*
X10448754Y-17664650D02*
X10467801Y-17674174D01*
X10467801Y-17674174D02*
X10477325Y-17683698D01*
X10477325Y-17683698D02*
X10486849Y-17702746D01*
X10486849Y-17702746D02*
X10486849Y-17759889D01*
X10486849Y-17759889D02*
X10477325Y-17778936D01*
X10477325Y-17778936D02*
X10467801Y-17788460D01*
X10467801Y-17788460D02*
X10448754Y-17797984D01*
X10448754Y-17797984D02*
X10420182Y-17797984D01*
X10543992Y-17664650D02*
X10620182Y-17664650D01*
X10572563Y-17597984D02*
X10572563Y-17769412D01*
X10572563Y-17769412D02*
X10582087Y-17788460D01*
X10582087Y-17788460D02*
X10601134Y-17797984D01*
X10601134Y-17797984D02*
X10620182Y-17797984D01*
X10839230Y-17664650D02*
X10839230Y-17864650D01*
X10839230Y-17674174D02*
X10858277Y-17664650D01*
X10858277Y-17664650D02*
X10896373Y-17664650D01*
X10896373Y-17664650D02*
X10915420Y-17674174D01*
X10915420Y-17674174D02*
X10924944Y-17683698D01*
X10924944Y-17683698D02*
X10934468Y-17702746D01*
X10934468Y-17702746D02*
X10934468Y-17759889D01*
X10934468Y-17759889D02*
X10924944Y-17778936D01*
X10924944Y-17778936D02*
X10915420Y-17788460D01*
X10915420Y-17788460D02*
X10896373Y-17797984D01*
X10896373Y-17797984D02*
X10858277Y-17797984D01*
X10858277Y-17797984D02*
X10839230Y-17788460D01*
X11048754Y-17797984D02*
X11029706Y-17788460D01*
X11029706Y-17788460D02*
X11020182Y-17769412D01*
X11020182Y-17769412D02*
X11020182Y-17597984D01*
X11210658Y-17797984D02*
X11210658Y-17693222D01*
X11210658Y-17693222D02*
X11201134Y-17674174D01*
X11201134Y-17674174D02*
X11182087Y-17664650D01*
X11182087Y-17664650D02*
X11143992Y-17664650D01*
X11143992Y-17664650D02*
X11124944Y-17674174D01*
X11210658Y-17788460D02*
X11191611Y-17797984D01*
X11191611Y-17797984D02*
X11143992Y-17797984D01*
X11143992Y-17797984D02*
X11124944Y-17788460D01*
X11124944Y-17788460D02*
X11115420Y-17769412D01*
X11115420Y-17769412D02*
X11115420Y-17750365D01*
X11115420Y-17750365D02*
X11124944Y-17731317D01*
X11124944Y-17731317D02*
X11143992Y-17721793D01*
X11143992Y-17721793D02*
X11191611Y-17721793D01*
X11191611Y-17721793D02*
X11210658Y-17712270D01*
X11277325Y-17664650D02*
X11353515Y-17664650D01*
X11305896Y-17597984D02*
X11305896Y-17769412D01*
X11305896Y-17769412D02*
X11315420Y-17788460D01*
X11315420Y-17788460D02*
X11334468Y-17797984D01*
X11334468Y-17797984D02*
X11353515Y-17797984D01*
X11496373Y-17788460D02*
X11477325Y-17797984D01*
X11477325Y-17797984D02*
X11439230Y-17797984D01*
X11439230Y-17797984D02*
X11420182Y-17788460D01*
X11420182Y-17788460D02*
X11410658Y-17769412D01*
X11410658Y-17769412D02*
X11410658Y-17693222D01*
X11410658Y-17693222D02*
X11420182Y-17674174D01*
X11420182Y-17674174D02*
X11439230Y-17664650D01*
X11439230Y-17664650D02*
X11477325Y-17664650D01*
X11477325Y-17664650D02*
X11496373Y-17674174D01*
X11496373Y-17674174D02*
X11505896Y-17693222D01*
X11505896Y-17693222D02*
X11505896Y-17712270D01*
X11505896Y-17712270D02*
X11410658Y-17731317D01*
X11677325Y-17797984D02*
X11677325Y-17597984D01*
X11677325Y-17788460D02*
X11658277Y-17797984D01*
X11658277Y-17797984D02*
X11620182Y-17797984D01*
X11620182Y-17797984D02*
X11601134Y-17788460D01*
X11601134Y-17788460D02*
X11591611Y-17778936D01*
X11591611Y-17778936D02*
X11582087Y-17759889D01*
X11582087Y-17759889D02*
X11582087Y-17702746D01*
X11582087Y-17702746D02*
X11591611Y-17683698D01*
X11591611Y-17683698D02*
X11601134Y-17674174D01*
X11601134Y-17674174D02*
X11620182Y-17664650D01*
X11620182Y-17664650D02*
X11658277Y-17664650D01*
X11658277Y-17664650D02*
X11677325Y-17674174D01*
X11753515Y-17874174D02*
X11763039Y-17864650D01*
X11763039Y-17864650D02*
X11782087Y-17836079D01*
X11782087Y-17836079D02*
X11791611Y-17817031D01*
X11791611Y-17817031D02*
X11801134Y-17788460D01*
X11801134Y-17788460D02*
X11810658Y-17740841D01*
X11810658Y-17740841D02*
X11810658Y-17702746D01*
X11810658Y-17702746D02*
X11801134Y-17655127D01*
X11801134Y-17655127D02*
X11791611Y-17626555D01*
X11791611Y-17626555D02*
X11782087Y-17607508D01*
X11782087Y-17607508D02*
X11763039Y-17578936D01*
X11763039Y-17578936D02*
X11753515Y-17569412D01*
M02*
