G04 #@! TF.GenerationSoftware,KiCad,Pcbnew,8.0.5*
G04 #@! TF.CreationDate,2024-10-13T23:37:30+02:00*
G04 #@! TF.ProjectId,DCDC_converter,44434443-5f63-46f6-9e76-65727465722e,rev?*
G04 #@! TF.SameCoordinates,Original*
G04 #@! TF.FileFunction,Soldermask,Bot*
G04 #@! TF.FilePolarity,Negative*
%FSLAX46Y46*%
G04 Gerber Fmt 4.6, Leading zero omitted, Abs format (unit mm)*
G04 Created by KiCad (PCBNEW 8.0.5) date 2024-10-13 23:37:30*
%MOMM*%
%LPD*%
G01*
G04 APERTURE LIST*
%ADD10C,0.500000*%
%ADD11R,1.700000X1.700000*%
%ADD12O,1.700000X1.700000*%
%ADD13R,1.600000X1.600000*%
%ADD14C,1.600000*%
%ADD15C,1.300000*%
G04 APERTURE END LIST*
D10*
X75750000Y-159750000D03*
X75750000Y-158250000D03*
X75000000Y-159750000D03*
X75000000Y-158250000D03*
X74250000Y-159750000D03*
X74250000Y-158250000D03*
X127750000Y-93750000D03*
X127750000Y-92250000D03*
X127000000Y-93750000D03*
X127000000Y-92250000D03*
X126250000Y-93750000D03*
X126250000Y-92250000D03*
X60750000Y-115750000D03*
X60750000Y-114250000D03*
X60000000Y-115750000D03*
X60000000Y-114250000D03*
X59250000Y-115750000D03*
X59250000Y-114250000D03*
D11*
X94037500Y-108830000D03*
D12*
X96577500Y-108830000D03*
D11*
X146037500Y-64830000D03*
D12*
X148577500Y-64830000D03*
D13*
X113317500Y-152440000D03*
D14*
X115817500Y-152440000D03*
D10*
X100250000Y-126750000D03*
X101750000Y-126750000D03*
X100250000Y-126000000D03*
X101750000Y-126000000D03*
X100250000Y-125250000D03*
X101750000Y-125250000D03*
X142750000Y-71750000D03*
X142750000Y-70250000D03*
X142000000Y-71750000D03*
X142000000Y-70250000D03*
X141250000Y-71750000D03*
X141250000Y-70250000D03*
D11*
X94037500Y-98670000D03*
D12*
X96577500Y-98670000D03*
D11*
X55937500Y-89370000D03*
D12*
X53397500Y-89370000D03*
D10*
X112750000Y-159750000D03*
X112750000Y-158250000D03*
X112000000Y-159750000D03*
X112000000Y-158250000D03*
X111250000Y-159750000D03*
X111250000Y-158250000D03*
D11*
X94037500Y-152830000D03*
D12*
X96577500Y-152830000D03*
D11*
X107937500Y-67370000D03*
D12*
X105397500Y-67370000D03*
D10*
X100250000Y-104750000D03*
X101750000Y-104750000D03*
X100250000Y-104000000D03*
X101750000Y-104000000D03*
X100250000Y-103250000D03*
X101750000Y-103250000D03*
X127750000Y-159750000D03*
X127750000Y-158250000D03*
X127000000Y-159750000D03*
X127000000Y-158250000D03*
X126250000Y-159750000D03*
X126250000Y-158250000D03*
X60750000Y-137750000D03*
X60750000Y-136250000D03*
X60000000Y-137750000D03*
X60000000Y-136250000D03*
X59250000Y-137750000D03*
X59250000Y-136250000D03*
D11*
X146037500Y-98670000D03*
D12*
X148577500Y-98670000D03*
D11*
X55937500Y-155370000D03*
D12*
X53397500Y-155370000D03*
D13*
X61317500Y-86440000D03*
D14*
X63817500Y-86440000D03*
D15*
X150000000Y-42000000D03*
D11*
X55937500Y-133370000D03*
D12*
X53397500Y-133370000D03*
D10*
X127750000Y-137750000D03*
X127750000Y-136250000D03*
X127000000Y-137750000D03*
X127000000Y-136250000D03*
X126250000Y-137750000D03*
X126250000Y-136250000D03*
D11*
X107937500Y-96130000D03*
D12*
X105397500Y-96130000D03*
D13*
X61317500Y-108440000D03*
D14*
X63817500Y-108440000D03*
D11*
X107937500Y-133370000D03*
D12*
X105397500Y-133370000D03*
D11*
X94037500Y-64830000D03*
D12*
X96577500Y-64830000D03*
D10*
X142750000Y-115750000D03*
X142750000Y-114250000D03*
X142000000Y-115750000D03*
X142000000Y-114250000D03*
X141250000Y-115750000D03*
X141250000Y-114250000D03*
D11*
X94037500Y-54670000D03*
D12*
X96577500Y-54670000D03*
D11*
X107937500Y-155370000D03*
D12*
X105397500Y-155370000D03*
D10*
X90750000Y-115750000D03*
X90750000Y-114250000D03*
X90000000Y-115750000D03*
X90000000Y-114250000D03*
X89250000Y-115750000D03*
X89250000Y-114250000D03*
D15*
X52000000Y-166000000D03*
D10*
X112750000Y-115750000D03*
X112750000Y-114250000D03*
X112000000Y-115750000D03*
X112000000Y-114250000D03*
X111250000Y-115750000D03*
X111250000Y-114250000D03*
D13*
X113317500Y-108440000D03*
D14*
X115817500Y-108440000D03*
D11*
X107937500Y-89370000D03*
D12*
X105397500Y-89370000D03*
D10*
X127750000Y-115750000D03*
X127750000Y-114250000D03*
X127000000Y-115750000D03*
X127000000Y-114250000D03*
X126250000Y-115750000D03*
X126250000Y-114250000D03*
D13*
X113317500Y-64440000D03*
D14*
X115817500Y-64440000D03*
D10*
X112750000Y-137750000D03*
X112750000Y-136250000D03*
X112000000Y-137750000D03*
X112000000Y-136250000D03*
X111250000Y-137750000D03*
X111250000Y-136250000D03*
D11*
X146037500Y-108830000D03*
D12*
X148577500Y-108830000D03*
D15*
X52000000Y-42000000D03*
D11*
X146037500Y-54670000D03*
D12*
X148577500Y-54670000D03*
D10*
X75750000Y-115750000D03*
X75750000Y-114250000D03*
X75000000Y-115750000D03*
X75000000Y-114250000D03*
X74250000Y-115750000D03*
X74250000Y-114250000D03*
X75750000Y-93750000D03*
X75750000Y-92250000D03*
X75000000Y-93750000D03*
X75000000Y-92250000D03*
X74250000Y-93750000D03*
X74250000Y-92250000D03*
X90750000Y-159750000D03*
X90750000Y-158250000D03*
X90000000Y-159750000D03*
X90000000Y-158250000D03*
X89250000Y-159750000D03*
X89250000Y-158250000D03*
X142750000Y-49750000D03*
X142750000Y-48250000D03*
X142000000Y-49750000D03*
X142000000Y-48250000D03*
X141250000Y-49750000D03*
X141250000Y-48250000D03*
D11*
X146037500Y-142670000D03*
D12*
X148577500Y-142670000D03*
D10*
X75750000Y-71750000D03*
X75750000Y-70250000D03*
X75000000Y-71750000D03*
X75000000Y-70250000D03*
X74250000Y-71750000D03*
X74250000Y-70250000D03*
D13*
X61317500Y-64440000D03*
D14*
X63817500Y-64440000D03*
D10*
X90750000Y-49750000D03*
X90750000Y-48250000D03*
X90000000Y-49750000D03*
X90000000Y-48250000D03*
X89250000Y-49750000D03*
X89250000Y-48250000D03*
X75750000Y-49750000D03*
X75750000Y-48250000D03*
X75000000Y-49750000D03*
X75000000Y-48250000D03*
X74250000Y-49750000D03*
X74250000Y-48250000D03*
X90750000Y-93750000D03*
X90750000Y-92250000D03*
X90000000Y-93750000D03*
X90000000Y-92250000D03*
X89250000Y-93750000D03*
X89250000Y-92250000D03*
D13*
X61317500Y-130440000D03*
D14*
X63817500Y-130440000D03*
D11*
X107937500Y-118130000D03*
D12*
X105397500Y-118130000D03*
D11*
X107937500Y-74130000D03*
D12*
X105397500Y-74130000D03*
D11*
X55937500Y-67370000D03*
D12*
X53397500Y-67370000D03*
D11*
X146037500Y-86830000D03*
D12*
X148577500Y-86830000D03*
D13*
X61317500Y-152440000D03*
D14*
X63817500Y-152440000D03*
D11*
X94037500Y-142670000D03*
D12*
X96577500Y-142670000D03*
D11*
X55937500Y-74130000D03*
D12*
X53397500Y-74130000D03*
D13*
X113317500Y-86440000D03*
D14*
X115817500Y-86440000D03*
D10*
X60750000Y-49750000D03*
X60750000Y-48250000D03*
X60000000Y-49750000D03*
X60000000Y-48250000D03*
X59250000Y-49750000D03*
X59250000Y-48250000D03*
D15*
X150000000Y-166000000D03*
D10*
X100250000Y-60750000D03*
X101750000Y-60750000D03*
X100250000Y-60000000D03*
X101750000Y-60000000D03*
X100250000Y-59250000D03*
X101750000Y-59250000D03*
D11*
X55937500Y-118130000D03*
D12*
X53397500Y-118130000D03*
D10*
X142750000Y-137750000D03*
X142750000Y-136250000D03*
X142000000Y-137750000D03*
X142000000Y-136250000D03*
X141250000Y-137750000D03*
X141250000Y-136250000D03*
X100250000Y-148750000D03*
X101750000Y-148750000D03*
X100250000Y-148000000D03*
X101750000Y-148000000D03*
X100250000Y-147250000D03*
X101750000Y-147250000D03*
X112750000Y-71750000D03*
X112750000Y-70250000D03*
X112000000Y-71750000D03*
X112000000Y-70250000D03*
X111250000Y-71750000D03*
X111250000Y-70250000D03*
X60750000Y-93750000D03*
X60750000Y-92250000D03*
X60000000Y-93750000D03*
X60000000Y-92250000D03*
X59250000Y-93750000D03*
X59250000Y-92250000D03*
D11*
X107937500Y-52130000D03*
D12*
X105397500Y-52130000D03*
D13*
X113317500Y-130440000D03*
D14*
X115817500Y-130440000D03*
D11*
X107937500Y-111370000D03*
D12*
X105397500Y-111370000D03*
D11*
X55937500Y-140130000D03*
D12*
X53397500Y-140130000D03*
D11*
X94037500Y-86830000D03*
D12*
X96577500Y-86830000D03*
D10*
X127750000Y-71750000D03*
X127750000Y-70250000D03*
X127000000Y-71750000D03*
X127000000Y-70250000D03*
X126250000Y-71750000D03*
X126250000Y-70250000D03*
X127750000Y-49750000D03*
X127750000Y-48250000D03*
X127000000Y-49750000D03*
X127000000Y-48250000D03*
X126250000Y-49750000D03*
X126250000Y-48250000D03*
D11*
X55937500Y-52130000D03*
D12*
X53397500Y-52130000D03*
D11*
X107937500Y-140130000D03*
D12*
X105397500Y-140130000D03*
D11*
X146037500Y-76670000D03*
D12*
X148577500Y-76670000D03*
D11*
X94037500Y-120670000D03*
D12*
X96577500Y-120670000D03*
D10*
X100250000Y-82750000D03*
X101750000Y-82750000D03*
X100250000Y-82000000D03*
X101750000Y-82000000D03*
X100250000Y-81250000D03*
X101750000Y-81250000D03*
D11*
X94037500Y-130830000D03*
D12*
X96577500Y-130830000D03*
D10*
X142750000Y-159750000D03*
X142750000Y-158250000D03*
X142000000Y-159750000D03*
X142000000Y-158250000D03*
X141250000Y-159750000D03*
X141250000Y-158250000D03*
X60750000Y-71750000D03*
X60750000Y-70250000D03*
X60000000Y-71750000D03*
X60000000Y-70250000D03*
X59250000Y-71750000D03*
X59250000Y-70250000D03*
D11*
X55937500Y-111370000D03*
D12*
X53397500Y-111370000D03*
D10*
X90750000Y-137750000D03*
X90750000Y-136250000D03*
X90000000Y-137750000D03*
X90000000Y-136250000D03*
X89250000Y-137750000D03*
X89250000Y-136250000D03*
D11*
X146037500Y-130830000D03*
D12*
X148577500Y-130830000D03*
D10*
X60750000Y-159750000D03*
X60750000Y-158250000D03*
X60000000Y-159750000D03*
X60000000Y-158250000D03*
X59250000Y-159750000D03*
X59250000Y-158250000D03*
X75750000Y-137750000D03*
X75750000Y-136250000D03*
X75000000Y-137750000D03*
X75000000Y-136250000D03*
X74250000Y-137750000D03*
X74250000Y-136250000D03*
D11*
X146037500Y-152830000D03*
D12*
X148577500Y-152830000D03*
D10*
X142750000Y-93750000D03*
X142750000Y-92250000D03*
X142000000Y-93750000D03*
X142000000Y-92250000D03*
X141250000Y-93750000D03*
X141250000Y-92250000D03*
D11*
X146037500Y-120670000D03*
D12*
X148577500Y-120670000D03*
D10*
X112750000Y-93750000D03*
X112750000Y-92250000D03*
X112000000Y-93750000D03*
X112000000Y-92250000D03*
X111250000Y-93750000D03*
X111250000Y-92250000D03*
D11*
X55937500Y-96130000D03*
D12*
X53397500Y-96130000D03*
D10*
X112750000Y-49750000D03*
X112750000Y-48250000D03*
X112000000Y-49750000D03*
X112000000Y-48250000D03*
X111250000Y-49750000D03*
X111250000Y-48250000D03*
X90750000Y-71750000D03*
X90750000Y-70250000D03*
X90000000Y-71750000D03*
X90000000Y-70250000D03*
X89250000Y-71750000D03*
X89250000Y-70250000D03*
D11*
X94037500Y-76670000D03*
D12*
X96577500Y-76670000D03*
M02*
