%TF.GenerationSoftware,KiCad,Pcbnew,8.0.5*%
%TF.CreationDate,2024-10-13T18:52:02+02:00*%
%TF.ProjectId,DCDC_converter,44434443-5f63-46f6-9e76-65727465722e,rev?*%
%TF.SameCoordinates,Original*%
%TF.FileFunction,Drillmap*%
%TF.FilePolarity,Positive*%
%FSLAX45Y45*%
G04 Gerber Fmt 4.5, Leading zero omitted, Abs format (unit mm)*
G04 Created by KiCad (PCBNEW 8.0.5) date 2024-10-13 18:52:02*
%MOMM*%
%LPD*%
G01*
G04 APERTURE LIST*
%ADD10C,0.050000*%
%ADD11C,0.200000*%
%ADD12C,0.100000*%
G04 APERTURE END LIST*
D10*
X9650000Y-6000000D02*
G75*
G02*
X9450000Y-6000000I-100000J0D01*
G01*
X9450000Y-6000000D02*
G75*
G02*
X9650000Y-6000000I100000J0D01*
G01*
X5280000Y-6020000D02*
G75*
G02*
X5280000Y-5920000I0J50000D01*
G01*
X5720000Y-5920000D02*
G75*
G02*
X5720000Y-6020000I0J-50000D01*
G01*
X5720000Y-6020000D02*
X5280000Y-6020000D01*
X5280000Y-5920000D02*
X5720000Y-5920000D01*
X10000000Y-7000000D02*
X5000000Y-7000000D01*
X10000000Y-5000000D02*
X10000000Y-7000000D01*
X5000000Y-5000000D02*
X10000000Y-5000000D01*
X5000000Y-7000000D02*
X5000000Y-5000000D01*
D11*
D12*
X5140000Y-6100000D02*
X5170000Y-6130000D01*
X5170000Y-6100000D02*
X5140000Y-6130000D01*
X5140000Y-6355000D02*
X5170000Y-6385000D01*
X5170000Y-6355000D02*
X5140000Y-6385000D01*
X5185000Y-6475000D02*
X5215000Y-6505000D01*
X5215000Y-6475000D02*
X5185000Y-6505000D01*
X5205000Y-5502500D02*
X5235000Y-5532500D01*
X5235000Y-5502500D02*
X5205000Y-5532500D01*
X5205000Y-5765000D02*
X5235000Y-5795000D01*
X5235000Y-5765000D02*
X5205000Y-5795000D01*
X5262500Y-6230000D02*
X5292500Y-6260000D01*
X5292500Y-6230000D02*
X5262500Y-6260000D01*
X5325000Y-5502500D02*
X5355000Y-5532500D01*
X5355000Y-5502500D02*
X5325000Y-5532500D01*
X5325000Y-5765000D02*
X5355000Y-5795000D01*
X5355000Y-5765000D02*
X5325000Y-5795000D01*
X5380000Y-6100000D02*
X5410000Y-6130000D01*
X5410000Y-6100000D02*
X5380000Y-6130000D01*
X5380000Y-6355000D02*
X5410000Y-6385000D01*
X5410000Y-6355000D02*
X5380000Y-6385000D01*
X5445000Y-5645000D02*
X5475000Y-5675000D01*
X5475000Y-5645000D02*
X5445000Y-5675000D01*
X5500000Y-6100000D02*
X5530000Y-6130000D01*
X5530000Y-6100000D02*
X5500000Y-6130000D01*
X5500000Y-6355000D02*
X5530000Y-6385000D01*
X5530000Y-6355000D02*
X5500000Y-6385000D01*
X5565000Y-5645000D02*
X5595000Y-5675000D01*
X5595000Y-5645000D02*
X5565000Y-5675000D01*
X5620000Y-6230000D02*
X5650000Y-6260000D01*
X5650000Y-6230000D02*
X5620000Y-6260000D01*
X5665000Y-6475000D02*
X5695000Y-6505000D01*
X5695000Y-6475000D02*
X5665000Y-6505000D01*
X5685000Y-5502500D02*
X5715000Y-5532500D01*
X5715000Y-5502500D02*
X5685000Y-5532500D01*
X5685000Y-5765000D02*
X5715000Y-5795000D01*
X5715000Y-5765000D02*
X5685000Y-5795000D01*
X5740000Y-6100000D02*
X5770000Y-6130000D01*
X5770000Y-6100000D02*
X5740000Y-6130000D01*
X5740000Y-6355000D02*
X5770000Y-6385000D01*
X5770000Y-6355000D02*
X5740000Y-6385000D01*
X5805000Y-5502500D02*
X5835000Y-5532500D01*
X5835000Y-5502500D02*
X5805000Y-5532500D01*
X5805000Y-5765000D02*
X5835000Y-5795000D01*
X5835000Y-5765000D02*
X5805000Y-5795000D01*
X5965000Y-5990000D02*
X5995000Y-6020000D01*
X5995000Y-5990000D02*
X5965000Y-6020000D01*
X5965000Y-6230000D02*
X5995000Y-6260000D01*
X5995000Y-6230000D02*
X5965000Y-6260000D01*
X5965000Y-6350000D02*
X5995000Y-6380000D01*
X5995000Y-6350000D02*
X5965000Y-6380000D01*
X5965000Y-6470000D02*
X5995000Y-6500000D01*
X5995000Y-6470000D02*
X5965000Y-6500000D01*
X6015000Y-5285000D02*
X6045000Y-5315000D01*
X6045000Y-5285000D02*
X6015000Y-5315000D01*
X6025000Y-5670000D02*
X6055000Y-5700000D01*
X6055000Y-5670000D02*
X6025000Y-5700000D01*
X6025000Y-5840000D02*
X6055000Y-5870000D01*
X6055000Y-5840000D02*
X6025000Y-5870000D01*
X6085000Y-6110000D02*
X6115000Y-6140000D01*
X6115000Y-6110000D02*
X6085000Y-6140000D01*
X6085000Y-6230000D02*
X6115000Y-6260000D01*
X6115000Y-6230000D02*
X6085000Y-6260000D01*
X6090000Y-6835000D02*
X6120000Y-6865000D01*
X6120000Y-6835000D02*
X6090000Y-6865000D01*
X6135000Y-5165000D02*
X6165000Y-5195000D01*
X6165000Y-5165000D02*
X6135000Y-5195000D01*
X6135000Y-5405000D02*
X6165000Y-5435000D01*
X6165000Y-5405000D02*
X6135000Y-5435000D01*
X6185000Y-5750000D02*
X6215000Y-5780000D01*
X6215000Y-5750000D02*
X6185000Y-5780000D01*
X6210000Y-6835000D02*
X6240000Y-6865000D01*
X6240000Y-6835000D02*
X6210000Y-6865000D01*
X6255000Y-5285000D02*
X6285000Y-5315000D01*
X6285000Y-5285000D02*
X6255000Y-5315000D01*
X6375000Y-5165000D02*
X6405000Y-5195000D01*
X6405000Y-5165000D02*
X6375000Y-5195000D01*
X6375000Y-5405000D02*
X6405000Y-5435000D01*
X6405000Y-5405000D02*
X6375000Y-5435000D01*
X6450000Y-6835000D02*
X6480000Y-6865000D01*
X6480000Y-6835000D02*
X6450000Y-6865000D01*
X6455000Y-5600000D02*
X6485000Y-5630000D01*
X6485000Y-5600000D02*
X6455000Y-5630000D01*
X6495000Y-5285000D02*
X6525000Y-5315000D01*
X6525000Y-5285000D02*
X6495000Y-5315000D01*
X6515000Y-5675000D02*
X6545000Y-5705000D01*
X6545000Y-5675000D02*
X6515000Y-5705000D01*
X6570000Y-5815000D02*
X6600000Y-5845000D01*
X6600000Y-5815000D02*
X6570000Y-5845000D01*
X6570000Y-6835000D02*
X6600000Y-6865000D01*
X6600000Y-6835000D02*
X6570000Y-6865000D01*
X6575000Y-5600000D02*
X6605000Y-5630000D01*
X6605000Y-5600000D02*
X6575000Y-5630000D01*
X6615000Y-6410000D02*
X6645000Y-6440000D01*
X6645000Y-6410000D02*
X6615000Y-6440000D01*
X6615000Y-6650000D02*
X6645000Y-6680000D01*
X6645000Y-6650000D02*
X6615000Y-6680000D01*
X6635000Y-5675000D02*
X6665000Y-5705000D01*
X6665000Y-5675000D02*
X6635000Y-5705000D01*
X6640000Y-6125000D02*
X6670000Y-6155000D01*
X6670000Y-6125000D02*
X6640000Y-6155000D01*
X6695000Y-5600000D02*
X6725000Y-5630000D01*
X6725000Y-5600000D02*
X6695000Y-5630000D01*
X6700000Y-6245000D02*
X6730000Y-6275000D01*
X6730000Y-6245000D02*
X6700000Y-6275000D01*
X6755000Y-5675000D02*
X6785000Y-5705000D01*
X6785000Y-5675000D02*
X6755000Y-5705000D01*
X6760000Y-6410000D02*
X6790000Y-6440000D01*
X6790000Y-6410000D02*
X6760000Y-6440000D01*
X6760000Y-6650000D02*
X6790000Y-6680000D01*
X6790000Y-6650000D02*
X6760000Y-6680000D01*
X6765000Y-5815000D02*
X6795000Y-5845000D01*
X6795000Y-5815000D02*
X6765000Y-5845000D01*
X6815000Y-5600000D02*
X6845000Y-5630000D01*
X6845000Y-5600000D02*
X6815000Y-5630000D01*
X6875000Y-5675000D02*
X6905000Y-5705000D01*
X6905000Y-5675000D02*
X6875000Y-5705000D01*
X6880000Y-6125000D02*
X6910000Y-6155000D01*
X6910000Y-6125000D02*
X6880000Y-6155000D01*
X6935000Y-5600000D02*
X6965000Y-5630000D01*
X6965000Y-5600000D02*
X6935000Y-5630000D01*
X6940000Y-6245000D02*
X6970000Y-6275000D01*
X6970000Y-6245000D02*
X6940000Y-6275000D01*
X6955000Y-5815000D02*
X6985000Y-5845000D01*
X6985000Y-5815000D02*
X6955000Y-5845000D01*
X6995000Y-5675000D02*
X7025000Y-5705000D01*
X7025000Y-5675000D02*
X6995000Y-5705000D01*
X6997500Y-6057500D02*
X7027500Y-6087500D01*
X7027500Y-6057500D02*
X6997500Y-6087500D01*
X7040000Y-6835000D02*
X7070000Y-6865000D01*
X7070000Y-6835000D02*
X7040000Y-6865000D01*
X7065000Y-5600000D02*
X7095000Y-5630000D01*
X7095000Y-5600000D02*
X7065000Y-5630000D01*
X7120000Y-5675000D02*
X7150000Y-5705000D01*
X7150000Y-5675000D02*
X7120000Y-5705000D01*
X7150000Y-5770000D02*
X7180000Y-5800000D01*
X7180000Y-5770000D02*
X7150000Y-5800000D01*
X7152500Y-5910000D02*
X7182500Y-5940000D01*
X7182500Y-5910000D02*
X7152500Y-5940000D01*
X7152500Y-6000000D02*
X7182500Y-6030000D01*
X7182500Y-6000000D02*
X7152500Y-6030000D01*
X7160000Y-6835000D02*
X7190000Y-6865000D01*
X7190000Y-6835000D02*
X7160000Y-6865000D01*
X7242500Y-5797500D02*
X7272500Y-5827500D01*
X7272500Y-5797500D02*
X7242500Y-5827500D01*
X7315000Y-5797500D02*
X7345000Y-5827500D01*
X7345000Y-5797500D02*
X7315000Y-5827500D01*
X7400000Y-6835000D02*
X7430000Y-6865000D01*
X7430000Y-6835000D02*
X7400000Y-6865000D01*
X7520000Y-6835000D02*
X7550000Y-6865000D01*
X7550000Y-6835000D02*
X7520000Y-6865000D01*
X7555000Y-5110000D02*
X7585000Y-5140000D01*
X7585000Y-5110000D02*
X7555000Y-5140000D01*
X7567500Y-5987500D02*
X7597500Y-6017500D01*
X7597500Y-5987500D02*
X7567500Y-6017500D01*
X7603750Y-6180000D02*
X7633750Y-6210000D01*
X7633750Y-6180000D02*
X7603750Y-6210000D01*
X7678750Y-6065000D02*
X7708750Y-6095000D01*
X7708750Y-6065000D02*
X7678750Y-6095000D01*
X7795000Y-5110000D02*
X7825000Y-5140000D01*
X7825000Y-5110000D02*
X7795000Y-5140000D01*
X7950000Y-5465000D02*
X7980000Y-5495000D01*
X7980000Y-5465000D02*
X7950000Y-5495000D01*
X7995000Y-6635000D02*
X8025000Y-6665000D01*
X8025000Y-6635000D02*
X7995000Y-6665000D01*
X7995000Y-6835000D02*
X8025000Y-6865000D01*
X8025000Y-6835000D02*
X7995000Y-6865000D01*
X8017500Y-5250000D02*
X8047500Y-5280000D01*
X8047500Y-5250000D02*
X8017500Y-5280000D01*
X8115000Y-6635000D02*
X8145000Y-6665000D01*
X8145000Y-6635000D02*
X8115000Y-6665000D01*
X8115000Y-6835000D02*
X8145000Y-6865000D01*
X8145000Y-6835000D02*
X8115000Y-6865000D01*
X8162500Y-5110000D02*
X8192500Y-5140000D01*
X8192500Y-5110000D02*
X8162500Y-5140000D01*
X8162500Y-5390000D02*
X8192500Y-5420000D01*
X8192500Y-5390000D02*
X8162500Y-5420000D01*
X8297500Y-5250000D02*
X8327500Y-5280000D01*
X8327500Y-5250000D02*
X8297500Y-5280000D01*
X8440000Y-6635000D02*
X8470000Y-6665000D01*
X8470000Y-6635000D02*
X8440000Y-6665000D01*
X8440000Y-6835000D02*
X8470000Y-6865000D01*
X8470000Y-6835000D02*
X8440000Y-6865000D01*
X8560000Y-6635000D02*
X8590000Y-6665000D01*
X8590000Y-6635000D02*
X8560000Y-6665000D01*
X8560000Y-6835000D02*
X8590000Y-6865000D01*
X8590000Y-6835000D02*
X8560000Y-6865000D01*
X8575000Y-5110000D02*
X8605000Y-5140000D01*
X8605000Y-5110000D02*
X8575000Y-5140000D01*
X8575000Y-5390000D02*
X8605000Y-5420000D01*
X8605000Y-5390000D02*
X8575000Y-5420000D01*
X8940000Y-6477500D02*
X8970000Y-6507500D01*
X8970000Y-6477500D02*
X8940000Y-6507500D01*
X9077500Y-6477500D02*
X9107500Y-6507500D01*
X9107500Y-6477500D02*
X9077500Y-6507500D01*
X9130000Y-5375000D02*
X9160000Y-5405000D01*
X9160000Y-5375000D02*
X9130000Y-5405000D01*
X9192500Y-5710000D02*
X9222500Y-5740000D01*
X9222500Y-5710000D02*
X9192500Y-5740000D01*
X9242500Y-5160000D02*
X9272500Y-5190000D01*
X9272500Y-5160000D02*
X9242500Y-5190000D01*
X9282500Y-5920000D02*
X9312500Y-5950000D01*
X9312500Y-5920000D02*
X9282500Y-5950000D01*
X9282500Y-6160000D02*
X9312500Y-6190000D01*
X9312500Y-6160000D02*
X9282500Y-6190000D01*
X9310000Y-6787500D02*
X9340000Y-6817500D01*
X9340000Y-6787500D02*
X9310000Y-6817500D01*
X9460000Y-5160000D02*
X9490000Y-5190000D01*
X9490000Y-5160000D02*
X9460000Y-5190000D01*
X9580000Y-5160000D02*
X9610000Y-5190000D01*
X9610000Y-5160000D02*
X9580000Y-5190000D01*
X9725000Y-6787500D02*
X9755000Y-6817500D01*
X9755000Y-6787500D02*
X9725000Y-6817500D01*
X9785000Y-5920000D02*
X9815000Y-5950000D01*
X9815000Y-5920000D02*
X9785000Y-5950000D01*
X9785000Y-6160000D02*
X9815000Y-6190000D01*
X9815000Y-6160000D02*
X9785000Y-6190000D01*
X9855000Y-5650000D02*
X9885000Y-5680000D01*
X9885000Y-5650000D02*
X9855000Y-5680000D01*
X6665000Y-5185000D02*
G75*
G02*
X6625000Y-5185000I-20000J0D01*
G01*
X6625000Y-5185000D02*
G75*
G02*
X6665000Y-5185000I20000J0D01*
G01*
X7015000Y-5465000D02*
G75*
G02*
X6975000Y-5465000I-20000J0D01*
G01*
X6975000Y-5465000D02*
G75*
G02*
X7015000Y-5465000I20000J0D01*
G01*
X7053750Y-5191250D02*
G75*
G02*
X7013750Y-5191250I-20000J0D01*
G01*
X7013750Y-5191250D02*
G75*
G02*
X7053750Y-5191250I20000J0D01*
G01*
X7278750Y-5345000D02*
G75*
G02*
X7238750Y-5345000I-20000J0D01*
G01*
X7238750Y-5345000D02*
G75*
G02*
X7278750Y-5345000I20000J0D01*
G01*
X7305000Y-6295000D02*
G75*
G02*
X7265000Y-6295000I-20000J0D01*
G01*
X7265000Y-6295000D02*
G75*
G02*
X7305000Y-6295000I20000J0D01*
G01*
X7448750Y-5583750D02*
G75*
G02*
X7408750Y-5583750I-20000J0D01*
G01*
X7408750Y-5583750D02*
G75*
G02*
X7448750Y-5583750I20000J0D01*
G01*
X7693750Y-5505000D02*
G75*
G02*
X7653750Y-5505000I-20000J0D01*
G01*
X7653750Y-5505000D02*
G75*
G02*
X7693750Y-5505000I20000J0D01*
G01*
X7723750Y-6570000D02*
G75*
G02*
X7683750Y-6570000I-20000J0D01*
G01*
X7683750Y-6570000D02*
G75*
G02*
X7723750Y-6570000I20000J0D01*
G01*
X9085000Y-6750000D02*
G75*
G02*
X9045000Y-6750000I-20000J0D01*
G01*
X9045000Y-6750000D02*
G75*
G02*
X9085000Y-6750000I20000J0D01*
G01*
X6131750Y-6404000D02*
X6131750Y-6484000D01*
X6091750Y-6444000D02*
X6171750Y-6444000D01*
X6381750Y-6404000D02*
X6381750Y-6484000D01*
X6341750Y-6444000D02*
X6421750Y-6444000D01*
X5375106Y-5248356D02*
X5375106Y-5177644D01*
X5304394Y-5177644D01*
X5304394Y-5248356D01*
X5375106Y-5248356D01*
X5375106Y-6772356D02*
X5375106Y-6701644D01*
X5304394Y-6701644D01*
X5304394Y-6772356D01*
X5375106Y-6772356D01*
X5629106Y-5248356D02*
X5629106Y-5177644D01*
X5558394Y-5177644D01*
X5558394Y-5248356D01*
X5629106Y-5248356D01*
X5629106Y-6772356D02*
X5629106Y-6701644D01*
X5558394Y-6701644D01*
X5558394Y-6772356D01*
X5629106Y-6772356D01*
X9439106Y-5502356D02*
X9439106Y-5431644D01*
X9368394Y-5431644D01*
X9368394Y-5502356D01*
X9439106Y-5502356D01*
X9439106Y-6518356D02*
X9439106Y-6447644D01*
X9368394Y-6447644D01*
X9368394Y-6518356D01*
X9439106Y-6518356D01*
X9693106Y-5502356D02*
X9693106Y-5431644D01*
X9622394Y-5431644D01*
X9622394Y-5502356D01*
X9693106Y-5502356D01*
X9693106Y-6518356D02*
X9693106Y-6447644D01*
X9622394Y-6447644D01*
X9622394Y-6518356D01*
X9693106Y-6518356D01*
D11*
X5258277Y-7313984D02*
X5258277Y-7113984D01*
X5258277Y-7113984D02*
X5305896Y-7113984D01*
X5305896Y-7113984D02*
X5334467Y-7123508D01*
X5334467Y-7123508D02*
X5353515Y-7142555D01*
X5353515Y-7142555D02*
X5363039Y-7161603D01*
X5363039Y-7161603D02*
X5372563Y-7199698D01*
X5372563Y-7199698D02*
X5372563Y-7228269D01*
X5372563Y-7228269D02*
X5363039Y-7266365D01*
X5363039Y-7266365D02*
X5353515Y-7285412D01*
X5353515Y-7285412D02*
X5334467Y-7304460D01*
X5334467Y-7304460D02*
X5305896Y-7313984D01*
X5305896Y-7313984D02*
X5258277Y-7313984D01*
X5458277Y-7313984D02*
X5458277Y-7180650D01*
X5458277Y-7218746D02*
X5467801Y-7199698D01*
X5467801Y-7199698D02*
X5477324Y-7190174D01*
X5477324Y-7190174D02*
X5496372Y-7180650D01*
X5496372Y-7180650D02*
X5515420Y-7180650D01*
X5582086Y-7313984D02*
X5582086Y-7180650D01*
X5582086Y-7113984D02*
X5572563Y-7123508D01*
X5572563Y-7123508D02*
X5582086Y-7133031D01*
X5582086Y-7133031D02*
X5591610Y-7123508D01*
X5591610Y-7123508D02*
X5582086Y-7113984D01*
X5582086Y-7113984D02*
X5582086Y-7133031D01*
X5705896Y-7313984D02*
X5686848Y-7304460D01*
X5686848Y-7304460D02*
X5677324Y-7285412D01*
X5677324Y-7285412D02*
X5677324Y-7113984D01*
X5810658Y-7313984D02*
X5791610Y-7304460D01*
X5791610Y-7304460D02*
X5782086Y-7285412D01*
X5782086Y-7285412D02*
X5782086Y-7113984D01*
X6039229Y-7313984D02*
X6039229Y-7113984D01*
X6039229Y-7113984D02*
X6105896Y-7256841D01*
X6105896Y-7256841D02*
X6172562Y-7113984D01*
X6172562Y-7113984D02*
X6172562Y-7313984D01*
X6353515Y-7313984D02*
X6353515Y-7209222D01*
X6353515Y-7209222D02*
X6343991Y-7190174D01*
X6343991Y-7190174D02*
X6324943Y-7180650D01*
X6324943Y-7180650D02*
X6286848Y-7180650D01*
X6286848Y-7180650D02*
X6267801Y-7190174D01*
X6353515Y-7304460D02*
X6334467Y-7313984D01*
X6334467Y-7313984D02*
X6286848Y-7313984D01*
X6286848Y-7313984D02*
X6267801Y-7304460D01*
X6267801Y-7304460D02*
X6258277Y-7285412D01*
X6258277Y-7285412D02*
X6258277Y-7266365D01*
X6258277Y-7266365D02*
X6267801Y-7247317D01*
X6267801Y-7247317D02*
X6286848Y-7237793D01*
X6286848Y-7237793D02*
X6334467Y-7237793D01*
X6334467Y-7237793D02*
X6353515Y-7228269D01*
X6448753Y-7180650D02*
X6448753Y-7380650D01*
X6448753Y-7190174D02*
X6467801Y-7180650D01*
X6467801Y-7180650D02*
X6505896Y-7180650D01*
X6505896Y-7180650D02*
X6524943Y-7190174D01*
X6524943Y-7190174D02*
X6534467Y-7199698D01*
X6534467Y-7199698D02*
X6543991Y-7218746D01*
X6543991Y-7218746D02*
X6543991Y-7275888D01*
X6543991Y-7275888D02*
X6534467Y-7294936D01*
X6534467Y-7294936D02*
X6524943Y-7304460D01*
X6524943Y-7304460D02*
X6505896Y-7313984D01*
X6505896Y-7313984D02*
X6467801Y-7313984D01*
X6467801Y-7313984D02*
X6448753Y-7304460D01*
X6629705Y-7294936D02*
X6639229Y-7304460D01*
X6639229Y-7304460D02*
X6629705Y-7313984D01*
X6629705Y-7313984D02*
X6620182Y-7304460D01*
X6620182Y-7304460D02*
X6629705Y-7294936D01*
X6629705Y-7294936D02*
X6629705Y-7313984D01*
X6629705Y-7190174D02*
X6639229Y-7199698D01*
X6639229Y-7199698D02*
X6629705Y-7209222D01*
X6629705Y-7209222D02*
X6620182Y-7199698D01*
X6620182Y-7199698D02*
X6629705Y-7190174D01*
X6629705Y-7190174D02*
X6629705Y-7209222D01*
D12*
X4967500Y-7627500D02*
X4997500Y-7657500D01*
X4997500Y-7627500D02*
X4967500Y-7657500D01*
D11*
X5296372Y-7533984D02*
X5315420Y-7533984D01*
X5315420Y-7533984D02*
X5334467Y-7543508D01*
X5334467Y-7543508D02*
X5343991Y-7553031D01*
X5343991Y-7553031D02*
X5353515Y-7572079D01*
X5353515Y-7572079D02*
X5363039Y-7610174D01*
X5363039Y-7610174D02*
X5363039Y-7657793D01*
X5363039Y-7657793D02*
X5353515Y-7695888D01*
X5353515Y-7695888D02*
X5343991Y-7714936D01*
X5343991Y-7714936D02*
X5334467Y-7724460D01*
X5334467Y-7724460D02*
X5315420Y-7733984D01*
X5315420Y-7733984D02*
X5296372Y-7733984D01*
X5296372Y-7733984D02*
X5277324Y-7724460D01*
X5277324Y-7724460D02*
X5267801Y-7714936D01*
X5267801Y-7714936D02*
X5258277Y-7695888D01*
X5258277Y-7695888D02*
X5248753Y-7657793D01*
X5248753Y-7657793D02*
X5248753Y-7610174D01*
X5248753Y-7610174D02*
X5258277Y-7572079D01*
X5258277Y-7572079D02*
X5267801Y-7553031D01*
X5267801Y-7553031D02*
X5277324Y-7543508D01*
X5277324Y-7543508D02*
X5296372Y-7533984D01*
X5448753Y-7714936D02*
X5458277Y-7724460D01*
X5458277Y-7724460D02*
X5448753Y-7733984D01*
X5448753Y-7733984D02*
X5439229Y-7724460D01*
X5439229Y-7724460D02*
X5448753Y-7714936D01*
X5448753Y-7714936D02*
X5448753Y-7733984D01*
X5524944Y-7533984D02*
X5648753Y-7533984D01*
X5648753Y-7533984D02*
X5582086Y-7610174D01*
X5582086Y-7610174D02*
X5610658Y-7610174D01*
X5610658Y-7610174D02*
X5629705Y-7619698D01*
X5629705Y-7619698D02*
X5639229Y-7629222D01*
X5639229Y-7629222D02*
X5648753Y-7648269D01*
X5648753Y-7648269D02*
X5648753Y-7695888D01*
X5648753Y-7695888D02*
X5639229Y-7714936D01*
X5639229Y-7714936D02*
X5629705Y-7724460D01*
X5629705Y-7724460D02*
X5610658Y-7733984D01*
X5610658Y-7733984D02*
X5553515Y-7733984D01*
X5553515Y-7733984D02*
X5534467Y-7724460D01*
X5534467Y-7724460D02*
X5524944Y-7714936D01*
X5772562Y-7533984D02*
X5791610Y-7533984D01*
X5791610Y-7533984D02*
X5810658Y-7543508D01*
X5810658Y-7543508D02*
X5820182Y-7553031D01*
X5820182Y-7553031D02*
X5829705Y-7572079D01*
X5829705Y-7572079D02*
X5839229Y-7610174D01*
X5839229Y-7610174D02*
X5839229Y-7657793D01*
X5839229Y-7657793D02*
X5829705Y-7695888D01*
X5829705Y-7695888D02*
X5820182Y-7714936D01*
X5820182Y-7714936D02*
X5810658Y-7724460D01*
X5810658Y-7724460D02*
X5791610Y-7733984D01*
X5791610Y-7733984D02*
X5772562Y-7733984D01*
X5772562Y-7733984D02*
X5753515Y-7724460D01*
X5753515Y-7724460D02*
X5743991Y-7714936D01*
X5743991Y-7714936D02*
X5734467Y-7695888D01*
X5734467Y-7695888D02*
X5724943Y-7657793D01*
X5724943Y-7657793D02*
X5724943Y-7610174D01*
X5724943Y-7610174D02*
X5734467Y-7572079D01*
X5734467Y-7572079D02*
X5743991Y-7553031D01*
X5743991Y-7553031D02*
X5753515Y-7543508D01*
X5753515Y-7543508D02*
X5772562Y-7533984D01*
X5963039Y-7533984D02*
X5982086Y-7533984D01*
X5982086Y-7533984D02*
X6001134Y-7543508D01*
X6001134Y-7543508D02*
X6010658Y-7553031D01*
X6010658Y-7553031D02*
X6020182Y-7572079D01*
X6020182Y-7572079D02*
X6029705Y-7610174D01*
X6029705Y-7610174D02*
X6029705Y-7657793D01*
X6029705Y-7657793D02*
X6020182Y-7695888D01*
X6020182Y-7695888D02*
X6010658Y-7714936D01*
X6010658Y-7714936D02*
X6001134Y-7724460D01*
X6001134Y-7724460D02*
X5982086Y-7733984D01*
X5982086Y-7733984D02*
X5963039Y-7733984D01*
X5963039Y-7733984D02*
X5943991Y-7724460D01*
X5943991Y-7724460D02*
X5934467Y-7714936D01*
X5934467Y-7714936D02*
X5924943Y-7695888D01*
X5924943Y-7695888D02*
X5915420Y-7657793D01*
X5915420Y-7657793D02*
X5915420Y-7610174D01*
X5915420Y-7610174D02*
X5924943Y-7572079D01*
X5924943Y-7572079D02*
X5934467Y-7553031D01*
X5934467Y-7553031D02*
X5943991Y-7543508D01*
X5943991Y-7543508D02*
X5963039Y-7533984D01*
X6115420Y-7733984D02*
X6115420Y-7600650D01*
X6115420Y-7619698D02*
X6124943Y-7610174D01*
X6124943Y-7610174D02*
X6143991Y-7600650D01*
X6143991Y-7600650D02*
X6172563Y-7600650D01*
X6172563Y-7600650D02*
X6191610Y-7610174D01*
X6191610Y-7610174D02*
X6201134Y-7629222D01*
X6201134Y-7629222D02*
X6201134Y-7733984D01*
X6201134Y-7629222D02*
X6210658Y-7610174D01*
X6210658Y-7610174D02*
X6229705Y-7600650D01*
X6229705Y-7600650D02*
X6258277Y-7600650D01*
X6258277Y-7600650D02*
X6277324Y-7610174D01*
X6277324Y-7610174D02*
X6286848Y-7629222D01*
X6286848Y-7629222D02*
X6286848Y-7733984D01*
X6382086Y-7733984D02*
X6382086Y-7600650D01*
X6382086Y-7619698D02*
X6391610Y-7610174D01*
X6391610Y-7610174D02*
X6410658Y-7600650D01*
X6410658Y-7600650D02*
X6439229Y-7600650D01*
X6439229Y-7600650D02*
X6458277Y-7610174D01*
X6458277Y-7610174D02*
X6467801Y-7629222D01*
X6467801Y-7629222D02*
X6467801Y-7733984D01*
X6467801Y-7629222D02*
X6477324Y-7610174D01*
X6477324Y-7610174D02*
X6496372Y-7600650D01*
X6496372Y-7600650D02*
X6524943Y-7600650D01*
X6524943Y-7600650D02*
X6543991Y-7610174D01*
X6543991Y-7610174D02*
X6553515Y-7629222D01*
X6553515Y-7629222D02*
X6553515Y-7733984D01*
X6943991Y-7524460D02*
X6772563Y-7781603D01*
X7201134Y-7533984D02*
X7220182Y-7533984D01*
X7220182Y-7533984D02*
X7239229Y-7543508D01*
X7239229Y-7543508D02*
X7248753Y-7553031D01*
X7248753Y-7553031D02*
X7258277Y-7572079D01*
X7258277Y-7572079D02*
X7267801Y-7610174D01*
X7267801Y-7610174D02*
X7267801Y-7657793D01*
X7267801Y-7657793D02*
X7258277Y-7695888D01*
X7258277Y-7695888D02*
X7248753Y-7714936D01*
X7248753Y-7714936D02*
X7239229Y-7724460D01*
X7239229Y-7724460D02*
X7220182Y-7733984D01*
X7220182Y-7733984D02*
X7201134Y-7733984D01*
X7201134Y-7733984D02*
X7182086Y-7724460D01*
X7182086Y-7724460D02*
X7172563Y-7714936D01*
X7172563Y-7714936D02*
X7163039Y-7695888D01*
X7163039Y-7695888D02*
X7153515Y-7657793D01*
X7153515Y-7657793D02*
X7153515Y-7610174D01*
X7153515Y-7610174D02*
X7163039Y-7572079D01*
X7163039Y-7572079D02*
X7172563Y-7553031D01*
X7172563Y-7553031D02*
X7182086Y-7543508D01*
X7182086Y-7543508D02*
X7201134Y-7533984D01*
X7353515Y-7714936D02*
X7363039Y-7724460D01*
X7363039Y-7724460D02*
X7353515Y-7733984D01*
X7353515Y-7733984D02*
X7343991Y-7724460D01*
X7343991Y-7724460D02*
X7353515Y-7714936D01*
X7353515Y-7714936D02*
X7353515Y-7733984D01*
X7486848Y-7533984D02*
X7505896Y-7533984D01*
X7505896Y-7533984D02*
X7524944Y-7543508D01*
X7524944Y-7543508D02*
X7534467Y-7553031D01*
X7534467Y-7553031D02*
X7543991Y-7572079D01*
X7543991Y-7572079D02*
X7553515Y-7610174D01*
X7553515Y-7610174D02*
X7553515Y-7657793D01*
X7553515Y-7657793D02*
X7543991Y-7695888D01*
X7543991Y-7695888D02*
X7534467Y-7714936D01*
X7534467Y-7714936D02*
X7524944Y-7724460D01*
X7524944Y-7724460D02*
X7505896Y-7733984D01*
X7505896Y-7733984D02*
X7486848Y-7733984D01*
X7486848Y-7733984D02*
X7467801Y-7724460D01*
X7467801Y-7724460D02*
X7458277Y-7714936D01*
X7458277Y-7714936D02*
X7448753Y-7695888D01*
X7448753Y-7695888D02*
X7439229Y-7657793D01*
X7439229Y-7657793D02*
X7439229Y-7610174D01*
X7439229Y-7610174D02*
X7448753Y-7572079D01*
X7448753Y-7572079D02*
X7458277Y-7553031D01*
X7458277Y-7553031D02*
X7467801Y-7543508D01*
X7467801Y-7543508D02*
X7486848Y-7533984D01*
X7743991Y-7733984D02*
X7629706Y-7733984D01*
X7686848Y-7733984D02*
X7686848Y-7533984D01*
X7686848Y-7533984D02*
X7667801Y-7562555D01*
X7667801Y-7562555D02*
X7648753Y-7581603D01*
X7648753Y-7581603D02*
X7629706Y-7591127D01*
X7934467Y-7733984D02*
X7820182Y-7733984D01*
X7877325Y-7733984D02*
X7877325Y-7533984D01*
X7877325Y-7533984D02*
X7858277Y-7562555D01*
X7858277Y-7562555D02*
X7839229Y-7581603D01*
X7839229Y-7581603D02*
X7820182Y-7591127D01*
X8048753Y-7619698D02*
X8029706Y-7610174D01*
X8029706Y-7610174D02*
X8020182Y-7600650D01*
X8020182Y-7600650D02*
X8010658Y-7581603D01*
X8010658Y-7581603D02*
X8010658Y-7572079D01*
X8010658Y-7572079D02*
X8020182Y-7553031D01*
X8020182Y-7553031D02*
X8029706Y-7543508D01*
X8029706Y-7543508D02*
X8048753Y-7533984D01*
X8048753Y-7533984D02*
X8086848Y-7533984D01*
X8086848Y-7533984D02*
X8105896Y-7543508D01*
X8105896Y-7543508D02*
X8115420Y-7553031D01*
X8115420Y-7553031D02*
X8124944Y-7572079D01*
X8124944Y-7572079D02*
X8124944Y-7581603D01*
X8124944Y-7581603D02*
X8115420Y-7600650D01*
X8115420Y-7600650D02*
X8105896Y-7610174D01*
X8105896Y-7610174D02*
X8086848Y-7619698D01*
X8086848Y-7619698D02*
X8048753Y-7619698D01*
X8048753Y-7619698D02*
X8029706Y-7629222D01*
X8029706Y-7629222D02*
X8020182Y-7638746D01*
X8020182Y-7638746D02*
X8010658Y-7657793D01*
X8010658Y-7657793D02*
X8010658Y-7695888D01*
X8010658Y-7695888D02*
X8020182Y-7714936D01*
X8020182Y-7714936D02*
X8029706Y-7724460D01*
X8029706Y-7724460D02*
X8048753Y-7733984D01*
X8048753Y-7733984D02*
X8086848Y-7733984D01*
X8086848Y-7733984D02*
X8105896Y-7724460D01*
X8105896Y-7724460D02*
X8115420Y-7714936D01*
X8115420Y-7714936D02*
X8124944Y-7695888D01*
X8124944Y-7695888D02*
X8124944Y-7657793D01*
X8124944Y-7657793D02*
X8115420Y-7638746D01*
X8115420Y-7638746D02*
X8105896Y-7629222D01*
X8105896Y-7629222D02*
X8086848Y-7619698D01*
X8201134Y-7533984D02*
X8201134Y-7572079D01*
X8277325Y-7533984D02*
X8277325Y-7572079D01*
X8572563Y-7810174D02*
X8563039Y-7800650D01*
X8563039Y-7800650D02*
X8543991Y-7772079D01*
X8543991Y-7772079D02*
X8534468Y-7753031D01*
X8534468Y-7753031D02*
X8524944Y-7724460D01*
X8524944Y-7724460D02*
X8515420Y-7676841D01*
X8515420Y-7676841D02*
X8515420Y-7638746D01*
X8515420Y-7638746D02*
X8524944Y-7591127D01*
X8524944Y-7591127D02*
X8534468Y-7562555D01*
X8534468Y-7562555D02*
X8543991Y-7543508D01*
X8543991Y-7543508D02*
X8563039Y-7514936D01*
X8563039Y-7514936D02*
X8572563Y-7505412D01*
X8753515Y-7733984D02*
X8639230Y-7733984D01*
X8696372Y-7733984D02*
X8696372Y-7533984D01*
X8696372Y-7533984D02*
X8677325Y-7562555D01*
X8677325Y-7562555D02*
X8658277Y-7581603D01*
X8658277Y-7581603D02*
X8639230Y-7591127D01*
X8877325Y-7533984D02*
X8896372Y-7533984D01*
X8896372Y-7533984D02*
X8915420Y-7543508D01*
X8915420Y-7543508D02*
X8924944Y-7553031D01*
X8924944Y-7553031D02*
X8934468Y-7572079D01*
X8934468Y-7572079D02*
X8943991Y-7610174D01*
X8943991Y-7610174D02*
X8943991Y-7657793D01*
X8943991Y-7657793D02*
X8934468Y-7695888D01*
X8934468Y-7695888D02*
X8924944Y-7714936D01*
X8924944Y-7714936D02*
X8915420Y-7724460D01*
X8915420Y-7724460D02*
X8896372Y-7733984D01*
X8896372Y-7733984D02*
X8877325Y-7733984D01*
X8877325Y-7733984D02*
X8858277Y-7724460D01*
X8858277Y-7724460D02*
X8848753Y-7714936D01*
X8848753Y-7714936D02*
X8839230Y-7695888D01*
X8839230Y-7695888D02*
X8829706Y-7657793D01*
X8829706Y-7657793D02*
X8829706Y-7610174D01*
X8829706Y-7610174D02*
X8839230Y-7572079D01*
X8839230Y-7572079D02*
X8848753Y-7553031D01*
X8848753Y-7553031D02*
X8858277Y-7543508D01*
X8858277Y-7543508D02*
X8877325Y-7533984D01*
X9039230Y-7733984D02*
X9077325Y-7733984D01*
X9077325Y-7733984D02*
X9096372Y-7724460D01*
X9096372Y-7724460D02*
X9105896Y-7714936D01*
X9105896Y-7714936D02*
X9124944Y-7686365D01*
X9124944Y-7686365D02*
X9134468Y-7648269D01*
X9134468Y-7648269D02*
X9134468Y-7572079D01*
X9134468Y-7572079D02*
X9124944Y-7553031D01*
X9124944Y-7553031D02*
X9115420Y-7543508D01*
X9115420Y-7543508D02*
X9096372Y-7533984D01*
X9096372Y-7533984D02*
X9058277Y-7533984D01*
X9058277Y-7533984D02*
X9039230Y-7543508D01*
X9039230Y-7543508D02*
X9029706Y-7553031D01*
X9029706Y-7553031D02*
X9020182Y-7572079D01*
X9020182Y-7572079D02*
X9020182Y-7619698D01*
X9020182Y-7619698D02*
X9029706Y-7638746D01*
X9029706Y-7638746D02*
X9039230Y-7648269D01*
X9039230Y-7648269D02*
X9058277Y-7657793D01*
X9058277Y-7657793D02*
X9096372Y-7657793D01*
X9096372Y-7657793D02*
X9115420Y-7648269D01*
X9115420Y-7648269D02*
X9124944Y-7638746D01*
X9124944Y-7638746D02*
X9134468Y-7619698D01*
X9372563Y-7733984D02*
X9372563Y-7533984D01*
X9458277Y-7733984D02*
X9458277Y-7629222D01*
X9458277Y-7629222D02*
X9448753Y-7610174D01*
X9448753Y-7610174D02*
X9429706Y-7600650D01*
X9429706Y-7600650D02*
X9401134Y-7600650D01*
X9401134Y-7600650D02*
X9382087Y-7610174D01*
X9382087Y-7610174D02*
X9372563Y-7619698D01*
X9582087Y-7733984D02*
X9563039Y-7724460D01*
X9563039Y-7724460D02*
X9553515Y-7714936D01*
X9553515Y-7714936D02*
X9543992Y-7695888D01*
X9543992Y-7695888D02*
X9543992Y-7638746D01*
X9543992Y-7638746D02*
X9553515Y-7619698D01*
X9553515Y-7619698D02*
X9563039Y-7610174D01*
X9563039Y-7610174D02*
X9582087Y-7600650D01*
X9582087Y-7600650D02*
X9610658Y-7600650D01*
X9610658Y-7600650D02*
X9629706Y-7610174D01*
X9629706Y-7610174D02*
X9639230Y-7619698D01*
X9639230Y-7619698D02*
X9648753Y-7638746D01*
X9648753Y-7638746D02*
X9648753Y-7695888D01*
X9648753Y-7695888D02*
X9639230Y-7714936D01*
X9639230Y-7714936D02*
X9629706Y-7724460D01*
X9629706Y-7724460D02*
X9610658Y-7733984D01*
X9610658Y-7733984D02*
X9582087Y-7733984D01*
X9763039Y-7733984D02*
X9743992Y-7724460D01*
X9743992Y-7724460D02*
X9734468Y-7705412D01*
X9734468Y-7705412D02*
X9734468Y-7533984D01*
X9915420Y-7724460D02*
X9896373Y-7733984D01*
X9896373Y-7733984D02*
X9858277Y-7733984D01*
X9858277Y-7733984D02*
X9839230Y-7724460D01*
X9839230Y-7724460D02*
X9829706Y-7705412D01*
X9829706Y-7705412D02*
X9829706Y-7629222D01*
X9829706Y-7629222D02*
X9839230Y-7610174D01*
X9839230Y-7610174D02*
X9858277Y-7600650D01*
X9858277Y-7600650D02*
X9896373Y-7600650D01*
X9896373Y-7600650D02*
X9915420Y-7610174D01*
X9915420Y-7610174D02*
X9924944Y-7629222D01*
X9924944Y-7629222D02*
X9924944Y-7648269D01*
X9924944Y-7648269D02*
X9829706Y-7667317D01*
X10001134Y-7724460D02*
X10020182Y-7733984D01*
X10020182Y-7733984D02*
X10058277Y-7733984D01*
X10058277Y-7733984D02*
X10077325Y-7724460D01*
X10077325Y-7724460D02*
X10086849Y-7705412D01*
X10086849Y-7705412D02*
X10086849Y-7695888D01*
X10086849Y-7695888D02*
X10077325Y-7676841D01*
X10077325Y-7676841D02*
X10058277Y-7667317D01*
X10058277Y-7667317D02*
X10029706Y-7667317D01*
X10029706Y-7667317D02*
X10010658Y-7657793D01*
X10010658Y-7657793D02*
X10001134Y-7638746D01*
X10001134Y-7638746D02*
X10001134Y-7629222D01*
X10001134Y-7629222D02*
X10010658Y-7610174D01*
X10010658Y-7610174D02*
X10029706Y-7600650D01*
X10029706Y-7600650D02*
X10058277Y-7600650D01*
X10058277Y-7600650D02*
X10077325Y-7610174D01*
X10153515Y-7810174D02*
X10163039Y-7800650D01*
X10163039Y-7800650D02*
X10182087Y-7772079D01*
X10182087Y-7772079D02*
X10191611Y-7753031D01*
X10191611Y-7753031D02*
X10201134Y-7724460D01*
X10201134Y-7724460D02*
X10210658Y-7676841D01*
X10210658Y-7676841D02*
X10210658Y-7638746D01*
X10210658Y-7638746D02*
X10201134Y-7591127D01*
X10201134Y-7591127D02*
X10191611Y-7562555D01*
X10191611Y-7562555D02*
X10182087Y-7543508D01*
X10182087Y-7543508D02*
X10163039Y-7514936D01*
X10163039Y-7514936D02*
X10153515Y-7505412D01*
D12*
X4997500Y-7906500D02*
G75*
G02*
X4957500Y-7906500I-20000J0D01*
G01*
X4957500Y-7906500D02*
G75*
G02*
X4997500Y-7906500I20000J0D01*
G01*
D11*
X5296372Y-7797984D02*
X5315420Y-7797984D01*
X5315420Y-7797984D02*
X5334467Y-7807508D01*
X5334467Y-7807508D02*
X5343991Y-7817031D01*
X5343991Y-7817031D02*
X5353515Y-7836079D01*
X5353515Y-7836079D02*
X5363039Y-7874174D01*
X5363039Y-7874174D02*
X5363039Y-7921793D01*
X5363039Y-7921793D02*
X5353515Y-7959888D01*
X5353515Y-7959888D02*
X5343991Y-7978936D01*
X5343991Y-7978936D02*
X5334467Y-7988460D01*
X5334467Y-7988460D02*
X5315420Y-7997984D01*
X5315420Y-7997984D02*
X5296372Y-7997984D01*
X5296372Y-7997984D02*
X5277324Y-7988460D01*
X5277324Y-7988460D02*
X5267801Y-7978936D01*
X5267801Y-7978936D02*
X5258277Y-7959888D01*
X5258277Y-7959888D02*
X5248753Y-7921793D01*
X5248753Y-7921793D02*
X5248753Y-7874174D01*
X5248753Y-7874174D02*
X5258277Y-7836079D01*
X5258277Y-7836079D02*
X5267801Y-7817031D01*
X5267801Y-7817031D02*
X5277324Y-7807508D01*
X5277324Y-7807508D02*
X5296372Y-7797984D01*
X5448753Y-7978936D02*
X5458277Y-7988460D01*
X5458277Y-7988460D02*
X5448753Y-7997984D01*
X5448753Y-7997984D02*
X5439229Y-7988460D01*
X5439229Y-7988460D02*
X5448753Y-7978936D01*
X5448753Y-7978936D02*
X5448753Y-7997984D01*
X5629705Y-7864650D02*
X5629705Y-7997984D01*
X5582086Y-7788460D02*
X5534467Y-7931317D01*
X5534467Y-7931317D02*
X5658277Y-7931317D01*
X5772562Y-7797984D02*
X5791610Y-7797984D01*
X5791610Y-7797984D02*
X5810658Y-7807508D01*
X5810658Y-7807508D02*
X5820182Y-7817031D01*
X5820182Y-7817031D02*
X5829705Y-7836079D01*
X5829705Y-7836079D02*
X5839229Y-7874174D01*
X5839229Y-7874174D02*
X5839229Y-7921793D01*
X5839229Y-7921793D02*
X5829705Y-7959888D01*
X5829705Y-7959888D02*
X5820182Y-7978936D01*
X5820182Y-7978936D02*
X5810658Y-7988460D01*
X5810658Y-7988460D02*
X5791610Y-7997984D01*
X5791610Y-7997984D02*
X5772562Y-7997984D01*
X5772562Y-7997984D02*
X5753515Y-7988460D01*
X5753515Y-7988460D02*
X5743991Y-7978936D01*
X5743991Y-7978936D02*
X5734467Y-7959888D01*
X5734467Y-7959888D02*
X5724943Y-7921793D01*
X5724943Y-7921793D02*
X5724943Y-7874174D01*
X5724943Y-7874174D02*
X5734467Y-7836079D01*
X5734467Y-7836079D02*
X5743991Y-7817031D01*
X5743991Y-7817031D02*
X5753515Y-7807508D01*
X5753515Y-7807508D02*
X5772562Y-7797984D01*
X5963039Y-7797984D02*
X5982086Y-7797984D01*
X5982086Y-7797984D02*
X6001134Y-7807508D01*
X6001134Y-7807508D02*
X6010658Y-7817031D01*
X6010658Y-7817031D02*
X6020182Y-7836079D01*
X6020182Y-7836079D02*
X6029705Y-7874174D01*
X6029705Y-7874174D02*
X6029705Y-7921793D01*
X6029705Y-7921793D02*
X6020182Y-7959888D01*
X6020182Y-7959888D02*
X6010658Y-7978936D01*
X6010658Y-7978936D02*
X6001134Y-7988460D01*
X6001134Y-7988460D02*
X5982086Y-7997984D01*
X5982086Y-7997984D02*
X5963039Y-7997984D01*
X5963039Y-7997984D02*
X5943991Y-7988460D01*
X5943991Y-7988460D02*
X5934467Y-7978936D01*
X5934467Y-7978936D02*
X5924943Y-7959888D01*
X5924943Y-7959888D02*
X5915420Y-7921793D01*
X5915420Y-7921793D02*
X5915420Y-7874174D01*
X5915420Y-7874174D02*
X5924943Y-7836079D01*
X5924943Y-7836079D02*
X5934467Y-7817031D01*
X5934467Y-7817031D02*
X5943991Y-7807508D01*
X5943991Y-7807508D02*
X5963039Y-7797984D01*
X6115420Y-7997984D02*
X6115420Y-7864650D01*
X6115420Y-7883698D02*
X6124943Y-7874174D01*
X6124943Y-7874174D02*
X6143991Y-7864650D01*
X6143991Y-7864650D02*
X6172563Y-7864650D01*
X6172563Y-7864650D02*
X6191610Y-7874174D01*
X6191610Y-7874174D02*
X6201134Y-7893222D01*
X6201134Y-7893222D02*
X6201134Y-7997984D01*
X6201134Y-7893222D02*
X6210658Y-7874174D01*
X6210658Y-7874174D02*
X6229705Y-7864650D01*
X6229705Y-7864650D02*
X6258277Y-7864650D01*
X6258277Y-7864650D02*
X6277324Y-7874174D01*
X6277324Y-7874174D02*
X6286848Y-7893222D01*
X6286848Y-7893222D02*
X6286848Y-7997984D01*
X6382086Y-7997984D02*
X6382086Y-7864650D01*
X6382086Y-7883698D02*
X6391610Y-7874174D01*
X6391610Y-7874174D02*
X6410658Y-7864650D01*
X6410658Y-7864650D02*
X6439229Y-7864650D01*
X6439229Y-7864650D02*
X6458277Y-7874174D01*
X6458277Y-7874174D02*
X6467801Y-7893222D01*
X6467801Y-7893222D02*
X6467801Y-7997984D01*
X6467801Y-7893222D02*
X6477324Y-7874174D01*
X6477324Y-7874174D02*
X6496372Y-7864650D01*
X6496372Y-7864650D02*
X6524943Y-7864650D01*
X6524943Y-7864650D02*
X6543991Y-7874174D01*
X6543991Y-7874174D02*
X6553515Y-7893222D01*
X6553515Y-7893222D02*
X6553515Y-7997984D01*
X6943991Y-7788460D02*
X6772563Y-8045603D01*
X7201134Y-7797984D02*
X7220182Y-7797984D01*
X7220182Y-7797984D02*
X7239229Y-7807508D01*
X7239229Y-7807508D02*
X7248753Y-7817031D01*
X7248753Y-7817031D02*
X7258277Y-7836079D01*
X7258277Y-7836079D02*
X7267801Y-7874174D01*
X7267801Y-7874174D02*
X7267801Y-7921793D01*
X7267801Y-7921793D02*
X7258277Y-7959888D01*
X7258277Y-7959888D02*
X7248753Y-7978936D01*
X7248753Y-7978936D02*
X7239229Y-7988460D01*
X7239229Y-7988460D02*
X7220182Y-7997984D01*
X7220182Y-7997984D02*
X7201134Y-7997984D01*
X7201134Y-7997984D02*
X7182086Y-7988460D01*
X7182086Y-7988460D02*
X7172563Y-7978936D01*
X7172563Y-7978936D02*
X7163039Y-7959888D01*
X7163039Y-7959888D02*
X7153515Y-7921793D01*
X7153515Y-7921793D02*
X7153515Y-7874174D01*
X7153515Y-7874174D02*
X7163039Y-7836079D01*
X7163039Y-7836079D02*
X7172563Y-7817031D01*
X7172563Y-7817031D02*
X7182086Y-7807508D01*
X7182086Y-7807508D02*
X7201134Y-7797984D01*
X7353515Y-7978936D02*
X7363039Y-7988460D01*
X7363039Y-7988460D02*
X7353515Y-7997984D01*
X7353515Y-7997984D02*
X7343991Y-7988460D01*
X7343991Y-7988460D02*
X7353515Y-7978936D01*
X7353515Y-7978936D02*
X7353515Y-7997984D01*
X7486848Y-7797984D02*
X7505896Y-7797984D01*
X7505896Y-7797984D02*
X7524944Y-7807508D01*
X7524944Y-7807508D02*
X7534467Y-7817031D01*
X7534467Y-7817031D02*
X7543991Y-7836079D01*
X7543991Y-7836079D02*
X7553515Y-7874174D01*
X7553515Y-7874174D02*
X7553515Y-7921793D01*
X7553515Y-7921793D02*
X7543991Y-7959888D01*
X7543991Y-7959888D02*
X7534467Y-7978936D01*
X7534467Y-7978936D02*
X7524944Y-7988460D01*
X7524944Y-7988460D02*
X7505896Y-7997984D01*
X7505896Y-7997984D02*
X7486848Y-7997984D01*
X7486848Y-7997984D02*
X7467801Y-7988460D01*
X7467801Y-7988460D02*
X7458277Y-7978936D01*
X7458277Y-7978936D02*
X7448753Y-7959888D01*
X7448753Y-7959888D02*
X7439229Y-7921793D01*
X7439229Y-7921793D02*
X7439229Y-7874174D01*
X7439229Y-7874174D02*
X7448753Y-7836079D01*
X7448753Y-7836079D02*
X7458277Y-7817031D01*
X7458277Y-7817031D02*
X7467801Y-7807508D01*
X7467801Y-7807508D02*
X7486848Y-7797984D01*
X7743991Y-7997984D02*
X7629706Y-7997984D01*
X7686848Y-7997984D02*
X7686848Y-7797984D01*
X7686848Y-7797984D02*
X7667801Y-7826555D01*
X7667801Y-7826555D02*
X7648753Y-7845603D01*
X7648753Y-7845603D02*
X7629706Y-7855127D01*
X7924944Y-7797984D02*
X7829706Y-7797984D01*
X7829706Y-7797984D02*
X7820182Y-7893222D01*
X7820182Y-7893222D02*
X7829706Y-7883698D01*
X7829706Y-7883698D02*
X7848753Y-7874174D01*
X7848753Y-7874174D02*
X7896372Y-7874174D01*
X7896372Y-7874174D02*
X7915420Y-7883698D01*
X7915420Y-7883698D02*
X7924944Y-7893222D01*
X7924944Y-7893222D02*
X7934467Y-7912269D01*
X7934467Y-7912269D02*
X7934467Y-7959888D01*
X7934467Y-7959888D02*
X7924944Y-7978936D01*
X7924944Y-7978936D02*
X7915420Y-7988460D01*
X7915420Y-7988460D02*
X7896372Y-7997984D01*
X7896372Y-7997984D02*
X7848753Y-7997984D01*
X7848753Y-7997984D02*
X7829706Y-7988460D01*
X7829706Y-7988460D02*
X7820182Y-7978936D01*
X8001134Y-7797984D02*
X8134467Y-7797984D01*
X8134467Y-7797984D02*
X8048753Y-7997984D01*
X8201134Y-7797984D02*
X8201134Y-7836079D01*
X8277325Y-7797984D02*
X8277325Y-7836079D01*
X8572563Y-8074174D02*
X8563039Y-8064650D01*
X8563039Y-8064650D02*
X8543991Y-8036079D01*
X8543991Y-8036079D02*
X8534468Y-8017031D01*
X8534468Y-8017031D02*
X8524944Y-7988460D01*
X8524944Y-7988460D02*
X8515420Y-7940841D01*
X8515420Y-7940841D02*
X8515420Y-7902746D01*
X8515420Y-7902746D02*
X8524944Y-7855127D01*
X8524944Y-7855127D02*
X8534468Y-7826555D01*
X8534468Y-7826555D02*
X8543991Y-7807508D01*
X8543991Y-7807508D02*
X8563039Y-7778936D01*
X8563039Y-7778936D02*
X8572563Y-7769412D01*
X8658277Y-7997984D02*
X8696372Y-7997984D01*
X8696372Y-7997984D02*
X8715420Y-7988460D01*
X8715420Y-7988460D02*
X8724944Y-7978936D01*
X8724944Y-7978936D02*
X8743991Y-7950365D01*
X8743991Y-7950365D02*
X8753515Y-7912269D01*
X8753515Y-7912269D02*
X8753515Y-7836079D01*
X8753515Y-7836079D02*
X8743991Y-7817031D01*
X8743991Y-7817031D02*
X8734468Y-7807508D01*
X8734468Y-7807508D02*
X8715420Y-7797984D01*
X8715420Y-7797984D02*
X8677325Y-7797984D01*
X8677325Y-7797984D02*
X8658277Y-7807508D01*
X8658277Y-7807508D02*
X8648753Y-7817031D01*
X8648753Y-7817031D02*
X8639230Y-7836079D01*
X8639230Y-7836079D02*
X8639230Y-7883698D01*
X8639230Y-7883698D02*
X8648753Y-7902746D01*
X8648753Y-7902746D02*
X8658277Y-7912269D01*
X8658277Y-7912269D02*
X8677325Y-7921793D01*
X8677325Y-7921793D02*
X8715420Y-7921793D01*
X8715420Y-7921793D02*
X8734468Y-7912269D01*
X8734468Y-7912269D02*
X8743991Y-7902746D01*
X8743991Y-7902746D02*
X8753515Y-7883698D01*
X8991611Y-7997984D02*
X8991611Y-7797984D01*
X9077325Y-7997984D02*
X9077325Y-7893222D01*
X9077325Y-7893222D02*
X9067801Y-7874174D01*
X9067801Y-7874174D02*
X9048753Y-7864650D01*
X9048753Y-7864650D02*
X9020182Y-7864650D01*
X9020182Y-7864650D02*
X9001134Y-7874174D01*
X9001134Y-7874174D02*
X8991611Y-7883698D01*
X9201134Y-7997984D02*
X9182087Y-7988460D01*
X9182087Y-7988460D02*
X9172563Y-7978936D01*
X9172563Y-7978936D02*
X9163039Y-7959888D01*
X9163039Y-7959888D02*
X9163039Y-7902746D01*
X9163039Y-7902746D02*
X9172563Y-7883698D01*
X9172563Y-7883698D02*
X9182087Y-7874174D01*
X9182087Y-7874174D02*
X9201134Y-7864650D01*
X9201134Y-7864650D02*
X9229706Y-7864650D01*
X9229706Y-7864650D02*
X9248753Y-7874174D01*
X9248753Y-7874174D02*
X9258277Y-7883698D01*
X9258277Y-7883698D02*
X9267801Y-7902746D01*
X9267801Y-7902746D02*
X9267801Y-7959888D01*
X9267801Y-7959888D02*
X9258277Y-7978936D01*
X9258277Y-7978936D02*
X9248753Y-7988460D01*
X9248753Y-7988460D02*
X9229706Y-7997984D01*
X9229706Y-7997984D02*
X9201134Y-7997984D01*
X9382087Y-7997984D02*
X9363039Y-7988460D01*
X9363039Y-7988460D02*
X9353515Y-7969412D01*
X9353515Y-7969412D02*
X9353515Y-7797984D01*
X9534468Y-7988460D02*
X9515420Y-7997984D01*
X9515420Y-7997984D02*
X9477325Y-7997984D01*
X9477325Y-7997984D02*
X9458277Y-7988460D01*
X9458277Y-7988460D02*
X9448753Y-7969412D01*
X9448753Y-7969412D02*
X9448753Y-7893222D01*
X9448753Y-7893222D02*
X9458277Y-7874174D01*
X9458277Y-7874174D02*
X9477325Y-7864650D01*
X9477325Y-7864650D02*
X9515420Y-7864650D01*
X9515420Y-7864650D02*
X9534468Y-7874174D01*
X9534468Y-7874174D02*
X9543992Y-7893222D01*
X9543992Y-7893222D02*
X9543992Y-7912269D01*
X9543992Y-7912269D02*
X9448753Y-7931317D01*
X9620182Y-7988460D02*
X9639230Y-7997984D01*
X9639230Y-7997984D02*
X9677325Y-7997984D01*
X9677325Y-7997984D02*
X9696373Y-7988460D01*
X9696373Y-7988460D02*
X9705896Y-7969412D01*
X9705896Y-7969412D02*
X9705896Y-7959888D01*
X9705896Y-7959888D02*
X9696373Y-7940841D01*
X9696373Y-7940841D02*
X9677325Y-7931317D01*
X9677325Y-7931317D02*
X9648753Y-7931317D01*
X9648753Y-7931317D02*
X9629706Y-7921793D01*
X9629706Y-7921793D02*
X9620182Y-7902746D01*
X9620182Y-7902746D02*
X9620182Y-7893222D01*
X9620182Y-7893222D02*
X9629706Y-7874174D01*
X9629706Y-7874174D02*
X9648753Y-7864650D01*
X9648753Y-7864650D02*
X9677325Y-7864650D01*
X9677325Y-7864650D02*
X9696373Y-7874174D01*
X9772563Y-8074174D02*
X9782087Y-8064650D01*
X9782087Y-8064650D02*
X9801134Y-8036079D01*
X9801134Y-8036079D02*
X9810658Y-8017031D01*
X9810658Y-8017031D02*
X9820182Y-7988460D01*
X9820182Y-7988460D02*
X9829706Y-7940841D01*
X9829706Y-7940841D02*
X9829706Y-7902746D01*
X9829706Y-7902746D02*
X9820182Y-7855127D01*
X9820182Y-7855127D02*
X9810658Y-7826555D01*
X9810658Y-7826555D02*
X9801134Y-7807508D01*
X9801134Y-7807508D02*
X9782087Y-7778936D01*
X9782087Y-7778936D02*
X9772563Y-7769412D01*
D12*
X4957500Y-8130500D02*
X4957500Y-8210500D01*
X4917500Y-8170500D02*
X4997500Y-8170500D01*
D11*
X5296372Y-8061984D02*
X5315420Y-8061984D01*
X5315420Y-8061984D02*
X5334467Y-8071508D01*
X5334467Y-8071508D02*
X5343991Y-8081031D01*
X5343991Y-8081031D02*
X5353515Y-8100079D01*
X5353515Y-8100079D02*
X5363039Y-8138174D01*
X5363039Y-8138174D02*
X5363039Y-8185793D01*
X5363039Y-8185793D02*
X5353515Y-8223888D01*
X5353515Y-8223888D02*
X5343991Y-8242936D01*
X5343991Y-8242936D02*
X5334467Y-8252460D01*
X5334467Y-8252460D02*
X5315420Y-8261984D01*
X5315420Y-8261984D02*
X5296372Y-8261984D01*
X5296372Y-8261984D02*
X5277324Y-8252460D01*
X5277324Y-8252460D02*
X5267801Y-8242936D01*
X5267801Y-8242936D02*
X5258277Y-8223888D01*
X5258277Y-8223888D02*
X5248753Y-8185793D01*
X5248753Y-8185793D02*
X5248753Y-8138174D01*
X5248753Y-8138174D02*
X5258277Y-8100079D01*
X5258277Y-8100079D02*
X5267801Y-8081031D01*
X5267801Y-8081031D02*
X5277324Y-8071508D01*
X5277324Y-8071508D02*
X5296372Y-8061984D01*
X5448753Y-8242936D02*
X5458277Y-8252460D01*
X5458277Y-8252460D02*
X5448753Y-8261984D01*
X5448753Y-8261984D02*
X5439229Y-8252460D01*
X5439229Y-8252460D02*
X5448753Y-8242936D01*
X5448753Y-8242936D02*
X5448753Y-8261984D01*
X5572563Y-8147698D02*
X5553515Y-8138174D01*
X5553515Y-8138174D02*
X5543991Y-8128650D01*
X5543991Y-8128650D02*
X5534467Y-8109603D01*
X5534467Y-8109603D02*
X5534467Y-8100079D01*
X5534467Y-8100079D02*
X5543991Y-8081031D01*
X5543991Y-8081031D02*
X5553515Y-8071508D01*
X5553515Y-8071508D02*
X5572563Y-8061984D01*
X5572563Y-8061984D02*
X5610658Y-8061984D01*
X5610658Y-8061984D02*
X5629705Y-8071508D01*
X5629705Y-8071508D02*
X5639229Y-8081031D01*
X5639229Y-8081031D02*
X5648753Y-8100079D01*
X5648753Y-8100079D02*
X5648753Y-8109603D01*
X5648753Y-8109603D02*
X5639229Y-8128650D01*
X5639229Y-8128650D02*
X5629705Y-8138174D01*
X5629705Y-8138174D02*
X5610658Y-8147698D01*
X5610658Y-8147698D02*
X5572563Y-8147698D01*
X5572563Y-8147698D02*
X5553515Y-8157222D01*
X5553515Y-8157222D02*
X5543991Y-8166746D01*
X5543991Y-8166746D02*
X5534467Y-8185793D01*
X5534467Y-8185793D02*
X5534467Y-8223888D01*
X5534467Y-8223888D02*
X5543991Y-8242936D01*
X5543991Y-8242936D02*
X5553515Y-8252460D01*
X5553515Y-8252460D02*
X5572563Y-8261984D01*
X5572563Y-8261984D02*
X5610658Y-8261984D01*
X5610658Y-8261984D02*
X5629705Y-8252460D01*
X5629705Y-8252460D02*
X5639229Y-8242936D01*
X5639229Y-8242936D02*
X5648753Y-8223888D01*
X5648753Y-8223888D02*
X5648753Y-8185793D01*
X5648753Y-8185793D02*
X5639229Y-8166746D01*
X5639229Y-8166746D02*
X5629705Y-8157222D01*
X5629705Y-8157222D02*
X5610658Y-8147698D01*
X5772562Y-8061984D02*
X5791610Y-8061984D01*
X5791610Y-8061984D02*
X5810658Y-8071508D01*
X5810658Y-8071508D02*
X5820182Y-8081031D01*
X5820182Y-8081031D02*
X5829705Y-8100079D01*
X5829705Y-8100079D02*
X5839229Y-8138174D01*
X5839229Y-8138174D02*
X5839229Y-8185793D01*
X5839229Y-8185793D02*
X5829705Y-8223888D01*
X5829705Y-8223888D02*
X5820182Y-8242936D01*
X5820182Y-8242936D02*
X5810658Y-8252460D01*
X5810658Y-8252460D02*
X5791610Y-8261984D01*
X5791610Y-8261984D02*
X5772562Y-8261984D01*
X5772562Y-8261984D02*
X5753515Y-8252460D01*
X5753515Y-8252460D02*
X5743991Y-8242936D01*
X5743991Y-8242936D02*
X5734467Y-8223888D01*
X5734467Y-8223888D02*
X5724943Y-8185793D01*
X5724943Y-8185793D02*
X5724943Y-8138174D01*
X5724943Y-8138174D02*
X5734467Y-8100079D01*
X5734467Y-8100079D02*
X5743991Y-8081031D01*
X5743991Y-8081031D02*
X5753515Y-8071508D01*
X5753515Y-8071508D02*
X5772562Y-8061984D01*
X5963039Y-8061984D02*
X5982086Y-8061984D01*
X5982086Y-8061984D02*
X6001134Y-8071508D01*
X6001134Y-8071508D02*
X6010658Y-8081031D01*
X6010658Y-8081031D02*
X6020182Y-8100079D01*
X6020182Y-8100079D02*
X6029705Y-8138174D01*
X6029705Y-8138174D02*
X6029705Y-8185793D01*
X6029705Y-8185793D02*
X6020182Y-8223888D01*
X6020182Y-8223888D02*
X6010658Y-8242936D01*
X6010658Y-8242936D02*
X6001134Y-8252460D01*
X6001134Y-8252460D02*
X5982086Y-8261984D01*
X5982086Y-8261984D02*
X5963039Y-8261984D01*
X5963039Y-8261984D02*
X5943991Y-8252460D01*
X5943991Y-8252460D02*
X5934467Y-8242936D01*
X5934467Y-8242936D02*
X5924943Y-8223888D01*
X5924943Y-8223888D02*
X5915420Y-8185793D01*
X5915420Y-8185793D02*
X5915420Y-8138174D01*
X5915420Y-8138174D02*
X5924943Y-8100079D01*
X5924943Y-8100079D02*
X5934467Y-8081031D01*
X5934467Y-8081031D02*
X5943991Y-8071508D01*
X5943991Y-8071508D02*
X5963039Y-8061984D01*
X6115420Y-8261984D02*
X6115420Y-8128650D01*
X6115420Y-8147698D02*
X6124943Y-8138174D01*
X6124943Y-8138174D02*
X6143991Y-8128650D01*
X6143991Y-8128650D02*
X6172563Y-8128650D01*
X6172563Y-8128650D02*
X6191610Y-8138174D01*
X6191610Y-8138174D02*
X6201134Y-8157222D01*
X6201134Y-8157222D02*
X6201134Y-8261984D01*
X6201134Y-8157222D02*
X6210658Y-8138174D01*
X6210658Y-8138174D02*
X6229705Y-8128650D01*
X6229705Y-8128650D02*
X6258277Y-8128650D01*
X6258277Y-8128650D02*
X6277324Y-8138174D01*
X6277324Y-8138174D02*
X6286848Y-8157222D01*
X6286848Y-8157222D02*
X6286848Y-8261984D01*
X6382086Y-8261984D02*
X6382086Y-8128650D01*
X6382086Y-8147698D02*
X6391610Y-8138174D01*
X6391610Y-8138174D02*
X6410658Y-8128650D01*
X6410658Y-8128650D02*
X6439229Y-8128650D01*
X6439229Y-8128650D02*
X6458277Y-8138174D01*
X6458277Y-8138174D02*
X6467801Y-8157222D01*
X6467801Y-8157222D02*
X6467801Y-8261984D01*
X6467801Y-8157222D02*
X6477324Y-8138174D01*
X6477324Y-8138174D02*
X6496372Y-8128650D01*
X6496372Y-8128650D02*
X6524943Y-8128650D01*
X6524943Y-8128650D02*
X6543991Y-8138174D01*
X6543991Y-8138174D02*
X6553515Y-8157222D01*
X6553515Y-8157222D02*
X6553515Y-8261984D01*
X6943991Y-8052460D02*
X6772563Y-8309603D01*
X7201134Y-8061984D02*
X7220182Y-8061984D01*
X7220182Y-8061984D02*
X7239229Y-8071508D01*
X7239229Y-8071508D02*
X7248753Y-8081031D01*
X7248753Y-8081031D02*
X7258277Y-8100079D01*
X7258277Y-8100079D02*
X7267801Y-8138174D01*
X7267801Y-8138174D02*
X7267801Y-8185793D01*
X7267801Y-8185793D02*
X7258277Y-8223888D01*
X7258277Y-8223888D02*
X7248753Y-8242936D01*
X7248753Y-8242936D02*
X7239229Y-8252460D01*
X7239229Y-8252460D02*
X7220182Y-8261984D01*
X7220182Y-8261984D02*
X7201134Y-8261984D01*
X7201134Y-8261984D02*
X7182086Y-8252460D01*
X7182086Y-8252460D02*
X7172563Y-8242936D01*
X7172563Y-8242936D02*
X7163039Y-8223888D01*
X7163039Y-8223888D02*
X7153515Y-8185793D01*
X7153515Y-8185793D02*
X7153515Y-8138174D01*
X7153515Y-8138174D02*
X7163039Y-8100079D01*
X7163039Y-8100079D02*
X7172563Y-8081031D01*
X7172563Y-8081031D02*
X7182086Y-8071508D01*
X7182086Y-8071508D02*
X7201134Y-8061984D01*
X7353515Y-8242936D02*
X7363039Y-8252460D01*
X7363039Y-8252460D02*
X7353515Y-8261984D01*
X7353515Y-8261984D02*
X7343991Y-8252460D01*
X7343991Y-8252460D02*
X7353515Y-8242936D01*
X7353515Y-8242936D02*
X7353515Y-8261984D01*
X7486848Y-8061984D02*
X7505896Y-8061984D01*
X7505896Y-8061984D02*
X7524944Y-8071508D01*
X7524944Y-8071508D02*
X7534467Y-8081031D01*
X7534467Y-8081031D02*
X7543991Y-8100079D01*
X7543991Y-8100079D02*
X7553515Y-8138174D01*
X7553515Y-8138174D02*
X7553515Y-8185793D01*
X7553515Y-8185793D02*
X7543991Y-8223888D01*
X7543991Y-8223888D02*
X7534467Y-8242936D01*
X7534467Y-8242936D02*
X7524944Y-8252460D01*
X7524944Y-8252460D02*
X7505896Y-8261984D01*
X7505896Y-8261984D02*
X7486848Y-8261984D01*
X7486848Y-8261984D02*
X7467801Y-8252460D01*
X7467801Y-8252460D02*
X7458277Y-8242936D01*
X7458277Y-8242936D02*
X7448753Y-8223888D01*
X7448753Y-8223888D02*
X7439229Y-8185793D01*
X7439229Y-8185793D02*
X7439229Y-8138174D01*
X7439229Y-8138174D02*
X7448753Y-8100079D01*
X7448753Y-8100079D02*
X7458277Y-8081031D01*
X7458277Y-8081031D02*
X7467801Y-8071508D01*
X7467801Y-8071508D02*
X7486848Y-8061984D01*
X7620182Y-8061984D02*
X7743991Y-8061984D01*
X7743991Y-8061984D02*
X7677325Y-8138174D01*
X7677325Y-8138174D02*
X7705896Y-8138174D01*
X7705896Y-8138174D02*
X7724944Y-8147698D01*
X7724944Y-8147698D02*
X7734467Y-8157222D01*
X7734467Y-8157222D02*
X7743991Y-8176269D01*
X7743991Y-8176269D02*
X7743991Y-8223888D01*
X7743991Y-8223888D02*
X7734467Y-8242936D01*
X7734467Y-8242936D02*
X7724944Y-8252460D01*
X7724944Y-8252460D02*
X7705896Y-8261984D01*
X7705896Y-8261984D02*
X7648753Y-8261984D01*
X7648753Y-8261984D02*
X7629706Y-8252460D01*
X7629706Y-8252460D02*
X7620182Y-8242936D01*
X7934467Y-8261984D02*
X7820182Y-8261984D01*
X7877325Y-8261984D02*
X7877325Y-8061984D01*
X7877325Y-8061984D02*
X7858277Y-8090555D01*
X7858277Y-8090555D02*
X7839229Y-8109603D01*
X7839229Y-8109603D02*
X7820182Y-8119127D01*
X8115420Y-8061984D02*
X8020182Y-8061984D01*
X8020182Y-8061984D02*
X8010658Y-8157222D01*
X8010658Y-8157222D02*
X8020182Y-8147698D01*
X8020182Y-8147698D02*
X8039229Y-8138174D01*
X8039229Y-8138174D02*
X8086848Y-8138174D01*
X8086848Y-8138174D02*
X8105896Y-8147698D01*
X8105896Y-8147698D02*
X8115420Y-8157222D01*
X8115420Y-8157222D02*
X8124944Y-8176269D01*
X8124944Y-8176269D02*
X8124944Y-8223888D01*
X8124944Y-8223888D02*
X8115420Y-8242936D01*
X8115420Y-8242936D02*
X8105896Y-8252460D01*
X8105896Y-8252460D02*
X8086848Y-8261984D01*
X8086848Y-8261984D02*
X8039229Y-8261984D01*
X8039229Y-8261984D02*
X8020182Y-8252460D01*
X8020182Y-8252460D02*
X8010658Y-8242936D01*
X8201134Y-8061984D02*
X8201134Y-8100079D01*
X8277325Y-8061984D02*
X8277325Y-8100079D01*
X8572563Y-8338174D02*
X8563039Y-8328650D01*
X8563039Y-8328650D02*
X8543991Y-8300079D01*
X8543991Y-8300079D02*
X8534468Y-8281031D01*
X8534468Y-8281031D02*
X8524944Y-8252460D01*
X8524944Y-8252460D02*
X8515420Y-8204841D01*
X8515420Y-8204841D02*
X8515420Y-8166746D01*
X8515420Y-8166746D02*
X8524944Y-8119127D01*
X8524944Y-8119127D02*
X8534468Y-8090555D01*
X8534468Y-8090555D02*
X8543991Y-8071508D01*
X8543991Y-8071508D02*
X8563039Y-8042936D01*
X8563039Y-8042936D02*
X8572563Y-8033412D01*
X8639230Y-8081031D02*
X8648753Y-8071508D01*
X8648753Y-8071508D02*
X8667801Y-8061984D01*
X8667801Y-8061984D02*
X8715420Y-8061984D01*
X8715420Y-8061984D02*
X8734468Y-8071508D01*
X8734468Y-8071508D02*
X8743991Y-8081031D01*
X8743991Y-8081031D02*
X8753515Y-8100079D01*
X8753515Y-8100079D02*
X8753515Y-8119127D01*
X8753515Y-8119127D02*
X8743991Y-8147698D01*
X8743991Y-8147698D02*
X8629706Y-8261984D01*
X8629706Y-8261984D02*
X8753515Y-8261984D01*
X8991611Y-8261984D02*
X8991611Y-8061984D01*
X9077325Y-8261984D02*
X9077325Y-8157222D01*
X9077325Y-8157222D02*
X9067801Y-8138174D01*
X9067801Y-8138174D02*
X9048753Y-8128650D01*
X9048753Y-8128650D02*
X9020182Y-8128650D01*
X9020182Y-8128650D02*
X9001134Y-8138174D01*
X9001134Y-8138174D02*
X8991611Y-8147698D01*
X9201134Y-8261984D02*
X9182087Y-8252460D01*
X9182087Y-8252460D02*
X9172563Y-8242936D01*
X9172563Y-8242936D02*
X9163039Y-8223888D01*
X9163039Y-8223888D02*
X9163039Y-8166746D01*
X9163039Y-8166746D02*
X9172563Y-8147698D01*
X9172563Y-8147698D02*
X9182087Y-8138174D01*
X9182087Y-8138174D02*
X9201134Y-8128650D01*
X9201134Y-8128650D02*
X9229706Y-8128650D01*
X9229706Y-8128650D02*
X9248753Y-8138174D01*
X9248753Y-8138174D02*
X9258277Y-8147698D01*
X9258277Y-8147698D02*
X9267801Y-8166746D01*
X9267801Y-8166746D02*
X9267801Y-8223888D01*
X9267801Y-8223888D02*
X9258277Y-8242936D01*
X9258277Y-8242936D02*
X9248753Y-8252460D01*
X9248753Y-8252460D02*
X9229706Y-8261984D01*
X9229706Y-8261984D02*
X9201134Y-8261984D01*
X9382087Y-8261984D02*
X9363039Y-8252460D01*
X9363039Y-8252460D02*
X9353515Y-8233412D01*
X9353515Y-8233412D02*
X9353515Y-8061984D01*
X9534468Y-8252460D02*
X9515420Y-8261984D01*
X9515420Y-8261984D02*
X9477325Y-8261984D01*
X9477325Y-8261984D02*
X9458277Y-8252460D01*
X9458277Y-8252460D02*
X9448753Y-8233412D01*
X9448753Y-8233412D02*
X9448753Y-8157222D01*
X9448753Y-8157222D02*
X9458277Y-8138174D01*
X9458277Y-8138174D02*
X9477325Y-8128650D01*
X9477325Y-8128650D02*
X9515420Y-8128650D01*
X9515420Y-8128650D02*
X9534468Y-8138174D01*
X9534468Y-8138174D02*
X9543992Y-8157222D01*
X9543992Y-8157222D02*
X9543992Y-8176269D01*
X9543992Y-8176269D02*
X9448753Y-8195317D01*
X9620182Y-8252460D02*
X9639230Y-8261984D01*
X9639230Y-8261984D02*
X9677325Y-8261984D01*
X9677325Y-8261984D02*
X9696373Y-8252460D01*
X9696373Y-8252460D02*
X9705896Y-8233412D01*
X9705896Y-8233412D02*
X9705896Y-8223888D01*
X9705896Y-8223888D02*
X9696373Y-8204841D01*
X9696373Y-8204841D02*
X9677325Y-8195317D01*
X9677325Y-8195317D02*
X9648753Y-8195317D01*
X9648753Y-8195317D02*
X9629706Y-8185793D01*
X9629706Y-8185793D02*
X9620182Y-8166746D01*
X9620182Y-8166746D02*
X9620182Y-8157222D01*
X9620182Y-8157222D02*
X9629706Y-8138174D01*
X9629706Y-8138174D02*
X9648753Y-8128650D01*
X9648753Y-8128650D02*
X9677325Y-8128650D01*
X9677325Y-8128650D02*
X9696373Y-8138174D01*
X9772563Y-8338174D02*
X9782087Y-8328650D01*
X9782087Y-8328650D02*
X9801134Y-8300079D01*
X9801134Y-8300079D02*
X9810658Y-8281031D01*
X9810658Y-8281031D02*
X9820182Y-8252460D01*
X9820182Y-8252460D02*
X9829706Y-8204841D01*
X9829706Y-8204841D02*
X9829706Y-8166746D01*
X9829706Y-8166746D02*
X9820182Y-8119127D01*
X9820182Y-8119127D02*
X9810658Y-8090555D01*
X9810658Y-8090555D02*
X9801134Y-8071508D01*
X9801134Y-8071508D02*
X9782087Y-8042936D01*
X9782087Y-8042936D02*
X9772563Y-8033412D01*
D12*
X4982856Y-8469856D02*
X4982856Y-8399144D01*
X4912144Y-8399144D01*
X4912144Y-8469856D01*
X4982856Y-8469856D01*
D11*
X5363039Y-8525984D02*
X5248753Y-8525984D01*
X5305896Y-8525984D02*
X5305896Y-8325984D01*
X5305896Y-8325984D02*
X5286848Y-8354555D01*
X5286848Y-8354555D02*
X5267801Y-8373603D01*
X5267801Y-8373603D02*
X5248753Y-8383127D01*
X5448753Y-8506936D02*
X5458277Y-8516460D01*
X5458277Y-8516460D02*
X5448753Y-8525984D01*
X5448753Y-8525984D02*
X5439229Y-8516460D01*
X5439229Y-8516460D02*
X5448753Y-8506936D01*
X5448753Y-8506936D02*
X5448753Y-8525984D01*
X5582086Y-8325984D02*
X5601134Y-8325984D01*
X5601134Y-8325984D02*
X5620182Y-8335508D01*
X5620182Y-8335508D02*
X5629705Y-8345031D01*
X5629705Y-8345031D02*
X5639229Y-8364079D01*
X5639229Y-8364079D02*
X5648753Y-8402174D01*
X5648753Y-8402174D02*
X5648753Y-8449793D01*
X5648753Y-8449793D02*
X5639229Y-8487889D01*
X5639229Y-8487889D02*
X5629705Y-8506936D01*
X5629705Y-8506936D02*
X5620182Y-8516460D01*
X5620182Y-8516460D02*
X5601134Y-8525984D01*
X5601134Y-8525984D02*
X5582086Y-8525984D01*
X5582086Y-8525984D02*
X5563039Y-8516460D01*
X5563039Y-8516460D02*
X5553515Y-8506936D01*
X5553515Y-8506936D02*
X5543991Y-8487889D01*
X5543991Y-8487889D02*
X5534467Y-8449793D01*
X5534467Y-8449793D02*
X5534467Y-8402174D01*
X5534467Y-8402174D02*
X5543991Y-8364079D01*
X5543991Y-8364079D02*
X5553515Y-8345031D01*
X5553515Y-8345031D02*
X5563039Y-8335508D01*
X5563039Y-8335508D02*
X5582086Y-8325984D01*
X5772562Y-8325984D02*
X5791610Y-8325984D01*
X5791610Y-8325984D02*
X5810658Y-8335508D01*
X5810658Y-8335508D02*
X5820182Y-8345031D01*
X5820182Y-8345031D02*
X5829705Y-8364079D01*
X5829705Y-8364079D02*
X5839229Y-8402174D01*
X5839229Y-8402174D02*
X5839229Y-8449793D01*
X5839229Y-8449793D02*
X5829705Y-8487889D01*
X5829705Y-8487889D02*
X5820182Y-8506936D01*
X5820182Y-8506936D02*
X5810658Y-8516460D01*
X5810658Y-8516460D02*
X5791610Y-8525984D01*
X5791610Y-8525984D02*
X5772562Y-8525984D01*
X5772562Y-8525984D02*
X5753515Y-8516460D01*
X5753515Y-8516460D02*
X5743991Y-8506936D01*
X5743991Y-8506936D02*
X5734467Y-8487889D01*
X5734467Y-8487889D02*
X5724943Y-8449793D01*
X5724943Y-8449793D02*
X5724943Y-8402174D01*
X5724943Y-8402174D02*
X5734467Y-8364079D01*
X5734467Y-8364079D02*
X5743991Y-8345031D01*
X5743991Y-8345031D02*
X5753515Y-8335508D01*
X5753515Y-8335508D02*
X5772562Y-8325984D01*
X5963039Y-8325984D02*
X5982086Y-8325984D01*
X5982086Y-8325984D02*
X6001134Y-8335508D01*
X6001134Y-8335508D02*
X6010658Y-8345031D01*
X6010658Y-8345031D02*
X6020182Y-8364079D01*
X6020182Y-8364079D02*
X6029705Y-8402174D01*
X6029705Y-8402174D02*
X6029705Y-8449793D01*
X6029705Y-8449793D02*
X6020182Y-8487889D01*
X6020182Y-8487889D02*
X6010658Y-8506936D01*
X6010658Y-8506936D02*
X6001134Y-8516460D01*
X6001134Y-8516460D02*
X5982086Y-8525984D01*
X5982086Y-8525984D02*
X5963039Y-8525984D01*
X5963039Y-8525984D02*
X5943991Y-8516460D01*
X5943991Y-8516460D02*
X5934467Y-8506936D01*
X5934467Y-8506936D02*
X5924943Y-8487889D01*
X5924943Y-8487889D02*
X5915420Y-8449793D01*
X5915420Y-8449793D02*
X5915420Y-8402174D01*
X5915420Y-8402174D02*
X5924943Y-8364079D01*
X5924943Y-8364079D02*
X5934467Y-8345031D01*
X5934467Y-8345031D02*
X5943991Y-8335508D01*
X5943991Y-8335508D02*
X5963039Y-8325984D01*
X6115420Y-8525984D02*
X6115420Y-8392650D01*
X6115420Y-8411698D02*
X6124943Y-8402174D01*
X6124943Y-8402174D02*
X6143991Y-8392650D01*
X6143991Y-8392650D02*
X6172563Y-8392650D01*
X6172563Y-8392650D02*
X6191610Y-8402174D01*
X6191610Y-8402174D02*
X6201134Y-8421222D01*
X6201134Y-8421222D02*
X6201134Y-8525984D01*
X6201134Y-8421222D02*
X6210658Y-8402174D01*
X6210658Y-8402174D02*
X6229705Y-8392650D01*
X6229705Y-8392650D02*
X6258277Y-8392650D01*
X6258277Y-8392650D02*
X6277324Y-8402174D01*
X6277324Y-8402174D02*
X6286848Y-8421222D01*
X6286848Y-8421222D02*
X6286848Y-8525984D01*
X6382086Y-8525984D02*
X6382086Y-8392650D01*
X6382086Y-8411698D02*
X6391610Y-8402174D01*
X6391610Y-8402174D02*
X6410658Y-8392650D01*
X6410658Y-8392650D02*
X6439229Y-8392650D01*
X6439229Y-8392650D02*
X6458277Y-8402174D01*
X6458277Y-8402174D02*
X6467801Y-8421222D01*
X6467801Y-8421222D02*
X6467801Y-8525984D01*
X6467801Y-8421222D02*
X6477324Y-8402174D01*
X6477324Y-8402174D02*
X6496372Y-8392650D01*
X6496372Y-8392650D02*
X6524943Y-8392650D01*
X6524943Y-8392650D02*
X6543991Y-8402174D01*
X6543991Y-8402174D02*
X6553515Y-8421222D01*
X6553515Y-8421222D02*
X6553515Y-8525984D01*
X6943991Y-8316460D02*
X6772563Y-8573603D01*
X7201134Y-8325984D02*
X7220182Y-8325984D01*
X7220182Y-8325984D02*
X7239229Y-8335508D01*
X7239229Y-8335508D02*
X7248753Y-8345031D01*
X7248753Y-8345031D02*
X7258277Y-8364079D01*
X7258277Y-8364079D02*
X7267801Y-8402174D01*
X7267801Y-8402174D02*
X7267801Y-8449793D01*
X7267801Y-8449793D02*
X7258277Y-8487889D01*
X7258277Y-8487889D02*
X7248753Y-8506936D01*
X7248753Y-8506936D02*
X7239229Y-8516460D01*
X7239229Y-8516460D02*
X7220182Y-8525984D01*
X7220182Y-8525984D02*
X7201134Y-8525984D01*
X7201134Y-8525984D02*
X7182086Y-8516460D01*
X7182086Y-8516460D02*
X7172563Y-8506936D01*
X7172563Y-8506936D02*
X7163039Y-8487889D01*
X7163039Y-8487889D02*
X7153515Y-8449793D01*
X7153515Y-8449793D02*
X7153515Y-8402174D01*
X7153515Y-8402174D02*
X7163039Y-8364079D01*
X7163039Y-8364079D02*
X7172563Y-8345031D01*
X7172563Y-8345031D02*
X7182086Y-8335508D01*
X7182086Y-8335508D02*
X7201134Y-8325984D01*
X7353515Y-8506936D02*
X7363039Y-8516460D01*
X7363039Y-8516460D02*
X7353515Y-8525984D01*
X7353515Y-8525984D02*
X7343991Y-8516460D01*
X7343991Y-8516460D02*
X7353515Y-8506936D01*
X7353515Y-8506936D02*
X7353515Y-8525984D01*
X7486848Y-8325984D02*
X7505896Y-8325984D01*
X7505896Y-8325984D02*
X7524944Y-8335508D01*
X7524944Y-8335508D02*
X7534467Y-8345031D01*
X7534467Y-8345031D02*
X7543991Y-8364079D01*
X7543991Y-8364079D02*
X7553515Y-8402174D01*
X7553515Y-8402174D02*
X7553515Y-8449793D01*
X7553515Y-8449793D02*
X7543991Y-8487889D01*
X7543991Y-8487889D02*
X7534467Y-8506936D01*
X7534467Y-8506936D02*
X7524944Y-8516460D01*
X7524944Y-8516460D02*
X7505896Y-8525984D01*
X7505896Y-8525984D02*
X7486848Y-8525984D01*
X7486848Y-8525984D02*
X7467801Y-8516460D01*
X7467801Y-8516460D02*
X7458277Y-8506936D01*
X7458277Y-8506936D02*
X7448753Y-8487889D01*
X7448753Y-8487889D02*
X7439229Y-8449793D01*
X7439229Y-8449793D02*
X7439229Y-8402174D01*
X7439229Y-8402174D02*
X7448753Y-8364079D01*
X7448753Y-8364079D02*
X7458277Y-8345031D01*
X7458277Y-8345031D02*
X7467801Y-8335508D01*
X7467801Y-8335508D02*
X7486848Y-8325984D01*
X7620182Y-8325984D02*
X7743991Y-8325984D01*
X7743991Y-8325984D02*
X7677325Y-8402174D01*
X7677325Y-8402174D02*
X7705896Y-8402174D01*
X7705896Y-8402174D02*
X7724944Y-8411698D01*
X7724944Y-8411698D02*
X7734467Y-8421222D01*
X7734467Y-8421222D02*
X7743991Y-8440270D01*
X7743991Y-8440270D02*
X7743991Y-8487889D01*
X7743991Y-8487889D02*
X7734467Y-8506936D01*
X7734467Y-8506936D02*
X7724944Y-8516460D01*
X7724944Y-8516460D02*
X7705896Y-8525984D01*
X7705896Y-8525984D02*
X7648753Y-8525984D01*
X7648753Y-8525984D02*
X7629706Y-8516460D01*
X7629706Y-8516460D02*
X7620182Y-8506936D01*
X7839229Y-8525984D02*
X7877325Y-8525984D01*
X7877325Y-8525984D02*
X7896372Y-8516460D01*
X7896372Y-8516460D02*
X7905896Y-8506936D01*
X7905896Y-8506936D02*
X7924944Y-8478365D01*
X7924944Y-8478365D02*
X7934467Y-8440270D01*
X7934467Y-8440270D02*
X7934467Y-8364079D01*
X7934467Y-8364079D02*
X7924944Y-8345031D01*
X7924944Y-8345031D02*
X7915420Y-8335508D01*
X7915420Y-8335508D02*
X7896372Y-8325984D01*
X7896372Y-8325984D02*
X7858277Y-8325984D01*
X7858277Y-8325984D02*
X7839229Y-8335508D01*
X7839229Y-8335508D02*
X7829706Y-8345031D01*
X7829706Y-8345031D02*
X7820182Y-8364079D01*
X7820182Y-8364079D02*
X7820182Y-8411698D01*
X7820182Y-8411698D02*
X7829706Y-8430746D01*
X7829706Y-8430746D02*
X7839229Y-8440270D01*
X7839229Y-8440270D02*
X7858277Y-8449793D01*
X7858277Y-8449793D02*
X7896372Y-8449793D01*
X7896372Y-8449793D02*
X7915420Y-8440270D01*
X7915420Y-8440270D02*
X7924944Y-8430746D01*
X7924944Y-8430746D02*
X7934467Y-8411698D01*
X8105896Y-8392650D02*
X8105896Y-8525984D01*
X8058277Y-8316460D02*
X8010658Y-8459317D01*
X8010658Y-8459317D02*
X8134467Y-8459317D01*
X8201134Y-8325984D02*
X8201134Y-8364079D01*
X8277325Y-8325984D02*
X8277325Y-8364079D01*
X8572563Y-8602174D02*
X8563039Y-8592650D01*
X8563039Y-8592650D02*
X8543991Y-8564079D01*
X8543991Y-8564079D02*
X8534468Y-8545031D01*
X8534468Y-8545031D02*
X8524944Y-8516460D01*
X8524944Y-8516460D02*
X8515420Y-8468841D01*
X8515420Y-8468841D02*
X8515420Y-8430746D01*
X8515420Y-8430746D02*
X8524944Y-8383127D01*
X8524944Y-8383127D02*
X8534468Y-8354555D01*
X8534468Y-8354555D02*
X8543991Y-8335508D01*
X8543991Y-8335508D02*
X8563039Y-8306936D01*
X8563039Y-8306936D02*
X8572563Y-8297412D01*
X8677325Y-8411698D02*
X8658277Y-8402174D01*
X8658277Y-8402174D02*
X8648753Y-8392650D01*
X8648753Y-8392650D02*
X8639230Y-8373603D01*
X8639230Y-8373603D02*
X8639230Y-8364079D01*
X8639230Y-8364079D02*
X8648753Y-8345031D01*
X8648753Y-8345031D02*
X8658277Y-8335508D01*
X8658277Y-8335508D02*
X8677325Y-8325984D01*
X8677325Y-8325984D02*
X8715420Y-8325984D01*
X8715420Y-8325984D02*
X8734468Y-8335508D01*
X8734468Y-8335508D02*
X8743991Y-8345031D01*
X8743991Y-8345031D02*
X8753515Y-8364079D01*
X8753515Y-8364079D02*
X8753515Y-8373603D01*
X8753515Y-8373603D02*
X8743991Y-8392650D01*
X8743991Y-8392650D02*
X8734468Y-8402174D01*
X8734468Y-8402174D02*
X8715420Y-8411698D01*
X8715420Y-8411698D02*
X8677325Y-8411698D01*
X8677325Y-8411698D02*
X8658277Y-8421222D01*
X8658277Y-8421222D02*
X8648753Y-8430746D01*
X8648753Y-8430746D02*
X8639230Y-8449793D01*
X8639230Y-8449793D02*
X8639230Y-8487889D01*
X8639230Y-8487889D02*
X8648753Y-8506936D01*
X8648753Y-8506936D02*
X8658277Y-8516460D01*
X8658277Y-8516460D02*
X8677325Y-8525984D01*
X8677325Y-8525984D02*
X8715420Y-8525984D01*
X8715420Y-8525984D02*
X8734468Y-8516460D01*
X8734468Y-8516460D02*
X8743991Y-8506936D01*
X8743991Y-8506936D02*
X8753515Y-8487889D01*
X8753515Y-8487889D02*
X8753515Y-8449793D01*
X8753515Y-8449793D02*
X8743991Y-8430746D01*
X8743991Y-8430746D02*
X8734468Y-8421222D01*
X8734468Y-8421222D02*
X8715420Y-8411698D01*
X8991611Y-8525984D02*
X8991611Y-8325984D01*
X9077325Y-8525984D02*
X9077325Y-8421222D01*
X9077325Y-8421222D02*
X9067801Y-8402174D01*
X9067801Y-8402174D02*
X9048753Y-8392650D01*
X9048753Y-8392650D02*
X9020182Y-8392650D01*
X9020182Y-8392650D02*
X9001134Y-8402174D01*
X9001134Y-8402174D02*
X8991611Y-8411698D01*
X9201134Y-8525984D02*
X9182087Y-8516460D01*
X9182087Y-8516460D02*
X9172563Y-8506936D01*
X9172563Y-8506936D02*
X9163039Y-8487889D01*
X9163039Y-8487889D02*
X9163039Y-8430746D01*
X9163039Y-8430746D02*
X9172563Y-8411698D01*
X9172563Y-8411698D02*
X9182087Y-8402174D01*
X9182087Y-8402174D02*
X9201134Y-8392650D01*
X9201134Y-8392650D02*
X9229706Y-8392650D01*
X9229706Y-8392650D02*
X9248753Y-8402174D01*
X9248753Y-8402174D02*
X9258277Y-8411698D01*
X9258277Y-8411698D02*
X9267801Y-8430746D01*
X9267801Y-8430746D02*
X9267801Y-8487889D01*
X9267801Y-8487889D02*
X9258277Y-8506936D01*
X9258277Y-8506936D02*
X9248753Y-8516460D01*
X9248753Y-8516460D02*
X9229706Y-8525984D01*
X9229706Y-8525984D02*
X9201134Y-8525984D01*
X9382087Y-8525984D02*
X9363039Y-8516460D01*
X9363039Y-8516460D02*
X9353515Y-8497412D01*
X9353515Y-8497412D02*
X9353515Y-8325984D01*
X9534468Y-8516460D02*
X9515420Y-8525984D01*
X9515420Y-8525984D02*
X9477325Y-8525984D01*
X9477325Y-8525984D02*
X9458277Y-8516460D01*
X9458277Y-8516460D02*
X9448753Y-8497412D01*
X9448753Y-8497412D02*
X9448753Y-8421222D01*
X9448753Y-8421222D02*
X9458277Y-8402174D01*
X9458277Y-8402174D02*
X9477325Y-8392650D01*
X9477325Y-8392650D02*
X9515420Y-8392650D01*
X9515420Y-8392650D02*
X9534468Y-8402174D01*
X9534468Y-8402174D02*
X9543992Y-8421222D01*
X9543992Y-8421222D02*
X9543992Y-8440270D01*
X9543992Y-8440270D02*
X9448753Y-8459317D01*
X9620182Y-8516460D02*
X9639230Y-8525984D01*
X9639230Y-8525984D02*
X9677325Y-8525984D01*
X9677325Y-8525984D02*
X9696373Y-8516460D01*
X9696373Y-8516460D02*
X9705896Y-8497412D01*
X9705896Y-8497412D02*
X9705896Y-8487889D01*
X9705896Y-8487889D02*
X9696373Y-8468841D01*
X9696373Y-8468841D02*
X9677325Y-8459317D01*
X9677325Y-8459317D02*
X9648753Y-8459317D01*
X9648753Y-8459317D02*
X9629706Y-8449793D01*
X9629706Y-8449793D02*
X9620182Y-8430746D01*
X9620182Y-8430746D02*
X9620182Y-8421222D01*
X9620182Y-8421222D02*
X9629706Y-8402174D01*
X9629706Y-8402174D02*
X9648753Y-8392650D01*
X9648753Y-8392650D02*
X9677325Y-8392650D01*
X9677325Y-8392650D02*
X9696373Y-8402174D01*
X9772563Y-8602174D02*
X9782087Y-8592650D01*
X9782087Y-8592650D02*
X9801134Y-8564079D01*
X9801134Y-8564079D02*
X9810658Y-8545031D01*
X9810658Y-8545031D02*
X9820182Y-8516460D01*
X9820182Y-8516460D02*
X9829706Y-8468841D01*
X9829706Y-8468841D02*
X9829706Y-8430746D01*
X9829706Y-8430746D02*
X9820182Y-8383127D01*
X9820182Y-8383127D02*
X9810658Y-8354555D01*
X9810658Y-8354555D02*
X9801134Y-8335508D01*
X9801134Y-8335508D02*
X9782087Y-8306936D01*
X9782087Y-8306936D02*
X9772563Y-8297412D01*
M02*
