M48
; DRILL file {KiCad 8.0.5} date 2024-10-13T23:37:33+0200
; FORMAT={-:-/ absolute / metric / decimal}
; #@! TF.CreationDate,2024-10-13T23:37:33+02:00
; #@! TF.GenerationSoftware,Kicad,Pcbnew,8.0.5
; #@! TF.FileFunction,NonPlated,1,4,NPTH
FMAT,2
METRIC
; #@! TA.AperFunction,NonPlated,NPTH,ComponentDrill
T1C0.500
; #@! TA.AperFunction,NonPlated,NPTH,ComponentDrill
T2C1.152
%
G90
G05
T1
X59.25Y-48.25
X59.25Y-49.75
X59.25Y-70.25
X59.25Y-71.75
X59.25Y-92.25
X59.25Y-93.75
X59.25Y-114.25
X59.25Y-115.75
X59.25Y-136.25
X59.25Y-137.75
X59.25Y-158.25
X59.25Y-159.75
X60.0Y-48.25
X60.0Y-49.75
X60.0Y-70.25
X60.0Y-71.75
X60.0Y-92.25
X60.0Y-93.75
X60.0Y-114.25
X60.0Y-115.75
X60.0Y-136.25
X60.0Y-137.75
X60.0Y-158.25
X60.0Y-159.75
X60.75Y-48.25
X60.75Y-49.75
X60.75Y-70.25
X60.75Y-71.75
X60.75Y-92.25
X60.75Y-93.75
X60.75Y-114.25
X60.75Y-115.75
X60.75Y-136.25
X60.75Y-137.75
X60.75Y-158.25
X60.75Y-159.75
X74.25Y-48.25
X74.25Y-49.75
X74.25Y-70.25
X74.25Y-71.75
X74.25Y-92.25
X74.25Y-93.75
X74.25Y-114.25
X74.25Y-115.75
X74.25Y-136.25
X74.25Y-137.75
X74.25Y-158.25
X74.25Y-159.75
X75.0Y-48.25
X75.0Y-49.75
X75.0Y-70.25
X75.0Y-71.75
X75.0Y-92.25
X75.0Y-93.75
X75.0Y-114.25
X75.0Y-115.75
X75.0Y-136.25
X75.0Y-137.75
X75.0Y-158.25
X75.0Y-159.75
X75.75Y-48.25
X75.75Y-49.75
X75.75Y-70.25
X75.75Y-71.75
X75.75Y-92.25
X75.75Y-93.75
X75.75Y-114.25
X75.75Y-115.75
X75.75Y-136.25
X75.75Y-137.75
X75.75Y-158.25
X75.75Y-159.75
X89.25Y-48.25
X89.25Y-49.75
X89.25Y-70.25
X89.25Y-71.75
X89.25Y-92.25
X89.25Y-93.75
X89.25Y-114.25
X89.25Y-115.75
X89.25Y-136.25
X89.25Y-137.75
X89.25Y-158.25
X89.25Y-159.75
X90.0Y-48.25
X90.0Y-49.75
X90.0Y-70.25
X90.0Y-71.75
X90.0Y-92.25
X90.0Y-93.75
X90.0Y-114.25
X90.0Y-115.75
X90.0Y-136.25
X90.0Y-137.75
X90.0Y-158.25
X90.0Y-159.75
X90.75Y-48.25
X90.75Y-49.75
X90.75Y-70.25
X90.75Y-71.75
X90.75Y-92.25
X90.75Y-93.75
X90.75Y-114.25
X90.75Y-115.75
X90.75Y-136.25
X90.75Y-137.75
X90.75Y-158.25
X90.75Y-159.75
X100.25Y-59.25
X100.25Y-60.0
X100.25Y-60.75
X100.25Y-81.25
X100.25Y-82.0
X100.25Y-82.75
X100.25Y-103.25
X100.25Y-104.0
X100.25Y-104.75
X100.25Y-125.25
X100.25Y-126.0
X100.25Y-126.75
X100.25Y-147.25
X100.25Y-148.0
X100.25Y-148.75
X101.75Y-59.25
X101.75Y-60.0
X101.75Y-60.75
X101.75Y-81.25
X101.75Y-82.0
X101.75Y-82.75
X101.75Y-103.25
X101.75Y-104.0
X101.75Y-104.75
X101.75Y-125.25
X101.75Y-126.0
X101.75Y-126.75
X101.75Y-147.25
X101.75Y-148.0
X101.75Y-148.75
X111.25Y-48.25
X111.25Y-49.75
X111.25Y-70.25
X111.25Y-71.75
X111.25Y-92.25
X111.25Y-93.75
X111.25Y-114.25
X111.25Y-115.75
X111.25Y-136.25
X111.25Y-137.75
X111.25Y-158.25
X111.25Y-159.75
X112.0Y-48.25
X112.0Y-49.75
X112.0Y-70.25
X112.0Y-71.75
X112.0Y-92.25
X112.0Y-93.75
X112.0Y-114.25
X112.0Y-115.75
X112.0Y-136.25
X112.0Y-137.75
X112.0Y-158.25
X112.0Y-159.75
X112.75Y-48.25
X112.75Y-49.75
X112.75Y-70.25
X112.75Y-71.75
X112.75Y-92.25
X112.75Y-93.75
X112.75Y-114.25
X112.75Y-115.75
X112.75Y-136.25
X112.75Y-137.75
X112.75Y-158.25
X112.75Y-159.75
X126.25Y-48.25
X126.25Y-49.75
X126.25Y-70.25
X126.25Y-71.75
X126.25Y-92.25
X126.25Y-93.75
X126.25Y-114.25
X126.25Y-115.75
X126.25Y-136.25
X126.25Y-137.75
X126.25Y-158.25
X126.25Y-159.75
X127.0Y-48.25
X127.0Y-49.75
X127.0Y-70.25
X127.0Y-71.75
X127.0Y-92.25
X127.0Y-93.75
X127.0Y-114.25
X127.0Y-115.75
X127.0Y-136.25
X127.0Y-137.75
X127.0Y-158.25
X127.0Y-159.75
X127.75Y-48.25
X127.75Y-49.75
X127.75Y-70.25
X127.75Y-71.75
X127.75Y-92.25
X127.75Y-93.75
X127.75Y-114.25
X127.75Y-115.75
X127.75Y-136.25
X127.75Y-137.75
X127.75Y-158.25
X127.75Y-159.75
X141.25Y-48.25
X141.25Y-49.75
X141.25Y-70.25
X141.25Y-71.75
X141.25Y-92.25
X141.25Y-93.75
X141.25Y-114.25
X141.25Y-115.75
X141.25Y-136.25
X141.25Y-137.75
X141.25Y-158.25
X141.25Y-159.75
X142.0Y-48.25
X142.0Y-49.75
X142.0Y-70.25
X142.0Y-71.75
X142.0Y-92.25
X142.0Y-93.75
X142.0Y-114.25
X142.0Y-115.75
X142.0Y-136.25
X142.0Y-137.75
X142.0Y-158.25
X142.0Y-159.75
X142.75Y-48.25
X142.75Y-49.75
X142.75Y-70.25
X142.75Y-71.75
X142.75Y-92.25
X142.75Y-93.75
X142.75Y-114.25
X142.75Y-115.75
X142.75Y-136.25
X142.75Y-137.75
X142.75Y-158.25
X142.75Y-159.75
T2
X52.0Y-42.0
X52.0Y-166.0
X150.0Y-42.0
X150.0Y-166.0
M30
