G04 #@! TF.GenerationSoftware,KiCad,Pcbnew,8.0.5*
G04 #@! TF.CreationDate,2024-10-13T18:51:58+02:00*
G04 #@! TF.ProjectId,DCDC_converter,44434443-5f63-46f6-9e76-65727465722e,rev?*
G04 #@! TF.SameCoordinates,Original*
G04 #@! TF.FileFunction,Soldermask,Top*
G04 #@! TF.FilePolarity,Negative*
%FSLAX46Y46*%
G04 Gerber Fmt 4.6, Leading zero omitted, Abs format (unit mm)*
G04 Created by KiCad (PCBNEW 8.0.5) date 2024-10-13 18:51:58*
%MOMM*%
%LPD*%
G01*
G04 APERTURE LIST*
G04 Aperture macros list*
%AMRoundRect*
0 Rectangle with rounded corners*
0 $1 Rounding radius*
0 $2 $3 $4 $5 $6 $7 $8 $9 X,Y pos of 4 corners*
0 Add a 4 corners polygon primitive as box body*
4,1,4,$2,$3,$4,$5,$6,$7,$8,$9,$2,$3,0*
0 Add four circle primitives for the rounded corners*
1,1,$1+$1,$2,$3*
1,1,$1+$1,$4,$5*
1,1,$1+$1,$6,$7*
1,1,$1+$1,$8,$9*
0 Add four rect primitives between the rounded corners*
20,1,$1+$1,$2,$3,$4,$5,0*
20,1,$1+$1,$4,$5,$6,$7,0*
20,1,$1+$1,$6,$7,$8,$9,0*
20,1,$1+$1,$8,$9,$2,$3,0*%
G04 Aperture macros list end*
%ADD10C,0.049999*%
%ADD11R,2.413000X5.334000*%
%ADD12C,1.000000*%
%ADD13RoundRect,0.250000X0.250000X0.475000X-0.250000X0.475000X-0.250000X-0.475000X0.250000X-0.475000X0*%
%ADD14RoundRect,0.200000X-0.200000X-0.275000X0.200000X-0.275000X0.200000X0.275000X-0.200000X0.275000X0*%
%ADD15RoundRect,0.250000X-0.475000X0.250000X-0.475000X-0.250000X0.475000X-0.250000X0.475000X0.250000X0*%
%ADD16RoundRect,0.200000X-0.275000X0.200000X-0.275000X-0.200000X0.275000X-0.200000X0.275000X0.200000X0*%
%ADD17RoundRect,0.200000X0.275000X-0.200000X0.275000X0.200000X-0.275000X0.200000X-0.275000X-0.200000X0*%
%ADD18RoundRect,0.225000X0.225000X0.250000X-0.225000X0.250000X-0.225000X-0.250000X0.225000X-0.250000X0*%
%ADD19O,1.700000X1.700000*%
%ADD20R,1.700000X1.700000*%
%ADD21RoundRect,0.200000X0.200000X0.275000X-0.200000X0.275000X-0.200000X-0.275000X0.200000X-0.275000X0*%
%ADD22R,1.600000X1.600000*%
%ADD23C,1.600000*%
%ADD24RoundRect,0.218750X-0.218750X-0.256250X0.218750X-0.256250X0.218750X0.256250X-0.218750X0.256250X0*%
%ADD25RoundRect,0.225000X0.250000X-0.225000X0.250000X0.225000X-0.250000X0.225000X-0.250000X-0.225000X0*%
%ADD26RoundRect,0.225000X-0.250000X0.225000X-0.250000X-0.225000X0.250000X-0.225000X0.250000X0.225000X0*%
%ADD27R,1.500000X0.300000*%
%ADD28R,0.250000X0.700000*%
%ADD29R,0.700000X0.300000*%
G04 APERTURE END LIST*
D10*
X80835892Y-66310750D02*
X80957811Y-66315070D01*
X81078695Y-66322233D01*
X81198341Y-66332201D01*
X81316548Y-66344931D01*
X81433110Y-66360385D01*
X81547827Y-66378523D01*
X81660493Y-66399303D01*
X81770908Y-66422686D01*
X81878866Y-66448632D01*
X81984167Y-66477100D01*
X82086606Y-66508050D01*
X82185980Y-66541442D01*
X82282087Y-66577236D01*
X82374723Y-66615392D01*
X82463687Y-66655869D01*
X82548347Y-66698404D01*
X82628155Y-66742698D01*
X82703027Y-66788653D01*
X82772877Y-66836174D01*
X82837623Y-66885162D01*
X82897180Y-66935522D01*
X82951464Y-66987157D01*
X83000391Y-67039969D01*
X83043877Y-67093863D01*
X83063553Y-67121186D01*
X83081837Y-67148742D01*
X83098719Y-67176521D01*
X83114188Y-67204509D01*
X83128234Y-67232695D01*
X83140846Y-67261067D01*
X83152014Y-67289613D01*
X83161726Y-67318320D01*
X83169974Y-67347176D01*
X83176745Y-67376170D01*
X83182030Y-67405290D01*
X83185818Y-67434522D01*
X83188098Y-67463856D01*
X83188861Y-67493278D01*
X83188095Y-67522671D01*
X83185813Y-67551977D01*
X83182024Y-67581183D01*
X83176738Y-67610277D01*
X83169966Y-67639248D01*
X83161719Y-67668082D01*
X83140841Y-67725294D01*
X83114187Y-67781817D01*
X83081841Y-67837553D01*
X83043889Y-67892405D01*
X83000413Y-67946276D01*
X82951497Y-67999070D01*
X82897226Y-68050689D01*
X82837684Y-68101036D01*
X82772955Y-68150014D01*
X82703123Y-68197526D01*
X82628271Y-68243475D01*
X82548484Y-68287763D01*
X82463847Y-68330295D01*
X82374908Y-68370769D01*
X82282295Y-68408923D01*
X82186213Y-68444715D01*
X82086862Y-68478107D01*
X81984447Y-68509059D01*
X81879170Y-68537528D01*
X81771234Y-68563477D01*
X81660840Y-68586864D01*
X81548193Y-68607649D01*
X81433495Y-68625793D01*
X81316948Y-68641254D01*
X81198756Y-68653993D01*
X81079121Y-68663969D01*
X80958245Y-68671143D01*
X80836332Y-68675474D01*
X80713584Y-68676921D01*
X80586233Y-68675378D01*
X80460554Y-68670804D01*
X80336703Y-68663273D01*
X80214834Y-68652861D01*
X80095104Y-68639641D01*
X79977668Y-68623689D01*
X79862682Y-68605077D01*
X79750300Y-68583881D01*
X79640679Y-68560176D01*
X79533974Y-68534035D01*
X79430340Y-68505532D01*
X79329932Y-68474743D01*
X79232908Y-68441742D01*
X79139421Y-68406602D01*
X79049627Y-68369399D01*
X78963682Y-68330207D01*
X78881741Y-68289099D01*
X78803960Y-68246151D01*
X78730494Y-68201437D01*
X78724263Y-68197246D01*
X78661498Y-68155031D01*
X78597129Y-68107008D01*
X78581191Y-68093750D01*
X78873981Y-68093750D01*
X78873981Y-68197246D01*
X79600154Y-68197246D01*
X79600154Y-68093750D01*
X81798293Y-68093750D01*
X81798293Y-68197246D01*
X82524787Y-68197246D01*
X82524787Y-68093750D01*
X81798293Y-68093750D01*
X79600154Y-68093750D01*
X78873981Y-68093750D01*
X78581191Y-68093750D01*
X78537542Y-68057442D01*
X78482891Y-68006407D01*
X78433333Y-67953978D01*
X78428369Y-67947956D01*
X78389024Y-67900229D01*
X78350117Y-67845235D01*
X78316770Y-67789069D01*
X78289137Y-67731807D01*
X78267375Y-67673523D01*
X78251637Y-67614290D01*
X78242081Y-67554184D01*
X78238861Y-67493278D01*
X78239609Y-67463882D01*
X78241875Y-67434574D01*
X78245649Y-67405364D01*
X78250919Y-67376267D01*
X78257675Y-67347293D01*
X78265908Y-67318455D01*
X78286757Y-67261235D01*
X78313384Y-67204704D01*
X78345703Y-67148959D01*
X78383631Y-67094098D01*
X78427085Y-67040217D01*
X78475979Y-66987413D01*
X78530229Y-66935784D01*
X78589753Y-66885426D01*
X78654466Y-66836437D01*
X78718057Y-66793152D01*
X79754264Y-66793152D01*
X79754264Y-67947956D01*
X79900336Y-67947956D01*
X79900336Y-67409645D01*
X80493629Y-67409645D01*
X80493629Y-67947956D01*
X80639377Y-67947956D01*
X80639377Y-67947952D01*
X80955646Y-67947952D01*
X81101394Y-67947952D01*
X81101394Y-67500000D01*
X81219794Y-67396503D01*
X81629695Y-67947952D01*
X81801822Y-67947952D01*
X81325000Y-67296211D01*
X81783805Y-66793148D01*
X81613604Y-66793148D01*
X81300872Y-67142731D01*
X81200168Y-67252636D01*
X81175161Y-67280122D01*
X81150378Y-67307591D01*
X81101398Y-67362541D01*
X81101398Y-66793152D01*
X80955649Y-66793152D01*
X80955646Y-67947952D01*
X80639377Y-67947952D01*
X80639377Y-66793152D01*
X80493629Y-66793152D01*
X80493629Y-67281795D01*
X79900336Y-67281795D01*
X79900336Y-66793152D01*
X79754264Y-66793152D01*
X78718057Y-66793152D01*
X78724283Y-66788914D01*
X78799121Y-66742953D01*
X78878896Y-66698653D01*
X78963523Y-66656109D01*
X79052454Y-66615623D01*
X79145059Y-66577457D01*
X79241136Y-66541653D01*
X79340481Y-66508249D01*
X79442891Y-66477286D01*
X79548165Y-66448805D01*
X79656098Y-66422845D01*
X79766487Y-66399447D01*
X79879131Y-66378652D01*
X79993826Y-66360498D01*
X80110368Y-66345027D01*
X80228556Y-66332278D01*
X80348186Y-66322293D01*
X80469055Y-66315110D01*
X80590960Y-66310771D01*
X80713422Y-66309318D01*
X80835892Y-66310750D01*
G36*
X80835892Y-66310750D02*
G01*
X80957811Y-66315070D01*
X81078695Y-66322233D01*
X81198341Y-66332201D01*
X81316548Y-66344931D01*
X81433110Y-66360385D01*
X81547827Y-66378523D01*
X81660493Y-66399303D01*
X81770908Y-66422686D01*
X81878866Y-66448632D01*
X81984167Y-66477100D01*
X82086606Y-66508050D01*
X82185980Y-66541442D01*
X82282087Y-66577236D01*
X82374723Y-66615392D01*
X82463687Y-66655869D01*
X82548347Y-66698404D01*
X82628155Y-66742698D01*
X82703027Y-66788653D01*
X82772877Y-66836174D01*
X82837623Y-66885162D01*
X82897180Y-66935522D01*
X82951464Y-66987157D01*
X83000391Y-67039969D01*
X83043877Y-67093863D01*
X83063553Y-67121186D01*
X83081837Y-67148742D01*
X83098719Y-67176521D01*
X83114188Y-67204509D01*
X83128234Y-67232695D01*
X83140846Y-67261067D01*
X83152014Y-67289613D01*
X83161726Y-67318320D01*
X83169974Y-67347176D01*
X83176745Y-67376170D01*
X83182030Y-67405290D01*
X83185818Y-67434522D01*
X83188098Y-67463856D01*
X83188861Y-67493278D01*
X83188095Y-67522671D01*
X83185813Y-67551977D01*
X83182024Y-67581183D01*
X83176738Y-67610277D01*
X83169966Y-67639248D01*
X83161719Y-67668082D01*
X83140841Y-67725294D01*
X83114187Y-67781817D01*
X83081841Y-67837553D01*
X83043889Y-67892405D01*
X83000413Y-67946276D01*
X82951497Y-67999070D01*
X82897226Y-68050689D01*
X82837684Y-68101036D01*
X82772955Y-68150014D01*
X82703123Y-68197526D01*
X82628271Y-68243475D01*
X82548484Y-68287763D01*
X82463847Y-68330295D01*
X82374908Y-68370769D01*
X82282295Y-68408923D01*
X82186213Y-68444715D01*
X82086862Y-68478107D01*
X81984447Y-68509059D01*
X81879170Y-68537528D01*
X81771234Y-68563477D01*
X81660840Y-68586864D01*
X81548193Y-68607649D01*
X81433495Y-68625793D01*
X81316948Y-68641254D01*
X81198756Y-68653993D01*
X81079121Y-68663969D01*
X80958245Y-68671143D01*
X80836332Y-68675474D01*
X80713584Y-68676921D01*
X80586233Y-68675378D01*
X80460554Y-68670804D01*
X80336703Y-68663273D01*
X80214834Y-68652861D01*
X80095104Y-68639641D01*
X79977668Y-68623689D01*
X79862682Y-68605077D01*
X79750300Y-68583881D01*
X79640679Y-68560176D01*
X79533974Y-68534035D01*
X79430340Y-68505532D01*
X79329932Y-68474743D01*
X79232908Y-68441742D01*
X79139421Y-68406602D01*
X79049627Y-68369399D01*
X78963682Y-68330207D01*
X78881741Y-68289099D01*
X78803960Y-68246151D01*
X78730494Y-68201437D01*
X78724263Y-68197246D01*
X78661498Y-68155031D01*
X78597129Y-68107008D01*
X78581191Y-68093750D01*
X78873981Y-68093750D01*
X78873981Y-68197246D01*
X79600154Y-68197246D01*
X79600154Y-68093750D01*
X81798293Y-68093750D01*
X81798293Y-68197246D01*
X82524787Y-68197246D01*
X82524787Y-68093750D01*
X81798293Y-68093750D01*
X79600154Y-68093750D01*
X78873981Y-68093750D01*
X78581191Y-68093750D01*
X78537542Y-68057442D01*
X78482891Y-68006407D01*
X78433333Y-67953978D01*
X78428369Y-67947956D01*
X78389024Y-67900229D01*
X78350117Y-67845235D01*
X78316770Y-67789069D01*
X78289137Y-67731807D01*
X78267375Y-67673523D01*
X78251637Y-67614290D01*
X78242081Y-67554184D01*
X78238861Y-67493278D01*
X78239609Y-67463882D01*
X78241875Y-67434574D01*
X78245649Y-67405364D01*
X78250919Y-67376267D01*
X78257675Y-67347293D01*
X78265908Y-67318455D01*
X78286757Y-67261235D01*
X78313384Y-67204704D01*
X78345703Y-67148959D01*
X78383631Y-67094098D01*
X78427085Y-67040217D01*
X78475979Y-66987413D01*
X78530229Y-66935784D01*
X78589753Y-66885426D01*
X78654466Y-66836437D01*
X78718057Y-66793152D01*
X79754264Y-66793152D01*
X79754264Y-67947956D01*
X79900336Y-67947956D01*
X79900336Y-67409645D01*
X80493629Y-67409645D01*
X80493629Y-67947956D01*
X80639377Y-67947956D01*
X80639377Y-67947952D01*
X80955646Y-67947952D01*
X81101394Y-67947952D01*
X81101394Y-67500000D01*
X81219794Y-67396503D01*
X81629695Y-67947952D01*
X81801822Y-67947952D01*
X81325000Y-67296211D01*
X81783805Y-66793148D01*
X81613604Y-66793148D01*
X81300872Y-67142731D01*
X81200168Y-67252636D01*
X81175161Y-67280122D01*
X81150378Y-67307591D01*
X81101398Y-67362541D01*
X81101398Y-66793152D01*
X80955649Y-66793152D01*
X80955646Y-67947952D01*
X80639377Y-67947952D01*
X80639377Y-66793152D01*
X80493629Y-66793152D01*
X80493629Y-67281795D01*
X79900336Y-67281795D01*
X79900336Y-66793152D01*
X79754264Y-66793152D01*
X78718057Y-66793152D01*
X78724283Y-66788914D01*
X78799121Y-66742953D01*
X78878896Y-66698653D01*
X78963523Y-66656109D01*
X79052454Y-66615623D01*
X79145059Y-66577457D01*
X79241136Y-66541653D01*
X79340481Y-66508249D01*
X79442891Y-66477286D01*
X79548165Y-66448805D01*
X79656098Y-66422845D01*
X79766487Y-66399447D01*
X79879131Y-66378652D01*
X79993826Y-66360498D01*
X80110368Y-66345027D01*
X80228556Y-66332278D01*
X80348186Y-66322293D01*
X80469055Y-66315110D01*
X80590960Y-66310771D01*
X80713422Y-66309318D01*
X80835892Y-66310750D01*
G37*
X80713422Y-66309318D02*
X80713142Y-66309315D01*
X80713698Y-66309315D01*
X80713422Y-66309318D01*
G36*
X80713422Y-66309318D02*
G01*
X80713142Y-66309315D01*
X80713698Y-66309315D01*
X80713422Y-66309318D01*
G37*
D11*
X82561000Y-60000000D03*
X89800000Y-60000000D03*
D12*
X59000000Y-68500000D03*
X98000000Y-51500000D03*
D13*
X89654998Y-53640000D03*
X87755000Y-53640000D03*
D14*
X67312500Y-51275000D03*
X68962500Y-51275000D03*
D15*
X68772500Y-57735000D03*
X68772500Y-59634998D03*
D13*
X89704998Y-68460000D03*
X87805000Y-68460000D03*
D16*
X77537500Y-52820000D03*
X77537500Y-54470000D03*
D17*
X73732500Y-54475000D03*
X73732500Y-52825000D03*
D18*
X68922500Y-53050000D03*
X67372500Y-53050000D03*
D14*
X71242500Y-64655000D03*
X72892500Y-64655000D03*
X67327500Y-54660000D03*
X68977500Y-54660000D03*
D19*
X96577500Y-64830000D03*
D20*
X94037500Y-64830000D03*
D19*
X96577500Y-54670000D03*
D20*
X94037500Y-54670000D03*
D21*
X76722500Y-63125000D03*
X75072500Y-63125000D03*
D22*
X61317500Y-64440000D03*
D23*
X63817500Y-64440000D03*
D24*
X70850000Y-51275000D03*
X72425000Y-51275000D03*
D25*
X79182500Y-58095000D03*
X79182500Y-56545000D03*
D19*
X53397500Y-67370000D03*
D20*
X55937500Y-67370000D03*
D14*
X71242500Y-66115000D03*
X72892500Y-66115000D03*
X75072500Y-61665000D03*
X76722500Y-61665000D03*
D17*
X71605000Y-54475000D03*
X71605000Y-52825000D03*
D18*
X76672500Y-64655000D03*
X75122500Y-64655000D03*
D15*
X66812500Y-57735002D03*
X66812500Y-59635000D03*
D19*
X53397500Y-52130000D03*
D20*
X55937500Y-52130000D03*
D13*
X89704998Y-66500000D03*
X87805000Y-66500000D03*
X89654999Y-51680000D03*
X87755001Y-51680000D03*
D26*
X70482500Y-57925000D03*
X70482500Y-59475000D03*
D15*
X64852500Y-57735002D03*
X64852500Y-59635000D03*
D14*
X76142500Y-56565000D03*
X77792500Y-56565000D03*
D27*
X73012500Y-57755000D03*
X73012500Y-59055000D03*
D28*
X73062500Y-59855000D03*
X73562500Y-59855000D03*
X74062500Y-59855000D03*
X74562500Y-59855000D03*
D29*
X75012500Y-59055000D03*
D27*
X74612500Y-58405000D03*
D29*
X75012500Y-57755000D03*
D28*
X74562500Y-56955000D03*
X74062500Y-56955000D03*
X73562500Y-56955000D03*
X73062500Y-56955000D03*
D18*
X72742500Y-61395000D03*
X71192500Y-61395000D03*
D17*
X75637500Y-54470000D03*
X75637500Y-52820000D03*
M02*
