G04 #@! TF.GenerationSoftware,KiCad,Pcbnew,8.0.5*
G04 #@! TF.CreationDate,2024-10-13T23:37:30+02:00*
G04 #@! TF.ProjectId,DCDC_converter,44434443-5f63-46f6-9e76-65727465722e,rev?*
G04 #@! TF.SameCoordinates,Original*
G04 #@! TF.FileFunction,Profile,NP*
%FSLAX46Y46*%
G04 Gerber Fmt 4.6, Leading zero omitted, Abs format (unit mm)*
G04 Created by KiCad (PCBNEW 8.0.5) date 2024-10-13 23:37:30*
%MOMM*%
%LPD*%
G01*
G04 APERTURE LIST*
G04 #@! TA.AperFunction,Profile*
%ADD10C,0.050000*%
G04 #@! TD*
G04 APERTURE END LIST*
D10*
X58000000Y-158000000D02*
G75*
G02*
X58000000Y-160000000I0J-1000000D01*
G01*
X152000000Y-138000000D02*
X152000000Y-146000000D01*
X114000000Y-48000000D02*
X125000000Y-48000000D01*
X140000000Y-158000000D02*
G75*
G02*
X140000000Y-160000000I0J-1000000D01*
G01*
X88000000Y-92000000D02*
G75*
G02*
X88000000Y-94000000I0J-1000000D01*
G01*
X144000000Y-116000000D02*
X152000000Y-116000000D01*
X110000000Y-70000000D02*
G75*
G02*
X110000000Y-72000000I0J-1000000D01*
G01*
X58000000Y-138000000D02*
X50000000Y-138000000D01*
X77000000Y-114000000D02*
X88000000Y-114000000D01*
X152000000Y-94000000D02*
X144000000Y-94000000D01*
X114000000Y-136000000D02*
X125000000Y-136000000D01*
X92000000Y-72000000D02*
X100000000Y-72000000D01*
X109200000Y-81200000D02*
G75*
G02*
X109200000Y-82200000I0J-500000D01*
G01*
X100000000Y-70000000D02*
X100000000Y-62000000D01*
X102000000Y-62000000D02*
X102000000Y-70000000D01*
X57200000Y-125200000D02*
G75*
G02*
X57200000Y-126200000I0J-500000D01*
G01*
X52800000Y-126200000D02*
G75*
G02*
X52800000Y-125200000I0J500000D01*
G01*
X73000000Y-158000000D02*
G75*
G02*
X73000000Y-160000000I0J-1000000D01*
G01*
X50000000Y-92000000D02*
X50000000Y-72000000D01*
X148500000Y-60000000D02*
G75*
G02*
X146500000Y-60000000I-1000000J0D01*
G01*
X146500000Y-60000000D02*
G75*
G02*
X148500000Y-60000000I1000000J0D01*
G01*
X109200000Y-125200000D02*
G75*
G02*
X109200000Y-126200000I0J-500000D01*
G01*
X148500000Y-82000000D02*
G75*
G02*
X146500000Y-82000000I-1000000J0D01*
G01*
X146500000Y-82000000D02*
G75*
G02*
X148500000Y-82000000I1000000J0D01*
G01*
X148500000Y-148000000D02*
G75*
G02*
X146500000Y-148000000I-1000000J0D01*
G01*
X146500000Y-148000000D02*
G75*
G02*
X148500000Y-148000000I1000000J0D01*
G01*
X129000000Y-94000000D02*
G75*
G02*
X129000000Y-92000000I0J1000000D01*
G01*
X114000000Y-72000000D02*
X125000000Y-72000000D01*
X88000000Y-70000000D02*
G75*
G02*
X88000000Y-72000000I0J-1000000D01*
G01*
X77000000Y-92000000D02*
X88000000Y-92000000D01*
X140000000Y-114000000D02*
G75*
G02*
X140000000Y-116000000I0J-1000000D01*
G01*
X110000000Y-136000000D02*
G75*
G02*
X110000000Y-138000000I0J-1000000D01*
G01*
X100000000Y-84000000D02*
G75*
G02*
X102000000Y-84000000I1000000J0D01*
G01*
X52800000Y-82200000D02*
G75*
G02*
X52800000Y-81200000I0J500000D01*
G01*
X100000000Y-138000000D02*
X92000000Y-138000000D01*
X58000000Y-48000000D02*
G75*
G02*
X58000000Y-50000000I0J-1000000D01*
G01*
X102000000Y-136000000D02*
X110000000Y-136000000D01*
X92000000Y-70000000D02*
X100000000Y-70000000D01*
X50000000Y-70000000D02*
X58000000Y-70000000D01*
X50000000Y-114000000D02*
X58000000Y-114000000D01*
X57200000Y-104200000D02*
X52800000Y-104200000D01*
X73000000Y-138000000D02*
X62000000Y-138000000D01*
X92000000Y-116000000D02*
G75*
G02*
X92000000Y-114000000I0J1000000D01*
G01*
X104800000Y-60200000D02*
G75*
G02*
X104800000Y-59200000I0J500000D01*
G01*
X62000000Y-72000000D02*
X73000000Y-72000000D01*
X109200000Y-103200000D02*
G75*
G02*
X109200000Y-104200000I0J-500000D01*
G01*
X73000000Y-48000000D02*
G75*
G02*
X73000000Y-50000000I0J-1000000D01*
G01*
X57200000Y-82200000D02*
X52800000Y-82200000D01*
X104800000Y-103200000D02*
X109200000Y-103200000D01*
X152000000Y-70000000D02*
X152000000Y-62000000D01*
X50000000Y-136000000D02*
X50000000Y-116000000D01*
X52800000Y-148200000D02*
G75*
G02*
X52800000Y-147200000I0J500000D01*
G01*
X129000000Y-114000000D02*
X140000000Y-114000000D01*
X52800000Y-147200000D02*
X57200000Y-147200000D01*
X100000000Y-136000000D02*
X100000000Y-128000000D01*
X88000000Y-158000000D02*
G75*
G02*
X88000000Y-160000000I0J-1000000D01*
G01*
X152000000Y-168000000D02*
X50000000Y-168000000D01*
X62000000Y-116000000D02*
G75*
G02*
X62000000Y-114000000I0J1000000D01*
G01*
X114000000Y-94000000D02*
G75*
G02*
X114000000Y-92000000I0J1000000D01*
G01*
X58000000Y-94000000D02*
X50000000Y-94000000D01*
X140000000Y-136000000D02*
G75*
G02*
X140000000Y-138000000I0J-1000000D01*
G01*
X73000000Y-136000000D02*
G75*
G02*
X73000000Y-138000000I0J-1000000D01*
G01*
X88000000Y-94000000D02*
X77000000Y-94000000D01*
X152000000Y-50000000D02*
X152000000Y-58000000D01*
X100000000Y-150000000D02*
G75*
G02*
X102000000Y-150000000I1000000J0D01*
G01*
X152000000Y-138000000D02*
X144000000Y-138000000D01*
X102000000Y-136000000D02*
X102000000Y-128000000D01*
X62000000Y-92000000D02*
X73000000Y-92000000D01*
X73000000Y-70000000D02*
G75*
G02*
X73000000Y-72000000I0J-1000000D01*
G01*
X104800000Y-82200000D02*
G75*
G02*
X104800000Y-81200000I0J500000D01*
G01*
X62000000Y-158000000D02*
X73000000Y-158000000D01*
X102000000Y-102000000D02*
G75*
G02*
X100000000Y-102000000I-1000000J0D01*
G01*
X114000000Y-116000000D02*
X125000000Y-116000000D01*
X100000000Y-158000000D02*
X100000000Y-150000000D01*
X144000000Y-158000000D02*
X152000000Y-158000000D01*
X152000000Y-150000000D02*
X152000000Y-146000000D01*
X129000000Y-158000000D02*
X140000000Y-158000000D01*
X96500000Y-104000000D02*
G75*
G02*
X94500000Y-104000000I-1000000J0D01*
G01*
X94500000Y-104000000D02*
G75*
G02*
X96500000Y-104000000I1000000J0D01*
G01*
X129000000Y-160000000D02*
G75*
G02*
X129000000Y-158000000I0J1000000D01*
G01*
X62000000Y-116000000D02*
X73000000Y-116000000D01*
X50000000Y-136000000D02*
X58000000Y-136000000D01*
X144000000Y-92000000D02*
X152000000Y-92000000D01*
X104800000Y-126200000D02*
G75*
G02*
X104800000Y-125200000I0J500000D01*
G01*
X152000000Y-128000000D02*
X152000000Y-124000000D01*
X50000000Y-158000000D02*
X50000000Y-138000000D01*
X129000000Y-72000000D02*
G75*
G02*
X129000000Y-70000000I0J1000000D01*
G01*
X92000000Y-160000000D02*
G75*
G02*
X92000000Y-158000000I0J1000000D01*
G01*
X109200000Y-59200000D02*
G75*
G02*
X109200000Y-60200000I0J-500000D01*
G01*
X102000000Y-58000000D02*
G75*
G02*
X100000000Y-58000000I-1000000J0D01*
G01*
X129000000Y-138000000D02*
G75*
G02*
X129000000Y-136000000I0J1000000D01*
G01*
X114000000Y-116000000D02*
G75*
G02*
X114000000Y-114000000I0J1000000D01*
G01*
X102000000Y-72000000D02*
X110000000Y-72000000D01*
X52800000Y-104200000D02*
G75*
G02*
X52800000Y-103200000I0J500000D01*
G01*
X102000000Y-106000000D02*
X102000000Y-114000000D01*
X114000000Y-160000000D02*
G75*
G02*
X114000000Y-158000000I0J1000000D01*
G01*
X114000000Y-160000000D02*
X125000000Y-160000000D01*
X92000000Y-158000000D02*
X100000000Y-158000000D01*
X50000000Y-158000000D02*
X58000000Y-158000000D01*
X144000000Y-50000000D02*
G75*
G02*
X144000000Y-48000000I0J1000000D01*
G01*
X77000000Y-160000000D02*
X88000000Y-160000000D01*
X62000000Y-136000000D02*
X73000000Y-136000000D01*
X77000000Y-50000000D02*
X88000000Y-50000000D01*
X58000000Y-70000000D02*
G75*
G02*
X58000000Y-72000000I0J-1000000D01*
G01*
X129000000Y-50000000D02*
G75*
G02*
X129000000Y-48000000I0J1000000D01*
G01*
X73000000Y-94000000D02*
X62000000Y-94000000D01*
X92000000Y-116000000D02*
X100000000Y-116000000D01*
X152000000Y-158000000D02*
X152000000Y-150000000D01*
X144000000Y-72000000D02*
X152000000Y-72000000D01*
X129000000Y-72000000D02*
X140000000Y-72000000D01*
X57200000Y-59200000D02*
G75*
G02*
X57200000Y-60200000I0J-500000D01*
G01*
X129000000Y-70000000D02*
X140000000Y-70000000D01*
X58000000Y-92000000D02*
G75*
G02*
X58000000Y-94000000I0J-1000000D01*
G01*
X152000000Y-92000000D02*
X152000000Y-84000000D01*
X144000000Y-160000000D02*
G75*
G02*
X144000000Y-158000000I0J1000000D01*
G01*
X50000000Y-40000000D02*
X50000000Y-48000000D01*
X50000000Y-116000000D02*
X58000000Y-116000000D01*
X102000000Y-72000000D02*
X102000000Y-80000000D01*
X88000000Y-48000000D02*
G75*
G02*
X88000000Y-50000000I0J-1000000D01*
G01*
X52800000Y-60200000D02*
G75*
G02*
X52800000Y-59200000I0J500000D01*
G01*
X52800000Y-125200000D02*
X57200000Y-125200000D01*
X92000000Y-114000000D02*
X100000000Y-114000000D01*
X144000000Y-48000000D02*
X152000000Y-48000000D01*
X96500000Y-82000000D02*
G75*
G02*
X94500000Y-82000000I-1000000J0D01*
G01*
X94500000Y-82000000D02*
G75*
G02*
X96500000Y-82000000I1000000J0D01*
G01*
X102000000Y-124000000D02*
G75*
G02*
X100000000Y-124000000I-1000000J0D01*
G01*
X96500000Y-60000000D02*
G75*
G02*
X94500000Y-60000000I-1000000J0D01*
G01*
X94500000Y-60000000D02*
G75*
G02*
X96500000Y-60000000I1000000J0D01*
G01*
X109200000Y-104200000D02*
X104800000Y-104200000D01*
X102000000Y-70000000D02*
X110000000Y-70000000D01*
X129000000Y-136000000D02*
X140000000Y-136000000D01*
X73000000Y-114000000D02*
G75*
G02*
X73000000Y-116000000I0J-1000000D01*
G01*
X100000000Y-92000000D02*
X100000000Y-84000000D01*
X62000000Y-160000000D02*
X73000000Y-160000000D01*
X152000000Y-116000000D02*
X152000000Y-124000000D01*
X125000000Y-94000000D02*
X114000000Y-94000000D01*
X109200000Y-60200000D02*
X104800000Y-60200000D01*
X88000000Y-136000000D02*
G75*
G02*
X88000000Y-138000000I0J-1000000D01*
G01*
X110000000Y-138000000D02*
X102000000Y-138000000D01*
X100000000Y-72000000D02*
X100000000Y-80000000D01*
X92000000Y-92000000D02*
X100000000Y-92000000D01*
X50000000Y-48000000D02*
X58000000Y-48000000D01*
X129000000Y-116000000D02*
G75*
G02*
X129000000Y-114000000I0J1000000D01*
G01*
X58000000Y-114000000D02*
G75*
G02*
X58000000Y-116000000I0J-1000000D01*
G01*
X96500000Y-148000000D02*
G75*
G02*
X94500000Y-148000000I-1000000J0D01*
G01*
X94500000Y-148000000D02*
G75*
G02*
X96500000Y-148000000I1000000J0D01*
G01*
X152000000Y-136000000D02*
X152000000Y-128000000D01*
X92000000Y-72000000D02*
G75*
G02*
X92000000Y-70000000I0J1000000D01*
G01*
X77000000Y-50000000D02*
G75*
G02*
X77000000Y-48000000I0J1000000D01*
G01*
X50000000Y-114000000D02*
X50000000Y-94000000D01*
X77000000Y-116000000D02*
G75*
G02*
X77000000Y-114000000I0J1000000D01*
G01*
X144000000Y-160000000D02*
X152000000Y-160000000D01*
X102000000Y-92000000D02*
X102000000Y-84000000D01*
X100000000Y-94000000D02*
X92000000Y-94000000D01*
X102000000Y-80000000D02*
G75*
G02*
X100000000Y-80000000I-1000000J0D01*
G01*
X102000000Y-50000000D02*
X110000000Y-50000000D01*
X140000000Y-138000000D02*
X129000000Y-138000000D01*
X62000000Y-114000000D02*
X73000000Y-114000000D01*
X102000000Y-92000000D02*
X110000000Y-92000000D01*
X62000000Y-50000000D02*
G75*
G02*
X62000000Y-48000000I0J1000000D01*
G01*
X77000000Y-138000000D02*
G75*
G02*
X77000000Y-136000000I0J1000000D01*
G01*
X104800000Y-125200000D02*
X109200000Y-125200000D01*
X104800000Y-81200000D02*
X109200000Y-81200000D01*
X100000000Y-128000000D02*
G75*
G02*
X102000000Y-128000000I1000000J0D01*
G01*
X100000000Y-106000000D02*
G75*
G02*
X102000000Y-106000000I1000000J0D01*
G01*
X114000000Y-50000000D02*
G75*
G02*
X114000000Y-48000000I0J1000000D01*
G01*
X92000000Y-138000000D02*
G75*
G02*
X92000000Y-136000000I0J1000000D01*
G01*
X77000000Y-70000000D02*
X88000000Y-70000000D01*
X100000000Y-94000000D02*
X100000000Y-102000000D01*
X102000000Y-124000000D02*
X102000000Y-116000000D01*
X109200000Y-82200000D02*
X104800000Y-82200000D01*
X102000000Y-138000000D02*
X102000000Y-146000000D01*
X144000000Y-50000000D02*
X152000000Y-50000000D01*
X144000000Y-72000000D02*
G75*
G02*
X144000000Y-70000000I0J1000000D01*
G01*
X100000000Y-114000000D02*
X100000000Y-106000000D01*
X140000000Y-48000000D02*
G75*
G02*
X140000000Y-50000000I0J-1000000D01*
G01*
X152000000Y-114000000D02*
X152000000Y-106000000D01*
X144000000Y-136000000D02*
X152000000Y-136000000D01*
X125000000Y-158000000D02*
G75*
G02*
X125000000Y-160000000I0J-1000000D01*
G01*
X125000000Y-136000000D02*
G75*
G02*
X125000000Y-138000000I0J-1000000D01*
G01*
X100000000Y-116000000D02*
X100000000Y-124000000D01*
X125000000Y-92000000D02*
G75*
G02*
X125000000Y-94000000I0J-1000000D01*
G01*
X104800000Y-147200000D02*
X109200000Y-147200000D01*
X148500000Y-104000000D02*
G75*
G02*
X146500000Y-104000000I-1000000J0D01*
G01*
X146500000Y-104000000D02*
G75*
G02*
X148500000Y-104000000I1000000J0D01*
G01*
X100000000Y-62000000D02*
G75*
G02*
X102000000Y-62000000I1000000J0D01*
G01*
X110000000Y-92000000D02*
G75*
G02*
X110000000Y-94000000I0J-1000000D01*
G01*
X114000000Y-50000000D02*
X125000000Y-50000000D01*
X129000000Y-92000000D02*
X140000000Y-92000000D01*
X100000000Y-138000000D02*
X100000000Y-146000000D01*
X152000000Y-160000000D02*
X152000000Y-168000000D01*
X109200000Y-126200000D02*
X104800000Y-126200000D01*
X92000000Y-48000000D02*
X110000000Y-48000000D01*
X77000000Y-72000000D02*
X88000000Y-72000000D01*
X152000000Y-106000000D02*
X152000000Y-102000000D01*
X100000000Y-50000000D02*
X100000000Y-58000000D01*
X50000000Y-92000000D02*
X58000000Y-92000000D01*
X62000000Y-72000000D02*
G75*
G02*
X62000000Y-70000000I0J1000000D01*
G01*
X125000000Y-138000000D02*
X114000000Y-138000000D01*
X144000000Y-94000000D02*
G75*
G02*
X144000000Y-92000000I0J1000000D01*
G01*
X144000000Y-116000000D02*
G75*
G02*
X144000000Y-114000000I0J1000000D01*
G01*
X144000000Y-70000000D02*
X152000000Y-70000000D01*
X125000000Y-70000000D02*
G75*
G02*
X125000000Y-72000000I0J-1000000D01*
G01*
X102000000Y-158000000D02*
X110000000Y-158000000D01*
X114000000Y-114000000D02*
X125000000Y-114000000D01*
X110000000Y-158000000D02*
G75*
G02*
X110000000Y-160000000I0J-1000000D01*
G01*
X152000000Y-84000000D02*
X152000000Y-80000000D01*
X129000000Y-48000000D02*
X140000000Y-48000000D01*
X88000000Y-138000000D02*
X77000000Y-138000000D01*
X77000000Y-160000000D02*
G75*
G02*
X77000000Y-158000000I0J1000000D01*
G01*
X50000000Y-168000000D02*
X50000000Y-160000000D01*
X57200000Y-148200000D02*
X52800000Y-148200000D01*
X77000000Y-48000000D02*
X88000000Y-48000000D01*
X88000000Y-114000000D02*
G75*
G02*
X88000000Y-116000000I0J-1000000D01*
G01*
X57200000Y-103200000D02*
G75*
G02*
X57200000Y-104200000I0J-500000D01*
G01*
X129000000Y-116000000D02*
X140000000Y-116000000D01*
X57200000Y-60200000D02*
X52800000Y-60200000D01*
X96500000Y-126000000D02*
G75*
G02*
X94500000Y-126000000I-1000000J0D01*
G01*
X94500000Y-126000000D02*
G75*
G02*
X96500000Y-126000000I1000000J0D01*
G01*
X52800000Y-59200000D02*
X57200000Y-59200000D01*
X77000000Y-158000000D02*
X88000000Y-158000000D01*
X58000000Y-136000000D02*
G75*
G02*
X58000000Y-138000000I0J-1000000D01*
G01*
X52800000Y-103200000D02*
X57200000Y-103200000D01*
X152000000Y-72000000D02*
X152000000Y-80000000D01*
X92000000Y-136000000D02*
X100000000Y-136000000D01*
X77000000Y-136000000D02*
X88000000Y-136000000D01*
X102000000Y-114000000D02*
X110000000Y-114000000D01*
X57200000Y-147200000D02*
G75*
G02*
X57200000Y-148200000I0J-500000D01*
G01*
X114000000Y-72000000D02*
G75*
G02*
X114000000Y-70000000I0J1000000D01*
G01*
X50000000Y-70000000D02*
X50000000Y-50000000D01*
X62000000Y-138000000D02*
G75*
G02*
X62000000Y-136000000I0J1000000D01*
G01*
X52800000Y-81200000D02*
X57200000Y-81200000D01*
X104800000Y-59200000D02*
X109200000Y-59200000D01*
X140000000Y-70000000D02*
G75*
G02*
X140000000Y-72000000I0J-1000000D01*
G01*
X140000000Y-94000000D02*
X129000000Y-94000000D01*
X114000000Y-70000000D02*
X125000000Y-70000000D01*
X77000000Y-116000000D02*
X88000000Y-116000000D01*
X152000000Y-94000000D02*
X152000000Y-102000000D01*
X104800000Y-104200000D02*
G75*
G02*
X104800000Y-103200000I0J500000D01*
G01*
X129000000Y-50000000D02*
X140000000Y-50000000D01*
X57200000Y-81200000D02*
G75*
G02*
X57200000Y-82200000I0J-500000D01*
G01*
X77000000Y-94000000D02*
G75*
G02*
X77000000Y-92000000I0J1000000D01*
G01*
X62000000Y-70000000D02*
X73000000Y-70000000D01*
X102000000Y-150000000D02*
X102000000Y-158000000D01*
X110000000Y-94000000D02*
X102000000Y-94000000D01*
X144000000Y-138000000D02*
G75*
G02*
X144000000Y-136000000I0J1000000D01*
G01*
X102000000Y-146000000D02*
G75*
G02*
X100000000Y-146000000I-1000000J0D01*
G01*
X110000000Y-48000000D02*
G75*
G02*
X110000000Y-50000000I0J-1000000D01*
G01*
X102000000Y-116000000D02*
X110000000Y-116000000D01*
X114000000Y-158000000D02*
X125000000Y-158000000D01*
X92000000Y-50000000D02*
G75*
G02*
X92000000Y-48000000I0J1000000D01*
G01*
X50000000Y-160000000D02*
X58000000Y-160000000D01*
X62000000Y-94000000D02*
G75*
G02*
X62000000Y-92000000I0J1000000D01*
G01*
X62000000Y-48000000D02*
X73000000Y-48000000D01*
X62000000Y-50000000D02*
X73000000Y-50000000D01*
X73000000Y-92000000D02*
G75*
G02*
X73000000Y-94000000I0J-1000000D01*
G01*
X125000000Y-114000000D02*
G75*
G02*
X125000000Y-116000000I0J-1000000D01*
G01*
X57200000Y-126200000D02*
X52800000Y-126200000D01*
X110000000Y-114000000D02*
G75*
G02*
X110000000Y-116000000I0J-1000000D01*
G01*
X114000000Y-138000000D02*
G75*
G02*
X114000000Y-136000000I0J1000000D01*
G01*
X92000000Y-50000000D02*
X100000000Y-50000000D01*
X50000000Y-50000000D02*
X58000000Y-50000000D01*
X50000000Y-72000000D02*
X58000000Y-72000000D01*
X109200000Y-148200000D02*
X104800000Y-148200000D01*
X144000000Y-114000000D02*
X152000000Y-114000000D01*
X92000000Y-160000000D02*
X110000000Y-160000000D01*
X102000000Y-50000000D02*
X102000000Y-58000000D01*
X62000000Y-160000000D02*
G75*
G02*
X62000000Y-158000000I0J1000000D01*
G01*
X102000000Y-94000000D02*
X102000000Y-102000000D01*
X114000000Y-92000000D02*
X125000000Y-92000000D01*
X140000000Y-92000000D02*
G75*
G02*
X140000000Y-94000000I0J-1000000D01*
G01*
X129000000Y-160000000D02*
X140000000Y-160000000D01*
X152000000Y-48000000D02*
X152000000Y-40000000D01*
X152000000Y-40000000D02*
X50000000Y-40000000D01*
X109200000Y-147200000D02*
G75*
G02*
X109200000Y-148200000I0J-500000D01*
G01*
X125000000Y-48000000D02*
G75*
G02*
X125000000Y-50000000I0J-1000000D01*
G01*
X104800000Y-148200000D02*
G75*
G02*
X104800000Y-147200000I0J500000D01*
G01*
X152000000Y-62000000D02*
X152000000Y-58000000D01*
X77000000Y-72000000D02*
G75*
G02*
X77000000Y-70000000I0J1000000D01*
G01*
X92000000Y-94000000D02*
G75*
G02*
X92000000Y-92000000I0J1000000D01*
G01*
X148500000Y-126000000D02*
G75*
G02*
X146500000Y-126000000I-1000000J0D01*
G01*
X146500000Y-126000000D02*
G75*
G02*
X148500000Y-126000000I1000000J0D01*
G01*
M02*
