G04 #@! TF.GenerationSoftware,KiCad,Pcbnew,8.0.5*
G04 #@! TF.CreationDate,2024-11-01T14:28:31+01:00*
G04 #@! TF.ProjectId,DCDC_converter,44434443-5f63-46f6-9e76-65727465722e,rev?*
G04 #@! TF.SameCoordinates,Original*
G04 #@! TF.FileFunction,Profile,NP*
%FSLAX46Y46*%
G04 Gerber Fmt 4.6, Leading zero omitted, Abs format (unit mm)*
G04 Created by KiCad (PCBNEW 8.0.5) date 2024-11-01 14:28:31*
%MOMM*%
%LPD*%
G01*
G04 APERTURE LIST*
G04 #@! TA.AperFunction,Profile*
%ADD10C,0.050000*%
G04 #@! TD*
G04 APERTURE END LIST*
D10*
X62000000Y-72000000D02*
X80000000Y-72000000D01*
X51000000Y-92000000D02*
X51000000Y-72000000D01*
X58000000Y-92000000D02*
X51000000Y-92000000D01*
X91000000Y-72000000D02*
X91000000Y-92000000D01*
X84000000Y-72000000D02*
X91000000Y-72000000D01*
X84000000Y-92000000D02*
X91000000Y-92000000D01*
X51000000Y-72000000D02*
X58000000Y-72000000D01*
X80000000Y-92000000D02*
X62000000Y-92000000D01*
X62000000Y-50000000D02*
G75*
G02*
X62000000Y-48000000I0J1000000D01*
G01*
X80000000Y-70000000D02*
G75*
G02*
X80000000Y-72000000I0J-1000000D01*
G01*
X91000000Y-50000000D02*
X91000000Y-70000000D01*
X91000000Y-94000000D02*
X84000000Y-94000000D01*
X84000000Y-94000000D02*
G75*
G02*
X84000000Y-92000000I0J1000000D01*
G01*
X51000000Y-50000000D02*
X58000000Y-50000000D01*
X80000000Y-92000000D02*
G75*
G02*
X80000000Y-94000000I0J-1000000D01*
G01*
X84000000Y-50000000D02*
G75*
G02*
X84000000Y-48000000I0J1000000D01*
G01*
X51000000Y-94000000D02*
X50999999Y-100999998D01*
X84000000Y-70000000D02*
X91000000Y-70000000D01*
X80000000Y-70000000D02*
X62000000Y-70000000D01*
X84000000Y-50000000D02*
X91000000Y-50000000D01*
X91000001Y-100999998D02*
X91000000Y-94000000D01*
X58000000Y-92000000D02*
G75*
G02*
X58000000Y-94000000I0J-1000000D01*
G01*
X80000000Y-94000000D02*
X62000000Y-94000000D01*
X80000000Y-48000000D02*
G75*
G02*
X80000000Y-50000000I0J-1000000D01*
G01*
X91000000Y-41000000D02*
X51000000Y-41000000D01*
X62000000Y-94000000D02*
G75*
G02*
X62000000Y-92000000I0J1000000D01*
G01*
X91000000Y-48000000D02*
X91000000Y-41000000D01*
X58000000Y-70000000D02*
G75*
G02*
X58000000Y-72000000I0J-1000000D01*
G01*
X51000000Y-48000000D02*
X58000000Y-48000000D01*
X84000000Y-72000000D02*
G75*
G02*
X84000000Y-70000000I0J1000000D01*
G01*
X58000000Y-94000000D02*
X51000000Y-94000000D01*
X58000000Y-70000000D02*
X51000000Y-70000000D01*
X51000000Y-70000000D02*
X51000000Y-50000000D01*
X50999999Y-100999998D02*
X91000001Y-100999998D01*
X62000000Y-48000000D02*
X80000000Y-48000000D01*
X51000000Y-41000000D02*
X51000000Y-48000000D01*
X62000000Y-50000000D02*
X80000000Y-50000000D01*
X58000000Y-48000000D02*
G75*
G02*
X58000000Y-50000000I0J-1000000D01*
G01*
X84000000Y-48000000D02*
X91000000Y-48000000D01*
X62000000Y-72000000D02*
G75*
G02*
X62000000Y-70000000I0J1000000D01*
G01*
M02*
