M48
; DRILL file {KiCad 8.0.5} date 2024-11-01T14:28:32+0100
; FORMAT={-:-/ absolute / metric / decimal}
; #@! TF.CreationDate,2024-11-01T14:28:32+01:00
; #@! TF.GenerationSoftware,Kicad,Pcbnew,8.0.5
; #@! TF.FileFunction,NonPlated,1,4,NPTH
FMAT,2
METRIC
; #@! TA.AperFunction,NonPlated,NPTH,ComponentDrill
T1C0.500
; #@! TA.AperFunction,NonPlated,NPTH,ComponentDrill
T2C1.152
%
G90
G05
T1
X59.25Y-48.25
X59.25Y-49.75
X59.25Y-70.25
X59.25Y-71.75
X59.25Y-92.25
X59.25Y-93.75
X60.0Y-48.25
X60.0Y-49.75
X60.0Y-70.25
X60.0Y-71.75
X60.0Y-92.25
X60.0Y-93.75
X60.75Y-48.25
X60.75Y-49.75
X60.75Y-70.25
X60.75Y-71.75
X60.75Y-92.25
X60.75Y-93.75
X81.25Y-48.25
X81.25Y-49.75
X81.25Y-70.25
X81.25Y-71.75
X81.25Y-92.25
X81.25Y-93.75
X82.0Y-48.25
X82.0Y-49.75
X82.0Y-70.25
X82.0Y-71.75
X82.0Y-92.25
X82.0Y-93.75
X82.75Y-48.25
X82.75Y-49.75
X82.75Y-70.25
X82.75Y-71.75
X82.75Y-92.25
X82.75Y-93.75
T2
X59.0Y-44.0
X59.0Y-98.0
X83.0Y-44.0
X83.0Y-98.0
M30
