G04 #@! TF.GenerationSoftware,KiCad,Pcbnew,8.0.5*
G04 #@! TF.CreationDate,2024-11-01T14:28:31+01:00*
G04 #@! TF.ProjectId,DCDC_converter,44434443-5f63-46f6-9e76-65727465722e,rev?*
G04 #@! TF.SameCoordinates,Original*
G04 #@! TF.FileFunction,Copper,L4,Bot*
G04 #@! TF.FilePolarity,Positive*
%FSLAX46Y46*%
G04 Gerber Fmt 4.6, Leading zero omitted, Abs format (unit mm)*
G04 Created by KiCad (PCBNEW 8.0.5) date 2024-11-01 14:28:31*
%MOMM*%
%LPD*%
G01*
G04 APERTURE LIST*
G04 #@! TA.AperFunction,ComponentPad*
%ADD10O,1.700000X1.700000*%
G04 #@! TD*
G04 #@! TA.AperFunction,ComponentPad*
%ADD11R,1.700000X1.700000*%
G04 #@! TD*
G04 #@! TA.AperFunction,ComponentPad*
%ADD12O,1.350000X1.350000*%
G04 #@! TD*
G04 #@! TA.AperFunction,ComponentPad*
%ADD13R,1.350000X1.350000*%
G04 #@! TD*
G04 #@! TA.AperFunction,ComponentPad*
%ADD14C,1.600000*%
G04 #@! TD*
G04 #@! TA.AperFunction,ComponentPad*
%ADD15R,1.600000X1.600000*%
G04 #@! TD*
G04 #@! TA.AperFunction,WasherPad*
%ADD16C,1.300000*%
G04 #@! TD*
G04 #@! TA.AperFunction,ViaPad*
%ADD17C,0.800000*%
G04 #@! TD*
G04 #@! TA.AperFunction,ViaPad*
%ADD18C,0.600000*%
G04 #@! TD*
G04 #@! TA.AperFunction,ViaPad*
%ADD19C,0.450000*%
G04 #@! TD*
G04 #@! TA.AperFunction,Conductor*
%ADD20C,0.250000*%
G04 #@! TD*
G04 #@! TA.AperFunction,Conductor*
%ADD21C,0.400000*%
G04 #@! TD*
G04 APERTURE END LIST*
D10*
X52500000Y-76920000D03*
D11*
X52500000Y-74380000D03*
D10*
X89400000Y-82000000D03*
D11*
X89400000Y-79460000D03*
D10*
X52500000Y-89620000D03*
D11*
X52500000Y-87080000D03*
D10*
X89400000Y-89620000D03*
D11*
X89400000Y-87080000D03*
D10*
X86860001Y-74380000D03*
D11*
X89400001Y-74380000D03*
D12*
X85600000Y-84000000D03*
X85600000Y-82000000D03*
D13*
X85600000Y-80000000D03*
D14*
X59450000Y-86400000D03*
D15*
X56950000Y-86400000D03*
D16*
X83000000Y-98000000D03*
X83000000Y-44000000D03*
X59000000Y-44000000D03*
D14*
X59450000Y-64400000D03*
D15*
X56950000Y-64400000D03*
D12*
X85600000Y-62000000D03*
X85600000Y-60000000D03*
D13*
X85600000Y-58000000D03*
D16*
X59000000Y-98000000D03*
D10*
X89400000Y-60000000D03*
D11*
X89400000Y-57460000D03*
D10*
X52500000Y-67620000D03*
D11*
X52500000Y-65080000D03*
D10*
X89400000Y-67620000D03*
D11*
X89400000Y-65080000D03*
D10*
X86860001Y-52380000D03*
D11*
X89400001Y-52380000D03*
D10*
X52500000Y-54920000D03*
D11*
X52500000Y-52380000D03*
D17*
X61837500Y-73912500D03*
D18*
X84700000Y-86800000D03*
X84700000Y-88700000D03*
X88200000Y-83200000D03*
D17*
X57950000Y-73850000D03*
X82150000Y-89500000D03*
D18*
X84200000Y-78100000D03*
X87400000Y-79800000D03*
X86500000Y-89100000D03*
X87400000Y-78300000D03*
X84700000Y-90800000D03*
X82425000Y-86925000D03*
X83700000Y-82000000D03*
X86500000Y-87100000D03*
X87800000Y-85000000D03*
X56800000Y-78900000D03*
X59800000Y-78150000D03*
X55100000Y-88900000D03*
D17*
X64350000Y-84950000D03*
X64087500Y-75450000D03*
D18*
X58000000Y-78900000D03*
D17*
X61450000Y-76650000D03*
D18*
X52700000Y-80800000D03*
X54400000Y-79600000D03*
D19*
X64800000Y-80125000D03*
D18*
X59200000Y-78900000D03*
X62850000Y-78900000D03*
X54600000Y-85100000D03*
X81050000Y-86925000D03*
D17*
X68537500Y-87700000D03*
D18*
X61600000Y-78900000D03*
X56200000Y-78150000D03*
D19*
X64075000Y-80125000D03*
D18*
X62300000Y-78150000D03*
X57300000Y-80200000D03*
D17*
X65787500Y-77837500D03*
D18*
X59250000Y-80200000D03*
X82400000Y-74800000D03*
X81100000Y-77100000D03*
D17*
X68237500Y-77050000D03*
D18*
X58600000Y-78150000D03*
X60400000Y-78900000D03*
X54200000Y-90500000D03*
X56000000Y-90500000D03*
X82400000Y-77100000D03*
X63150000Y-79850000D03*
X77400000Y-76050000D03*
X65650000Y-90500000D03*
X62050000Y-90500000D03*
X71600000Y-88500000D03*
X69600000Y-73250000D03*
X87100000Y-76400000D03*
X56600000Y-76400000D03*
X71825000Y-74650000D03*
X68437500Y-82800000D03*
X74625000Y-74650000D03*
X71150000Y-76800000D03*
X67687500Y-83950000D03*
X58300000Y-82900000D03*
X89900000Y-76400000D03*
X56900000Y-73100000D03*
X77400000Y-73250000D03*
X77250000Y-88500000D03*
X76050000Y-88500000D03*
X63250000Y-90500000D03*
X61000000Y-78150000D03*
X61200000Y-80200000D03*
X72800000Y-90500000D03*
X54800000Y-76400000D03*
X57400000Y-78150000D03*
X73275000Y-76050000D03*
X71600000Y-90500000D03*
X66850000Y-90500000D03*
X55700000Y-82900000D03*
X56600000Y-75000000D03*
X63175000Y-81250000D03*
X72800000Y-88500000D03*
X55400000Y-75000000D03*
X84700000Y-76400000D03*
X77250000Y-90500000D03*
X73275000Y-73250000D03*
X60800000Y-83400000D03*
X67200000Y-73250000D03*
X67200000Y-81850000D03*
X54200000Y-75000000D03*
X84600000Y-74100000D03*
X61600000Y-82400000D03*
X76050000Y-90500000D03*
X59250000Y-88650000D03*
X61050000Y-84600000D03*
X63175000Y-82150000D03*
X56600000Y-53000000D03*
X67200000Y-51250000D03*
X60800000Y-61400000D03*
X63175000Y-60150000D03*
X61050000Y-62600000D03*
X59250000Y-66650000D03*
X84700000Y-54400000D03*
X76050000Y-68500000D03*
X84600000Y-52100000D03*
X55400000Y-53000000D03*
X54200000Y-53000000D03*
X67200000Y-59850000D03*
X72800000Y-66500000D03*
X73275000Y-51250000D03*
X77250000Y-68500000D03*
X63175000Y-59250000D03*
X74625000Y-52650000D03*
X71150000Y-54800000D03*
X63250000Y-68500000D03*
X89900000Y-54400000D03*
X73275000Y-54050000D03*
X77250000Y-66500000D03*
X68437500Y-60800000D03*
X54800000Y-54400000D03*
X71825000Y-52650000D03*
X76050000Y-66500000D03*
X56900000Y-51100000D03*
X58300000Y-60900000D03*
X87100000Y-54400000D03*
X55700000Y-60900000D03*
X67687500Y-61950000D03*
X77400000Y-54050000D03*
X77400000Y-51250000D03*
X56600000Y-54400000D03*
X65650000Y-68500000D03*
X71600000Y-66500000D03*
X72800000Y-68500000D03*
X69600000Y-51250000D03*
X62050000Y-68500000D03*
X71600000Y-68500000D03*
X66850000Y-68500000D03*
X63150000Y-57850000D03*
X61200000Y-58200000D03*
X57400000Y-56150000D03*
X61000000Y-56150000D03*
X60400000Y-56900000D03*
X54600000Y-63100000D03*
X59250000Y-58200000D03*
X61600000Y-56900000D03*
X56000000Y-68500000D03*
X58600000Y-56150000D03*
X62850000Y-56900000D03*
X59200000Y-56900000D03*
X56800000Y-56900000D03*
D19*
X64800000Y-58125000D03*
D18*
X52700000Y-58800000D03*
X59800000Y-56150000D03*
X62300000Y-56150000D03*
X56200000Y-56150000D03*
X54200000Y-68500000D03*
X57300000Y-58200000D03*
X58000000Y-56900000D03*
X54400000Y-57600000D03*
D19*
X64075000Y-58125000D03*
D18*
X55100000Y-66900000D03*
D17*
X61450000Y-54650000D03*
X65787500Y-55837500D03*
X64350000Y-62950000D03*
X64087500Y-53450000D03*
X68237500Y-55050000D03*
D18*
X82400000Y-55100000D03*
X81100000Y-55100000D03*
X82400000Y-52800000D03*
D17*
X68537500Y-65700000D03*
D18*
X81050000Y-64925000D03*
X83700000Y-60000000D03*
X82425000Y-64925000D03*
D17*
X82150000Y-67500000D03*
X61837500Y-51912500D03*
X57950000Y-51850000D03*
D18*
X87400000Y-57800000D03*
X88200000Y-61200000D03*
X87400000Y-56300000D03*
X84200000Y-56100000D03*
X87800000Y-63000000D03*
X84700000Y-64800000D03*
X84700000Y-68800000D03*
X86500000Y-67100000D03*
X86500000Y-65100000D03*
X84700000Y-66700000D03*
X61600000Y-60400000D03*
D20*
X58275000Y-74175000D02*
X57950000Y-73850000D01*
X61575000Y-74175000D02*
X58275000Y-74175000D01*
X61837500Y-73912500D02*
X61575000Y-74175000D01*
D21*
X65250000Y-77300000D02*
X62100000Y-77300000D01*
X62100000Y-77300000D02*
X61450000Y-76650000D01*
X65787500Y-77837500D02*
X65250000Y-77300000D01*
X62100000Y-55300000D02*
X61450000Y-54650000D01*
X65787500Y-55837500D02*
X65250000Y-55300000D01*
X65250000Y-55300000D02*
X62100000Y-55300000D01*
D20*
X58275000Y-52175000D02*
X57950000Y-51850000D01*
X61575000Y-52175000D02*
X58275000Y-52175000D01*
X61837500Y-51912500D02*
X61575000Y-52175000D01*
G04 #@! TA.AperFunction,Conductor*
G36*
X83880402Y-50500382D02*
G01*
X83881902Y-50500500D01*
X83881908Y-50500500D01*
X83934108Y-50500500D01*
X90375500Y-50500500D01*
X90442539Y-50520185D01*
X90488294Y-50572989D01*
X90499500Y-50624500D01*
X90499500Y-55076000D01*
X90479815Y-55143039D01*
X90427011Y-55188794D01*
X90375500Y-55200000D01*
X83624000Y-55200000D01*
X83556961Y-55180315D01*
X83511206Y-55127511D01*
X83500000Y-55076000D01*
X83500000Y-51300000D01*
X82911681Y-50711681D01*
X82878196Y-50650358D01*
X82883180Y-50580666D01*
X82925052Y-50524733D01*
X82990516Y-50500316D01*
X82999362Y-50500000D01*
X83870679Y-50500000D01*
X83880402Y-50500382D01*
G37*
G04 #@! TD.AperFunction*
G04 #@! TA.AperFunction,Conductor*
G36*
X87143039Y-61159685D02*
G01*
X87188794Y-61212489D01*
X87200000Y-61264000D01*
X87200000Y-62300000D01*
X90375500Y-62300000D01*
X90442539Y-62319685D01*
X90488294Y-62372489D01*
X90499500Y-62424000D01*
X90499500Y-69375500D01*
X90479815Y-69442539D01*
X90427011Y-69488294D01*
X90375500Y-69499500D01*
X83881902Y-69499500D01*
X83880402Y-69499618D01*
X83870679Y-69500000D01*
X83624000Y-69500000D01*
X83556961Y-69480315D01*
X83511206Y-69427511D01*
X83500000Y-69376000D01*
X83500000Y-61264000D01*
X83519685Y-61196961D01*
X83572489Y-61151206D01*
X83624000Y-61140000D01*
X87076000Y-61140000D01*
X87143039Y-61159685D01*
G37*
G04 #@! TD.AperFunction*
G04 #@! TA.AperFunction,Conductor*
G36*
X90442539Y-55519685D02*
G01*
X90488294Y-55572489D01*
X90499500Y-55624000D01*
X90499500Y-61876000D01*
X90479815Y-61943039D01*
X90427011Y-61988794D01*
X90375500Y-62000000D01*
X87624000Y-62000000D01*
X87556961Y-61980315D01*
X87511206Y-61927511D01*
X87500000Y-61876000D01*
X87500000Y-58840000D01*
X83624000Y-58840000D01*
X83556961Y-58820315D01*
X83511206Y-58767511D01*
X83500000Y-58716000D01*
X83500000Y-55624000D01*
X83519685Y-55556961D01*
X83572489Y-55511206D01*
X83624000Y-55500000D01*
X90375500Y-55500000D01*
X90442539Y-55519685D01*
G37*
G04 #@! TD.AperFunction*
G04 #@! TA.AperFunction,Conductor*
G36*
X82415677Y-50519685D02*
G01*
X82436319Y-50536319D01*
X83163681Y-51263681D01*
X83197166Y-51325004D01*
X83200000Y-51351362D01*
X83200000Y-59110000D01*
X87076000Y-59110000D01*
X87143039Y-59129685D01*
X87188794Y-59182489D01*
X87200000Y-59234000D01*
X87200000Y-60756000D01*
X87180315Y-60823039D01*
X87127511Y-60868794D01*
X87076000Y-60880000D01*
X83200000Y-60880000D01*
X83200000Y-69376000D01*
X83180315Y-69443039D01*
X83127511Y-69488794D01*
X83076000Y-69500000D01*
X80461500Y-69500000D01*
X80394461Y-69480315D01*
X80348706Y-69427511D01*
X80337500Y-69376000D01*
X80337500Y-65050000D01*
X79173819Y-63886319D01*
X79140334Y-63824996D01*
X79137500Y-63798638D01*
X79137500Y-56301362D01*
X79157185Y-56234323D01*
X79173819Y-56213681D01*
X80337500Y-55050000D01*
X80339691Y-50623939D01*
X80359409Y-50556909D01*
X80412235Y-50511180D01*
X80463691Y-50500000D01*
X82348638Y-50500000D01*
X82415677Y-50519685D01*
G37*
G04 #@! TD.AperFunction*
G04 #@! TA.AperFunction,Conductor*
G36*
X62042978Y-55700500D02*
G01*
X62047273Y-55700500D01*
X64749138Y-55700500D01*
X64816177Y-55720185D01*
X64836819Y-55736819D01*
X65331818Y-56231818D01*
X65342512Y-56244011D01*
X65359215Y-56265779D01*
X65359216Y-56265780D01*
X65359218Y-56265782D01*
X65380990Y-56282488D01*
X65393177Y-56293177D01*
X65563681Y-56463681D01*
X65597166Y-56525004D01*
X65600000Y-56551362D01*
X65600000Y-58376000D01*
X65580315Y-58443039D01*
X65527511Y-58488794D01*
X65476000Y-58500000D01*
X55099999Y-58500000D01*
X53800000Y-59799999D01*
X53800000Y-59800000D01*
X53800000Y-60800000D01*
X55000000Y-62000000D01*
X57248638Y-62000000D01*
X57315677Y-62019685D01*
X57336319Y-62036319D01*
X57863681Y-62563681D01*
X57897166Y-62625004D01*
X57900000Y-62651362D01*
X57900000Y-65048638D01*
X57880315Y-65115677D01*
X57863681Y-65136319D01*
X57200000Y-65799999D01*
X57200000Y-69375500D01*
X57180315Y-69442539D01*
X57127511Y-69488294D01*
X57076000Y-69499500D01*
X51624500Y-69499500D01*
X51557461Y-69479815D01*
X51511706Y-69427011D01*
X51500500Y-69375500D01*
X51500500Y-56924000D01*
X51520185Y-56856961D01*
X51572989Y-56811206D01*
X51624500Y-56800000D01*
X53400000Y-56800000D01*
X54463681Y-55736319D01*
X54525004Y-55702834D01*
X54551362Y-55700000D01*
X62035349Y-55700000D01*
X62042978Y-55700500D01*
G37*
G04 #@! TD.AperFunction*
G04 #@! TA.AperFunction,Conductor*
G36*
X61880402Y-50500382D02*
G01*
X61881902Y-50500500D01*
X79976000Y-50500500D01*
X80043039Y-50520185D01*
X80088794Y-50572989D01*
X80100000Y-50624500D01*
X80100000Y-54848638D01*
X80080315Y-54915677D01*
X80063681Y-54936319D01*
X79836319Y-55163681D01*
X79774996Y-55197166D01*
X79748638Y-55200000D01*
X77499999Y-55200000D01*
X76700000Y-55999999D01*
X76700000Y-56000000D01*
X76700000Y-63700000D01*
X77500000Y-64500000D01*
X79348638Y-64500000D01*
X79415677Y-64519685D01*
X79436319Y-64536319D01*
X80063681Y-65163681D01*
X80097166Y-65225004D01*
X80100000Y-65251362D01*
X80100000Y-69375500D01*
X80080315Y-69442539D01*
X80027511Y-69488294D01*
X79976000Y-69499500D01*
X61881902Y-69499500D01*
X61880402Y-69499618D01*
X61870679Y-69500000D01*
X58129321Y-69500000D01*
X58119598Y-69499618D01*
X58118098Y-69499500D01*
X58118092Y-69499500D01*
X58065892Y-69499500D01*
X57624000Y-69499500D01*
X57556961Y-69479815D01*
X57511206Y-69427011D01*
X57500000Y-69375500D01*
X57500000Y-65951362D01*
X57519685Y-65884323D01*
X57536319Y-65863681D01*
X57700002Y-65699998D01*
X67931818Y-65699998D01*
X67931818Y-65700001D01*
X67952455Y-65856760D01*
X67952456Y-65856762D01*
X68012964Y-66002841D01*
X68109218Y-66128282D01*
X68234659Y-66224536D01*
X68380738Y-66285044D01*
X68459119Y-66295363D01*
X68537499Y-66305682D01*
X68537500Y-66305682D01*
X68537501Y-66305682D01*
X68589754Y-66298802D01*
X68694262Y-66285044D01*
X68840341Y-66224536D01*
X68965782Y-66128282D01*
X69062036Y-66002841D01*
X69122544Y-65856762D01*
X69143182Y-65700000D01*
X69122544Y-65543238D01*
X69062036Y-65397159D01*
X68965782Y-65271718D01*
X68840341Y-65175464D01*
X68811894Y-65163681D01*
X68694262Y-65114956D01*
X68694260Y-65114955D01*
X68537501Y-65094318D01*
X68537499Y-65094318D01*
X68380739Y-65114955D01*
X68380737Y-65114956D01*
X68234660Y-65175463D01*
X68109218Y-65271718D01*
X68012963Y-65397160D01*
X67952456Y-65543237D01*
X67952455Y-65543239D01*
X67931818Y-65699998D01*
X57700002Y-65699998D01*
X57856763Y-65543237D01*
X58200000Y-65200000D01*
X58200000Y-62949998D01*
X63744318Y-62949998D01*
X63744318Y-62950001D01*
X63764955Y-63106760D01*
X63764956Y-63106762D01*
X63825464Y-63252841D01*
X63921718Y-63378282D01*
X64047159Y-63474536D01*
X64193238Y-63535044D01*
X64271619Y-63545363D01*
X64349999Y-63555682D01*
X64350000Y-63555682D01*
X64350001Y-63555682D01*
X64402254Y-63548802D01*
X64506762Y-63535044D01*
X64652841Y-63474536D01*
X64778282Y-63378282D01*
X64874536Y-63252841D01*
X64935044Y-63106762D01*
X64955682Y-62950000D01*
X64935044Y-62793238D01*
X64874536Y-62647159D01*
X64778282Y-62521718D01*
X64652841Y-62425464D01*
X64506762Y-62364956D01*
X64506760Y-62364955D01*
X64350001Y-62344318D01*
X64349999Y-62344318D01*
X64193239Y-62364955D01*
X64193237Y-62364956D01*
X64047160Y-62425463D01*
X63921718Y-62521718D01*
X63825463Y-62647160D01*
X63764956Y-62793237D01*
X63764955Y-62793239D01*
X63744318Y-62949998D01*
X58200000Y-62949998D01*
X58200000Y-62500000D01*
X57400000Y-61700000D01*
X55151362Y-61700000D01*
X55084323Y-61680315D01*
X55063681Y-61663681D01*
X54086319Y-60686319D01*
X54052834Y-60624996D01*
X54050000Y-60598638D01*
X54050000Y-59951362D01*
X54069685Y-59884323D01*
X54086319Y-59863681D01*
X55113681Y-58836319D01*
X55175004Y-58802834D01*
X55201362Y-58800000D01*
X65800000Y-58800000D01*
X65800000Y-58423121D01*
X65801262Y-58405473D01*
X65805500Y-58375998D01*
X65805500Y-56549701D01*
X65806414Y-56549701D01*
X65823359Y-56485440D01*
X65874872Y-56438236D01*
X65913310Y-56426618D01*
X65944262Y-56422544D01*
X66090341Y-56362036D01*
X66215782Y-56265782D01*
X66312036Y-56140341D01*
X66372544Y-55994262D01*
X66393182Y-55837500D01*
X66372544Y-55680738D01*
X66312036Y-55534659D01*
X66215782Y-55409218D01*
X66090341Y-55312964D01*
X65944262Y-55252456D01*
X65888077Y-55245059D01*
X65783985Y-55231355D01*
X65720089Y-55203088D01*
X65712490Y-55196097D01*
X65566391Y-55049998D01*
X67631818Y-55049998D01*
X67631818Y-55050001D01*
X67652455Y-55206760D01*
X67652456Y-55206762D01*
X67669355Y-55247561D01*
X67712964Y-55352841D01*
X67809218Y-55478282D01*
X67934659Y-55574536D01*
X68080738Y-55635044D01*
X68159119Y-55645363D01*
X68237499Y-55655682D01*
X68237500Y-55655682D01*
X68237501Y-55655682D01*
X68289754Y-55648802D01*
X68394262Y-55635044D01*
X68540341Y-55574536D01*
X68665782Y-55478282D01*
X68762036Y-55352841D01*
X68822544Y-55206762D01*
X68843182Y-55050000D01*
X68833903Y-54979522D01*
X68822544Y-54893239D01*
X68822544Y-54893238D01*
X68762036Y-54747159D01*
X68665782Y-54621718D01*
X68540341Y-54525464D01*
X68394262Y-54464956D01*
X68394260Y-54464955D01*
X68237501Y-54444318D01*
X68237499Y-54444318D01*
X68080739Y-54464955D01*
X68080737Y-54464956D01*
X67934660Y-54525463D01*
X67809218Y-54621718D01*
X67712963Y-54747160D01*
X67652456Y-54893237D01*
X67652455Y-54893239D01*
X67631818Y-55049998D01*
X65566391Y-55049998D01*
X65495915Y-54979522D01*
X65495913Y-54979520D01*
X65449701Y-54952839D01*
X65404589Y-54926793D01*
X65353657Y-54913146D01*
X65302727Y-54899500D01*
X65302726Y-54899500D01*
X62317255Y-54899500D01*
X62250216Y-54879815D01*
X62229574Y-54863181D01*
X62091402Y-54725009D01*
X62057917Y-54663686D01*
X62056144Y-54653513D01*
X62055681Y-54649998D01*
X62035044Y-54493238D01*
X61974536Y-54347159D01*
X61878282Y-54221718D01*
X61752841Y-54125464D01*
X61606762Y-54064956D01*
X61606760Y-54064955D01*
X61450001Y-54044318D01*
X61449999Y-54044318D01*
X61293239Y-54064955D01*
X61293237Y-54064956D01*
X61147160Y-54125463D01*
X61021718Y-54221718D01*
X60925463Y-54347160D01*
X60864956Y-54493237D01*
X60864955Y-54493239D01*
X60844318Y-54649998D01*
X60844318Y-54650001D01*
X60864955Y-54806760D01*
X60864956Y-54806762D01*
X60914674Y-54926793D01*
X60925464Y-54952841D01*
X61021718Y-55078282D01*
X61147159Y-55174536D01*
X61293238Y-55235044D01*
X61354357Y-55243090D01*
X61388314Y-55247561D01*
X61452211Y-55275828D01*
X61490682Y-55334152D01*
X61491513Y-55404017D01*
X61454441Y-55463240D01*
X61391235Y-55493019D01*
X61372129Y-55494500D01*
X54551361Y-55494500D01*
X54529381Y-55495678D01*
X54496979Y-55499163D01*
X54496916Y-55498578D01*
X54483117Y-55500000D01*
X54299999Y-55500000D01*
X53336319Y-56463681D01*
X53274996Y-56497166D01*
X53248638Y-56500000D01*
X51624500Y-56500000D01*
X51557461Y-56480315D01*
X51511706Y-56427511D01*
X51500500Y-56376000D01*
X51500500Y-53449998D01*
X63481818Y-53449998D01*
X63481818Y-53450001D01*
X63502455Y-53606760D01*
X63502456Y-53606762D01*
X63562964Y-53752841D01*
X63659218Y-53878282D01*
X63784659Y-53974536D01*
X63930738Y-54035044D01*
X64001181Y-54044318D01*
X64087499Y-54055682D01*
X64087500Y-54055682D01*
X64087501Y-54055682D01*
X64139754Y-54048802D01*
X64244262Y-54035044D01*
X64390341Y-53974536D01*
X64515782Y-53878282D01*
X64612036Y-53752841D01*
X64672544Y-53606762D01*
X64693182Y-53450000D01*
X64672544Y-53293238D01*
X64612036Y-53147159D01*
X64515782Y-53021718D01*
X64390341Y-52925464D01*
X64244262Y-52864956D01*
X64244260Y-52864955D01*
X64087501Y-52844318D01*
X64087499Y-52844318D01*
X63930739Y-52864955D01*
X63930737Y-52864956D01*
X63784660Y-52925463D01*
X63659218Y-53021718D01*
X63562963Y-53147160D01*
X63502456Y-53293237D01*
X63502455Y-53293239D01*
X63481818Y-53449998D01*
X51500500Y-53449998D01*
X51500500Y-51849998D01*
X57344318Y-51849998D01*
X57344318Y-51850001D01*
X57364955Y-52006760D01*
X57364956Y-52006762D01*
X57390843Y-52069260D01*
X57425464Y-52152841D01*
X57521718Y-52278282D01*
X57647159Y-52374536D01*
X57793238Y-52435044D01*
X57861312Y-52444006D01*
X57949999Y-52455682D01*
X57950000Y-52455682D01*
X57950001Y-52455682D01*
X57972634Y-52452702D01*
X58038684Y-52444006D01*
X58107718Y-52454771D01*
X58116866Y-52459556D01*
X58149362Y-52478318D01*
X58232147Y-52500500D01*
X58232149Y-52500500D01*
X61617849Y-52500500D01*
X61617853Y-52500500D01*
X61622711Y-52499198D01*
X61672321Y-52499206D01*
X61672680Y-52496483D01*
X61680737Y-52497543D01*
X61680738Y-52497544D01*
X61760394Y-52508030D01*
X61837499Y-52518182D01*
X61837500Y-52518182D01*
X61837501Y-52518182D01*
X61889754Y-52511302D01*
X61994262Y-52497544D01*
X62140341Y-52437036D01*
X62265782Y-52340782D01*
X62362036Y-52215341D01*
X62422544Y-52069262D01*
X62443182Y-51912500D01*
X62434953Y-51849998D01*
X62425345Y-51777011D01*
X62422544Y-51755738D01*
X62362036Y-51609659D01*
X62265782Y-51484218D01*
X62140341Y-51387964D01*
X61994262Y-51327456D01*
X61994260Y-51327455D01*
X61837501Y-51306818D01*
X61837499Y-51306818D01*
X61680739Y-51327455D01*
X61680737Y-51327456D01*
X61534660Y-51387963D01*
X61409218Y-51484218D01*
X61312963Y-51609660D01*
X61252455Y-51755739D01*
X61251958Y-51757597D01*
X61251110Y-51758987D01*
X61249346Y-51763247D01*
X61248681Y-51762971D01*
X61215591Y-51817256D01*
X61152744Y-51847784D01*
X61132184Y-51849500D01*
X58664361Y-51849500D01*
X58597322Y-51829815D01*
X58551567Y-51777011D01*
X58541422Y-51741685D01*
X58535044Y-51693239D01*
X58535044Y-51693238D01*
X58474536Y-51547159D01*
X58378282Y-51421718D01*
X58252841Y-51325464D01*
X58106762Y-51264956D01*
X58106760Y-51264955D01*
X57950001Y-51244318D01*
X57949999Y-51244318D01*
X57793239Y-51264955D01*
X57793237Y-51264956D01*
X57647160Y-51325463D01*
X57521718Y-51421718D01*
X57425463Y-51547160D01*
X57364956Y-51693237D01*
X57364955Y-51693239D01*
X57344318Y-51849998D01*
X51500500Y-51849998D01*
X51500500Y-50624500D01*
X51520185Y-50557461D01*
X51572989Y-50511706D01*
X51624500Y-50500500D01*
X58118098Y-50500500D01*
X58119598Y-50500382D01*
X58129321Y-50500000D01*
X61870679Y-50500000D01*
X61880402Y-50500382D01*
G37*
G04 #@! TD.AperFunction*
G04 #@! TA.AperFunction,Conductor*
G36*
X90442539Y-77519685D02*
G01*
X90488294Y-77572489D01*
X90499500Y-77624000D01*
X90499500Y-83876000D01*
X90479815Y-83943039D01*
X90427011Y-83988794D01*
X90375500Y-84000000D01*
X87624000Y-84000000D01*
X87556961Y-83980315D01*
X87511206Y-83927511D01*
X87500000Y-83876000D01*
X87500000Y-80840000D01*
X83624000Y-80840000D01*
X83556961Y-80820315D01*
X83511206Y-80767511D01*
X83500000Y-80716000D01*
X83500000Y-77624000D01*
X83519685Y-77556961D01*
X83572489Y-77511206D01*
X83624000Y-77500000D01*
X90375500Y-77500000D01*
X90442539Y-77519685D01*
G37*
G04 #@! TD.AperFunction*
G04 #@! TA.AperFunction,Conductor*
G36*
X83880402Y-72500382D02*
G01*
X83881902Y-72500500D01*
X83881908Y-72500500D01*
X83934108Y-72500500D01*
X90375500Y-72500500D01*
X90442539Y-72520185D01*
X90488294Y-72572989D01*
X90499500Y-72624500D01*
X90499500Y-77076000D01*
X90479815Y-77143039D01*
X90427011Y-77188794D01*
X90375500Y-77200000D01*
X83624000Y-77200000D01*
X83556961Y-77180315D01*
X83511206Y-77127511D01*
X83500000Y-77076000D01*
X83500000Y-73300000D01*
X82911681Y-72711681D01*
X82878196Y-72650358D01*
X82883180Y-72580666D01*
X82925052Y-72524733D01*
X82990516Y-72500316D01*
X82999362Y-72500000D01*
X83870679Y-72500000D01*
X83880402Y-72500382D01*
G37*
G04 #@! TD.AperFunction*
G04 #@! TA.AperFunction,Conductor*
G36*
X62042978Y-77700500D02*
G01*
X62047273Y-77700500D01*
X64749138Y-77700500D01*
X64816177Y-77720185D01*
X64836819Y-77736819D01*
X65331818Y-78231818D01*
X65342512Y-78244011D01*
X65359215Y-78265779D01*
X65359216Y-78265780D01*
X65359218Y-78265782D01*
X65380990Y-78282488D01*
X65393177Y-78293177D01*
X65563681Y-78463681D01*
X65597166Y-78525004D01*
X65600000Y-78551362D01*
X65600000Y-80376000D01*
X65580315Y-80443039D01*
X65527511Y-80488794D01*
X65476000Y-80500000D01*
X55099999Y-80500000D01*
X53800000Y-81799999D01*
X53800000Y-81800000D01*
X53800000Y-82800000D01*
X55000000Y-84000000D01*
X57248638Y-84000000D01*
X57315677Y-84019685D01*
X57336319Y-84036319D01*
X57863681Y-84563681D01*
X57897166Y-84625004D01*
X57900000Y-84651362D01*
X57900000Y-87048638D01*
X57880315Y-87115677D01*
X57863681Y-87136319D01*
X57200000Y-87799999D01*
X57200000Y-91375500D01*
X57180315Y-91442539D01*
X57127511Y-91488294D01*
X57076000Y-91499500D01*
X51624500Y-91499500D01*
X51557461Y-91479815D01*
X51511706Y-91427011D01*
X51500500Y-91375500D01*
X51500500Y-78924000D01*
X51520185Y-78856961D01*
X51572989Y-78811206D01*
X51624500Y-78800000D01*
X53400000Y-78800000D01*
X54463681Y-77736319D01*
X54525004Y-77702834D01*
X54551362Y-77700000D01*
X62035349Y-77700000D01*
X62042978Y-77700500D01*
G37*
G04 #@! TD.AperFunction*
G04 #@! TA.AperFunction,Conductor*
G36*
X82415677Y-72519685D02*
G01*
X82436319Y-72536319D01*
X83163681Y-73263681D01*
X83197166Y-73325004D01*
X83200000Y-73351362D01*
X83200000Y-81110000D01*
X87076000Y-81110000D01*
X87143039Y-81129685D01*
X87188794Y-81182489D01*
X87200000Y-81234000D01*
X87200000Y-82756000D01*
X87180315Y-82823039D01*
X87127511Y-82868794D01*
X87076000Y-82880000D01*
X83200000Y-82880000D01*
X83200000Y-91376000D01*
X83180315Y-91443039D01*
X83127511Y-91488794D01*
X83076000Y-91500000D01*
X80461500Y-91500000D01*
X80394461Y-91480315D01*
X80348706Y-91427511D01*
X80337500Y-91376000D01*
X80337500Y-87050000D01*
X79173819Y-85886319D01*
X79140334Y-85824996D01*
X79137500Y-85798638D01*
X79137500Y-78301362D01*
X79157185Y-78234323D01*
X79173819Y-78213681D01*
X80337500Y-77050000D01*
X80339691Y-72623939D01*
X80359409Y-72556909D01*
X80412235Y-72511180D01*
X80463691Y-72500000D01*
X82348638Y-72500000D01*
X82415677Y-72519685D01*
G37*
G04 #@! TD.AperFunction*
G04 #@! TA.AperFunction,Conductor*
G36*
X87143039Y-83159685D02*
G01*
X87188794Y-83212489D01*
X87200000Y-83264000D01*
X87200000Y-84300000D01*
X90375500Y-84300000D01*
X90442539Y-84319685D01*
X90488294Y-84372489D01*
X90499500Y-84424000D01*
X90499500Y-91375500D01*
X90479815Y-91442539D01*
X90427011Y-91488294D01*
X90375500Y-91499500D01*
X83881902Y-91499500D01*
X83880402Y-91499618D01*
X83870679Y-91500000D01*
X83624000Y-91500000D01*
X83556961Y-91480315D01*
X83511206Y-91427511D01*
X83500000Y-91376000D01*
X83500000Y-83264000D01*
X83519685Y-83196961D01*
X83572489Y-83151206D01*
X83624000Y-83140000D01*
X87076000Y-83140000D01*
X87143039Y-83159685D01*
G37*
G04 #@! TD.AperFunction*
G04 #@! TA.AperFunction,Conductor*
G36*
X61880402Y-72500382D02*
G01*
X61881902Y-72500500D01*
X79976000Y-72500500D01*
X80043039Y-72520185D01*
X80088794Y-72572989D01*
X80100000Y-72624500D01*
X80100000Y-76848638D01*
X80080315Y-76915677D01*
X80063681Y-76936319D01*
X79836319Y-77163681D01*
X79774996Y-77197166D01*
X79748638Y-77200000D01*
X77499999Y-77200000D01*
X76700000Y-77999999D01*
X76700000Y-78000000D01*
X76700000Y-85700000D01*
X77500000Y-86500000D01*
X79348638Y-86500000D01*
X79415677Y-86519685D01*
X79436319Y-86536319D01*
X80063681Y-87163681D01*
X80097166Y-87225004D01*
X80100000Y-87251362D01*
X80100000Y-91375500D01*
X80080315Y-91442539D01*
X80027511Y-91488294D01*
X79976000Y-91499500D01*
X61881902Y-91499500D01*
X61880402Y-91499618D01*
X61870679Y-91500000D01*
X58129321Y-91500000D01*
X58119598Y-91499618D01*
X58118098Y-91499500D01*
X58118092Y-91499500D01*
X58065892Y-91499500D01*
X57624000Y-91499500D01*
X57556961Y-91479815D01*
X57511206Y-91427011D01*
X57500000Y-91375500D01*
X57500000Y-87951362D01*
X57519685Y-87884323D01*
X57536319Y-87863681D01*
X57700002Y-87699998D01*
X67931818Y-87699998D01*
X67931818Y-87700001D01*
X67952455Y-87856760D01*
X67952456Y-87856762D01*
X68012964Y-88002841D01*
X68109218Y-88128282D01*
X68234659Y-88224536D01*
X68380738Y-88285044D01*
X68459119Y-88295363D01*
X68537499Y-88305682D01*
X68537500Y-88305682D01*
X68537501Y-88305682D01*
X68589754Y-88298802D01*
X68694262Y-88285044D01*
X68840341Y-88224536D01*
X68965782Y-88128282D01*
X69062036Y-88002841D01*
X69122544Y-87856762D01*
X69143182Y-87700000D01*
X69122544Y-87543238D01*
X69062036Y-87397159D01*
X68965782Y-87271718D01*
X68840341Y-87175464D01*
X68811894Y-87163681D01*
X68694262Y-87114956D01*
X68694260Y-87114955D01*
X68537501Y-87094318D01*
X68537499Y-87094318D01*
X68380739Y-87114955D01*
X68380737Y-87114956D01*
X68234660Y-87175463D01*
X68109218Y-87271718D01*
X68012963Y-87397160D01*
X67952456Y-87543237D01*
X67952455Y-87543239D01*
X67931818Y-87699998D01*
X57700002Y-87699998D01*
X57856763Y-87543237D01*
X58200000Y-87200000D01*
X58200000Y-84949998D01*
X63744318Y-84949998D01*
X63744318Y-84950001D01*
X63764955Y-85106760D01*
X63764956Y-85106762D01*
X63825464Y-85252841D01*
X63921718Y-85378282D01*
X64047159Y-85474536D01*
X64193238Y-85535044D01*
X64271619Y-85545363D01*
X64349999Y-85555682D01*
X64350000Y-85555682D01*
X64350001Y-85555682D01*
X64402254Y-85548802D01*
X64506762Y-85535044D01*
X64652841Y-85474536D01*
X64778282Y-85378282D01*
X64874536Y-85252841D01*
X64935044Y-85106762D01*
X64955682Y-84950000D01*
X64935044Y-84793238D01*
X64874536Y-84647159D01*
X64778282Y-84521718D01*
X64652841Y-84425464D01*
X64506762Y-84364956D01*
X64506760Y-84364955D01*
X64350001Y-84344318D01*
X64349999Y-84344318D01*
X64193239Y-84364955D01*
X64193237Y-84364956D01*
X64047160Y-84425463D01*
X63921718Y-84521718D01*
X63825463Y-84647160D01*
X63764956Y-84793237D01*
X63764955Y-84793239D01*
X63744318Y-84949998D01*
X58200000Y-84949998D01*
X58200000Y-84500000D01*
X57400000Y-83700000D01*
X55151362Y-83700000D01*
X55084323Y-83680315D01*
X55063681Y-83663681D01*
X54086319Y-82686319D01*
X54052834Y-82624996D01*
X54050000Y-82598638D01*
X54050000Y-81951362D01*
X54069685Y-81884323D01*
X54086319Y-81863681D01*
X55113681Y-80836319D01*
X55175004Y-80802834D01*
X55201362Y-80800000D01*
X65800000Y-80800000D01*
X65800000Y-80423121D01*
X65801262Y-80405473D01*
X65805500Y-80375998D01*
X65805500Y-78549701D01*
X65806414Y-78549701D01*
X65823359Y-78485440D01*
X65874872Y-78438236D01*
X65913310Y-78426618D01*
X65944262Y-78422544D01*
X66090341Y-78362036D01*
X66215782Y-78265782D01*
X66312036Y-78140341D01*
X66372544Y-77994262D01*
X66393182Y-77837500D01*
X66372544Y-77680738D01*
X66312036Y-77534659D01*
X66215782Y-77409218D01*
X66090341Y-77312964D01*
X65944262Y-77252456D01*
X65888077Y-77245059D01*
X65783985Y-77231355D01*
X65720089Y-77203088D01*
X65712490Y-77196097D01*
X65566391Y-77049998D01*
X67631818Y-77049998D01*
X67631818Y-77050001D01*
X67652455Y-77206760D01*
X67652456Y-77206762D01*
X67669355Y-77247561D01*
X67712964Y-77352841D01*
X67809218Y-77478282D01*
X67934659Y-77574536D01*
X68080738Y-77635044D01*
X68159119Y-77645363D01*
X68237499Y-77655682D01*
X68237500Y-77655682D01*
X68237501Y-77655682D01*
X68289754Y-77648802D01*
X68394262Y-77635044D01*
X68540341Y-77574536D01*
X68665782Y-77478282D01*
X68762036Y-77352841D01*
X68822544Y-77206762D01*
X68843182Y-77050000D01*
X68833903Y-76979522D01*
X68822544Y-76893239D01*
X68822544Y-76893238D01*
X68762036Y-76747159D01*
X68665782Y-76621718D01*
X68540341Y-76525464D01*
X68394262Y-76464956D01*
X68394260Y-76464955D01*
X68237501Y-76444318D01*
X68237499Y-76444318D01*
X68080739Y-76464955D01*
X68080737Y-76464956D01*
X67934660Y-76525463D01*
X67809218Y-76621718D01*
X67712963Y-76747160D01*
X67652456Y-76893237D01*
X67652455Y-76893239D01*
X67631818Y-77049998D01*
X65566391Y-77049998D01*
X65495915Y-76979522D01*
X65495913Y-76979520D01*
X65449701Y-76952839D01*
X65404589Y-76926793D01*
X65353657Y-76913146D01*
X65302727Y-76899500D01*
X65302726Y-76899500D01*
X62317255Y-76899500D01*
X62250216Y-76879815D01*
X62229574Y-76863181D01*
X62091402Y-76725009D01*
X62057917Y-76663686D01*
X62056144Y-76653513D01*
X62055681Y-76649998D01*
X62035044Y-76493238D01*
X61974536Y-76347159D01*
X61878282Y-76221718D01*
X61752841Y-76125464D01*
X61606762Y-76064956D01*
X61606760Y-76064955D01*
X61450001Y-76044318D01*
X61449999Y-76044318D01*
X61293239Y-76064955D01*
X61293237Y-76064956D01*
X61147160Y-76125463D01*
X61021718Y-76221718D01*
X60925463Y-76347160D01*
X60864956Y-76493237D01*
X60864955Y-76493239D01*
X60844318Y-76649998D01*
X60844318Y-76650001D01*
X60864955Y-76806760D01*
X60864956Y-76806762D01*
X60914674Y-76926793D01*
X60925464Y-76952841D01*
X61021718Y-77078282D01*
X61147159Y-77174536D01*
X61293238Y-77235044D01*
X61354357Y-77243090D01*
X61388314Y-77247561D01*
X61452211Y-77275828D01*
X61490682Y-77334152D01*
X61491513Y-77404017D01*
X61454441Y-77463240D01*
X61391235Y-77493019D01*
X61372129Y-77494500D01*
X54551361Y-77494500D01*
X54529381Y-77495678D01*
X54496979Y-77499163D01*
X54496916Y-77498578D01*
X54483117Y-77500000D01*
X54299999Y-77500000D01*
X53336319Y-78463681D01*
X53274996Y-78497166D01*
X53248638Y-78500000D01*
X51624500Y-78500000D01*
X51557461Y-78480315D01*
X51511706Y-78427511D01*
X51500500Y-78376000D01*
X51500500Y-75449998D01*
X63481818Y-75449998D01*
X63481818Y-75450001D01*
X63502455Y-75606760D01*
X63502456Y-75606762D01*
X63562964Y-75752841D01*
X63659218Y-75878282D01*
X63784659Y-75974536D01*
X63930738Y-76035044D01*
X64001181Y-76044318D01*
X64087499Y-76055682D01*
X64087500Y-76055682D01*
X64087501Y-76055682D01*
X64139754Y-76048802D01*
X64244262Y-76035044D01*
X64390341Y-75974536D01*
X64515782Y-75878282D01*
X64612036Y-75752841D01*
X64672544Y-75606762D01*
X64693182Y-75450000D01*
X64672544Y-75293238D01*
X64612036Y-75147159D01*
X64515782Y-75021718D01*
X64390341Y-74925464D01*
X64244262Y-74864956D01*
X64244260Y-74864955D01*
X64087501Y-74844318D01*
X64087499Y-74844318D01*
X63930739Y-74864955D01*
X63930737Y-74864956D01*
X63784660Y-74925463D01*
X63659218Y-75021718D01*
X63562963Y-75147160D01*
X63502456Y-75293237D01*
X63502455Y-75293239D01*
X63481818Y-75449998D01*
X51500500Y-75449998D01*
X51500500Y-73849998D01*
X57344318Y-73849998D01*
X57344318Y-73850001D01*
X57364955Y-74006760D01*
X57364956Y-74006762D01*
X57390843Y-74069260D01*
X57425464Y-74152841D01*
X57521718Y-74278282D01*
X57647159Y-74374536D01*
X57793238Y-74435044D01*
X57861312Y-74444006D01*
X57949999Y-74455682D01*
X57950000Y-74455682D01*
X57950001Y-74455682D01*
X57972634Y-74452702D01*
X58038684Y-74444006D01*
X58107718Y-74454771D01*
X58116866Y-74459556D01*
X58149362Y-74478318D01*
X58232147Y-74500500D01*
X58232149Y-74500500D01*
X61617849Y-74500500D01*
X61617853Y-74500500D01*
X61622711Y-74499198D01*
X61672321Y-74499206D01*
X61672680Y-74496483D01*
X61680737Y-74497543D01*
X61680738Y-74497544D01*
X61760394Y-74508030D01*
X61837499Y-74518182D01*
X61837500Y-74518182D01*
X61837501Y-74518182D01*
X61889754Y-74511302D01*
X61994262Y-74497544D01*
X62140341Y-74437036D01*
X62265782Y-74340782D01*
X62362036Y-74215341D01*
X62422544Y-74069262D01*
X62443182Y-73912500D01*
X62434953Y-73849998D01*
X62425345Y-73777011D01*
X62422544Y-73755738D01*
X62362036Y-73609659D01*
X62265782Y-73484218D01*
X62140341Y-73387964D01*
X61994262Y-73327456D01*
X61994260Y-73327455D01*
X61837501Y-73306818D01*
X61837499Y-73306818D01*
X61680739Y-73327455D01*
X61680737Y-73327456D01*
X61534660Y-73387963D01*
X61409218Y-73484218D01*
X61312963Y-73609660D01*
X61252455Y-73755739D01*
X61251958Y-73757597D01*
X61251110Y-73758987D01*
X61249346Y-73763247D01*
X61248681Y-73762971D01*
X61215591Y-73817256D01*
X61152744Y-73847784D01*
X61132184Y-73849500D01*
X58664361Y-73849500D01*
X58597322Y-73829815D01*
X58551567Y-73777011D01*
X58541422Y-73741685D01*
X58535044Y-73693239D01*
X58535044Y-73693238D01*
X58474536Y-73547159D01*
X58378282Y-73421718D01*
X58252841Y-73325464D01*
X58106762Y-73264956D01*
X58106760Y-73264955D01*
X57950001Y-73244318D01*
X57949999Y-73244318D01*
X57793239Y-73264955D01*
X57793237Y-73264956D01*
X57647160Y-73325463D01*
X57521718Y-73421718D01*
X57425463Y-73547160D01*
X57364956Y-73693237D01*
X57364955Y-73693239D01*
X57344318Y-73849998D01*
X51500500Y-73849998D01*
X51500500Y-72624500D01*
X51520185Y-72557461D01*
X51572989Y-72511706D01*
X51624500Y-72500500D01*
X58118098Y-72500500D01*
X58119598Y-72500382D01*
X58129321Y-72500000D01*
X61870679Y-72500000D01*
X61880402Y-72500382D01*
G37*
G04 #@! TD.AperFunction*
M02*
