G04 #@! TF.GenerationSoftware,KiCad,Pcbnew,8.0.5*
G04 #@! TF.CreationDate,2024-11-01T14:28:31+01:00*
G04 #@! TF.ProjectId,DCDC_converter,44434443-5f63-46f6-9e76-65727465722e,rev?*
G04 #@! TF.SameCoordinates,Original*
G04 #@! TF.FileFunction,Copper,L2,Inr*
G04 #@! TF.FilePolarity,Positive*
%FSLAX46Y46*%
G04 Gerber Fmt 4.6, Leading zero omitted, Abs format (unit mm)*
G04 Created by KiCad (PCBNEW 8.0.5) date 2024-11-01 14:28:31*
%MOMM*%
%LPD*%
G01*
G04 APERTURE LIST*
G04 #@! TA.AperFunction,ComponentPad*
%ADD10O,1.700000X1.700000*%
G04 #@! TD*
G04 #@! TA.AperFunction,ComponentPad*
%ADD11R,1.700000X1.700000*%
G04 #@! TD*
G04 #@! TA.AperFunction,ComponentPad*
%ADD12O,1.350000X1.350000*%
G04 #@! TD*
G04 #@! TA.AperFunction,ComponentPad*
%ADD13R,1.350000X1.350000*%
G04 #@! TD*
G04 #@! TA.AperFunction,ComponentPad*
%ADD14C,1.600000*%
G04 #@! TD*
G04 #@! TA.AperFunction,ComponentPad*
%ADD15R,1.600000X1.600000*%
G04 #@! TD*
G04 #@! TA.AperFunction,ViaPad*
%ADD16C,0.800000*%
G04 #@! TD*
G04 #@! TA.AperFunction,ViaPad*
%ADD17C,0.600000*%
G04 #@! TD*
G04 #@! TA.AperFunction,ViaPad*
%ADD18C,0.450000*%
G04 #@! TD*
G04 APERTURE END LIST*
D10*
X52500000Y-76920000D03*
D11*
X52500000Y-74380000D03*
D10*
X89400000Y-82000000D03*
D11*
X89400000Y-79460000D03*
D10*
X52500000Y-89620000D03*
D11*
X52500000Y-87080000D03*
D10*
X89400000Y-89620000D03*
D11*
X89400000Y-87080000D03*
D10*
X86860001Y-74380000D03*
D11*
X89400001Y-74380000D03*
D12*
X85600000Y-84000000D03*
X85600000Y-82000000D03*
D13*
X85600000Y-80000000D03*
D14*
X59450000Y-86400000D03*
D15*
X56950000Y-86400000D03*
D14*
X59450000Y-64400000D03*
D15*
X56950000Y-64400000D03*
D12*
X85600000Y-62000000D03*
X85600000Y-60000000D03*
D13*
X85600000Y-58000000D03*
D10*
X89400000Y-60000000D03*
D11*
X89400000Y-57460000D03*
D10*
X52500000Y-67620000D03*
D11*
X52500000Y-65080000D03*
D10*
X89400000Y-67620000D03*
D11*
X89400000Y-65080000D03*
D10*
X86860001Y-52380000D03*
D11*
X89400001Y-52380000D03*
D10*
X52500000Y-54920000D03*
D11*
X52500000Y-52380000D03*
D16*
X61837500Y-73912500D03*
D17*
X84700000Y-86800000D03*
X84700000Y-88700000D03*
X88200000Y-83200000D03*
D16*
X57950000Y-73850000D03*
X82150000Y-89500000D03*
D17*
X84200000Y-78100000D03*
X87400000Y-79800000D03*
X86500000Y-89100000D03*
X87400000Y-78300000D03*
X84700000Y-90800000D03*
X82425000Y-86925000D03*
X83700000Y-82000000D03*
X86500000Y-87100000D03*
X87800000Y-85000000D03*
X56800000Y-78900000D03*
X59800000Y-78150000D03*
X55100000Y-88900000D03*
D16*
X64350000Y-84950000D03*
X64087500Y-75450000D03*
D17*
X58000000Y-78900000D03*
D16*
X61450000Y-76650000D03*
D17*
X52700000Y-80800000D03*
X54400000Y-79600000D03*
D18*
X64800000Y-80125000D03*
D17*
X59200000Y-78900000D03*
X62850000Y-78900000D03*
X54600000Y-85100000D03*
X81050000Y-86925000D03*
D16*
X68537500Y-87700000D03*
D17*
X61600000Y-78900000D03*
X56200000Y-78150000D03*
D18*
X64075000Y-80125000D03*
D17*
X62300000Y-78150000D03*
X57300000Y-80200000D03*
D16*
X65787500Y-77837500D03*
D17*
X59250000Y-80200000D03*
X82400000Y-74800000D03*
X81100000Y-77100000D03*
D16*
X68237500Y-77050000D03*
D17*
X58600000Y-78150000D03*
X60400000Y-78900000D03*
X54200000Y-90500000D03*
X56000000Y-90500000D03*
X82400000Y-77100000D03*
X63150000Y-79850000D03*
X77400000Y-76050000D03*
X65650000Y-90500000D03*
X62050000Y-90500000D03*
X71600000Y-88500000D03*
X69600000Y-73250000D03*
X87100000Y-76400000D03*
X56600000Y-76400000D03*
X71825000Y-74650000D03*
X68437500Y-82800000D03*
X74625000Y-74650000D03*
X71150000Y-76800000D03*
X67687500Y-83950000D03*
X58300000Y-82900000D03*
X89900000Y-76400000D03*
X56900000Y-73100000D03*
X77400000Y-73250000D03*
X77250000Y-88500000D03*
X76050000Y-88500000D03*
X63250000Y-90500000D03*
X61000000Y-78150000D03*
X61200000Y-80200000D03*
X72800000Y-90500000D03*
X54800000Y-76400000D03*
X57400000Y-78150000D03*
X73275000Y-76050000D03*
X71600000Y-90500000D03*
X66850000Y-90500000D03*
X55700000Y-82900000D03*
X56600000Y-75000000D03*
X63175000Y-81250000D03*
X72800000Y-88500000D03*
X55400000Y-75000000D03*
X84700000Y-76400000D03*
X77250000Y-90500000D03*
X73275000Y-73250000D03*
X60800000Y-83400000D03*
X67200000Y-73250000D03*
X67200000Y-81850000D03*
X54200000Y-75000000D03*
X84600000Y-74100000D03*
X61600000Y-82400000D03*
X76050000Y-90500000D03*
X59250000Y-88650000D03*
X61050000Y-84600000D03*
X63175000Y-82150000D03*
X56600000Y-53000000D03*
X67200000Y-51250000D03*
X60800000Y-61400000D03*
X63175000Y-60150000D03*
X61050000Y-62600000D03*
X59250000Y-66650000D03*
X84700000Y-54400000D03*
X76050000Y-68500000D03*
X84600000Y-52100000D03*
X55400000Y-53000000D03*
X54200000Y-53000000D03*
X67200000Y-59850000D03*
X72800000Y-66500000D03*
X73275000Y-51250000D03*
X77250000Y-68500000D03*
X63175000Y-59250000D03*
X74625000Y-52650000D03*
X71150000Y-54800000D03*
X63250000Y-68500000D03*
X89900000Y-54400000D03*
X73275000Y-54050000D03*
X77250000Y-66500000D03*
X68437500Y-60800000D03*
X54800000Y-54400000D03*
X71825000Y-52650000D03*
X76050000Y-66500000D03*
X56900000Y-51100000D03*
X58300000Y-60900000D03*
X87100000Y-54400000D03*
X55700000Y-60900000D03*
X67687500Y-61950000D03*
X77400000Y-54050000D03*
X77400000Y-51250000D03*
X56600000Y-54400000D03*
X65650000Y-68500000D03*
X71600000Y-66500000D03*
X72800000Y-68500000D03*
X69600000Y-51250000D03*
X62050000Y-68500000D03*
X71600000Y-68500000D03*
X66850000Y-68500000D03*
X63150000Y-57850000D03*
X61200000Y-58200000D03*
X57400000Y-56150000D03*
X61000000Y-56150000D03*
X60400000Y-56900000D03*
X54600000Y-63100000D03*
X59250000Y-58200000D03*
X61600000Y-56900000D03*
X56000000Y-68500000D03*
X58600000Y-56150000D03*
X62850000Y-56900000D03*
X59200000Y-56900000D03*
X56800000Y-56900000D03*
D18*
X64800000Y-58125000D03*
D17*
X52700000Y-58800000D03*
X59800000Y-56150000D03*
X62300000Y-56150000D03*
X56200000Y-56150000D03*
X54200000Y-68500000D03*
X57300000Y-58200000D03*
X58000000Y-56900000D03*
X54400000Y-57600000D03*
D18*
X64075000Y-58125000D03*
D17*
X55100000Y-66900000D03*
D16*
X61450000Y-54650000D03*
X65787500Y-55837500D03*
X64350000Y-62950000D03*
X64087500Y-53450000D03*
X68237500Y-55050000D03*
D17*
X82400000Y-55100000D03*
X81100000Y-55100000D03*
X82400000Y-52800000D03*
D16*
X68537500Y-65700000D03*
D17*
X81050000Y-64925000D03*
X83700000Y-60000000D03*
X82425000Y-64925000D03*
D16*
X82150000Y-67500000D03*
X61837500Y-51912500D03*
X57950000Y-51850000D03*
D17*
X87400000Y-57800000D03*
X88200000Y-61200000D03*
X87400000Y-56300000D03*
X84200000Y-56100000D03*
X87800000Y-63000000D03*
X84700000Y-64800000D03*
X84700000Y-68800000D03*
X86500000Y-67100000D03*
X86500000Y-65100000D03*
X84700000Y-66700000D03*
X61600000Y-60400000D03*
G04 #@! TA.AperFunction,Conductor*
G36*
X61880402Y-50500382D02*
G01*
X61881902Y-50500500D01*
X61881908Y-50500500D01*
X80118098Y-50500500D01*
X80119598Y-50500382D01*
X80129321Y-50500000D01*
X83870679Y-50500000D01*
X83880402Y-50500382D01*
X83881902Y-50500500D01*
X83881908Y-50500500D01*
X83934108Y-50500500D01*
X90375500Y-50500500D01*
X90442539Y-50520185D01*
X90488294Y-50572989D01*
X90499500Y-50624500D01*
X90499500Y-56306495D01*
X90479815Y-56373534D01*
X90427011Y-56419289D01*
X90357853Y-56429233D01*
X90328570Y-56421199D01*
X90269752Y-56409500D01*
X90269748Y-56409500D01*
X88530252Y-56409500D01*
X88530247Y-56409500D01*
X88471770Y-56421131D01*
X88471769Y-56421132D01*
X88405447Y-56465447D01*
X88361132Y-56531769D01*
X88361131Y-56531770D01*
X88349500Y-56590247D01*
X88349500Y-58329752D01*
X88361131Y-58388229D01*
X88361132Y-58388230D01*
X88405447Y-58454552D01*
X88471769Y-58498867D01*
X88471770Y-58498868D01*
X88530247Y-58510499D01*
X88530250Y-58510500D01*
X88530252Y-58510500D01*
X90269750Y-58510500D01*
X90269751Y-58510499D01*
X90284485Y-58507568D01*
X90340210Y-58496485D01*
X90340434Y-58497612D01*
X90397511Y-58491473D01*
X90459991Y-58522745D01*
X90495647Y-58582832D01*
X90499500Y-58613504D01*
X90499500Y-59337275D01*
X90479815Y-59404314D01*
X90427011Y-59450069D01*
X90357853Y-59460013D01*
X90294297Y-59430988D01*
X90279646Y-59415940D01*
X90277685Y-59413550D01*
X90146410Y-59253590D01*
X90146408Y-59253588D01*
X90146407Y-59253587D01*
X90035739Y-59162765D01*
X89986450Y-59122315D01*
X89803954Y-59024768D01*
X89605934Y-58964700D01*
X89605932Y-58964699D01*
X89605934Y-58964699D01*
X89400000Y-58944417D01*
X89194067Y-58964699D01*
X88996043Y-59024769D01*
X88905117Y-59073371D01*
X88813550Y-59122315D01*
X88813548Y-59122316D01*
X88813547Y-59122317D01*
X88653589Y-59253589D01*
X88522317Y-59413547D01*
X88424769Y-59596043D01*
X88364699Y-59794067D01*
X88344417Y-60000000D01*
X88364699Y-60205932D01*
X88424769Y-60403956D01*
X88501240Y-60547022D01*
X88515482Y-60615425D01*
X88490482Y-60680669D01*
X88434177Y-60722040D01*
X88364444Y-60726402D01*
X88356948Y-60724453D01*
X88271964Y-60699500D01*
X88271961Y-60699500D01*
X88128039Y-60699500D01*
X88128036Y-60699500D01*
X87989949Y-60740045D01*
X87868873Y-60817856D01*
X87774623Y-60926626D01*
X87774622Y-60926628D01*
X87714834Y-61057543D01*
X87694353Y-61200000D01*
X87714834Y-61342456D01*
X87774622Y-61473371D01*
X87774623Y-61473373D01*
X87868872Y-61582143D01*
X87989947Y-61659953D01*
X87989950Y-61659954D01*
X87989949Y-61659954D01*
X88128036Y-61700499D01*
X88128038Y-61700500D01*
X88128039Y-61700500D01*
X88271962Y-61700500D01*
X88271962Y-61700499D01*
X88410053Y-61659953D01*
X88531128Y-61582143D01*
X88625377Y-61473373D01*
X88685165Y-61342457D01*
X88705647Y-61200000D01*
X88685165Y-61057543D01*
X88685165Y-61057542D01*
X88682667Y-61049036D01*
X88685450Y-61048218D01*
X88677587Y-60993596D01*
X88706600Y-60930035D01*
X88765371Y-60892250D01*
X88835240Y-60892236D01*
X88858780Y-60901861D01*
X88996046Y-60975232D01*
X89194066Y-61035300D01*
X89194065Y-61035300D01*
X89212529Y-61037118D01*
X89400000Y-61055583D01*
X89605934Y-61035300D01*
X89803954Y-60975232D01*
X89986450Y-60877685D01*
X90146410Y-60746410D01*
X90277685Y-60586450D01*
X90277685Y-60586448D01*
X90279646Y-60584060D01*
X90337392Y-60544725D01*
X90407236Y-60542854D01*
X90467005Y-60579041D01*
X90497721Y-60641797D01*
X90499500Y-60662724D01*
X90499500Y-63926495D01*
X90479815Y-63993534D01*
X90427011Y-64039289D01*
X90357853Y-64049233D01*
X90328570Y-64041199D01*
X90269752Y-64029500D01*
X90269748Y-64029500D01*
X88530252Y-64029500D01*
X88530247Y-64029500D01*
X88471770Y-64041131D01*
X88471769Y-64041132D01*
X88405447Y-64085447D01*
X88361132Y-64151769D01*
X88361131Y-64151770D01*
X88349500Y-64210247D01*
X88349500Y-65949752D01*
X88361131Y-66008229D01*
X88361132Y-66008230D01*
X88405447Y-66074552D01*
X88471769Y-66118867D01*
X88471770Y-66118868D01*
X88530247Y-66130499D01*
X88530250Y-66130500D01*
X88530252Y-66130500D01*
X90269750Y-66130500D01*
X90269751Y-66130499D01*
X90284485Y-66127568D01*
X90340210Y-66116485D01*
X90340434Y-66117612D01*
X90397511Y-66111473D01*
X90459991Y-66142745D01*
X90495647Y-66202832D01*
X90499500Y-66233504D01*
X90499500Y-66957275D01*
X90479815Y-67024314D01*
X90427011Y-67070069D01*
X90357853Y-67080013D01*
X90294297Y-67050988D01*
X90279646Y-67035940D01*
X90277685Y-67033550D01*
X90146410Y-66873590D01*
X90146408Y-66873588D01*
X90146407Y-66873587D01*
X89986452Y-66742317D01*
X89986453Y-66742317D01*
X89986450Y-66742315D01*
X89803954Y-66644768D01*
X89605934Y-66584700D01*
X89605932Y-66584699D01*
X89605934Y-66584699D01*
X89400000Y-66564417D01*
X89194067Y-66584699D01*
X88996043Y-66644769D01*
X88892715Y-66700000D01*
X88813550Y-66742315D01*
X88813548Y-66742316D01*
X88813547Y-66742317D01*
X88653589Y-66873589D01*
X88522317Y-67033547D01*
X88424769Y-67216043D01*
X88364699Y-67414067D01*
X88344417Y-67620000D01*
X88364699Y-67825932D01*
X88364700Y-67825934D01*
X88424768Y-68023954D01*
X88522315Y-68206450D01*
X88522317Y-68206452D01*
X88653589Y-68366410D01*
X88750209Y-68445702D01*
X88813550Y-68497685D01*
X88996046Y-68595232D01*
X89194066Y-68655300D01*
X89194065Y-68655300D01*
X89212529Y-68657118D01*
X89400000Y-68675583D01*
X89605934Y-68655300D01*
X89803954Y-68595232D01*
X89986450Y-68497685D01*
X90146410Y-68366410D01*
X90277685Y-68206450D01*
X90277685Y-68206448D01*
X90279646Y-68204060D01*
X90337392Y-68164725D01*
X90407236Y-68162854D01*
X90467005Y-68199041D01*
X90497721Y-68261797D01*
X90499500Y-68282724D01*
X90499500Y-69375500D01*
X90479815Y-69442539D01*
X90427011Y-69488294D01*
X90375500Y-69499500D01*
X84955538Y-69499500D01*
X84888499Y-69479815D01*
X84842744Y-69427011D01*
X84832800Y-69357853D01*
X84861825Y-69294297D01*
X84904023Y-69262707D01*
X84910047Y-69259954D01*
X84910053Y-69259953D01*
X85031128Y-69182143D01*
X85125377Y-69073373D01*
X85185165Y-68942457D01*
X85205647Y-68800000D01*
X85185165Y-68657543D01*
X85125377Y-68526627D01*
X85031128Y-68417857D01*
X84910053Y-68340047D01*
X84910051Y-68340046D01*
X84910049Y-68340045D01*
X84910050Y-68340045D01*
X84771963Y-68299500D01*
X84771961Y-68299500D01*
X84628039Y-68299500D01*
X84628036Y-68299500D01*
X84489949Y-68340045D01*
X84368873Y-68417856D01*
X84274623Y-68526626D01*
X84274622Y-68526628D01*
X84214834Y-68657543D01*
X84194353Y-68800000D01*
X84214834Y-68942456D01*
X84274622Y-69073371D01*
X84274623Y-69073373D01*
X84368872Y-69182143D01*
X84489947Y-69259953D01*
X84489949Y-69259953D01*
X84495977Y-69262707D01*
X84548779Y-69308464D01*
X84568462Y-69375504D01*
X84548776Y-69442542D01*
X84495970Y-69488296D01*
X84444462Y-69499500D01*
X83881902Y-69499500D01*
X83880402Y-69499618D01*
X83870679Y-69500000D01*
X80129321Y-69500000D01*
X80119598Y-69499618D01*
X80118098Y-69499500D01*
X80118092Y-69499500D01*
X80065892Y-69499500D01*
X62065892Y-69499500D01*
X62000000Y-69499500D01*
X61881908Y-69499500D01*
X61881902Y-69499500D01*
X61880402Y-69499618D01*
X61870679Y-69500000D01*
X58129321Y-69500000D01*
X58119598Y-69499618D01*
X58118098Y-69499500D01*
X58118092Y-69499500D01*
X58065892Y-69499500D01*
X51624500Y-69499500D01*
X51557461Y-69479815D01*
X51511706Y-69427011D01*
X51500500Y-69375500D01*
X51500500Y-68404575D01*
X51520185Y-68337536D01*
X51572989Y-68291781D01*
X51642147Y-68281837D01*
X51705703Y-68310862D01*
X51720354Y-68325912D01*
X51753587Y-68366408D01*
X51816279Y-68417857D01*
X51913550Y-68497685D01*
X52096046Y-68595232D01*
X52294066Y-68655300D01*
X52294065Y-68655300D01*
X52312529Y-68657118D01*
X52500000Y-68675583D01*
X52705934Y-68655300D01*
X52903954Y-68595232D01*
X53082119Y-68500000D01*
X53694353Y-68500000D01*
X53714834Y-68642456D01*
X53729963Y-68675583D01*
X53774623Y-68773373D01*
X53868872Y-68882143D01*
X53989947Y-68959953D01*
X53989950Y-68959954D01*
X53989949Y-68959954D01*
X54128036Y-69000499D01*
X54128038Y-69000500D01*
X54128039Y-69000500D01*
X54271962Y-69000500D01*
X54271962Y-69000499D01*
X54410053Y-68959953D01*
X54531128Y-68882143D01*
X54625377Y-68773373D01*
X54685165Y-68642457D01*
X54705647Y-68500000D01*
X55494353Y-68500000D01*
X55514834Y-68642456D01*
X55529963Y-68675583D01*
X55574623Y-68773373D01*
X55668872Y-68882143D01*
X55789947Y-68959953D01*
X55789950Y-68959954D01*
X55789949Y-68959954D01*
X55928036Y-69000499D01*
X55928038Y-69000500D01*
X55928039Y-69000500D01*
X56071962Y-69000500D01*
X56071962Y-69000499D01*
X56210053Y-68959953D01*
X56331128Y-68882143D01*
X56425377Y-68773373D01*
X56485165Y-68642457D01*
X56505647Y-68500000D01*
X56485165Y-68357543D01*
X56425377Y-68226627D01*
X56331128Y-68117857D01*
X56210053Y-68040047D01*
X56210051Y-68040046D01*
X56210049Y-68040045D01*
X56210050Y-68040045D01*
X56071963Y-67999500D01*
X56071961Y-67999500D01*
X55928039Y-67999500D01*
X55928036Y-67999500D01*
X55789949Y-68040045D01*
X55668873Y-68117856D01*
X55574623Y-68226626D01*
X55574622Y-68226628D01*
X55514834Y-68357543D01*
X55494353Y-68500000D01*
X54705647Y-68500000D01*
X54685165Y-68357543D01*
X54625377Y-68226627D01*
X54531128Y-68117857D01*
X54410053Y-68040047D01*
X54410051Y-68040046D01*
X54410049Y-68040045D01*
X54410050Y-68040045D01*
X54271963Y-67999500D01*
X54271961Y-67999500D01*
X54128039Y-67999500D01*
X54128036Y-67999500D01*
X53989949Y-68040045D01*
X53868873Y-68117856D01*
X53774623Y-68226626D01*
X53774622Y-68226628D01*
X53714834Y-68357543D01*
X53694353Y-68500000D01*
X53082119Y-68500000D01*
X53086450Y-68497685D01*
X53246410Y-68366410D01*
X53377685Y-68206450D01*
X53475232Y-68023954D01*
X53535300Y-67825934D01*
X53555583Y-67620000D01*
X53543764Y-67499998D01*
X81544318Y-67499998D01*
X81544318Y-67500001D01*
X81564955Y-67656760D01*
X81564956Y-67656762D01*
X81625464Y-67802841D01*
X81721718Y-67928282D01*
X81847159Y-68024536D01*
X81993238Y-68085044D01*
X82071619Y-68095363D01*
X82149999Y-68105682D01*
X82150000Y-68105682D01*
X82150001Y-68105682D01*
X82202254Y-68098802D01*
X82306762Y-68085044D01*
X82452841Y-68024536D01*
X82578282Y-67928282D01*
X82674536Y-67802841D01*
X82735044Y-67656762D01*
X82755682Y-67500000D01*
X82735044Y-67343238D01*
X82674536Y-67197159D01*
X82578282Y-67071718D01*
X82452841Y-66975464D01*
X82404146Y-66955294D01*
X82306762Y-66914956D01*
X82306760Y-66914955D01*
X82150001Y-66894318D01*
X82149999Y-66894318D01*
X81993239Y-66914955D01*
X81993237Y-66914956D01*
X81847160Y-66975463D01*
X81721718Y-67071718D01*
X81625463Y-67197160D01*
X81564956Y-67343237D01*
X81564955Y-67343239D01*
X81544318Y-67499998D01*
X53543764Y-67499998D01*
X53535300Y-67414066D01*
X53475232Y-67216046D01*
X53377685Y-67033550D01*
X53280358Y-66914956D01*
X53268084Y-66900000D01*
X54594353Y-66900000D01*
X54614834Y-67042456D01*
X54618731Y-67050988D01*
X54674623Y-67173373D01*
X54768872Y-67282143D01*
X54889947Y-67359953D01*
X54889950Y-67359954D01*
X54889949Y-67359954D01*
X55028036Y-67400499D01*
X55028038Y-67400500D01*
X55028039Y-67400500D01*
X55171962Y-67400500D01*
X55171962Y-67400499D01*
X55310053Y-67359953D01*
X55431128Y-67282143D01*
X55525377Y-67173373D01*
X55585165Y-67042457D01*
X55605647Y-66900000D01*
X55585165Y-66757543D01*
X55558886Y-66700000D01*
X84194353Y-66700000D01*
X84214834Y-66842456D01*
X84274622Y-66973371D01*
X84274623Y-66973373D01*
X84368872Y-67082143D01*
X84489947Y-67159953D01*
X84489950Y-67159954D01*
X84489949Y-67159954D01*
X84597107Y-67191417D01*
X84616660Y-67197159D01*
X84628036Y-67200499D01*
X84628038Y-67200500D01*
X84628039Y-67200500D01*
X84771962Y-67200500D01*
X84771962Y-67200499D01*
X84910053Y-67159953D01*
X85003342Y-67100000D01*
X85994353Y-67100000D01*
X86014834Y-67242456D01*
X86060861Y-67343239D01*
X86074623Y-67373373D01*
X86168872Y-67482143D01*
X86289947Y-67559953D01*
X86289950Y-67559954D01*
X86289949Y-67559954D01*
X86428036Y-67600499D01*
X86428038Y-67600500D01*
X86428039Y-67600500D01*
X86571962Y-67600500D01*
X86571962Y-67600499D01*
X86710053Y-67559953D01*
X86831128Y-67482143D01*
X86925377Y-67373373D01*
X86985165Y-67242457D01*
X87005647Y-67100000D01*
X86985165Y-66957543D01*
X86925377Y-66826627D01*
X86831128Y-66717857D01*
X86710053Y-66640047D01*
X86710051Y-66640046D01*
X86710049Y-66640045D01*
X86710050Y-66640045D01*
X86571963Y-66599500D01*
X86571961Y-66599500D01*
X86428039Y-66599500D01*
X86428036Y-66599500D01*
X86289949Y-66640045D01*
X86168873Y-66717856D01*
X86074623Y-66826626D01*
X86074622Y-66826628D01*
X86014834Y-66957543D01*
X85994353Y-67100000D01*
X85003342Y-67100000D01*
X85031128Y-67082143D01*
X85125377Y-66973373D01*
X85185165Y-66842457D01*
X85205647Y-66700000D01*
X85185165Y-66557543D01*
X85125377Y-66426627D01*
X85031128Y-66317857D01*
X84910053Y-66240047D01*
X84910051Y-66240046D01*
X84910049Y-66240045D01*
X84910050Y-66240045D01*
X84771963Y-66199500D01*
X84771961Y-66199500D01*
X84628039Y-66199500D01*
X84628036Y-66199500D01*
X84489949Y-66240045D01*
X84368873Y-66317856D01*
X84274623Y-66426626D01*
X84274622Y-66426628D01*
X84214834Y-66557543D01*
X84194353Y-66700000D01*
X55558886Y-66700000D01*
X55525377Y-66626627D01*
X55431128Y-66517857D01*
X55310053Y-66440047D01*
X55310051Y-66440046D01*
X55310049Y-66440045D01*
X55310050Y-66440045D01*
X55171963Y-66399500D01*
X55171961Y-66399500D01*
X55028039Y-66399500D01*
X55028036Y-66399500D01*
X54889949Y-66440045D01*
X54768873Y-66517856D01*
X54674623Y-66626626D01*
X54674622Y-66626628D01*
X54614834Y-66757543D01*
X54594353Y-66900000D01*
X53268084Y-66900000D01*
X53246410Y-66873589D01*
X53086452Y-66742317D01*
X53086453Y-66742317D01*
X53086450Y-66742315D01*
X52903954Y-66644768D01*
X52705934Y-66584700D01*
X52705932Y-66584699D01*
X52705934Y-66584699D01*
X52500000Y-66564417D01*
X52294067Y-66584699D01*
X52096043Y-66644769D01*
X51992715Y-66700000D01*
X51913550Y-66742315D01*
X51913548Y-66742316D01*
X51913547Y-66742317D01*
X51753589Y-66873589D01*
X51720354Y-66914088D01*
X51662608Y-66953423D01*
X51592763Y-66955294D01*
X51532995Y-66919107D01*
X51502279Y-66856351D01*
X51500500Y-66835424D01*
X51500500Y-66254500D01*
X51520185Y-66187461D01*
X51572989Y-66141706D01*
X51624500Y-66130500D01*
X53369750Y-66130500D01*
X53369751Y-66130499D01*
X53384568Y-66127552D01*
X53428229Y-66118868D01*
X53428229Y-66118867D01*
X53428231Y-66118867D01*
X53494552Y-66074552D01*
X53538867Y-66008231D01*
X53538867Y-66008229D01*
X53538868Y-66008229D01*
X53550499Y-65949752D01*
X53550500Y-65949750D01*
X53550500Y-65699998D01*
X67931818Y-65699998D01*
X67931818Y-65700001D01*
X67952455Y-65856760D01*
X67952456Y-65856762D01*
X68012964Y-66002841D01*
X68109218Y-66128282D01*
X68234659Y-66224536D01*
X68380738Y-66285044D01*
X68459119Y-66295363D01*
X68537499Y-66305682D01*
X68537500Y-66305682D01*
X68537501Y-66305682D01*
X68589754Y-66298802D01*
X68694262Y-66285044D01*
X68840341Y-66224536D01*
X68965782Y-66128282D01*
X69062036Y-66002841D01*
X69122544Y-65856762D01*
X69143182Y-65700000D01*
X69122544Y-65543238D01*
X69062036Y-65397159D01*
X68965782Y-65271718D01*
X68840341Y-65175464D01*
X68694262Y-65114956D01*
X68694260Y-65114955D01*
X68537501Y-65094318D01*
X68537499Y-65094318D01*
X68380739Y-65114955D01*
X68380737Y-65114956D01*
X68234660Y-65175463D01*
X68109218Y-65271718D01*
X68012963Y-65397160D01*
X67952456Y-65543237D01*
X67952455Y-65543239D01*
X67931818Y-65699998D01*
X53550500Y-65699998D01*
X53550500Y-64210249D01*
X53550499Y-64210247D01*
X53538868Y-64151770D01*
X53538867Y-64151769D01*
X53494552Y-64085447D01*
X53428230Y-64041132D01*
X53428229Y-64041131D01*
X53369752Y-64029500D01*
X53369748Y-64029500D01*
X51630252Y-64029500D01*
X51624500Y-64029500D01*
X51557461Y-64009815D01*
X51511706Y-63957011D01*
X51500500Y-63905500D01*
X51500500Y-63100000D01*
X54094353Y-63100000D01*
X54114834Y-63242456D01*
X54119576Y-63252839D01*
X54174623Y-63373373D01*
X54268872Y-63482143D01*
X54389947Y-63559953D01*
X54389950Y-63559954D01*
X54389949Y-63559954D01*
X54528036Y-63600499D01*
X54528038Y-63600500D01*
X54528039Y-63600500D01*
X54671962Y-63600500D01*
X54671962Y-63600499D01*
X54740936Y-63580247D01*
X55949500Y-63580247D01*
X55949500Y-65219752D01*
X55961131Y-65278229D01*
X55961132Y-65278230D01*
X56005447Y-65344552D01*
X56071769Y-65388867D01*
X56071770Y-65388868D01*
X56130247Y-65400499D01*
X56130250Y-65400500D01*
X56130252Y-65400500D01*
X57769750Y-65400500D01*
X57769751Y-65400499D01*
X57786544Y-65397159D01*
X57828229Y-65388868D01*
X57828229Y-65388867D01*
X57828231Y-65388867D01*
X57894552Y-65344552D01*
X57938867Y-65278231D01*
X57938867Y-65278229D01*
X57938868Y-65278229D01*
X57950499Y-65219752D01*
X57950500Y-65219750D01*
X57950500Y-64925000D01*
X80544353Y-64925000D01*
X80564834Y-65067456D01*
X80586527Y-65114956D01*
X80624623Y-65198373D01*
X80718872Y-65307143D01*
X80839947Y-65384953D01*
X80839950Y-65384954D01*
X80839949Y-65384954D01*
X80978036Y-65425499D01*
X80978038Y-65425500D01*
X80978039Y-65425500D01*
X81121962Y-65425500D01*
X81121962Y-65425499D01*
X81260053Y-65384953D01*
X81381128Y-65307143D01*
X81475377Y-65198373D01*
X81535165Y-65067457D01*
X81555647Y-64925000D01*
X81919353Y-64925000D01*
X81939834Y-65067456D01*
X81961527Y-65114956D01*
X81999623Y-65198373D01*
X82093872Y-65307143D01*
X82214947Y-65384953D01*
X82214950Y-65384954D01*
X82214949Y-65384954D01*
X82353036Y-65425499D01*
X82353038Y-65425500D01*
X82353039Y-65425500D01*
X82496962Y-65425500D01*
X82496962Y-65425499D01*
X82635053Y-65384953D01*
X82756128Y-65307143D01*
X82850377Y-65198373D01*
X82910165Y-65067457D01*
X82930647Y-64925000D01*
X82912675Y-64800000D01*
X84194353Y-64800000D01*
X84214834Y-64942456D01*
X84271921Y-65067456D01*
X84274623Y-65073373D01*
X84368872Y-65182143D01*
X84489947Y-65259953D01*
X84489950Y-65259954D01*
X84489949Y-65259954D01*
X84628036Y-65300499D01*
X84628038Y-65300500D01*
X84628039Y-65300500D01*
X84771962Y-65300500D01*
X84771962Y-65300499D01*
X84910053Y-65259953D01*
X85031128Y-65182143D01*
X85102305Y-65100000D01*
X85994353Y-65100000D01*
X86014834Y-65242456D01*
X86044376Y-65307143D01*
X86074623Y-65373373D01*
X86168872Y-65482143D01*
X86289947Y-65559953D01*
X86289950Y-65559954D01*
X86289949Y-65559954D01*
X86428036Y-65600499D01*
X86428038Y-65600500D01*
X86428039Y-65600500D01*
X86571962Y-65600500D01*
X86571962Y-65600499D01*
X86710053Y-65559953D01*
X86831128Y-65482143D01*
X86925377Y-65373373D01*
X86985165Y-65242457D01*
X87005647Y-65100000D01*
X86985165Y-64957543D01*
X86925377Y-64826627D01*
X86831128Y-64717857D01*
X86710053Y-64640047D01*
X86710051Y-64640046D01*
X86710049Y-64640045D01*
X86710050Y-64640045D01*
X86571963Y-64599500D01*
X86571961Y-64599500D01*
X86428039Y-64599500D01*
X86428036Y-64599500D01*
X86289949Y-64640045D01*
X86168873Y-64717856D01*
X86074623Y-64826626D01*
X86074622Y-64826628D01*
X86014834Y-64957543D01*
X85994353Y-65100000D01*
X85102305Y-65100000D01*
X85125377Y-65073373D01*
X85185165Y-64942457D01*
X85205647Y-64800000D01*
X85185165Y-64657543D01*
X85125377Y-64526627D01*
X85031128Y-64417857D01*
X84910053Y-64340047D01*
X84910051Y-64340046D01*
X84910049Y-64340045D01*
X84910050Y-64340045D01*
X84771963Y-64299500D01*
X84771961Y-64299500D01*
X84628039Y-64299500D01*
X84628036Y-64299500D01*
X84489949Y-64340045D01*
X84368873Y-64417856D01*
X84274623Y-64526626D01*
X84274622Y-64526628D01*
X84214834Y-64657543D01*
X84194353Y-64800000D01*
X82912675Y-64800000D01*
X82910165Y-64782543D01*
X82850377Y-64651627D01*
X82756128Y-64542857D01*
X82635053Y-64465047D01*
X82635051Y-64465046D01*
X82635049Y-64465045D01*
X82635050Y-64465045D01*
X82496963Y-64424500D01*
X82496961Y-64424500D01*
X82353039Y-64424500D01*
X82353036Y-64424500D01*
X82214949Y-64465045D01*
X82093873Y-64542856D01*
X81999623Y-64651626D01*
X81999622Y-64651628D01*
X81939834Y-64782543D01*
X81919353Y-64925000D01*
X81555647Y-64925000D01*
X81535165Y-64782543D01*
X81475377Y-64651627D01*
X81381128Y-64542857D01*
X81260053Y-64465047D01*
X81260051Y-64465046D01*
X81260049Y-64465045D01*
X81260050Y-64465045D01*
X81121963Y-64424500D01*
X81121961Y-64424500D01*
X80978039Y-64424500D01*
X80978036Y-64424500D01*
X80839949Y-64465045D01*
X80718873Y-64542856D01*
X80624623Y-64651626D01*
X80624622Y-64651628D01*
X80564834Y-64782543D01*
X80544353Y-64925000D01*
X57950500Y-64925000D01*
X57950500Y-63580249D01*
X57950499Y-63580247D01*
X57938868Y-63521770D01*
X57938867Y-63521769D01*
X57894552Y-63455447D01*
X57828230Y-63411132D01*
X57828229Y-63411131D01*
X57769752Y-63399500D01*
X57769748Y-63399500D01*
X56130252Y-63399500D01*
X56130247Y-63399500D01*
X56071770Y-63411131D01*
X56071769Y-63411132D01*
X56005447Y-63455447D01*
X55961132Y-63521769D01*
X55961131Y-63521770D01*
X55949500Y-63580247D01*
X54740936Y-63580247D01*
X54810053Y-63559953D01*
X54931128Y-63482143D01*
X55025377Y-63373373D01*
X55085165Y-63242457D01*
X55105647Y-63100000D01*
X55085165Y-62957543D01*
X55081719Y-62949998D01*
X63744318Y-62949998D01*
X63744318Y-62950001D01*
X63764955Y-63106760D01*
X63764956Y-63106762D01*
X63825464Y-63252841D01*
X63921718Y-63378282D01*
X64047159Y-63474536D01*
X64193238Y-63535044D01*
X64271619Y-63545363D01*
X64349999Y-63555682D01*
X64350000Y-63555682D01*
X64350001Y-63555682D01*
X64402254Y-63548802D01*
X64506762Y-63535044D01*
X64652841Y-63474536D01*
X64778282Y-63378282D01*
X64874536Y-63252841D01*
X64935044Y-63106762D01*
X64949099Y-63000000D01*
X87294353Y-63000000D01*
X87314834Y-63142456D01*
X87360504Y-63242457D01*
X87374623Y-63273373D01*
X87468872Y-63382143D01*
X87589947Y-63459953D01*
X87589950Y-63459954D01*
X87589949Y-63459954D01*
X87728036Y-63500499D01*
X87728038Y-63500500D01*
X87728039Y-63500500D01*
X87871962Y-63500500D01*
X87871962Y-63500499D01*
X88010053Y-63459953D01*
X88131128Y-63382143D01*
X88225377Y-63273373D01*
X88285165Y-63142457D01*
X88305647Y-63000000D01*
X88285165Y-62857543D01*
X88225377Y-62726627D01*
X88131128Y-62617857D01*
X88010053Y-62540047D01*
X88010051Y-62540046D01*
X88010049Y-62540045D01*
X88010050Y-62540045D01*
X87871963Y-62499500D01*
X87871961Y-62499500D01*
X87728039Y-62499500D01*
X87728036Y-62499500D01*
X87589949Y-62540045D01*
X87468873Y-62617856D01*
X87374623Y-62726626D01*
X87374622Y-62726628D01*
X87314834Y-62857543D01*
X87294353Y-63000000D01*
X64949099Y-63000000D01*
X64955682Y-62950000D01*
X64935044Y-62793238D01*
X64874536Y-62647159D01*
X64778282Y-62521718D01*
X64652841Y-62425464D01*
X64506762Y-62364956D01*
X64506760Y-62364955D01*
X64350001Y-62344318D01*
X64349999Y-62344318D01*
X64193239Y-62364955D01*
X64193237Y-62364956D01*
X64047160Y-62425463D01*
X63921718Y-62521718D01*
X63825463Y-62647160D01*
X63764956Y-62793237D01*
X63764955Y-62793239D01*
X63744318Y-62949998D01*
X55081719Y-62949998D01*
X55025377Y-62826627D01*
X54931128Y-62717857D01*
X54810053Y-62640047D01*
X54810051Y-62640046D01*
X54810049Y-62640045D01*
X54810050Y-62640045D01*
X54671963Y-62599500D01*
X54671961Y-62599500D01*
X54528039Y-62599500D01*
X54528036Y-62599500D01*
X54389949Y-62640045D01*
X54268873Y-62717856D01*
X54174623Y-62826626D01*
X54174622Y-62826628D01*
X54114834Y-62957543D01*
X54094353Y-63100000D01*
X51500500Y-63100000D01*
X51500500Y-62000000D01*
X84719678Y-62000000D01*
X84738915Y-62183029D01*
X84738916Y-62183032D01*
X84795783Y-62358053D01*
X84795786Y-62358059D01*
X84887805Y-62517440D01*
X84997327Y-62639077D01*
X85010949Y-62654206D01*
X85010951Y-62654208D01*
X85159834Y-62762378D01*
X85159835Y-62762378D01*
X85159839Y-62762381D01*
X85296953Y-62823428D01*
X85327961Y-62837234D01*
X85327966Y-62837236D01*
X85507981Y-62875500D01*
X85692019Y-62875500D01*
X85872034Y-62837236D01*
X86040161Y-62762381D01*
X86189050Y-62654207D01*
X86312195Y-62517440D01*
X86404214Y-62358059D01*
X86461085Y-62183029D01*
X86480322Y-62000000D01*
X86461085Y-61816971D01*
X86410067Y-61659954D01*
X86404216Y-61641946D01*
X86404213Y-61641940D01*
X86369689Y-61582143D01*
X86312195Y-61482560D01*
X86189050Y-61345793D01*
X86189048Y-61345791D01*
X86040165Y-61237621D01*
X86040162Y-61237619D01*
X86040161Y-61237619D01*
X85979112Y-61210438D01*
X85872038Y-61162765D01*
X85872033Y-61162763D01*
X85692019Y-61124500D01*
X85507981Y-61124500D01*
X85327966Y-61162763D01*
X85327961Y-61162765D01*
X85159839Y-61237619D01*
X85159834Y-61237621D01*
X85010951Y-61345791D01*
X85010949Y-61345793D01*
X84887804Y-61482561D01*
X84795786Y-61641940D01*
X84795783Y-61641946D01*
X84738916Y-61816967D01*
X84738915Y-61816971D01*
X84719678Y-62000000D01*
X51500500Y-62000000D01*
X51500500Y-60000000D01*
X83194353Y-60000000D01*
X83214834Y-60142456D01*
X83233365Y-60183032D01*
X83274623Y-60273373D01*
X83368872Y-60382143D01*
X83489947Y-60459953D01*
X83489950Y-60459954D01*
X83489949Y-60459954D01*
X83628036Y-60500499D01*
X83628038Y-60500500D01*
X83628039Y-60500500D01*
X83771962Y-60500500D01*
X83771962Y-60500499D01*
X83910053Y-60459953D01*
X84031128Y-60382143D01*
X84125377Y-60273373D01*
X84185165Y-60142457D01*
X84205647Y-60000000D01*
X84719678Y-60000000D01*
X84738915Y-60183029D01*
X84738916Y-60183032D01*
X84795783Y-60358053D01*
X84795786Y-60358059D01*
X84887805Y-60517440D01*
X84914441Y-60547022D01*
X85010949Y-60654206D01*
X85010951Y-60654208D01*
X85159834Y-60762378D01*
X85159835Y-60762378D01*
X85159839Y-60762381D01*
X85284438Y-60817856D01*
X85327961Y-60837234D01*
X85327966Y-60837236D01*
X85507981Y-60875500D01*
X85692019Y-60875500D01*
X85872034Y-60837236D01*
X86040161Y-60762381D01*
X86189050Y-60654207D01*
X86312195Y-60517440D01*
X86404214Y-60358059D01*
X86461085Y-60183029D01*
X86480322Y-60000000D01*
X86461085Y-59816971D01*
X86404214Y-59641941D01*
X86312195Y-59482560D01*
X86189050Y-59345793D01*
X86189048Y-59345791D01*
X86040165Y-59237621D01*
X86040162Y-59237619D01*
X86040161Y-59237619D01*
X85979112Y-59210438D01*
X85872038Y-59162765D01*
X85872033Y-59162763D01*
X85692019Y-59124500D01*
X85507981Y-59124500D01*
X85327966Y-59162763D01*
X85327961Y-59162765D01*
X85159839Y-59237619D01*
X85159834Y-59237621D01*
X85010951Y-59345791D01*
X85010949Y-59345793D01*
X84887804Y-59482561D01*
X84795786Y-59641940D01*
X84795783Y-59641946D01*
X84768269Y-59726628D01*
X84738915Y-59816971D01*
X84719678Y-60000000D01*
X84205647Y-60000000D01*
X84185165Y-59857543D01*
X84125377Y-59726627D01*
X84031128Y-59617857D01*
X83910053Y-59540047D01*
X83910051Y-59540046D01*
X83910049Y-59540045D01*
X83910050Y-59540045D01*
X83771963Y-59499500D01*
X83771961Y-59499500D01*
X83628039Y-59499500D01*
X83628036Y-59499500D01*
X83489949Y-59540045D01*
X83368873Y-59617856D01*
X83274623Y-59726626D01*
X83274622Y-59726628D01*
X83214834Y-59857543D01*
X83194353Y-60000000D01*
X51500500Y-60000000D01*
X51500500Y-58800000D01*
X52194353Y-58800000D01*
X52214834Y-58942456D01*
X52252426Y-59024769D01*
X52274623Y-59073373D01*
X52368872Y-59182143D01*
X52489947Y-59259953D01*
X52489950Y-59259954D01*
X52489949Y-59259954D01*
X52628036Y-59300499D01*
X52628038Y-59300500D01*
X52628039Y-59300500D01*
X52771962Y-59300500D01*
X52771962Y-59300499D01*
X52910053Y-59259953D01*
X53031128Y-59182143D01*
X53125377Y-59073373D01*
X53185165Y-58942457D01*
X53205647Y-58800000D01*
X53185165Y-58657543D01*
X53125377Y-58526627D01*
X53031128Y-58417857D01*
X52910053Y-58340047D01*
X52910051Y-58340046D01*
X52910049Y-58340045D01*
X52910050Y-58340045D01*
X52771963Y-58299500D01*
X52771961Y-58299500D01*
X52628039Y-58299500D01*
X52628036Y-58299500D01*
X52489949Y-58340045D01*
X52368873Y-58417856D01*
X52274623Y-58526626D01*
X52274622Y-58526628D01*
X52214834Y-58657543D01*
X52194353Y-58800000D01*
X51500500Y-58800000D01*
X51500500Y-58200000D01*
X56794353Y-58200000D01*
X56814834Y-58342456D01*
X56874622Y-58473371D01*
X56874623Y-58473373D01*
X56968872Y-58582143D01*
X57089947Y-58659953D01*
X57089950Y-58659954D01*
X57089949Y-58659954D01*
X57228036Y-58700499D01*
X57228038Y-58700500D01*
X57228039Y-58700500D01*
X57371962Y-58700500D01*
X57371962Y-58700499D01*
X57510053Y-58659953D01*
X57631128Y-58582143D01*
X57725377Y-58473373D01*
X57785165Y-58342457D01*
X57805647Y-58200000D01*
X58744353Y-58200000D01*
X58764834Y-58342456D01*
X58824622Y-58473371D01*
X58824623Y-58473373D01*
X58918872Y-58582143D01*
X59039947Y-58659953D01*
X59039950Y-58659954D01*
X59039949Y-58659954D01*
X59178036Y-58700499D01*
X59178038Y-58700500D01*
X59178039Y-58700500D01*
X59321962Y-58700500D01*
X59321962Y-58700499D01*
X59460053Y-58659953D01*
X59581128Y-58582143D01*
X59675377Y-58473373D01*
X59735165Y-58342457D01*
X59755647Y-58200000D01*
X60694353Y-58200000D01*
X60714834Y-58342456D01*
X60774622Y-58473371D01*
X60774623Y-58473373D01*
X60868872Y-58582143D01*
X60989947Y-58659953D01*
X60989950Y-58659954D01*
X60989949Y-58659954D01*
X61128036Y-58700499D01*
X61128038Y-58700500D01*
X61128039Y-58700500D01*
X61271962Y-58700500D01*
X61271962Y-58700499D01*
X61410053Y-58659953D01*
X61531128Y-58582143D01*
X61625377Y-58473373D01*
X61685165Y-58342457D01*
X61705647Y-58200000D01*
X61685165Y-58057543D01*
X61625377Y-57926627D01*
X61531128Y-57817857D01*
X61410053Y-57740047D01*
X61410051Y-57740046D01*
X61410049Y-57740045D01*
X61410050Y-57740045D01*
X61271963Y-57699500D01*
X61271961Y-57699500D01*
X61128039Y-57699500D01*
X61128036Y-57699500D01*
X60989949Y-57740045D01*
X60868873Y-57817856D01*
X60774623Y-57926626D01*
X60774622Y-57926628D01*
X60714834Y-58057543D01*
X60694353Y-58200000D01*
X59755647Y-58200000D01*
X59735165Y-58057543D01*
X59675377Y-57926627D01*
X59581128Y-57817857D01*
X59460053Y-57740047D01*
X59460051Y-57740046D01*
X59460049Y-57740045D01*
X59460050Y-57740045D01*
X59321963Y-57699500D01*
X59321961Y-57699500D01*
X59178039Y-57699500D01*
X59178036Y-57699500D01*
X59039949Y-57740045D01*
X58918873Y-57817856D01*
X58824623Y-57926626D01*
X58824622Y-57926628D01*
X58764834Y-58057543D01*
X58744353Y-58200000D01*
X57805647Y-58200000D01*
X57785165Y-58057543D01*
X57725377Y-57926627D01*
X57631128Y-57817857D01*
X57510053Y-57740047D01*
X57510051Y-57740046D01*
X57510049Y-57740045D01*
X57510050Y-57740045D01*
X57371963Y-57699500D01*
X57371961Y-57699500D01*
X57228039Y-57699500D01*
X57228036Y-57699500D01*
X57089949Y-57740045D01*
X56968873Y-57817856D01*
X56874623Y-57926626D01*
X56874622Y-57926628D01*
X56814834Y-58057543D01*
X56794353Y-58200000D01*
X51500500Y-58200000D01*
X51500500Y-57600000D01*
X53894353Y-57600000D01*
X53914834Y-57742456D01*
X53973895Y-57871780D01*
X53974623Y-57873373D01*
X54068872Y-57982143D01*
X54189947Y-58059953D01*
X54189950Y-58059954D01*
X54189949Y-58059954D01*
X54328036Y-58100499D01*
X54328038Y-58100500D01*
X54328039Y-58100500D01*
X54471962Y-58100500D01*
X54471962Y-58100499D01*
X54610053Y-58059953D01*
X54731128Y-57982143D01*
X54825377Y-57873373D01*
X54885165Y-57742457D01*
X54905647Y-57600000D01*
X54885165Y-57457543D01*
X54825377Y-57326627D01*
X54731128Y-57217857D01*
X54610053Y-57140047D01*
X54610051Y-57140046D01*
X54610049Y-57140045D01*
X54610050Y-57140045D01*
X54471963Y-57099500D01*
X54471961Y-57099500D01*
X54328039Y-57099500D01*
X54328036Y-57099500D01*
X54189949Y-57140045D01*
X54068873Y-57217856D01*
X53974623Y-57326626D01*
X53974622Y-57326628D01*
X53914834Y-57457543D01*
X53894353Y-57600000D01*
X51500500Y-57600000D01*
X51500500Y-56150000D01*
X55694353Y-56150000D01*
X55714834Y-56292456D01*
X55773600Y-56421133D01*
X55774623Y-56423373D01*
X55868872Y-56532143D01*
X55989947Y-56609953D01*
X55989950Y-56609954D01*
X55989949Y-56609954D01*
X56128036Y-56650499D01*
X56128038Y-56650500D01*
X56187122Y-56650500D01*
X56254161Y-56670185D01*
X56299916Y-56722989D01*
X56309860Y-56792147D01*
X56294353Y-56900000D01*
X56314834Y-57042456D01*
X56340886Y-57099500D01*
X56374623Y-57173373D01*
X56468872Y-57282143D01*
X56589947Y-57359953D01*
X56589950Y-57359954D01*
X56589949Y-57359954D01*
X56692432Y-57390045D01*
X56724868Y-57399569D01*
X56728036Y-57400499D01*
X56728038Y-57400500D01*
X56728039Y-57400500D01*
X56871962Y-57400500D01*
X56871962Y-57400499D01*
X57010053Y-57359953D01*
X57131128Y-57282143D01*
X57225377Y-57173373D01*
X57285165Y-57042457D01*
X57285165Y-57042455D01*
X57287206Y-57037987D01*
X57332961Y-56985183D01*
X57400000Y-56965499D01*
X57467040Y-56985184D01*
X57512794Y-57037987D01*
X57514834Y-57042455D01*
X57514835Y-57042457D01*
X57574623Y-57173373D01*
X57668872Y-57282143D01*
X57789947Y-57359953D01*
X57789950Y-57359954D01*
X57789949Y-57359954D01*
X57892432Y-57390045D01*
X57924868Y-57399569D01*
X57928036Y-57400499D01*
X57928038Y-57400500D01*
X57928039Y-57400500D01*
X58071962Y-57400500D01*
X58071962Y-57400499D01*
X58210053Y-57359953D01*
X58331128Y-57282143D01*
X58425377Y-57173373D01*
X58485165Y-57042457D01*
X58485165Y-57042455D01*
X58487206Y-57037987D01*
X58532961Y-56985183D01*
X58600000Y-56965499D01*
X58667040Y-56985184D01*
X58712794Y-57037987D01*
X58714834Y-57042455D01*
X58714835Y-57042457D01*
X58774623Y-57173373D01*
X58868872Y-57282143D01*
X58989947Y-57359953D01*
X58989950Y-57359954D01*
X58989949Y-57359954D01*
X59092432Y-57390045D01*
X59124868Y-57399569D01*
X59128036Y-57400499D01*
X59128038Y-57400500D01*
X59128039Y-57400500D01*
X59271962Y-57400500D01*
X59271962Y-57400499D01*
X59410053Y-57359953D01*
X59531128Y-57282143D01*
X59625377Y-57173373D01*
X59685165Y-57042457D01*
X59685165Y-57042455D01*
X59687206Y-57037987D01*
X59732961Y-56985183D01*
X59800000Y-56965499D01*
X59867040Y-56985184D01*
X59912794Y-57037987D01*
X59914834Y-57042455D01*
X59914835Y-57042457D01*
X59974623Y-57173373D01*
X60068872Y-57282143D01*
X60189947Y-57359953D01*
X60189950Y-57359954D01*
X60189949Y-57359954D01*
X60292432Y-57390045D01*
X60324868Y-57399569D01*
X60328036Y-57400499D01*
X60328038Y-57400500D01*
X60328039Y-57400500D01*
X60471962Y-57400500D01*
X60471962Y-57400499D01*
X60610053Y-57359953D01*
X60731128Y-57282143D01*
X60825377Y-57173373D01*
X60885165Y-57042457D01*
X60885165Y-57042455D01*
X60887206Y-57037987D01*
X60932961Y-56985183D01*
X61000000Y-56965499D01*
X61067040Y-56985184D01*
X61112794Y-57037987D01*
X61114834Y-57042455D01*
X61114835Y-57042457D01*
X61174623Y-57173373D01*
X61268872Y-57282143D01*
X61389947Y-57359953D01*
X61389950Y-57359954D01*
X61389949Y-57359954D01*
X61492432Y-57390045D01*
X61524868Y-57399569D01*
X61528036Y-57400499D01*
X61528038Y-57400500D01*
X61528039Y-57400500D01*
X61671962Y-57400500D01*
X61671962Y-57400499D01*
X61810053Y-57359953D01*
X61931128Y-57282143D01*
X62025377Y-57173373D01*
X62085165Y-57042457D01*
X62102262Y-56923542D01*
X62131287Y-56859988D01*
X62190065Y-56822213D01*
X62259935Y-56822213D01*
X62318713Y-56859987D01*
X62347738Y-56923543D01*
X62364834Y-57042456D01*
X62390886Y-57099500D01*
X62424623Y-57173373D01*
X62518872Y-57282143D01*
X62639947Y-57359953D01*
X62671984Y-57369359D01*
X62730762Y-57407133D01*
X62759788Y-57470688D01*
X62749845Y-57539847D01*
X62730767Y-57569535D01*
X62724625Y-57576623D01*
X62724622Y-57576628D01*
X62664834Y-57707543D01*
X62644353Y-57850000D01*
X62664834Y-57992456D01*
X62714177Y-58100499D01*
X62724623Y-58123373D01*
X62818872Y-58232143D01*
X62939947Y-58309953D01*
X62939950Y-58309954D01*
X62939949Y-58309954D01*
X63078036Y-58350499D01*
X63078038Y-58350500D01*
X63078039Y-58350500D01*
X63221962Y-58350500D01*
X63221962Y-58350499D01*
X63360053Y-58309953D01*
X63481128Y-58232143D01*
X63481128Y-58232142D01*
X63488589Y-58227348D01*
X63489520Y-58228796D01*
X63543491Y-58204145D01*
X63612650Y-58214084D01*
X63665457Y-58259836D01*
X63671623Y-58270574D01*
X63712500Y-58350798D01*
X63726473Y-58378221D01*
X63726476Y-58378225D01*
X63821774Y-58473523D01*
X63821778Y-58473526D01*
X63821780Y-58473528D01*
X63941874Y-58534719D01*
X63941876Y-58534719D01*
X63941878Y-58534720D01*
X64074998Y-58555804D01*
X64075000Y-58555804D01*
X64075002Y-58555804D01*
X64208121Y-58534720D01*
X64208121Y-58534719D01*
X64208126Y-58534719D01*
X64328220Y-58473528D01*
X64349819Y-58451928D01*
X64411140Y-58418444D01*
X64480832Y-58423427D01*
X64525180Y-58451928D01*
X64546780Y-58473528D01*
X64666874Y-58534719D01*
X64666876Y-58534719D01*
X64666878Y-58534720D01*
X64799998Y-58555804D01*
X64800000Y-58555804D01*
X64800002Y-58555804D01*
X64933121Y-58534720D01*
X64933121Y-58534719D01*
X64933126Y-58534719D01*
X65053220Y-58473528D01*
X65148528Y-58378220D01*
X65209719Y-58258126D01*
X65209720Y-58258121D01*
X65230804Y-58125002D01*
X65230804Y-58124997D01*
X65209720Y-57991878D01*
X65209719Y-57991876D01*
X65209719Y-57991874D01*
X65148528Y-57871780D01*
X65148526Y-57871778D01*
X65148523Y-57871774D01*
X65053225Y-57776476D01*
X65053221Y-57776473D01*
X65053220Y-57776472D01*
X64933126Y-57715281D01*
X64933124Y-57715280D01*
X64933121Y-57715279D01*
X64800002Y-57694196D01*
X64799998Y-57694196D01*
X64666878Y-57715279D01*
X64546778Y-57776473D01*
X64546774Y-57776476D01*
X64525181Y-57798070D01*
X64463858Y-57831555D01*
X64394166Y-57826571D01*
X64349819Y-57798070D01*
X64328225Y-57776476D01*
X64328221Y-57776473D01*
X64328220Y-57776472D01*
X64208126Y-57715281D01*
X64208124Y-57715280D01*
X64208121Y-57715279D01*
X64075002Y-57694196D01*
X64074998Y-57694196D01*
X63941878Y-57715279D01*
X63941874Y-57715280D01*
X63941874Y-57715281D01*
X63821780Y-57776472D01*
X63821778Y-57776473D01*
X63813085Y-57780903D01*
X63811688Y-57778161D01*
X63761123Y-57796188D01*
X63693073Y-57780344D01*
X63644392Y-57730225D01*
X63635381Y-57708017D01*
X63631491Y-57699500D01*
X63575377Y-57576627D01*
X63481128Y-57467857D01*
X63360053Y-57390047D01*
X63360050Y-57390045D01*
X63328014Y-57380639D01*
X63269236Y-57342865D01*
X63252056Y-57305247D01*
X84724500Y-57305247D01*
X84724500Y-58694752D01*
X84736131Y-58753229D01*
X84736132Y-58753230D01*
X84780447Y-58819552D01*
X84846769Y-58863867D01*
X84846770Y-58863868D01*
X84905247Y-58875499D01*
X84905250Y-58875500D01*
X84905252Y-58875500D01*
X86294750Y-58875500D01*
X86294751Y-58875499D01*
X86309568Y-58872552D01*
X86353229Y-58863868D01*
X86353229Y-58863867D01*
X86353231Y-58863867D01*
X86419552Y-58819552D01*
X86463867Y-58753231D01*
X86463867Y-58753229D01*
X86463868Y-58753229D01*
X86475499Y-58694752D01*
X86475500Y-58694750D01*
X86475500Y-57800000D01*
X86894353Y-57800000D01*
X86914834Y-57942456D01*
X86968494Y-58059953D01*
X86974623Y-58073373D01*
X87068872Y-58182143D01*
X87189947Y-58259953D01*
X87189950Y-58259954D01*
X87189949Y-58259954D01*
X87226163Y-58270587D01*
X87324633Y-58299500D01*
X87328036Y-58300499D01*
X87328038Y-58300500D01*
X87328039Y-58300500D01*
X87471962Y-58300500D01*
X87471962Y-58300499D01*
X87610053Y-58259953D01*
X87731128Y-58182143D01*
X87825377Y-58073373D01*
X87885165Y-57942457D01*
X87905647Y-57800000D01*
X87885165Y-57657543D01*
X87825377Y-57526627D01*
X87731128Y-57417857D01*
X87610053Y-57340047D01*
X87610051Y-57340046D01*
X87610049Y-57340045D01*
X87610050Y-57340045D01*
X87471963Y-57299500D01*
X87471961Y-57299500D01*
X87328039Y-57299500D01*
X87328036Y-57299500D01*
X87189949Y-57340045D01*
X87068873Y-57417856D01*
X86974623Y-57526626D01*
X86974622Y-57526628D01*
X86914834Y-57657543D01*
X86894353Y-57800000D01*
X86475500Y-57800000D01*
X86475500Y-57305249D01*
X86475499Y-57305247D01*
X86463868Y-57246770D01*
X86463867Y-57246769D01*
X86419552Y-57180447D01*
X86353230Y-57136132D01*
X86353229Y-57136131D01*
X86294752Y-57124500D01*
X86294748Y-57124500D01*
X84905252Y-57124500D01*
X84905247Y-57124500D01*
X84846770Y-57136131D01*
X84846769Y-57136132D01*
X84780447Y-57180447D01*
X84736132Y-57246769D01*
X84736131Y-57246770D01*
X84724500Y-57305247D01*
X63252056Y-57305247D01*
X63240211Y-57279309D01*
X63250155Y-57210150D01*
X63269237Y-57180458D01*
X63275377Y-57173373D01*
X63335165Y-57042457D01*
X63355647Y-56900000D01*
X63335165Y-56757543D01*
X63275377Y-56626627D01*
X63181128Y-56517857D01*
X63060053Y-56440047D01*
X63060051Y-56440046D01*
X63060049Y-56440045D01*
X63060050Y-56440045D01*
X62921963Y-56399500D01*
X62921961Y-56399500D01*
X62912878Y-56399500D01*
X62845839Y-56379815D01*
X62800084Y-56327011D01*
X62790140Y-56257853D01*
X62805647Y-56150000D01*
X62785165Y-56007543D01*
X62725377Y-55876627D01*
X62691472Y-55837498D01*
X65181818Y-55837498D01*
X65181818Y-55837501D01*
X65202455Y-55994260D01*
X65202456Y-55994262D01*
X65262964Y-56140341D01*
X65359218Y-56265782D01*
X65484659Y-56362036D01*
X65630738Y-56422544D01*
X65700916Y-56431783D01*
X65787499Y-56443182D01*
X65787500Y-56443182D01*
X65787501Y-56443182D01*
X65874084Y-56431783D01*
X65944262Y-56422544D01*
X66090341Y-56362036D01*
X66215782Y-56265782D01*
X66312036Y-56140341D01*
X66328746Y-56100000D01*
X83694353Y-56100000D01*
X83714834Y-56242456D01*
X83774622Y-56373371D01*
X83774623Y-56373373D01*
X83868872Y-56482143D01*
X83989947Y-56559953D01*
X83989950Y-56559954D01*
X83989949Y-56559954D01*
X84128036Y-56600499D01*
X84128038Y-56600500D01*
X84128039Y-56600500D01*
X84271962Y-56600500D01*
X84271962Y-56600499D01*
X84410053Y-56559953D01*
X84531128Y-56482143D01*
X84625377Y-56373373D01*
X84658886Y-56300000D01*
X86894353Y-56300000D01*
X86914834Y-56442456D01*
X86968494Y-56559953D01*
X86974623Y-56573373D01*
X87068872Y-56682143D01*
X87189947Y-56759953D01*
X87189950Y-56759954D01*
X87189949Y-56759954D01*
X87328036Y-56800499D01*
X87328038Y-56800500D01*
X87328039Y-56800500D01*
X87471962Y-56800500D01*
X87471962Y-56800499D01*
X87610053Y-56759953D01*
X87731128Y-56682143D01*
X87825377Y-56573373D01*
X87885165Y-56442457D01*
X87905647Y-56300000D01*
X87885165Y-56157543D01*
X87825377Y-56026627D01*
X87731128Y-55917857D01*
X87610053Y-55840047D01*
X87610051Y-55840046D01*
X87610049Y-55840045D01*
X87610050Y-55840045D01*
X87471963Y-55799500D01*
X87471961Y-55799500D01*
X87328039Y-55799500D01*
X87328036Y-55799500D01*
X87189949Y-55840045D01*
X87068873Y-55917856D01*
X86974623Y-56026626D01*
X86974622Y-56026628D01*
X86914834Y-56157543D01*
X86894353Y-56300000D01*
X84658886Y-56300000D01*
X84685165Y-56242457D01*
X84705647Y-56100000D01*
X84685165Y-55957543D01*
X84625377Y-55826627D01*
X84531128Y-55717857D01*
X84410053Y-55640047D01*
X84410051Y-55640046D01*
X84410049Y-55640045D01*
X84410050Y-55640045D01*
X84271963Y-55599500D01*
X84271961Y-55599500D01*
X84128039Y-55599500D01*
X84128036Y-55599500D01*
X83989949Y-55640045D01*
X83868873Y-55717856D01*
X83774623Y-55826626D01*
X83774622Y-55826628D01*
X83714834Y-55957543D01*
X83694353Y-56100000D01*
X66328746Y-56100000D01*
X66372544Y-55994262D01*
X66393182Y-55837500D01*
X66391750Y-55826626D01*
X66377431Y-55717856D01*
X66372544Y-55680738D01*
X66312036Y-55534659D01*
X66215782Y-55409218D01*
X66090341Y-55312964D01*
X65944262Y-55252456D01*
X65944260Y-55252455D01*
X65787501Y-55231818D01*
X65787499Y-55231818D01*
X65630739Y-55252455D01*
X65630737Y-55252456D01*
X65484660Y-55312963D01*
X65359218Y-55409218D01*
X65262963Y-55534660D01*
X65202456Y-55680737D01*
X65202455Y-55680739D01*
X65181818Y-55837498D01*
X62691472Y-55837498D01*
X62631128Y-55767857D01*
X62510053Y-55690047D01*
X62510051Y-55690046D01*
X62510049Y-55690045D01*
X62510050Y-55690045D01*
X62371963Y-55649500D01*
X62371961Y-55649500D01*
X62228039Y-55649500D01*
X62228036Y-55649500D01*
X62089949Y-55690045D01*
X61968873Y-55767856D01*
X61874623Y-55876626D01*
X61874622Y-55876628D01*
X61814834Y-56007543D01*
X61794353Y-56150000D01*
X61809992Y-56258777D01*
X61800048Y-56327935D01*
X61754293Y-56380739D01*
X61687253Y-56400423D01*
X61674335Y-56399500D01*
X61671961Y-56399500D01*
X61612878Y-56399500D01*
X61545839Y-56379815D01*
X61500084Y-56327011D01*
X61490140Y-56257853D01*
X61505647Y-56150000D01*
X61485165Y-56007543D01*
X61425377Y-55876627D01*
X61331128Y-55767857D01*
X61210053Y-55690047D01*
X61210051Y-55690046D01*
X61210049Y-55690045D01*
X61210050Y-55690045D01*
X61071963Y-55649500D01*
X61071961Y-55649500D01*
X60928039Y-55649500D01*
X60928036Y-55649500D01*
X60789949Y-55690045D01*
X60668873Y-55767856D01*
X60574623Y-55876626D01*
X60574622Y-55876628D01*
X60512794Y-56012012D01*
X60467039Y-56064816D01*
X60400000Y-56084500D01*
X60332960Y-56064815D01*
X60287206Y-56012012D01*
X60279099Y-55994260D01*
X60225377Y-55876627D01*
X60131128Y-55767857D01*
X60010053Y-55690047D01*
X60010051Y-55690046D01*
X60010049Y-55690045D01*
X60010050Y-55690045D01*
X59871963Y-55649500D01*
X59871961Y-55649500D01*
X59728039Y-55649500D01*
X59728036Y-55649500D01*
X59589949Y-55690045D01*
X59468873Y-55767856D01*
X59374623Y-55876626D01*
X59374622Y-55876628D01*
X59312794Y-56012012D01*
X59267039Y-56064816D01*
X59200000Y-56084500D01*
X59132960Y-56064815D01*
X59087206Y-56012012D01*
X59079099Y-55994260D01*
X59025377Y-55876627D01*
X58931128Y-55767857D01*
X58810053Y-55690047D01*
X58810051Y-55690046D01*
X58810049Y-55690045D01*
X58810050Y-55690045D01*
X58671963Y-55649500D01*
X58671961Y-55649500D01*
X58528039Y-55649500D01*
X58528036Y-55649500D01*
X58389949Y-55690045D01*
X58268873Y-55767856D01*
X58174623Y-55876626D01*
X58174622Y-55876628D01*
X58112794Y-56012012D01*
X58067039Y-56064816D01*
X58000000Y-56084500D01*
X57932960Y-56064815D01*
X57887206Y-56012012D01*
X57879099Y-55994260D01*
X57825377Y-55876627D01*
X57731128Y-55767857D01*
X57610053Y-55690047D01*
X57610051Y-55690046D01*
X57610049Y-55690045D01*
X57610050Y-55690045D01*
X57471963Y-55649500D01*
X57471961Y-55649500D01*
X57328039Y-55649500D01*
X57328036Y-55649500D01*
X57189949Y-55690045D01*
X57068873Y-55767856D01*
X56974623Y-55876626D01*
X56974622Y-55876628D01*
X56912794Y-56012012D01*
X56867039Y-56064816D01*
X56800000Y-56084500D01*
X56732960Y-56064815D01*
X56687206Y-56012012D01*
X56679099Y-55994260D01*
X56625377Y-55876627D01*
X56531128Y-55767857D01*
X56410053Y-55690047D01*
X56410051Y-55690046D01*
X56410049Y-55690045D01*
X56410050Y-55690045D01*
X56271963Y-55649500D01*
X56271961Y-55649500D01*
X56128039Y-55649500D01*
X56128036Y-55649500D01*
X55989949Y-55690045D01*
X55868873Y-55767856D01*
X55774623Y-55876626D01*
X55774622Y-55876628D01*
X55714834Y-56007543D01*
X55694353Y-56150000D01*
X51500500Y-56150000D01*
X51500500Y-54649998D01*
X60844318Y-54649998D01*
X60844318Y-54650001D01*
X60864955Y-54806760D01*
X60864956Y-54806762D01*
X60900775Y-54893238D01*
X60925464Y-54952841D01*
X61021718Y-55078282D01*
X61147159Y-55174536D01*
X61293238Y-55235044D01*
X61349538Y-55242456D01*
X61449999Y-55255682D01*
X61450000Y-55255682D01*
X61450001Y-55255682D01*
X61502254Y-55248802D01*
X61606762Y-55235044D01*
X61752841Y-55174536D01*
X61878282Y-55078282D01*
X61899985Y-55049998D01*
X67631818Y-55049998D01*
X67631818Y-55050001D01*
X67652455Y-55206760D01*
X67652456Y-55206762D01*
X67712964Y-55352841D01*
X67809218Y-55478282D01*
X67934659Y-55574536D01*
X68080738Y-55635044D01*
X68118725Y-55640045D01*
X68237499Y-55655682D01*
X68237500Y-55655682D01*
X68237501Y-55655682D01*
X68289754Y-55648802D01*
X68394262Y-55635044D01*
X68540341Y-55574536D01*
X68665782Y-55478282D01*
X68762036Y-55352841D01*
X68822544Y-55206762D01*
X68836599Y-55100000D01*
X80594353Y-55100000D01*
X80614834Y-55242456D01*
X80647034Y-55312963D01*
X80674623Y-55373373D01*
X80768872Y-55482143D01*
X80889947Y-55559953D01*
X80889950Y-55559954D01*
X80889949Y-55559954D01*
X80997107Y-55591417D01*
X81024633Y-55599500D01*
X81028036Y-55600499D01*
X81028038Y-55600500D01*
X81028039Y-55600500D01*
X81171962Y-55600500D01*
X81171962Y-55600499D01*
X81310053Y-55559953D01*
X81431128Y-55482143D01*
X81525377Y-55373373D01*
X81585165Y-55242457D01*
X81605647Y-55100000D01*
X81894353Y-55100000D01*
X81914834Y-55242456D01*
X81947034Y-55312963D01*
X81974623Y-55373373D01*
X82068872Y-55482143D01*
X82189947Y-55559953D01*
X82189950Y-55559954D01*
X82189949Y-55559954D01*
X82297107Y-55591417D01*
X82324633Y-55599500D01*
X82328036Y-55600499D01*
X82328038Y-55600500D01*
X82328039Y-55600500D01*
X82471962Y-55600500D01*
X82471962Y-55600499D01*
X82610053Y-55559953D01*
X82731128Y-55482143D01*
X82825377Y-55373373D01*
X82885165Y-55242457D01*
X82905647Y-55100000D01*
X82885165Y-54957543D01*
X82825377Y-54826627D01*
X82731128Y-54717857D01*
X82610053Y-54640047D01*
X82610051Y-54640046D01*
X82610049Y-54640045D01*
X82610050Y-54640045D01*
X82471963Y-54599500D01*
X82471961Y-54599500D01*
X82328039Y-54599500D01*
X82328036Y-54599500D01*
X82189949Y-54640045D01*
X82068873Y-54717856D01*
X81974623Y-54826626D01*
X81974622Y-54826628D01*
X81914834Y-54957543D01*
X81894353Y-55100000D01*
X81605647Y-55100000D01*
X81585165Y-54957543D01*
X81525377Y-54826627D01*
X81431128Y-54717857D01*
X81310053Y-54640047D01*
X81310051Y-54640046D01*
X81310049Y-54640045D01*
X81310050Y-54640045D01*
X81171963Y-54599500D01*
X81171961Y-54599500D01*
X81028039Y-54599500D01*
X81028036Y-54599500D01*
X80889949Y-54640045D01*
X80768873Y-54717856D01*
X80674623Y-54826626D01*
X80674622Y-54826628D01*
X80614834Y-54957543D01*
X80594353Y-55100000D01*
X68836599Y-55100000D01*
X68843182Y-55050000D01*
X68822544Y-54893238D01*
X68762036Y-54747159D01*
X68665782Y-54621718D01*
X68540341Y-54525464D01*
X68394262Y-54464956D01*
X68394260Y-54464955D01*
X68237501Y-54444318D01*
X68237499Y-54444318D01*
X68080739Y-54464955D01*
X68080737Y-54464956D01*
X67934660Y-54525463D01*
X67809218Y-54621718D01*
X67712963Y-54747160D01*
X67652456Y-54893237D01*
X67652455Y-54893239D01*
X67631818Y-55049998D01*
X61899985Y-55049998D01*
X61974536Y-54952841D01*
X62035044Y-54806762D01*
X62055682Y-54650000D01*
X62054371Y-54640045D01*
X62035044Y-54493239D01*
X62035044Y-54493238D01*
X61974536Y-54347159D01*
X61878282Y-54221718D01*
X61752841Y-54125464D01*
X61606762Y-54064956D01*
X61606760Y-54064955D01*
X61450001Y-54044318D01*
X61449999Y-54044318D01*
X61293239Y-54064955D01*
X61293237Y-54064956D01*
X61147160Y-54125463D01*
X61021718Y-54221718D01*
X60925463Y-54347160D01*
X60864956Y-54493237D01*
X60864955Y-54493239D01*
X60844318Y-54649998D01*
X51500500Y-54649998D01*
X51500500Y-53449998D01*
X63481818Y-53449998D01*
X63481818Y-53450001D01*
X63502455Y-53606760D01*
X63502456Y-53606762D01*
X63562964Y-53752841D01*
X63659218Y-53878282D01*
X63784659Y-53974536D01*
X63930738Y-54035044D01*
X64001181Y-54044318D01*
X64087499Y-54055682D01*
X64087500Y-54055682D01*
X64087501Y-54055682D01*
X64139754Y-54048802D01*
X64244262Y-54035044D01*
X64390341Y-53974536D01*
X64515782Y-53878282D01*
X64612036Y-53752841D01*
X64672544Y-53606762D01*
X64693182Y-53450000D01*
X64672544Y-53293238D01*
X64612036Y-53147159D01*
X64515782Y-53021718D01*
X64390341Y-52925464D01*
X64244262Y-52864956D01*
X64244260Y-52864955D01*
X64087501Y-52844318D01*
X64087499Y-52844318D01*
X63930739Y-52864955D01*
X63930737Y-52864956D01*
X63784660Y-52925463D01*
X63659218Y-53021718D01*
X63562963Y-53147160D01*
X63502456Y-53293237D01*
X63502455Y-53293239D01*
X63481818Y-53449998D01*
X51500500Y-53449998D01*
X51500500Y-52800000D01*
X81894353Y-52800000D01*
X81914834Y-52942456D01*
X81974622Y-53073371D01*
X81974623Y-53073373D01*
X82068872Y-53182143D01*
X82189947Y-53259953D01*
X82189950Y-53259954D01*
X82189949Y-53259954D01*
X82328036Y-53300499D01*
X82328038Y-53300500D01*
X82328039Y-53300500D01*
X82471962Y-53300500D01*
X82471962Y-53300499D01*
X82610053Y-53259953D01*
X82731128Y-53182143D01*
X82825377Y-53073373D01*
X82885165Y-52942457D01*
X82905647Y-52800000D01*
X82885165Y-52657543D01*
X82825377Y-52526627D01*
X82731128Y-52417857D01*
X82610053Y-52340047D01*
X82610051Y-52340046D01*
X82610049Y-52340045D01*
X82610050Y-52340045D01*
X82471963Y-52299500D01*
X82471961Y-52299500D01*
X82328039Y-52299500D01*
X82328036Y-52299500D01*
X82189949Y-52340045D01*
X82068873Y-52417856D01*
X81974623Y-52526626D01*
X81974622Y-52526628D01*
X81914834Y-52657543D01*
X81894353Y-52800000D01*
X51500500Y-52800000D01*
X51500500Y-51849998D01*
X57344318Y-51849998D01*
X57344318Y-51850001D01*
X57364955Y-52006760D01*
X57364956Y-52006762D01*
X57390843Y-52069260D01*
X57425464Y-52152841D01*
X57521718Y-52278282D01*
X57647159Y-52374536D01*
X57793238Y-52435044D01*
X57871619Y-52445363D01*
X57949999Y-52455682D01*
X57950000Y-52455682D01*
X57950001Y-52455682D01*
X58002254Y-52448802D01*
X58106762Y-52435044D01*
X58252841Y-52374536D01*
X58378282Y-52278282D01*
X58474536Y-52152841D01*
X58535044Y-52006762D01*
X58547454Y-51912498D01*
X61231818Y-51912498D01*
X61231818Y-51912501D01*
X61252455Y-52069260D01*
X61252456Y-52069262D01*
X61312964Y-52215341D01*
X61409218Y-52340782D01*
X61534659Y-52437036D01*
X61680738Y-52497544D01*
X61759119Y-52507863D01*
X61837499Y-52518182D01*
X61837500Y-52518182D01*
X61837501Y-52518182D01*
X61889754Y-52511302D01*
X61994262Y-52497544D01*
X62140341Y-52437036D01*
X62265782Y-52340782D01*
X62362036Y-52215341D01*
X62422544Y-52069262D01*
X62443182Y-51912500D01*
X62434953Y-51849998D01*
X62422544Y-51755739D01*
X62422544Y-51755738D01*
X62362036Y-51609659D01*
X62265782Y-51484218D01*
X62140341Y-51387964D01*
X61994262Y-51327456D01*
X61994260Y-51327455D01*
X61837501Y-51306818D01*
X61837499Y-51306818D01*
X61680739Y-51327455D01*
X61680737Y-51327456D01*
X61534660Y-51387963D01*
X61409218Y-51484218D01*
X61312963Y-51609660D01*
X61252456Y-51755737D01*
X61252455Y-51755739D01*
X61231818Y-51912498D01*
X58547454Y-51912498D01*
X58555682Y-51850000D01*
X58535044Y-51693238D01*
X58474536Y-51547159D01*
X58378282Y-51421718D01*
X58252841Y-51325464D01*
X58106762Y-51264956D01*
X58106760Y-51264955D01*
X57950001Y-51244318D01*
X57949999Y-51244318D01*
X57793239Y-51264955D01*
X57793237Y-51264956D01*
X57647160Y-51325463D01*
X57521718Y-51421718D01*
X57425463Y-51547160D01*
X57364956Y-51693237D01*
X57364955Y-51693239D01*
X57344318Y-51849998D01*
X51500500Y-51849998D01*
X51500500Y-50624500D01*
X51520185Y-50557461D01*
X51572989Y-50511706D01*
X51624500Y-50500500D01*
X58118098Y-50500500D01*
X58119598Y-50500382D01*
X58129321Y-50500000D01*
X61870679Y-50500000D01*
X61880402Y-50500382D01*
G37*
G04 #@! TD.AperFunction*
G04 #@! TA.AperFunction,Conductor*
G36*
X61880402Y-72500382D02*
G01*
X61881902Y-72500500D01*
X61881908Y-72500500D01*
X80118098Y-72500500D01*
X80119598Y-72500382D01*
X80129321Y-72500000D01*
X83870679Y-72500000D01*
X83880402Y-72500382D01*
X83881902Y-72500500D01*
X83881908Y-72500500D01*
X83934108Y-72500500D01*
X90375500Y-72500500D01*
X90442539Y-72520185D01*
X90488294Y-72572989D01*
X90499500Y-72624500D01*
X90499500Y-78306495D01*
X90479815Y-78373534D01*
X90427011Y-78419289D01*
X90357853Y-78429233D01*
X90328570Y-78421199D01*
X90269752Y-78409500D01*
X90269748Y-78409500D01*
X88530252Y-78409500D01*
X88530247Y-78409500D01*
X88471770Y-78421131D01*
X88471769Y-78421132D01*
X88405447Y-78465447D01*
X88361132Y-78531769D01*
X88361131Y-78531770D01*
X88349500Y-78590247D01*
X88349500Y-80329752D01*
X88361131Y-80388229D01*
X88361132Y-80388230D01*
X88405447Y-80454552D01*
X88471769Y-80498867D01*
X88471770Y-80498868D01*
X88530247Y-80510499D01*
X88530250Y-80510500D01*
X88530252Y-80510500D01*
X90269750Y-80510500D01*
X90269751Y-80510499D01*
X90284485Y-80507568D01*
X90340210Y-80496485D01*
X90340434Y-80497612D01*
X90397511Y-80491473D01*
X90459991Y-80522745D01*
X90495647Y-80582832D01*
X90499500Y-80613504D01*
X90499500Y-81337275D01*
X90479815Y-81404314D01*
X90427011Y-81450069D01*
X90357853Y-81460013D01*
X90294297Y-81430988D01*
X90279646Y-81415940D01*
X90277685Y-81413550D01*
X90146410Y-81253590D01*
X90146408Y-81253588D01*
X90146407Y-81253587D01*
X90035739Y-81162765D01*
X89986450Y-81122315D01*
X89803954Y-81024768D01*
X89605934Y-80964700D01*
X89605932Y-80964699D01*
X89605934Y-80964699D01*
X89400000Y-80944417D01*
X89194067Y-80964699D01*
X88996043Y-81024769D01*
X88905117Y-81073371D01*
X88813550Y-81122315D01*
X88813548Y-81122316D01*
X88813547Y-81122317D01*
X88653589Y-81253589D01*
X88522317Y-81413547D01*
X88424769Y-81596043D01*
X88364699Y-81794067D01*
X88344417Y-82000000D01*
X88364699Y-82205932D01*
X88424769Y-82403956D01*
X88501240Y-82547022D01*
X88515482Y-82615425D01*
X88490482Y-82680669D01*
X88434177Y-82722040D01*
X88364444Y-82726402D01*
X88356948Y-82724453D01*
X88271964Y-82699500D01*
X88271961Y-82699500D01*
X88128039Y-82699500D01*
X88128036Y-82699500D01*
X87989949Y-82740045D01*
X87868873Y-82817856D01*
X87774623Y-82926626D01*
X87774622Y-82926628D01*
X87714834Y-83057543D01*
X87694353Y-83200000D01*
X87714834Y-83342456D01*
X87774622Y-83473371D01*
X87774623Y-83473373D01*
X87868872Y-83582143D01*
X87989947Y-83659953D01*
X87989950Y-83659954D01*
X87989949Y-83659954D01*
X88128036Y-83700499D01*
X88128038Y-83700500D01*
X88128039Y-83700500D01*
X88271962Y-83700500D01*
X88271962Y-83700499D01*
X88410053Y-83659953D01*
X88531128Y-83582143D01*
X88625377Y-83473373D01*
X88685165Y-83342457D01*
X88705647Y-83200000D01*
X88685165Y-83057543D01*
X88685165Y-83057542D01*
X88682667Y-83049036D01*
X88685450Y-83048218D01*
X88677587Y-82993596D01*
X88706600Y-82930035D01*
X88765371Y-82892250D01*
X88835240Y-82892236D01*
X88858780Y-82901861D01*
X88996046Y-82975232D01*
X89194066Y-83035300D01*
X89194065Y-83035300D01*
X89212529Y-83037118D01*
X89400000Y-83055583D01*
X89605934Y-83035300D01*
X89803954Y-82975232D01*
X89986450Y-82877685D01*
X90146410Y-82746410D01*
X90277685Y-82586450D01*
X90277685Y-82586448D01*
X90279646Y-82584060D01*
X90337392Y-82544725D01*
X90407236Y-82542854D01*
X90467005Y-82579041D01*
X90497721Y-82641797D01*
X90499500Y-82662724D01*
X90499500Y-85926495D01*
X90479815Y-85993534D01*
X90427011Y-86039289D01*
X90357853Y-86049233D01*
X90328570Y-86041199D01*
X90269752Y-86029500D01*
X90269748Y-86029500D01*
X88530252Y-86029500D01*
X88530247Y-86029500D01*
X88471770Y-86041131D01*
X88471769Y-86041132D01*
X88405447Y-86085447D01*
X88361132Y-86151769D01*
X88361131Y-86151770D01*
X88349500Y-86210247D01*
X88349500Y-87949752D01*
X88361131Y-88008229D01*
X88361132Y-88008230D01*
X88405447Y-88074552D01*
X88471769Y-88118867D01*
X88471770Y-88118868D01*
X88530247Y-88130499D01*
X88530250Y-88130500D01*
X88530252Y-88130500D01*
X90269750Y-88130500D01*
X90269751Y-88130499D01*
X90284485Y-88127568D01*
X90340210Y-88116485D01*
X90340434Y-88117612D01*
X90397511Y-88111473D01*
X90459991Y-88142745D01*
X90495647Y-88202832D01*
X90499500Y-88233504D01*
X90499500Y-88957275D01*
X90479815Y-89024314D01*
X90427011Y-89070069D01*
X90357853Y-89080013D01*
X90294297Y-89050988D01*
X90279646Y-89035940D01*
X90277685Y-89033550D01*
X90146410Y-88873590D01*
X90146408Y-88873588D01*
X90146407Y-88873587D01*
X89986452Y-88742317D01*
X89986453Y-88742317D01*
X89986450Y-88742315D01*
X89803954Y-88644768D01*
X89605934Y-88584700D01*
X89605932Y-88584699D01*
X89605934Y-88584699D01*
X89400000Y-88564417D01*
X89194067Y-88584699D01*
X88996043Y-88644769D01*
X88892715Y-88700000D01*
X88813550Y-88742315D01*
X88813548Y-88742316D01*
X88813547Y-88742317D01*
X88653589Y-88873589D01*
X88522317Y-89033547D01*
X88424769Y-89216043D01*
X88364699Y-89414067D01*
X88344417Y-89620000D01*
X88364699Y-89825932D01*
X88364700Y-89825934D01*
X88424768Y-90023954D01*
X88522315Y-90206450D01*
X88522317Y-90206452D01*
X88653589Y-90366410D01*
X88750209Y-90445702D01*
X88813550Y-90497685D01*
X88996046Y-90595232D01*
X89194066Y-90655300D01*
X89194065Y-90655300D01*
X89212529Y-90657118D01*
X89400000Y-90675583D01*
X89605934Y-90655300D01*
X89803954Y-90595232D01*
X89986450Y-90497685D01*
X90146410Y-90366410D01*
X90277685Y-90206450D01*
X90277685Y-90206448D01*
X90279646Y-90204060D01*
X90337392Y-90164725D01*
X90407236Y-90162854D01*
X90467005Y-90199041D01*
X90497721Y-90261797D01*
X90499500Y-90282724D01*
X90499500Y-91375500D01*
X90479815Y-91442539D01*
X90427011Y-91488294D01*
X90375500Y-91499500D01*
X84955538Y-91499500D01*
X84888499Y-91479815D01*
X84842744Y-91427011D01*
X84832800Y-91357853D01*
X84861825Y-91294297D01*
X84904023Y-91262707D01*
X84910047Y-91259954D01*
X84910053Y-91259953D01*
X85031128Y-91182143D01*
X85125377Y-91073373D01*
X85185165Y-90942457D01*
X85205647Y-90800000D01*
X85185165Y-90657543D01*
X85125377Y-90526627D01*
X85031128Y-90417857D01*
X84910053Y-90340047D01*
X84910051Y-90340046D01*
X84910049Y-90340045D01*
X84910050Y-90340045D01*
X84771963Y-90299500D01*
X84771961Y-90299500D01*
X84628039Y-90299500D01*
X84628036Y-90299500D01*
X84489949Y-90340045D01*
X84368873Y-90417856D01*
X84274623Y-90526626D01*
X84274622Y-90526628D01*
X84214834Y-90657543D01*
X84194353Y-90800000D01*
X84214834Y-90942456D01*
X84274622Y-91073371D01*
X84274623Y-91073373D01*
X84368872Y-91182143D01*
X84489947Y-91259953D01*
X84489949Y-91259953D01*
X84495977Y-91262707D01*
X84548779Y-91308464D01*
X84568462Y-91375504D01*
X84548776Y-91442542D01*
X84495970Y-91488296D01*
X84444462Y-91499500D01*
X83881902Y-91499500D01*
X83880402Y-91499618D01*
X83870679Y-91500000D01*
X80129321Y-91500000D01*
X80119598Y-91499618D01*
X80118098Y-91499500D01*
X80118092Y-91499500D01*
X80065892Y-91499500D01*
X62065892Y-91499500D01*
X62000000Y-91499500D01*
X61881908Y-91499500D01*
X61881902Y-91499500D01*
X61880402Y-91499618D01*
X61870679Y-91500000D01*
X58129321Y-91500000D01*
X58119598Y-91499618D01*
X58118098Y-91499500D01*
X58118092Y-91499500D01*
X58065892Y-91499500D01*
X51624500Y-91499500D01*
X51557461Y-91479815D01*
X51511706Y-91427011D01*
X51500500Y-91375500D01*
X51500500Y-90404575D01*
X51520185Y-90337536D01*
X51572989Y-90291781D01*
X51642147Y-90281837D01*
X51705703Y-90310862D01*
X51720354Y-90325912D01*
X51753587Y-90366408D01*
X51816279Y-90417857D01*
X51913550Y-90497685D01*
X52096046Y-90595232D01*
X52294066Y-90655300D01*
X52294065Y-90655300D01*
X52312529Y-90657118D01*
X52500000Y-90675583D01*
X52705934Y-90655300D01*
X52903954Y-90595232D01*
X53082119Y-90500000D01*
X53694353Y-90500000D01*
X53714834Y-90642456D01*
X53729963Y-90675583D01*
X53774623Y-90773373D01*
X53868872Y-90882143D01*
X53989947Y-90959953D01*
X53989950Y-90959954D01*
X53989949Y-90959954D01*
X54128036Y-91000499D01*
X54128038Y-91000500D01*
X54128039Y-91000500D01*
X54271962Y-91000500D01*
X54271962Y-91000499D01*
X54410053Y-90959953D01*
X54531128Y-90882143D01*
X54625377Y-90773373D01*
X54685165Y-90642457D01*
X54705647Y-90500000D01*
X55494353Y-90500000D01*
X55514834Y-90642456D01*
X55529963Y-90675583D01*
X55574623Y-90773373D01*
X55668872Y-90882143D01*
X55789947Y-90959953D01*
X55789950Y-90959954D01*
X55789949Y-90959954D01*
X55928036Y-91000499D01*
X55928038Y-91000500D01*
X55928039Y-91000500D01*
X56071962Y-91000500D01*
X56071962Y-91000499D01*
X56210053Y-90959953D01*
X56331128Y-90882143D01*
X56425377Y-90773373D01*
X56485165Y-90642457D01*
X56505647Y-90500000D01*
X56485165Y-90357543D01*
X56425377Y-90226627D01*
X56331128Y-90117857D01*
X56210053Y-90040047D01*
X56210051Y-90040046D01*
X56210049Y-90040045D01*
X56210050Y-90040045D01*
X56071963Y-89999500D01*
X56071961Y-89999500D01*
X55928039Y-89999500D01*
X55928036Y-89999500D01*
X55789949Y-90040045D01*
X55668873Y-90117856D01*
X55574623Y-90226626D01*
X55574622Y-90226628D01*
X55514834Y-90357543D01*
X55494353Y-90500000D01*
X54705647Y-90500000D01*
X54685165Y-90357543D01*
X54625377Y-90226627D01*
X54531128Y-90117857D01*
X54410053Y-90040047D01*
X54410051Y-90040046D01*
X54410049Y-90040045D01*
X54410050Y-90040045D01*
X54271963Y-89999500D01*
X54271961Y-89999500D01*
X54128039Y-89999500D01*
X54128036Y-89999500D01*
X53989949Y-90040045D01*
X53868873Y-90117856D01*
X53774623Y-90226626D01*
X53774622Y-90226628D01*
X53714834Y-90357543D01*
X53694353Y-90500000D01*
X53082119Y-90500000D01*
X53086450Y-90497685D01*
X53246410Y-90366410D01*
X53377685Y-90206450D01*
X53475232Y-90023954D01*
X53535300Y-89825934D01*
X53555583Y-89620000D01*
X53543764Y-89499998D01*
X81544318Y-89499998D01*
X81544318Y-89500001D01*
X81564955Y-89656760D01*
X81564956Y-89656762D01*
X81625464Y-89802841D01*
X81721718Y-89928282D01*
X81847159Y-90024536D01*
X81993238Y-90085044D01*
X82071619Y-90095363D01*
X82149999Y-90105682D01*
X82150000Y-90105682D01*
X82150001Y-90105682D01*
X82202254Y-90098802D01*
X82306762Y-90085044D01*
X82452841Y-90024536D01*
X82578282Y-89928282D01*
X82674536Y-89802841D01*
X82735044Y-89656762D01*
X82755682Y-89500000D01*
X82735044Y-89343238D01*
X82674536Y-89197159D01*
X82578282Y-89071718D01*
X82452841Y-88975464D01*
X82404146Y-88955294D01*
X82306762Y-88914956D01*
X82306760Y-88914955D01*
X82150001Y-88894318D01*
X82149999Y-88894318D01*
X81993239Y-88914955D01*
X81993237Y-88914956D01*
X81847160Y-88975463D01*
X81721718Y-89071718D01*
X81625463Y-89197160D01*
X81564956Y-89343237D01*
X81564955Y-89343239D01*
X81544318Y-89499998D01*
X53543764Y-89499998D01*
X53535300Y-89414066D01*
X53475232Y-89216046D01*
X53377685Y-89033550D01*
X53280358Y-88914956D01*
X53268084Y-88900000D01*
X54594353Y-88900000D01*
X54614834Y-89042456D01*
X54618731Y-89050988D01*
X54674623Y-89173373D01*
X54768872Y-89282143D01*
X54889947Y-89359953D01*
X54889950Y-89359954D01*
X54889949Y-89359954D01*
X55028036Y-89400499D01*
X55028038Y-89400500D01*
X55028039Y-89400500D01*
X55171962Y-89400500D01*
X55171962Y-89400499D01*
X55310053Y-89359953D01*
X55431128Y-89282143D01*
X55525377Y-89173373D01*
X55585165Y-89042457D01*
X55605647Y-88900000D01*
X55585165Y-88757543D01*
X55558886Y-88700000D01*
X84194353Y-88700000D01*
X84214834Y-88842456D01*
X84274622Y-88973371D01*
X84274623Y-88973373D01*
X84368872Y-89082143D01*
X84489947Y-89159953D01*
X84489950Y-89159954D01*
X84489949Y-89159954D01*
X84597107Y-89191417D01*
X84616660Y-89197159D01*
X84628036Y-89200499D01*
X84628038Y-89200500D01*
X84628039Y-89200500D01*
X84771962Y-89200500D01*
X84771962Y-89200499D01*
X84910053Y-89159953D01*
X85003342Y-89100000D01*
X85994353Y-89100000D01*
X86014834Y-89242456D01*
X86060861Y-89343239D01*
X86074623Y-89373373D01*
X86168872Y-89482143D01*
X86289947Y-89559953D01*
X86289950Y-89559954D01*
X86289949Y-89559954D01*
X86428036Y-89600499D01*
X86428038Y-89600500D01*
X86428039Y-89600500D01*
X86571962Y-89600500D01*
X86571962Y-89600499D01*
X86710053Y-89559953D01*
X86831128Y-89482143D01*
X86925377Y-89373373D01*
X86985165Y-89242457D01*
X87005647Y-89100000D01*
X86985165Y-88957543D01*
X86925377Y-88826627D01*
X86831128Y-88717857D01*
X86710053Y-88640047D01*
X86710051Y-88640046D01*
X86710049Y-88640045D01*
X86710050Y-88640045D01*
X86571963Y-88599500D01*
X86571961Y-88599500D01*
X86428039Y-88599500D01*
X86428036Y-88599500D01*
X86289949Y-88640045D01*
X86168873Y-88717856D01*
X86074623Y-88826626D01*
X86074622Y-88826628D01*
X86014834Y-88957543D01*
X85994353Y-89100000D01*
X85003342Y-89100000D01*
X85031128Y-89082143D01*
X85125377Y-88973373D01*
X85185165Y-88842457D01*
X85205647Y-88700000D01*
X85185165Y-88557543D01*
X85125377Y-88426627D01*
X85031128Y-88317857D01*
X84910053Y-88240047D01*
X84910051Y-88240046D01*
X84910049Y-88240045D01*
X84910050Y-88240045D01*
X84771963Y-88199500D01*
X84771961Y-88199500D01*
X84628039Y-88199500D01*
X84628036Y-88199500D01*
X84489949Y-88240045D01*
X84368873Y-88317856D01*
X84274623Y-88426626D01*
X84274622Y-88426628D01*
X84214834Y-88557543D01*
X84194353Y-88700000D01*
X55558886Y-88700000D01*
X55525377Y-88626627D01*
X55431128Y-88517857D01*
X55310053Y-88440047D01*
X55310051Y-88440046D01*
X55310049Y-88440045D01*
X55310050Y-88440045D01*
X55171963Y-88399500D01*
X55171961Y-88399500D01*
X55028039Y-88399500D01*
X55028036Y-88399500D01*
X54889949Y-88440045D01*
X54768873Y-88517856D01*
X54674623Y-88626626D01*
X54674622Y-88626628D01*
X54614834Y-88757543D01*
X54594353Y-88900000D01*
X53268084Y-88900000D01*
X53246410Y-88873589D01*
X53086452Y-88742317D01*
X53086453Y-88742317D01*
X53086450Y-88742315D01*
X52903954Y-88644768D01*
X52705934Y-88584700D01*
X52705932Y-88584699D01*
X52705934Y-88584699D01*
X52500000Y-88564417D01*
X52294067Y-88584699D01*
X52096043Y-88644769D01*
X51992715Y-88700000D01*
X51913550Y-88742315D01*
X51913548Y-88742316D01*
X51913547Y-88742317D01*
X51753589Y-88873589D01*
X51720354Y-88914088D01*
X51662608Y-88953423D01*
X51592763Y-88955294D01*
X51532995Y-88919107D01*
X51502279Y-88856351D01*
X51500500Y-88835424D01*
X51500500Y-88254500D01*
X51520185Y-88187461D01*
X51572989Y-88141706D01*
X51624500Y-88130500D01*
X53369750Y-88130500D01*
X53369751Y-88130499D01*
X53384568Y-88127552D01*
X53428229Y-88118868D01*
X53428229Y-88118867D01*
X53428231Y-88118867D01*
X53494552Y-88074552D01*
X53538867Y-88008231D01*
X53538867Y-88008229D01*
X53538868Y-88008229D01*
X53550499Y-87949752D01*
X53550500Y-87949750D01*
X53550500Y-87699998D01*
X67931818Y-87699998D01*
X67931818Y-87700001D01*
X67952455Y-87856760D01*
X67952456Y-87856762D01*
X68012964Y-88002841D01*
X68109218Y-88128282D01*
X68234659Y-88224536D01*
X68380738Y-88285044D01*
X68459119Y-88295363D01*
X68537499Y-88305682D01*
X68537500Y-88305682D01*
X68537501Y-88305682D01*
X68589754Y-88298802D01*
X68694262Y-88285044D01*
X68840341Y-88224536D01*
X68965782Y-88128282D01*
X69062036Y-88002841D01*
X69122544Y-87856762D01*
X69143182Y-87700000D01*
X69122544Y-87543238D01*
X69062036Y-87397159D01*
X68965782Y-87271718D01*
X68840341Y-87175464D01*
X68694262Y-87114956D01*
X68694260Y-87114955D01*
X68537501Y-87094318D01*
X68537499Y-87094318D01*
X68380739Y-87114955D01*
X68380737Y-87114956D01*
X68234660Y-87175463D01*
X68109218Y-87271718D01*
X68012963Y-87397160D01*
X67952456Y-87543237D01*
X67952455Y-87543239D01*
X67931818Y-87699998D01*
X53550500Y-87699998D01*
X53550500Y-86210249D01*
X53550499Y-86210247D01*
X53538868Y-86151770D01*
X53538867Y-86151769D01*
X53494552Y-86085447D01*
X53428230Y-86041132D01*
X53428229Y-86041131D01*
X53369752Y-86029500D01*
X53369748Y-86029500D01*
X51630252Y-86029500D01*
X51624500Y-86029500D01*
X51557461Y-86009815D01*
X51511706Y-85957011D01*
X51500500Y-85905500D01*
X51500500Y-85100000D01*
X54094353Y-85100000D01*
X54114834Y-85242456D01*
X54119576Y-85252839D01*
X54174623Y-85373373D01*
X54268872Y-85482143D01*
X54389947Y-85559953D01*
X54389950Y-85559954D01*
X54389949Y-85559954D01*
X54528036Y-85600499D01*
X54528038Y-85600500D01*
X54528039Y-85600500D01*
X54671962Y-85600500D01*
X54671962Y-85600499D01*
X54740936Y-85580247D01*
X55949500Y-85580247D01*
X55949500Y-87219752D01*
X55961131Y-87278229D01*
X55961132Y-87278230D01*
X56005447Y-87344552D01*
X56071769Y-87388867D01*
X56071770Y-87388868D01*
X56130247Y-87400499D01*
X56130250Y-87400500D01*
X56130252Y-87400500D01*
X57769750Y-87400500D01*
X57769751Y-87400499D01*
X57786544Y-87397159D01*
X57828229Y-87388868D01*
X57828229Y-87388867D01*
X57828231Y-87388867D01*
X57894552Y-87344552D01*
X57938867Y-87278231D01*
X57938867Y-87278229D01*
X57938868Y-87278229D01*
X57950499Y-87219752D01*
X57950500Y-87219750D01*
X57950500Y-86925000D01*
X80544353Y-86925000D01*
X80564834Y-87067456D01*
X80586527Y-87114956D01*
X80624623Y-87198373D01*
X80718872Y-87307143D01*
X80839947Y-87384953D01*
X80839950Y-87384954D01*
X80839949Y-87384954D01*
X80978036Y-87425499D01*
X80978038Y-87425500D01*
X80978039Y-87425500D01*
X81121962Y-87425500D01*
X81121962Y-87425499D01*
X81260053Y-87384953D01*
X81381128Y-87307143D01*
X81475377Y-87198373D01*
X81535165Y-87067457D01*
X81555647Y-86925000D01*
X81919353Y-86925000D01*
X81939834Y-87067456D01*
X81961527Y-87114956D01*
X81999623Y-87198373D01*
X82093872Y-87307143D01*
X82214947Y-87384953D01*
X82214950Y-87384954D01*
X82214949Y-87384954D01*
X82353036Y-87425499D01*
X82353038Y-87425500D01*
X82353039Y-87425500D01*
X82496962Y-87425500D01*
X82496962Y-87425499D01*
X82635053Y-87384953D01*
X82756128Y-87307143D01*
X82850377Y-87198373D01*
X82910165Y-87067457D01*
X82930647Y-86925000D01*
X82912675Y-86800000D01*
X84194353Y-86800000D01*
X84214834Y-86942456D01*
X84271921Y-87067456D01*
X84274623Y-87073373D01*
X84368872Y-87182143D01*
X84489947Y-87259953D01*
X84489950Y-87259954D01*
X84489949Y-87259954D01*
X84628036Y-87300499D01*
X84628038Y-87300500D01*
X84628039Y-87300500D01*
X84771962Y-87300500D01*
X84771962Y-87300499D01*
X84910053Y-87259953D01*
X85031128Y-87182143D01*
X85102305Y-87100000D01*
X85994353Y-87100000D01*
X86014834Y-87242456D01*
X86044376Y-87307143D01*
X86074623Y-87373373D01*
X86168872Y-87482143D01*
X86289947Y-87559953D01*
X86289950Y-87559954D01*
X86289949Y-87559954D01*
X86428036Y-87600499D01*
X86428038Y-87600500D01*
X86428039Y-87600500D01*
X86571962Y-87600500D01*
X86571962Y-87600499D01*
X86710053Y-87559953D01*
X86831128Y-87482143D01*
X86925377Y-87373373D01*
X86985165Y-87242457D01*
X87005647Y-87100000D01*
X86985165Y-86957543D01*
X86925377Y-86826627D01*
X86831128Y-86717857D01*
X86710053Y-86640047D01*
X86710051Y-86640046D01*
X86710049Y-86640045D01*
X86710050Y-86640045D01*
X86571963Y-86599500D01*
X86571961Y-86599500D01*
X86428039Y-86599500D01*
X86428036Y-86599500D01*
X86289949Y-86640045D01*
X86168873Y-86717856D01*
X86074623Y-86826626D01*
X86074622Y-86826628D01*
X86014834Y-86957543D01*
X85994353Y-87100000D01*
X85102305Y-87100000D01*
X85125377Y-87073373D01*
X85185165Y-86942457D01*
X85205647Y-86800000D01*
X85185165Y-86657543D01*
X85125377Y-86526627D01*
X85031128Y-86417857D01*
X84910053Y-86340047D01*
X84910051Y-86340046D01*
X84910049Y-86340045D01*
X84910050Y-86340045D01*
X84771963Y-86299500D01*
X84771961Y-86299500D01*
X84628039Y-86299500D01*
X84628036Y-86299500D01*
X84489949Y-86340045D01*
X84368873Y-86417856D01*
X84274623Y-86526626D01*
X84274622Y-86526628D01*
X84214834Y-86657543D01*
X84194353Y-86800000D01*
X82912675Y-86800000D01*
X82910165Y-86782543D01*
X82850377Y-86651627D01*
X82756128Y-86542857D01*
X82635053Y-86465047D01*
X82635051Y-86465046D01*
X82635049Y-86465045D01*
X82635050Y-86465045D01*
X82496963Y-86424500D01*
X82496961Y-86424500D01*
X82353039Y-86424500D01*
X82353036Y-86424500D01*
X82214949Y-86465045D01*
X82093873Y-86542856D01*
X81999623Y-86651626D01*
X81999622Y-86651628D01*
X81939834Y-86782543D01*
X81919353Y-86925000D01*
X81555647Y-86925000D01*
X81535165Y-86782543D01*
X81475377Y-86651627D01*
X81381128Y-86542857D01*
X81260053Y-86465047D01*
X81260051Y-86465046D01*
X81260049Y-86465045D01*
X81260050Y-86465045D01*
X81121963Y-86424500D01*
X81121961Y-86424500D01*
X80978039Y-86424500D01*
X80978036Y-86424500D01*
X80839949Y-86465045D01*
X80718873Y-86542856D01*
X80624623Y-86651626D01*
X80624622Y-86651628D01*
X80564834Y-86782543D01*
X80544353Y-86925000D01*
X57950500Y-86925000D01*
X57950500Y-85580249D01*
X57950499Y-85580247D01*
X57938868Y-85521770D01*
X57938867Y-85521769D01*
X57894552Y-85455447D01*
X57828230Y-85411132D01*
X57828229Y-85411131D01*
X57769752Y-85399500D01*
X57769748Y-85399500D01*
X56130252Y-85399500D01*
X56130247Y-85399500D01*
X56071770Y-85411131D01*
X56071769Y-85411132D01*
X56005447Y-85455447D01*
X55961132Y-85521769D01*
X55961131Y-85521770D01*
X55949500Y-85580247D01*
X54740936Y-85580247D01*
X54810053Y-85559953D01*
X54931128Y-85482143D01*
X55025377Y-85373373D01*
X55085165Y-85242457D01*
X55105647Y-85100000D01*
X55085165Y-84957543D01*
X55081719Y-84949998D01*
X63744318Y-84949998D01*
X63744318Y-84950001D01*
X63764955Y-85106760D01*
X63764956Y-85106762D01*
X63825464Y-85252841D01*
X63921718Y-85378282D01*
X64047159Y-85474536D01*
X64193238Y-85535044D01*
X64271619Y-85545363D01*
X64349999Y-85555682D01*
X64350000Y-85555682D01*
X64350001Y-85555682D01*
X64402254Y-85548802D01*
X64506762Y-85535044D01*
X64652841Y-85474536D01*
X64778282Y-85378282D01*
X64874536Y-85252841D01*
X64935044Y-85106762D01*
X64949099Y-85000000D01*
X87294353Y-85000000D01*
X87314834Y-85142456D01*
X87360504Y-85242457D01*
X87374623Y-85273373D01*
X87468872Y-85382143D01*
X87589947Y-85459953D01*
X87589950Y-85459954D01*
X87589949Y-85459954D01*
X87728036Y-85500499D01*
X87728038Y-85500500D01*
X87728039Y-85500500D01*
X87871962Y-85500500D01*
X87871962Y-85500499D01*
X88010053Y-85459953D01*
X88131128Y-85382143D01*
X88225377Y-85273373D01*
X88285165Y-85142457D01*
X88305647Y-85000000D01*
X88285165Y-84857543D01*
X88225377Y-84726627D01*
X88131128Y-84617857D01*
X88010053Y-84540047D01*
X88010051Y-84540046D01*
X88010049Y-84540045D01*
X88010050Y-84540045D01*
X87871963Y-84499500D01*
X87871961Y-84499500D01*
X87728039Y-84499500D01*
X87728036Y-84499500D01*
X87589949Y-84540045D01*
X87468873Y-84617856D01*
X87374623Y-84726626D01*
X87374622Y-84726628D01*
X87314834Y-84857543D01*
X87294353Y-85000000D01*
X64949099Y-85000000D01*
X64955682Y-84950000D01*
X64935044Y-84793238D01*
X64874536Y-84647159D01*
X64778282Y-84521718D01*
X64652841Y-84425464D01*
X64506762Y-84364956D01*
X64506760Y-84364955D01*
X64350001Y-84344318D01*
X64349999Y-84344318D01*
X64193239Y-84364955D01*
X64193237Y-84364956D01*
X64047160Y-84425463D01*
X63921718Y-84521718D01*
X63825463Y-84647160D01*
X63764956Y-84793237D01*
X63764955Y-84793239D01*
X63744318Y-84949998D01*
X55081719Y-84949998D01*
X55025377Y-84826627D01*
X54931128Y-84717857D01*
X54810053Y-84640047D01*
X54810051Y-84640046D01*
X54810049Y-84640045D01*
X54810050Y-84640045D01*
X54671963Y-84599500D01*
X54671961Y-84599500D01*
X54528039Y-84599500D01*
X54528036Y-84599500D01*
X54389949Y-84640045D01*
X54268873Y-84717856D01*
X54174623Y-84826626D01*
X54174622Y-84826628D01*
X54114834Y-84957543D01*
X54094353Y-85100000D01*
X51500500Y-85100000D01*
X51500500Y-84000000D01*
X84719678Y-84000000D01*
X84738915Y-84183029D01*
X84738916Y-84183032D01*
X84795783Y-84358053D01*
X84795786Y-84358059D01*
X84887805Y-84517440D01*
X84997327Y-84639077D01*
X85010949Y-84654206D01*
X85010951Y-84654208D01*
X85159834Y-84762378D01*
X85159835Y-84762378D01*
X85159839Y-84762381D01*
X85296953Y-84823428D01*
X85327961Y-84837234D01*
X85327966Y-84837236D01*
X85507981Y-84875500D01*
X85692019Y-84875500D01*
X85872034Y-84837236D01*
X86040161Y-84762381D01*
X86189050Y-84654207D01*
X86312195Y-84517440D01*
X86404214Y-84358059D01*
X86461085Y-84183029D01*
X86480322Y-84000000D01*
X86461085Y-83816971D01*
X86410067Y-83659954D01*
X86404216Y-83641946D01*
X86404213Y-83641940D01*
X86369689Y-83582143D01*
X86312195Y-83482560D01*
X86189050Y-83345793D01*
X86189048Y-83345791D01*
X86040165Y-83237621D01*
X86040162Y-83237619D01*
X86040161Y-83237619D01*
X85979112Y-83210438D01*
X85872038Y-83162765D01*
X85872033Y-83162763D01*
X85692019Y-83124500D01*
X85507981Y-83124500D01*
X85327966Y-83162763D01*
X85327961Y-83162765D01*
X85159839Y-83237619D01*
X85159834Y-83237621D01*
X85010951Y-83345791D01*
X85010949Y-83345793D01*
X84887804Y-83482561D01*
X84795786Y-83641940D01*
X84795783Y-83641946D01*
X84738916Y-83816967D01*
X84738915Y-83816971D01*
X84719678Y-84000000D01*
X51500500Y-84000000D01*
X51500500Y-82000000D01*
X83194353Y-82000000D01*
X83214834Y-82142456D01*
X83233365Y-82183032D01*
X83274623Y-82273373D01*
X83368872Y-82382143D01*
X83489947Y-82459953D01*
X83489950Y-82459954D01*
X83489949Y-82459954D01*
X83628036Y-82500499D01*
X83628038Y-82500500D01*
X83628039Y-82500500D01*
X83771962Y-82500500D01*
X83771962Y-82500499D01*
X83910053Y-82459953D01*
X84031128Y-82382143D01*
X84125377Y-82273373D01*
X84185165Y-82142457D01*
X84205647Y-82000000D01*
X84719678Y-82000000D01*
X84738915Y-82183029D01*
X84738916Y-82183032D01*
X84795783Y-82358053D01*
X84795786Y-82358059D01*
X84887805Y-82517440D01*
X84914441Y-82547022D01*
X85010949Y-82654206D01*
X85010951Y-82654208D01*
X85159834Y-82762378D01*
X85159835Y-82762378D01*
X85159839Y-82762381D01*
X85284438Y-82817856D01*
X85327961Y-82837234D01*
X85327966Y-82837236D01*
X85507981Y-82875500D01*
X85692019Y-82875500D01*
X85872034Y-82837236D01*
X86040161Y-82762381D01*
X86189050Y-82654207D01*
X86312195Y-82517440D01*
X86404214Y-82358059D01*
X86461085Y-82183029D01*
X86480322Y-82000000D01*
X86461085Y-81816971D01*
X86404214Y-81641941D01*
X86312195Y-81482560D01*
X86189050Y-81345793D01*
X86189048Y-81345791D01*
X86040165Y-81237621D01*
X86040162Y-81237619D01*
X86040161Y-81237619D01*
X85979112Y-81210438D01*
X85872038Y-81162765D01*
X85872033Y-81162763D01*
X85692019Y-81124500D01*
X85507981Y-81124500D01*
X85327966Y-81162763D01*
X85327961Y-81162765D01*
X85159839Y-81237619D01*
X85159834Y-81237621D01*
X85010951Y-81345791D01*
X85010949Y-81345793D01*
X84887804Y-81482561D01*
X84795786Y-81641940D01*
X84795783Y-81641946D01*
X84768269Y-81726628D01*
X84738915Y-81816971D01*
X84719678Y-82000000D01*
X84205647Y-82000000D01*
X84185165Y-81857543D01*
X84125377Y-81726627D01*
X84031128Y-81617857D01*
X83910053Y-81540047D01*
X83910051Y-81540046D01*
X83910049Y-81540045D01*
X83910050Y-81540045D01*
X83771963Y-81499500D01*
X83771961Y-81499500D01*
X83628039Y-81499500D01*
X83628036Y-81499500D01*
X83489949Y-81540045D01*
X83368873Y-81617856D01*
X83274623Y-81726626D01*
X83274622Y-81726628D01*
X83214834Y-81857543D01*
X83194353Y-82000000D01*
X51500500Y-82000000D01*
X51500500Y-80800000D01*
X52194353Y-80800000D01*
X52214834Y-80942456D01*
X52252426Y-81024769D01*
X52274623Y-81073373D01*
X52368872Y-81182143D01*
X52489947Y-81259953D01*
X52489950Y-81259954D01*
X52489949Y-81259954D01*
X52628036Y-81300499D01*
X52628038Y-81300500D01*
X52628039Y-81300500D01*
X52771962Y-81300500D01*
X52771962Y-81300499D01*
X52910053Y-81259953D01*
X53031128Y-81182143D01*
X53125377Y-81073373D01*
X53185165Y-80942457D01*
X53205647Y-80800000D01*
X53185165Y-80657543D01*
X53125377Y-80526627D01*
X53031128Y-80417857D01*
X52910053Y-80340047D01*
X52910051Y-80340046D01*
X52910049Y-80340045D01*
X52910050Y-80340045D01*
X52771963Y-80299500D01*
X52771961Y-80299500D01*
X52628039Y-80299500D01*
X52628036Y-80299500D01*
X52489949Y-80340045D01*
X52368873Y-80417856D01*
X52274623Y-80526626D01*
X52274622Y-80526628D01*
X52214834Y-80657543D01*
X52194353Y-80800000D01*
X51500500Y-80800000D01*
X51500500Y-80200000D01*
X56794353Y-80200000D01*
X56814834Y-80342456D01*
X56874622Y-80473371D01*
X56874623Y-80473373D01*
X56968872Y-80582143D01*
X57089947Y-80659953D01*
X57089950Y-80659954D01*
X57089949Y-80659954D01*
X57228036Y-80700499D01*
X57228038Y-80700500D01*
X57228039Y-80700500D01*
X57371962Y-80700500D01*
X57371962Y-80700499D01*
X57510053Y-80659953D01*
X57631128Y-80582143D01*
X57725377Y-80473373D01*
X57785165Y-80342457D01*
X57805647Y-80200000D01*
X58744353Y-80200000D01*
X58764834Y-80342456D01*
X58824622Y-80473371D01*
X58824623Y-80473373D01*
X58918872Y-80582143D01*
X59039947Y-80659953D01*
X59039950Y-80659954D01*
X59039949Y-80659954D01*
X59178036Y-80700499D01*
X59178038Y-80700500D01*
X59178039Y-80700500D01*
X59321962Y-80700500D01*
X59321962Y-80700499D01*
X59460053Y-80659953D01*
X59581128Y-80582143D01*
X59675377Y-80473373D01*
X59735165Y-80342457D01*
X59755647Y-80200000D01*
X60694353Y-80200000D01*
X60714834Y-80342456D01*
X60774622Y-80473371D01*
X60774623Y-80473373D01*
X60868872Y-80582143D01*
X60989947Y-80659953D01*
X60989950Y-80659954D01*
X60989949Y-80659954D01*
X61128036Y-80700499D01*
X61128038Y-80700500D01*
X61128039Y-80700500D01*
X61271962Y-80700500D01*
X61271962Y-80700499D01*
X61410053Y-80659953D01*
X61531128Y-80582143D01*
X61625377Y-80473373D01*
X61685165Y-80342457D01*
X61705647Y-80200000D01*
X61685165Y-80057543D01*
X61625377Y-79926627D01*
X61531128Y-79817857D01*
X61410053Y-79740047D01*
X61410051Y-79740046D01*
X61410049Y-79740045D01*
X61410050Y-79740045D01*
X61271963Y-79699500D01*
X61271961Y-79699500D01*
X61128039Y-79699500D01*
X61128036Y-79699500D01*
X60989949Y-79740045D01*
X60868873Y-79817856D01*
X60774623Y-79926626D01*
X60774622Y-79926628D01*
X60714834Y-80057543D01*
X60694353Y-80200000D01*
X59755647Y-80200000D01*
X59735165Y-80057543D01*
X59675377Y-79926627D01*
X59581128Y-79817857D01*
X59460053Y-79740047D01*
X59460051Y-79740046D01*
X59460049Y-79740045D01*
X59460050Y-79740045D01*
X59321963Y-79699500D01*
X59321961Y-79699500D01*
X59178039Y-79699500D01*
X59178036Y-79699500D01*
X59039949Y-79740045D01*
X58918873Y-79817856D01*
X58824623Y-79926626D01*
X58824622Y-79926628D01*
X58764834Y-80057543D01*
X58744353Y-80200000D01*
X57805647Y-80200000D01*
X57785165Y-80057543D01*
X57725377Y-79926627D01*
X57631128Y-79817857D01*
X57510053Y-79740047D01*
X57510051Y-79740046D01*
X57510049Y-79740045D01*
X57510050Y-79740045D01*
X57371963Y-79699500D01*
X57371961Y-79699500D01*
X57228039Y-79699500D01*
X57228036Y-79699500D01*
X57089949Y-79740045D01*
X56968873Y-79817856D01*
X56874623Y-79926626D01*
X56874622Y-79926628D01*
X56814834Y-80057543D01*
X56794353Y-80200000D01*
X51500500Y-80200000D01*
X51500500Y-79600000D01*
X53894353Y-79600000D01*
X53914834Y-79742456D01*
X53973895Y-79871780D01*
X53974623Y-79873373D01*
X54068872Y-79982143D01*
X54189947Y-80059953D01*
X54189950Y-80059954D01*
X54189949Y-80059954D01*
X54328036Y-80100499D01*
X54328038Y-80100500D01*
X54328039Y-80100500D01*
X54471962Y-80100500D01*
X54471962Y-80100499D01*
X54610053Y-80059953D01*
X54731128Y-79982143D01*
X54825377Y-79873373D01*
X54885165Y-79742457D01*
X54905647Y-79600000D01*
X54885165Y-79457543D01*
X54825377Y-79326627D01*
X54731128Y-79217857D01*
X54610053Y-79140047D01*
X54610051Y-79140046D01*
X54610049Y-79140045D01*
X54610050Y-79140045D01*
X54471963Y-79099500D01*
X54471961Y-79099500D01*
X54328039Y-79099500D01*
X54328036Y-79099500D01*
X54189949Y-79140045D01*
X54068873Y-79217856D01*
X53974623Y-79326626D01*
X53974622Y-79326628D01*
X53914834Y-79457543D01*
X53894353Y-79600000D01*
X51500500Y-79600000D01*
X51500500Y-78150000D01*
X55694353Y-78150000D01*
X55714834Y-78292456D01*
X55773600Y-78421133D01*
X55774623Y-78423373D01*
X55868872Y-78532143D01*
X55989947Y-78609953D01*
X55989950Y-78609954D01*
X55989949Y-78609954D01*
X56128036Y-78650499D01*
X56128038Y-78650500D01*
X56187122Y-78650500D01*
X56254161Y-78670185D01*
X56299916Y-78722989D01*
X56309860Y-78792147D01*
X56294353Y-78900000D01*
X56314834Y-79042456D01*
X56340886Y-79099500D01*
X56374623Y-79173373D01*
X56468872Y-79282143D01*
X56589947Y-79359953D01*
X56589950Y-79359954D01*
X56589949Y-79359954D01*
X56692432Y-79390045D01*
X56724868Y-79399569D01*
X56728036Y-79400499D01*
X56728038Y-79400500D01*
X56728039Y-79400500D01*
X56871962Y-79400500D01*
X56871962Y-79400499D01*
X57010053Y-79359953D01*
X57131128Y-79282143D01*
X57225377Y-79173373D01*
X57285165Y-79042457D01*
X57285165Y-79042455D01*
X57287206Y-79037987D01*
X57332961Y-78985183D01*
X57400000Y-78965499D01*
X57467040Y-78985184D01*
X57512794Y-79037987D01*
X57514834Y-79042455D01*
X57514835Y-79042457D01*
X57574623Y-79173373D01*
X57668872Y-79282143D01*
X57789947Y-79359953D01*
X57789950Y-79359954D01*
X57789949Y-79359954D01*
X57892432Y-79390045D01*
X57924868Y-79399569D01*
X57928036Y-79400499D01*
X57928038Y-79400500D01*
X57928039Y-79400500D01*
X58071962Y-79400500D01*
X58071962Y-79400499D01*
X58210053Y-79359953D01*
X58331128Y-79282143D01*
X58425377Y-79173373D01*
X58485165Y-79042457D01*
X58485165Y-79042455D01*
X58487206Y-79037987D01*
X58532961Y-78985183D01*
X58600000Y-78965499D01*
X58667040Y-78985184D01*
X58712794Y-79037987D01*
X58714834Y-79042455D01*
X58714835Y-79042457D01*
X58774623Y-79173373D01*
X58868872Y-79282143D01*
X58989947Y-79359953D01*
X58989950Y-79359954D01*
X58989949Y-79359954D01*
X59092432Y-79390045D01*
X59124868Y-79399569D01*
X59128036Y-79400499D01*
X59128038Y-79400500D01*
X59128039Y-79400500D01*
X59271962Y-79400500D01*
X59271962Y-79400499D01*
X59410053Y-79359953D01*
X59531128Y-79282143D01*
X59625377Y-79173373D01*
X59685165Y-79042457D01*
X59685165Y-79042455D01*
X59687206Y-79037987D01*
X59732961Y-78985183D01*
X59800000Y-78965499D01*
X59867040Y-78985184D01*
X59912794Y-79037987D01*
X59914834Y-79042455D01*
X59914835Y-79042457D01*
X59974623Y-79173373D01*
X60068872Y-79282143D01*
X60189947Y-79359953D01*
X60189950Y-79359954D01*
X60189949Y-79359954D01*
X60292432Y-79390045D01*
X60324868Y-79399569D01*
X60328036Y-79400499D01*
X60328038Y-79400500D01*
X60328039Y-79400500D01*
X60471962Y-79400500D01*
X60471962Y-79400499D01*
X60610053Y-79359953D01*
X60731128Y-79282143D01*
X60825377Y-79173373D01*
X60885165Y-79042457D01*
X60885165Y-79042455D01*
X60887206Y-79037987D01*
X60932961Y-78985183D01*
X61000000Y-78965499D01*
X61067040Y-78985184D01*
X61112794Y-79037987D01*
X61114834Y-79042455D01*
X61114835Y-79042457D01*
X61174623Y-79173373D01*
X61268872Y-79282143D01*
X61389947Y-79359953D01*
X61389950Y-79359954D01*
X61389949Y-79359954D01*
X61492432Y-79390045D01*
X61524868Y-79399569D01*
X61528036Y-79400499D01*
X61528038Y-79400500D01*
X61528039Y-79400500D01*
X61671962Y-79400500D01*
X61671962Y-79400499D01*
X61810053Y-79359953D01*
X61931128Y-79282143D01*
X62025377Y-79173373D01*
X62085165Y-79042457D01*
X62102262Y-78923542D01*
X62131287Y-78859988D01*
X62190065Y-78822213D01*
X62259935Y-78822213D01*
X62318713Y-78859987D01*
X62347738Y-78923543D01*
X62364834Y-79042456D01*
X62390886Y-79099500D01*
X62424623Y-79173373D01*
X62518872Y-79282143D01*
X62639947Y-79359953D01*
X62671984Y-79369359D01*
X62730762Y-79407133D01*
X62759788Y-79470688D01*
X62749845Y-79539847D01*
X62730767Y-79569535D01*
X62724625Y-79576623D01*
X62724622Y-79576628D01*
X62664834Y-79707543D01*
X62644353Y-79850000D01*
X62664834Y-79992456D01*
X62714177Y-80100499D01*
X62724623Y-80123373D01*
X62818872Y-80232143D01*
X62939947Y-80309953D01*
X62939950Y-80309954D01*
X62939949Y-80309954D01*
X63078036Y-80350499D01*
X63078038Y-80350500D01*
X63078039Y-80350500D01*
X63221962Y-80350500D01*
X63221962Y-80350499D01*
X63360053Y-80309953D01*
X63481128Y-80232143D01*
X63481128Y-80232142D01*
X63488589Y-80227348D01*
X63489520Y-80228796D01*
X63543491Y-80204145D01*
X63612650Y-80214084D01*
X63665457Y-80259836D01*
X63671623Y-80270574D01*
X63712500Y-80350798D01*
X63726473Y-80378221D01*
X63726476Y-80378225D01*
X63821774Y-80473523D01*
X63821778Y-80473526D01*
X63821780Y-80473528D01*
X63941874Y-80534719D01*
X63941876Y-80534719D01*
X63941878Y-80534720D01*
X64074998Y-80555804D01*
X64075000Y-80555804D01*
X64075002Y-80555804D01*
X64208121Y-80534720D01*
X64208121Y-80534719D01*
X64208126Y-80534719D01*
X64328220Y-80473528D01*
X64349819Y-80451928D01*
X64411140Y-80418444D01*
X64480832Y-80423427D01*
X64525180Y-80451928D01*
X64546780Y-80473528D01*
X64666874Y-80534719D01*
X64666876Y-80534719D01*
X64666878Y-80534720D01*
X64799998Y-80555804D01*
X64800000Y-80555804D01*
X64800002Y-80555804D01*
X64933121Y-80534720D01*
X64933121Y-80534719D01*
X64933126Y-80534719D01*
X65053220Y-80473528D01*
X65148528Y-80378220D01*
X65209719Y-80258126D01*
X65209720Y-80258121D01*
X65230804Y-80125002D01*
X65230804Y-80124997D01*
X65209720Y-79991878D01*
X65209719Y-79991876D01*
X65209719Y-79991874D01*
X65148528Y-79871780D01*
X65148526Y-79871778D01*
X65148523Y-79871774D01*
X65053225Y-79776476D01*
X65053221Y-79776473D01*
X65053220Y-79776472D01*
X64933126Y-79715281D01*
X64933124Y-79715280D01*
X64933121Y-79715279D01*
X64800002Y-79694196D01*
X64799998Y-79694196D01*
X64666878Y-79715279D01*
X64546778Y-79776473D01*
X64546774Y-79776476D01*
X64525181Y-79798070D01*
X64463858Y-79831555D01*
X64394166Y-79826571D01*
X64349819Y-79798070D01*
X64328225Y-79776476D01*
X64328221Y-79776473D01*
X64328220Y-79776472D01*
X64208126Y-79715281D01*
X64208124Y-79715280D01*
X64208121Y-79715279D01*
X64075002Y-79694196D01*
X64074998Y-79694196D01*
X63941878Y-79715279D01*
X63941874Y-79715280D01*
X63941874Y-79715281D01*
X63821780Y-79776472D01*
X63821778Y-79776473D01*
X63813085Y-79780903D01*
X63811688Y-79778161D01*
X63761123Y-79796188D01*
X63693073Y-79780344D01*
X63644392Y-79730225D01*
X63635381Y-79708017D01*
X63631491Y-79699500D01*
X63575377Y-79576627D01*
X63481128Y-79467857D01*
X63360053Y-79390047D01*
X63360050Y-79390045D01*
X63328014Y-79380639D01*
X63269236Y-79342865D01*
X63252056Y-79305247D01*
X84724500Y-79305247D01*
X84724500Y-80694752D01*
X84736131Y-80753229D01*
X84736132Y-80753230D01*
X84780447Y-80819552D01*
X84846769Y-80863867D01*
X84846770Y-80863868D01*
X84905247Y-80875499D01*
X84905250Y-80875500D01*
X84905252Y-80875500D01*
X86294750Y-80875500D01*
X86294751Y-80875499D01*
X86309568Y-80872552D01*
X86353229Y-80863868D01*
X86353229Y-80863867D01*
X86353231Y-80863867D01*
X86419552Y-80819552D01*
X86463867Y-80753231D01*
X86463867Y-80753229D01*
X86463868Y-80753229D01*
X86475499Y-80694752D01*
X86475500Y-80694750D01*
X86475500Y-79800000D01*
X86894353Y-79800000D01*
X86914834Y-79942456D01*
X86968494Y-80059953D01*
X86974623Y-80073373D01*
X87068872Y-80182143D01*
X87189947Y-80259953D01*
X87189950Y-80259954D01*
X87189949Y-80259954D01*
X87226163Y-80270587D01*
X87324633Y-80299500D01*
X87328036Y-80300499D01*
X87328038Y-80300500D01*
X87328039Y-80300500D01*
X87471962Y-80300500D01*
X87471962Y-80300499D01*
X87610053Y-80259953D01*
X87731128Y-80182143D01*
X87825377Y-80073373D01*
X87885165Y-79942457D01*
X87905647Y-79800000D01*
X87885165Y-79657543D01*
X87825377Y-79526627D01*
X87731128Y-79417857D01*
X87610053Y-79340047D01*
X87610051Y-79340046D01*
X87610049Y-79340045D01*
X87610050Y-79340045D01*
X87471963Y-79299500D01*
X87471961Y-79299500D01*
X87328039Y-79299500D01*
X87328036Y-79299500D01*
X87189949Y-79340045D01*
X87068873Y-79417856D01*
X86974623Y-79526626D01*
X86974622Y-79526628D01*
X86914834Y-79657543D01*
X86894353Y-79800000D01*
X86475500Y-79800000D01*
X86475500Y-79305249D01*
X86475499Y-79305247D01*
X86463868Y-79246770D01*
X86463867Y-79246769D01*
X86419552Y-79180447D01*
X86353230Y-79136132D01*
X86353229Y-79136131D01*
X86294752Y-79124500D01*
X86294748Y-79124500D01*
X84905252Y-79124500D01*
X84905247Y-79124500D01*
X84846770Y-79136131D01*
X84846769Y-79136132D01*
X84780447Y-79180447D01*
X84736132Y-79246769D01*
X84736131Y-79246770D01*
X84724500Y-79305247D01*
X63252056Y-79305247D01*
X63240211Y-79279309D01*
X63250155Y-79210150D01*
X63269237Y-79180458D01*
X63275377Y-79173373D01*
X63335165Y-79042457D01*
X63355647Y-78900000D01*
X63335165Y-78757543D01*
X63275377Y-78626627D01*
X63181128Y-78517857D01*
X63060053Y-78440047D01*
X63060051Y-78440046D01*
X63060049Y-78440045D01*
X63060050Y-78440045D01*
X62921963Y-78399500D01*
X62921961Y-78399500D01*
X62912878Y-78399500D01*
X62845839Y-78379815D01*
X62800084Y-78327011D01*
X62790140Y-78257853D01*
X62805647Y-78150000D01*
X62785165Y-78007543D01*
X62725377Y-77876627D01*
X62691472Y-77837498D01*
X65181818Y-77837498D01*
X65181818Y-77837501D01*
X65202455Y-77994260D01*
X65202456Y-77994262D01*
X65262964Y-78140341D01*
X65359218Y-78265782D01*
X65484659Y-78362036D01*
X65630738Y-78422544D01*
X65700916Y-78431783D01*
X65787499Y-78443182D01*
X65787500Y-78443182D01*
X65787501Y-78443182D01*
X65874084Y-78431783D01*
X65944262Y-78422544D01*
X66090341Y-78362036D01*
X66215782Y-78265782D01*
X66312036Y-78140341D01*
X66328746Y-78100000D01*
X83694353Y-78100000D01*
X83714834Y-78242456D01*
X83774622Y-78373371D01*
X83774623Y-78373373D01*
X83868872Y-78482143D01*
X83989947Y-78559953D01*
X83989950Y-78559954D01*
X83989949Y-78559954D01*
X84128036Y-78600499D01*
X84128038Y-78600500D01*
X84128039Y-78600500D01*
X84271962Y-78600500D01*
X84271962Y-78600499D01*
X84410053Y-78559953D01*
X84531128Y-78482143D01*
X84625377Y-78373373D01*
X84658886Y-78300000D01*
X86894353Y-78300000D01*
X86914834Y-78442456D01*
X86968494Y-78559953D01*
X86974623Y-78573373D01*
X87068872Y-78682143D01*
X87189947Y-78759953D01*
X87189950Y-78759954D01*
X87189949Y-78759954D01*
X87328036Y-78800499D01*
X87328038Y-78800500D01*
X87328039Y-78800500D01*
X87471962Y-78800500D01*
X87471962Y-78800499D01*
X87610053Y-78759953D01*
X87731128Y-78682143D01*
X87825377Y-78573373D01*
X87885165Y-78442457D01*
X87905647Y-78300000D01*
X87885165Y-78157543D01*
X87825377Y-78026627D01*
X87731128Y-77917857D01*
X87610053Y-77840047D01*
X87610051Y-77840046D01*
X87610049Y-77840045D01*
X87610050Y-77840045D01*
X87471963Y-77799500D01*
X87471961Y-77799500D01*
X87328039Y-77799500D01*
X87328036Y-77799500D01*
X87189949Y-77840045D01*
X87068873Y-77917856D01*
X86974623Y-78026626D01*
X86974622Y-78026628D01*
X86914834Y-78157543D01*
X86894353Y-78300000D01*
X84658886Y-78300000D01*
X84685165Y-78242457D01*
X84705647Y-78100000D01*
X84685165Y-77957543D01*
X84625377Y-77826627D01*
X84531128Y-77717857D01*
X84410053Y-77640047D01*
X84410051Y-77640046D01*
X84410049Y-77640045D01*
X84410050Y-77640045D01*
X84271963Y-77599500D01*
X84271961Y-77599500D01*
X84128039Y-77599500D01*
X84128036Y-77599500D01*
X83989949Y-77640045D01*
X83868873Y-77717856D01*
X83774623Y-77826626D01*
X83774622Y-77826628D01*
X83714834Y-77957543D01*
X83694353Y-78100000D01*
X66328746Y-78100000D01*
X66372544Y-77994262D01*
X66393182Y-77837500D01*
X66391750Y-77826626D01*
X66377431Y-77717856D01*
X66372544Y-77680738D01*
X66312036Y-77534659D01*
X66215782Y-77409218D01*
X66090341Y-77312964D01*
X65944262Y-77252456D01*
X65944260Y-77252455D01*
X65787501Y-77231818D01*
X65787499Y-77231818D01*
X65630739Y-77252455D01*
X65630737Y-77252456D01*
X65484660Y-77312963D01*
X65359218Y-77409218D01*
X65262963Y-77534660D01*
X65202456Y-77680737D01*
X65202455Y-77680739D01*
X65181818Y-77837498D01*
X62691472Y-77837498D01*
X62631128Y-77767857D01*
X62510053Y-77690047D01*
X62510051Y-77690046D01*
X62510049Y-77690045D01*
X62510050Y-77690045D01*
X62371963Y-77649500D01*
X62371961Y-77649500D01*
X62228039Y-77649500D01*
X62228036Y-77649500D01*
X62089949Y-77690045D01*
X61968873Y-77767856D01*
X61874623Y-77876626D01*
X61874622Y-77876628D01*
X61814834Y-78007543D01*
X61794353Y-78150000D01*
X61809992Y-78258777D01*
X61800048Y-78327935D01*
X61754293Y-78380739D01*
X61687253Y-78400423D01*
X61674335Y-78399500D01*
X61671961Y-78399500D01*
X61612878Y-78399500D01*
X61545839Y-78379815D01*
X61500084Y-78327011D01*
X61490140Y-78257853D01*
X61505647Y-78150000D01*
X61485165Y-78007543D01*
X61425377Y-77876627D01*
X61331128Y-77767857D01*
X61210053Y-77690047D01*
X61210051Y-77690046D01*
X61210049Y-77690045D01*
X61210050Y-77690045D01*
X61071963Y-77649500D01*
X61071961Y-77649500D01*
X60928039Y-77649500D01*
X60928036Y-77649500D01*
X60789949Y-77690045D01*
X60668873Y-77767856D01*
X60574623Y-77876626D01*
X60574622Y-77876628D01*
X60512794Y-78012012D01*
X60467039Y-78064816D01*
X60400000Y-78084500D01*
X60332960Y-78064815D01*
X60287206Y-78012012D01*
X60279099Y-77994260D01*
X60225377Y-77876627D01*
X60131128Y-77767857D01*
X60010053Y-77690047D01*
X60010051Y-77690046D01*
X60010049Y-77690045D01*
X60010050Y-77690045D01*
X59871963Y-77649500D01*
X59871961Y-77649500D01*
X59728039Y-77649500D01*
X59728036Y-77649500D01*
X59589949Y-77690045D01*
X59468873Y-77767856D01*
X59374623Y-77876626D01*
X59374622Y-77876628D01*
X59312794Y-78012012D01*
X59267039Y-78064816D01*
X59200000Y-78084500D01*
X59132960Y-78064815D01*
X59087206Y-78012012D01*
X59079099Y-77994260D01*
X59025377Y-77876627D01*
X58931128Y-77767857D01*
X58810053Y-77690047D01*
X58810051Y-77690046D01*
X58810049Y-77690045D01*
X58810050Y-77690045D01*
X58671963Y-77649500D01*
X58671961Y-77649500D01*
X58528039Y-77649500D01*
X58528036Y-77649500D01*
X58389949Y-77690045D01*
X58268873Y-77767856D01*
X58174623Y-77876626D01*
X58174622Y-77876628D01*
X58112794Y-78012012D01*
X58067039Y-78064816D01*
X58000000Y-78084500D01*
X57932960Y-78064815D01*
X57887206Y-78012012D01*
X57879099Y-77994260D01*
X57825377Y-77876627D01*
X57731128Y-77767857D01*
X57610053Y-77690047D01*
X57610051Y-77690046D01*
X57610049Y-77690045D01*
X57610050Y-77690045D01*
X57471963Y-77649500D01*
X57471961Y-77649500D01*
X57328039Y-77649500D01*
X57328036Y-77649500D01*
X57189949Y-77690045D01*
X57068873Y-77767856D01*
X56974623Y-77876626D01*
X56974622Y-77876628D01*
X56912794Y-78012012D01*
X56867039Y-78064816D01*
X56800000Y-78084500D01*
X56732960Y-78064815D01*
X56687206Y-78012012D01*
X56679099Y-77994260D01*
X56625377Y-77876627D01*
X56531128Y-77767857D01*
X56410053Y-77690047D01*
X56410051Y-77690046D01*
X56410049Y-77690045D01*
X56410050Y-77690045D01*
X56271963Y-77649500D01*
X56271961Y-77649500D01*
X56128039Y-77649500D01*
X56128036Y-77649500D01*
X55989949Y-77690045D01*
X55868873Y-77767856D01*
X55774623Y-77876626D01*
X55774622Y-77876628D01*
X55714834Y-78007543D01*
X55694353Y-78150000D01*
X51500500Y-78150000D01*
X51500500Y-76649998D01*
X60844318Y-76649998D01*
X60844318Y-76650001D01*
X60864955Y-76806760D01*
X60864956Y-76806762D01*
X60900775Y-76893238D01*
X60925464Y-76952841D01*
X61021718Y-77078282D01*
X61147159Y-77174536D01*
X61293238Y-77235044D01*
X61349538Y-77242456D01*
X61449999Y-77255682D01*
X61450000Y-77255682D01*
X61450001Y-77255682D01*
X61502254Y-77248802D01*
X61606762Y-77235044D01*
X61752841Y-77174536D01*
X61878282Y-77078282D01*
X61899985Y-77049998D01*
X67631818Y-77049998D01*
X67631818Y-77050001D01*
X67652455Y-77206760D01*
X67652456Y-77206762D01*
X67712964Y-77352841D01*
X67809218Y-77478282D01*
X67934659Y-77574536D01*
X68080738Y-77635044D01*
X68118725Y-77640045D01*
X68237499Y-77655682D01*
X68237500Y-77655682D01*
X68237501Y-77655682D01*
X68289754Y-77648802D01*
X68394262Y-77635044D01*
X68540341Y-77574536D01*
X68665782Y-77478282D01*
X68762036Y-77352841D01*
X68822544Y-77206762D01*
X68836599Y-77100000D01*
X80594353Y-77100000D01*
X80614834Y-77242456D01*
X80647034Y-77312963D01*
X80674623Y-77373373D01*
X80768872Y-77482143D01*
X80889947Y-77559953D01*
X80889950Y-77559954D01*
X80889949Y-77559954D01*
X80997107Y-77591417D01*
X81024633Y-77599500D01*
X81028036Y-77600499D01*
X81028038Y-77600500D01*
X81028039Y-77600500D01*
X81171962Y-77600500D01*
X81171962Y-77600499D01*
X81310053Y-77559953D01*
X81431128Y-77482143D01*
X81525377Y-77373373D01*
X81585165Y-77242457D01*
X81605647Y-77100000D01*
X81894353Y-77100000D01*
X81914834Y-77242456D01*
X81947034Y-77312963D01*
X81974623Y-77373373D01*
X82068872Y-77482143D01*
X82189947Y-77559953D01*
X82189950Y-77559954D01*
X82189949Y-77559954D01*
X82297107Y-77591417D01*
X82324633Y-77599500D01*
X82328036Y-77600499D01*
X82328038Y-77600500D01*
X82328039Y-77600500D01*
X82471962Y-77600500D01*
X82471962Y-77600499D01*
X82610053Y-77559953D01*
X82731128Y-77482143D01*
X82825377Y-77373373D01*
X82885165Y-77242457D01*
X82905647Y-77100000D01*
X82885165Y-76957543D01*
X82825377Y-76826627D01*
X82731128Y-76717857D01*
X82610053Y-76640047D01*
X82610051Y-76640046D01*
X82610049Y-76640045D01*
X82610050Y-76640045D01*
X82471963Y-76599500D01*
X82471961Y-76599500D01*
X82328039Y-76599500D01*
X82328036Y-76599500D01*
X82189949Y-76640045D01*
X82068873Y-76717856D01*
X81974623Y-76826626D01*
X81974622Y-76826628D01*
X81914834Y-76957543D01*
X81894353Y-77100000D01*
X81605647Y-77100000D01*
X81585165Y-76957543D01*
X81525377Y-76826627D01*
X81431128Y-76717857D01*
X81310053Y-76640047D01*
X81310051Y-76640046D01*
X81310049Y-76640045D01*
X81310050Y-76640045D01*
X81171963Y-76599500D01*
X81171961Y-76599500D01*
X81028039Y-76599500D01*
X81028036Y-76599500D01*
X80889949Y-76640045D01*
X80768873Y-76717856D01*
X80674623Y-76826626D01*
X80674622Y-76826628D01*
X80614834Y-76957543D01*
X80594353Y-77100000D01*
X68836599Y-77100000D01*
X68843182Y-77050000D01*
X68822544Y-76893238D01*
X68762036Y-76747159D01*
X68665782Y-76621718D01*
X68540341Y-76525464D01*
X68394262Y-76464956D01*
X68394260Y-76464955D01*
X68237501Y-76444318D01*
X68237499Y-76444318D01*
X68080739Y-76464955D01*
X68080737Y-76464956D01*
X67934660Y-76525463D01*
X67809218Y-76621718D01*
X67712963Y-76747160D01*
X67652456Y-76893237D01*
X67652455Y-76893239D01*
X67631818Y-77049998D01*
X61899985Y-77049998D01*
X61974536Y-76952841D01*
X62035044Y-76806762D01*
X62055682Y-76650000D01*
X62054371Y-76640045D01*
X62035044Y-76493239D01*
X62035044Y-76493238D01*
X61974536Y-76347159D01*
X61878282Y-76221718D01*
X61752841Y-76125464D01*
X61606762Y-76064956D01*
X61606760Y-76064955D01*
X61450001Y-76044318D01*
X61449999Y-76044318D01*
X61293239Y-76064955D01*
X61293237Y-76064956D01*
X61147160Y-76125463D01*
X61021718Y-76221718D01*
X60925463Y-76347160D01*
X60864956Y-76493237D01*
X60864955Y-76493239D01*
X60844318Y-76649998D01*
X51500500Y-76649998D01*
X51500500Y-75449998D01*
X63481818Y-75449998D01*
X63481818Y-75450001D01*
X63502455Y-75606760D01*
X63502456Y-75606762D01*
X63562964Y-75752841D01*
X63659218Y-75878282D01*
X63784659Y-75974536D01*
X63930738Y-76035044D01*
X64001181Y-76044318D01*
X64087499Y-76055682D01*
X64087500Y-76055682D01*
X64087501Y-76055682D01*
X64139754Y-76048802D01*
X64244262Y-76035044D01*
X64390341Y-75974536D01*
X64515782Y-75878282D01*
X64612036Y-75752841D01*
X64672544Y-75606762D01*
X64693182Y-75450000D01*
X64672544Y-75293238D01*
X64612036Y-75147159D01*
X64515782Y-75021718D01*
X64390341Y-74925464D01*
X64244262Y-74864956D01*
X64244260Y-74864955D01*
X64087501Y-74844318D01*
X64087499Y-74844318D01*
X63930739Y-74864955D01*
X63930737Y-74864956D01*
X63784660Y-74925463D01*
X63659218Y-75021718D01*
X63562963Y-75147160D01*
X63502456Y-75293237D01*
X63502455Y-75293239D01*
X63481818Y-75449998D01*
X51500500Y-75449998D01*
X51500500Y-74800000D01*
X81894353Y-74800000D01*
X81914834Y-74942456D01*
X81974622Y-75073371D01*
X81974623Y-75073373D01*
X82068872Y-75182143D01*
X82189947Y-75259953D01*
X82189950Y-75259954D01*
X82189949Y-75259954D01*
X82328036Y-75300499D01*
X82328038Y-75300500D01*
X82328039Y-75300500D01*
X82471962Y-75300500D01*
X82471962Y-75300499D01*
X82610053Y-75259953D01*
X82731128Y-75182143D01*
X82825377Y-75073373D01*
X82885165Y-74942457D01*
X82905647Y-74800000D01*
X82885165Y-74657543D01*
X82825377Y-74526627D01*
X82731128Y-74417857D01*
X82610053Y-74340047D01*
X82610051Y-74340046D01*
X82610049Y-74340045D01*
X82610050Y-74340045D01*
X82471963Y-74299500D01*
X82471961Y-74299500D01*
X82328039Y-74299500D01*
X82328036Y-74299500D01*
X82189949Y-74340045D01*
X82068873Y-74417856D01*
X81974623Y-74526626D01*
X81974622Y-74526628D01*
X81914834Y-74657543D01*
X81894353Y-74800000D01*
X51500500Y-74800000D01*
X51500500Y-73849998D01*
X57344318Y-73849998D01*
X57344318Y-73850001D01*
X57364955Y-74006760D01*
X57364956Y-74006762D01*
X57390843Y-74069260D01*
X57425464Y-74152841D01*
X57521718Y-74278282D01*
X57647159Y-74374536D01*
X57793238Y-74435044D01*
X57871619Y-74445363D01*
X57949999Y-74455682D01*
X57950000Y-74455682D01*
X57950001Y-74455682D01*
X58002254Y-74448802D01*
X58106762Y-74435044D01*
X58252841Y-74374536D01*
X58378282Y-74278282D01*
X58474536Y-74152841D01*
X58535044Y-74006762D01*
X58547454Y-73912498D01*
X61231818Y-73912498D01*
X61231818Y-73912501D01*
X61252455Y-74069260D01*
X61252456Y-74069262D01*
X61312964Y-74215341D01*
X61409218Y-74340782D01*
X61534659Y-74437036D01*
X61680738Y-74497544D01*
X61759119Y-74507863D01*
X61837499Y-74518182D01*
X61837500Y-74518182D01*
X61837501Y-74518182D01*
X61889754Y-74511302D01*
X61994262Y-74497544D01*
X62140341Y-74437036D01*
X62265782Y-74340782D01*
X62362036Y-74215341D01*
X62422544Y-74069262D01*
X62443182Y-73912500D01*
X62434953Y-73849998D01*
X62422544Y-73755739D01*
X62422544Y-73755738D01*
X62362036Y-73609659D01*
X62265782Y-73484218D01*
X62140341Y-73387964D01*
X61994262Y-73327456D01*
X61994260Y-73327455D01*
X61837501Y-73306818D01*
X61837499Y-73306818D01*
X61680739Y-73327455D01*
X61680737Y-73327456D01*
X61534660Y-73387963D01*
X61409218Y-73484218D01*
X61312963Y-73609660D01*
X61252456Y-73755737D01*
X61252455Y-73755739D01*
X61231818Y-73912498D01*
X58547454Y-73912498D01*
X58555682Y-73850000D01*
X58535044Y-73693238D01*
X58474536Y-73547159D01*
X58378282Y-73421718D01*
X58252841Y-73325464D01*
X58106762Y-73264956D01*
X58106760Y-73264955D01*
X57950001Y-73244318D01*
X57949999Y-73244318D01*
X57793239Y-73264955D01*
X57793237Y-73264956D01*
X57647160Y-73325463D01*
X57521718Y-73421718D01*
X57425463Y-73547160D01*
X57364956Y-73693237D01*
X57364955Y-73693239D01*
X57344318Y-73849998D01*
X51500500Y-73849998D01*
X51500500Y-72624500D01*
X51520185Y-72557461D01*
X51572989Y-72511706D01*
X51624500Y-72500500D01*
X58118098Y-72500500D01*
X58119598Y-72500382D01*
X58129321Y-72500000D01*
X61870679Y-72500000D01*
X61880402Y-72500382D01*
G37*
G04 #@! TD.AperFunction*
M02*
