G04 #@! TF.GenerationSoftware,KiCad,Pcbnew,8.0.5*
G04 #@! TF.CreationDate,2024-11-01T14:28:31+01:00*
G04 #@! TF.ProjectId,DCDC_converter,44434443-5f63-46f6-9e76-65727465722e,rev?*
G04 #@! TF.SameCoordinates,Original*
G04 #@! TF.FileFunction,Copper,L1,Top*
G04 #@! TF.FilePolarity,Positive*
%FSLAX46Y46*%
G04 Gerber Fmt 4.6, Leading zero omitted, Abs format (unit mm)*
G04 Created by KiCad (PCBNEW 8.0.5) date 2024-11-01 14:28:31*
%MOMM*%
%LPD*%
G01*
G04 APERTURE LIST*
G04 Aperture macros list*
%AMRoundRect*
0 Rectangle with rounded corners*
0 $1 Rounding radius*
0 $2 $3 $4 $5 $6 $7 $8 $9 X,Y pos of 4 corners*
0 Add a 4 corners polygon primitive as box body*
4,1,4,$2,$3,$4,$5,$6,$7,$8,$9,$2,$3,0*
0 Add four circle primitives for the rounded corners*
1,1,$1+$1,$2,$3*
1,1,$1+$1,$4,$5*
1,1,$1+$1,$6,$7*
1,1,$1+$1,$8,$9*
0 Add four rect primitives between the rounded corners*
20,1,$1+$1,$2,$3,$4,$5,0*
20,1,$1+$1,$4,$5,$6,$7,0*
20,1,$1+$1,$6,$7,$8,$9,0*
20,1,$1+$1,$8,$9,$2,$3,0*%
G04 Aperture macros list end*
G04 #@! TA.AperFunction,SMDPad,CuDef*
%ADD10R,2.413000X5.334000*%
G04 #@! TD*
G04 #@! TA.AperFunction,ComponentPad*
%ADD11O,1.700000X1.700000*%
G04 #@! TD*
G04 #@! TA.AperFunction,ComponentPad*
%ADD12R,1.700000X1.700000*%
G04 #@! TD*
G04 #@! TA.AperFunction,SMDPad,CuDef*
%ADD13RoundRect,0.250000X0.250000X0.475000X-0.250000X0.475000X-0.250000X-0.475000X0.250000X-0.475000X0*%
G04 #@! TD*
G04 #@! TA.AperFunction,SMDPad,CuDef*
%ADD14C,0.500000*%
G04 #@! TD*
G04 #@! TA.AperFunction,SMDPad,CuDef*
%ADD15RoundRect,0.250000X-0.475000X0.250000X-0.475000X-0.250000X0.475000X-0.250000X0.475000X0.250000X0*%
G04 #@! TD*
G04 #@! TA.AperFunction,SMDPad,CuDef*
%ADD16RoundRect,0.200000X0.275000X-0.200000X0.275000X0.200000X-0.275000X0.200000X-0.275000X-0.200000X0*%
G04 #@! TD*
G04 #@! TA.AperFunction,SMDPad,CuDef*
%ADD17RoundRect,0.225000X-0.250000X0.225000X-0.250000X-0.225000X0.250000X-0.225000X0.250000X0.225000X0*%
G04 #@! TD*
G04 #@! TA.AperFunction,SMDPad,CuDef*
%ADD18RoundRect,0.225000X0.225000X0.250000X-0.225000X0.250000X-0.225000X-0.250000X0.225000X-0.250000X0*%
G04 #@! TD*
G04 #@! TA.AperFunction,SMDPad,CuDef*
%ADD19R,0.250000X0.700000*%
G04 #@! TD*
G04 #@! TA.AperFunction,SMDPad,CuDef*
%ADD20R,0.700000X0.300000*%
G04 #@! TD*
G04 #@! TA.AperFunction,SMDPad,CuDef*
%ADD21R,1.500000X0.300000*%
G04 #@! TD*
G04 #@! TA.AperFunction,SMDPad,CuDef*
%ADD22RoundRect,0.200000X-0.200000X-0.275000X0.200000X-0.275000X0.200000X0.275000X-0.200000X0.275000X0*%
G04 #@! TD*
G04 #@! TA.AperFunction,ComponentPad*
%ADD23O,1.350000X1.350000*%
G04 #@! TD*
G04 #@! TA.AperFunction,ComponentPad*
%ADD24R,1.350000X1.350000*%
G04 #@! TD*
G04 #@! TA.AperFunction,SMDPad,CuDef*
%ADD25RoundRect,0.225000X0.250000X-0.225000X0.250000X0.225000X-0.250000X0.225000X-0.250000X-0.225000X0*%
G04 #@! TD*
G04 #@! TA.AperFunction,SMDPad,CuDef*
%ADD26RoundRect,0.218750X-0.218750X-0.256250X0.218750X-0.256250X0.218750X0.256250X-0.218750X0.256250X0*%
G04 #@! TD*
G04 #@! TA.AperFunction,ComponentPad*
%ADD27C,1.600000*%
G04 #@! TD*
G04 #@! TA.AperFunction,ComponentPad*
%ADD28R,1.600000X1.600000*%
G04 #@! TD*
G04 #@! TA.AperFunction,SMDPad,CuDef*
%ADD29RoundRect,0.200000X0.200000X0.275000X-0.200000X0.275000X-0.200000X-0.275000X0.200000X-0.275000X0*%
G04 #@! TD*
G04 #@! TA.AperFunction,SMDPad,CuDef*
%ADD30RoundRect,0.200000X-0.275000X0.200000X-0.275000X-0.200000X0.275000X-0.200000X0.275000X0.200000X0*%
G04 #@! TD*
G04 #@! TA.AperFunction,SMDPad,CuDef*
%ADD31C,1.000000*%
G04 #@! TD*
G04 #@! TA.AperFunction,WasherPad*
%ADD32C,1.300000*%
G04 #@! TD*
G04 #@! TA.AperFunction,ViaPad*
%ADD33C,0.800000*%
G04 #@! TD*
G04 #@! TA.AperFunction,ViaPad*
%ADD34C,0.600000*%
G04 #@! TD*
G04 #@! TA.AperFunction,ViaPad*
%ADD35C,0.450000*%
G04 #@! TD*
G04 #@! TA.AperFunction,Conductor*
%ADD36C,0.300000*%
G04 #@! TD*
G04 #@! TA.AperFunction,Conductor*
%ADD37C,0.250000*%
G04 #@! TD*
G04 #@! TA.AperFunction,Conductor*
%ADD38C,0.200000*%
G04 #@! TD*
G04 #@! TA.AperFunction,Conductor*
%ADD39C,0.400000*%
G04 #@! TD*
G04 #@! TA.AperFunction,Conductor*
%ADD40C,0.500000*%
G04 #@! TD*
G04 #@! TA.AperFunction,Conductor*
%ADD41C,1.000000*%
G04 #@! TD*
G04 APERTURE END LIST*
D10*
X81300000Y-82000000D03*
X74061000Y-82000000D03*
D11*
X52500000Y-76920000D03*
D12*
X52500000Y-74380000D03*
D11*
X89400000Y-82000000D03*
D12*
X89400000Y-79460000D03*
D11*
X52500000Y-89620000D03*
D12*
X52500000Y-87080000D03*
D11*
X89400000Y-89620000D03*
D12*
X89400000Y-87080000D03*
D11*
X86860001Y-74380000D03*
D12*
X89400001Y-74380000D03*
D13*
X79270000Y-75640000D03*
X81169998Y-75640000D03*
X79305000Y-88500000D03*
X81204998Y-88500000D03*
D14*
X86500000Y-90500000D03*
D13*
X79270001Y-73680000D03*
X81169999Y-73680000D03*
D15*
X56352500Y-81635000D03*
X56352500Y-79735002D03*
D16*
X67137500Y-74820000D03*
X67137500Y-76470000D03*
D17*
X61982500Y-81475000D03*
X61982500Y-79925000D03*
D18*
X62692500Y-83395000D03*
X64242500Y-83395000D03*
D19*
X64562500Y-78955000D03*
X65062500Y-78955000D03*
X65562500Y-78955000D03*
X66062500Y-78955000D03*
D20*
X66512500Y-79755000D03*
D21*
X66112500Y-80405000D03*
D20*
X66512500Y-81055000D03*
D19*
X66062500Y-81855000D03*
X65562500Y-81855000D03*
X65062500Y-81855000D03*
X64562500Y-81855000D03*
D21*
X64512500Y-81055000D03*
X64512500Y-79755000D03*
D22*
X69292500Y-78565000D03*
X67642500Y-78565000D03*
D23*
X85600000Y-84000000D03*
X85600000Y-82000000D03*
D24*
X85600000Y-80000000D03*
D15*
X58312500Y-81635000D03*
X58312500Y-79735002D03*
D16*
X63105000Y-74825000D03*
X63105000Y-76475000D03*
D22*
X68222500Y-83665000D03*
X66572500Y-83665000D03*
D18*
X66622500Y-86655000D03*
X68172500Y-86655000D03*
D25*
X70682500Y-78545000D03*
X70682500Y-80095000D03*
D26*
X63925000Y-73275000D03*
X62350000Y-73275000D03*
D22*
X64392500Y-88115000D03*
X62742500Y-88115000D03*
D27*
X59450000Y-86400000D03*
D28*
X56950000Y-86400000D03*
D18*
X58872500Y-75050000D03*
X60422500Y-75050000D03*
D22*
X64392500Y-86655000D03*
X62742500Y-86655000D03*
X60477500Y-76660000D03*
X58827500Y-76660000D03*
D16*
X65232500Y-74825000D03*
X65232500Y-76475000D03*
D29*
X66572500Y-85125000D03*
X68222500Y-85125000D03*
D22*
X60462500Y-73275000D03*
X58812500Y-73275000D03*
D14*
X55500000Y-73500000D03*
D15*
X60272500Y-81634998D03*
X60272500Y-79735000D03*
D30*
X69037500Y-76470000D03*
X69037500Y-74820000D03*
D13*
X79305000Y-90460000D03*
X81204998Y-90460000D03*
X79270000Y-53640000D03*
X81169998Y-53640000D03*
D14*
X55500000Y-51500000D03*
D22*
X60462500Y-51275000D03*
X58812500Y-51275000D03*
D15*
X60272500Y-59634998D03*
X60272500Y-57735000D03*
D31*
X55000000Y-44850000D03*
D13*
X79305000Y-68460000D03*
X81204998Y-68460000D03*
D32*
X83000000Y-98000000D03*
D30*
X69037500Y-54470000D03*
X69037500Y-52820000D03*
D16*
X65232500Y-52825000D03*
X65232500Y-54475000D03*
D32*
X83000000Y-44000000D03*
D18*
X58872500Y-53050000D03*
X60422500Y-53050000D03*
D22*
X64392500Y-64655000D03*
X62742500Y-64655000D03*
X60477500Y-54660000D03*
X58827500Y-54660000D03*
D29*
X66572500Y-63125000D03*
X68222500Y-63125000D03*
D32*
X59000000Y-44000000D03*
D27*
X59450000Y-64400000D03*
D28*
X56950000Y-64400000D03*
D23*
X85600000Y-62000000D03*
X85600000Y-60000000D03*
D24*
X85600000Y-58000000D03*
D31*
X87000000Y-97149998D03*
D26*
X63925000Y-51275000D03*
X62350000Y-51275000D03*
D25*
X70682500Y-56545000D03*
X70682500Y-58095000D03*
D22*
X64392500Y-66115000D03*
X62742500Y-66115000D03*
X68222500Y-61665000D03*
X66572500Y-61665000D03*
D16*
X63105000Y-52825000D03*
X63105000Y-54475000D03*
D18*
X66622500Y-64655000D03*
X68172500Y-64655000D03*
D15*
X58312500Y-59635000D03*
X58312500Y-57735002D03*
D13*
X79305000Y-66500000D03*
X81204998Y-66500000D03*
D32*
X59000000Y-98000000D03*
D13*
X79270001Y-51680000D03*
X81169999Y-51680000D03*
D17*
X61982500Y-59475000D03*
X61982500Y-57925000D03*
D15*
X56352500Y-59635000D03*
X56352500Y-57735002D03*
D14*
X86500000Y-68500000D03*
D22*
X69292500Y-56565000D03*
X67642500Y-56565000D03*
D19*
X64562500Y-56955000D03*
X65062500Y-56955000D03*
X65562500Y-56955000D03*
X66062500Y-56955000D03*
D20*
X66512500Y-57755000D03*
D21*
X66112500Y-58405000D03*
D20*
X66512500Y-59055000D03*
D19*
X66062500Y-59855000D03*
X65562500Y-59855000D03*
X65062500Y-59855000D03*
X64562500Y-59855000D03*
D21*
X64512500Y-59055000D03*
X64512500Y-57755000D03*
D18*
X62692500Y-61395000D03*
X64242500Y-61395000D03*
D16*
X67137500Y-52820000D03*
X67137500Y-54470000D03*
D10*
X81300000Y-60000000D03*
X74061000Y-60000000D03*
D31*
X87000000Y-44850000D03*
X55000000Y-97149998D03*
D11*
X89400000Y-60000000D03*
D12*
X89400000Y-57460000D03*
D11*
X52500000Y-67620000D03*
D12*
X52500000Y-65080000D03*
D11*
X89400000Y-67620000D03*
D12*
X89400000Y-65080000D03*
D11*
X86860001Y-52380000D03*
D12*
X89400001Y-52380000D03*
D11*
X52500000Y-54920000D03*
D12*
X52500000Y-52380000D03*
D33*
X61837500Y-73912500D03*
D34*
X84700000Y-86800000D03*
X84700000Y-88700000D03*
X88200000Y-83200000D03*
D33*
X57950000Y-73850000D03*
X82150000Y-89500000D03*
D34*
X84200000Y-78100000D03*
X87400000Y-79800000D03*
X86500000Y-89100000D03*
X87400000Y-78300000D03*
X84700000Y-90800000D03*
X82425000Y-86925000D03*
X83700000Y-82000000D03*
X86500000Y-87100000D03*
X87800000Y-85000000D03*
X56800000Y-78900000D03*
X59800000Y-78150000D03*
X55100000Y-88900000D03*
D33*
X64350000Y-84950000D03*
X64087500Y-75450000D03*
D34*
X58000000Y-78900000D03*
D33*
X61450000Y-76650000D03*
D34*
X52700000Y-80800000D03*
X54400000Y-79600000D03*
D35*
X64800000Y-80125000D03*
D34*
X59200000Y-78900000D03*
X62850000Y-78900000D03*
X54600000Y-85100000D03*
X81050000Y-86925000D03*
D33*
X68537500Y-87700000D03*
D34*
X61600000Y-78900000D03*
X56200000Y-78150000D03*
D35*
X64075000Y-80125000D03*
D34*
X62300000Y-78150000D03*
X57300000Y-80200000D03*
D33*
X65787500Y-77837500D03*
D34*
X59250000Y-80200000D03*
X82400000Y-74800000D03*
X81100000Y-77100000D03*
D33*
X68237500Y-77050000D03*
D34*
X58600000Y-78150000D03*
X60400000Y-78900000D03*
X54200000Y-90500000D03*
X56000000Y-90500000D03*
X82400000Y-77100000D03*
X63150000Y-79850000D03*
X77400000Y-76050000D03*
X65650000Y-90500000D03*
X62050000Y-90500000D03*
X71600000Y-88500000D03*
X69600000Y-73250000D03*
X87100000Y-76400000D03*
X56600000Y-76400000D03*
X71825000Y-74650000D03*
X68437500Y-82800000D03*
X74625000Y-74650000D03*
X71150000Y-76800000D03*
X67687500Y-83950000D03*
X58300000Y-82900000D03*
X89900000Y-76400000D03*
X56900000Y-73100000D03*
X77400000Y-73250000D03*
X77250000Y-88500000D03*
X76050000Y-88500000D03*
X63250000Y-90500000D03*
X61000000Y-78150000D03*
X61200000Y-80200000D03*
X72800000Y-90500000D03*
X54800000Y-76400000D03*
X57400000Y-78150000D03*
X73275000Y-76050000D03*
X71600000Y-90500000D03*
X66850000Y-90500000D03*
X55700000Y-82900000D03*
X56600000Y-75000000D03*
X63175000Y-81250000D03*
X72800000Y-88500000D03*
X55400000Y-75000000D03*
X84700000Y-76400000D03*
X77250000Y-90500000D03*
X73275000Y-73250000D03*
X60800000Y-83400000D03*
X67200000Y-73250000D03*
X67200000Y-81850000D03*
X54200000Y-75000000D03*
X84600000Y-74100000D03*
X61600000Y-82400000D03*
X76050000Y-90500000D03*
X59250000Y-88650000D03*
X61050000Y-84600000D03*
X63175000Y-82150000D03*
X56600000Y-53000000D03*
X67200000Y-51250000D03*
X60800000Y-61400000D03*
X63175000Y-60150000D03*
X61050000Y-62600000D03*
X59250000Y-66650000D03*
X84700000Y-54400000D03*
X76050000Y-68500000D03*
X84600000Y-52100000D03*
X55400000Y-53000000D03*
X54200000Y-53000000D03*
X67200000Y-59850000D03*
X72800000Y-66500000D03*
X73275000Y-51250000D03*
X77250000Y-68500000D03*
X63175000Y-59250000D03*
X74625000Y-52650000D03*
X71150000Y-54800000D03*
X63250000Y-68500000D03*
X89900000Y-54400000D03*
X73275000Y-54050000D03*
X77250000Y-66500000D03*
X68437500Y-60800000D03*
X54800000Y-54400000D03*
X71825000Y-52650000D03*
X76050000Y-66500000D03*
X56900000Y-51100000D03*
X58300000Y-60900000D03*
X87100000Y-54400000D03*
X55700000Y-60900000D03*
X67687500Y-61950000D03*
X77400000Y-54050000D03*
X77400000Y-51250000D03*
X56600000Y-54400000D03*
X65650000Y-68500000D03*
X71600000Y-66500000D03*
X72800000Y-68500000D03*
X69600000Y-51250000D03*
X62050000Y-68500000D03*
X71600000Y-68500000D03*
X66850000Y-68500000D03*
X63150000Y-57850000D03*
X61200000Y-58200000D03*
X57400000Y-56150000D03*
X61000000Y-56150000D03*
X60400000Y-56900000D03*
X54600000Y-63100000D03*
X59250000Y-58200000D03*
X61600000Y-56900000D03*
X56000000Y-68500000D03*
X58600000Y-56150000D03*
X62850000Y-56900000D03*
X59200000Y-56900000D03*
X56800000Y-56900000D03*
D35*
X64800000Y-58125000D03*
D34*
X52700000Y-58800000D03*
X59800000Y-56150000D03*
X62300000Y-56150000D03*
X56200000Y-56150000D03*
X54200000Y-68500000D03*
X57300000Y-58200000D03*
X58000000Y-56900000D03*
X54400000Y-57600000D03*
D35*
X64075000Y-58125000D03*
D34*
X55100000Y-66900000D03*
D33*
X61450000Y-54650000D03*
X65787500Y-55837500D03*
X64350000Y-62950000D03*
X64087500Y-53450000D03*
X68237500Y-55050000D03*
D34*
X82400000Y-55100000D03*
X81100000Y-55100000D03*
X82400000Y-52800000D03*
D33*
X68537500Y-65700000D03*
D34*
X81050000Y-64925000D03*
X83700000Y-60000000D03*
X82425000Y-64925000D03*
D33*
X82150000Y-67500000D03*
X61837500Y-51912500D03*
X57950000Y-51850000D03*
D34*
X87400000Y-57800000D03*
X88200000Y-61200000D03*
X87400000Y-56300000D03*
X84200000Y-56100000D03*
X87800000Y-63000000D03*
X84700000Y-64800000D03*
X84700000Y-68800000D03*
X86500000Y-67100000D03*
X86500000Y-65100000D03*
X84700000Y-66700000D03*
X61600000Y-60400000D03*
D36*
X62350000Y-73275000D02*
X62350000Y-73400000D01*
D37*
X62350000Y-73400000D02*
X61837500Y-73912500D01*
X57950000Y-73850000D02*
X58525000Y-73275000D01*
D36*
X58525000Y-73275000D02*
X58812500Y-73275000D01*
D37*
X65187500Y-82887437D02*
X65187500Y-85900000D01*
D38*
X66837500Y-83300000D02*
X66837500Y-83350000D01*
D36*
X66622500Y-86655000D02*
X66622500Y-85135000D01*
X60462500Y-73631739D02*
X63245000Y-76414239D01*
D38*
X66587500Y-83600000D02*
X66587500Y-83650000D01*
X66062500Y-81855000D02*
X66062500Y-82525000D01*
D37*
X65562500Y-81855000D02*
X65562500Y-82626041D01*
X65062500Y-82762437D02*
X65187500Y-82887437D01*
D36*
X63245000Y-76475000D02*
X64562500Y-77792500D01*
D37*
X65562500Y-82626041D02*
X65687500Y-82751041D01*
X65062500Y-81855000D02*
X65062500Y-82762437D01*
D36*
X60462500Y-73275000D02*
X60462500Y-73631739D01*
D37*
X65687500Y-86800000D02*
X64387500Y-88100000D01*
X68787500Y-74820000D02*
X67137500Y-76470000D01*
X67062500Y-76395000D02*
X67062500Y-76385000D01*
X65187500Y-85900000D02*
X64437500Y-86650000D01*
X69037500Y-74820000D02*
X68787500Y-74820000D01*
X65062500Y-76645000D02*
X65232500Y-76475000D01*
D36*
X67137500Y-77672500D02*
X66062500Y-78747500D01*
X67137500Y-76470000D02*
X67137500Y-77672500D01*
X66062500Y-78747500D02*
X66062500Y-78955000D01*
X63245000Y-76414239D02*
X63245000Y-76475000D01*
D37*
X67642500Y-78565000D02*
X67642500Y-78625000D01*
D38*
X66837500Y-83350000D02*
X66587500Y-83600000D01*
D37*
X67642500Y-78625000D02*
X66512500Y-79755000D01*
D36*
X66622500Y-85135000D02*
X66587500Y-85100000D01*
D37*
X65687500Y-82751041D02*
X65687500Y-86800000D01*
X67137500Y-76470000D02*
X67062500Y-76395000D01*
D36*
X64562500Y-77792500D02*
X64562500Y-78955000D01*
D37*
X65062500Y-78955000D02*
X65062500Y-76645000D01*
D38*
X66062500Y-82525000D02*
X66837500Y-83300000D01*
D37*
X63105000Y-76475000D02*
X63245000Y-76475000D01*
D39*
X68187500Y-86650000D02*
X68537500Y-87000000D01*
D36*
X66572500Y-85135000D02*
X66587500Y-85150000D01*
X66718750Y-80350000D02*
X66167500Y-80350000D01*
D39*
X68537500Y-87000000D02*
X68537500Y-87700000D01*
X68222500Y-86615000D02*
X68187500Y-86650000D01*
D36*
X66572500Y-83665000D02*
X66572500Y-85135000D01*
D39*
X68222500Y-85125000D02*
X68222500Y-86615000D01*
X63925000Y-74005000D02*
X63105000Y-74825000D01*
D40*
X70622500Y-78565000D02*
X70637500Y-78550000D01*
X64237500Y-84800000D02*
X64387500Y-84950000D01*
D36*
X68817500Y-76470000D02*
X69037500Y-76470000D01*
D39*
X64350000Y-84950000D02*
X64350000Y-85047500D01*
X62742500Y-88115000D02*
X62742500Y-86655000D01*
D37*
X61450000Y-76650000D02*
X61130000Y-76650000D01*
D36*
X65787500Y-77837500D02*
X65562500Y-78062500D01*
D39*
X63925000Y-73275000D02*
X63925000Y-74005000D01*
D36*
X63105000Y-74825000D02*
X63462500Y-74825000D01*
D40*
X64242500Y-83395000D02*
X64237500Y-83400000D01*
D39*
X64187500Y-84845000D02*
X64187500Y-85155000D01*
D36*
X63462500Y-74825000D02*
X64087500Y-75450000D01*
D37*
X64562500Y-81855000D02*
X64562500Y-83045000D01*
D39*
X66718750Y-80350000D02*
X67681250Y-80350000D01*
D41*
X69437500Y-78500000D02*
X70637500Y-78500000D01*
D39*
X64350000Y-85047500D02*
X62742500Y-86655000D01*
D36*
X68237500Y-77050000D02*
X68817500Y-76470000D01*
X66167500Y-80350000D02*
X66112500Y-80405000D01*
D37*
X64562500Y-83045000D02*
X64212500Y-83395000D01*
D40*
X64237500Y-83400000D02*
X64237500Y-84800000D01*
D39*
X58827500Y-76660000D02*
X58827500Y-77960000D01*
X61440000Y-76660000D02*
X60477500Y-76660000D01*
D40*
X60422500Y-75050000D02*
X60422500Y-76605000D01*
D36*
X65562500Y-78062500D02*
X65562500Y-78955000D01*
D40*
X60422500Y-76605000D02*
X60477500Y-76660000D01*
D39*
X61450000Y-76650000D02*
X61440000Y-76660000D01*
X58827500Y-54660000D02*
X58827500Y-55960000D01*
D40*
X60422500Y-53050000D02*
X60422500Y-54605000D01*
D39*
X61440000Y-54660000D02*
X60477500Y-54660000D01*
D40*
X60422500Y-54605000D02*
X60477500Y-54660000D01*
D36*
X65562500Y-56062500D02*
X65562500Y-56955000D01*
D39*
X61450000Y-54650000D02*
X61440000Y-54660000D01*
D37*
X61450000Y-54650000D02*
X61130000Y-54650000D01*
D36*
X65787500Y-55837500D02*
X65562500Y-56062500D01*
D40*
X64237500Y-62800000D02*
X64387500Y-62950000D01*
D36*
X68237500Y-55050000D02*
X68817500Y-54470000D01*
D39*
X64350000Y-63047500D02*
X62742500Y-64655000D01*
D36*
X63462500Y-52825000D02*
X64087500Y-53450000D01*
D39*
X64187500Y-62845000D02*
X64187500Y-63155000D01*
D40*
X64237500Y-61400000D02*
X64237500Y-62800000D01*
D39*
X63925000Y-52005000D02*
X63105000Y-52825000D01*
D40*
X64242500Y-61395000D02*
X64237500Y-61400000D01*
D37*
X64562500Y-59855000D02*
X64562500Y-61045000D01*
D36*
X68817500Y-54470000D02*
X69037500Y-54470000D01*
D37*
X64562500Y-61045000D02*
X64212500Y-61395000D01*
D36*
X63105000Y-52825000D02*
X63462500Y-52825000D01*
D39*
X63925000Y-51275000D02*
X63925000Y-52005000D01*
X62742500Y-66115000D02*
X62742500Y-64655000D01*
X64350000Y-62950000D02*
X64350000Y-63047500D01*
D41*
X69437500Y-56500000D02*
X70637500Y-56500000D01*
D40*
X70622500Y-56565000D02*
X70637500Y-56550000D01*
D36*
X66167500Y-58350000D02*
X66112500Y-58405000D01*
D39*
X66718750Y-58350000D02*
X67681250Y-58350000D01*
D36*
X66718750Y-58350000D02*
X66167500Y-58350000D01*
D39*
X68187500Y-64650000D02*
X68537500Y-65000000D01*
X68537500Y-65000000D02*
X68537500Y-65700000D01*
X68222500Y-64615000D02*
X68187500Y-64650000D01*
X68222500Y-63125000D02*
X68222500Y-64615000D01*
D36*
X66572500Y-63135000D02*
X66587500Y-63150000D01*
X66572500Y-61665000D02*
X66572500Y-63135000D01*
D38*
X66062500Y-59855000D02*
X66062500Y-60525000D01*
X66837500Y-61350000D02*
X66587500Y-61600000D01*
X66062500Y-60525000D02*
X66837500Y-61300000D01*
X66587500Y-61600000D02*
X66587500Y-61650000D01*
D36*
X66622500Y-64655000D02*
X66622500Y-63135000D01*
X66622500Y-63135000D02*
X66587500Y-63100000D01*
D38*
X66837500Y-61300000D02*
X66837500Y-61350000D01*
D37*
X65187500Y-63900000D02*
X64437500Y-64650000D01*
X65187500Y-60887437D02*
X65187500Y-63900000D01*
X65062500Y-59855000D02*
X65062500Y-60762437D01*
X65062500Y-60762437D02*
X65187500Y-60887437D01*
X65562500Y-60626041D02*
X65687500Y-60751041D01*
X65687500Y-60751041D02*
X65687500Y-64800000D01*
X65562500Y-59855000D02*
X65562500Y-60626041D01*
X65687500Y-64800000D02*
X64387500Y-66100000D01*
X65062500Y-54645000D02*
X65232500Y-54475000D01*
X65062500Y-56955000D02*
X65062500Y-54645000D01*
X67642500Y-56565000D02*
X67642500Y-56625000D01*
X67642500Y-56625000D02*
X66512500Y-57755000D01*
D36*
X60462500Y-51275000D02*
X60462500Y-51631739D01*
D37*
X63105000Y-54475000D02*
X63245000Y-54475000D01*
D36*
X63245000Y-54475000D02*
X64562500Y-55792500D01*
X60462500Y-51631739D02*
X63245000Y-54414239D01*
X64562500Y-55792500D02*
X64562500Y-56955000D01*
X63245000Y-54414239D02*
X63245000Y-54475000D01*
X66062500Y-56747500D02*
X66062500Y-56955000D01*
X67137500Y-54470000D02*
X67137500Y-55672500D01*
D37*
X67137500Y-54470000D02*
X67062500Y-54395000D01*
D36*
X67137500Y-55672500D02*
X66062500Y-56747500D01*
D37*
X69037500Y-52820000D02*
X68787500Y-52820000D01*
X67062500Y-54395000D02*
X67062500Y-54385000D01*
X68787500Y-52820000D02*
X67137500Y-54470000D01*
X62350000Y-51400000D02*
X61837500Y-51912500D01*
X57950000Y-51850000D02*
X58525000Y-51275000D01*
D36*
X62350000Y-51275000D02*
X62350000Y-51400000D01*
X58525000Y-51275000D02*
X58812500Y-51275000D01*
G04 #@! TA.AperFunction,Conductor*
G36*
X80043039Y-50520185D02*
G01*
X80088794Y-50572989D01*
X80100000Y-50624500D01*
X80100000Y-54848638D01*
X80080315Y-54915677D01*
X80063681Y-54936319D01*
X79886319Y-55113681D01*
X79824996Y-55147166D01*
X79798638Y-55150000D01*
X73649999Y-55150000D01*
X71686319Y-57113681D01*
X71624996Y-57147166D01*
X71598638Y-57150000D01*
X71418780Y-57150000D01*
X71351741Y-57130315D01*
X71305986Y-57077511D01*
X71296042Y-57008353D01*
X71308295Y-56969706D01*
X71318659Y-56949364D01*
X71342219Y-56903126D01*
X71342219Y-56903124D01*
X71342220Y-56903123D01*
X71358000Y-56803493D01*
X71358000Y-56286506D01*
X71342220Y-56186878D01*
X71342219Y-56186876D01*
X71342219Y-56186874D01*
X71281028Y-56066780D01*
X71281026Y-56066778D01*
X71281023Y-56066774D01*
X71185725Y-55971476D01*
X71185722Y-55971474D01*
X71185720Y-55971472D01*
X71104100Y-55929884D01*
X71065623Y-55910279D01*
X71027176Y-55904190D01*
X70977688Y-55884822D01*
X70969308Y-55879223D01*
X70841832Y-55826421D01*
X70841822Y-55826418D01*
X70706495Y-55799500D01*
X70706493Y-55799500D01*
X69368507Y-55799500D01*
X69368505Y-55799500D01*
X69233178Y-55826418D01*
X69233174Y-55826419D01*
X69199013Y-55840569D01*
X69149223Y-55849985D01*
X68524789Y-55838203D01*
X68458133Y-55817257D01*
X68413382Y-55763599D01*
X68404745Y-55694266D01*
X68434964Y-55631269D01*
X68479674Y-55599664D01*
X68540341Y-55574536D01*
X68665782Y-55478282D01*
X68762036Y-55352841D01*
X68822544Y-55206762D01*
X68826289Y-55178313D01*
X68854555Y-55114417D01*
X68912880Y-55075946D01*
X68949228Y-55070499D01*
X69344017Y-55070499D01*
X69344018Y-55070499D01*
X69437804Y-55055646D01*
X69550842Y-54998050D01*
X69640550Y-54908342D01*
X69698146Y-54795304D01*
X69698146Y-54795302D01*
X69698147Y-54795301D01*
X69712999Y-54701524D01*
X69713000Y-54701519D01*
X69712999Y-54238482D01*
X69701526Y-54166037D01*
X69700000Y-54146641D01*
X69700000Y-53147728D01*
X69701624Y-53147728D01*
X69700927Y-53127744D01*
X69712999Y-53051523D01*
X69713000Y-53051519D01*
X69712999Y-52588482D01*
X69698146Y-52494696D01*
X69640550Y-52381658D01*
X69640546Y-52381654D01*
X69640545Y-52381652D01*
X69550847Y-52291954D01*
X69550844Y-52291952D01*
X69550842Y-52291950D01*
X69470303Y-52250913D01*
X69437801Y-52234352D01*
X69344024Y-52219500D01*
X68730982Y-52219500D01*
X68650019Y-52232323D01*
X68637196Y-52234354D01*
X68524158Y-52291950D01*
X68524157Y-52291951D01*
X68524152Y-52291954D01*
X68434454Y-52381652D01*
X68434451Y-52381657D01*
X68434450Y-52381658D01*
X68415251Y-52419337D01*
X68376852Y-52494698D01*
X68362000Y-52588475D01*
X68362000Y-52733810D01*
X68342315Y-52800849D01*
X68325681Y-52821491D01*
X67937269Y-53209902D01*
X67875946Y-53243387D01*
X67852688Y-53246182D01*
X67700000Y-53249999D01*
X67700000Y-53395810D01*
X67680315Y-53462849D01*
X67663681Y-53483491D01*
X67313990Y-53833181D01*
X67252667Y-53866666D01*
X67226309Y-53869500D01*
X66830982Y-53869500D01*
X66750019Y-53882323D01*
X66737196Y-53884354D01*
X66624158Y-53941950D01*
X66624157Y-53941951D01*
X66624152Y-53941954D01*
X66534454Y-54031652D01*
X66534451Y-54031657D01*
X66534450Y-54031658D01*
X66522209Y-54055682D01*
X66476852Y-54144698D01*
X66462000Y-54238475D01*
X66462000Y-54701517D01*
X66472792Y-54769657D01*
X66476854Y-54795304D01*
X66534450Y-54908342D01*
X66534452Y-54908344D01*
X66534454Y-54908347D01*
X66624152Y-54998045D01*
X66624156Y-54998048D01*
X66624158Y-54998050D01*
X66719297Y-55046526D01*
X66770091Y-55094499D01*
X66787000Y-55157009D01*
X66787000Y-55475955D01*
X66767315Y-55542994D01*
X66750681Y-55563636D01*
X66579575Y-55734742D01*
X66518252Y-55768227D01*
X66448560Y-55763243D01*
X66392627Y-55721371D01*
X66376389Y-55687942D01*
X66375654Y-55688247D01*
X66338962Y-55599664D01*
X66312036Y-55534659D01*
X66215782Y-55409218D01*
X66090341Y-55312964D01*
X65944262Y-55252456D01*
X65921196Y-55249419D01*
X65793529Y-55232611D01*
X65729633Y-55204344D01*
X65691162Y-55146019D01*
X65690331Y-55076155D01*
X65727403Y-55016932D01*
X65738417Y-55009426D01*
X65737950Y-55008783D01*
X65745835Y-55003053D01*
X65745842Y-55003050D01*
X65835550Y-54913342D01*
X65893146Y-54800304D01*
X65893146Y-54800302D01*
X65893147Y-54800301D01*
X65907999Y-54706524D01*
X65908000Y-54706519D01*
X65907999Y-54243482D01*
X65893146Y-54149696D01*
X65835550Y-54036658D01*
X65835546Y-54036654D01*
X65835545Y-54036652D01*
X65745847Y-53946954D01*
X65745844Y-53946952D01*
X65745842Y-53946950D01*
X65632804Y-53889354D01*
X65632802Y-53889353D01*
X65632801Y-53889353D01*
X65604600Y-53884886D01*
X65541466Y-53854956D01*
X65504536Y-53795644D01*
X65500000Y-53762413D01*
X65500000Y-53400000D01*
X64795344Y-53400000D01*
X64728305Y-53380315D01*
X64682550Y-53327511D01*
X64674939Y-53301009D01*
X64674647Y-53301088D01*
X64672544Y-53293243D01*
X64672544Y-53293238D01*
X64612036Y-53147159D01*
X64515782Y-53021718D01*
X64390341Y-52925464D01*
X64244262Y-52864956D01*
X64223851Y-52862268D01*
X64137082Y-52850845D01*
X64073186Y-52822578D01*
X64065587Y-52815587D01*
X64037681Y-52787681D01*
X64004196Y-52726358D01*
X64009180Y-52656666D01*
X64037681Y-52612319D01*
X64155303Y-52494697D01*
X64350000Y-52300000D01*
X64350000Y-51969262D01*
X64369685Y-51902223D01*
X64387920Y-51883128D01*
X64386350Y-51881558D01*
X64393248Y-51874659D01*
X64393251Y-51874658D01*
X64487158Y-51780751D01*
X64547451Y-51662420D01*
X64547451Y-51662418D01*
X64547452Y-51662417D01*
X64563000Y-51564251D01*
X64563000Y-50985748D01*
X64547452Y-50887582D01*
X64547451Y-50887580D01*
X64487158Y-50769249D01*
X64487154Y-50769245D01*
X64487153Y-50769243D01*
X64430091Y-50712181D01*
X64396606Y-50650858D01*
X64401590Y-50581166D01*
X64443462Y-50525233D01*
X64508926Y-50500816D01*
X64517772Y-50500500D01*
X79976000Y-50500500D01*
X80043039Y-50520185D01*
G37*
G04 #@! TD.AperFunction*
G04 #@! TA.AperFunction,Conductor*
G36*
X64680539Y-64319685D02*
G01*
X64726294Y-64372489D01*
X64737500Y-64424000D01*
X64737500Y-65238311D01*
X64717815Y-65305350D01*
X64701184Y-65325988D01*
X64627398Y-65399774D01*
X64623991Y-65403182D01*
X64562667Y-65436666D01*
X64536310Y-65439500D01*
X64160982Y-65439500D01*
X64080019Y-65452323D01*
X64067196Y-65454354D01*
X63954158Y-65511950D01*
X63954157Y-65511951D01*
X63954152Y-65511954D01*
X63864454Y-65601652D01*
X63864451Y-65601657D01*
X63806852Y-65714698D01*
X63792000Y-65808475D01*
X63792001Y-66376000D01*
X63772317Y-66443039D01*
X63719513Y-66488794D01*
X63668001Y-66500000D01*
X63561500Y-66500000D01*
X63494461Y-66480315D01*
X63448706Y-66427511D01*
X63437500Y-66376000D01*
X63437500Y-64861057D01*
X63457185Y-64794018D01*
X63485896Y-64762772D01*
X64054070Y-64325715D01*
X64119209Y-64300442D01*
X64129674Y-64300000D01*
X64613500Y-64300000D01*
X64680539Y-64319685D01*
G37*
G04 #@! TD.AperFunction*
G04 #@! TA.AperFunction,Conductor*
G36*
X57943039Y-50520185D02*
G01*
X57988794Y-50572989D01*
X58000000Y-50624500D01*
X58000000Y-51128990D01*
X57980315Y-51196029D01*
X57927511Y-51241784D01*
X57892186Y-51251929D01*
X57793238Y-51264956D01*
X57793237Y-51264956D01*
X57647160Y-51325463D01*
X57521718Y-51421718D01*
X57425463Y-51547160D01*
X57364956Y-51693237D01*
X57364955Y-51693239D01*
X57344318Y-51849998D01*
X57344318Y-51850001D01*
X57364955Y-52006760D01*
X57364956Y-52006762D01*
X57425464Y-52152841D01*
X57521718Y-52278282D01*
X57647159Y-52374536D01*
X57793238Y-52435044D01*
X57871619Y-52445363D01*
X57949999Y-52455682D01*
X57950000Y-52455682D01*
X57950001Y-52455682D01*
X58002254Y-52448802D01*
X58106762Y-52435044D01*
X58144574Y-52419381D01*
X58168579Y-52409439D01*
X58216031Y-52400000D01*
X59276000Y-52400000D01*
X59343039Y-52419685D01*
X59388794Y-52472489D01*
X59400000Y-52524000D01*
X59400000Y-53576000D01*
X59380315Y-53643039D01*
X59327511Y-53688794D01*
X59276000Y-53700000D01*
X58000000Y-53700000D01*
X58000000Y-55076000D01*
X57980315Y-55143039D01*
X57927511Y-55188794D01*
X57876000Y-55200000D01*
X54599999Y-55200000D01*
X53336319Y-56463681D01*
X53274996Y-56497166D01*
X53248638Y-56500000D01*
X51624500Y-56500000D01*
X51557461Y-56480315D01*
X51511706Y-56427511D01*
X51500500Y-56376000D01*
X51500500Y-51500000D01*
X54994353Y-51500000D01*
X55014834Y-51642456D01*
X55074622Y-51773371D01*
X55074623Y-51773373D01*
X55168872Y-51882143D01*
X55289947Y-51959953D01*
X55289950Y-51959954D01*
X55289949Y-51959954D01*
X55428036Y-52000499D01*
X55428038Y-52000500D01*
X55428039Y-52000500D01*
X55571962Y-52000500D01*
X55571962Y-52000499D01*
X55710053Y-51959953D01*
X55831128Y-51882143D01*
X55925377Y-51773373D01*
X55985165Y-51642457D01*
X56005647Y-51500000D01*
X55985165Y-51357543D01*
X55925377Y-51226627D01*
X55831128Y-51117857D01*
X55710053Y-51040047D01*
X55710051Y-51040046D01*
X55710049Y-51040045D01*
X55710050Y-51040045D01*
X55571963Y-50999500D01*
X55571961Y-50999500D01*
X55428039Y-50999500D01*
X55428036Y-50999500D01*
X55289949Y-51040045D01*
X55168873Y-51117856D01*
X55074623Y-51226626D01*
X55074622Y-51226628D01*
X55014834Y-51357543D01*
X54994353Y-51500000D01*
X51500500Y-51500000D01*
X51500500Y-50624500D01*
X51520185Y-50557461D01*
X51572989Y-50511706D01*
X51624500Y-50500500D01*
X57876000Y-50500500D01*
X57943039Y-50520185D01*
G37*
G04 #@! TD.AperFunction*
G04 #@! TA.AperFunction,Conductor*
G36*
X75631166Y-55375185D02*
G01*
X75651819Y-55391829D01*
X76463692Y-56203896D01*
X76497169Y-56265223D01*
X76500000Y-56291567D01*
X76500000Y-63431716D01*
X76480315Y-63498755D01*
X76463407Y-63519671D01*
X75317488Y-64658455D01*
X75256061Y-64691748D01*
X75230081Y-64694500D01*
X69181580Y-64694500D01*
X69114541Y-64674815D01*
X69068786Y-64622011D01*
X69057580Y-64570423D01*
X69058245Y-63498755D01*
X69060000Y-60670000D01*
X66973870Y-58586327D01*
X66940349Y-58525023D01*
X66937500Y-58498594D01*
X66937500Y-58301362D01*
X66957185Y-58234323D01*
X66973819Y-58213681D01*
X67801181Y-57386319D01*
X67862504Y-57352834D01*
X67888862Y-57350000D01*
X71371658Y-57350000D01*
X71389305Y-57351262D01*
X71392745Y-57351756D01*
X71418780Y-57355500D01*
X71418781Y-57355500D01*
X71598639Y-57355500D01*
X71601180Y-57355363D01*
X71620607Y-57354322D01*
X71620614Y-57354321D01*
X71620618Y-57354321D01*
X71653021Y-57350837D01*
X71653083Y-57351421D01*
X71666883Y-57350000D01*
X71787500Y-57350000D01*
X73745681Y-55391819D01*
X73807004Y-55358334D01*
X73833362Y-55355500D01*
X75564127Y-55355500D01*
X75631166Y-55375185D01*
G37*
G04 #@! TD.AperFunction*
G04 #@! TA.AperFunction,Conductor*
G36*
X63515677Y-55519685D02*
G01*
X63536319Y-55536319D01*
X64063681Y-56063681D01*
X64097166Y-56125004D01*
X64100000Y-56151362D01*
X64100000Y-57200000D01*
X64213443Y-57313443D01*
X64246928Y-57374766D01*
X64247379Y-57376930D01*
X64248632Y-57383230D01*
X64292947Y-57449552D01*
X64359269Y-57493867D01*
X64359270Y-57493868D01*
X64417747Y-57505499D01*
X64417750Y-57505500D01*
X64417752Y-57505500D01*
X64707249Y-57505500D01*
X64722918Y-57502383D01*
X64747111Y-57500000D01*
X64877889Y-57500000D01*
X64902082Y-57502383D01*
X64917751Y-57505500D01*
X65076000Y-57505500D01*
X65143039Y-57525185D01*
X65188794Y-57577989D01*
X65200000Y-57629500D01*
X65200000Y-58099693D01*
X65180315Y-58166732D01*
X65179103Y-58168582D01*
X65173633Y-58176768D01*
X65173631Y-58176771D01*
X65162000Y-58235246D01*
X65161714Y-58238154D01*
X65161138Y-58239578D01*
X65160811Y-58241226D01*
X65160498Y-58241163D01*
X65135553Y-58302942D01*
X65078518Y-58343300D01*
X65038311Y-58350000D01*
X63049999Y-58350000D01*
X62936319Y-58463681D01*
X62874996Y-58497166D01*
X62848638Y-58500000D01*
X55099999Y-58500000D01*
X53800000Y-59799999D01*
X53800000Y-59800000D01*
X53800000Y-60800000D01*
X55000000Y-62000000D01*
X57248638Y-62000000D01*
X57315677Y-62019685D01*
X57336319Y-62036319D01*
X57863681Y-62563681D01*
X57897166Y-62625004D01*
X57900000Y-62651362D01*
X57900000Y-65048638D01*
X57880315Y-65115677D01*
X57863681Y-65136319D01*
X57200000Y-65799999D01*
X57200000Y-69375500D01*
X57180315Y-69442539D01*
X57127511Y-69488294D01*
X57076000Y-69499500D01*
X51624500Y-69499500D01*
X51557461Y-69479815D01*
X51511706Y-69427011D01*
X51500500Y-69375500D01*
X51500500Y-56924000D01*
X51520185Y-56856961D01*
X51572989Y-56811206D01*
X51624500Y-56800000D01*
X53400000Y-56800000D01*
X54663681Y-55536319D01*
X54725004Y-55502834D01*
X54751362Y-55500000D01*
X63448638Y-55500000D01*
X63515677Y-55519685D01*
G37*
G04 #@! TD.AperFunction*
G04 #@! TA.AperFunction,Conductor*
G36*
X65115677Y-58619685D02*
G01*
X65136319Y-58636319D01*
X65250000Y-58750000D01*
X65302889Y-58750000D01*
X65327082Y-58752383D01*
X65342751Y-58755500D01*
X66791638Y-58755500D01*
X66858677Y-58775185D01*
X66879319Y-58791819D01*
X68701181Y-60613681D01*
X68734666Y-60675004D01*
X68737500Y-60701362D01*
X68737500Y-62126000D01*
X68717815Y-62193039D01*
X68665011Y-62238794D01*
X68613500Y-62250000D01*
X67511500Y-62250000D01*
X67444461Y-62230315D01*
X67398706Y-62177511D01*
X67387500Y-62126000D01*
X67387500Y-61400000D01*
X66573819Y-60586319D01*
X66540334Y-60524996D01*
X66537500Y-60498638D01*
X66537500Y-59500000D01*
X66287500Y-59250000D01*
X64150000Y-59250000D01*
X64150000Y-60198638D01*
X64130315Y-60265677D01*
X64113681Y-60286319D01*
X63450000Y-60949999D01*
X63450000Y-63098638D01*
X63430315Y-63165677D01*
X63413681Y-63186319D01*
X62836319Y-63763681D01*
X62774996Y-63797166D01*
X62748638Y-63800000D01*
X62249999Y-63800000D01*
X61900000Y-64149999D01*
X61900000Y-64150000D01*
X61900000Y-66650000D01*
X62250000Y-67000000D01*
X64850000Y-67000000D01*
X65250000Y-66600000D01*
X65250000Y-65749187D01*
X65269685Y-65682148D01*
X65286316Y-65661509D01*
X65611506Y-65336318D01*
X65672829Y-65302834D01*
X65699187Y-65300000D01*
X66205717Y-65300000D01*
X66255050Y-65311843D01*
X66255096Y-65311704D01*
X66256867Y-65312279D01*
X66262009Y-65313514D01*
X66264374Y-65314719D01*
X66264376Y-65314719D01*
X66264378Y-65314720D01*
X66364007Y-65330500D01*
X66364012Y-65330500D01*
X66880993Y-65330500D01*
X66980621Y-65314720D01*
X66980621Y-65314719D01*
X66980626Y-65314719D01*
X66982991Y-65313514D01*
X66988132Y-65312279D01*
X66989904Y-65311704D01*
X66989949Y-65311843D01*
X67039283Y-65300000D01*
X67755717Y-65300000D01*
X67805050Y-65311843D01*
X67805096Y-65311704D01*
X67806867Y-65312279D01*
X67812009Y-65313514D01*
X67814374Y-65314719D01*
X67814375Y-65314719D01*
X67814377Y-65314720D01*
X67877426Y-65324706D01*
X67940561Y-65354635D01*
X67977492Y-65413947D01*
X67976494Y-65483809D01*
X67972589Y-65494631D01*
X67952457Y-65543234D01*
X67952455Y-65543239D01*
X67931818Y-65699998D01*
X67931818Y-65700001D01*
X67952455Y-65856760D01*
X67952456Y-65856762D01*
X68012964Y-66002841D01*
X68109218Y-66128282D01*
X68234659Y-66224536D01*
X68380738Y-66285044D01*
X68459119Y-66295363D01*
X68537499Y-66305682D01*
X68537500Y-66305682D01*
X68537501Y-66305682D01*
X68589754Y-66298802D01*
X68694262Y-66285044D01*
X68840341Y-66224536D01*
X68965782Y-66128282D01*
X69062036Y-66002841D01*
X69122544Y-65856762D01*
X69143182Y-65700000D01*
X69122544Y-65543238D01*
X69062036Y-65397159D01*
X69059439Y-65390889D01*
X69050000Y-65343436D01*
X69050000Y-65024000D01*
X69069685Y-64956961D01*
X69122489Y-64911206D01*
X69174000Y-64900000D01*
X79848638Y-64900000D01*
X79915677Y-64919685D01*
X79936319Y-64936319D01*
X80113681Y-65113681D01*
X80147166Y-65175004D01*
X80150000Y-65201362D01*
X80150000Y-69375500D01*
X80130315Y-69442539D01*
X80077511Y-69488294D01*
X80026000Y-69499500D01*
X61881902Y-69499500D01*
X61880402Y-69499618D01*
X61870679Y-69500000D01*
X58129321Y-69500000D01*
X58119598Y-69499618D01*
X58118098Y-69499500D01*
X58118092Y-69499500D01*
X58065892Y-69499500D01*
X57624000Y-69499500D01*
X57556961Y-69479815D01*
X57511206Y-69427011D01*
X57500000Y-69375500D01*
X57500000Y-65902738D01*
X57519685Y-65835699D01*
X57537984Y-65813422D01*
X58175000Y-65200000D01*
X58175000Y-62500000D01*
X57400000Y-61725000D01*
X55152220Y-61725000D01*
X55085181Y-61705315D01*
X55063513Y-61687644D01*
X54085293Y-60686133D01*
X54052532Y-60624420D01*
X54050000Y-60599489D01*
X54050000Y-59951362D01*
X54069685Y-59884323D01*
X54086319Y-59863681D01*
X55113681Y-58836319D01*
X55175004Y-58802834D01*
X55201362Y-58800000D01*
X63000000Y-58800000D01*
X63163681Y-58636319D01*
X63225004Y-58602834D01*
X63251362Y-58600000D01*
X65048638Y-58600000D01*
X65115677Y-58619685D01*
G37*
G04 #@! TD.AperFunction*
G04 #@! TA.AperFunction,Conductor*
G36*
X83880402Y-50500382D02*
G01*
X83881902Y-50500500D01*
X83881908Y-50500500D01*
X83934108Y-50500500D01*
X90375500Y-50500500D01*
X90442539Y-50520185D01*
X90488294Y-50572989D01*
X90499500Y-50624500D01*
X90499500Y-55076000D01*
X90479815Y-55143039D01*
X90427011Y-55188794D01*
X90375500Y-55200000D01*
X83624000Y-55200000D01*
X83556961Y-55180315D01*
X83511206Y-55127511D01*
X83500000Y-55076000D01*
X83500000Y-51300000D01*
X82911681Y-50711681D01*
X82878196Y-50650358D01*
X82883180Y-50580666D01*
X82925052Y-50524733D01*
X82990516Y-50500316D01*
X82999362Y-50500000D01*
X83870679Y-50500000D01*
X83880402Y-50500382D01*
G37*
G04 #@! TD.AperFunction*
G04 #@! TA.AperFunction,Conductor*
G36*
X87143039Y-61159685D02*
G01*
X87188794Y-61212489D01*
X87200000Y-61264000D01*
X87200000Y-62300000D01*
X90375500Y-62300000D01*
X90442539Y-62319685D01*
X90488294Y-62372489D01*
X90499500Y-62424000D01*
X90499500Y-69375500D01*
X90479815Y-69442539D01*
X90427011Y-69488294D01*
X90375500Y-69499500D01*
X83881902Y-69499500D01*
X83880402Y-69499618D01*
X83870679Y-69500000D01*
X83624000Y-69500000D01*
X83556961Y-69480315D01*
X83511206Y-69427511D01*
X83500000Y-69376000D01*
X83500000Y-68500000D01*
X85994353Y-68500000D01*
X86014834Y-68642456D01*
X86074622Y-68773371D01*
X86074623Y-68773373D01*
X86168872Y-68882143D01*
X86289947Y-68959953D01*
X86289950Y-68959954D01*
X86289949Y-68959954D01*
X86428036Y-69000499D01*
X86428038Y-69000500D01*
X86428039Y-69000500D01*
X86571962Y-69000500D01*
X86571962Y-69000499D01*
X86710053Y-68959953D01*
X86831128Y-68882143D01*
X86925377Y-68773373D01*
X86985165Y-68642457D01*
X87005647Y-68500000D01*
X86985165Y-68357543D01*
X86925377Y-68226627D01*
X86831128Y-68117857D01*
X86710053Y-68040047D01*
X86710051Y-68040046D01*
X86710049Y-68040045D01*
X86710050Y-68040045D01*
X86571963Y-67999500D01*
X86571961Y-67999500D01*
X86428039Y-67999500D01*
X86428036Y-67999500D01*
X86289949Y-68040045D01*
X86168873Y-68117856D01*
X86074623Y-68226626D01*
X86074622Y-68226628D01*
X86014834Y-68357543D01*
X85994353Y-68500000D01*
X83500000Y-68500000D01*
X83500000Y-61264000D01*
X83519685Y-61196961D01*
X83572489Y-61151206D01*
X83624000Y-61140000D01*
X87076000Y-61140000D01*
X87143039Y-61159685D01*
G37*
G04 #@! TD.AperFunction*
G04 #@! TA.AperFunction,Conductor*
G36*
X90442539Y-55519685D02*
G01*
X90488294Y-55572489D01*
X90499500Y-55624000D01*
X90499500Y-61876000D01*
X90479815Y-61943039D01*
X90427011Y-61988794D01*
X90375500Y-62000000D01*
X87624000Y-62000000D01*
X87556961Y-61980315D01*
X87511206Y-61927511D01*
X87500000Y-61876000D01*
X87500000Y-58840000D01*
X83624000Y-58840000D01*
X83556961Y-58820315D01*
X83511206Y-58767511D01*
X83500000Y-58716000D01*
X83500000Y-55624000D01*
X83519685Y-55556961D01*
X83572489Y-55511206D01*
X83624000Y-55500000D01*
X90375500Y-55500000D01*
X90442539Y-55519685D01*
G37*
G04 #@! TD.AperFunction*
G04 #@! TA.AperFunction,Conductor*
G36*
X82415677Y-50519685D02*
G01*
X82436319Y-50536319D01*
X83163681Y-51263681D01*
X83197166Y-51325004D01*
X83200000Y-51351362D01*
X83200000Y-59110000D01*
X87076000Y-59110000D01*
X87143039Y-59129685D01*
X87188794Y-59182489D01*
X87200000Y-59234000D01*
X87200000Y-60756000D01*
X87180315Y-60823039D01*
X87127511Y-60868794D01*
X87076000Y-60880000D01*
X83200000Y-60880000D01*
X83200000Y-69376000D01*
X83180315Y-69443039D01*
X83127511Y-69488794D01*
X83076000Y-69500000D01*
X80479500Y-69500000D01*
X80412461Y-69480315D01*
X80366706Y-69427511D01*
X80355500Y-69376000D01*
X80355500Y-65201361D01*
X80354321Y-65179381D01*
X80351488Y-65153035D01*
X80343165Y-65126453D01*
X80337500Y-65089401D01*
X80337500Y-65050000D01*
X80274554Y-64987054D01*
X80262969Y-64973685D01*
X80258993Y-64968374D01*
X80258991Y-64968371D01*
X80258986Y-64968366D01*
X80258980Y-64968359D01*
X80081637Y-64791016D01*
X80078176Y-64787907D01*
X80065262Y-64776307D01*
X80065254Y-64776301D01*
X80065249Y-64776296D01*
X80062938Y-64774434D01*
X80053064Y-64765564D01*
X79173819Y-63886319D01*
X79140334Y-63824996D01*
X79137500Y-63798638D01*
X79137500Y-56301362D01*
X79157185Y-56234323D01*
X79173819Y-56213681D01*
X80337500Y-55050000D01*
X80339691Y-50623939D01*
X80359409Y-50556909D01*
X80412235Y-50511180D01*
X80463691Y-50500000D01*
X82348638Y-50500000D01*
X82415677Y-50519685D01*
G37*
G04 #@! TD.AperFunction*
G04 #@! TA.AperFunction,Conductor*
G36*
X75631166Y-77375185D02*
G01*
X75651819Y-77391829D01*
X76463692Y-78203896D01*
X76497169Y-78265223D01*
X76500000Y-78291567D01*
X76500000Y-85431716D01*
X76480315Y-85498755D01*
X76463407Y-85519671D01*
X75317488Y-86658455D01*
X75256061Y-86691748D01*
X75230081Y-86694500D01*
X69181580Y-86694500D01*
X69114541Y-86674815D01*
X69068786Y-86622011D01*
X69057580Y-86570423D01*
X69058245Y-85498755D01*
X69060000Y-82670000D01*
X66973870Y-80586327D01*
X66940349Y-80525023D01*
X66937500Y-80498594D01*
X66937500Y-80301362D01*
X66957185Y-80234323D01*
X66973819Y-80213681D01*
X67801181Y-79386319D01*
X67862504Y-79352834D01*
X67888862Y-79350000D01*
X71371658Y-79350000D01*
X71389305Y-79351262D01*
X71392745Y-79351756D01*
X71418780Y-79355500D01*
X71418781Y-79355500D01*
X71598639Y-79355500D01*
X71601180Y-79355363D01*
X71620607Y-79354322D01*
X71620614Y-79354321D01*
X71620618Y-79354321D01*
X71653021Y-79350837D01*
X71653083Y-79351421D01*
X71666883Y-79350000D01*
X71787500Y-79350000D01*
X73745681Y-77391819D01*
X73807004Y-77358334D01*
X73833362Y-77355500D01*
X75564127Y-77355500D01*
X75631166Y-77375185D01*
G37*
G04 #@! TD.AperFunction*
G04 #@! TA.AperFunction,Conductor*
G36*
X90442539Y-77519685D02*
G01*
X90488294Y-77572489D01*
X90499500Y-77624000D01*
X90499500Y-83876000D01*
X90479815Y-83943039D01*
X90427011Y-83988794D01*
X90375500Y-84000000D01*
X87624000Y-84000000D01*
X87556961Y-83980315D01*
X87511206Y-83927511D01*
X87500000Y-83876000D01*
X87500000Y-80840000D01*
X83624000Y-80840000D01*
X83556961Y-80820315D01*
X83511206Y-80767511D01*
X83500000Y-80716000D01*
X83500000Y-77624000D01*
X83519685Y-77556961D01*
X83572489Y-77511206D01*
X83624000Y-77500000D01*
X90375500Y-77500000D01*
X90442539Y-77519685D01*
G37*
G04 #@! TD.AperFunction*
G04 #@! TA.AperFunction,Conductor*
G36*
X83880402Y-72500382D02*
G01*
X83881902Y-72500500D01*
X83881908Y-72500500D01*
X83934108Y-72500500D01*
X90375500Y-72500500D01*
X90442539Y-72520185D01*
X90488294Y-72572989D01*
X90499500Y-72624500D01*
X90499500Y-77076000D01*
X90479815Y-77143039D01*
X90427011Y-77188794D01*
X90375500Y-77200000D01*
X83624000Y-77200000D01*
X83556961Y-77180315D01*
X83511206Y-77127511D01*
X83500000Y-77076000D01*
X83500000Y-73300000D01*
X82911681Y-72711681D01*
X82878196Y-72650358D01*
X82883180Y-72580666D01*
X82925052Y-72524733D01*
X82990516Y-72500316D01*
X82999362Y-72500000D01*
X83870679Y-72500000D01*
X83880402Y-72500382D01*
G37*
G04 #@! TD.AperFunction*
G04 #@! TA.AperFunction,Conductor*
G36*
X57943039Y-72520185D02*
G01*
X57988794Y-72572989D01*
X58000000Y-72624500D01*
X58000000Y-73128990D01*
X57980315Y-73196029D01*
X57927511Y-73241784D01*
X57892186Y-73251929D01*
X57793238Y-73264956D01*
X57793237Y-73264956D01*
X57647160Y-73325463D01*
X57521718Y-73421718D01*
X57425463Y-73547160D01*
X57364956Y-73693237D01*
X57364955Y-73693239D01*
X57344318Y-73849998D01*
X57344318Y-73850001D01*
X57364955Y-74006760D01*
X57364956Y-74006762D01*
X57425464Y-74152841D01*
X57521718Y-74278282D01*
X57647159Y-74374536D01*
X57793238Y-74435044D01*
X57871619Y-74445363D01*
X57949999Y-74455682D01*
X57950000Y-74455682D01*
X57950001Y-74455682D01*
X58002254Y-74448802D01*
X58106762Y-74435044D01*
X58144574Y-74419381D01*
X58168579Y-74409439D01*
X58216031Y-74400000D01*
X59276000Y-74400000D01*
X59343039Y-74419685D01*
X59388794Y-74472489D01*
X59400000Y-74524000D01*
X59400000Y-75576000D01*
X59380315Y-75643039D01*
X59327511Y-75688794D01*
X59276000Y-75700000D01*
X58000000Y-75700000D01*
X58000000Y-77076000D01*
X57980315Y-77143039D01*
X57927511Y-77188794D01*
X57876000Y-77200000D01*
X54599999Y-77200000D01*
X53336319Y-78463681D01*
X53274996Y-78497166D01*
X53248638Y-78500000D01*
X51624500Y-78500000D01*
X51557461Y-78480315D01*
X51511706Y-78427511D01*
X51500500Y-78376000D01*
X51500500Y-73500000D01*
X54994353Y-73500000D01*
X55014834Y-73642456D01*
X55074622Y-73773371D01*
X55074623Y-73773373D01*
X55168872Y-73882143D01*
X55289947Y-73959953D01*
X55289950Y-73959954D01*
X55289949Y-73959954D01*
X55428036Y-74000499D01*
X55428038Y-74000500D01*
X55428039Y-74000500D01*
X55571962Y-74000500D01*
X55571962Y-74000499D01*
X55710053Y-73959953D01*
X55831128Y-73882143D01*
X55925377Y-73773373D01*
X55985165Y-73642457D01*
X56005647Y-73500000D01*
X55985165Y-73357543D01*
X55925377Y-73226627D01*
X55831128Y-73117857D01*
X55710053Y-73040047D01*
X55710051Y-73040046D01*
X55710049Y-73040045D01*
X55710050Y-73040045D01*
X55571963Y-72999500D01*
X55571961Y-72999500D01*
X55428039Y-72999500D01*
X55428036Y-72999500D01*
X55289949Y-73040045D01*
X55168873Y-73117856D01*
X55074623Y-73226626D01*
X55074622Y-73226628D01*
X55014834Y-73357543D01*
X54994353Y-73500000D01*
X51500500Y-73500000D01*
X51500500Y-72624500D01*
X51520185Y-72557461D01*
X51572989Y-72511706D01*
X51624500Y-72500500D01*
X57876000Y-72500500D01*
X57943039Y-72520185D01*
G37*
G04 #@! TD.AperFunction*
G04 #@! TA.AperFunction,Conductor*
G36*
X80043039Y-72520185D02*
G01*
X80088794Y-72572989D01*
X80100000Y-72624500D01*
X80100000Y-76848638D01*
X80080315Y-76915677D01*
X80063681Y-76936319D01*
X79886319Y-77113681D01*
X79824996Y-77147166D01*
X79798638Y-77150000D01*
X73649999Y-77150000D01*
X71686319Y-79113681D01*
X71624996Y-79147166D01*
X71598638Y-79150000D01*
X71418780Y-79150000D01*
X71351741Y-79130315D01*
X71305986Y-79077511D01*
X71296042Y-79008353D01*
X71308295Y-78969706D01*
X71318659Y-78949364D01*
X71342219Y-78903126D01*
X71342219Y-78903124D01*
X71342220Y-78903123D01*
X71358000Y-78803493D01*
X71358000Y-78286506D01*
X71342220Y-78186878D01*
X71342219Y-78186876D01*
X71342219Y-78186874D01*
X71281028Y-78066780D01*
X71281026Y-78066778D01*
X71281023Y-78066774D01*
X71185725Y-77971476D01*
X71185722Y-77971474D01*
X71185720Y-77971472D01*
X71104100Y-77929884D01*
X71065623Y-77910279D01*
X71027176Y-77904190D01*
X70977688Y-77884822D01*
X70969308Y-77879223D01*
X70841832Y-77826421D01*
X70841822Y-77826418D01*
X70706495Y-77799500D01*
X70706493Y-77799500D01*
X69368507Y-77799500D01*
X69368505Y-77799500D01*
X69233178Y-77826418D01*
X69233174Y-77826419D01*
X69199013Y-77840569D01*
X69149223Y-77849985D01*
X68524789Y-77838203D01*
X68458133Y-77817257D01*
X68413382Y-77763599D01*
X68404745Y-77694266D01*
X68434964Y-77631269D01*
X68479674Y-77599664D01*
X68540341Y-77574536D01*
X68665782Y-77478282D01*
X68762036Y-77352841D01*
X68822544Y-77206762D01*
X68826289Y-77178313D01*
X68854555Y-77114417D01*
X68912880Y-77075946D01*
X68949228Y-77070499D01*
X69344017Y-77070499D01*
X69344018Y-77070499D01*
X69437804Y-77055646D01*
X69550842Y-76998050D01*
X69640550Y-76908342D01*
X69698146Y-76795304D01*
X69698146Y-76795302D01*
X69698147Y-76795301D01*
X69712999Y-76701524D01*
X69713000Y-76701519D01*
X69712999Y-76238482D01*
X69701526Y-76166037D01*
X69700000Y-76146641D01*
X69700000Y-75147728D01*
X69701624Y-75147728D01*
X69700927Y-75127744D01*
X69712999Y-75051523D01*
X69713000Y-75051519D01*
X69712999Y-74588482D01*
X69698146Y-74494696D01*
X69640550Y-74381658D01*
X69640546Y-74381654D01*
X69640545Y-74381652D01*
X69550847Y-74291954D01*
X69550844Y-74291952D01*
X69550842Y-74291950D01*
X69470303Y-74250913D01*
X69437801Y-74234352D01*
X69344024Y-74219500D01*
X68730982Y-74219500D01*
X68650019Y-74232323D01*
X68637196Y-74234354D01*
X68524158Y-74291950D01*
X68524157Y-74291951D01*
X68524152Y-74291954D01*
X68434454Y-74381652D01*
X68434451Y-74381657D01*
X68434450Y-74381658D01*
X68415251Y-74419337D01*
X68376852Y-74494698D01*
X68362000Y-74588475D01*
X68362000Y-74733810D01*
X68342315Y-74800849D01*
X68325681Y-74821491D01*
X67937269Y-75209902D01*
X67875946Y-75243387D01*
X67852688Y-75246182D01*
X67700000Y-75249999D01*
X67700000Y-75395810D01*
X67680315Y-75462849D01*
X67663681Y-75483491D01*
X67313990Y-75833181D01*
X67252667Y-75866666D01*
X67226309Y-75869500D01*
X66830982Y-75869500D01*
X66750019Y-75882323D01*
X66737196Y-75884354D01*
X66624158Y-75941950D01*
X66624157Y-75941951D01*
X66624152Y-75941954D01*
X66534454Y-76031652D01*
X66534451Y-76031657D01*
X66534450Y-76031658D01*
X66522209Y-76055682D01*
X66476852Y-76144698D01*
X66462000Y-76238475D01*
X66462000Y-76701517D01*
X66472792Y-76769657D01*
X66476854Y-76795304D01*
X66534450Y-76908342D01*
X66534452Y-76908344D01*
X66534454Y-76908347D01*
X66624152Y-76998045D01*
X66624156Y-76998048D01*
X66624158Y-76998050D01*
X66719297Y-77046526D01*
X66770091Y-77094499D01*
X66787000Y-77157009D01*
X66787000Y-77475955D01*
X66767315Y-77542994D01*
X66750681Y-77563636D01*
X66579575Y-77734742D01*
X66518252Y-77768227D01*
X66448560Y-77763243D01*
X66392627Y-77721371D01*
X66376389Y-77687942D01*
X66375654Y-77688247D01*
X66338962Y-77599664D01*
X66312036Y-77534659D01*
X66215782Y-77409218D01*
X66090341Y-77312964D01*
X65944262Y-77252456D01*
X65921196Y-77249419D01*
X65793529Y-77232611D01*
X65729633Y-77204344D01*
X65691162Y-77146019D01*
X65690331Y-77076155D01*
X65727403Y-77016932D01*
X65738417Y-77009426D01*
X65737950Y-77008783D01*
X65745835Y-77003053D01*
X65745842Y-77003050D01*
X65835550Y-76913342D01*
X65893146Y-76800304D01*
X65893146Y-76800302D01*
X65893147Y-76800301D01*
X65907999Y-76706524D01*
X65908000Y-76706519D01*
X65907999Y-76243482D01*
X65893146Y-76149696D01*
X65835550Y-76036658D01*
X65835546Y-76036654D01*
X65835545Y-76036652D01*
X65745847Y-75946954D01*
X65745844Y-75946952D01*
X65745842Y-75946950D01*
X65632804Y-75889354D01*
X65632802Y-75889353D01*
X65632801Y-75889353D01*
X65604600Y-75884886D01*
X65541466Y-75854956D01*
X65504536Y-75795644D01*
X65500000Y-75762413D01*
X65500000Y-75400000D01*
X64795344Y-75400000D01*
X64728305Y-75380315D01*
X64682550Y-75327511D01*
X64674939Y-75301009D01*
X64674647Y-75301088D01*
X64672544Y-75293243D01*
X64672544Y-75293238D01*
X64612036Y-75147159D01*
X64515782Y-75021718D01*
X64390341Y-74925464D01*
X64244262Y-74864956D01*
X64223851Y-74862268D01*
X64137082Y-74850845D01*
X64073186Y-74822578D01*
X64065587Y-74815587D01*
X64037681Y-74787681D01*
X64004196Y-74726358D01*
X64009180Y-74656666D01*
X64037681Y-74612319D01*
X64155303Y-74494697D01*
X64350000Y-74300000D01*
X64350000Y-73969262D01*
X64369685Y-73902223D01*
X64387920Y-73883128D01*
X64386350Y-73881558D01*
X64393248Y-73874659D01*
X64393251Y-73874658D01*
X64487158Y-73780751D01*
X64547451Y-73662420D01*
X64547451Y-73662418D01*
X64547452Y-73662417D01*
X64563000Y-73564251D01*
X64563000Y-72985748D01*
X64547452Y-72887582D01*
X64547451Y-72887580D01*
X64487158Y-72769249D01*
X64487154Y-72769245D01*
X64487153Y-72769243D01*
X64430091Y-72712181D01*
X64396606Y-72650858D01*
X64401590Y-72581166D01*
X64443462Y-72525233D01*
X64508926Y-72500816D01*
X64517772Y-72500500D01*
X79976000Y-72500500D01*
X80043039Y-72520185D01*
G37*
G04 #@! TD.AperFunction*
G04 #@! TA.AperFunction,Conductor*
G36*
X64680539Y-86319685D02*
G01*
X64726294Y-86372489D01*
X64737500Y-86424000D01*
X64737500Y-87238311D01*
X64717815Y-87305350D01*
X64701184Y-87325988D01*
X64627398Y-87399774D01*
X64623991Y-87403182D01*
X64562667Y-87436666D01*
X64536310Y-87439500D01*
X64160982Y-87439500D01*
X64080019Y-87452323D01*
X64067196Y-87454354D01*
X63954158Y-87511950D01*
X63954157Y-87511951D01*
X63954152Y-87511954D01*
X63864454Y-87601652D01*
X63864451Y-87601657D01*
X63806852Y-87714698D01*
X63792000Y-87808475D01*
X63792001Y-88376000D01*
X63772317Y-88443039D01*
X63719513Y-88488794D01*
X63668001Y-88500000D01*
X63561500Y-88500000D01*
X63494461Y-88480315D01*
X63448706Y-88427511D01*
X63437500Y-88376000D01*
X63437500Y-86861057D01*
X63457185Y-86794018D01*
X63485896Y-86762772D01*
X64054070Y-86325715D01*
X64119209Y-86300442D01*
X64129674Y-86300000D01*
X64613500Y-86300000D01*
X64680539Y-86319685D01*
G37*
G04 #@! TD.AperFunction*
G04 #@! TA.AperFunction,Conductor*
G36*
X63515677Y-77519685D02*
G01*
X63536319Y-77536319D01*
X64063681Y-78063681D01*
X64097166Y-78125004D01*
X64100000Y-78151362D01*
X64100000Y-79200000D01*
X64213443Y-79313443D01*
X64246928Y-79374766D01*
X64247379Y-79376930D01*
X64248632Y-79383230D01*
X64292947Y-79449552D01*
X64359269Y-79493867D01*
X64359270Y-79493868D01*
X64417747Y-79505499D01*
X64417750Y-79505500D01*
X64417752Y-79505500D01*
X64707249Y-79505500D01*
X64722918Y-79502383D01*
X64747111Y-79500000D01*
X64877889Y-79500000D01*
X64902082Y-79502383D01*
X64917751Y-79505500D01*
X65076000Y-79505500D01*
X65143039Y-79525185D01*
X65188794Y-79577989D01*
X65200000Y-79629500D01*
X65200000Y-80099693D01*
X65180315Y-80166732D01*
X65179103Y-80168582D01*
X65173633Y-80176768D01*
X65173631Y-80176771D01*
X65162000Y-80235246D01*
X65161714Y-80238154D01*
X65161138Y-80239578D01*
X65160811Y-80241226D01*
X65160498Y-80241163D01*
X65135553Y-80302942D01*
X65078518Y-80343300D01*
X65038311Y-80350000D01*
X63049999Y-80350000D01*
X62936319Y-80463681D01*
X62874996Y-80497166D01*
X62848638Y-80500000D01*
X55099999Y-80500000D01*
X53800000Y-81799999D01*
X53800000Y-81800000D01*
X53800000Y-82800000D01*
X55000000Y-84000000D01*
X57248638Y-84000000D01*
X57315677Y-84019685D01*
X57336319Y-84036319D01*
X57863681Y-84563681D01*
X57897166Y-84625004D01*
X57900000Y-84651362D01*
X57900000Y-87048638D01*
X57880315Y-87115677D01*
X57863681Y-87136319D01*
X57200000Y-87799999D01*
X57200000Y-91375500D01*
X57180315Y-91442539D01*
X57127511Y-91488294D01*
X57076000Y-91499500D01*
X51624500Y-91499500D01*
X51557461Y-91479815D01*
X51511706Y-91427011D01*
X51500500Y-91375500D01*
X51500500Y-78924000D01*
X51520185Y-78856961D01*
X51572989Y-78811206D01*
X51624500Y-78800000D01*
X53400000Y-78800000D01*
X54663681Y-77536319D01*
X54725004Y-77502834D01*
X54751362Y-77500000D01*
X63448638Y-77500000D01*
X63515677Y-77519685D01*
G37*
G04 #@! TD.AperFunction*
G04 #@! TA.AperFunction,Conductor*
G36*
X65115677Y-80619685D02*
G01*
X65136319Y-80636319D01*
X65250000Y-80750000D01*
X65302889Y-80750000D01*
X65327082Y-80752383D01*
X65342751Y-80755500D01*
X66791638Y-80755500D01*
X66858677Y-80775185D01*
X66879319Y-80791819D01*
X68701181Y-82613681D01*
X68734666Y-82675004D01*
X68737500Y-82701362D01*
X68737500Y-84126000D01*
X68717815Y-84193039D01*
X68665011Y-84238794D01*
X68613500Y-84250000D01*
X67511500Y-84250000D01*
X67444461Y-84230315D01*
X67398706Y-84177511D01*
X67387500Y-84126000D01*
X67387500Y-83400000D01*
X66573819Y-82586319D01*
X66540334Y-82524996D01*
X66537500Y-82498638D01*
X66537500Y-81500000D01*
X66287500Y-81250000D01*
X64150000Y-81250000D01*
X64150000Y-82198638D01*
X64130315Y-82265677D01*
X64113681Y-82286319D01*
X63450000Y-82949999D01*
X63450000Y-85098638D01*
X63430315Y-85165677D01*
X63413681Y-85186319D01*
X62836319Y-85763681D01*
X62774996Y-85797166D01*
X62748638Y-85800000D01*
X62249999Y-85800000D01*
X61900000Y-86149999D01*
X61900000Y-86150000D01*
X61900000Y-88650000D01*
X62250000Y-89000000D01*
X64850000Y-89000000D01*
X65250000Y-88600000D01*
X65250000Y-87749187D01*
X65269685Y-87682148D01*
X65286316Y-87661509D01*
X65611506Y-87336318D01*
X65672829Y-87302834D01*
X65699187Y-87300000D01*
X66205717Y-87300000D01*
X66255050Y-87311843D01*
X66255096Y-87311704D01*
X66256867Y-87312279D01*
X66262009Y-87313514D01*
X66264374Y-87314719D01*
X66264376Y-87314719D01*
X66264378Y-87314720D01*
X66364007Y-87330500D01*
X66364012Y-87330500D01*
X66880993Y-87330500D01*
X66980621Y-87314720D01*
X66980621Y-87314719D01*
X66980626Y-87314719D01*
X66982991Y-87313514D01*
X66988132Y-87312279D01*
X66989904Y-87311704D01*
X66989949Y-87311843D01*
X67039283Y-87300000D01*
X67755717Y-87300000D01*
X67805050Y-87311843D01*
X67805096Y-87311704D01*
X67806867Y-87312279D01*
X67812009Y-87313514D01*
X67814374Y-87314719D01*
X67814375Y-87314719D01*
X67814377Y-87314720D01*
X67877426Y-87324706D01*
X67940561Y-87354635D01*
X67977492Y-87413947D01*
X67976494Y-87483809D01*
X67972589Y-87494631D01*
X67952457Y-87543234D01*
X67952455Y-87543239D01*
X67931818Y-87699998D01*
X67931818Y-87700001D01*
X67952455Y-87856760D01*
X67952456Y-87856762D01*
X68012964Y-88002841D01*
X68109218Y-88128282D01*
X68234659Y-88224536D01*
X68380738Y-88285044D01*
X68459119Y-88295363D01*
X68537499Y-88305682D01*
X68537500Y-88305682D01*
X68537501Y-88305682D01*
X68589754Y-88298802D01*
X68694262Y-88285044D01*
X68840341Y-88224536D01*
X68965782Y-88128282D01*
X69062036Y-88002841D01*
X69122544Y-87856762D01*
X69143182Y-87700000D01*
X69122544Y-87543238D01*
X69062036Y-87397159D01*
X69059439Y-87390889D01*
X69050000Y-87343436D01*
X69050000Y-87024000D01*
X69069685Y-86956961D01*
X69122489Y-86911206D01*
X69174000Y-86900000D01*
X79848638Y-86900000D01*
X79915677Y-86919685D01*
X79936319Y-86936319D01*
X80113681Y-87113681D01*
X80147166Y-87175004D01*
X80150000Y-87201362D01*
X80150000Y-91375500D01*
X80130315Y-91442539D01*
X80077511Y-91488294D01*
X80026000Y-91499500D01*
X61881902Y-91499500D01*
X61880402Y-91499618D01*
X61870679Y-91500000D01*
X58129321Y-91500000D01*
X58119598Y-91499618D01*
X58118098Y-91499500D01*
X58118092Y-91499500D01*
X58065892Y-91499500D01*
X57624000Y-91499500D01*
X57556961Y-91479815D01*
X57511206Y-91427011D01*
X57500000Y-91375500D01*
X57500000Y-87902738D01*
X57519685Y-87835699D01*
X57537984Y-87813422D01*
X58175000Y-87200000D01*
X58175000Y-84500000D01*
X57400000Y-83725000D01*
X55152220Y-83725000D01*
X55085181Y-83705315D01*
X55063513Y-83687644D01*
X54085293Y-82686133D01*
X54052532Y-82624420D01*
X54050000Y-82599489D01*
X54050000Y-81951362D01*
X54069685Y-81884323D01*
X54086319Y-81863681D01*
X55113681Y-80836319D01*
X55175004Y-80802834D01*
X55201362Y-80800000D01*
X63000000Y-80800000D01*
X63163681Y-80636319D01*
X63225004Y-80602834D01*
X63251362Y-80600000D01*
X65048638Y-80600000D01*
X65115677Y-80619685D01*
G37*
G04 #@! TD.AperFunction*
G04 #@! TA.AperFunction,Conductor*
G36*
X82415677Y-72519685D02*
G01*
X82436319Y-72536319D01*
X83163681Y-73263681D01*
X83197166Y-73325004D01*
X83200000Y-73351362D01*
X83200000Y-81110000D01*
X87076000Y-81110000D01*
X87143039Y-81129685D01*
X87188794Y-81182489D01*
X87200000Y-81234000D01*
X87200000Y-82756000D01*
X87180315Y-82823039D01*
X87127511Y-82868794D01*
X87076000Y-82880000D01*
X83200000Y-82880000D01*
X83200000Y-91376000D01*
X83180315Y-91443039D01*
X83127511Y-91488794D01*
X83076000Y-91500000D01*
X80479500Y-91500000D01*
X80412461Y-91480315D01*
X80366706Y-91427511D01*
X80355500Y-91376000D01*
X80355500Y-87201361D01*
X80354321Y-87179381D01*
X80351488Y-87153035D01*
X80343165Y-87126453D01*
X80337500Y-87089401D01*
X80337500Y-87050000D01*
X80274554Y-86987054D01*
X80262969Y-86973685D01*
X80258993Y-86968374D01*
X80258991Y-86968371D01*
X80258986Y-86968366D01*
X80258980Y-86968359D01*
X80081637Y-86791016D01*
X80078176Y-86787907D01*
X80065262Y-86776307D01*
X80065254Y-86776301D01*
X80065249Y-86776296D01*
X80062938Y-86774434D01*
X80053064Y-86765564D01*
X79173819Y-85886319D01*
X79140334Y-85824996D01*
X79137500Y-85798638D01*
X79137500Y-78301362D01*
X79157185Y-78234323D01*
X79173819Y-78213681D01*
X80337500Y-77050000D01*
X80339691Y-72623939D01*
X80359409Y-72556909D01*
X80412235Y-72511180D01*
X80463691Y-72500000D01*
X82348638Y-72500000D01*
X82415677Y-72519685D01*
G37*
G04 #@! TD.AperFunction*
G04 #@! TA.AperFunction,Conductor*
G36*
X87143039Y-83159685D02*
G01*
X87188794Y-83212489D01*
X87200000Y-83264000D01*
X87200000Y-84300000D01*
X90375500Y-84300000D01*
X90442539Y-84319685D01*
X90488294Y-84372489D01*
X90499500Y-84424000D01*
X90499500Y-91375500D01*
X90479815Y-91442539D01*
X90427011Y-91488294D01*
X90375500Y-91499500D01*
X83881902Y-91499500D01*
X83880402Y-91499618D01*
X83870679Y-91500000D01*
X83624000Y-91500000D01*
X83556961Y-91480315D01*
X83511206Y-91427511D01*
X83500000Y-91376000D01*
X83500000Y-90500000D01*
X85994353Y-90500000D01*
X86014834Y-90642456D01*
X86074622Y-90773371D01*
X86074623Y-90773373D01*
X86168872Y-90882143D01*
X86289947Y-90959953D01*
X86289950Y-90959954D01*
X86289949Y-90959954D01*
X86428036Y-91000499D01*
X86428038Y-91000500D01*
X86428039Y-91000500D01*
X86571962Y-91000500D01*
X86571962Y-91000499D01*
X86710053Y-90959953D01*
X86831128Y-90882143D01*
X86925377Y-90773373D01*
X86985165Y-90642457D01*
X87005647Y-90500000D01*
X86985165Y-90357543D01*
X86925377Y-90226627D01*
X86831128Y-90117857D01*
X86710053Y-90040047D01*
X86710051Y-90040046D01*
X86710049Y-90040045D01*
X86710050Y-90040045D01*
X86571963Y-89999500D01*
X86571961Y-89999500D01*
X86428039Y-89999500D01*
X86428036Y-89999500D01*
X86289949Y-90040045D01*
X86168873Y-90117856D01*
X86074623Y-90226626D01*
X86074622Y-90226628D01*
X86014834Y-90357543D01*
X85994353Y-90500000D01*
X83500000Y-90500000D01*
X83500000Y-83264000D01*
X83519685Y-83196961D01*
X83572489Y-83151206D01*
X83624000Y-83140000D01*
X87076000Y-83140000D01*
X87143039Y-83159685D01*
G37*
G04 #@! TD.AperFunction*
M02*
