G04 #@! TF.GenerationSoftware,KiCad,Pcbnew,8.0.5*
G04 #@! TF.CreationDate,2024-11-01T14:28:31+01:00*
G04 #@! TF.ProjectId,DCDC_converter,44434443-5f63-46f6-9e76-65727465722e,rev?*
G04 #@! TF.SameCoordinates,Original*
G04 #@! TF.FileFunction,Soldermask,Top*
G04 #@! TF.FilePolarity,Negative*
%FSLAX46Y46*%
G04 Gerber Fmt 4.6, Leading zero omitted, Abs format (unit mm)*
G04 Created by KiCad (PCBNEW 8.0.5) date 2024-11-01 14:28:31*
%MOMM*%
%LPD*%
G01*
G04 APERTURE LIST*
G04 Aperture macros list*
%AMRoundRect*
0 Rectangle with rounded corners*
0 $1 Rounding radius*
0 $2 $3 $4 $5 $6 $7 $8 $9 X,Y pos of 4 corners*
0 Add a 4 corners polygon primitive as box body*
4,1,4,$2,$3,$4,$5,$6,$7,$8,$9,$2,$3,0*
0 Add four circle primitives for the rounded corners*
1,1,$1+$1,$2,$3*
1,1,$1+$1,$4,$5*
1,1,$1+$1,$6,$7*
1,1,$1+$1,$8,$9*
0 Add four rect primitives between the rounded corners*
20,1,$1+$1,$2,$3,$4,$5,0*
20,1,$1+$1,$4,$5,$6,$7,0*
20,1,$1+$1,$6,$7,$8,$9,0*
20,1,$1+$1,$8,$9,$2,$3,0*%
G04 Aperture macros list end*
%ADD10R,2.413000X5.334000*%
%ADD11O,1.700000X1.700000*%
%ADD12R,1.700000X1.700000*%
%ADD13RoundRect,0.250000X0.250000X0.475000X-0.250000X0.475000X-0.250000X-0.475000X0.250000X-0.475000X0*%
%ADD14C,1.000000*%
%ADD15RoundRect,0.250000X-0.475000X0.250000X-0.475000X-0.250000X0.475000X-0.250000X0.475000X0.250000X0*%
%ADD16RoundRect,0.200000X0.275000X-0.200000X0.275000X0.200000X-0.275000X0.200000X-0.275000X-0.200000X0*%
%ADD17RoundRect,0.225000X-0.250000X0.225000X-0.250000X-0.225000X0.250000X-0.225000X0.250000X0.225000X0*%
%ADD18RoundRect,0.225000X0.225000X0.250000X-0.225000X0.250000X-0.225000X-0.250000X0.225000X-0.250000X0*%
%ADD19R,0.250000X0.700000*%
%ADD20R,0.700000X0.300000*%
%ADD21R,1.500000X0.300000*%
%ADD22RoundRect,0.200000X-0.200000X-0.275000X0.200000X-0.275000X0.200000X0.275000X-0.200000X0.275000X0*%
%ADD23O,1.350000X1.350000*%
%ADD24R,1.350000X1.350000*%
%ADD25RoundRect,0.225000X0.250000X-0.225000X0.250000X0.225000X-0.250000X0.225000X-0.250000X-0.225000X0*%
%ADD26RoundRect,0.218750X-0.218750X-0.256250X0.218750X-0.256250X0.218750X0.256250X-0.218750X0.256250X0*%
%ADD27C,1.600000*%
%ADD28R,1.600000X1.600000*%
%ADD29RoundRect,0.200000X0.200000X0.275000X-0.200000X0.275000X-0.200000X-0.275000X0.200000X-0.275000X0*%
%ADD30RoundRect,0.200000X-0.275000X0.200000X-0.275000X-0.200000X0.275000X-0.200000X0.275000X0.200000X0*%
%ADD31C,0.500000*%
%ADD32C,2.000000*%
%ADD33C,1.300000*%
G04 APERTURE END LIST*
D10*
X81300000Y-82000000D03*
X74061000Y-82000000D03*
D11*
X52500000Y-76920000D03*
D12*
X52500000Y-74380000D03*
D11*
X89400000Y-82000000D03*
D12*
X89400000Y-79460000D03*
D11*
X52500000Y-89620000D03*
D12*
X52500000Y-87080000D03*
D11*
X89400000Y-89620000D03*
D12*
X89400000Y-87080000D03*
D11*
X86860001Y-74380000D03*
D12*
X89400001Y-74380000D03*
D13*
X79270000Y-75640000D03*
X81169998Y-75640000D03*
X79305000Y-88500000D03*
X81204998Y-88500000D03*
D14*
X86500000Y-90500000D03*
D13*
X79270001Y-73680000D03*
X81169999Y-73680000D03*
D15*
X56352500Y-81635000D03*
X56352500Y-79735002D03*
D16*
X67137500Y-74820000D03*
X67137500Y-76470000D03*
D17*
X61982500Y-81475000D03*
X61982500Y-79925000D03*
D18*
X62692500Y-83395000D03*
X64242500Y-83395000D03*
D19*
X64562500Y-78955000D03*
X65062500Y-78955000D03*
X65562500Y-78955000D03*
X66062500Y-78955000D03*
D20*
X66512500Y-79755000D03*
D21*
X66112500Y-80405000D03*
D20*
X66512500Y-81055000D03*
D19*
X66062500Y-81855000D03*
X65562500Y-81855000D03*
X65062500Y-81855000D03*
X64562500Y-81855000D03*
D21*
X64512500Y-81055000D03*
X64512500Y-79755000D03*
D22*
X69292500Y-78565000D03*
X67642500Y-78565000D03*
D23*
X85600000Y-84000000D03*
X85600000Y-82000000D03*
D24*
X85600000Y-80000000D03*
D15*
X58312500Y-81635000D03*
X58312500Y-79735002D03*
D16*
X63105000Y-74825000D03*
X63105000Y-76475000D03*
D22*
X68222500Y-83665000D03*
X66572500Y-83665000D03*
D18*
X66622500Y-86655000D03*
X68172500Y-86655000D03*
D25*
X70682500Y-78545000D03*
X70682500Y-80095000D03*
D26*
X63925000Y-73275000D03*
X62350000Y-73275000D03*
D22*
X64392500Y-88115000D03*
X62742500Y-88115000D03*
D27*
X59450000Y-86400000D03*
D28*
X56950000Y-86400000D03*
D18*
X58872500Y-75050000D03*
X60422500Y-75050000D03*
D22*
X64392500Y-86655000D03*
X62742500Y-86655000D03*
X60477500Y-76660000D03*
X58827500Y-76660000D03*
D16*
X65232500Y-74825000D03*
X65232500Y-76475000D03*
D29*
X66572500Y-85125000D03*
X68222500Y-85125000D03*
D22*
X60462500Y-73275000D03*
X58812500Y-73275000D03*
D14*
X55500000Y-73500000D03*
D15*
X60272500Y-81634998D03*
X60272500Y-79735000D03*
D30*
X69037500Y-76470000D03*
X69037500Y-74820000D03*
D13*
X79305000Y-90460000D03*
X81204998Y-90460000D03*
X79270000Y-53640000D03*
X81169998Y-53640000D03*
D14*
X55500000Y-51500000D03*
D22*
X60462500Y-51275000D03*
X58812500Y-51275000D03*
D31*
X81250000Y-70250000D03*
X81250000Y-71750000D03*
X82000000Y-70250000D03*
X82000000Y-71750000D03*
X82750000Y-70250000D03*
X82750000Y-71750000D03*
D15*
X60272500Y-59634998D03*
X60272500Y-57735000D03*
D32*
X55000000Y-44850000D03*
D13*
X79305000Y-68460000D03*
X81204998Y-68460000D03*
D31*
X59250000Y-48250000D03*
X59250000Y-49750000D03*
X60000000Y-48250000D03*
X60000000Y-49750000D03*
X60750000Y-48250000D03*
X60750000Y-49750000D03*
D33*
X83000000Y-98000000D03*
D30*
X69037500Y-54470000D03*
X69037500Y-52820000D03*
D16*
X65232500Y-52825000D03*
X65232500Y-54475000D03*
D33*
X83000000Y-44000000D03*
D18*
X58872500Y-53050000D03*
X60422500Y-53050000D03*
D22*
X64392500Y-64655000D03*
X62742500Y-64655000D03*
X60477500Y-54660000D03*
X58827500Y-54660000D03*
D29*
X66572500Y-63125000D03*
X68222500Y-63125000D03*
D31*
X81250000Y-92250000D03*
X81250000Y-93750000D03*
X82000000Y-92250000D03*
X82000000Y-93750000D03*
X82750000Y-92250000D03*
X82750000Y-93750000D03*
D33*
X59000000Y-44000000D03*
D27*
X59450000Y-64400000D03*
D28*
X56950000Y-64400000D03*
D23*
X85600000Y-62000000D03*
X85600000Y-60000000D03*
D24*
X85600000Y-58000000D03*
D32*
X87000000Y-97149998D03*
D26*
X63925000Y-51275000D03*
X62350000Y-51275000D03*
D25*
X70682500Y-56545000D03*
X70682500Y-58095000D03*
D22*
X64392500Y-66115000D03*
X62742500Y-66115000D03*
D31*
X59250000Y-70250000D03*
X59250000Y-71750000D03*
X60000000Y-70250000D03*
X60000000Y-71750000D03*
X60750000Y-70250000D03*
X60750000Y-71750000D03*
D22*
X68222500Y-61665000D03*
X66572500Y-61665000D03*
D16*
X63105000Y-52825000D03*
X63105000Y-54475000D03*
D31*
X81250000Y-48250000D03*
X81250000Y-49750000D03*
X82000000Y-48250000D03*
X82000000Y-49750000D03*
X82750000Y-48250000D03*
X82750000Y-49750000D03*
D18*
X66622500Y-64655000D03*
X68172500Y-64655000D03*
D15*
X58312500Y-59635000D03*
X58312500Y-57735002D03*
D13*
X79305000Y-66500000D03*
X81204998Y-66500000D03*
D31*
X59250000Y-92250000D03*
X59250000Y-93750000D03*
X60000000Y-92250000D03*
X60000000Y-93750000D03*
X60750000Y-92250000D03*
X60750000Y-93750000D03*
D33*
X59000000Y-98000000D03*
D13*
X79270001Y-51680000D03*
X81169999Y-51680000D03*
D17*
X61982500Y-59475000D03*
X61982500Y-57925000D03*
D15*
X56352500Y-59635000D03*
X56352500Y-57735002D03*
D14*
X86500000Y-68500000D03*
D22*
X69292500Y-56565000D03*
X67642500Y-56565000D03*
D19*
X64562500Y-56955000D03*
X65062500Y-56955000D03*
X65562500Y-56955000D03*
X66062500Y-56955000D03*
D20*
X66512500Y-57755000D03*
D21*
X66112500Y-58405000D03*
D20*
X66512500Y-59055000D03*
D19*
X66062500Y-59855000D03*
X65562500Y-59855000D03*
X65062500Y-59855000D03*
X64562500Y-59855000D03*
D21*
X64512500Y-59055000D03*
X64512500Y-57755000D03*
D18*
X62692500Y-61395000D03*
X64242500Y-61395000D03*
D16*
X67137500Y-52820000D03*
X67137500Y-54470000D03*
D10*
X81300000Y-60000000D03*
X74061000Y-60000000D03*
D32*
X87000000Y-44850000D03*
X55000000Y-97149998D03*
D11*
X89400000Y-60000000D03*
D12*
X89400000Y-57460000D03*
D11*
X52500000Y-67620000D03*
D12*
X52500000Y-65080000D03*
D11*
X89400000Y-67620000D03*
D12*
X89400000Y-65080000D03*
D11*
X86860001Y-52380000D03*
D12*
X89400001Y-52380000D03*
D11*
X52500000Y-54920000D03*
D12*
X52500000Y-52380000D03*
M02*
