M48
; DRILL file {KiCad 8.0.5} date 2024-11-01T14:28:32+0100
; FORMAT={-:-/ absolute / metric / decimal}
; #@! TF.CreationDate,2024-11-01T14:28:32+01:00
; #@! TF.GenerationSoftware,Kicad,Pcbnew,8.0.5
; #@! TF.FileFunction,Plated,1,4,PTH
FMAT,2
METRIC
; #@! TA.AperFunction,Plated,PTH,ViaDrill
T1C0.300
; #@! TA.AperFunction,Plated,PTH,ViaDrill
T2C0.400
; #@! TA.AperFunction,Plated,PTH,ComponentDrill
T3C0.800
; #@! TA.AperFunction,Plated,PTH,ComponentDrill
T4C1.000
%
G90
G05
T1
X52.7Y-58.8
X52.7Y-80.8
X54.2Y-53.0
X54.2Y-68.5
X54.2Y-75.0
X54.2Y-90.5
X54.4Y-57.6
X54.4Y-79.6
X54.6Y-63.1
X54.6Y-85.1
X54.8Y-54.4
X54.8Y-76.4
X55.1Y-66.9
X55.1Y-88.9
X55.4Y-53.0
X55.4Y-75.0
X55.7Y-60.9
X55.7Y-82.9
X56.0Y-68.5
X56.0Y-90.5
X56.2Y-56.15
X56.2Y-78.15
X56.6Y-53.0
X56.6Y-54.4
X56.6Y-75.0
X56.6Y-76.4
X56.8Y-56.9
X56.8Y-78.9
X56.9Y-51.1
X56.9Y-73.1
X57.3Y-58.2
X57.3Y-80.2
X57.4Y-56.15
X57.4Y-78.15
X58.0Y-56.9
X58.0Y-78.9
X58.3Y-60.9
X58.3Y-82.9
X58.6Y-56.15
X58.6Y-78.15
X59.2Y-56.9
X59.2Y-78.9
X59.25Y-58.2
X59.25Y-66.65
X59.25Y-80.2
X59.25Y-88.65
X59.8Y-56.15
X59.8Y-78.15
X60.4Y-56.9
X60.4Y-78.9
X60.8Y-61.4
X60.8Y-83.4
X61.0Y-56.15
X61.0Y-78.15
X61.05Y-62.6
X61.05Y-84.6
X61.2Y-58.2
X61.2Y-80.2
X61.6Y-56.9
X61.6Y-60.4
X61.6Y-78.9
X61.6Y-82.4
X62.05Y-68.5
X62.05Y-90.5
X62.3Y-56.15
X62.3Y-78.15
X62.85Y-56.9
X62.85Y-78.9
X63.15Y-57.85
X63.15Y-79.85
X63.175Y-59.25
X63.175Y-60.15
X63.175Y-81.25
X63.175Y-82.15
X63.25Y-68.5
X63.25Y-90.5
X64.075Y-58.125
X64.075Y-80.125
X64.8Y-58.125
X64.8Y-80.125
X65.65Y-68.5
X65.65Y-90.5
X66.85Y-68.5
X66.85Y-90.5
X67.2Y-51.25
X67.2Y-59.85
X67.2Y-73.25
X67.2Y-81.85
X67.688Y-61.95
X67.688Y-83.95
X68.438Y-60.8
X68.438Y-82.8
X69.6Y-51.25
X69.6Y-73.25
X71.15Y-54.8
X71.15Y-76.8
X71.6Y-66.5
X71.6Y-68.5
X71.6Y-88.5
X71.6Y-90.5
X71.825Y-52.65
X71.825Y-74.65
X72.8Y-66.5
X72.8Y-68.5
X72.8Y-88.5
X72.8Y-90.5
X73.275Y-51.25
X73.275Y-54.05
X73.275Y-73.25
X73.275Y-76.05
X74.625Y-52.65
X74.625Y-74.65
X76.05Y-66.5
X76.05Y-68.5
X76.05Y-88.5
X76.05Y-90.5
X77.25Y-66.5
X77.25Y-68.5
X77.25Y-88.5
X77.25Y-90.5
X77.4Y-51.25
X77.4Y-54.05
X77.4Y-73.25
X77.4Y-76.05
X81.05Y-64.925
X81.05Y-86.925
X81.1Y-55.1
X81.1Y-77.1
X82.4Y-52.8
X82.4Y-55.1
X82.4Y-74.8
X82.4Y-77.1
X82.425Y-64.925
X82.425Y-86.925
X83.7Y-60.0
X83.7Y-82.0
X84.2Y-56.1
X84.2Y-78.1
X84.6Y-52.1
X84.6Y-74.1
X84.7Y-54.4
X84.7Y-64.8
X84.7Y-66.7
X84.7Y-68.8
X84.7Y-76.4
X84.7Y-86.8
X84.7Y-88.7
X84.7Y-90.8
X86.5Y-65.1
X86.5Y-67.1
X86.5Y-87.1
X86.5Y-89.1
X87.1Y-54.4
X87.1Y-76.4
X87.4Y-56.3
X87.4Y-57.8
X87.4Y-78.3
X87.4Y-79.8
X87.8Y-63.0
X87.8Y-85.0
X88.2Y-61.2
X88.2Y-83.2
X89.9Y-54.4
X89.9Y-76.4
T2
X57.95Y-51.85
X57.95Y-73.85
X61.45Y-54.65
X61.45Y-76.65
X61.837Y-51.912
X61.837Y-73.912
X64.087Y-53.45
X64.087Y-75.45
X64.35Y-62.95
X64.35Y-84.95
X65.787Y-55.837
X65.787Y-77.837
X68.237Y-55.05
X68.237Y-77.05
X68.537Y-65.7
X68.537Y-87.7
X82.15Y-67.5
X82.15Y-89.5
T3
X56.95Y-64.4
X56.95Y-86.4
X59.45Y-64.4
X59.45Y-86.4
X85.6Y-58.0
X85.6Y-60.0
X85.6Y-62.0
X85.6Y-80.0
X85.6Y-82.0
X85.6Y-84.0
T4
X52.5Y-52.38
X52.5Y-54.92
X52.5Y-65.08
X52.5Y-67.62
X52.5Y-74.38
X52.5Y-76.92
X52.5Y-87.08
X52.5Y-89.62
X86.86Y-52.38
X86.86Y-74.38
X89.4Y-57.46
X89.4Y-60.0
X89.4Y-65.08
X89.4Y-67.62
X89.4Y-79.46
X89.4Y-82.0
X89.4Y-87.08
X89.4Y-89.62
X89.4Y-52.38
X89.4Y-74.38
M30
