%TF.GenerationSoftware,KiCad,Pcbnew,8.0.5*%
%TF.CreationDate,2024-11-01T14:28:33+01:00*%
%TF.ProjectId,DCDC_converter,44434443-5f63-46f6-9e76-65727465722e,rev?*%
%TF.SameCoordinates,Original*%
%TF.FileFunction,Drillmap*%
%TF.FilePolarity,Positive*%
%FSLAX45Y45*%
G04 Gerber Fmt 4.5, Leading zero omitted, Abs format (unit mm)*
G04 Created by KiCad (PCBNEW 8.0.5) date 2024-11-01 14:28:33*
%MOMM*%
%LPD*%
G01*
G04 APERTURE LIST*
%ADD10C,0.050000*%
%ADD11C,0.200000*%
%ADD12C,0.100000*%
G04 APERTURE END LIST*
D10*
X6200000Y-7200000D02*
X8000000Y-7200000D01*
X5100000Y-9200000D02*
X5100000Y-7200000D01*
X5800000Y-9200000D02*
X5100000Y-9200000D01*
X9100000Y-7200000D02*
X9100000Y-9200000D01*
X8400000Y-7200000D02*
X9100000Y-7200000D01*
X8400000Y-9200000D02*
X9100000Y-9200000D01*
X5100000Y-7200000D02*
X5800000Y-7200000D01*
X8000000Y-9200000D02*
X6200000Y-9200000D01*
X6200000Y-5000000D02*
G75*
G02*
X6200000Y-4800000I0J100000D01*
G01*
X8000000Y-7000000D02*
G75*
G02*
X8000000Y-7200000I0J-100000D01*
G01*
X9100000Y-5000000D02*
X9100000Y-7000000D01*
X9100000Y-9400000D02*
X8400000Y-9400000D01*
X8400000Y-9400000D02*
G75*
G02*
X8400000Y-9200000I0J100000D01*
G01*
X5100000Y-5000000D02*
X5800000Y-5000000D01*
X8000000Y-9200000D02*
G75*
G02*
X8000000Y-9400000I0J-100000D01*
G01*
X8400000Y-5000000D02*
G75*
G02*
X8400000Y-4800000I0J100000D01*
G01*
X5100000Y-9400000D02*
X5100000Y-10100000D01*
X8400000Y-7000000D02*
X9100000Y-7000000D01*
X8000000Y-7000000D02*
X6200000Y-7000000D01*
X8400000Y-5000000D02*
X9100000Y-5000000D01*
X9100000Y-10100000D02*
X9100000Y-9400000D01*
X5800000Y-9200000D02*
G75*
G02*
X5800000Y-9400000I0J-100000D01*
G01*
X8000000Y-9400000D02*
X6200000Y-9400000D01*
X8000000Y-4800000D02*
G75*
G02*
X8000000Y-5000000I0J-100000D01*
G01*
X9100000Y-4100000D02*
X5100000Y-4100000D01*
X6200000Y-9400000D02*
G75*
G02*
X6200000Y-9200000I0J100000D01*
G01*
X9100000Y-4800000D02*
X9100000Y-4100000D01*
X5800000Y-7000000D02*
G75*
G02*
X5800000Y-7200000I0J-100000D01*
G01*
X5100000Y-4800000D02*
X5800000Y-4800000D01*
X8400000Y-7200000D02*
G75*
G02*
X8400000Y-7000000I0J100000D01*
G01*
X5800000Y-9400000D02*
X5100000Y-9400000D01*
X5800000Y-7000000D02*
X5100000Y-7000000D01*
X5100000Y-7000000D02*
X5100000Y-5000000D01*
X5100000Y-10100000D02*
X9100000Y-10100000D01*
X6200000Y-4800000D02*
X8000000Y-4800000D01*
X5100000Y-4100000D02*
X5100000Y-4800000D01*
X6200000Y-5000000D02*
X8000000Y-5000000D01*
X5800000Y-4800000D02*
G75*
G02*
X5800000Y-5000000I0J-100000D01*
G01*
X8400000Y-4800000D02*
X9100000Y-4800000D01*
X6200000Y-7200000D02*
G75*
G02*
X6200000Y-7000000I0J100000D01*
G01*
D11*
D12*
X5255000Y-5865000D02*
X5285000Y-5895000D01*
X5285000Y-5865000D02*
X5255000Y-5895000D01*
X5255000Y-8065000D02*
X5285000Y-8095000D01*
X5285000Y-8065000D02*
X5255000Y-8095000D01*
X5405000Y-5285000D02*
X5435000Y-5315000D01*
X5435000Y-5285000D02*
X5405000Y-5315000D01*
X5405000Y-6835000D02*
X5435000Y-6865000D01*
X5435000Y-6835000D02*
X5405000Y-6865000D01*
X5405000Y-7485000D02*
X5435000Y-7515000D01*
X5435000Y-7485000D02*
X5405000Y-7515000D01*
X5405000Y-9035000D02*
X5435000Y-9065000D01*
X5435000Y-9035000D02*
X5405000Y-9065000D01*
X5425000Y-5745000D02*
X5455000Y-5775000D01*
X5455000Y-5745000D02*
X5425000Y-5775000D01*
X5425000Y-7945000D02*
X5455000Y-7975000D01*
X5455000Y-7945000D02*
X5425000Y-7975000D01*
X5445000Y-6295000D02*
X5475000Y-6325000D01*
X5475000Y-6295000D02*
X5445000Y-6325000D01*
X5445000Y-8495000D02*
X5475000Y-8525000D01*
X5475000Y-8495000D02*
X5445000Y-8525000D01*
X5465000Y-5425000D02*
X5495000Y-5455000D01*
X5495000Y-5425000D02*
X5465000Y-5455000D01*
X5465000Y-7625000D02*
X5495000Y-7655000D01*
X5495000Y-7625000D02*
X5465000Y-7655000D01*
X5495000Y-6675000D02*
X5525000Y-6705000D01*
X5525000Y-6675000D02*
X5495000Y-6705000D01*
X5495000Y-8875000D02*
X5525000Y-8905000D01*
X5525000Y-8875000D02*
X5495000Y-8905000D01*
X5525000Y-5285000D02*
X5555000Y-5315000D01*
X5555000Y-5285000D02*
X5525000Y-5315000D01*
X5525000Y-7485000D02*
X5555000Y-7515000D01*
X5555000Y-7485000D02*
X5525000Y-7515000D01*
X5555000Y-6075000D02*
X5585000Y-6105000D01*
X5585000Y-6075000D02*
X5555000Y-6105000D01*
X5555000Y-8275000D02*
X5585000Y-8305000D01*
X5585000Y-8275000D02*
X5555000Y-8305000D01*
X5585000Y-6835000D02*
X5615000Y-6865000D01*
X5615000Y-6835000D02*
X5585000Y-6865000D01*
X5585000Y-9035000D02*
X5615000Y-9065000D01*
X5615000Y-9035000D02*
X5585000Y-9065000D01*
X5605000Y-5600000D02*
X5635000Y-5630000D01*
X5635000Y-5600000D02*
X5605000Y-5630000D01*
X5605000Y-7800000D02*
X5635000Y-7830000D01*
X5635000Y-7800000D02*
X5605000Y-7830000D01*
X5645000Y-5285000D02*
X5675000Y-5315000D01*
X5675000Y-5285000D02*
X5645000Y-5315000D01*
X5645000Y-5425000D02*
X5675000Y-5455000D01*
X5675000Y-5425000D02*
X5645000Y-5455000D01*
X5645000Y-7485000D02*
X5675000Y-7515000D01*
X5675000Y-7485000D02*
X5645000Y-7515000D01*
X5645000Y-7625000D02*
X5675000Y-7655000D01*
X5675000Y-7625000D02*
X5645000Y-7655000D01*
X5665000Y-5675000D02*
X5695000Y-5705000D01*
X5695000Y-5675000D02*
X5665000Y-5705000D01*
X5665000Y-7875000D02*
X5695000Y-7905000D01*
X5695000Y-7875000D02*
X5665000Y-7905000D01*
X5675000Y-5095000D02*
X5705000Y-5125000D01*
X5705000Y-5095000D02*
X5675000Y-5125000D01*
X5675000Y-7295000D02*
X5705000Y-7325000D01*
X5705000Y-7295000D02*
X5675000Y-7325000D01*
X5715000Y-5805000D02*
X5745000Y-5835000D01*
X5745000Y-5805000D02*
X5715000Y-5835000D01*
X5715000Y-8005000D02*
X5745000Y-8035000D01*
X5745000Y-8005000D02*
X5715000Y-8035000D01*
X5725000Y-5600000D02*
X5755000Y-5630000D01*
X5755000Y-5600000D02*
X5725000Y-5630000D01*
X5725000Y-7800000D02*
X5755000Y-7830000D01*
X5755000Y-7800000D02*
X5725000Y-7830000D01*
X5785000Y-5675000D02*
X5815000Y-5705000D01*
X5815000Y-5675000D02*
X5785000Y-5705000D01*
X5785000Y-7875000D02*
X5815000Y-7905000D01*
X5815000Y-7875000D02*
X5785000Y-7905000D01*
X5815000Y-6075000D02*
X5845000Y-6105000D01*
X5845000Y-6075000D02*
X5815000Y-6105000D01*
X5815000Y-8275000D02*
X5845000Y-8305000D01*
X5845000Y-8275000D02*
X5815000Y-8305000D01*
X5845000Y-5600000D02*
X5875000Y-5630000D01*
X5875000Y-5600000D02*
X5845000Y-5630000D01*
X5845000Y-7800000D02*
X5875000Y-7830000D01*
X5875000Y-7800000D02*
X5845000Y-7830000D01*
X5905000Y-5675000D02*
X5935000Y-5705000D01*
X5935000Y-5675000D02*
X5905000Y-5705000D01*
X5905000Y-7875000D02*
X5935000Y-7905000D01*
X5935000Y-7875000D02*
X5905000Y-7905000D01*
X5910000Y-5805000D02*
X5940000Y-5835000D01*
X5940000Y-5805000D02*
X5910000Y-5835000D01*
X5910000Y-6650000D02*
X5940000Y-6680000D01*
X5940000Y-6650000D02*
X5910000Y-6680000D01*
X5910000Y-8005000D02*
X5940000Y-8035000D01*
X5940000Y-8005000D02*
X5910000Y-8035000D01*
X5910000Y-8850000D02*
X5940000Y-8880000D01*
X5940000Y-8850000D02*
X5910000Y-8880000D01*
X5965000Y-5600000D02*
X5995000Y-5630000D01*
X5995000Y-5600000D02*
X5965000Y-5630000D01*
X5965000Y-7800000D02*
X5995000Y-7830000D01*
X5995000Y-7800000D02*
X5965000Y-7830000D01*
X6025000Y-5675000D02*
X6055000Y-5705000D01*
X6055000Y-5675000D02*
X6025000Y-5705000D01*
X6025000Y-7875000D02*
X6055000Y-7905000D01*
X6055000Y-7875000D02*
X6025000Y-7905000D01*
X6065000Y-6125000D02*
X6095000Y-6155000D01*
X6095000Y-6125000D02*
X6065000Y-6155000D01*
X6065000Y-8325000D02*
X6095000Y-8355000D01*
X6095000Y-8325000D02*
X6065000Y-8355000D01*
X6085000Y-5600000D02*
X6115000Y-5630000D01*
X6115000Y-5600000D02*
X6085000Y-5630000D01*
X6085000Y-7800000D02*
X6115000Y-7830000D01*
X6115000Y-7800000D02*
X6085000Y-7830000D01*
X6090000Y-6245000D02*
X6120000Y-6275000D01*
X6120000Y-6245000D02*
X6090000Y-6275000D01*
X6090000Y-8445000D02*
X6120000Y-8475000D01*
X6120000Y-8445000D02*
X6090000Y-8475000D01*
X6105000Y-5805000D02*
X6135000Y-5835000D01*
X6135000Y-5805000D02*
X6105000Y-5835000D01*
X6105000Y-8005000D02*
X6135000Y-8035000D01*
X6135000Y-8005000D02*
X6105000Y-8035000D01*
X6145000Y-5675000D02*
X6175000Y-5705000D01*
X6175000Y-5675000D02*
X6145000Y-5705000D01*
X6145000Y-6025000D02*
X6175000Y-6055000D01*
X6175000Y-6025000D02*
X6145000Y-6055000D01*
X6145000Y-7875000D02*
X6175000Y-7905000D01*
X6175000Y-7875000D02*
X6145000Y-7905000D01*
X6145000Y-8225000D02*
X6175000Y-8255000D01*
X6175000Y-8225000D02*
X6145000Y-8255000D01*
X6190000Y-6835000D02*
X6220000Y-6865000D01*
X6220000Y-6835000D02*
X6190000Y-6865000D01*
X6190000Y-9035000D02*
X6220000Y-9065000D01*
X6220000Y-9035000D02*
X6190000Y-9065000D01*
X6215000Y-5600000D02*
X6245000Y-5630000D01*
X6245000Y-5600000D02*
X6215000Y-5630000D01*
X6215000Y-7800000D02*
X6245000Y-7830000D01*
X6245000Y-7800000D02*
X6215000Y-7830000D01*
X6270000Y-5675000D02*
X6300000Y-5705000D01*
X6300000Y-5675000D02*
X6270000Y-5705000D01*
X6270000Y-7875000D02*
X6300000Y-7905000D01*
X6300000Y-7875000D02*
X6270000Y-7905000D01*
X6300000Y-5770000D02*
X6330000Y-5800000D01*
X6330000Y-5770000D02*
X6300000Y-5800000D01*
X6300000Y-7970000D02*
X6330000Y-8000000D01*
X6330000Y-7970000D02*
X6300000Y-8000000D01*
X6302500Y-5910000D02*
X6332500Y-5940000D01*
X6332500Y-5910000D02*
X6302500Y-5940000D01*
X6302500Y-6000000D02*
X6332500Y-6030000D01*
X6332500Y-6000000D02*
X6302500Y-6030000D01*
X6302500Y-8110000D02*
X6332500Y-8140000D01*
X6332500Y-8110000D02*
X6302500Y-8140000D01*
X6302500Y-8200000D02*
X6332500Y-8230000D01*
X6332500Y-8200000D02*
X6302500Y-8230000D01*
X6310000Y-6835000D02*
X6340000Y-6865000D01*
X6340000Y-6835000D02*
X6310000Y-6865000D01*
X6310000Y-9035000D02*
X6340000Y-9065000D01*
X6340000Y-9035000D02*
X6310000Y-9065000D01*
X6392500Y-5797500D02*
X6422500Y-5827500D01*
X6422500Y-5797500D02*
X6392500Y-5827500D01*
X6392500Y-7997500D02*
X6422500Y-8027500D01*
X6422500Y-7997500D02*
X6392500Y-8027500D01*
X6465000Y-5797500D02*
X6495000Y-5827500D01*
X6495000Y-5797500D02*
X6465000Y-5827500D01*
X6465000Y-7997500D02*
X6495000Y-8027500D01*
X6495000Y-7997500D02*
X6465000Y-8027500D01*
X6550000Y-6835000D02*
X6580000Y-6865000D01*
X6580000Y-6835000D02*
X6550000Y-6865000D01*
X6550000Y-9035000D02*
X6580000Y-9065000D01*
X6580000Y-9035000D02*
X6550000Y-9065000D01*
X6670000Y-6835000D02*
X6700000Y-6865000D01*
X6700000Y-6835000D02*
X6670000Y-6865000D01*
X6670000Y-9035000D02*
X6700000Y-9065000D01*
X6700000Y-9035000D02*
X6670000Y-9065000D01*
X6705000Y-5110000D02*
X6735000Y-5140000D01*
X6735000Y-5110000D02*
X6705000Y-5140000D01*
X6705000Y-5970000D02*
X6735000Y-6000000D01*
X6735000Y-5970000D02*
X6705000Y-6000000D01*
X6705000Y-7310000D02*
X6735000Y-7340000D01*
X6735000Y-7310000D02*
X6705000Y-7340000D01*
X6705000Y-8170000D02*
X6735000Y-8200000D01*
X6735000Y-8170000D02*
X6705000Y-8200000D01*
X6753750Y-6180000D02*
X6783750Y-6210000D01*
X6783750Y-6180000D02*
X6753750Y-6210000D01*
X6753750Y-8380000D02*
X6783750Y-8410000D01*
X6783750Y-8380000D02*
X6753750Y-8410000D01*
X6828750Y-6065000D02*
X6858750Y-6095000D01*
X6858750Y-6065000D02*
X6828750Y-6095000D01*
X6828750Y-8265000D02*
X6858750Y-8295000D01*
X6858750Y-8265000D02*
X6828750Y-8295000D01*
X6945000Y-5110000D02*
X6975000Y-5140000D01*
X6975000Y-5110000D02*
X6945000Y-5140000D01*
X6945000Y-7310000D02*
X6975000Y-7340000D01*
X6975000Y-7310000D02*
X6945000Y-7340000D01*
X7100000Y-5465000D02*
X7130000Y-5495000D01*
X7130000Y-5465000D02*
X7100000Y-5495000D01*
X7100000Y-7665000D02*
X7130000Y-7695000D01*
X7130000Y-7665000D02*
X7100000Y-7695000D01*
X7145000Y-6635000D02*
X7175000Y-6665000D01*
X7175000Y-6635000D02*
X7145000Y-6665000D01*
X7145000Y-6835000D02*
X7175000Y-6865000D01*
X7175000Y-6835000D02*
X7145000Y-6865000D01*
X7145000Y-8835000D02*
X7175000Y-8865000D01*
X7175000Y-8835000D02*
X7145000Y-8865000D01*
X7145000Y-9035000D02*
X7175000Y-9065000D01*
X7175000Y-9035000D02*
X7145000Y-9065000D01*
X7167500Y-5250000D02*
X7197500Y-5280000D01*
X7197500Y-5250000D02*
X7167500Y-5280000D01*
X7167500Y-7450000D02*
X7197500Y-7480000D01*
X7197500Y-7450000D02*
X7167500Y-7480000D01*
X7265000Y-6635000D02*
X7295000Y-6665000D01*
X7295000Y-6635000D02*
X7265000Y-6665000D01*
X7265000Y-6835000D02*
X7295000Y-6865000D01*
X7295000Y-6835000D02*
X7265000Y-6865000D01*
X7265000Y-8835000D02*
X7295000Y-8865000D01*
X7295000Y-8835000D02*
X7265000Y-8865000D01*
X7265000Y-9035000D02*
X7295000Y-9065000D01*
X7295000Y-9035000D02*
X7265000Y-9065000D01*
X7312500Y-5110000D02*
X7342500Y-5140000D01*
X7342500Y-5110000D02*
X7312500Y-5140000D01*
X7312500Y-5390000D02*
X7342500Y-5420000D01*
X7342500Y-5390000D02*
X7312500Y-5420000D01*
X7312500Y-7310000D02*
X7342500Y-7340000D01*
X7342500Y-7310000D02*
X7312500Y-7340000D01*
X7312500Y-7590000D02*
X7342500Y-7620000D01*
X7342500Y-7590000D02*
X7312500Y-7620000D01*
X7447500Y-5250000D02*
X7477500Y-5280000D01*
X7477500Y-5250000D02*
X7447500Y-5280000D01*
X7447500Y-7450000D02*
X7477500Y-7480000D01*
X7477500Y-7450000D02*
X7447500Y-7480000D01*
X7590000Y-6635000D02*
X7620000Y-6665000D01*
X7620000Y-6635000D02*
X7590000Y-6665000D01*
X7590000Y-6835000D02*
X7620000Y-6865000D01*
X7620000Y-6835000D02*
X7590000Y-6865000D01*
X7590000Y-8835000D02*
X7620000Y-8865000D01*
X7620000Y-8835000D02*
X7590000Y-8865000D01*
X7590000Y-9035000D02*
X7620000Y-9065000D01*
X7620000Y-9035000D02*
X7590000Y-9065000D01*
X7710000Y-6635000D02*
X7740000Y-6665000D01*
X7740000Y-6635000D02*
X7710000Y-6665000D01*
X7710000Y-6835000D02*
X7740000Y-6865000D01*
X7740000Y-6835000D02*
X7710000Y-6865000D01*
X7710000Y-8835000D02*
X7740000Y-8865000D01*
X7740000Y-8835000D02*
X7710000Y-8865000D01*
X7710000Y-9035000D02*
X7740000Y-9065000D01*
X7740000Y-9035000D02*
X7710000Y-9065000D01*
X7725000Y-5110000D02*
X7755000Y-5140000D01*
X7755000Y-5110000D02*
X7725000Y-5140000D01*
X7725000Y-5390000D02*
X7755000Y-5420000D01*
X7755000Y-5390000D02*
X7725000Y-5420000D01*
X7725000Y-7310000D02*
X7755000Y-7340000D01*
X7755000Y-7310000D02*
X7725000Y-7340000D01*
X7725000Y-7590000D02*
X7755000Y-7620000D01*
X7755000Y-7590000D02*
X7725000Y-7620000D01*
X8090000Y-6477500D02*
X8120000Y-6507500D01*
X8120000Y-6477500D02*
X8090000Y-6507500D01*
X8090000Y-8677500D02*
X8120000Y-8707500D01*
X8120000Y-8677500D02*
X8090000Y-8707500D01*
X8095000Y-5495000D02*
X8125000Y-5525000D01*
X8125000Y-5495000D02*
X8095000Y-5525000D01*
X8095000Y-7695000D02*
X8125000Y-7725000D01*
X8125000Y-7695000D02*
X8095000Y-7725000D01*
X8225000Y-5265000D02*
X8255000Y-5295000D01*
X8255000Y-5265000D02*
X8225000Y-5295000D01*
X8225000Y-5495000D02*
X8255000Y-5525000D01*
X8255000Y-5495000D02*
X8225000Y-5525000D01*
X8225000Y-7465000D02*
X8255000Y-7495000D01*
X8255000Y-7465000D02*
X8225000Y-7495000D01*
X8225000Y-7695000D02*
X8255000Y-7725000D01*
X8255000Y-7695000D02*
X8225000Y-7725000D01*
X8227500Y-6477500D02*
X8257500Y-6507500D01*
X8257500Y-6477500D02*
X8227500Y-6507500D01*
X8227500Y-8677500D02*
X8257500Y-8707500D01*
X8257500Y-8677500D02*
X8227500Y-8707500D01*
X8355000Y-5985000D02*
X8385000Y-6015000D01*
X8385000Y-5985000D02*
X8355000Y-6015000D01*
X8355000Y-8185000D02*
X8385000Y-8215000D01*
X8385000Y-8185000D02*
X8355000Y-8215000D01*
X8405000Y-5595000D02*
X8435000Y-5625000D01*
X8435000Y-5595000D02*
X8405000Y-5625000D01*
X8405000Y-7795000D02*
X8435000Y-7825000D01*
X8435000Y-7795000D02*
X8405000Y-7825000D01*
X8445000Y-5195000D02*
X8475000Y-5225000D01*
X8475000Y-5195000D02*
X8445000Y-5225000D01*
X8445000Y-7395000D02*
X8475000Y-7425000D01*
X8475000Y-7395000D02*
X8445000Y-7425000D01*
X8455000Y-5425000D02*
X8485000Y-5455000D01*
X8485000Y-5425000D02*
X8455000Y-5455000D01*
X8455000Y-6465000D02*
X8485000Y-6495000D01*
X8485000Y-6465000D02*
X8455000Y-6495000D01*
X8455000Y-6655000D02*
X8485000Y-6685000D01*
X8485000Y-6655000D02*
X8455000Y-6685000D01*
X8455000Y-6865000D02*
X8485000Y-6895000D01*
X8485000Y-6865000D02*
X8455000Y-6895000D01*
X8455000Y-7625000D02*
X8485000Y-7655000D01*
X8485000Y-7625000D02*
X8455000Y-7655000D01*
X8455000Y-8665000D02*
X8485000Y-8695000D01*
X8485000Y-8665000D02*
X8455000Y-8695000D01*
X8455000Y-8855000D02*
X8485000Y-8885000D01*
X8485000Y-8855000D02*
X8455000Y-8885000D01*
X8455000Y-9065000D02*
X8485000Y-9095000D01*
X8485000Y-9065000D02*
X8455000Y-9095000D01*
X8635000Y-6495000D02*
X8665000Y-6525000D01*
X8665000Y-6495000D02*
X8635000Y-6525000D01*
X8635000Y-6695000D02*
X8665000Y-6725000D01*
X8665000Y-6695000D02*
X8635000Y-6725000D01*
X8635000Y-8695000D02*
X8665000Y-8725000D01*
X8665000Y-8695000D02*
X8635000Y-8725000D01*
X8635000Y-8895000D02*
X8665000Y-8925000D01*
X8665000Y-8895000D02*
X8635000Y-8925000D01*
X8695000Y-5425000D02*
X8725000Y-5455000D01*
X8725000Y-5425000D02*
X8695000Y-5455000D01*
X8695000Y-7625000D02*
X8725000Y-7655000D01*
X8725000Y-7625000D02*
X8695000Y-7655000D01*
X8725000Y-5615000D02*
X8755000Y-5645000D01*
X8755000Y-5615000D02*
X8725000Y-5645000D01*
X8725000Y-5765000D02*
X8755000Y-5795000D01*
X8755000Y-5765000D02*
X8725000Y-5795000D01*
X8725000Y-7815000D02*
X8755000Y-7845000D01*
X8755000Y-7815000D02*
X8725000Y-7845000D01*
X8725000Y-7965000D02*
X8755000Y-7995000D01*
X8755000Y-7965000D02*
X8725000Y-7995000D01*
X8765000Y-6285000D02*
X8795000Y-6315000D01*
X8795000Y-6285000D02*
X8765000Y-6315000D01*
X8765000Y-8485000D02*
X8795000Y-8515000D01*
X8795000Y-8485000D02*
X8765000Y-8515000D01*
X8805000Y-6105000D02*
X8835000Y-6135000D01*
X8835000Y-6105000D02*
X8805000Y-6135000D01*
X8805000Y-8305000D02*
X8835000Y-8335000D01*
X8835000Y-8305000D02*
X8805000Y-8335000D01*
X8975000Y-5425000D02*
X9005000Y-5455000D01*
X9005000Y-5425000D02*
X8975000Y-5455000D01*
X8975000Y-7625000D02*
X9005000Y-7655000D01*
X9005000Y-7625000D02*
X8975000Y-7655000D01*
X5815000Y-5185000D02*
G75*
G02*
X5775000Y-5185000I-20000J0D01*
G01*
X5775000Y-5185000D02*
G75*
G02*
X5815000Y-5185000I20000J0D01*
G01*
X5815000Y-7385000D02*
G75*
G02*
X5775000Y-7385000I-20000J0D01*
G01*
X5775000Y-7385000D02*
G75*
G02*
X5815000Y-7385000I20000J0D01*
G01*
X6165000Y-5465000D02*
G75*
G02*
X6125000Y-5465000I-20000J0D01*
G01*
X6125000Y-5465000D02*
G75*
G02*
X6165000Y-5465000I20000J0D01*
G01*
X6165000Y-7665000D02*
G75*
G02*
X6125000Y-7665000I-20000J0D01*
G01*
X6125000Y-7665000D02*
G75*
G02*
X6165000Y-7665000I20000J0D01*
G01*
X6203750Y-5191250D02*
G75*
G02*
X6163750Y-5191250I-20000J0D01*
G01*
X6163750Y-5191250D02*
G75*
G02*
X6203750Y-5191250I20000J0D01*
G01*
X6203750Y-7391250D02*
G75*
G02*
X6163750Y-7391250I-20000J0D01*
G01*
X6163750Y-7391250D02*
G75*
G02*
X6203750Y-7391250I20000J0D01*
G01*
X6428750Y-5345000D02*
G75*
G02*
X6388750Y-5345000I-20000J0D01*
G01*
X6388750Y-5345000D02*
G75*
G02*
X6428750Y-5345000I20000J0D01*
G01*
X6428750Y-7545000D02*
G75*
G02*
X6388750Y-7545000I-20000J0D01*
G01*
X6388750Y-7545000D02*
G75*
G02*
X6428750Y-7545000I20000J0D01*
G01*
X6455000Y-6295000D02*
G75*
G02*
X6415000Y-6295000I-20000J0D01*
G01*
X6415000Y-6295000D02*
G75*
G02*
X6455000Y-6295000I20000J0D01*
G01*
X6455000Y-8495000D02*
G75*
G02*
X6415000Y-8495000I-20000J0D01*
G01*
X6415000Y-8495000D02*
G75*
G02*
X6455000Y-8495000I20000J0D01*
G01*
X6598750Y-5583750D02*
G75*
G02*
X6558750Y-5583750I-20000J0D01*
G01*
X6558750Y-5583750D02*
G75*
G02*
X6598750Y-5583750I20000J0D01*
G01*
X6598750Y-7783750D02*
G75*
G02*
X6558750Y-7783750I-20000J0D01*
G01*
X6558750Y-7783750D02*
G75*
G02*
X6598750Y-7783750I20000J0D01*
G01*
X6843750Y-5505000D02*
G75*
G02*
X6803750Y-5505000I-20000J0D01*
G01*
X6803750Y-5505000D02*
G75*
G02*
X6843750Y-5505000I20000J0D01*
G01*
X6843750Y-7705000D02*
G75*
G02*
X6803750Y-7705000I-20000J0D01*
G01*
X6803750Y-7705000D02*
G75*
G02*
X6843750Y-7705000I20000J0D01*
G01*
X6873750Y-6570000D02*
G75*
G02*
X6833750Y-6570000I-20000J0D01*
G01*
X6833750Y-6570000D02*
G75*
G02*
X6873750Y-6570000I20000J0D01*
G01*
X6873750Y-8770000D02*
G75*
G02*
X6833750Y-8770000I-20000J0D01*
G01*
X6833750Y-8770000D02*
G75*
G02*
X6873750Y-8770000I20000J0D01*
G01*
X8235000Y-6750000D02*
G75*
G02*
X8195000Y-6750000I-20000J0D01*
G01*
X8195000Y-6750000D02*
G75*
G02*
X8235000Y-6750000I20000J0D01*
G01*
X8235000Y-8950000D02*
G75*
G02*
X8195000Y-8950000I-20000J0D01*
G01*
X8195000Y-8950000D02*
G75*
G02*
X8235000Y-8950000I20000J0D01*
G01*
X5695000Y-6400000D02*
X5695000Y-6480000D01*
X5655000Y-6440000D02*
X5735000Y-6440000D01*
X5695000Y-8600000D02*
X5695000Y-8680000D01*
X5655000Y-8640000D02*
X5735000Y-8640000D01*
X5945000Y-6400000D02*
X5945000Y-6480000D01*
X5905000Y-6440000D02*
X5985000Y-6440000D01*
X5945000Y-8600000D02*
X5945000Y-8680000D01*
X5905000Y-8640000D02*
X5985000Y-8640000D01*
X8560000Y-5760000D02*
X8560000Y-5840000D01*
X8520000Y-5800000D02*
X8600000Y-5800000D01*
X8560000Y-5960000D02*
X8560000Y-6040000D01*
X8520000Y-6000000D02*
X8600000Y-6000000D01*
X8560000Y-6160000D02*
X8560000Y-6240000D01*
X8520000Y-6200000D02*
X8600000Y-6200000D01*
X8560000Y-7960000D02*
X8560000Y-8040000D01*
X8520000Y-8000000D02*
X8600000Y-8000000D01*
X8560000Y-8160000D02*
X8560000Y-8240000D01*
X8520000Y-8200000D02*
X8600000Y-8200000D01*
X8560000Y-8360000D02*
X8560000Y-8440000D01*
X8520000Y-8400000D02*
X8600000Y-8400000D01*
X5285356Y-5273356D02*
X5285356Y-5202644D01*
X5214644Y-5202644D01*
X5214644Y-5273356D01*
X5285356Y-5273356D01*
X5285356Y-5527356D02*
X5285356Y-5456644D01*
X5214644Y-5456644D01*
X5214644Y-5527356D01*
X5285356Y-5527356D01*
X5285356Y-6543356D02*
X5285356Y-6472644D01*
X5214644Y-6472644D01*
X5214644Y-6543356D01*
X5285356Y-6543356D01*
X5285356Y-6797356D02*
X5285356Y-6726644D01*
X5214644Y-6726644D01*
X5214644Y-6797356D01*
X5285356Y-6797356D01*
X5285356Y-7473356D02*
X5285356Y-7402644D01*
X5214644Y-7402644D01*
X5214644Y-7473356D01*
X5285356Y-7473356D01*
X5285356Y-7727356D02*
X5285356Y-7656644D01*
X5214644Y-7656644D01*
X5214644Y-7727356D01*
X5285356Y-7727356D01*
X5285356Y-8743356D02*
X5285356Y-8672644D01*
X5214644Y-8672644D01*
X5214644Y-8743356D01*
X5285356Y-8743356D01*
X5285356Y-8997356D02*
X5285356Y-8926644D01*
X5214644Y-8926644D01*
X5214644Y-8997356D01*
X5285356Y-8997356D01*
X8721356Y-5273356D02*
X8721356Y-5202644D01*
X8650644Y-5202644D01*
X8650644Y-5273356D01*
X8721356Y-5273356D01*
X8721356Y-7473356D02*
X8721356Y-7402644D01*
X8650644Y-7402644D01*
X8650644Y-7473356D01*
X8721356Y-7473356D01*
X8975356Y-5781356D02*
X8975356Y-5710644D01*
X8904644Y-5710644D01*
X8904644Y-5781356D01*
X8975356Y-5781356D01*
X8975356Y-6035356D02*
X8975356Y-5964644D01*
X8904644Y-5964644D01*
X8904644Y-6035356D01*
X8975356Y-6035356D01*
X8975356Y-6543356D02*
X8975356Y-6472644D01*
X8904644Y-6472644D01*
X8904644Y-6543356D01*
X8975356Y-6543356D01*
X8975356Y-6797356D02*
X8975356Y-6726644D01*
X8904644Y-6726644D01*
X8904644Y-6797356D01*
X8975356Y-6797356D01*
X8975356Y-7981356D02*
X8975356Y-7910644D01*
X8904644Y-7910644D01*
X8904644Y-7981356D01*
X8975356Y-7981356D01*
X8975356Y-8235356D02*
X8975356Y-8164644D01*
X8904644Y-8164644D01*
X8904644Y-8235356D01*
X8975356Y-8235356D01*
X8975356Y-8743356D02*
X8975356Y-8672644D01*
X8904644Y-8672644D01*
X8904644Y-8743356D01*
X8975356Y-8743356D01*
X8975356Y-8997356D02*
X8975356Y-8926644D01*
X8904644Y-8926644D01*
X8904644Y-8997356D01*
X8975356Y-8997356D01*
X8975356Y-5273356D02*
X8975356Y-5202644D01*
X8904644Y-5202644D01*
X8904644Y-5273356D01*
X8975356Y-5273356D01*
X8975356Y-7473356D02*
X8975356Y-7402644D01*
X8904644Y-7402644D01*
X8904644Y-7473356D01*
X8975356Y-7473356D01*
D11*
X5358277Y-10413984D02*
X5358277Y-10213984D01*
X5358277Y-10213984D02*
X5405896Y-10213984D01*
X5405896Y-10213984D02*
X5434467Y-10223507D01*
X5434467Y-10223507D02*
X5453515Y-10242555D01*
X5453515Y-10242555D02*
X5463039Y-10261603D01*
X5463039Y-10261603D02*
X5472562Y-10299698D01*
X5472562Y-10299698D02*
X5472562Y-10328269D01*
X5472562Y-10328269D02*
X5463039Y-10366365D01*
X5463039Y-10366365D02*
X5453515Y-10385412D01*
X5453515Y-10385412D02*
X5434467Y-10404460D01*
X5434467Y-10404460D02*
X5405896Y-10413984D01*
X5405896Y-10413984D02*
X5358277Y-10413984D01*
X5558277Y-10413984D02*
X5558277Y-10280650D01*
X5558277Y-10318746D02*
X5567801Y-10299698D01*
X5567801Y-10299698D02*
X5577324Y-10290174D01*
X5577324Y-10290174D02*
X5596372Y-10280650D01*
X5596372Y-10280650D02*
X5615420Y-10280650D01*
X5682086Y-10413984D02*
X5682086Y-10280650D01*
X5682086Y-10213984D02*
X5672562Y-10223507D01*
X5672562Y-10223507D02*
X5682086Y-10233031D01*
X5682086Y-10233031D02*
X5691610Y-10223507D01*
X5691610Y-10223507D02*
X5682086Y-10213984D01*
X5682086Y-10213984D02*
X5682086Y-10233031D01*
X5805896Y-10413984D02*
X5786848Y-10404460D01*
X5786848Y-10404460D02*
X5777324Y-10385412D01*
X5777324Y-10385412D02*
X5777324Y-10213984D01*
X5910658Y-10413984D02*
X5891610Y-10404460D01*
X5891610Y-10404460D02*
X5882086Y-10385412D01*
X5882086Y-10385412D02*
X5882086Y-10213984D01*
X6139229Y-10413984D02*
X6139229Y-10213984D01*
X6139229Y-10213984D02*
X6205896Y-10356841D01*
X6205896Y-10356841D02*
X6272562Y-10213984D01*
X6272562Y-10213984D02*
X6272562Y-10413984D01*
X6453515Y-10413984D02*
X6453515Y-10309222D01*
X6453515Y-10309222D02*
X6443991Y-10290174D01*
X6443991Y-10290174D02*
X6424943Y-10280650D01*
X6424943Y-10280650D02*
X6386848Y-10280650D01*
X6386848Y-10280650D02*
X6367800Y-10290174D01*
X6453515Y-10404460D02*
X6434467Y-10413984D01*
X6434467Y-10413984D02*
X6386848Y-10413984D01*
X6386848Y-10413984D02*
X6367800Y-10404460D01*
X6367800Y-10404460D02*
X6358277Y-10385412D01*
X6358277Y-10385412D02*
X6358277Y-10366365D01*
X6358277Y-10366365D02*
X6367800Y-10347317D01*
X6367800Y-10347317D02*
X6386848Y-10337793D01*
X6386848Y-10337793D02*
X6434467Y-10337793D01*
X6434467Y-10337793D02*
X6453515Y-10328269D01*
X6548753Y-10280650D02*
X6548753Y-10480650D01*
X6548753Y-10290174D02*
X6567800Y-10280650D01*
X6567800Y-10280650D02*
X6605896Y-10280650D01*
X6605896Y-10280650D02*
X6624943Y-10290174D01*
X6624943Y-10290174D02*
X6634467Y-10299698D01*
X6634467Y-10299698D02*
X6643991Y-10318746D01*
X6643991Y-10318746D02*
X6643991Y-10375888D01*
X6643991Y-10375888D02*
X6634467Y-10394936D01*
X6634467Y-10394936D02*
X6624943Y-10404460D01*
X6624943Y-10404460D02*
X6605896Y-10413984D01*
X6605896Y-10413984D02*
X6567800Y-10413984D01*
X6567800Y-10413984D02*
X6548753Y-10404460D01*
X6729705Y-10394936D02*
X6739229Y-10404460D01*
X6739229Y-10404460D02*
X6729705Y-10413984D01*
X6729705Y-10413984D02*
X6720181Y-10404460D01*
X6720181Y-10404460D02*
X6729705Y-10394936D01*
X6729705Y-10394936D02*
X6729705Y-10413984D01*
X6729705Y-10290174D02*
X6739229Y-10299698D01*
X6739229Y-10299698D02*
X6729705Y-10309222D01*
X6729705Y-10309222D02*
X6720181Y-10299698D01*
X6720181Y-10299698D02*
X6729705Y-10290174D01*
X6729705Y-10290174D02*
X6729705Y-10309222D01*
D12*
X5067500Y-10727500D02*
X5097500Y-10757500D01*
X5097500Y-10727500D02*
X5067500Y-10757500D01*
D11*
X5396372Y-10633984D02*
X5415420Y-10633984D01*
X5415420Y-10633984D02*
X5434467Y-10643507D01*
X5434467Y-10643507D02*
X5443991Y-10653031D01*
X5443991Y-10653031D02*
X5453515Y-10672079D01*
X5453515Y-10672079D02*
X5463039Y-10710174D01*
X5463039Y-10710174D02*
X5463039Y-10757793D01*
X5463039Y-10757793D02*
X5453515Y-10795888D01*
X5453515Y-10795888D02*
X5443991Y-10814936D01*
X5443991Y-10814936D02*
X5434467Y-10824460D01*
X5434467Y-10824460D02*
X5415420Y-10833984D01*
X5415420Y-10833984D02*
X5396372Y-10833984D01*
X5396372Y-10833984D02*
X5377324Y-10824460D01*
X5377324Y-10824460D02*
X5367801Y-10814936D01*
X5367801Y-10814936D02*
X5358277Y-10795888D01*
X5358277Y-10795888D02*
X5348753Y-10757793D01*
X5348753Y-10757793D02*
X5348753Y-10710174D01*
X5348753Y-10710174D02*
X5358277Y-10672079D01*
X5358277Y-10672079D02*
X5367801Y-10653031D01*
X5367801Y-10653031D02*
X5377324Y-10643507D01*
X5377324Y-10643507D02*
X5396372Y-10633984D01*
X5548753Y-10814936D02*
X5558277Y-10824460D01*
X5558277Y-10824460D02*
X5548753Y-10833984D01*
X5548753Y-10833984D02*
X5539229Y-10824460D01*
X5539229Y-10824460D02*
X5548753Y-10814936D01*
X5548753Y-10814936D02*
X5548753Y-10833984D01*
X5624943Y-10633984D02*
X5748753Y-10633984D01*
X5748753Y-10633984D02*
X5682086Y-10710174D01*
X5682086Y-10710174D02*
X5710658Y-10710174D01*
X5710658Y-10710174D02*
X5729705Y-10719698D01*
X5729705Y-10719698D02*
X5739229Y-10729222D01*
X5739229Y-10729222D02*
X5748753Y-10748269D01*
X5748753Y-10748269D02*
X5748753Y-10795888D01*
X5748753Y-10795888D02*
X5739229Y-10814936D01*
X5739229Y-10814936D02*
X5729705Y-10824460D01*
X5729705Y-10824460D02*
X5710658Y-10833984D01*
X5710658Y-10833984D02*
X5653515Y-10833984D01*
X5653515Y-10833984D02*
X5634467Y-10824460D01*
X5634467Y-10824460D02*
X5624943Y-10814936D01*
X5872562Y-10633984D02*
X5891610Y-10633984D01*
X5891610Y-10633984D02*
X5910658Y-10643507D01*
X5910658Y-10643507D02*
X5920181Y-10653031D01*
X5920181Y-10653031D02*
X5929705Y-10672079D01*
X5929705Y-10672079D02*
X5939229Y-10710174D01*
X5939229Y-10710174D02*
X5939229Y-10757793D01*
X5939229Y-10757793D02*
X5929705Y-10795888D01*
X5929705Y-10795888D02*
X5920181Y-10814936D01*
X5920181Y-10814936D02*
X5910658Y-10824460D01*
X5910658Y-10824460D02*
X5891610Y-10833984D01*
X5891610Y-10833984D02*
X5872562Y-10833984D01*
X5872562Y-10833984D02*
X5853515Y-10824460D01*
X5853515Y-10824460D02*
X5843991Y-10814936D01*
X5843991Y-10814936D02*
X5834467Y-10795888D01*
X5834467Y-10795888D02*
X5824943Y-10757793D01*
X5824943Y-10757793D02*
X5824943Y-10710174D01*
X5824943Y-10710174D02*
X5834467Y-10672079D01*
X5834467Y-10672079D02*
X5843991Y-10653031D01*
X5843991Y-10653031D02*
X5853515Y-10643507D01*
X5853515Y-10643507D02*
X5872562Y-10633984D01*
X6063039Y-10633984D02*
X6082086Y-10633984D01*
X6082086Y-10633984D02*
X6101134Y-10643507D01*
X6101134Y-10643507D02*
X6110658Y-10653031D01*
X6110658Y-10653031D02*
X6120181Y-10672079D01*
X6120181Y-10672079D02*
X6129705Y-10710174D01*
X6129705Y-10710174D02*
X6129705Y-10757793D01*
X6129705Y-10757793D02*
X6120181Y-10795888D01*
X6120181Y-10795888D02*
X6110658Y-10814936D01*
X6110658Y-10814936D02*
X6101134Y-10824460D01*
X6101134Y-10824460D02*
X6082086Y-10833984D01*
X6082086Y-10833984D02*
X6063039Y-10833984D01*
X6063039Y-10833984D02*
X6043991Y-10824460D01*
X6043991Y-10824460D02*
X6034467Y-10814936D01*
X6034467Y-10814936D02*
X6024943Y-10795888D01*
X6024943Y-10795888D02*
X6015420Y-10757793D01*
X6015420Y-10757793D02*
X6015420Y-10710174D01*
X6015420Y-10710174D02*
X6024943Y-10672079D01*
X6024943Y-10672079D02*
X6034467Y-10653031D01*
X6034467Y-10653031D02*
X6043991Y-10643507D01*
X6043991Y-10643507D02*
X6063039Y-10633984D01*
X6215420Y-10833984D02*
X6215420Y-10700650D01*
X6215420Y-10719698D02*
X6224943Y-10710174D01*
X6224943Y-10710174D02*
X6243991Y-10700650D01*
X6243991Y-10700650D02*
X6272562Y-10700650D01*
X6272562Y-10700650D02*
X6291610Y-10710174D01*
X6291610Y-10710174D02*
X6301134Y-10729222D01*
X6301134Y-10729222D02*
X6301134Y-10833984D01*
X6301134Y-10729222D02*
X6310658Y-10710174D01*
X6310658Y-10710174D02*
X6329705Y-10700650D01*
X6329705Y-10700650D02*
X6358277Y-10700650D01*
X6358277Y-10700650D02*
X6377324Y-10710174D01*
X6377324Y-10710174D02*
X6386848Y-10729222D01*
X6386848Y-10729222D02*
X6386848Y-10833984D01*
X6482086Y-10833984D02*
X6482086Y-10700650D01*
X6482086Y-10719698D02*
X6491610Y-10710174D01*
X6491610Y-10710174D02*
X6510658Y-10700650D01*
X6510658Y-10700650D02*
X6539229Y-10700650D01*
X6539229Y-10700650D02*
X6558277Y-10710174D01*
X6558277Y-10710174D02*
X6567801Y-10729222D01*
X6567801Y-10729222D02*
X6567801Y-10833984D01*
X6567801Y-10729222D02*
X6577324Y-10710174D01*
X6577324Y-10710174D02*
X6596372Y-10700650D01*
X6596372Y-10700650D02*
X6624943Y-10700650D01*
X6624943Y-10700650D02*
X6643991Y-10710174D01*
X6643991Y-10710174D02*
X6653515Y-10729222D01*
X6653515Y-10729222D02*
X6653515Y-10833984D01*
X7043991Y-10624460D02*
X6872563Y-10881603D01*
X7301134Y-10633984D02*
X7320182Y-10633984D01*
X7320182Y-10633984D02*
X7339229Y-10643507D01*
X7339229Y-10643507D02*
X7348753Y-10653031D01*
X7348753Y-10653031D02*
X7358277Y-10672079D01*
X7358277Y-10672079D02*
X7367801Y-10710174D01*
X7367801Y-10710174D02*
X7367801Y-10757793D01*
X7367801Y-10757793D02*
X7358277Y-10795888D01*
X7358277Y-10795888D02*
X7348753Y-10814936D01*
X7348753Y-10814936D02*
X7339229Y-10824460D01*
X7339229Y-10824460D02*
X7320182Y-10833984D01*
X7320182Y-10833984D02*
X7301134Y-10833984D01*
X7301134Y-10833984D02*
X7282086Y-10824460D01*
X7282086Y-10824460D02*
X7272563Y-10814936D01*
X7272563Y-10814936D02*
X7263039Y-10795888D01*
X7263039Y-10795888D02*
X7253515Y-10757793D01*
X7253515Y-10757793D02*
X7253515Y-10710174D01*
X7253515Y-10710174D02*
X7263039Y-10672079D01*
X7263039Y-10672079D02*
X7272563Y-10653031D01*
X7272563Y-10653031D02*
X7282086Y-10643507D01*
X7282086Y-10643507D02*
X7301134Y-10633984D01*
X7453515Y-10814936D02*
X7463039Y-10824460D01*
X7463039Y-10824460D02*
X7453515Y-10833984D01*
X7453515Y-10833984D02*
X7443991Y-10824460D01*
X7443991Y-10824460D02*
X7453515Y-10814936D01*
X7453515Y-10814936D02*
X7453515Y-10833984D01*
X7586848Y-10633984D02*
X7605896Y-10633984D01*
X7605896Y-10633984D02*
X7624944Y-10643507D01*
X7624944Y-10643507D02*
X7634467Y-10653031D01*
X7634467Y-10653031D02*
X7643991Y-10672079D01*
X7643991Y-10672079D02*
X7653515Y-10710174D01*
X7653515Y-10710174D02*
X7653515Y-10757793D01*
X7653515Y-10757793D02*
X7643991Y-10795888D01*
X7643991Y-10795888D02*
X7634467Y-10814936D01*
X7634467Y-10814936D02*
X7624944Y-10824460D01*
X7624944Y-10824460D02*
X7605896Y-10833984D01*
X7605896Y-10833984D02*
X7586848Y-10833984D01*
X7586848Y-10833984D02*
X7567801Y-10824460D01*
X7567801Y-10824460D02*
X7558277Y-10814936D01*
X7558277Y-10814936D02*
X7548753Y-10795888D01*
X7548753Y-10795888D02*
X7539229Y-10757793D01*
X7539229Y-10757793D02*
X7539229Y-10710174D01*
X7539229Y-10710174D02*
X7548753Y-10672079D01*
X7548753Y-10672079D02*
X7558277Y-10653031D01*
X7558277Y-10653031D02*
X7567801Y-10643507D01*
X7567801Y-10643507D02*
X7586848Y-10633984D01*
X7843991Y-10833984D02*
X7729705Y-10833984D01*
X7786848Y-10833984D02*
X7786848Y-10633984D01*
X7786848Y-10633984D02*
X7767801Y-10662555D01*
X7767801Y-10662555D02*
X7748753Y-10681603D01*
X7748753Y-10681603D02*
X7729705Y-10691126D01*
X8034467Y-10833984D02*
X7920182Y-10833984D01*
X7977324Y-10833984D02*
X7977324Y-10633984D01*
X7977324Y-10633984D02*
X7958277Y-10662555D01*
X7958277Y-10662555D02*
X7939229Y-10681603D01*
X7939229Y-10681603D02*
X7920182Y-10691126D01*
X8148753Y-10719698D02*
X8129705Y-10710174D01*
X8129705Y-10710174D02*
X8120182Y-10700650D01*
X8120182Y-10700650D02*
X8110658Y-10681603D01*
X8110658Y-10681603D02*
X8110658Y-10672079D01*
X8110658Y-10672079D02*
X8120182Y-10653031D01*
X8120182Y-10653031D02*
X8129705Y-10643507D01*
X8129705Y-10643507D02*
X8148753Y-10633984D01*
X8148753Y-10633984D02*
X8186848Y-10633984D01*
X8186848Y-10633984D02*
X8205896Y-10643507D01*
X8205896Y-10643507D02*
X8215420Y-10653031D01*
X8215420Y-10653031D02*
X8224944Y-10672079D01*
X8224944Y-10672079D02*
X8224944Y-10681603D01*
X8224944Y-10681603D02*
X8215420Y-10700650D01*
X8215420Y-10700650D02*
X8205896Y-10710174D01*
X8205896Y-10710174D02*
X8186848Y-10719698D01*
X8186848Y-10719698D02*
X8148753Y-10719698D01*
X8148753Y-10719698D02*
X8129705Y-10729222D01*
X8129705Y-10729222D02*
X8120182Y-10738746D01*
X8120182Y-10738746D02*
X8110658Y-10757793D01*
X8110658Y-10757793D02*
X8110658Y-10795888D01*
X8110658Y-10795888D02*
X8120182Y-10814936D01*
X8120182Y-10814936D02*
X8129705Y-10824460D01*
X8129705Y-10824460D02*
X8148753Y-10833984D01*
X8148753Y-10833984D02*
X8186848Y-10833984D01*
X8186848Y-10833984D02*
X8205896Y-10824460D01*
X8205896Y-10824460D02*
X8215420Y-10814936D01*
X8215420Y-10814936D02*
X8224944Y-10795888D01*
X8224944Y-10795888D02*
X8224944Y-10757793D01*
X8224944Y-10757793D02*
X8215420Y-10738746D01*
X8215420Y-10738746D02*
X8205896Y-10729222D01*
X8205896Y-10729222D02*
X8186848Y-10719698D01*
X8301134Y-10633984D02*
X8301134Y-10672079D01*
X8377325Y-10633984D02*
X8377325Y-10672079D01*
X8672563Y-10910174D02*
X8663039Y-10900650D01*
X8663039Y-10900650D02*
X8643991Y-10872079D01*
X8643991Y-10872079D02*
X8634468Y-10853031D01*
X8634468Y-10853031D02*
X8624944Y-10824460D01*
X8624944Y-10824460D02*
X8615420Y-10776841D01*
X8615420Y-10776841D02*
X8615420Y-10738746D01*
X8615420Y-10738746D02*
X8624944Y-10691126D01*
X8624944Y-10691126D02*
X8634468Y-10662555D01*
X8634468Y-10662555D02*
X8643991Y-10643507D01*
X8643991Y-10643507D02*
X8663039Y-10614936D01*
X8663039Y-10614936D02*
X8672563Y-10605412D01*
X8853515Y-10833984D02*
X8739229Y-10833984D01*
X8796372Y-10833984D02*
X8796372Y-10633984D01*
X8796372Y-10633984D02*
X8777325Y-10662555D01*
X8777325Y-10662555D02*
X8758277Y-10681603D01*
X8758277Y-10681603D02*
X8739229Y-10691126D01*
X9024944Y-10633984D02*
X8986848Y-10633984D01*
X8986848Y-10633984D02*
X8967801Y-10643507D01*
X8967801Y-10643507D02*
X8958277Y-10653031D01*
X8958277Y-10653031D02*
X8939229Y-10681603D01*
X8939229Y-10681603D02*
X8929706Y-10719698D01*
X8929706Y-10719698D02*
X8929706Y-10795888D01*
X8929706Y-10795888D02*
X8939229Y-10814936D01*
X8939229Y-10814936D02*
X8948753Y-10824460D01*
X8948753Y-10824460D02*
X8967801Y-10833984D01*
X8967801Y-10833984D02*
X9005896Y-10833984D01*
X9005896Y-10833984D02*
X9024944Y-10824460D01*
X9024944Y-10824460D02*
X9034468Y-10814936D01*
X9034468Y-10814936D02*
X9043991Y-10795888D01*
X9043991Y-10795888D02*
X9043991Y-10748269D01*
X9043991Y-10748269D02*
X9034468Y-10729222D01*
X9034468Y-10729222D02*
X9024944Y-10719698D01*
X9024944Y-10719698D02*
X9005896Y-10710174D01*
X9005896Y-10710174D02*
X8967801Y-10710174D01*
X8967801Y-10710174D02*
X8948753Y-10719698D01*
X8948753Y-10719698D02*
X8939229Y-10729222D01*
X8939229Y-10729222D02*
X8929706Y-10748269D01*
X9215420Y-10700650D02*
X9215420Y-10833984D01*
X9167801Y-10624460D02*
X9120182Y-10767317D01*
X9120182Y-10767317D02*
X9243991Y-10767317D01*
X9472563Y-10833984D02*
X9472563Y-10633984D01*
X9558277Y-10833984D02*
X9558277Y-10729222D01*
X9558277Y-10729222D02*
X9548753Y-10710174D01*
X9548753Y-10710174D02*
X9529706Y-10700650D01*
X9529706Y-10700650D02*
X9501134Y-10700650D01*
X9501134Y-10700650D02*
X9482087Y-10710174D01*
X9482087Y-10710174D02*
X9472563Y-10719698D01*
X9682087Y-10833984D02*
X9663039Y-10824460D01*
X9663039Y-10824460D02*
X9653515Y-10814936D01*
X9653515Y-10814936D02*
X9643991Y-10795888D01*
X9643991Y-10795888D02*
X9643991Y-10738746D01*
X9643991Y-10738746D02*
X9653515Y-10719698D01*
X9653515Y-10719698D02*
X9663039Y-10710174D01*
X9663039Y-10710174D02*
X9682087Y-10700650D01*
X9682087Y-10700650D02*
X9710658Y-10700650D01*
X9710658Y-10700650D02*
X9729706Y-10710174D01*
X9729706Y-10710174D02*
X9739230Y-10719698D01*
X9739230Y-10719698D02*
X9748753Y-10738746D01*
X9748753Y-10738746D02*
X9748753Y-10795888D01*
X9748753Y-10795888D02*
X9739230Y-10814936D01*
X9739230Y-10814936D02*
X9729706Y-10824460D01*
X9729706Y-10824460D02*
X9710658Y-10833984D01*
X9710658Y-10833984D02*
X9682087Y-10833984D01*
X9863039Y-10833984D02*
X9843991Y-10824460D01*
X9843991Y-10824460D02*
X9834468Y-10805412D01*
X9834468Y-10805412D02*
X9834468Y-10633984D01*
X10015420Y-10824460D02*
X9996372Y-10833984D01*
X9996372Y-10833984D02*
X9958277Y-10833984D01*
X9958277Y-10833984D02*
X9939230Y-10824460D01*
X9939230Y-10824460D02*
X9929706Y-10805412D01*
X9929706Y-10805412D02*
X9929706Y-10729222D01*
X9929706Y-10729222D02*
X9939230Y-10710174D01*
X9939230Y-10710174D02*
X9958277Y-10700650D01*
X9958277Y-10700650D02*
X9996372Y-10700650D01*
X9996372Y-10700650D02*
X10015420Y-10710174D01*
X10015420Y-10710174D02*
X10024944Y-10729222D01*
X10024944Y-10729222D02*
X10024944Y-10748269D01*
X10024944Y-10748269D02*
X9929706Y-10767317D01*
X10101134Y-10824460D02*
X10120182Y-10833984D01*
X10120182Y-10833984D02*
X10158277Y-10833984D01*
X10158277Y-10833984D02*
X10177325Y-10824460D01*
X10177325Y-10824460D02*
X10186849Y-10805412D01*
X10186849Y-10805412D02*
X10186849Y-10795888D01*
X10186849Y-10795888D02*
X10177325Y-10776841D01*
X10177325Y-10776841D02*
X10158277Y-10767317D01*
X10158277Y-10767317D02*
X10129706Y-10767317D01*
X10129706Y-10767317D02*
X10110658Y-10757793D01*
X10110658Y-10757793D02*
X10101134Y-10738746D01*
X10101134Y-10738746D02*
X10101134Y-10729222D01*
X10101134Y-10729222D02*
X10110658Y-10710174D01*
X10110658Y-10710174D02*
X10129706Y-10700650D01*
X10129706Y-10700650D02*
X10158277Y-10700650D01*
X10158277Y-10700650D02*
X10177325Y-10710174D01*
X10253515Y-10910174D02*
X10263039Y-10900650D01*
X10263039Y-10900650D02*
X10282087Y-10872079D01*
X10282087Y-10872079D02*
X10291611Y-10853031D01*
X10291611Y-10853031D02*
X10301134Y-10824460D01*
X10301134Y-10824460D02*
X10310658Y-10776841D01*
X10310658Y-10776841D02*
X10310658Y-10738746D01*
X10310658Y-10738746D02*
X10301134Y-10691126D01*
X10301134Y-10691126D02*
X10291611Y-10662555D01*
X10291611Y-10662555D02*
X10282087Y-10643507D01*
X10282087Y-10643507D02*
X10263039Y-10614936D01*
X10263039Y-10614936D02*
X10253515Y-10605412D01*
D12*
X5097500Y-11006500D02*
G75*
G02*
X5057500Y-11006500I-20000J0D01*
G01*
X5057500Y-11006500D02*
G75*
G02*
X5097500Y-11006500I20000J0D01*
G01*
D11*
X5396372Y-10897984D02*
X5415420Y-10897984D01*
X5415420Y-10897984D02*
X5434467Y-10907507D01*
X5434467Y-10907507D02*
X5443991Y-10917031D01*
X5443991Y-10917031D02*
X5453515Y-10936079D01*
X5453515Y-10936079D02*
X5463039Y-10974174D01*
X5463039Y-10974174D02*
X5463039Y-11021793D01*
X5463039Y-11021793D02*
X5453515Y-11059888D01*
X5453515Y-11059888D02*
X5443991Y-11078936D01*
X5443991Y-11078936D02*
X5434467Y-11088460D01*
X5434467Y-11088460D02*
X5415420Y-11097984D01*
X5415420Y-11097984D02*
X5396372Y-11097984D01*
X5396372Y-11097984D02*
X5377324Y-11088460D01*
X5377324Y-11088460D02*
X5367801Y-11078936D01*
X5367801Y-11078936D02*
X5358277Y-11059888D01*
X5358277Y-11059888D02*
X5348753Y-11021793D01*
X5348753Y-11021793D02*
X5348753Y-10974174D01*
X5348753Y-10974174D02*
X5358277Y-10936079D01*
X5358277Y-10936079D02*
X5367801Y-10917031D01*
X5367801Y-10917031D02*
X5377324Y-10907507D01*
X5377324Y-10907507D02*
X5396372Y-10897984D01*
X5548753Y-11078936D02*
X5558277Y-11088460D01*
X5558277Y-11088460D02*
X5548753Y-11097984D01*
X5548753Y-11097984D02*
X5539229Y-11088460D01*
X5539229Y-11088460D02*
X5548753Y-11078936D01*
X5548753Y-11078936D02*
X5548753Y-11097984D01*
X5729705Y-10964650D02*
X5729705Y-11097984D01*
X5682086Y-10888460D02*
X5634467Y-11031317D01*
X5634467Y-11031317D02*
X5758277Y-11031317D01*
X5872562Y-10897984D02*
X5891610Y-10897984D01*
X5891610Y-10897984D02*
X5910658Y-10907507D01*
X5910658Y-10907507D02*
X5920181Y-10917031D01*
X5920181Y-10917031D02*
X5929705Y-10936079D01*
X5929705Y-10936079D02*
X5939229Y-10974174D01*
X5939229Y-10974174D02*
X5939229Y-11021793D01*
X5939229Y-11021793D02*
X5929705Y-11059888D01*
X5929705Y-11059888D02*
X5920181Y-11078936D01*
X5920181Y-11078936D02*
X5910658Y-11088460D01*
X5910658Y-11088460D02*
X5891610Y-11097984D01*
X5891610Y-11097984D02*
X5872562Y-11097984D01*
X5872562Y-11097984D02*
X5853515Y-11088460D01*
X5853515Y-11088460D02*
X5843991Y-11078936D01*
X5843991Y-11078936D02*
X5834467Y-11059888D01*
X5834467Y-11059888D02*
X5824943Y-11021793D01*
X5824943Y-11021793D02*
X5824943Y-10974174D01*
X5824943Y-10974174D02*
X5834467Y-10936079D01*
X5834467Y-10936079D02*
X5843991Y-10917031D01*
X5843991Y-10917031D02*
X5853515Y-10907507D01*
X5853515Y-10907507D02*
X5872562Y-10897984D01*
X6063039Y-10897984D02*
X6082086Y-10897984D01*
X6082086Y-10897984D02*
X6101134Y-10907507D01*
X6101134Y-10907507D02*
X6110658Y-10917031D01*
X6110658Y-10917031D02*
X6120181Y-10936079D01*
X6120181Y-10936079D02*
X6129705Y-10974174D01*
X6129705Y-10974174D02*
X6129705Y-11021793D01*
X6129705Y-11021793D02*
X6120181Y-11059888D01*
X6120181Y-11059888D02*
X6110658Y-11078936D01*
X6110658Y-11078936D02*
X6101134Y-11088460D01*
X6101134Y-11088460D02*
X6082086Y-11097984D01*
X6082086Y-11097984D02*
X6063039Y-11097984D01*
X6063039Y-11097984D02*
X6043991Y-11088460D01*
X6043991Y-11088460D02*
X6034467Y-11078936D01*
X6034467Y-11078936D02*
X6024943Y-11059888D01*
X6024943Y-11059888D02*
X6015420Y-11021793D01*
X6015420Y-11021793D02*
X6015420Y-10974174D01*
X6015420Y-10974174D02*
X6024943Y-10936079D01*
X6024943Y-10936079D02*
X6034467Y-10917031D01*
X6034467Y-10917031D02*
X6043991Y-10907507D01*
X6043991Y-10907507D02*
X6063039Y-10897984D01*
X6215420Y-11097984D02*
X6215420Y-10964650D01*
X6215420Y-10983698D02*
X6224943Y-10974174D01*
X6224943Y-10974174D02*
X6243991Y-10964650D01*
X6243991Y-10964650D02*
X6272562Y-10964650D01*
X6272562Y-10964650D02*
X6291610Y-10974174D01*
X6291610Y-10974174D02*
X6301134Y-10993222D01*
X6301134Y-10993222D02*
X6301134Y-11097984D01*
X6301134Y-10993222D02*
X6310658Y-10974174D01*
X6310658Y-10974174D02*
X6329705Y-10964650D01*
X6329705Y-10964650D02*
X6358277Y-10964650D01*
X6358277Y-10964650D02*
X6377324Y-10974174D01*
X6377324Y-10974174D02*
X6386848Y-10993222D01*
X6386848Y-10993222D02*
X6386848Y-11097984D01*
X6482086Y-11097984D02*
X6482086Y-10964650D01*
X6482086Y-10983698D02*
X6491610Y-10974174D01*
X6491610Y-10974174D02*
X6510658Y-10964650D01*
X6510658Y-10964650D02*
X6539229Y-10964650D01*
X6539229Y-10964650D02*
X6558277Y-10974174D01*
X6558277Y-10974174D02*
X6567801Y-10993222D01*
X6567801Y-10993222D02*
X6567801Y-11097984D01*
X6567801Y-10993222D02*
X6577324Y-10974174D01*
X6577324Y-10974174D02*
X6596372Y-10964650D01*
X6596372Y-10964650D02*
X6624943Y-10964650D01*
X6624943Y-10964650D02*
X6643991Y-10974174D01*
X6643991Y-10974174D02*
X6653515Y-10993222D01*
X6653515Y-10993222D02*
X6653515Y-11097984D01*
X7043991Y-10888460D02*
X6872563Y-11145603D01*
X7301134Y-10897984D02*
X7320182Y-10897984D01*
X7320182Y-10897984D02*
X7339229Y-10907507D01*
X7339229Y-10907507D02*
X7348753Y-10917031D01*
X7348753Y-10917031D02*
X7358277Y-10936079D01*
X7358277Y-10936079D02*
X7367801Y-10974174D01*
X7367801Y-10974174D02*
X7367801Y-11021793D01*
X7367801Y-11021793D02*
X7358277Y-11059888D01*
X7358277Y-11059888D02*
X7348753Y-11078936D01*
X7348753Y-11078936D02*
X7339229Y-11088460D01*
X7339229Y-11088460D02*
X7320182Y-11097984D01*
X7320182Y-11097984D02*
X7301134Y-11097984D01*
X7301134Y-11097984D02*
X7282086Y-11088460D01*
X7282086Y-11088460D02*
X7272563Y-11078936D01*
X7272563Y-11078936D02*
X7263039Y-11059888D01*
X7263039Y-11059888D02*
X7253515Y-11021793D01*
X7253515Y-11021793D02*
X7253515Y-10974174D01*
X7253515Y-10974174D02*
X7263039Y-10936079D01*
X7263039Y-10936079D02*
X7272563Y-10917031D01*
X7272563Y-10917031D02*
X7282086Y-10907507D01*
X7282086Y-10907507D02*
X7301134Y-10897984D01*
X7453515Y-11078936D02*
X7463039Y-11088460D01*
X7463039Y-11088460D02*
X7453515Y-11097984D01*
X7453515Y-11097984D02*
X7443991Y-11088460D01*
X7443991Y-11088460D02*
X7453515Y-11078936D01*
X7453515Y-11078936D02*
X7453515Y-11097984D01*
X7586848Y-10897984D02*
X7605896Y-10897984D01*
X7605896Y-10897984D02*
X7624944Y-10907507D01*
X7624944Y-10907507D02*
X7634467Y-10917031D01*
X7634467Y-10917031D02*
X7643991Y-10936079D01*
X7643991Y-10936079D02*
X7653515Y-10974174D01*
X7653515Y-10974174D02*
X7653515Y-11021793D01*
X7653515Y-11021793D02*
X7643991Y-11059888D01*
X7643991Y-11059888D02*
X7634467Y-11078936D01*
X7634467Y-11078936D02*
X7624944Y-11088460D01*
X7624944Y-11088460D02*
X7605896Y-11097984D01*
X7605896Y-11097984D02*
X7586848Y-11097984D01*
X7586848Y-11097984D02*
X7567801Y-11088460D01*
X7567801Y-11088460D02*
X7558277Y-11078936D01*
X7558277Y-11078936D02*
X7548753Y-11059888D01*
X7548753Y-11059888D02*
X7539229Y-11021793D01*
X7539229Y-11021793D02*
X7539229Y-10974174D01*
X7539229Y-10974174D02*
X7548753Y-10936079D01*
X7548753Y-10936079D02*
X7558277Y-10917031D01*
X7558277Y-10917031D02*
X7567801Y-10907507D01*
X7567801Y-10907507D02*
X7586848Y-10897984D01*
X7843991Y-11097984D02*
X7729705Y-11097984D01*
X7786848Y-11097984D02*
X7786848Y-10897984D01*
X7786848Y-10897984D02*
X7767801Y-10926555D01*
X7767801Y-10926555D02*
X7748753Y-10945603D01*
X7748753Y-10945603D02*
X7729705Y-10955126D01*
X8024944Y-10897984D02*
X7929705Y-10897984D01*
X7929705Y-10897984D02*
X7920182Y-10993222D01*
X7920182Y-10993222D02*
X7929705Y-10983698D01*
X7929705Y-10983698D02*
X7948753Y-10974174D01*
X7948753Y-10974174D02*
X7996372Y-10974174D01*
X7996372Y-10974174D02*
X8015420Y-10983698D01*
X8015420Y-10983698D02*
X8024944Y-10993222D01*
X8024944Y-10993222D02*
X8034467Y-11012269D01*
X8034467Y-11012269D02*
X8034467Y-11059888D01*
X8034467Y-11059888D02*
X8024944Y-11078936D01*
X8024944Y-11078936D02*
X8015420Y-11088460D01*
X8015420Y-11088460D02*
X7996372Y-11097984D01*
X7996372Y-11097984D02*
X7948753Y-11097984D01*
X7948753Y-11097984D02*
X7929705Y-11088460D01*
X7929705Y-11088460D02*
X7920182Y-11078936D01*
X8101134Y-10897984D02*
X8234467Y-10897984D01*
X8234467Y-10897984D02*
X8148753Y-11097984D01*
X8301134Y-10897984D02*
X8301134Y-10936079D01*
X8377325Y-10897984D02*
X8377325Y-10936079D01*
X8672563Y-11174174D02*
X8663039Y-11164650D01*
X8663039Y-11164650D02*
X8643991Y-11136079D01*
X8643991Y-11136079D02*
X8634468Y-11117031D01*
X8634468Y-11117031D02*
X8624944Y-11088460D01*
X8624944Y-11088460D02*
X8615420Y-11040841D01*
X8615420Y-11040841D02*
X8615420Y-11002746D01*
X8615420Y-11002746D02*
X8624944Y-10955126D01*
X8624944Y-10955126D02*
X8634468Y-10926555D01*
X8634468Y-10926555D02*
X8643991Y-10907507D01*
X8643991Y-10907507D02*
X8663039Y-10878936D01*
X8663039Y-10878936D02*
X8672563Y-10869412D01*
X8853515Y-11097984D02*
X8739229Y-11097984D01*
X8796372Y-11097984D02*
X8796372Y-10897984D01*
X8796372Y-10897984D02*
X8777325Y-10926555D01*
X8777325Y-10926555D02*
X8758277Y-10945603D01*
X8758277Y-10945603D02*
X8739229Y-10955126D01*
X8967801Y-10983698D02*
X8948753Y-10974174D01*
X8948753Y-10974174D02*
X8939229Y-10964650D01*
X8939229Y-10964650D02*
X8929706Y-10945603D01*
X8929706Y-10945603D02*
X8929706Y-10936079D01*
X8929706Y-10936079D02*
X8939229Y-10917031D01*
X8939229Y-10917031D02*
X8948753Y-10907507D01*
X8948753Y-10907507D02*
X8967801Y-10897984D01*
X8967801Y-10897984D02*
X9005896Y-10897984D01*
X9005896Y-10897984D02*
X9024944Y-10907507D01*
X9024944Y-10907507D02*
X9034468Y-10917031D01*
X9034468Y-10917031D02*
X9043991Y-10936079D01*
X9043991Y-10936079D02*
X9043991Y-10945603D01*
X9043991Y-10945603D02*
X9034468Y-10964650D01*
X9034468Y-10964650D02*
X9024944Y-10974174D01*
X9024944Y-10974174D02*
X9005896Y-10983698D01*
X9005896Y-10983698D02*
X8967801Y-10983698D01*
X8967801Y-10983698D02*
X8948753Y-10993222D01*
X8948753Y-10993222D02*
X8939229Y-11002746D01*
X8939229Y-11002746D02*
X8929706Y-11021793D01*
X8929706Y-11021793D02*
X8929706Y-11059888D01*
X8929706Y-11059888D02*
X8939229Y-11078936D01*
X8939229Y-11078936D02*
X8948753Y-11088460D01*
X8948753Y-11088460D02*
X8967801Y-11097984D01*
X8967801Y-11097984D02*
X9005896Y-11097984D01*
X9005896Y-11097984D02*
X9024944Y-11088460D01*
X9024944Y-11088460D02*
X9034468Y-11078936D01*
X9034468Y-11078936D02*
X9043991Y-11059888D01*
X9043991Y-11059888D02*
X9043991Y-11021793D01*
X9043991Y-11021793D02*
X9034468Y-11002746D01*
X9034468Y-11002746D02*
X9024944Y-10993222D01*
X9024944Y-10993222D02*
X9005896Y-10983698D01*
X9282087Y-11097984D02*
X9282087Y-10897984D01*
X9367801Y-11097984D02*
X9367801Y-10993222D01*
X9367801Y-10993222D02*
X9358277Y-10974174D01*
X9358277Y-10974174D02*
X9339230Y-10964650D01*
X9339230Y-10964650D02*
X9310658Y-10964650D01*
X9310658Y-10964650D02*
X9291610Y-10974174D01*
X9291610Y-10974174D02*
X9282087Y-10983698D01*
X9491610Y-11097984D02*
X9472563Y-11088460D01*
X9472563Y-11088460D02*
X9463039Y-11078936D01*
X9463039Y-11078936D02*
X9453515Y-11059888D01*
X9453515Y-11059888D02*
X9453515Y-11002746D01*
X9453515Y-11002746D02*
X9463039Y-10983698D01*
X9463039Y-10983698D02*
X9472563Y-10974174D01*
X9472563Y-10974174D02*
X9491610Y-10964650D01*
X9491610Y-10964650D02*
X9520182Y-10964650D01*
X9520182Y-10964650D02*
X9539230Y-10974174D01*
X9539230Y-10974174D02*
X9548753Y-10983698D01*
X9548753Y-10983698D02*
X9558277Y-11002746D01*
X9558277Y-11002746D02*
X9558277Y-11059888D01*
X9558277Y-11059888D02*
X9548753Y-11078936D01*
X9548753Y-11078936D02*
X9539230Y-11088460D01*
X9539230Y-11088460D02*
X9520182Y-11097984D01*
X9520182Y-11097984D02*
X9491610Y-11097984D01*
X9672563Y-11097984D02*
X9653515Y-11088460D01*
X9653515Y-11088460D02*
X9643991Y-11069412D01*
X9643991Y-11069412D02*
X9643991Y-10897984D01*
X9824944Y-11088460D02*
X9805896Y-11097984D01*
X9805896Y-11097984D02*
X9767801Y-11097984D01*
X9767801Y-11097984D02*
X9748753Y-11088460D01*
X9748753Y-11088460D02*
X9739230Y-11069412D01*
X9739230Y-11069412D02*
X9739230Y-10993222D01*
X9739230Y-10993222D02*
X9748753Y-10974174D01*
X9748753Y-10974174D02*
X9767801Y-10964650D01*
X9767801Y-10964650D02*
X9805896Y-10964650D01*
X9805896Y-10964650D02*
X9824944Y-10974174D01*
X9824944Y-10974174D02*
X9834468Y-10993222D01*
X9834468Y-10993222D02*
X9834468Y-11012269D01*
X9834468Y-11012269D02*
X9739230Y-11031317D01*
X9910658Y-11088460D02*
X9929706Y-11097984D01*
X9929706Y-11097984D02*
X9967801Y-11097984D01*
X9967801Y-11097984D02*
X9986849Y-11088460D01*
X9986849Y-11088460D02*
X9996372Y-11069412D01*
X9996372Y-11069412D02*
X9996372Y-11059888D01*
X9996372Y-11059888D02*
X9986849Y-11040841D01*
X9986849Y-11040841D02*
X9967801Y-11031317D01*
X9967801Y-11031317D02*
X9939230Y-11031317D01*
X9939230Y-11031317D02*
X9920182Y-11021793D01*
X9920182Y-11021793D02*
X9910658Y-11002746D01*
X9910658Y-11002746D02*
X9910658Y-10993222D01*
X9910658Y-10993222D02*
X9920182Y-10974174D01*
X9920182Y-10974174D02*
X9939230Y-10964650D01*
X9939230Y-10964650D02*
X9967801Y-10964650D01*
X9967801Y-10964650D02*
X9986849Y-10974174D01*
X10063039Y-11174174D02*
X10072563Y-11164650D01*
X10072563Y-11164650D02*
X10091611Y-11136079D01*
X10091611Y-11136079D02*
X10101134Y-11117031D01*
X10101134Y-11117031D02*
X10110658Y-11088460D01*
X10110658Y-11088460D02*
X10120182Y-11040841D01*
X10120182Y-11040841D02*
X10120182Y-11002746D01*
X10120182Y-11002746D02*
X10110658Y-10955126D01*
X10110658Y-10955126D02*
X10101134Y-10926555D01*
X10101134Y-10926555D02*
X10091611Y-10907507D01*
X10091611Y-10907507D02*
X10072563Y-10878936D01*
X10072563Y-10878936D02*
X10063039Y-10869412D01*
D12*
X5057500Y-11230500D02*
X5057500Y-11310500D01*
X5017500Y-11270500D02*
X5097500Y-11270500D01*
D11*
X5396372Y-11161984D02*
X5415420Y-11161984D01*
X5415420Y-11161984D02*
X5434467Y-11171507D01*
X5434467Y-11171507D02*
X5443991Y-11181031D01*
X5443991Y-11181031D02*
X5453515Y-11200079D01*
X5453515Y-11200079D02*
X5463039Y-11238174D01*
X5463039Y-11238174D02*
X5463039Y-11285793D01*
X5463039Y-11285793D02*
X5453515Y-11323888D01*
X5453515Y-11323888D02*
X5443991Y-11342936D01*
X5443991Y-11342936D02*
X5434467Y-11352460D01*
X5434467Y-11352460D02*
X5415420Y-11361984D01*
X5415420Y-11361984D02*
X5396372Y-11361984D01*
X5396372Y-11361984D02*
X5377324Y-11352460D01*
X5377324Y-11352460D02*
X5367801Y-11342936D01*
X5367801Y-11342936D02*
X5358277Y-11323888D01*
X5358277Y-11323888D02*
X5348753Y-11285793D01*
X5348753Y-11285793D02*
X5348753Y-11238174D01*
X5348753Y-11238174D02*
X5358277Y-11200079D01*
X5358277Y-11200079D02*
X5367801Y-11181031D01*
X5367801Y-11181031D02*
X5377324Y-11171507D01*
X5377324Y-11171507D02*
X5396372Y-11161984D01*
X5548753Y-11342936D02*
X5558277Y-11352460D01*
X5558277Y-11352460D02*
X5548753Y-11361984D01*
X5548753Y-11361984D02*
X5539229Y-11352460D01*
X5539229Y-11352460D02*
X5548753Y-11342936D01*
X5548753Y-11342936D02*
X5548753Y-11361984D01*
X5672562Y-11247698D02*
X5653515Y-11238174D01*
X5653515Y-11238174D02*
X5643991Y-11228650D01*
X5643991Y-11228650D02*
X5634467Y-11209603D01*
X5634467Y-11209603D02*
X5634467Y-11200079D01*
X5634467Y-11200079D02*
X5643991Y-11181031D01*
X5643991Y-11181031D02*
X5653515Y-11171507D01*
X5653515Y-11171507D02*
X5672562Y-11161984D01*
X5672562Y-11161984D02*
X5710658Y-11161984D01*
X5710658Y-11161984D02*
X5729705Y-11171507D01*
X5729705Y-11171507D02*
X5739229Y-11181031D01*
X5739229Y-11181031D02*
X5748753Y-11200079D01*
X5748753Y-11200079D02*
X5748753Y-11209603D01*
X5748753Y-11209603D02*
X5739229Y-11228650D01*
X5739229Y-11228650D02*
X5729705Y-11238174D01*
X5729705Y-11238174D02*
X5710658Y-11247698D01*
X5710658Y-11247698D02*
X5672562Y-11247698D01*
X5672562Y-11247698D02*
X5653515Y-11257222D01*
X5653515Y-11257222D02*
X5643991Y-11266745D01*
X5643991Y-11266745D02*
X5634467Y-11285793D01*
X5634467Y-11285793D02*
X5634467Y-11323888D01*
X5634467Y-11323888D02*
X5643991Y-11342936D01*
X5643991Y-11342936D02*
X5653515Y-11352460D01*
X5653515Y-11352460D02*
X5672562Y-11361984D01*
X5672562Y-11361984D02*
X5710658Y-11361984D01*
X5710658Y-11361984D02*
X5729705Y-11352460D01*
X5729705Y-11352460D02*
X5739229Y-11342936D01*
X5739229Y-11342936D02*
X5748753Y-11323888D01*
X5748753Y-11323888D02*
X5748753Y-11285793D01*
X5748753Y-11285793D02*
X5739229Y-11266745D01*
X5739229Y-11266745D02*
X5729705Y-11257222D01*
X5729705Y-11257222D02*
X5710658Y-11247698D01*
X5872562Y-11161984D02*
X5891610Y-11161984D01*
X5891610Y-11161984D02*
X5910658Y-11171507D01*
X5910658Y-11171507D02*
X5920181Y-11181031D01*
X5920181Y-11181031D02*
X5929705Y-11200079D01*
X5929705Y-11200079D02*
X5939229Y-11238174D01*
X5939229Y-11238174D02*
X5939229Y-11285793D01*
X5939229Y-11285793D02*
X5929705Y-11323888D01*
X5929705Y-11323888D02*
X5920181Y-11342936D01*
X5920181Y-11342936D02*
X5910658Y-11352460D01*
X5910658Y-11352460D02*
X5891610Y-11361984D01*
X5891610Y-11361984D02*
X5872562Y-11361984D01*
X5872562Y-11361984D02*
X5853515Y-11352460D01*
X5853515Y-11352460D02*
X5843991Y-11342936D01*
X5843991Y-11342936D02*
X5834467Y-11323888D01*
X5834467Y-11323888D02*
X5824943Y-11285793D01*
X5824943Y-11285793D02*
X5824943Y-11238174D01*
X5824943Y-11238174D02*
X5834467Y-11200079D01*
X5834467Y-11200079D02*
X5843991Y-11181031D01*
X5843991Y-11181031D02*
X5853515Y-11171507D01*
X5853515Y-11171507D02*
X5872562Y-11161984D01*
X6063039Y-11161984D02*
X6082086Y-11161984D01*
X6082086Y-11161984D02*
X6101134Y-11171507D01*
X6101134Y-11171507D02*
X6110658Y-11181031D01*
X6110658Y-11181031D02*
X6120181Y-11200079D01*
X6120181Y-11200079D02*
X6129705Y-11238174D01*
X6129705Y-11238174D02*
X6129705Y-11285793D01*
X6129705Y-11285793D02*
X6120181Y-11323888D01*
X6120181Y-11323888D02*
X6110658Y-11342936D01*
X6110658Y-11342936D02*
X6101134Y-11352460D01*
X6101134Y-11352460D02*
X6082086Y-11361984D01*
X6082086Y-11361984D02*
X6063039Y-11361984D01*
X6063039Y-11361984D02*
X6043991Y-11352460D01*
X6043991Y-11352460D02*
X6034467Y-11342936D01*
X6034467Y-11342936D02*
X6024943Y-11323888D01*
X6024943Y-11323888D02*
X6015420Y-11285793D01*
X6015420Y-11285793D02*
X6015420Y-11238174D01*
X6015420Y-11238174D02*
X6024943Y-11200079D01*
X6024943Y-11200079D02*
X6034467Y-11181031D01*
X6034467Y-11181031D02*
X6043991Y-11171507D01*
X6043991Y-11171507D02*
X6063039Y-11161984D01*
X6215420Y-11361984D02*
X6215420Y-11228650D01*
X6215420Y-11247698D02*
X6224943Y-11238174D01*
X6224943Y-11238174D02*
X6243991Y-11228650D01*
X6243991Y-11228650D02*
X6272562Y-11228650D01*
X6272562Y-11228650D02*
X6291610Y-11238174D01*
X6291610Y-11238174D02*
X6301134Y-11257222D01*
X6301134Y-11257222D02*
X6301134Y-11361984D01*
X6301134Y-11257222D02*
X6310658Y-11238174D01*
X6310658Y-11238174D02*
X6329705Y-11228650D01*
X6329705Y-11228650D02*
X6358277Y-11228650D01*
X6358277Y-11228650D02*
X6377324Y-11238174D01*
X6377324Y-11238174D02*
X6386848Y-11257222D01*
X6386848Y-11257222D02*
X6386848Y-11361984D01*
X6482086Y-11361984D02*
X6482086Y-11228650D01*
X6482086Y-11247698D02*
X6491610Y-11238174D01*
X6491610Y-11238174D02*
X6510658Y-11228650D01*
X6510658Y-11228650D02*
X6539229Y-11228650D01*
X6539229Y-11228650D02*
X6558277Y-11238174D01*
X6558277Y-11238174D02*
X6567801Y-11257222D01*
X6567801Y-11257222D02*
X6567801Y-11361984D01*
X6567801Y-11257222D02*
X6577324Y-11238174D01*
X6577324Y-11238174D02*
X6596372Y-11228650D01*
X6596372Y-11228650D02*
X6624943Y-11228650D01*
X6624943Y-11228650D02*
X6643991Y-11238174D01*
X6643991Y-11238174D02*
X6653515Y-11257222D01*
X6653515Y-11257222D02*
X6653515Y-11361984D01*
X7043991Y-11152460D02*
X6872563Y-11409603D01*
X7301134Y-11161984D02*
X7320182Y-11161984D01*
X7320182Y-11161984D02*
X7339229Y-11171507D01*
X7339229Y-11171507D02*
X7348753Y-11181031D01*
X7348753Y-11181031D02*
X7358277Y-11200079D01*
X7358277Y-11200079D02*
X7367801Y-11238174D01*
X7367801Y-11238174D02*
X7367801Y-11285793D01*
X7367801Y-11285793D02*
X7358277Y-11323888D01*
X7358277Y-11323888D02*
X7348753Y-11342936D01*
X7348753Y-11342936D02*
X7339229Y-11352460D01*
X7339229Y-11352460D02*
X7320182Y-11361984D01*
X7320182Y-11361984D02*
X7301134Y-11361984D01*
X7301134Y-11361984D02*
X7282086Y-11352460D01*
X7282086Y-11352460D02*
X7272563Y-11342936D01*
X7272563Y-11342936D02*
X7263039Y-11323888D01*
X7263039Y-11323888D02*
X7253515Y-11285793D01*
X7253515Y-11285793D02*
X7253515Y-11238174D01*
X7253515Y-11238174D02*
X7263039Y-11200079D01*
X7263039Y-11200079D02*
X7272563Y-11181031D01*
X7272563Y-11181031D02*
X7282086Y-11171507D01*
X7282086Y-11171507D02*
X7301134Y-11161984D01*
X7453515Y-11342936D02*
X7463039Y-11352460D01*
X7463039Y-11352460D02*
X7453515Y-11361984D01*
X7453515Y-11361984D02*
X7443991Y-11352460D01*
X7443991Y-11352460D02*
X7453515Y-11342936D01*
X7453515Y-11342936D02*
X7453515Y-11361984D01*
X7586848Y-11161984D02*
X7605896Y-11161984D01*
X7605896Y-11161984D02*
X7624944Y-11171507D01*
X7624944Y-11171507D02*
X7634467Y-11181031D01*
X7634467Y-11181031D02*
X7643991Y-11200079D01*
X7643991Y-11200079D02*
X7653515Y-11238174D01*
X7653515Y-11238174D02*
X7653515Y-11285793D01*
X7653515Y-11285793D02*
X7643991Y-11323888D01*
X7643991Y-11323888D02*
X7634467Y-11342936D01*
X7634467Y-11342936D02*
X7624944Y-11352460D01*
X7624944Y-11352460D02*
X7605896Y-11361984D01*
X7605896Y-11361984D02*
X7586848Y-11361984D01*
X7586848Y-11361984D02*
X7567801Y-11352460D01*
X7567801Y-11352460D02*
X7558277Y-11342936D01*
X7558277Y-11342936D02*
X7548753Y-11323888D01*
X7548753Y-11323888D02*
X7539229Y-11285793D01*
X7539229Y-11285793D02*
X7539229Y-11238174D01*
X7539229Y-11238174D02*
X7548753Y-11200079D01*
X7548753Y-11200079D02*
X7558277Y-11181031D01*
X7558277Y-11181031D02*
X7567801Y-11171507D01*
X7567801Y-11171507D02*
X7586848Y-11161984D01*
X7720182Y-11161984D02*
X7843991Y-11161984D01*
X7843991Y-11161984D02*
X7777324Y-11238174D01*
X7777324Y-11238174D02*
X7805896Y-11238174D01*
X7805896Y-11238174D02*
X7824944Y-11247698D01*
X7824944Y-11247698D02*
X7834467Y-11257222D01*
X7834467Y-11257222D02*
X7843991Y-11276269D01*
X7843991Y-11276269D02*
X7843991Y-11323888D01*
X7843991Y-11323888D02*
X7834467Y-11342936D01*
X7834467Y-11342936D02*
X7824944Y-11352460D01*
X7824944Y-11352460D02*
X7805896Y-11361984D01*
X7805896Y-11361984D02*
X7748753Y-11361984D01*
X7748753Y-11361984D02*
X7729705Y-11352460D01*
X7729705Y-11352460D02*
X7720182Y-11342936D01*
X8034467Y-11361984D02*
X7920182Y-11361984D01*
X7977324Y-11361984D02*
X7977324Y-11161984D01*
X7977324Y-11161984D02*
X7958277Y-11190555D01*
X7958277Y-11190555D02*
X7939229Y-11209603D01*
X7939229Y-11209603D02*
X7920182Y-11219126D01*
X8215420Y-11161984D02*
X8120182Y-11161984D01*
X8120182Y-11161984D02*
X8110658Y-11257222D01*
X8110658Y-11257222D02*
X8120182Y-11247698D01*
X8120182Y-11247698D02*
X8139229Y-11238174D01*
X8139229Y-11238174D02*
X8186848Y-11238174D01*
X8186848Y-11238174D02*
X8205896Y-11247698D01*
X8205896Y-11247698D02*
X8215420Y-11257222D01*
X8215420Y-11257222D02*
X8224944Y-11276269D01*
X8224944Y-11276269D02*
X8224944Y-11323888D01*
X8224944Y-11323888D02*
X8215420Y-11342936D01*
X8215420Y-11342936D02*
X8205896Y-11352460D01*
X8205896Y-11352460D02*
X8186848Y-11361984D01*
X8186848Y-11361984D02*
X8139229Y-11361984D01*
X8139229Y-11361984D02*
X8120182Y-11352460D01*
X8120182Y-11352460D02*
X8110658Y-11342936D01*
X8301134Y-11161984D02*
X8301134Y-11200079D01*
X8377325Y-11161984D02*
X8377325Y-11200079D01*
X8672563Y-11438174D02*
X8663039Y-11428650D01*
X8663039Y-11428650D02*
X8643991Y-11400079D01*
X8643991Y-11400079D02*
X8634468Y-11381031D01*
X8634468Y-11381031D02*
X8624944Y-11352460D01*
X8624944Y-11352460D02*
X8615420Y-11304841D01*
X8615420Y-11304841D02*
X8615420Y-11266745D01*
X8615420Y-11266745D02*
X8624944Y-11219126D01*
X8624944Y-11219126D02*
X8634468Y-11190555D01*
X8634468Y-11190555D02*
X8643991Y-11171507D01*
X8643991Y-11171507D02*
X8663039Y-11142936D01*
X8663039Y-11142936D02*
X8672563Y-11133412D01*
X8853515Y-11361984D02*
X8739229Y-11361984D01*
X8796372Y-11361984D02*
X8796372Y-11161984D01*
X8796372Y-11161984D02*
X8777325Y-11190555D01*
X8777325Y-11190555D02*
X8758277Y-11209603D01*
X8758277Y-11209603D02*
X8739229Y-11219126D01*
X8977325Y-11161984D02*
X8996372Y-11161984D01*
X8996372Y-11161984D02*
X9015420Y-11171507D01*
X9015420Y-11171507D02*
X9024944Y-11181031D01*
X9024944Y-11181031D02*
X9034468Y-11200079D01*
X9034468Y-11200079D02*
X9043991Y-11238174D01*
X9043991Y-11238174D02*
X9043991Y-11285793D01*
X9043991Y-11285793D02*
X9034468Y-11323888D01*
X9034468Y-11323888D02*
X9024944Y-11342936D01*
X9024944Y-11342936D02*
X9015420Y-11352460D01*
X9015420Y-11352460D02*
X8996372Y-11361984D01*
X8996372Y-11361984D02*
X8977325Y-11361984D01*
X8977325Y-11361984D02*
X8958277Y-11352460D01*
X8958277Y-11352460D02*
X8948753Y-11342936D01*
X8948753Y-11342936D02*
X8939229Y-11323888D01*
X8939229Y-11323888D02*
X8929706Y-11285793D01*
X8929706Y-11285793D02*
X8929706Y-11238174D01*
X8929706Y-11238174D02*
X8939229Y-11200079D01*
X8939229Y-11200079D02*
X8948753Y-11181031D01*
X8948753Y-11181031D02*
X8958277Y-11171507D01*
X8958277Y-11171507D02*
X8977325Y-11161984D01*
X9282087Y-11361984D02*
X9282087Y-11161984D01*
X9367801Y-11361984D02*
X9367801Y-11257222D01*
X9367801Y-11257222D02*
X9358277Y-11238174D01*
X9358277Y-11238174D02*
X9339230Y-11228650D01*
X9339230Y-11228650D02*
X9310658Y-11228650D01*
X9310658Y-11228650D02*
X9291610Y-11238174D01*
X9291610Y-11238174D02*
X9282087Y-11247698D01*
X9491610Y-11361984D02*
X9472563Y-11352460D01*
X9472563Y-11352460D02*
X9463039Y-11342936D01*
X9463039Y-11342936D02*
X9453515Y-11323888D01*
X9453515Y-11323888D02*
X9453515Y-11266745D01*
X9453515Y-11266745D02*
X9463039Y-11247698D01*
X9463039Y-11247698D02*
X9472563Y-11238174D01*
X9472563Y-11238174D02*
X9491610Y-11228650D01*
X9491610Y-11228650D02*
X9520182Y-11228650D01*
X9520182Y-11228650D02*
X9539230Y-11238174D01*
X9539230Y-11238174D02*
X9548753Y-11247698D01*
X9548753Y-11247698D02*
X9558277Y-11266745D01*
X9558277Y-11266745D02*
X9558277Y-11323888D01*
X9558277Y-11323888D02*
X9548753Y-11342936D01*
X9548753Y-11342936D02*
X9539230Y-11352460D01*
X9539230Y-11352460D02*
X9520182Y-11361984D01*
X9520182Y-11361984D02*
X9491610Y-11361984D01*
X9672563Y-11361984D02*
X9653515Y-11352460D01*
X9653515Y-11352460D02*
X9643991Y-11333412D01*
X9643991Y-11333412D02*
X9643991Y-11161984D01*
X9824944Y-11352460D02*
X9805896Y-11361984D01*
X9805896Y-11361984D02*
X9767801Y-11361984D01*
X9767801Y-11361984D02*
X9748753Y-11352460D01*
X9748753Y-11352460D02*
X9739230Y-11333412D01*
X9739230Y-11333412D02*
X9739230Y-11257222D01*
X9739230Y-11257222D02*
X9748753Y-11238174D01*
X9748753Y-11238174D02*
X9767801Y-11228650D01*
X9767801Y-11228650D02*
X9805896Y-11228650D01*
X9805896Y-11228650D02*
X9824944Y-11238174D01*
X9824944Y-11238174D02*
X9834468Y-11257222D01*
X9834468Y-11257222D02*
X9834468Y-11276269D01*
X9834468Y-11276269D02*
X9739230Y-11295317D01*
X9910658Y-11352460D02*
X9929706Y-11361984D01*
X9929706Y-11361984D02*
X9967801Y-11361984D01*
X9967801Y-11361984D02*
X9986849Y-11352460D01*
X9986849Y-11352460D02*
X9996372Y-11333412D01*
X9996372Y-11333412D02*
X9996372Y-11323888D01*
X9996372Y-11323888D02*
X9986849Y-11304841D01*
X9986849Y-11304841D02*
X9967801Y-11295317D01*
X9967801Y-11295317D02*
X9939230Y-11295317D01*
X9939230Y-11295317D02*
X9920182Y-11285793D01*
X9920182Y-11285793D02*
X9910658Y-11266745D01*
X9910658Y-11266745D02*
X9910658Y-11257222D01*
X9910658Y-11257222D02*
X9920182Y-11238174D01*
X9920182Y-11238174D02*
X9939230Y-11228650D01*
X9939230Y-11228650D02*
X9967801Y-11228650D01*
X9967801Y-11228650D02*
X9986849Y-11238174D01*
X10063039Y-11438174D02*
X10072563Y-11428650D01*
X10072563Y-11428650D02*
X10091611Y-11400079D01*
X10091611Y-11400079D02*
X10101134Y-11381031D01*
X10101134Y-11381031D02*
X10110658Y-11352460D01*
X10110658Y-11352460D02*
X10120182Y-11304841D01*
X10120182Y-11304841D02*
X10120182Y-11266745D01*
X10120182Y-11266745D02*
X10110658Y-11219126D01*
X10110658Y-11219126D02*
X10101134Y-11190555D01*
X10101134Y-11190555D02*
X10091611Y-11171507D01*
X10091611Y-11171507D02*
X10072563Y-11142936D01*
X10072563Y-11142936D02*
X10063039Y-11133412D01*
D12*
X5082856Y-11569855D02*
X5082856Y-11499144D01*
X5012144Y-11499144D01*
X5012144Y-11569855D01*
X5082856Y-11569855D01*
D11*
X5463039Y-11625984D02*
X5348753Y-11625984D01*
X5405896Y-11625984D02*
X5405896Y-11425984D01*
X5405896Y-11425984D02*
X5386848Y-11454555D01*
X5386848Y-11454555D02*
X5367801Y-11473603D01*
X5367801Y-11473603D02*
X5348753Y-11483126D01*
X5548753Y-11606936D02*
X5558277Y-11616460D01*
X5558277Y-11616460D02*
X5548753Y-11625984D01*
X5548753Y-11625984D02*
X5539229Y-11616460D01*
X5539229Y-11616460D02*
X5548753Y-11606936D01*
X5548753Y-11606936D02*
X5548753Y-11625984D01*
X5682086Y-11425984D02*
X5701134Y-11425984D01*
X5701134Y-11425984D02*
X5720181Y-11435507D01*
X5720181Y-11435507D02*
X5729705Y-11445031D01*
X5729705Y-11445031D02*
X5739229Y-11464079D01*
X5739229Y-11464079D02*
X5748753Y-11502174D01*
X5748753Y-11502174D02*
X5748753Y-11549793D01*
X5748753Y-11549793D02*
X5739229Y-11587888D01*
X5739229Y-11587888D02*
X5729705Y-11606936D01*
X5729705Y-11606936D02*
X5720181Y-11616460D01*
X5720181Y-11616460D02*
X5701134Y-11625984D01*
X5701134Y-11625984D02*
X5682086Y-11625984D01*
X5682086Y-11625984D02*
X5663039Y-11616460D01*
X5663039Y-11616460D02*
X5653515Y-11606936D01*
X5653515Y-11606936D02*
X5643991Y-11587888D01*
X5643991Y-11587888D02*
X5634467Y-11549793D01*
X5634467Y-11549793D02*
X5634467Y-11502174D01*
X5634467Y-11502174D02*
X5643991Y-11464079D01*
X5643991Y-11464079D02*
X5653515Y-11445031D01*
X5653515Y-11445031D02*
X5663039Y-11435507D01*
X5663039Y-11435507D02*
X5682086Y-11425984D01*
X5872562Y-11425984D02*
X5891610Y-11425984D01*
X5891610Y-11425984D02*
X5910658Y-11435507D01*
X5910658Y-11435507D02*
X5920181Y-11445031D01*
X5920181Y-11445031D02*
X5929705Y-11464079D01*
X5929705Y-11464079D02*
X5939229Y-11502174D01*
X5939229Y-11502174D02*
X5939229Y-11549793D01*
X5939229Y-11549793D02*
X5929705Y-11587888D01*
X5929705Y-11587888D02*
X5920181Y-11606936D01*
X5920181Y-11606936D02*
X5910658Y-11616460D01*
X5910658Y-11616460D02*
X5891610Y-11625984D01*
X5891610Y-11625984D02*
X5872562Y-11625984D01*
X5872562Y-11625984D02*
X5853515Y-11616460D01*
X5853515Y-11616460D02*
X5843991Y-11606936D01*
X5843991Y-11606936D02*
X5834467Y-11587888D01*
X5834467Y-11587888D02*
X5824943Y-11549793D01*
X5824943Y-11549793D02*
X5824943Y-11502174D01*
X5824943Y-11502174D02*
X5834467Y-11464079D01*
X5834467Y-11464079D02*
X5843991Y-11445031D01*
X5843991Y-11445031D02*
X5853515Y-11435507D01*
X5853515Y-11435507D02*
X5872562Y-11425984D01*
X6063039Y-11425984D02*
X6082086Y-11425984D01*
X6082086Y-11425984D02*
X6101134Y-11435507D01*
X6101134Y-11435507D02*
X6110658Y-11445031D01*
X6110658Y-11445031D02*
X6120181Y-11464079D01*
X6120181Y-11464079D02*
X6129705Y-11502174D01*
X6129705Y-11502174D02*
X6129705Y-11549793D01*
X6129705Y-11549793D02*
X6120181Y-11587888D01*
X6120181Y-11587888D02*
X6110658Y-11606936D01*
X6110658Y-11606936D02*
X6101134Y-11616460D01*
X6101134Y-11616460D02*
X6082086Y-11625984D01*
X6082086Y-11625984D02*
X6063039Y-11625984D01*
X6063039Y-11625984D02*
X6043991Y-11616460D01*
X6043991Y-11616460D02*
X6034467Y-11606936D01*
X6034467Y-11606936D02*
X6024943Y-11587888D01*
X6024943Y-11587888D02*
X6015420Y-11549793D01*
X6015420Y-11549793D02*
X6015420Y-11502174D01*
X6015420Y-11502174D02*
X6024943Y-11464079D01*
X6024943Y-11464079D02*
X6034467Y-11445031D01*
X6034467Y-11445031D02*
X6043991Y-11435507D01*
X6043991Y-11435507D02*
X6063039Y-11425984D01*
X6215420Y-11625984D02*
X6215420Y-11492650D01*
X6215420Y-11511698D02*
X6224943Y-11502174D01*
X6224943Y-11502174D02*
X6243991Y-11492650D01*
X6243991Y-11492650D02*
X6272562Y-11492650D01*
X6272562Y-11492650D02*
X6291610Y-11502174D01*
X6291610Y-11502174D02*
X6301134Y-11521222D01*
X6301134Y-11521222D02*
X6301134Y-11625984D01*
X6301134Y-11521222D02*
X6310658Y-11502174D01*
X6310658Y-11502174D02*
X6329705Y-11492650D01*
X6329705Y-11492650D02*
X6358277Y-11492650D01*
X6358277Y-11492650D02*
X6377324Y-11502174D01*
X6377324Y-11502174D02*
X6386848Y-11521222D01*
X6386848Y-11521222D02*
X6386848Y-11625984D01*
X6482086Y-11625984D02*
X6482086Y-11492650D01*
X6482086Y-11511698D02*
X6491610Y-11502174D01*
X6491610Y-11502174D02*
X6510658Y-11492650D01*
X6510658Y-11492650D02*
X6539229Y-11492650D01*
X6539229Y-11492650D02*
X6558277Y-11502174D01*
X6558277Y-11502174D02*
X6567801Y-11521222D01*
X6567801Y-11521222D02*
X6567801Y-11625984D01*
X6567801Y-11521222D02*
X6577324Y-11502174D01*
X6577324Y-11502174D02*
X6596372Y-11492650D01*
X6596372Y-11492650D02*
X6624943Y-11492650D01*
X6624943Y-11492650D02*
X6643991Y-11502174D01*
X6643991Y-11502174D02*
X6653515Y-11521222D01*
X6653515Y-11521222D02*
X6653515Y-11625984D01*
X7043991Y-11416460D02*
X6872563Y-11673603D01*
X7301134Y-11425984D02*
X7320182Y-11425984D01*
X7320182Y-11425984D02*
X7339229Y-11435507D01*
X7339229Y-11435507D02*
X7348753Y-11445031D01*
X7348753Y-11445031D02*
X7358277Y-11464079D01*
X7358277Y-11464079D02*
X7367801Y-11502174D01*
X7367801Y-11502174D02*
X7367801Y-11549793D01*
X7367801Y-11549793D02*
X7358277Y-11587888D01*
X7358277Y-11587888D02*
X7348753Y-11606936D01*
X7348753Y-11606936D02*
X7339229Y-11616460D01*
X7339229Y-11616460D02*
X7320182Y-11625984D01*
X7320182Y-11625984D02*
X7301134Y-11625984D01*
X7301134Y-11625984D02*
X7282086Y-11616460D01*
X7282086Y-11616460D02*
X7272563Y-11606936D01*
X7272563Y-11606936D02*
X7263039Y-11587888D01*
X7263039Y-11587888D02*
X7253515Y-11549793D01*
X7253515Y-11549793D02*
X7253515Y-11502174D01*
X7253515Y-11502174D02*
X7263039Y-11464079D01*
X7263039Y-11464079D02*
X7272563Y-11445031D01*
X7272563Y-11445031D02*
X7282086Y-11435507D01*
X7282086Y-11435507D02*
X7301134Y-11425984D01*
X7453515Y-11606936D02*
X7463039Y-11616460D01*
X7463039Y-11616460D02*
X7453515Y-11625984D01*
X7453515Y-11625984D02*
X7443991Y-11616460D01*
X7443991Y-11616460D02*
X7453515Y-11606936D01*
X7453515Y-11606936D02*
X7453515Y-11625984D01*
X7586848Y-11425984D02*
X7605896Y-11425984D01*
X7605896Y-11425984D02*
X7624944Y-11435507D01*
X7624944Y-11435507D02*
X7634467Y-11445031D01*
X7634467Y-11445031D02*
X7643991Y-11464079D01*
X7643991Y-11464079D02*
X7653515Y-11502174D01*
X7653515Y-11502174D02*
X7653515Y-11549793D01*
X7653515Y-11549793D02*
X7643991Y-11587888D01*
X7643991Y-11587888D02*
X7634467Y-11606936D01*
X7634467Y-11606936D02*
X7624944Y-11616460D01*
X7624944Y-11616460D02*
X7605896Y-11625984D01*
X7605896Y-11625984D02*
X7586848Y-11625984D01*
X7586848Y-11625984D02*
X7567801Y-11616460D01*
X7567801Y-11616460D02*
X7558277Y-11606936D01*
X7558277Y-11606936D02*
X7548753Y-11587888D01*
X7548753Y-11587888D02*
X7539229Y-11549793D01*
X7539229Y-11549793D02*
X7539229Y-11502174D01*
X7539229Y-11502174D02*
X7548753Y-11464079D01*
X7548753Y-11464079D02*
X7558277Y-11445031D01*
X7558277Y-11445031D02*
X7567801Y-11435507D01*
X7567801Y-11435507D02*
X7586848Y-11425984D01*
X7720182Y-11425984D02*
X7843991Y-11425984D01*
X7843991Y-11425984D02*
X7777324Y-11502174D01*
X7777324Y-11502174D02*
X7805896Y-11502174D01*
X7805896Y-11502174D02*
X7824944Y-11511698D01*
X7824944Y-11511698D02*
X7834467Y-11521222D01*
X7834467Y-11521222D02*
X7843991Y-11540269D01*
X7843991Y-11540269D02*
X7843991Y-11587888D01*
X7843991Y-11587888D02*
X7834467Y-11606936D01*
X7834467Y-11606936D02*
X7824944Y-11616460D01*
X7824944Y-11616460D02*
X7805896Y-11625984D01*
X7805896Y-11625984D02*
X7748753Y-11625984D01*
X7748753Y-11625984D02*
X7729705Y-11616460D01*
X7729705Y-11616460D02*
X7720182Y-11606936D01*
X7939229Y-11625984D02*
X7977324Y-11625984D01*
X7977324Y-11625984D02*
X7996372Y-11616460D01*
X7996372Y-11616460D02*
X8005896Y-11606936D01*
X8005896Y-11606936D02*
X8024944Y-11578364D01*
X8024944Y-11578364D02*
X8034467Y-11540269D01*
X8034467Y-11540269D02*
X8034467Y-11464079D01*
X8034467Y-11464079D02*
X8024944Y-11445031D01*
X8024944Y-11445031D02*
X8015420Y-11435507D01*
X8015420Y-11435507D02*
X7996372Y-11425984D01*
X7996372Y-11425984D02*
X7958277Y-11425984D01*
X7958277Y-11425984D02*
X7939229Y-11435507D01*
X7939229Y-11435507D02*
X7929705Y-11445031D01*
X7929705Y-11445031D02*
X7920182Y-11464079D01*
X7920182Y-11464079D02*
X7920182Y-11511698D01*
X7920182Y-11511698D02*
X7929705Y-11530745D01*
X7929705Y-11530745D02*
X7939229Y-11540269D01*
X7939229Y-11540269D02*
X7958277Y-11549793D01*
X7958277Y-11549793D02*
X7996372Y-11549793D01*
X7996372Y-11549793D02*
X8015420Y-11540269D01*
X8015420Y-11540269D02*
X8024944Y-11530745D01*
X8024944Y-11530745D02*
X8034467Y-11511698D01*
X8205896Y-11492650D02*
X8205896Y-11625984D01*
X8158277Y-11416460D02*
X8110658Y-11559317D01*
X8110658Y-11559317D02*
X8234467Y-11559317D01*
X8301134Y-11425984D02*
X8301134Y-11464079D01*
X8377325Y-11425984D02*
X8377325Y-11464079D01*
X8672563Y-11702174D02*
X8663039Y-11692650D01*
X8663039Y-11692650D02*
X8643991Y-11664079D01*
X8643991Y-11664079D02*
X8634468Y-11645031D01*
X8634468Y-11645031D02*
X8624944Y-11616460D01*
X8624944Y-11616460D02*
X8615420Y-11568841D01*
X8615420Y-11568841D02*
X8615420Y-11530745D01*
X8615420Y-11530745D02*
X8624944Y-11483126D01*
X8624944Y-11483126D02*
X8634468Y-11454555D01*
X8634468Y-11454555D02*
X8643991Y-11435507D01*
X8643991Y-11435507D02*
X8663039Y-11406936D01*
X8663039Y-11406936D02*
X8672563Y-11397412D01*
X8739229Y-11445031D02*
X8748753Y-11435507D01*
X8748753Y-11435507D02*
X8767801Y-11425984D01*
X8767801Y-11425984D02*
X8815420Y-11425984D01*
X8815420Y-11425984D02*
X8834468Y-11435507D01*
X8834468Y-11435507D02*
X8843991Y-11445031D01*
X8843991Y-11445031D02*
X8853515Y-11464079D01*
X8853515Y-11464079D02*
X8853515Y-11483126D01*
X8853515Y-11483126D02*
X8843991Y-11511698D01*
X8843991Y-11511698D02*
X8729706Y-11625984D01*
X8729706Y-11625984D02*
X8853515Y-11625984D01*
X8977325Y-11425984D02*
X8996372Y-11425984D01*
X8996372Y-11425984D02*
X9015420Y-11435507D01*
X9015420Y-11435507D02*
X9024944Y-11445031D01*
X9024944Y-11445031D02*
X9034468Y-11464079D01*
X9034468Y-11464079D02*
X9043991Y-11502174D01*
X9043991Y-11502174D02*
X9043991Y-11549793D01*
X9043991Y-11549793D02*
X9034468Y-11587888D01*
X9034468Y-11587888D02*
X9024944Y-11606936D01*
X9024944Y-11606936D02*
X9015420Y-11616460D01*
X9015420Y-11616460D02*
X8996372Y-11625984D01*
X8996372Y-11625984D02*
X8977325Y-11625984D01*
X8977325Y-11625984D02*
X8958277Y-11616460D01*
X8958277Y-11616460D02*
X8948753Y-11606936D01*
X8948753Y-11606936D02*
X8939229Y-11587888D01*
X8939229Y-11587888D02*
X8929706Y-11549793D01*
X8929706Y-11549793D02*
X8929706Y-11502174D01*
X8929706Y-11502174D02*
X8939229Y-11464079D01*
X8939229Y-11464079D02*
X8948753Y-11445031D01*
X8948753Y-11445031D02*
X8958277Y-11435507D01*
X8958277Y-11435507D02*
X8977325Y-11425984D01*
X9282087Y-11625984D02*
X9282087Y-11425984D01*
X9367801Y-11625984D02*
X9367801Y-11521222D01*
X9367801Y-11521222D02*
X9358277Y-11502174D01*
X9358277Y-11502174D02*
X9339230Y-11492650D01*
X9339230Y-11492650D02*
X9310658Y-11492650D01*
X9310658Y-11492650D02*
X9291610Y-11502174D01*
X9291610Y-11502174D02*
X9282087Y-11511698D01*
X9491610Y-11625984D02*
X9472563Y-11616460D01*
X9472563Y-11616460D02*
X9463039Y-11606936D01*
X9463039Y-11606936D02*
X9453515Y-11587888D01*
X9453515Y-11587888D02*
X9453515Y-11530745D01*
X9453515Y-11530745D02*
X9463039Y-11511698D01*
X9463039Y-11511698D02*
X9472563Y-11502174D01*
X9472563Y-11502174D02*
X9491610Y-11492650D01*
X9491610Y-11492650D02*
X9520182Y-11492650D01*
X9520182Y-11492650D02*
X9539230Y-11502174D01*
X9539230Y-11502174D02*
X9548753Y-11511698D01*
X9548753Y-11511698D02*
X9558277Y-11530745D01*
X9558277Y-11530745D02*
X9558277Y-11587888D01*
X9558277Y-11587888D02*
X9548753Y-11606936D01*
X9548753Y-11606936D02*
X9539230Y-11616460D01*
X9539230Y-11616460D02*
X9520182Y-11625984D01*
X9520182Y-11625984D02*
X9491610Y-11625984D01*
X9672563Y-11625984D02*
X9653515Y-11616460D01*
X9653515Y-11616460D02*
X9643991Y-11597412D01*
X9643991Y-11597412D02*
X9643991Y-11425984D01*
X9824944Y-11616460D02*
X9805896Y-11625984D01*
X9805896Y-11625984D02*
X9767801Y-11625984D01*
X9767801Y-11625984D02*
X9748753Y-11616460D01*
X9748753Y-11616460D02*
X9739230Y-11597412D01*
X9739230Y-11597412D02*
X9739230Y-11521222D01*
X9739230Y-11521222D02*
X9748753Y-11502174D01*
X9748753Y-11502174D02*
X9767801Y-11492650D01*
X9767801Y-11492650D02*
X9805896Y-11492650D01*
X9805896Y-11492650D02*
X9824944Y-11502174D01*
X9824944Y-11502174D02*
X9834468Y-11521222D01*
X9834468Y-11521222D02*
X9834468Y-11540269D01*
X9834468Y-11540269D02*
X9739230Y-11559317D01*
X9910658Y-11616460D02*
X9929706Y-11625984D01*
X9929706Y-11625984D02*
X9967801Y-11625984D01*
X9967801Y-11625984D02*
X9986849Y-11616460D01*
X9986849Y-11616460D02*
X9996372Y-11597412D01*
X9996372Y-11597412D02*
X9996372Y-11587888D01*
X9996372Y-11587888D02*
X9986849Y-11568841D01*
X9986849Y-11568841D02*
X9967801Y-11559317D01*
X9967801Y-11559317D02*
X9939230Y-11559317D01*
X9939230Y-11559317D02*
X9920182Y-11549793D01*
X9920182Y-11549793D02*
X9910658Y-11530745D01*
X9910658Y-11530745D02*
X9910658Y-11521222D01*
X9910658Y-11521222D02*
X9920182Y-11502174D01*
X9920182Y-11502174D02*
X9939230Y-11492650D01*
X9939230Y-11492650D02*
X9967801Y-11492650D01*
X9967801Y-11492650D02*
X9986849Y-11502174D01*
X10063039Y-11702174D02*
X10072563Y-11692650D01*
X10072563Y-11692650D02*
X10091611Y-11664079D01*
X10091611Y-11664079D02*
X10101134Y-11645031D01*
X10101134Y-11645031D02*
X10110658Y-11616460D01*
X10110658Y-11616460D02*
X10120182Y-11568841D01*
X10120182Y-11568841D02*
X10120182Y-11530745D01*
X10120182Y-11530745D02*
X10110658Y-11483126D01*
X10110658Y-11483126D02*
X10101134Y-11454555D01*
X10101134Y-11454555D02*
X10091611Y-11435507D01*
X10091611Y-11435507D02*
X10072563Y-11406936D01*
X10072563Y-11406936D02*
X10063039Y-11397412D01*
M02*
